<svg width="588" height="108" viewBox="0 0 588 108" fill="none" xmlns="http://www.w3.org/2000/svg">
<path d="M21.792 34H17.6L6.048 15.536H5.92C5.96267 16.3893 6.016 17.3707 6.08 18.48C6.144 19.568 6.176 20.688 6.176 21.84V34H3.04V11.152H7.2L18.72 29.52H18.816C18.7947 29.072 18.7627 28.5067 18.72 27.824C18.6987 27.1413 18.6773 26.416 18.656 25.648C18.6347 24.8587 18.6133 24.1227 18.592 23.44V11.152H21.792V34ZM34.1878 16.432C36.3424 16.432 37.9531 16.912 39.0198 17.872C40.1078 18.8107 40.6518 20.2933 40.6518 22.32V34H38.2518L37.5798 31.6H37.4518C36.7051 32.5387 35.9158 33.232 35.0838 33.68C34.2731 34.1067 33.1424 34.32 31.6918 34.32C30.1344 34.32 28.8438 33.904 27.8198 33.072C26.7958 32.2187 26.2838 30.896 26.2838 29.104C26.2838 27.3547 26.9451 26.0213 28.2678 25.104C29.5904 24.1867 31.6278 23.6853 34.3798 23.6L37.3238 23.504V22.544C37.3238 21.2853 37.0358 20.4 36.4598 19.888C35.8838 19.3547 35.0731 19.088 34.0278 19.088C33.1531 19.088 32.3104 19.216 31.4998 19.472C30.6891 19.728 29.9104 20.0373 29.1638 20.4L28.0758 17.936C28.8864 17.5093 29.8144 17.1573 30.8598 16.88C31.9264 16.5813 33.0358 16.432 34.1878 16.432ZM34.9878 25.776C33.0251 25.8613 31.6598 26.192 30.8918 26.768C30.1451 27.3227 29.7718 28.112 29.7718 29.136C29.7718 30.032 30.0384 30.6827 30.5718 31.088C31.1051 31.4933 31.7984 31.696 32.6518 31.696C33.9744 31.696 35.0731 31.3227 35.9478 30.576C36.8438 29.8293 37.2918 28.7093 37.2918 27.216V25.712L34.9878 25.776ZM49.7468 34L43.2188 16.752H46.8028L50.3868 26.832C50.6214 27.4933 50.8561 28.24 51.0908 29.072C51.3254 29.8827 51.4748 30.5547 51.5388 31.088H51.6667C51.7521 30.5547 51.9228 29.872 52.1788 29.04C52.4348 28.208 52.6694 27.472 52.8828 26.832L56.4668 16.752H60.0508L53.4908 34H49.7468ZM69.7905 11.152C72.6918 11.152 74.8892 11.5787 76.3825 12.432C77.8972 13.2853 78.6545 14.7573 78.6545 16.848C78.6545 18.192 78.2918 19.312 77.5665 20.208C76.8625 21.0827 75.8492 21.6373 74.5265 21.872V22.032C75.4225 22.1813 76.2332 22.4587 76.9585 22.864C77.7052 23.2693 78.2918 23.8453 78.7185 24.592C79.1452 25.3173 79.3585 26.2773 79.3585 27.472C79.3585 29.5413 78.6332 31.152 77.1825 32.304C75.7318 33.4347 73.7692 34 71.2945 34H63.1025V11.152H69.7905ZM70.3665 20.688C72.1585 20.688 73.3852 20.4 74.0465 19.824C74.7292 19.248 75.0705 18.3947 75.0705 17.264C75.0705 16.1333 74.6652 15.3227 73.8545 14.832C73.0438 14.32 71.7532 14.064 69.9825 14.064H66.5585V20.688H70.3665ZM66.5585 23.504V31.12H70.7505C72.5852 31.12 73.8652 30.7573 74.5905 30.032C75.3372 29.3067 75.7105 28.3467 75.7105 27.152C75.7105 26.064 75.3265 25.1893 74.5585 24.528C73.8118 23.8453 72.4678 23.504 70.5265 23.504H66.5585ZM90.4065 16.432C92.5612 16.432 94.1718 16.912 95.2385 17.872C96.3265 18.8107 96.8705 20.2933 96.8705 22.32V34H94.4705L93.7985 31.6H93.6705C92.9238 32.5387 92.1345 33.232 91.3025 33.68C90.4918 34.1067 89.3612 34.32 87.9105 34.32C86.3532 34.32 85.0625 33.904 84.0385 33.072C83.0145 32.2187 82.5025 30.896 82.5025 29.104C82.5025 27.3547 83.1638 26.0213 84.4865 25.104C85.8092 24.1867 87.8465 23.6853 90.5985 23.6L93.5425 23.504V22.544C93.5425 21.2853 93.2545 20.4 92.6785 19.888C92.1025 19.3547 91.2918 19.088 90.2465 19.088C89.3718 19.088 88.5292 19.216 87.7185 19.472C86.9078 19.728 86.1292 20.0373 85.3825 20.4L84.2945 17.936C85.1052 17.5093 86.0332 17.1573 87.0785 16.88C88.1452 16.5813 89.2545 16.432 90.4065 16.432ZM91.2065 25.776C89.2438 25.8613 87.8785 26.192 87.1105 26.768C86.3638 27.3227 85.9905 28.112 85.9905 29.136C85.9905 30.032 86.2572 30.6827 86.7905 31.088C87.3238 31.4933 88.0172 31.696 88.8705 31.696C90.1932 31.696 91.2918 31.3227 92.1665 30.576C93.0625 29.8293 93.5105 28.7093 93.5105 27.216V25.712L91.2065 25.776ZM110.606 16.432C110.904 16.432 111.224 16.4533 111.566 16.496C111.928 16.5173 112.238 16.5493 112.494 16.592L112.142 19.76C111.587 19.6107 111.011 19.536 110.414 19.536C109.56 19.536 108.75 19.7493 107.982 20.176C107.235 20.6027 106.627 21.2213 106.158 22.032C105.71 22.8213 105.486 23.7813 105.486 24.912V34H102.094V16.752H104.782L105.23 19.824H105.358C105.912 18.9067 106.627 18.1173 107.502 17.456C108.376 16.7733 109.411 16.432 110.606 16.432Z" fill="#141414"/>
<rect width="588" height="53" transform="translate(0 55)" fill="#FDFCF2"/>
<path d="M36.688 88.128C35.568 88.128 34.5547 87.8827 33.648 87.392C32.752 86.8907 32.048 86.208 31.536 85.344C31.024 84.4693 30.768 83.488 30.768 82.4C30.768 81.312 31.024 80.336 31.536 79.472C32.048 78.5973 32.7573 77.9147 33.664 77.424C34.5707 76.9227 35.584 76.672 36.704 76.672C37.5787 76.672 38.3787 76.8213 39.104 77.12C39.8293 77.408 40.448 77.84 40.96 78.416L39.92 79.424C39.0773 78.5387 38.0267 78.096 36.768 78.096C35.936 78.096 35.184 78.2827 34.512 78.656C33.84 79.0293 33.312 79.5467 32.928 80.208C32.5547 80.8587 32.368 81.5893 32.368 82.4C32.368 83.2107 32.5547 83.9467 32.928 84.608C33.312 85.2587 33.84 85.7707 34.512 86.144C35.184 86.5173 35.936 86.704 36.768 86.704C38.016 86.704 39.0667 86.256 39.92 85.36L40.96 86.368C40.448 86.944 39.824 87.3813 39.088 87.68C38.3627 87.9787 37.5627 88.128 36.688 88.128ZM46.6911 88.096C45.8485 88.096 45.0911 87.9093 44.4191 87.536C43.7471 87.1627 43.2191 86.6507 42.8351 86C42.4618 85.3387 42.2751 84.592 42.2751 83.76C42.2751 82.928 42.4618 82.1867 42.8351 81.536C43.2191 80.8747 43.7471 80.3627 44.4191 80C45.0911 79.6267 45.8485 79.44 46.6911 79.44C47.5338 79.44 48.2858 79.6267 48.9471 80C49.6191 80.3627 50.1418 80.8747 50.5151 81.536C50.8991 82.1867 51.0911 82.928 51.0911 83.76C51.0911 84.592 50.8991 85.3387 50.5151 86C50.1418 86.6507 49.6191 87.1627 48.9471 87.536C48.2858 87.9093 47.5338 88.096 46.6911 88.096ZM46.6911 86.752C47.2351 86.752 47.7205 86.6293 48.1471 86.384C48.5845 86.128 48.9258 85.776 49.1711 85.328C49.4165 84.8693 49.5391 84.3467 49.5391 83.76C49.5391 83.1733 49.4165 82.656 49.1711 82.208C48.9258 81.7493 48.5845 81.3973 48.1471 81.152C47.7205 80.9067 47.2351 80.784 46.6911 80.784C46.1471 80.784 45.6565 80.9067 45.2191 81.152C44.7925 81.3973 44.4511 81.7493 44.1951 82.208C43.9498 82.656 43.8271 83.1733 43.8271 83.76C43.8271 84.3467 43.9498 84.8693 44.1951 85.328C44.4511 85.776 44.7925 86.128 45.2191 86.384C45.6565 86.6293 46.1471 86.752 46.6911 86.752ZM53.6154 76.128H55.1514V88H53.6154V76.128ZM66.1481 83.808C66.1481 83.9253 66.1375 84.08 66.1161 84.272H59.2361C59.3321 85.0187 59.6575 85.6213 60.2121 86.08C60.7775 86.528 61.4761 86.752 62.3081 86.752C63.3215 86.752 64.1375 86.4107 64.7561 85.728L65.6041 86.72C65.2201 87.168 64.7401 87.5093 64.1641 87.744C63.5988 87.9787 62.9641 88.096 62.2601 88.096C61.3641 88.096 60.5695 87.9147 59.8761 87.552C59.1828 87.1787 58.6441 86.6613 58.2601 86C57.8868 85.3387 57.7001 84.592 57.7001 83.76C57.7001 82.9387 57.8815 82.1973 58.2441 81.536C58.6175 80.8747 59.1241 80.3627 59.7641 80C60.4148 79.6267 61.1455 79.44 61.9561 79.44C62.7668 79.44 63.4868 79.6267 64.1161 80C64.7561 80.3627 65.2521 80.8747 65.6041 81.536C65.9668 82.1973 66.1481 82.9547 66.1481 83.808ZM61.9561 80.736C61.2201 80.736 60.6015 80.96 60.1001 81.408C59.6095 81.856 59.3215 82.4427 59.2361 83.168H64.6761C64.5908 82.4533 64.2975 81.872 63.7961 81.424C63.3055 80.9653 62.6921 80.736 61.9561 80.736ZM72.377 88.096C71.513 88.096 70.7397 87.9093 70.057 87.536C69.385 87.1627 68.857 86.6507 68.473 86C68.089 85.3387 67.897 84.592 67.897 83.76C67.897 82.928 68.089 82.1867 68.473 81.536C68.857 80.8747 69.385 80.3627 70.057 80C70.7397 79.6267 71.513 79.44 72.377 79.44C73.145 79.44 73.8277 79.5947 74.425 79.904C75.033 80.2133 75.5023 80.6613 75.833 81.248L74.665 82C74.3983 81.5947 74.0677 81.2907 73.673 81.088C73.2783 80.8853 72.841 80.784 72.361 80.784C71.8063 80.784 71.305 80.9067 70.857 81.152C70.4197 81.3973 70.073 81.7493 69.817 82.208C69.5717 82.656 69.449 83.1733 69.449 83.76C69.449 84.3573 69.5717 84.8853 69.817 85.344C70.073 85.792 70.4197 86.1387 70.857 86.384C71.305 86.6293 71.8063 86.752 72.361 86.752C72.841 86.752 73.2783 86.6507 73.673 86.448C74.0677 86.2453 74.3983 85.9413 74.665 85.536L75.833 86.272C75.5023 86.8587 75.033 87.312 74.425 87.632C73.8277 87.9413 73.145 88.096 72.377 88.096ZM81.7926 88.096C80.9286 88.096 80.1553 87.9093 79.4726 87.536C78.8006 87.1627 78.2726 86.6507 77.8886 86C77.5046 85.3387 77.3126 84.592 77.3126 83.76C77.3126 82.928 77.5046 82.1867 77.8886 81.536C78.2726 80.8747 78.8006 80.3627 79.4726 80C80.1553 79.6267 80.9286 79.44 81.7926 79.44C82.5606 79.44 83.2433 79.5947 83.8406 79.904C84.4486 80.2133 84.918 80.6613 85.2486 81.248L84.0806 82C83.814 81.5947 83.4833 81.2907 83.0886 81.088C82.694 80.8853 82.2566 80.784 81.7766 80.784C81.222 80.784 80.7206 80.9067 80.2726 81.152C79.8353 81.3973 79.4886 81.7493 79.2326 82.208C78.9873 82.656 78.8646 83.1733 78.8646 83.76C78.8646 84.3573 78.9873 84.8853 79.2326 85.344C79.4886 85.792 79.8353 86.1387 80.2726 86.384C80.7206 86.6293 81.222 86.752 81.7766 86.752C82.2566 86.752 82.694 86.6507 83.0886 86.448C83.4833 86.2453 83.814 85.9413 84.0806 85.536L85.2486 86.272C84.918 86.8587 84.4486 87.312 83.8406 87.632C83.2433 87.9413 82.5606 88.096 81.7926 88.096ZM87.6373 79.52H89.1733V88H87.6373V79.52ZM88.4053 77.888C88.1066 77.888 87.8559 77.792 87.6533 77.6C87.4613 77.408 87.3653 77.1733 87.3653 76.896C87.3653 76.6187 87.4613 76.384 87.6533 76.192C87.8559 75.9893 88.1066 75.888 88.4053 75.888C88.7039 75.888 88.9493 75.984 89.1413 76.176C89.3439 76.3573 89.4453 76.5867 89.4453 76.864C89.4453 77.152 89.3439 77.3973 89.1413 77.6C88.9493 77.792 88.7039 77.888 88.4053 77.888ZM96.138 88.096C95.2953 88.096 94.538 87.9093 93.866 87.536C93.194 87.1627 92.666 86.6507 92.282 86C91.9087 85.3387 91.722 84.592 91.722 83.76C91.722 82.928 91.9087 82.1867 92.282 81.536C92.666 80.8747 93.194 80.3627 93.866 80C94.538 79.6267 95.2953 79.44 96.138 79.44C96.9807 79.44 97.7327 79.6267 98.394 80C99.066 80.3627 99.5887 80.8747 99.962 81.536C100.346 82.1867 100.538 82.928 100.538 83.76C100.538 84.592 100.346 85.3387 99.962 86C99.5887 86.6507 99.066 87.1627 98.394 87.536C97.7327 87.9093 96.9807 88.096 96.138 88.096ZM96.138 86.752C96.682 86.752 97.1673 86.6293 97.594 86.384C98.0313 86.128 98.3727 85.776 98.618 85.328C98.8633 84.8693 98.986 84.3467 98.986 83.76C98.986 83.1733 98.8633 82.656 98.618 82.208C98.3727 81.7493 98.0313 81.3973 97.594 81.152C97.1673 80.9067 96.682 80.784 96.138 80.784C95.594 80.784 95.1033 80.9067 94.666 81.152C94.2393 81.3973 93.898 81.7493 93.642 82.208C93.3967 82.656 93.274 83.1733 93.274 83.76C93.274 84.3467 93.3967 84.8693 93.642 85.328C93.898 85.776 94.2393 86.128 94.666 86.384C95.1033 86.6293 95.594 86.752 96.138 86.752ZM97.098 76.208H99.05L96.362 78.288H94.922L97.098 76.208ZM107.59 79.44C108.668 79.44 109.521 79.7547 110.15 80.384C110.79 81.0027 111.11 81.9147 111.11 83.12V88H109.574V83.296C109.574 82.4747 109.377 81.856 108.982 81.44C108.588 81.024 108.022 80.816 107.286 80.816C106.454 80.816 105.798 81.0613 105.318 81.552C104.838 82.032 104.598 82.7253 104.598 83.632V88H103.062V79.52H104.534V80.8C104.844 80.3627 105.26 80.0267 105.782 79.792C106.316 79.5573 106.918 79.44 107.59 79.44Z" fill="#7C6436"/>
<path d="M376.312 76.8V88H375L368.28 79.648V88H366.68V76.8H367.992L374.712 85.152V76.8H376.312ZM383.472 88.096C382.63 88.096 381.872 87.9093 381.2 87.536C380.528 87.1627 380 86.6507 379.616 86C379.243 85.3387 379.056 84.592 379.056 83.76C379.056 82.928 379.243 82.1867 379.616 81.536C380 80.8747 380.528 80.3627 381.2 80C381.872 79.6267 382.63 79.44 383.472 79.44C384.315 79.44 385.067 79.6267 385.728 80C386.4 80.3627 386.923 80.8747 387.296 81.536C387.68 82.1867 387.872 82.928 387.872 83.76C387.872 84.592 387.68 85.3387 387.296 86C386.923 86.6507 386.4 87.1627 385.728 87.536C385.067 87.9093 384.315 88.096 383.472 88.096ZM383.472 86.752C384.016 86.752 384.502 86.6293 384.928 86.384C385.366 86.128 385.707 85.776 385.952 85.328C386.198 84.8693 386.32 84.3467 386.32 83.76C386.32 83.1733 386.198 82.656 385.952 82.208C385.707 81.7493 385.366 81.3973 384.928 81.152C384.502 80.9067 384.016 80.784 383.472 80.784C382.928 80.784 382.438 80.9067 382 81.152C381.574 81.3973 381.232 81.7493 380.976 82.208C380.731 82.656 380.608 83.1733 380.608 83.76C380.608 84.3467 380.731 84.8693 380.976 85.328C381.232 85.776 381.574 86.128 382 86.384C382.438 86.6293 382.928 86.752 383.472 86.752ZM392.829 88.096C392.135 88.096 391.469 88.0053 390.829 87.824C390.189 87.632 389.687 87.392 389.325 87.104L389.965 85.888C390.338 86.1547 390.791 86.368 391.325 86.528C391.858 86.688 392.397 86.768 392.941 86.768C394.285 86.768 394.957 86.384 394.957 85.616C394.957 85.36 394.866 85.1573 394.685 85.008C394.503 84.8587 394.274 84.752 393.997 84.688C393.73 84.6133 393.346 84.5333 392.845 84.448C392.162 84.3413 391.602 84.2187 391.165 84.08C390.738 83.9413 390.37 83.7067 390.061 83.376C389.751 83.0453 389.597 82.5813 389.597 81.984C389.597 81.216 389.917 80.6027 390.557 80.144C391.197 79.6747 392.055 79.44 393.133 79.44C393.698 79.44 394.263 79.5093 394.829 79.648C395.394 79.7867 395.858 79.9733 396.221 80.208L395.565 81.424C394.871 80.976 394.055 80.752 393.117 80.752C392.466 80.752 391.97 80.8587 391.629 81.072C391.287 81.2853 391.117 81.568 391.117 81.92C391.117 82.1973 391.213 82.416 391.405 82.576C391.597 82.736 391.831 82.8533 392.109 82.928C392.397 83.0027 392.797 83.088 393.309 83.184C393.991 83.3013 394.541 83.4293 394.957 83.568C395.383 83.696 395.746 83.92 396.045 84.24C396.343 84.56 396.493 85.008 396.493 85.584C396.493 86.352 396.162 86.9653 395.501 87.424C394.85 87.872 393.959 88.096 392.829 88.096ZM402.444 88.096C401.602 88.096 400.844 87.9093 400.172 87.536C399.5 87.1627 398.972 86.6507 398.588 86C398.215 85.3387 398.028 84.592 398.028 83.76C398.028 82.928 398.215 82.1867 398.588 81.536C398.972 80.8747 399.5 80.3627 400.172 80C400.844 79.6267 401.602 79.44 402.444 79.44C403.287 79.44 404.039 79.6267 404.7 80C405.372 80.3627 405.895 80.8747 406.268 81.536C406.652 82.1867 406.844 82.928 406.844 83.76C406.844 84.592 406.652 85.3387 406.268 86C405.895 86.6507 405.372 87.1627 404.7 87.536C404.039 87.9093 403.287 88.096 402.444 88.096ZM402.444 86.752C402.988 86.752 403.474 86.6293 403.9 86.384C404.338 86.128 404.679 85.776 404.924 85.328C405.17 84.8693 405.292 84.3467 405.292 83.76C405.292 83.1733 405.17 82.656 404.924 82.208C404.679 81.7493 404.338 81.3973 403.9 81.152C403.474 80.9067 402.988 80.784 402.444 80.784C401.9 80.784 401.41 80.9067 400.972 81.152C400.546 81.3973 400.204 81.7493 399.948 82.208C399.703 82.656 399.58 83.1733 399.58 83.76C399.58 84.3467 399.703 84.8693 399.948 85.328C400.204 85.776 400.546 86.128 400.972 86.384C401.41 86.6293 401.9 86.752 402.444 86.752ZM414.136 87.504C413.912 87.696 413.635 87.8453 413.304 87.952C412.974 88.048 412.632 88.096 412.28 88.096C411.427 88.096 410.766 87.8667 410.296 87.408C409.827 86.9493 409.592 86.2933 409.592 85.44V80.784H408.152V79.52H409.592V77.664H411.128V79.52H413.56V80.784H411.128V85.376C411.128 85.8347 411.24 86.1867 411.464 86.432C411.699 86.6773 412.03 86.8 412.456 86.8C412.926 86.8 413.326 86.6667 413.656 86.4L414.136 87.504ZM417.866 80.944C418.132 80.4533 418.527 80.08 419.049 79.824C419.572 79.568 420.207 79.44 420.954 79.44V80.928C420.868 80.9173 420.751 80.912 420.602 80.912C419.77 80.912 419.114 81.1627 418.634 81.664C418.164 82.1547 417.93 82.8587 417.93 83.776V88H416.394V79.52H417.866V80.944ZM426.319 79.44C427.492 79.44 428.388 79.728 429.007 80.304C429.636 80.88 429.951 81.7387 429.951 82.88V88H428.495V86.88C428.239 87.2747 427.871 87.5787 427.391 87.792C426.922 87.9947 426.362 88.096 425.711 88.096C424.762 88.096 423.999 87.8667 423.423 87.408C422.858 86.9493 422.575 86.3467 422.575 85.6C422.575 84.8533 422.847 84.256 423.391 83.808C423.935 83.3493 424.799 83.12 425.983 83.12H428.415V82.816C428.415 82.1547 428.223 81.648 427.839 81.296C427.455 80.944 426.89 80.768 426.143 80.768C425.642 80.768 425.151 80.8533 424.671 81.024C424.191 81.184 423.786 81.4027 423.455 81.68L422.815 80.528C423.252 80.176 423.775 79.9093 424.383 79.728C424.991 79.536 425.636 79.44 426.319 79.44ZM425.967 86.912C426.554 86.912 427.06 86.784 427.487 86.528C427.914 86.2613 428.223 85.888 428.415 85.408V84.224H426.047C424.746 84.224 424.095 84.6613 424.095 85.536C424.095 85.9627 424.26 86.2987 424.591 86.544C424.922 86.7893 425.38 86.912 425.967 86.912ZM435.626 88.096C434.932 88.096 434.266 88.0053 433.626 87.824C432.986 87.632 432.484 87.392 432.122 87.104L432.762 85.888C433.135 86.1547 433.588 86.368 434.122 86.528C434.655 86.688 435.194 86.768 435.738 86.768C437.082 86.768 437.754 86.384 437.754 85.616C437.754 85.36 437.663 85.1573 437.482 85.008C437.3 84.8587 437.071 84.752 436.794 84.688C436.527 84.6133 436.143 84.5333 435.642 84.448C434.959 84.3413 434.399 84.2187 433.962 84.08C433.535 83.9413 433.167 83.7067 432.858 83.376C432.548 83.0453 432.394 82.5813 432.394 81.984C432.394 81.216 432.714 80.6027 433.354 80.144C433.994 79.6747 434.852 79.44 435.93 79.44C436.495 79.44 437.06 79.5093 437.626 79.648C438.191 79.7867 438.655 79.9733 439.018 80.208L438.362 81.424C437.668 80.976 436.852 80.752 435.914 80.752C435.263 80.752 434.767 80.8587 434.426 81.072C434.084 81.2853 433.914 81.568 433.914 81.92C433.914 82.1973 434.01 82.416 434.202 82.576C434.394 82.736 434.628 82.8533 434.906 82.928C435.194 83.0027 435.594 83.088 436.106 83.184C436.788 83.3013 437.338 83.4293 437.754 83.568C438.18 83.696 438.543 83.92 438.842 84.24C439.14 84.56 439.29 85.008 439.29 85.584C439.29 86.352 438.959 86.9653 438.298 87.424C437.647 87.872 436.756 88.096 435.626 88.096Z" fill="#7C6436"/>
<path d="M486.688 88.128C485.568 88.128 484.555 87.8827 483.648 87.392C482.752 86.8907 482.048 86.208 481.536 85.344C481.024 84.4693 480.768 83.488 480.768 82.4C480.768 81.312 481.024 80.336 481.536 79.472C482.048 78.5973 482.757 77.9147 483.664 77.424C484.571 76.9227 485.584 76.672 486.704 76.672C487.579 76.672 488.379 76.8213 489.104 77.12C489.829 77.408 490.448 77.84 490.96 78.416L489.92 79.424C489.077 78.5387 488.027 78.096 486.768 78.096C485.936 78.096 485.184 78.2827 484.512 78.656C483.84 79.0293 483.312 79.5467 482.928 80.208C482.555 80.8587 482.368 81.5893 482.368 82.4C482.368 83.2107 482.555 83.9467 482.928 84.608C483.312 85.2587 483.84 85.7707 484.512 86.144C485.184 86.5173 485.936 86.704 486.768 86.704C488.016 86.704 489.067 86.256 489.92 85.36L490.96 86.368C490.448 86.944 489.824 87.3813 489.088 87.68C488.363 87.9787 487.563 88.128 486.688 88.128ZM496.691 88.096C495.848 88.096 495.091 87.9093 494.419 87.536C493.747 87.1627 493.219 86.6507 492.835 86C492.462 85.3387 492.275 84.592 492.275 83.76C492.275 82.928 492.462 82.1867 492.835 81.536C493.219 80.8747 493.747 80.3627 494.419 80C495.091 79.6267 495.848 79.44 496.691 79.44C497.534 79.44 498.286 79.6267 498.947 80C499.619 80.3627 500.142 80.8747 500.515 81.536C500.899 82.1867 501.091 82.928 501.091 83.76C501.091 84.592 500.899 85.3387 500.515 86C500.142 86.6507 499.619 87.1627 498.947 87.536C498.286 87.9093 497.534 88.096 496.691 88.096ZM496.691 86.752C497.235 86.752 497.72 86.6293 498.147 86.384C498.584 86.128 498.926 85.776 499.171 85.328C499.416 84.8693 499.539 84.3467 499.539 83.76C499.539 83.1733 499.416 82.656 499.171 82.208C498.926 81.7493 498.584 81.3973 498.147 81.152C497.72 80.9067 497.235 80.784 496.691 80.784C496.147 80.784 495.656 80.9067 495.219 81.152C494.792 81.3973 494.451 81.7493 494.195 82.208C493.95 82.656 493.827 83.1733 493.827 83.76C493.827 84.3467 493.95 84.8693 494.195 85.328C494.451 85.776 494.792 86.128 495.219 86.384C495.656 86.6293 496.147 86.752 496.691 86.752ZM508.143 79.44C509.221 79.44 510.074 79.7547 510.703 80.384C511.343 81.0027 511.663 81.9147 511.663 83.12V88H510.127V83.296C510.127 82.4747 509.93 81.856 509.535 81.44C509.141 81.024 508.575 80.816 507.839 80.816C507.007 80.816 506.351 81.0613 505.871 81.552C505.391 82.032 505.151 82.7253 505.151 83.632V88H503.615V79.52H505.087V80.8C505.397 80.3627 505.813 80.0267 506.335 79.792C506.869 79.5573 507.471 79.44 508.143 79.44ZM519.674 87.504C519.45 87.696 519.173 87.8453 518.842 87.952C518.511 88.048 518.17 88.096 517.818 88.096C516.965 88.096 516.303 87.8667 515.834 87.408C515.365 86.9493 515.13 86.2933 515.13 85.44V80.784H513.69V79.52H515.13V77.664H516.666V79.52H519.098V80.784H516.666V85.376C516.666 85.8347 516.778 86.1867 517.002 86.432C517.237 86.6773 517.567 86.8 517.994 86.8C518.463 86.8 518.863 86.6667 519.194 86.4L519.674 87.504ZM525.019 79.44C526.192 79.44 527.088 79.728 527.707 80.304C528.336 80.88 528.651 81.7387 528.651 82.88V88H527.195V86.88C526.939 87.2747 526.571 87.5787 526.091 87.792C525.622 87.9947 525.062 88.096 524.411 88.096C523.462 88.096 522.699 87.8667 522.123 87.408C521.558 86.9493 521.275 86.3467 521.275 85.6C521.275 84.8533 521.547 84.256 522.091 83.808C522.635 83.3493 523.499 83.12 524.683 83.12H527.115V82.816C527.115 82.1547 526.923 81.648 526.539 81.296C526.155 80.944 525.59 80.768 524.843 80.768C524.342 80.768 523.851 80.8533 523.371 81.024C522.891 81.184 522.486 81.4027 522.155 81.68L521.515 80.528C521.952 80.176 522.475 79.9093 523.083 79.728C523.691 79.536 524.336 79.44 525.019 79.44ZM524.667 86.912C525.254 86.912 525.76 86.784 526.187 86.528C526.614 86.2613 526.923 85.888 527.115 85.408V84.224H524.747C523.446 84.224 522.795 84.6613 522.795 85.536C522.795 85.9627 522.96 86.2987 523.291 86.544C523.622 86.7893 524.08 86.912 524.667 86.912ZM535.636 88.096C534.772 88.096 533.999 87.9093 533.316 87.536C532.644 87.1627 532.116 86.6507 531.732 86C531.348 85.3387 531.156 84.592 531.156 83.76C531.156 82.928 531.348 82.1867 531.732 81.536C532.116 80.8747 532.644 80.3627 533.316 80C533.999 79.6267 534.772 79.44 535.636 79.44C536.404 79.44 537.087 79.5947 537.684 79.904C538.292 80.2133 538.762 80.6613 539.092 81.248L537.924 82C537.658 81.5947 537.327 81.2907 536.932 81.088C536.538 80.8853 536.1 80.784 535.62 80.784C535.066 80.784 534.564 80.9067 534.116 81.152C533.679 81.3973 533.332 81.7493 533.076 82.208C532.831 82.656 532.708 83.1733 532.708 83.76C532.708 84.3573 532.831 84.8853 533.076 85.344C533.332 85.792 533.679 86.1387 534.116 86.384C534.564 86.6293 535.066 86.752 535.62 86.752C536.1 86.752 536.538 86.6507 536.932 86.448C537.327 86.2453 537.658 85.9413 537.924 85.536L539.092 86.272C538.762 86.8587 538.292 87.312 537.684 87.632C537.087 87.9413 536.404 88.096 535.636 88.096ZM546.358 87.504C546.134 87.696 545.857 87.8453 545.526 87.952C545.196 88.048 544.854 88.096 544.502 88.096C543.649 88.096 542.988 87.8667 542.518 87.408C542.049 86.9493 541.814 86.2933 541.814 85.44V80.784H540.374V79.52H541.814V77.664H543.35V79.52H545.782V80.784H543.35V85.376C543.35 85.8347 543.462 86.1867 543.686 86.432C543.921 86.6773 544.252 86.8 544.678 86.8C545.148 86.8 545.548 86.6667 545.878 86.4L546.358 87.504ZM551.966 88.096C551.123 88.096 550.366 87.9093 549.694 87.536C549.022 87.1627 548.494 86.6507 548.11 86C547.737 85.3387 547.55 84.592 547.55 83.76C547.55 82.928 547.737 82.1867 548.11 81.536C548.494 80.8747 549.022 80.3627 549.694 80C550.366 79.6267 551.123 79.44 551.966 79.44C552.809 79.44 553.561 79.6267 554.222 80C554.894 80.3627 555.417 80.8747 555.79 81.536C556.174 82.1867 556.366 82.928 556.366 83.76C556.366 84.592 556.174 85.3387 555.79 86C555.417 86.6507 554.894 87.1627 554.222 87.536C553.561 87.9093 552.809 88.096 551.966 88.096ZM551.966 86.752C552.51 86.752 552.995 86.6293 553.422 86.384C553.859 86.128 554.201 85.776 554.446 85.328C554.691 84.8693 554.814 84.3467 554.814 83.76C554.814 83.1733 554.691 82.656 554.446 82.208C554.201 81.7493 553.859 81.3973 553.422 81.152C552.995 80.9067 552.51 80.784 551.966 80.784C551.422 80.784 550.931 80.9067 550.494 81.152C550.067 81.3973 549.726 81.7493 549.47 82.208C549.225 82.656 549.102 83.1733 549.102 83.76C549.102 84.3467 549.225 84.8693 549.47 85.328C549.726 85.776 550.067 86.128 550.494 86.384C550.931 86.6293 551.422 86.752 551.966 86.752Z" fill="#42351C"/>
<path d="M480 89.6H557.038V90.4H480V89.6Z" fill="#42351C"/>
<path d="M159.688 88.128C158.568 88.128 157.555 87.8827 156.648 87.392C155.752 86.8907 155.048 86.208 154.536 85.344C154.024 84.4693 153.768 83.488 153.768 82.4C153.768 81.312 154.024 80.336 154.536 79.472C155.048 78.5973 155.757 77.9147 156.664 77.424C157.571 76.9227 158.584 76.672 159.704 76.672C160.579 76.672 161.379 76.8213 162.104 77.12C162.829 77.408 163.448 77.84 163.96 78.416L162.92 79.424C162.077 78.5387 161.027 78.096 159.768 78.096C158.936 78.096 158.184 78.2827 157.512 78.656C156.84 79.0293 156.312 79.5467 155.928 80.208C155.555 80.8587 155.368 81.5893 155.368 82.4C155.368 83.2107 155.555 83.9467 155.928 84.608C156.312 85.2587 156.84 85.7707 157.512 86.144C158.184 86.5173 158.936 86.704 159.768 86.704C161.016 86.704 162.067 86.256 162.92 85.36L163.96 86.368C163.448 86.944 162.824 87.3813 162.088 87.68C161.363 87.9787 160.563 88.128 159.688 88.128ZM174.057 79.52V88H172.601V86.72C172.292 87.1573 171.881 87.4987 171.369 87.744C170.868 87.9787 170.318 88.096 169.721 88.096C168.59 88.096 167.7 87.7867 167.049 87.168C166.398 86.5387 166.073 85.616 166.073 84.4V79.52H167.609V84.224C167.609 85.0453 167.806 85.6693 168.201 86.096C168.596 86.512 169.161 86.72 169.897 86.72C170.708 86.72 171.348 86.4747 171.817 85.984C172.286 85.4933 172.521 84.8 172.521 83.904V79.52H174.057ZM177.381 79.52H178.917V88H177.381V79.52ZM178.149 77.888C177.85 77.888 177.6 77.792 177.397 77.6C177.205 77.408 177.109 77.1733 177.109 76.896C177.109 76.6187 177.205 76.384 177.397 76.192C177.6 75.9893 177.85 75.888 178.149 75.888C178.448 75.888 178.693 75.984 178.885 76.176C179.088 76.3573 179.189 76.5867 179.189 76.864C179.189 77.152 179.088 77.3973 178.885 77.6C178.693 77.792 178.448 77.888 178.149 77.888ZM190.25 76.128V88H188.778V86.656C188.436 87.1253 188.004 87.4827 187.482 87.728C186.959 87.9733 186.383 88.096 185.754 88.096C184.932 88.096 184.196 87.9147 183.546 87.552C182.895 87.1893 182.383 86.6827 182.01 86.032C181.647 85.3707 181.466 84.6133 181.466 83.76C181.466 82.9067 181.647 82.1547 182.01 81.504C182.383 80.8533 182.895 80.3467 183.546 79.984C184.196 79.6213 184.932 79.44 185.754 79.44C186.362 79.44 186.922 79.5573 187.434 79.792C187.946 80.016 188.372 80.352 188.714 80.8V76.128H190.25ZM185.882 86.752C186.415 86.752 186.9 86.6293 187.338 86.384C187.775 86.128 188.116 85.776 188.362 85.328C188.607 84.8693 188.73 84.3467 188.73 83.76C188.73 83.1733 188.607 82.656 188.362 82.208C188.116 81.7493 187.775 81.3973 187.338 81.152C186.9 80.9067 186.415 80.784 185.882 80.784C185.338 80.784 184.847 80.9067 184.41 81.152C183.983 81.3973 183.642 81.7493 183.386 82.208C183.14 82.656 183.018 83.1733 183.018 83.76C183.018 84.3467 183.14 84.8693 183.386 85.328C183.642 85.776 183.983 86.128 184.41 86.384C184.847 86.6293 185.338 86.752 185.882 86.752ZM196.644 79.44C197.817 79.44 198.713 79.728 199.332 80.304C199.961 80.88 200.276 81.7387 200.276 82.88V88H198.82V86.88C198.564 87.2747 198.196 87.5787 197.716 87.792C197.247 87.9947 196.687 88.096 196.036 88.096C195.087 88.096 194.324 87.8667 193.748 87.408C193.183 86.9493 192.9 86.3467 192.9 85.6C192.9 84.8533 193.172 84.256 193.716 83.808C194.26 83.3493 195.124 83.12 196.308 83.12H198.74V82.816C198.74 82.1547 198.548 81.648 198.164 81.296C197.78 80.944 197.215 80.768 196.468 80.768C195.967 80.768 195.476 80.8533 194.996 81.024C194.516 81.184 194.111 81.4027 193.78 81.68L193.14 80.528C193.577 80.176 194.1 79.9093 194.708 79.728C195.316 79.536 195.961 79.44 196.644 79.44ZM196.292 86.912C196.879 86.912 197.385 86.784 197.812 86.528C198.239 86.2613 198.548 85.888 198.74 85.408V84.224H196.372C195.071 84.224 194.42 84.6613 194.42 85.536C194.42 85.9627 194.585 86.2987 194.916 86.544C195.247 86.7893 195.705 86.912 196.292 86.912ZM211.565 76.128V88H210.093V86.656C209.752 87.1253 209.32 87.4827 208.797 87.728C208.275 87.9733 207.699 88.096 207.069 88.096C206.248 88.096 205.512 87.9147 204.861 87.552C204.211 87.1893 203.699 86.6827 203.325 86.032C202.963 85.3707 202.781 84.6133 202.781 83.76C202.781 82.9067 202.963 82.1547 203.325 81.504C203.699 80.8533 204.211 80.3467 204.861 79.984C205.512 79.6213 206.248 79.44 207.069 79.44C207.677 79.44 208.237 79.5573 208.749 79.792C209.261 80.016 209.688 80.352 210.029 80.8V76.128H211.565ZM207.197 86.752C207.731 86.752 208.216 86.6293 208.653 86.384C209.091 86.128 209.432 85.776 209.677 85.328C209.923 84.8693 210.045 84.3467 210.045 83.76C210.045 83.1733 209.923 82.656 209.677 82.208C209.432 81.7493 209.091 81.3973 208.653 81.152C208.216 80.9067 207.731 80.784 207.197 80.784C206.653 80.784 206.163 80.9067 205.725 81.152C205.299 81.3973 204.957 81.7493 204.701 82.208C204.456 82.656 204.333 83.1733 204.333 83.76C204.333 84.3467 204.456 84.8693 204.701 85.328C204.957 85.776 205.299 86.128 205.725 86.384C206.163 86.6293 206.653 86.752 207.197 86.752ZM218.504 88.096C217.661 88.096 216.904 87.9093 216.232 87.536C215.56 87.1627 215.032 86.6507 214.648 86C214.274 85.3387 214.088 84.592 214.088 83.76C214.088 82.928 214.274 82.1867 214.648 81.536C215.032 80.8747 215.56 80.3627 216.232 80C216.904 79.6267 217.661 79.44 218.504 79.44C219.346 79.44 220.098 79.6267 220.76 80C221.432 80.3627 221.954 80.8747 222.328 81.536C222.712 82.1867 222.904 82.928 222.904 83.76C222.904 84.592 222.712 85.3387 222.328 86C221.954 86.6507 221.432 87.1627 220.76 87.536C220.098 87.9093 219.346 88.096 218.504 88.096ZM218.504 86.752C219.048 86.752 219.533 86.6293 219.96 86.384C220.397 86.128 220.738 85.776 220.984 85.328C221.229 84.8693 221.352 84.3467 221.352 83.76C221.352 83.1733 221.229 82.656 220.984 82.208C220.738 81.7493 220.397 81.3973 219.96 81.152C219.533 80.9067 219.048 80.784 218.504 80.784C217.96 80.784 217.469 80.9067 217.032 81.152C216.605 81.3973 216.264 81.7493 216.008 82.208C215.762 82.656 215.64 83.1733 215.64 83.76C215.64 84.3467 215.762 84.8693 216.008 85.328C216.264 85.776 216.605 86.128 217.032 86.384C217.469 86.6293 217.96 86.752 218.504 86.752ZM227.86 88.096C227.167 88.096 226.5 88.0053 225.86 87.824C225.22 87.632 224.719 87.392 224.356 87.104L224.996 85.888C225.369 86.1547 225.823 86.368 226.356 86.528C226.889 86.688 227.428 86.768 227.972 86.768C229.316 86.768 229.988 86.384 229.988 85.616C229.988 85.36 229.897 85.1573 229.716 85.008C229.535 84.8587 229.305 84.752 229.028 84.688C228.761 84.6133 228.377 84.5333 227.876 84.448C227.193 84.3413 226.633 84.2187 226.196 84.08C225.769 83.9413 225.401 83.7067 225.092 83.376C224.783 83.0453 224.628 82.5813 224.628 81.984C224.628 81.216 224.948 80.6027 225.588 80.144C226.228 79.6747 227.087 79.44 228.164 79.44C228.729 79.44 229.295 79.5093 229.86 79.648C230.425 79.7867 230.889 79.9733 231.252 80.208L230.596 81.424C229.903 80.976 229.087 80.752 228.148 80.752C227.497 80.752 227.001 80.8587 226.66 81.072C226.319 81.2853 226.148 81.568 226.148 81.92C226.148 82.1973 226.244 82.416 226.436 82.576C226.628 82.736 226.863 82.8533 227.14 82.928C227.428 83.0027 227.828 83.088 228.34 83.184C229.023 83.3013 229.572 83.4293 229.988 83.568C230.415 83.696 230.777 83.92 231.076 84.24C231.375 84.56 231.524 85.008 231.524 85.584C231.524 86.352 231.193 86.9653 230.532 87.424C229.881 87.872 228.991 88.096 227.86 88.096Z" fill="#7C6436"/>
<path d="M301.031 64.0508C302.051 63.1807 307.641 63.1127 310.293 63.7475C315.197 64.9218 319.366 68.1165 320.316 69.7482C317.779 67.234 314.842 65.3952 311.418 64.3513C307.984 63.304 304.522 63.3344 301.031 64.0508Z" fill="#7C6436"/>
<path d="M293.236 97.0152C293.704 97.1708 294.007 97.5474 294.37 97.8357C298.233 100.905 302.628 102.335 307.542 101.966C311.046 101.702 314.24 100.473 317.104 98.4108C318.26 97.5783 319.322 96.6431 320.292 95.6018C320.386 95.5009 320.487 95.2933 320.631 95.4213C320.789 95.5612 320.572 95.6713 320.485 95.7647C318.716 97.6496 316.693 99.1877 314.369 100.343C311.16 101.937 307.76 102.527 304.23 102.189C301.186 101.896 298.35 100.889 295.79 99.1656C295.116 98.7118 294.466 98.2312 293.839 97.7174C293.602 97.5228 293.353 97.3342 293.236 97.0152Z" fill="#7C6436"/>
<path d="M324.649 99.4467C323.897 98.6597 323.147 97.8701 322.425 97.0566C322.125 96.7187 321.929 96.7499 321.638 97.0647C320.534 98.2598 319.347 99.3768 318.009 100.3C313.817 103.192 309.188 104.474 304.097 103.894C299.439 103.363 295.458 101.43 292.19 98.0565C291.701 97.5524 291.225 97.0265 291.068 96.3113C290.593 94.1429 290.604 91.9841 291.381 89.8871C292.085 87.9842 292.821 86.0959 292.879 84.0346C292.901 83.2742 292.892 82.5052 292.521 81.7302C291.297 83.109 289.789 84.0732 288.571 85.3615C287.499 86.4944 286.658 87.766 286.312 89.2928C285.725 91.8786 286.447 94.2308 287.824 96.3942C288.637 97.67 289.687 98.8071 289.778 100.447C288.955 99.667 288.146 98.8605 287.499 97.922C286.139 95.9503 284.55 94.0996 284.448 91.4998C284.378 89.7263 284.332 87.9706 284.669 86.2164C284.993 84.5344 285.673 82.9879 286.36 81.4377C287.368 79.1664 288.356 76.8867 289.471 74.6648C290.156 73.3 291.069 72.173 292.453 71.4369C293.541 70.8582 294.555 70.1511 295.565 69.4378C297.944 67.7568 299.697 65.6722 300.117 62.682C300.155 62.4128 300.253 62.285 300.547 62.2187C303.225 61.6156 305.909 61.3202 308.66 61.6767C311.124 61.9959 313.438 62.7256 315.644 63.8387C317.911 64.9826 319.832 66.5789 321.556 68.4195C321.907 68.7947 322.108 68.7463 322.426 68.4053C323.08 67.7041 323.752 67.0162 324.457 66.3667C324.805 66.0455 324.843 65.8652 324.494 65.496C322.182 63.0552 319.496 61.1423 316.43 59.7818C313.54 58.4994 310.512 57.7645 307.335 57.6928C305.431 57.6499 303.545 57.7498 301.667 58.1174C300.429 58.3601 300.422 58.3059 300.385 57.0008C300.366 56.3678 300.37 55.7297 300.133 55C299.559 56.0937 298.907 57.0031 298.145 57.8248C297.27 58.77 296.392 59.7183 295.229 60.3357C293.794 61.0966 292.423 61.9515 291.148 62.9664C289.756 64.0745 288.502 65.3144 287.356 66.6706C287.253 66.792 287.163 66.9936 286.982 66.958C286.787 66.9196 286.823 66.6897 286.786 66.5404C286.628 65.9152 286.505 65.2795 286.248 64.6839C285.223 62.3076 283.581 60.3708 281.837 58.5075C281.757 58.4222 281.669 58.2598 281.527 58.3635C281.465 58.4091 281.459 58.5653 281.467 58.6681C281.564 59.8913 281.389 61.0951 281.217 62.2991C280.983 63.9392 280.511 65.5359 280.381 67.1975C280.188 69.6633 280.657 71.9811 281.916 74.1011C282.371 74.8684 282.667 75.4756 282.384 76.4632C281.619 79.1358 281.429 81.8959 281.635 84.6802C281.793 86.8053 282.208 88.87 282.88 90.8911C283.125 91.6265 283.449 92.3342 283.752 93.1802C282.537 92.5766 281.946 91.6569 281.645 90.5318C280.781 87.306 279.676 84.1919 277.442 81.6189C275.983 79.9376 274.191 78.711 272 77.8212C272.294 78.934 272.446 79.9254 272.487 80.9399C272.56 82.7455 272.752 84.5349 273.223 86.2935C273.871 88.7151 275.235 90.51 277.525 91.5961C278.884 92.2404 280.315 92.6449 281.755 93.0346C283.113 93.4022 284.198 94.1386 284.903 95.3743C287.483 99.8964 291.133 103.273 295.797 105.565C298.662 106.972 301.706 107.75 304.878 107.95C308.666 108.188 312.333 107.578 315.849 106.115C319.238 104.706 322.164 102.64 324.656 99.9496C324.835 99.7564 324.829 99.635 324.649 99.4467ZM287.078 68.6708C287.057 68.3758 287.154 68.1523 287.335 67.9167C288.574 66.3 289.978 64.8464 291.574 63.5802C291.646 63.5232 291.721 63.4696 291.8 63.4239C291.824 63.4101 291.866 63.4281 291.902 63.4317C291.982 63.5429 291.928 63.6392 291.872 63.737C290.884 65.4584 290.408 67.3479 290.454 69.2953C290.501 71.2994 289.896 73.0429 288.977 74.7584C288.092 76.4116 287.295 78.1125 286.444 79.7849C286.161 80.3417 285.836 80.8775 285.52 81.417C285.441 81.5509 285.386 81.7471 285.166 81.7087C284.933 81.6681 284.891 81.4775 284.892 81.2879C284.898 79.2216 284.917 77.1536 285.764 75.2111C286.675 73.1236 287.238 70.9702 287.078 68.6708ZM281.369 70.7759C281.083 69.413 280.999 68.0411 281.187 66.6579C281.479 64.5116 282.091 62.4199 282.29 60.225C283.834 61.8841 285.192 63.6447 285.85 65.8387C286.972 69.5767 286.103 73.0602 284.419 76.4295C283.184 74.6744 281.83 72.9677 281.369 70.7759ZM283.92 87.4369C283.8 88.4774 283.827 89.5341 283.937 90.5832C283.967 90.8725 283.941 91.1676 283.941 91.4601C283.444 90.2659 283.047 89.0503 282.8 87.7943C282.07 84.0876 282.142 80.3974 283.074 76.7302C283.117 76.5583 283.101 76.2934 283.304 76.2793C283.498 76.2659 283.533 76.5307 283.6 76.6907C284.081 77.8342 284.144 79.0573 284.188 80.2659C284.274 82.6602 284.195 85.051 283.92 87.4369ZM289.126 94.5334C289.039 95.206 289.015 95.8866 288.955 96.6724C286.369 93.1589 285.921 89.1737 289.081 85.8947C289.915 85.0296 290.866 84.2977 291.774 83.5171C291.855 83.4481 291.931 83.3295 292.052 83.3923C292.194 83.4652 292.149 83.6174 292.147 83.7415C292.109 85.5766 291.583 87.3011 290.918 88.9863C290.203 90.7988 289.378 92.5749 289.126 94.5334Z" fill="#7C6436"/>
</svg>
