<svg width="270" height="368" viewBox="0 0 270 368" fill="none" xmlns="http://www.w3.org/2000/svg">
<path d="M132 55.4238H264V187.424H132V55.4238Z" fill="#AC6B29"/>
<path d="M0 55.4238H132V187.424H0V55.4238Z" fill="#798F77"/>
<path fill-rule="evenodd" clip-rule="evenodd" d="M49.5 20.9238H214.5V43.4238H213.5V21.9238H50.5V40.0016H49.5V20.9238Z" fill="#6B6B6B"/>
<path d="M108.768 0C110.176 0 111.216 0.224 111.888 0.672C112.56 1.10933 112.896 1.81333 112.896 2.784C112.896 3.44533 112.704 4.01067 112.32 4.48C111.947 4.94933 111.397 5.248 110.672 5.376V5.424C111.504 5.56267 112.139 5.856 112.576 6.304C113.013 6.752 113.232 7.376 113.232 8.176C113.232 8.912 113.061 9.52 112.72 10C112.379 10.48 111.904 10.8373 111.296 11.072C110.699 11.3067 110.005 11.424 109.216 11.424H105.6V0H108.768ZM108.976 5.04C110.032 5.04 110.789 4.85867 111.248 4.496C111.707 4.13333 111.936 3.59467 111.936 2.88C111.936 2.144 111.685 1.616 111.184 1.296C110.683 0.976 109.877 0.816 108.768 0.816H106.528V5.04H108.976ZM106.528 5.84V10.608H109.136C110.181 10.608 110.96 10.4 111.472 9.984C111.984 9.55733 112.24 8.93867 112.24 8.128C112.24 7.33867 111.973 6.76267 111.44 6.4C110.907 6.02667 110.091 5.84 108.992 5.84H106.528Z" fill="#585858"/>
<path d="M122.221 2.912V11.424H121.485L121.341 9.968H121.293C121.059 10.4373 120.696 10.8267 120.205 11.136C119.725 11.4347 119.123 11.584 118.397 11.584C116.403 11.584 115.405 10.5493 115.405 8.48V2.912H116.317V8.4C116.317 9.22133 116.499 9.82933 116.861 10.224C117.235 10.608 117.784 10.8 118.509 10.8C120.376 10.8 121.309 9.71733 121.309 7.552V2.912H122.221Z" fill="#585858"/>
<path d="M127.449 10.8C127.683 10.8 127.907 10.784 128.121 10.752C128.334 10.72 128.521 10.672 128.681 10.608V11.344C128.521 11.408 128.323 11.4613 128.089 11.504C127.854 11.5573 127.603 11.584 127.337 11.584C126.622 11.584 126.073 11.3867 125.689 10.992C125.305 10.5973 125.113 9.952 125.113 9.056V3.648H123.849V3.136L125.113 2.832L125.433 0.88H126.025V2.912H128.633V3.648H126.025V9.008C126.025 10.2027 126.499 10.8 127.449 10.8Z" fill="#585858"/>
<path d="M132.886 10.8C133.121 10.8 133.345 10.784 133.558 10.752C133.772 10.72 133.958 10.672 134.118 10.608V11.344C133.958 11.408 133.761 11.4613 133.526 11.504C133.292 11.5573 133.041 11.584 132.774 11.584C132.06 11.584 131.51 11.3867 131.126 10.992C130.742 10.5973 130.55 9.952 130.55 9.056V3.648H129.286V3.136L130.55 2.832L130.87 0.88H131.462V2.912H134.07V3.648H131.462V9.008C131.462 10.2027 131.937 10.8 132.886 10.8Z" fill="#585858"/>
<path d="M143.044 7.152C143.044 8.048 142.894 8.82667 142.596 9.488C142.308 10.1493 141.876 10.6667 141.3 11.04C140.734 11.4027 140.041 11.584 139.22 11.584C138.43 11.584 137.753 11.4027 137.188 11.04C136.622 10.6773 136.185 10.1653 135.876 9.504C135.577 8.832 135.428 8.048 135.428 7.152C135.428 5.776 135.769 4.69867 136.452 3.92C137.134 3.14133 138.078 2.752 139.284 2.752C140.094 2.752 140.777 2.93867 141.332 3.312C141.897 3.67467 142.324 4.18667 142.612 4.848C142.9 5.50933 143.044 6.27733 143.044 7.152ZM136.372 7.152C136.372 8.25067 136.601 9.136 137.06 9.808C137.529 10.4693 138.254 10.8 139.236 10.8C140.228 10.8 140.953 10.464 141.412 9.792C141.87 9.12 142.1 8.24 142.1 7.152C142.1 6.448 142.004 5.824 141.812 5.28C141.62 4.736 141.316 4.30933 140.9 4C140.484 3.69067 139.94 3.536 139.268 3.536C138.308 3.536 137.582 3.856 137.092 4.496C136.612 5.136 136.372 6.02133 136.372 7.152Z" fill="#585858"/>
<path d="M149.169 2.752C150.14 2.752 150.881 3.00267 151.393 3.504C151.905 4.00533 152.161 4.78933 152.161 5.856V11.424H151.265V5.92C151.265 5.10933 151.079 4.512 150.705 4.128C150.332 3.73333 149.788 3.536 149.073 3.536C147.207 3.536 146.273 4.61867 146.273 6.784V11.424H145.361V2.912H146.097L146.225 4.384H146.289C146.513 3.91467 146.871 3.52533 147.361 3.216C147.852 2.90667 148.455 2.752 149.169 2.752Z" fill="#585858"/>
<path d="M160.252 9.168C160.252 9.936 159.964 10.5333 159.388 10.96C158.812 11.376 158.002 11.584 156.956 11.584C156.359 11.584 155.831 11.5307 155.372 11.424C154.914 11.328 154.53 11.2 154.22 11.04V10.16C154.594 10.352 155.02 10.512 155.5 10.64C155.98 10.7573 156.471 10.816 156.972 10.816C157.804 10.816 158.407 10.6773 158.78 10.4C159.164 10.112 159.356 9.72267 159.356 9.232C159.356 8.76267 159.159 8.40533 158.764 8.16C158.37 7.904 157.788 7.64267 157.02 7.376C156.487 7.19467 156.018 7.01333 155.612 6.832C155.218 6.64 154.908 6.4 154.684 6.112C154.46 5.824 154.348 5.42933 154.348 4.928C154.348 4.24533 154.626 3.712 155.18 3.328C155.735 2.944 156.476 2.752 157.404 2.752C157.916 2.752 158.391 2.8 158.828 2.896C159.276 2.992 159.687 3.12 160.06 3.28L159.724 4.032C159.394 3.89333 159.02 3.776 158.604 3.68C158.188 3.57333 157.772 3.52 157.356 3.52C156.684 3.52 156.162 3.63733 155.788 3.872C155.415 4.10667 155.228 4.448 155.228 4.896C155.228 5.23733 155.319 5.50933 155.5 5.712C155.682 5.904 155.943 6.06933 156.284 6.208C156.626 6.34667 157.042 6.50133 157.532 6.672C158.044 6.85333 158.503 7.04 158.908 7.232C159.314 7.424 159.639 7.66933 159.884 7.968C160.13 8.26667 160.252 8.66667 160.252 9.168Z" fill="#585858"/>
<path d="M90 325.424H135V367.424H90V325.424Z" fill="#6D572F"/>
<path d="M45 239.424H90V281.424H45V239.424Z" fill="#F4F3E6"/>
<path d="M180 325.424H225V367.424H180V325.424Z" fill="#DFDED6"/>
<path d="M90 239.424H135V281.424H90V239.424Z" fill="#FDFCF2"/>
<path d="M0 325.424H45V367.424H0V325.424Z" fill="#9B7456"/>
<path d="M135 239.424H180V281.424H135V239.424Z" fill="#7C6436"/>
<path d="M225 325.424H270V367.424H225V325.424Z" fill="#B9A160"/>
<path d="M180 239.424H225V281.424H180V239.424Z" fill="#9ECC9A"/>
<path d="M135 325.424H180V367.424H135V325.424Z" fill="#CD8772"/>
<path d="M0 239.424H45V281.424H0V239.424Z" fill="#435143"/>
<path d="M45 325.424H90V367.424H45V325.424Z" fill="#9BA6C6"/>
<path d="M4.70419 225.584H3.77619V214.992H0.0961914V214.16H8.38419V214.992H4.70419V225.584Z" fill="#4F4F4F"/>
<path d="M12.0152 216.912C12.7405 216.912 13.3432 217.082 13.8232 217.424C14.3139 217.754 14.6819 218.213 14.9272 218.8C15.1832 219.386 15.3112 220.058 15.3112 220.816V221.44H9.23119C9.23119 222.57 9.49253 223.44 10.0152 224.048C10.5485 224.645 11.3059 224.944 12.2872 224.944C12.8099 224.944 13.2685 224.901 13.6632 224.816C14.0579 224.72 14.4899 224.57 14.9592 224.368V225.2C14.5325 225.392 14.1112 225.53 13.6952 225.616C13.2792 225.701 12.7992 225.744 12.2552 225.744C10.9752 225.744 9.99386 225.354 9.31119 224.576C8.62852 223.797 8.28719 222.736 8.28719 221.392C8.28719 220.528 8.43119 219.76 8.71919 219.088C9.01786 218.416 9.44453 217.888 9.99919 217.504C10.5539 217.109 11.2259 216.912 12.0152 216.912ZM11.9992 217.68C11.2205 217.68 10.5859 217.941 10.0952 218.464C9.61519 218.986 9.33786 219.728 9.26319 220.688H14.3672C14.3672 219.792 14.1699 219.066 13.7752 218.512C13.3912 217.957 12.7992 217.68 11.9992 217.68Z" fill="#4F4F4F"/>
<path d="M19.3468 221.216L16.3868 217.072H17.4428L19.9068 220.592L22.3548 217.072H23.3948L20.4508 221.216L23.5708 225.584H22.5148L19.9068 221.84L17.2828 225.584H16.2428L19.3468 221.216Z" fill="#4F4F4F"/>
<path d="M27.7613 224.96C27.996 224.96 28.22 224.944 28.4333 224.912C28.6466 224.88 28.8333 224.832 28.9933 224.768V225.504C28.8333 225.568 28.636 225.621 28.4013 225.664C28.1666 225.717 27.916 225.744 27.6493 225.744C26.9346 225.744 26.3853 225.546 26.0013 225.152C25.6173 224.757 25.4253 224.112 25.4253 223.216V217.808H24.1613V217.296L25.4253 216.992L25.7453 215.04H26.3373V217.072H28.9453V217.808H26.3373V223.168C26.3373 224.362 26.812 224.96 27.7613 224.96Z" fill="#4F4F4F"/>
<path d="M34.7668 214.16L30.4948 225.584H29.5828L33.8548 214.16H34.7668Z" fill="#4F4F4F"/>
<path d="M37.2417 216.784C37.2417 217.093 37.2364 217.424 37.2257 217.776C37.215 218.117 37.2044 218.394 37.1937 218.608H37.2417C37.455 218.128 37.807 217.728 38.2977 217.408C38.7884 217.077 39.4017 216.912 40.1377 216.912C41.2257 216.912 42.0737 217.285 42.6817 218.032C43.3004 218.768 43.6097 219.861 43.6097 221.312C43.6097 222.656 43.3004 223.733 42.6817 224.544C42.0737 225.344 41.183 225.744 40.0097 225.744C39.295 225.744 38.7084 225.6 38.2497 225.312C37.8017 225.013 37.471 224.645 37.2577 224.208H37.1937L37.0177 225.584H36.3297V213.424H37.2417V216.784ZM40.0257 217.696C39.0337 217.696 38.319 218.005 37.8817 218.624C37.455 219.242 37.2417 220.138 37.2417 221.312V221.424C37.2417 222.576 37.4444 223.456 37.8497 224.064C38.2657 224.661 38.9537 224.96 39.9137 224.96C40.8204 224.96 41.503 224.645 41.9617 224.016C42.431 223.376 42.6657 222.469 42.6657 221.296C42.6657 218.896 41.7857 217.696 40.0257 217.696Z" fill="#4F4F4F"/>
<path d="M48.9318 216.928C49.8918 216.928 50.6065 217.162 51.0758 217.632C51.5452 218.101 51.7798 218.842 51.7798 219.856V225.584H51.0918L50.9318 224.144H50.8838C50.5745 224.624 50.1958 225.013 49.7478 225.312C49.3105 225.6 48.6971 225.744 47.9078 225.744C47.0865 225.744 46.4412 225.541 45.9718 225.136C45.5025 224.72 45.2678 224.128 45.2678 223.36C45.2678 222.506 45.6145 221.861 46.3078 221.424C47.0011 220.976 48.0092 220.725 49.3318 220.672L50.8838 220.592V220C50.8838 219.168 50.7131 218.576 50.3718 218.224C50.0411 217.872 49.5505 217.696 48.8998 217.696C48.4625 217.696 48.0411 217.754 47.6358 217.872C47.2305 217.989 46.8251 218.144 46.4198 218.336L46.1318 217.6C46.5372 217.408 46.9745 217.248 47.4438 217.12C47.9238 216.992 48.4198 216.928 48.9318 216.928ZM49.4438 221.344C48.3558 221.397 47.5451 221.589 47.0118 221.92C46.4891 222.24 46.2278 222.72 46.2278 223.36C46.2278 223.893 46.3878 224.298 46.7078 224.576C47.0385 224.842 47.4918 224.976 48.0678 224.976C48.9532 224.976 49.6412 224.725 50.1318 224.224C50.6225 223.712 50.8731 223.008 50.8838 222.112V221.28L49.4438 221.344Z" fill="#4F4F4F"/>
<path d="M57.9099 225.744C56.6619 225.744 55.6966 225.36 55.0139 224.592C54.3419 223.824 54.0059 222.752 54.0059 221.376C54.0059 220.416 54.1766 219.605 54.5179 218.944C54.8593 218.282 55.3339 217.781 55.9419 217.44C56.5606 217.088 57.2806 216.912 58.1019 216.912C58.5073 216.912 58.8913 216.949 59.2539 217.024C59.6166 217.098 59.9366 217.2 60.2139 217.328L59.9579 218.112C59.6699 217.994 59.3606 217.904 59.0299 217.84C58.6993 217.765 58.3846 217.728 58.0859 217.728C57.0726 217.728 56.2939 218.053 55.7499 218.704C55.2166 219.354 54.9499 220.24 54.9499 221.36C54.9499 222.426 55.1899 223.29 55.6699 223.952C56.1499 224.602 56.8966 224.928 57.9099 224.928C58.3259 224.928 58.7206 224.885 59.0939 224.8C59.4673 224.714 59.8033 224.608 60.1019 224.48V225.296C59.8246 225.434 59.5046 225.541 59.1419 225.616C58.7899 225.701 58.3793 225.744 57.9099 225.744Z" fill="#4F4F4F"/>
<path d="M63.0073 219.6C63.0073 219.941 63.002 220.298 62.9913 220.672C62.9807 221.034 62.9753 221.392 62.9753 221.744H62.9913C63.13 221.584 63.2846 221.397 63.4553 221.184C63.6366 220.97 63.8073 220.773 63.9673 220.592L67.1993 217.072H68.3033L64.9273 220.72L68.5753 225.584H67.4873L64.3033 221.312L63.0073 222.624V225.584H62.1113V213.424H63.0073V219.6Z" fill="#4F4F4F"/>
<path d="M73.1376 216.912C73.7989 216.912 74.3482 217.045 74.7856 217.312C75.2336 217.568 75.5909 217.92 75.8576 218.368H75.9216L76.0496 217.072H76.7856V225.856C76.7856 226.976 76.4976 227.85 75.9216 228.48C75.3456 229.109 74.4122 229.424 73.1216 229.424C72.4816 229.424 71.9109 229.37 71.4096 229.264C70.9189 229.168 70.4762 229.029 70.0816 228.848V227.968C70.4762 228.17 70.9349 228.33 71.4576 228.448C71.9802 228.576 72.5456 228.64 73.1536 228.64C74.0816 228.64 74.7696 228.394 75.2176 227.904C75.6656 227.413 75.8896 226.746 75.8896 225.904V225.408C75.8896 225.184 75.8896 224.96 75.8896 224.736C75.9002 224.501 75.9109 224.282 75.9216 224.08H75.8736C75.3829 225.189 74.4336 225.744 73.0256 225.744C71.9269 225.744 71.0682 225.37 70.4496 224.624C69.8309 223.877 69.5216 222.8 69.5216 221.392C69.5216 220.016 69.8309 218.928 70.4496 218.128C71.0682 217.317 71.9642 216.912 73.1376 216.912ZM73.2336 217.696C72.3056 217.696 71.6122 218.021 71.1536 218.672C70.6949 219.322 70.4656 220.234 70.4656 221.408C70.4656 222.56 70.6949 223.44 71.1536 224.048C71.6122 224.656 72.2736 224.96 73.1376 224.96C73.8416 224.96 74.3909 224.821 74.7856 224.544C75.1909 224.256 75.4736 223.861 75.6336 223.36C75.8042 222.858 75.8896 222.288 75.8896 221.648V221.088C75.8896 220.01 75.6869 219.178 75.2816 218.592C74.8869 217.994 74.2042 217.696 73.2336 217.696Z" fill="#4F4F4F"/>
<path d="M83.0997 216.928C83.5157 216.928 83.8997 216.97 84.2517 217.056L84.1077 217.904C83.7664 217.808 83.4144 217.76 83.0517 217.76C82.273 217.76 81.6544 218.048 81.1957 218.624C80.737 219.2 80.5077 219.962 80.5077 220.912V225.584H79.5957V217.072H80.3637L80.4597 218.656H80.5077C80.721 218.176 81.0464 217.77 81.4837 217.44C81.921 217.098 82.4597 216.928 83.0997 216.928Z" fill="#4F4F4F"/>
<path d="M92.7001 221.312C92.7001 222.208 92.5507 222.986 92.2521 223.648C91.9641 224.309 91.5321 224.826 90.9561 225.2C90.3907 225.562 89.6974 225.744 88.8761 225.744C88.0867 225.744 87.4094 225.562 86.8441 225.2C86.2787 224.837 85.8414 224.325 85.5321 223.664C85.2334 222.992 85.0841 222.208 85.0841 221.312C85.0841 219.936 85.4254 218.858 86.1081 218.08C86.7907 217.301 87.7347 216.912 88.9401 216.912C89.7507 216.912 90.4334 217.098 90.9881 217.472C91.5534 217.834 91.9801 218.346 92.2681 219.008C92.5561 219.669 92.7001 220.437 92.7001 221.312ZM86.0281 221.312C86.0281 222.41 86.2574 223.296 86.7161 223.968C87.1854 224.629 87.9107 224.96 88.8921 224.96C89.8841 224.96 90.6094 224.624 91.0681 223.952C91.5267 223.28 91.7561 222.4 91.7561 221.312C91.7561 220.608 91.6601 219.984 91.4681 219.44C91.2761 218.896 90.9721 218.469 90.5561 218.16C90.1401 217.85 89.5961 217.696 88.9241 217.696C87.9641 217.696 87.2387 218.016 86.7481 218.656C86.2681 219.296 86.0281 220.181 86.0281 221.312Z" fill="#4F4F4F"/>
<path d="M101.722 217.072V225.584H100.986L100.842 224.128H100.794C100.559 224.597 100.196 224.986 99.7056 225.296C99.2256 225.594 98.6229 225.744 97.8976 225.744C95.9029 225.744 94.9056 224.709 94.9056 222.64V217.072H95.8176V222.56C95.8176 223.381 95.9989 223.989 96.3616 224.384C96.7349 224.768 97.2842 224.96 98.0096 224.96C99.8762 224.96 100.81 223.877 100.81 221.712V217.072H101.722Z" fill="#4F4F4F"/>
<path d="M108.357 216.912C109.327 216.912 110.069 217.162 110.581 217.664C111.093 218.165 111.349 218.949 111.349 220.016V225.584H110.453V220.08C110.453 219.269 110.266 218.672 109.893 218.288C109.519 217.893 108.975 217.696 108.261 217.696C106.394 217.696 105.461 218.778 105.461 220.944V225.584H104.549V217.072H105.285L105.413 218.544H105.477C105.701 218.074 106.058 217.685 106.549 217.376C107.039 217.066 107.642 216.912 108.357 216.912Z" fill="#4F4F4F"/>
<path d="M117.136 225.744C115.995 225.744 115.115 225.381 114.496 224.656C113.888 223.92 113.584 222.837 113.584 221.408C113.584 219.946 113.904 218.832 114.544 218.064C115.184 217.296 116.075 216.912 117.216 216.912C117.931 216.912 118.507 217.072 118.944 217.392C119.392 217.701 119.728 218.08 119.952 218.528H120.016C120.005 218.282 119.989 218.01 119.968 217.712C119.957 217.402 119.952 217.12 119.952 216.864V213.424H120.864V225.584H120.128L120 224.096H119.952C119.728 224.554 119.392 224.944 118.944 225.264C118.496 225.584 117.893 225.744 117.136 225.744ZM117.248 224.96C118.229 224.96 118.928 224.661 119.344 224.064C119.76 223.466 119.968 222.602 119.968 221.472V221.328C119.968 220.154 119.76 219.258 119.344 218.64C118.939 218.01 118.261 217.696 117.312 217.696C116.395 217.696 115.701 218.021 115.232 218.672C114.763 219.312 114.528 220.229 114.528 221.424C114.528 222.576 114.752 223.456 115.2 224.064C115.648 224.661 116.331 224.96 117.248 224.96Z" fill="#4F4F4F"/>
<path d="M4.4481 298.16C7.18943 298.16 8.5601 299.237 8.5601 301.392C8.5601 302.49 8.20276 303.354 7.4881 303.984C6.7841 304.602 5.69076 304.912 4.2081 304.912H2.5281V309.584H1.6001V298.16H4.4481ZM4.3521 298.976H2.5281V304.096H4.1121C5.21076 304.096 6.0641 303.904 6.6721 303.52C7.29076 303.136 7.6001 302.442 7.6001 301.44C7.6001 300.586 7.33343 299.962 6.8001 299.568C6.27743 299.173 5.46143 298.976 4.3521 298.976Z" fill="#4F4F4F"/>
<path d="M11.742 301.312C11.742 301.536 11.7366 301.749 11.726 301.952C11.7153 302.154 11.6993 302.352 11.678 302.544H11.742C11.966 302.074 12.318 301.685 12.798 301.376C13.2886 301.066 13.8966 300.912 14.622 300.912C15.6033 300.912 16.35 301.162 16.862 301.664C17.374 302.165 17.63 302.949 17.63 304.016V309.584H16.734V304.08C16.734 303.269 16.5473 302.672 16.174 302.288C15.8006 301.893 15.2566 301.696 14.542 301.696C12.6753 301.696 11.742 302.778 11.742 304.944V309.584H10.83V297.424H11.742V301.312Z" fill="#4F4F4F"/>
<path d="M27.4812 305.312C27.4812 306.208 27.3319 306.986 27.0332 307.648C26.7452 308.309 26.3132 308.826 25.7372 309.2C25.1719 309.562 24.4786 309.744 23.6572 309.744C22.8679 309.744 22.1906 309.562 21.6252 309.2C21.0599 308.837 20.6226 308.325 20.3132 307.664C20.0146 306.992 19.8652 306.208 19.8652 305.312C19.8652 303.936 20.2066 302.858 20.8892 302.08C21.5719 301.301 22.5159 300.912 23.7212 300.912C24.5319 300.912 25.2146 301.098 25.7692 301.472C26.3346 301.834 26.7612 302.346 27.0492 303.008C27.3372 303.669 27.4812 304.437 27.4812 305.312ZM20.8092 305.312C20.8092 306.41 21.0386 307.296 21.4972 307.968C21.9666 308.629 22.6919 308.96 23.6732 308.96C24.6652 308.96 25.3906 308.624 25.8492 307.952C26.3079 307.28 26.5372 306.4 26.5372 305.312C26.5372 304.608 26.4412 303.984 26.2492 303.44C26.0572 302.896 25.7532 302.469 25.3372 302.16C24.9212 301.85 24.3772 301.696 23.7052 301.696C22.7452 301.696 22.0199 302.016 21.5292 302.656C21.0492 303.296 20.8092 304.181 20.8092 305.312Z" fill="#4F4F4F"/>
<path d="M32.1987 308.96C32.4334 308.96 32.6574 308.944 32.8707 308.912C33.0841 308.88 33.2707 308.832 33.4307 308.768V309.504C33.2707 309.568 33.0734 309.621 32.8387 309.664C32.6041 309.717 32.3534 309.744 32.0867 309.744C31.3721 309.744 30.8227 309.546 30.4387 309.152C30.0547 308.757 29.8627 308.112 29.8627 307.216V301.808H28.5987V301.296L29.8627 300.992L30.1827 299.04H30.7747V301.072H33.3827V301.808H30.7747V307.168C30.7747 308.362 31.2494 308.96 32.1987 308.96Z" fill="#4F4F4F"/>
<path d="M42.3562 305.312C42.3562 306.208 42.2069 306.986 41.9082 307.648C41.6202 308.309 41.1882 308.826 40.6122 309.2C40.0469 309.562 39.3536 309.744 38.5322 309.744C37.7429 309.744 37.0656 309.562 36.5002 309.2C35.9349 308.837 35.4976 308.325 35.1882 307.664C34.8896 306.992 34.7402 306.208 34.7402 305.312C34.7402 303.936 35.0816 302.858 35.7642 302.08C36.4469 301.301 37.3909 300.912 38.5962 300.912C39.4069 300.912 40.0896 301.098 40.6442 301.472C41.2096 301.834 41.6362 302.346 41.9242 303.008C42.2122 303.669 42.3562 304.437 42.3562 305.312ZM35.6842 305.312C35.6842 306.41 35.9136 307.296 36.3722 307.968C36.8416 308.629 37.5669 308.96 38.5482 308.96C39.5402 308.96 40.2656 308.624 40.7242 307.952C41.1829 307.28 41.4122 306.4 41.4122 305.312C41.4122 304.608 41.3162 303.984 41.1242 303.44C40.9322 302.896 40.6282 302.469 40.2122 302.16C39.7962 301.85 39.2522 301.696 38.5802 301.696C37.6202 301.696 36.8949 302.016 36.4042 302.656C35.9242 303.296 35.6842 304.181 35.6842 305.312Z" fill="#4F4F4F"/>
<path d="M47.7937 300.912C48.4551 300.912 49.0044 301.045 49.4417 301.312C49.8897 301.568 50.2471 301.92 50.5137 302.368H50.5777L50.7057 301.072H51.4417V309.856C51.4417 310.976 51.1537 311.85 50.5777 312.48C50.0017 313.109 49.0684 313.424 47.7777 313.424C47.1377 313.424 46.5671 313.37 46.0657 313.264C45.5751 313.168 45.1324 313.029 44.7377 312.848V311.968C45.1324 312.17 45.5911 312.33 46.1137 312.448C46.6364 312.576 47.2017 312.64 47.8097 312.64C48.7377 312.64 49.4257 312.394 49.8737 311.904C50.3217 311.413 50.5457 310.746 50.5457 309.904V309.408C50.5457 309.184 50.5457 308.96 50.5457 308.736C50.5564 308.501 50.5671 308.282 50.5777 308.08H50.5297C50.0391 309.189 49.0897 309.744 47.6817 309.744C46.5831 309.744 45.7244 309.37 45.1057 308.624C44.4871 307.877 44.1777 306.8 44.1777 305.392C44.1777 304.016 44.4871 302.928 45.1057 302.128C45.7244 301.317 46.6204 300.912 47.7937 300.912ZM47.8897 301.696C46.9617 301.696 46.2684 302.021 45.8097 302.672C45.3511 303.322 45.1217 304.234 45.1217 305.408C45.1217 306.56 45.3511 307.44 45.8097 308.048C46.2684 308.656 46.9297 308.96 47.7937 308.96C48.4977 308.96 49.0471 308.821 49.4417 308.544C49.8471 308.256 50.1297 307.861 50.2897 307.36C50.4604 306.858 50.5457 306.288 50.5457 305.648V305.088C50.5457 304.01 50.3431 303.178 49.9377 302.592C49.5431 301.994 48.8604 301.696 47.8897 301.696Z" fill="#4F4F4F"/>
<path d="M57.7558 300.928C58.1718 300.928 58.5558 300.97 58.9078 301.056L58.7638 301.904C58.4225 301.808 58.0705 301.76 57.7078 301.76C56.9292 301.76 56.3105 302.048 55.8518 302.624C55.3932 303.2 55.1638 303.962 55.1638 304.912V309.584H54.2519V301.072H55.0198L55.1158 302.656H55.1638C55.3772 302.176 55.7025 301.77 56.1399 301.44C56.5772 301.098 57.1158 300.928 57.7558 300.928Z" fill="#4F4F4F"/>
<path d="M63.2442 300.928C64.2042 300.928 64.9189 301.162 65.3882 301.632C65.8576 302.101 66.0922 302.842 66.0922 303.856V309.584H65.4042L65.2442 308.144H65.1962C64.8869 308.624 64.5082 309.013 64.0602 309.312C63.6229 309.6 63.0096 309.744 62.2202 309.744C61.3989 309.744 60.7536 309.541 60.2842 309.136C59.8149 308.72 59.5802 308.128 59.5802 307.36C59.5802 306.506 59.9269 305.861 60.6202 305.424C61.3136 304.976 62.3216 304.725 63.6442 304.672L65.1962 304.592V304C65.1962 303.168 65.0256 302.576 64.6842 302.224C64.3536 301.872 63.8629 301.696 63.2122 301.696C62.7749 301.696 62.3536 301.754 61.9482 301.872C61.5429 301.989 61.1376 302.144 60.7322 302.336L60.4442 301.6C60.8496 301.408 61.2869 301.248 61.7562 301.12C62.2362 300.992 62.7322 300.928 63.2442 300.928ZM63.7562 305.344C62.6682 305.397 61.8576 305.589 61.3242 305.92C60.8016 306.24 60.5402 306.72 60.5402 307.36C60.5402 307.893 60.7002 308.298 61.0202 308.576C61.3509 308.842 61.8042 308.976 62.3802 308.976C63.2656 308.976 63.9536 308.725 64.4442 308.224C64.9349 307.712 65.1856 307.008 65.1962 306.112V305.28L63.7562 305.344Z" fill="#4F4F4F"/>
<path d="M72.6384 300.912C73.7264 300.912 74.5744 301.28 75.1824 302.016C75.7904 302.752 76.0944 303.84 76.0944 305.28C76.0944 306.72 75.7743 307.824 75.1343 308.592C74.505 309.36 73.641 309.744 72.5424 309.744C71.7957 309.744 71.193 309.584 70.7344 309.264C70.2757 308.944 69.9397 308.56 69.7263 308.112H69.6623C69.6837 308.378 69.6997 308.672 69.7104 308.992C69.721 309.301 69.7263 309.589 69.7263 309.856V313.36H68.8143V301.072H69.5664L69.6784 302.656H69.7263C69.9397 302.197 70.281 301.792 70.7504 301.44C71.2197 301.088 71.849 300.912 72.6384 300.912ZM72.5104 301.696C71.561 301.696 70.8624 301.994 70.4144 302.592C69.9664 303.189 69.737 304.048 69.7263 305.168V305.328C69.7263 306.544 69.945 307.456 70.3823 308.064C70.8303 308.661 71.5183 308.96 72.4464 308.96C73.321 308.96 73.9877 308.634 74.4464 307.984C74.9157 307.322 75.1504 306.416 75.1504 305.264C75.1504 304.122 74.9263 303.242 74.4783 302.624C74.041 302.005 73.385 301.696 72.5104 301.696Z" fill="#4F4F4F"/>
<path d="M79.3045 301.312C79.3045 301.536 79.2991 301.749 79.2885 301.952C79.2778 302.154 79.2618 302.352 79.2405 302.544H79.3045C79.5285 302.074 79.8805 301.685 80.3605 301.376C80.8511 301.066 81.4591 300.912 82.1845 300.912C83.1658 300.912 83.9125 301.162 84.4245 301.664C84.9365 302.165 85.1925 302.949 85.1925 304.016V309.584H84.2965V304.08C84.2965 303.269 84.1098 302.672 83.7365 302.288C83.3631 301.893 82.8191 301.696 82.1045 301.696C80.2378 301.696 79.3045 302.778 79.3045 304.944V309.584H78.3925V297.424H79.3045V301.312Z" fill="#4F4F4F"/>
<path d="M86.5317 301.072H87.4917L89.5237 306.352C89.6944 306.832 89.8437 307.258 89.9717 307.632C90.0997 307.994 90.2011 308.32 90.2757 308.608H90.3237C90.4837 308.074 90.7344 307.333 91.0757 306.384L93.0597 301.072H94.0357L90.1957 311.088C89.9077 311.845 89.5664 312.426 89.1717 312.832C88.7771 313.237 88.2437 313.44 87.5717 313.44C87.3691 313.44 87.1824 313.429 87.0117 313.408C86.8517 313.386 86.7024 313.349 86.5637 313.296V312.528C86.6917 312.57 86.8304 312.602 86.9797 312.624C87.1291 312.656 87.2891 312.672 87.4597 312.672C87.9077 312.672 88.2704 312.533 88.5477 312.256C88.8357 311.978 89.0917 311.552 89.3157 310.976L89.8597 309.552L86.5317 301.072Z" fill="#4F4F4F"/>
</svg>
