<svg width="565" height="456" viewBox="0 0 565 456" fill="none" xmlns="http://www.w3.org/2000/svg">
<path d="M0 56H132V188H0V56Z" fill="#1AF772"/>
<path d="M132 56H264V188H132V56Z" fill="#2192FB"/>
<path fill-rule="evenodd" clip-rule="evenodd" d="M49.5 21.5H214.5V44H213.5V22.5H50.5V40.5778H49.5V21.5Z" fill="#6B6B6B"/>
<path d="M115.6 12.0002V0.576172H116.528V11.1522H121.888V12.0002H115.6Z" fill="#585858"/>
<path d="M130.762 7.72817C130.762 8.62417 130.613 9.40284 130.314 10.0642C130.026 10.7255 129.594 11.2428 129.018 11.6162C128.453 11.9788 127.76 12.1602 126.938 12.1602C126.149 12.1602 125.472 11.9788 124.906 11.6162C124.341 11.2535 123.904 10.7415 123.594 10.0802C123.296 9.40817 123.146 8.62417 123.146 7.72817C123.146 6.35217 123.488 5.27484 124.17 4.49617C124.853 3.71751 125.797 3.32817 127.002 3.32817C127.813 3.32817 128.496 3.51484 129.05 3.88817C129.616 4.25084 130.042 4.76284 130.33 5.42417C130.618 6.08551 130.762 6.85351 130.762 7.72817ZM124.09 7.72817C124.09 8.82684 124.32 9.71217 124.778 10.3842C125.248 11.0455 125.973 11.3762 126.954 11.3762C127.946 11.3762 128.672 11.0402 129.13 10.3682C129.589 9.69617 129.818 8.81617 129.818 7.72817C129.818 7.02417 129.722 6.40017 129.53 5.85617C129.338 5.31217 129.034 4.88551 128.618 4.57617C128.202 4.26684 127.658 4.11217 126.986 4.11217C126.026 4.11217 125.301 4.43217 124.81 5.07217C124.33 5.71217 124.09 6.59751 124.09 7.72817Z" fill="#585858"/>
<path d="M136.2 3.32817C136.861 3.32817 137.411 3.46151 137.848 3.72817C138.296 3.98417 138.653 4.33617 138.92 4.78417H138.984L139.112 3.48817H139.848V12.2722C139.848 13.3922 139.56 14.2668 138.984 14.8962C138.408 15.5255 137.475 15.8402 136.184 15.8402C135.544 15.8402 134.973 15.7868 134.472 15.6802C133.981 15.5842 133.539 15.4455 133.144 15.2642V14.3842C133.539 14.5868 133.997 14.7468 134.52 14.8642C135.043 14.9922 135.608 15.0562 136.216 15.0562C137.144 15.0562 137.832 14.8108 138.28 14.3202C138.728 13.8295 138.952 13.1628 138.952 12.3202V11.8242C138.952 11.6002 138.952 11.3762 138.952 11.1522C138.963 10.9175 138.973 10.6988 138.984 10.4962H138.936C138.445 11.6055 137.496 12.1602 136.088 12.1602C134.989 12.1602 134.131 11.7868 133.512 11.0402C132.893 10.2935 132.584 9.21617 132.584 7.80817C132.584 6.43217 132.893 5.34417 133.512 4.54417C134.131 3.73351 135.027 3.32817 136.2 3.32817ZM136.296 4.11217C135.368 4.11217 134.675 4.43751 134.216 5.08817C133.757 5.73884 133.528 6.65084 133.528 7.82417C133.528 8.97617 133.757 9.85617 134.216 10.4642C134.675 11.0722 135.336 11.3762 136.2 11.3762C136.904 11.3762 137.453 11.2375 137.848 10.9602C138.253 10.6722 138.536 10.2775 138.696 9.77617C138.867 9.27484 138.952 8.70417 138.952 8.06417V7.50417C138.952 6.42684 138.749 5.59484 138.344 5.00817C137.949 4.41084 137.267 4.11217 136.296 4.11217Z" fill="#585858"/>
<path d="M149.778 7.72817C149.778 8.62417 149.629 9.40284 149.33 10.0642C149.042 10.7255 148.61 11.2428 148.034 11.6162C147.469 11.9788 146.775 12.1602 145.954 12.1602C145.165 12.1602 144.487 11.9788 143.922 11.6162C143.357 11.2535 142.919 10.7415 142.61 10.0802C142.311 9.40817 142.162 8.62417 142.162 7.72817C142.162 6.35217 142.503 5.27484 143.186 4.49617C143.869 3.71751 144.813 3.32817 146.018 3.32817C146.829 3.32817 147.511 3.51484 148.066 3.88817C148.631 4.25084 149.058 4.76284 149.346 5.42417C149.634 6.08551 149.778 6.85351 149.778 7.72817ZM143.106 7.72817C143.106 8.82684 143.335 9.71217 143.794 10.3842C144.263 11.0455 144.989 11.3762 145.97 11.3762C146.962 11.3762 147.687 11.0402 148.146 10.3682C148.605 9.69617 148.834 8.81617 148.834 7.72817C148.834 7.02417 148.738 6.40017 148.546 5.85617C148.354 5.31217 148.05 4.88551 147.634 4.57617C147.218 4.26684 146.674 4.11217 146.002 4.11217C145.042 4.11217 144.317 4.43217 143.826 5.07217C143.346 5.71217 143.106 6.59751 143.106 7.72817Z" fill="#585858"/>
<path d="M427 56H559V188H427V56Z" fill="#2F29A6"/>
<path d="M295 56H427V188H295V56Z" fill="#75DE6D"/>
<path fill-rule="evenodd" clip-rule="evenodd" d="M344.5 21.5H509.5V44H508.5V22.5H345.5V40.5778H344.5V21.5Z" fill="#6B6B6B"/>
<path d="M403.768 0.576172C405.176 0.576172 406.216 0.800172 406.888 1.24817C407.56 1.68551 407.896 2.38951 407.896 3.36017C407.896 4.02151 407.704 4.58684 407.32 5.05617C406.947 5.52551 406.397 5.82417 405.672 5.95217V6.00017C406.504 6.13884 407.139 6.43217 407.576 6.88017C408.013 7.32817 408.232 7.95217 408.232 8.75217C408.232 9.48817 408.061 10.0962 407.72 10.5762C407.379 11.0562 406.904 11.4135 406.296 11.6482C405.699 11.8828 405.005 12.0002 404.216 12.0002H400.6V0.576172H403.768ZM403.976 5.61617C405.032 5.61617 405.789 5.43484 406.248 5.07217C406.707 4.70951 406.936 4.17084 406.936 3.45617C406.936 2.72017 406.685 2.19217 406.184 1.87217C405.683 1.55217 404.877 1.39217 403.768 1.39217H401.528V5.61617H403.976ZM401.528 6.41617V11.1842H404.136C405.181 11.1842 405.96 10.9762 406.472 10.5602C406.984 10.1335 407.24 9.51484 407.24 8.70417C407.24 7.91484 406.973 7.33884 406.44 6.97617C405.907 6.60284 405.091 6.41617 403.992 6.41617H401.528Z" fill="#585858"/>
<path d="M417.221 3.48817V12.0002H416.485L416.341 10.5442H416.293C416.059 11.0135 415.696 11.4028 415.205 11.7122C414.725 12.0108 414.123 12.1602 413.397 12.1602C411.403 12.1602 410.405 11.1255 410.405 9.05617V3.48817H411.317V8.97617C411.317 9.79751 411.499 10.4055 411.861 10.8002C412.235 11.1842 412.784 11.3762 413.509 11.3762C415.376 11.3762 416.309 10.2935 416.309 8.12817V3.48817H417.221Z" fill="#585858"/>
<path d="M422.449 11.3762C422.683 11.3762 422.907 11.3602 423.121 11.3282C423.334 11.2962 423.521 11.2482 423.681 11.1842V11.9202C423.521 11.9842 423.323 12.0375 423.089 12.0802C422.854 12.1335 422.603 12.1602 422.337 12.1602C421.622 12.1602 421.073 11.9628 420.689 11.5682C420.305 11.1735 420.113 10.5282 420.113 9.63217V4.22417H418.849V3.71217L420.113 3.40817L420.433 1.45617H421.025V3.48817H423.633V4.22417H421.025V9.58417C421.025 10.7788 421.499 11.3762 422.449 11.3762Z" fill="#585858"/>
<path d="M427.886 11.3762C428.121 11.3762 428.345 11.3602 428.558 11.3282C428.772 11.2962 428.958 11.2482 429.118 11.1842V11.9202C428.958 11.9842 428.761 12.0375 428.526 12.0802C428.292 12.1335 428.041 12.1602 427.774 12.1602C427.06 12.1602 426.51 11.9628 426.126 11.5682C425.742 11.1735 425.55 10.5282 425.55 9.63217V4.22417H424.286V3.71217L425.55 3.40817L425.87 1.45617H426.462V3.48817H429.07V4.22417H426.462V9.58417C426.462 10.7788 426.937 11.3762 427.886 11.3762Z" fill="#585858"/>
<path d="M438.044 7.72817C438.044 8.62417 437.894 9.40284 437.596 10.0642C437.308 10.7255 436.876 11.2428 436.3 11.6162C435.734 11.9788 435.041 12.1602 434.22 12.1602C433.43 12.1602 432.753 11.9788 432.188 11.6162C431.622 11.2535 431.185 10.7415 430.876 10.0802C430.577 9.40817 430.428 8.62417 430.428 7.72817C430.428 6.35217 430.769 5.27484 431.452 4.49617C432.134 3.71751 433.078 3.32817 434.284 3.32817C435.094 3.32817 435.777 3.51484 436.332 3.88817C436.897 4.25084 437.324 4.76284 437.612 5.42417C437.9 6.08551 438.044 6.85351 438.044 7.72817ZM431.372 7.72817C431.372 8.82684 431.601 9.71217 432.06 10.3842C432.529 11.0455 433.254 11.3762 434.236 11.3762C435.228 11.3762 435.953 11.0402 436.412 10.3682C436.87 9.69617 437.1 8.81617 437.1 7.72817C437.1 7.02417 437.004 6.40017 436.812 5.85617C436.62 5.31217 436.316 4.88551 435.9 4.57617C435.484 4.26684 434.94 4.11217 434.268 4.11217C433.308 4.11217 432.582 4.43217 432.092 5.07217C431.612 5.71217 431.372 6.59751 431.372 7.72817Z" fill="#585858"/>
<path d="M444.169 3.32817C445.14 3.32817 445.881 3.57884 446.393 4.08017C446.905 4.58151 447.161 5.36551 447.161 6.43217V12.0002H446.265V6.49617C446.265 5.68551 446.079 5.08817 445.705 4.70417C445.332 4.30951 444.788 4.11217 444.073 4.11217C442.207 4.11217 441.273 5.19484 441.273 7.36017V12.0002H440.361V3.48817H441.097L441.225 4.96017H441.289C441.513 4.49084 441.871 4.10151 442.361 3.79217C442.852 3.48284 443.455 3.32817 444.169 3.32817Z" fill="#585858"/>
<path d="M455.252 9.74417C455.252 10.5122 454.964 11.1095 454.388 11.5362C453.812 11.9522 453.002 12.1602 451.956 12.1602C451.359 12.1602 450.831 12.1068 450.372 12.0002C449.914 11.9042 449.53 11.7762 449.22 11.6162V10.7362C449.594 10.9282 450.02 11.0882 450.5 11.2162C450.98 11.3335 451.471 11.3922 451.972 11.3922C452.804 11.3922 453.407 11.2535 453.78 10.9762C454.164 10.6882 454.356 10.2988 454.356 9.80817C454.356 9.33884 454.159 8.98151 453.764 8.73617C453.37 8.48017 452.788 8.21884 452.02 7.95217C451.487 7.77084 451.018 7.58951 450.612 7.40817C450.218 7.21617 449.908 6.97617 449.684 6.68817C449.46 6.40017 449.348 6.00551 449.348 5.50417C449.348 4.82151 449.626 4.28817 450.18 3.90417C450.735 3.52017 451.476 3.32817 452.404 3.32817C452.916 3.32817 453.391 3.37617 453.828 3.47217C454.276 3.56817 454.687 3.69617 455.06 3.85617L454.724 4.60817C454.394 4.46951 454.02 4.35217 453.604 4.25617C453.188 4.14951 452.772 4.09617 452.356 4.09617C451.684 4.09617 451.162 4.21351 450.788 4.44817C450.415 4.68284 450.228 5.02417 450.228 5.47217C450.228 5.81351 450.319 6.08551 450.5 6.28817C450.682 6.48017 450.943 6.64551 451.284 6.78417C451.626 6.92284 452.042 7.07751 452.532 7.24817C453.044 7.42951 453.503 7.61617 453.908 7.80817C454.314 8.00017 454.639 8.24551 454.884 8.54417C455.13 8.84284 455.252 9.24284 455.252 9.74417Z" fill="#585858"/>
<path d="M340 240H385V282H340V240Z" fill="#040058"/>
<path d="M385 326H430V368H385V326Z" fill="#7B6B2E"/>
<path d="M71 356H116V398H71V356Z" fill="#2A9259"/>
<path d="M71 414H116V456H71V414Z" fill="#6C29C1"/>
<path d="M116 356H161V398H116V356Z" fill="#D4E9DE"/>
<path d="M116 414H161V456H116V414Z" fill="#D5D4ED"/>
<path d="M385 240H430V282H385V240Z" fill="#F7FAFA"/>
<path d="M475 326H520V368H475V326Z" fill="#F0D05A"/>
<path d="M430 240H475V282H430V240Z" fill="#EDEDF3"/>
<path d="M295 326H340V368H295V326Z" fill="#0F1C3A"/>
<path d="M71 240H116V282H71V240Z" fill="#FFC107"/>
<path d="M116 240H161V282H116V240Z" fill="#FFF3CD"/>
<path d="M475 240H520V282H475V240Z" fill="#E0DFF2"/>
<path d="M520 326H565V368H520V326Z" fill="#E7D9C2"/>
<path d="M520 240H565V282H520V240Z" fill="#F5F5F5"/>
<path d="M430 326H475V368H430V326Z" fill="#39763A"/>
<path d="M295 240H340V282H295V240Z" fill="#16161D"/>
<path d="M340 326H385V368H340V326Z" fill="#93B5C6"/>
<path d="M71 298H116V340H71V298Z" fill="#DC3545"/>
<path d="M116 298H161V340H116V298Z" fill="#F8D7DA"/>
<path d="M299.704 226.16H298.776V215.568H295.096V214.736H303.384V215.568H299.704V226.16Z" fill="#4F4F4F"/>
<path d="M307.015 217.488C307.741 217.488 308.343 217.659 308.823 218C309.314 218.331 309.682 218.789 309.927 219.376C310.183 219.963 310.311 220.635 310.311 221.392V222.016H304.231C304.231 223.147 304.493 224.016 305.015 224.624C305.549 225.221 306.306 225.52 307.287 225.52C307.81 225.52 308.269 225.477 308.663 225.392C309.058 225.296 309.49 225.147 309.959 224.944V225.776C309.533 225.968 309.111 226.107 308.695 226.192C308.279 226.277 307.799 226.32 307.255 226.32C305.975 226.32 304.994 225.931 304.311 225.152C303.629 224.373 303.287 223.312 303.287 221.968C303.287 221.104 303.431 220.336 303.719 219.664C304.018 218.992 304.445 218.464 304.999 218.08C305.554 217.685 306.226 217.488 307.015 217.488ZM306.999 218.256C306.221 218.256 305.586 218.517 305.095 219.04C304.615 219.563 304.338 220.304 304.263 221.264H309.367C309.367 220.368 309.17 219.643 308.775 219.088C308.391 218.533 307.799 218.256 306.999 218.256Z" fill="#4F4F4F"/>
<path d="M314.347 221.792L311.387 217.648H312.443L314.907 221.168L317.355 217.648H318.395L315.451 221.792L318.571 226.16H317.515L314.907 222.416L312.283 226.16H311.243L314.347 221.792Z" fill="#4F4F4F"/>
<path d="M322.761 225.536C322.996 225.536 323.22 225.52 323.433 225.488C323.647 225.456 323.833 225.408 323.993 225.344V226.08C323.833 226.144 323.636 226.197 323.401 226.24C323.167 226.293 322.916 226.32 322.649 226.32C321.935 226.32 321.385 226.123 321.001 225.728C320.617 225.333 320.425 224.688 320.425 223.792V218.384H319.161V217.872L320.425 217.568L320.745 215.616H321.337V217.648H323.945V218.384H321.337V223.744C321.337 224.939 321.812 225.536 322.761 225.536Z" fill="#4F4F4F"/>
<path d="M329.767 214.736L325.495 226.16H324.583L328.855 214.736H329.767Z" fill="#4F4F4F"/>
<path d="M332.242 217.36C332.242 217.669 332.236 218 332.226 218.352C332.215 218.693 332.204 218.971 332.194 219.184H332.242C332.455 218.704 332.807 218.304 333.298 217.984C333.788 217.653 334.402 217.488 335.138 217.488C336.226 217.488 337.074 217.861 337.682 218.608C338.3 219.344 338.61 220.437 338.61 221.888C338.61 223.232 338.3 224.309 337.682 225.12C337.074 225.92 336.183 226.32 335.01 226.32C334.295 226.32 333.708 226.176 333.25 225.888C332.802 225.589 332.471 225.221 332.258 224.784H332.194L332.018 226.16H331.33V214H332.242V217.36ZM335.026 218.272C334.034 218.272 333.319 218.581 332.882 219.2C332.455 219.819 332.242 220.715 332.242 221.888V222C332.242 223.152 332.444 224.032 332.85 224.64C333.266 225.237 333.954 225.536 334.914 225.536C335.82 225.536 336.503 225.221 336.962 224.592C337.431 223.952 337.666 223.045 337.666 221.872C337.666 219.472 336.786 218.272 335.026 218.272Z" fill="#4F4F4F"/>
<path d="M343.932 217.504C344.892 217.504 345.606 217.739 346.076 218.208C346.545 218.677 346.78 219.419 346.78 220.432V226.16H346.092L345.932 224.72H345.884C345.574 225.2 345.196 225.589 344.748 225.888C344.31 226.176 343.697 226.32 342.908 226.32C342.086 226.32 341.441 226.117 340.972 225.712C340.502 225.296 340.268 224.704 340.268 223.936C340.268 223.083 340.614 222.437 341.308 222C342.001 221.552 343.009 221.301 344.332 221.248L345.884 221.168V220.576C345.884 219.744 345.713 219.152 345.372 218.8C345.041 218.448 344.55 218.272 343.9 218.272C343.462 218.272 343.041 218.331 342.636 218.448C342.23 218.565 341.825 218.72 341.42 218.912L341.132 218.176C341.537 217.984 341.974 217.824 342.444 217.696C342.924 217.568 343.42 217.504 343.932 217.504ZM344.444 221.92C343.356 221.973 342.545 222.165 342.012 222.496C341.489 222.816 341.228 223.296 341.228 223.936C341.228 224.469 341.388 224.875 341.708 225.152C342.038 225.419 342.492 225.552 343.068 225.552C343.953 225.552 344.641 225.301 345.132 224.8C345.622 224.288 345.873 223.584 345.884 222.688V221.856L344.444 221.92Z" fill="#4F4F4F"/>
<path d="M352.91 226.32C351.662 226.32 350.697 225.936 350.014 225.168C349.342 224.4 349.006 223.328 349.006 221.952C349.006 220.992 349.177 220.181 349.518 219.52C349.859 218.859 350.334 218.357 350.942 218.016C351.561 217.664 352.281 217.488 353.102 217.488C353.507 217.488 353.891 217.525 354.254 217.6C354.617 217.675 354.937 217.776 355.214 217.904L354.958 218.688C354.67 218.571 354.361 218.48 354.03 218.416C353.699 218.341 353.385 218.304 353.086 218.304C352.073 218.304 351.294 218.629 350.75 219.28C350.217 219.931 349.95 220.816 349.95 221.936C349.95 223.003 350.19 223.867 350.67 224.528C351.15 225.179 351.897 225.504 352.91 225.504C353.326 225.504 353.721 225.461 354.094 225.376C354.467 225.291 354.803 225.184 355.102 225.056V225.872C354.825 226.011 354.505 226.117 354.142 226.192C353.79 226.277 353.379 226.32 352.91 226.32Z" fill="#4F4F4F"/>
<path d="M358.007 220.176C358.007 220.517 358.002 220.875 357.991 221.248C357.981 221.611 357.975 221.968 357.975 222.32H357.991C358.13 222.16 358.285 221.973 358.455 221.76C358.637 221.547 358.807 221.349 358.967 221.168L362.199 217.648H363.303L359.927 221.296L363.575 226.16H362.487L359.303 221.888L358.007 223.2V226.16H357.111V214H358.007V220.176Z" fill="#4F4F4F"/>
<path d="M368.138 217.488C368.799 217.488 369.348 217.621 369.786 217.888C370.234 218.144 370.591 218.496 370.858 218.944H370.922L371.05 217.648H371.786V226.432C371.786 227.552 371.498 228.427 370.922 229.056C370.346 229.685 369.412 230 368.122 230C367.482 230 366.911 229.947 366.41 229.84C365.919 229.744 365.476 229.605 365.082 229.424V228.544C365.476 228.747 365.935 228.907 366.458 229.024C366.98 229.152 367.546 229.216 368.154 229.216C369.082 229.216 369.77 228.971 370.218 228.48C370.666 227.989 370.89 227.323 370.89 226.48V225.984C370.89 225.76 370.89 225.536 370.89 225.312C370.9 225.077 370.911 224.859 370.922 224.656H370.874C370.383 225.765 369.434 226.32 368.026 226.32C366.927 226.32 366.068 225.947 365.45 225.2C364.831 224.453 364.522 223.376 364.522 221.968C364.522 220.592 364.831 219.504 365.45 218.704C366.068 217.893 366.964 217.488 368.138 217.488ZM368.234 218.272C367.306 218.272 366.612 218.597 366.154 219.248C365.695 219.899 365.466 220.811 365.466 221.984C365.466 223.136 365.695 224.016 366.154 224.624C366.612 225.232 367.274 225.536 368.138 225.536C368.842 225.536 369.391 225.397 369.786 225.12C370.191 224.832 370.474 224.437 370.634 223.936C370.804 223.435 370.89 222.864 370.89 222.224V221.664C370.89 220.587 370.687 219.755 370.282 219.168C369.887 218.571 369.204 218.272 368.234 218.272Z" fill="#4F4F4F"/>
<path d="M378.1 217.504C378.516 217.504 378.9 217.547 379.252 217.632L379.108 218.48C378.766 218.384 378.414 218.336 378.052 218.336C377.273 218.336 376.654 218.624 376.196 219.2C375.737 219.776 375.508 220.539 375.508 221.488V226.16H374.596V217.648H375.364L375.46 219.232H375.508C375.721 218.752 376.046 218.347 376.484 218.016C376.921 217.675 377.46 217.504 378.1 217.504Z" fill="#4F4F4F"/>
<path d="M387.7 221.888C387.7 222.784 387.551 223.563 387.252 224.224C386.964 224.885 386.532 225.403 385.956 225.776C385.391 226.139 384.697 226.32 383.876 226.32C383.087 226.32 382.409 226.139 381.844 225.776C381.279 225.413 380.841 224.901 380.532 224.24C380.233 223.568 380.084 222.784 380.084 221.888C380.084 220.512 380.425 219.435 381.108 218.656C381.791 217.877 382.735 217.488 383.94 217.488C384.751 217.488 385.433 217.675 385.988 218.048C386.553 218.411 386.98 218.923 387.268 219.584C387.556 220.245 387.7 221.013 387.7 221.888ZM381.028 221.888C381.028 222.987 381.257 223.872 381.716 224.544C382.185 225.205 382.911 225.536 383.892 225.536C384.884 225.536 385.609 225.2 386.068 224.528C386.527 223.856 386.756 222.976 386.756 221.888C386.756 221.184 386.66 220.56 386.468 220.016C386.276 219.472 385.972 219.045 385.556 218.736C385.14 218.427 384.596 218.272 383.924 218.272C382.964 218.272 382.239 218.592 381.748 219.232C381.268 219.872 381.028 220.757 381.028 221.888Z" fill="#4F4F4F"/>
<path d="M396.722 217.648V226.16H395.986L395.842 224.704H395.794C395.559 225.173 395.196 225.563 394.706 225.872C394.226 226.171 393.623 226.32 392.898 226.32C390.903 226.32 389.906 225.285 389.906 223.216V217.648H390.818V223.136C390.818 223.957 390.999 224.565 391.362 224.96C391.735 225.344 392.284 225.536 393.01 225.536C394.876 225.536 395.81 224.453 395.81 222.288V217.648H396.722Z" fill="#4F4F4F"/>
<path d="M403.357 217.488C404.327 217.488 405.069 217.739 405.581 218.24C406.093 218.741 406.349 219.525 406.349 220.592V226.16H405.453V220.656C405.453 219.845 405.266 219.248 404.893 218.864C404.519 218.469 403.975 218.272 403.261 218.272C401.394 218.272 400.461 219.355 400.461 221.52V226.16H399.549V217.648H400.285L400.413 219.12H400.477C400.701 218.651 401.058 218.261 401.549 217.952C402.039 217.643 402.642 217.488 403.357 217.488Z" fill="#4F4F4F"/>
<path d="M412.136 226.32C410.995 226.32 410.115 225.957 409.496 225.232C408.888 224.496 408.584 223.413 408.584 221.984C408.584 220.523 408.904 219.408 409.544 218.64C410.184 217.872 411.075 217.488 412.216 217.488C412.931 217.488 413.507 217.648 413.944 217.968C414.392 218.277 414.728 218.656 414.952 219.104H415.016C415.005 218.859 414.989 218.587 414.968 218.288C414.957 217.979 414.952 217.696 414.952 217.44V214H415.864V226.16H415.128L415 224.672H414.952C414.728 225.131 414.392 225.52 413.944 225.84C413.496 226.16 412.893 226.32 412.136 226.32ZM412.248 225.536C413.229 225.536 413.928 225.237 414.344 224.64C414.76 224.043 414.968 223.179 414.968 222.048V221.904C414.968 220.731 414.76 219.835 414.344 219.216C413.939 218.587 413.261 218.272 412.312 218.272C411.395 218.272 410.701 218.597 410.232 219.248C409.763 219.888 409.528 220.805 409.528 222C409.528 223.152 409.752 224.032 410.2 224.64C410.648 225.237 411.331 225.536 412.248 225.536Z" fill="#4F4F4F"/>
<path d="M299.448 298.736C302.189 298.736 303.56 299.813 303.56 301.968C303.56 303.067 303.203 303.931 302.488 304.56C301.784 305.179 300.691 305.488 299.208 305.488H297.528V310.16H296.6V298.736H299.448ZM299.352 299.552H297.528V304.672H299.112C300.211 304.672 301.064 304.48 301.672 304.096C302.291 303.712 302.6 303.019 302.6 302.016C302.6 301.163 302.333 300.539 301.8 300.144C301.277 299.749 300.461 299.552 299.352 299.552Z" fill="#4F4F4F"/>
<path d="M306.742 301.888C306.742 302.112 306.737 302.325 306.726 302.528C306.715 302.731 306.699 302.928 306.678 303.12H306.742C306.966 302.651 307.318 302.261 307.798 301.952C308.289 301.643 308.897 301.488 309.622 301.488C310.603 301.488 311.35 301.739 311.862 302.24C312.374 302.741 312.63 303.525 312.63 304.592V310.16H311.734V304.656C311.734 303.845 311.547 303.248 311.174 302.864C310.801 302.469 310.257 302.272 309.542 302.272C307.675 302.272 306.742 303.355 306.742 305.52V310.16H305.83V298H306.742V301.888Z" fill="#4F4F4F"/>
<path d="M322.481 305.888C322.481 306.784 322.332 307.563 322.033 308.224C321.745 308.885 321.313 309.403 320.737 309.776C320.172 310.139 319.479 310.32 318.657 310.32C317.868 310.32 317.191 310.139 316.625 309.776C316.06 309.413 315.623 308.901 315.313 308.24C315.015 307.568 314.865 306.784 314.865 305.888C314.865 304.512 315.207 303.435 315.889 302.656C316.572 301.877 317.516 301.488 318.721 301.488C319.532 301.488 320.215 301.675 320.769 302.048C321.335 302.411 321.761 302.923 322.049 303.584C322.337 304.245 322.481 305.013 322.481 305.888ZM315.809 305.888C315.809 306.987 316.039 307.872 316.497 308.544C316.967 309.205 317.692 309.536 318.673 309.536C319.665 309.536 320.391 309.2 320.849 308.528C321.308 307.856 321.537 306.976 321.537 305.888C321.537 305.184 321.441 304.56 321.249 304.016C321.057 303.472 320.753 303.045 320.337 302.736C319.921 302.427 319.377 302.272 318.705 302.272C317.745 302.272 317.02 302.592 316.529 303.232C316.049 303.872 315.809 304.757 315.809 305.888Z" fill="#4F4F4F"/>
<path d="M327.199 309.536C327.433 309.536 327.657 309.52 327.871 309.488C328.084 309.456 328.271 309.408 328.431 309.344V310.08C328.271 310.144 328.073 310.197 327.839 310.24C327.604 310.293 327.353 310.32 327.087 310.32C326.372 310.32 325.823 310.123 325.439 309.728C325.055 309.333 324.863 308.688 324.863 307.792V302.384H323.599V301.872L324.863 301.568L325.183 299.616H325.775V301.648H328.383V302.384H325.775V307.744C325.775 308.939 326.249 309.536 327.199 309.536Z" fill="#4F4F4F"/>
<path d="M337.356 305.888C337.356 306.784 337.207 307.563 336.908 308.224C336.62 308.885 336.188 309.403 335.612 309.776C335.047 310.139 334.354 310.32 333.532 310.32C332.743 310.32 332.066 310.139 331.5 309.776C330.935 309.413 330.498 308.901 330.188 308.24C329.89 307.568 329.74 306.784 329.74 305.888C329.74 304.512 330.082 303.435 330.764 302.656C331.447 301.877 332.391 301.488 333.596 301.488C334.407 301.488 335.09 301.675 335.644 302.048C336.21 302.411 336.636 302.923 336.924 303.584C337.212 304.245 337.356 305.013 337.356 305.888ZM330.684 305.888C330.684 306.987 330.914 307.872 331.372 308.544C331.842 309.205 332.567 309.536 333.548 309.536C334.54 309.536 335.266 309.2 335.724 308.528C336.183 307.856 336.412 306.976 336.412 305.888C336.412 305.184 336.316 304.56 336.124 304.016C335.932 303.472 335.628 303.045 335.212 302.736C334.796 302.427 334.252 302.272 333.58 302.272C332.62 302.272 331.895 302.592 331.404 303.232C330.924 303.872 330.684 304.757 330.684 305.888Z" fill="#4F4F4F"/>
<path d="M342.794 301.488C343.455 301.488 344.004 301.621 344.442 301.888C344.89 302.144 345.247 302.496 345.514 302.944H345.578L345.706 301.648H346.442V310.432C346.442 311.552 346.154 312.427 345.578 313.056C345.002 313.685 344.068 314 342.778 314C342.138 314 341.567 313.947 341.066 313.84C340.575 313.744 340.132 313.605 339.738 313.424V312.544C340.132 312.747 340.591 312.907 341.114 313.024C341.636 313.152 342.202 313.216 342.81 313.216C343.738 313.216 344.426 312.971 344.874 312.48C345.322 311.989 345.546 311.323 345.546 310.48V309.984C345.546 309.76 345.546 309.536 345.546 309.312C345.556 309.077 345.567 308.859 345.578 308.656H345.53C345.039 309.765 344.09 310.32 342.682 310.32C341.583 310.32 340.724 309.947 340.106 309.2C339.487 308.453 339.178 307.376 339.178 305.968C339.178 304.592 339.487 303.504 340.106 302.704C340.724 301.893 341.62 301.488 342.794 301.488ZM342.89 302.272C341.962 302.272 341.268 302.597 340.81 303.248C340.351 303.899 340.122 304.811 340.122 305.984C340.122 307.136 340.351 308.016 340.81 308.624C341.268 309.232 341.93 309.536 342.794 309.536C343.498 309.536 344.047 309.397 344.442 309.12C344.847 308.832 345.13 308.437 345.29 307.936C345.46 307.435 345.546 306.864 345.546 306.224V305.664C345.546 304.587 345.343 303.755 344.938 303.168C344.543 302.571 343.86 302.272 342.89 302.272Z" fill="#4F4F4F"/>
<path d="M352.756 301.504C353.172 301.504 353.556 301.547 353.908 301.632L353.764 302.48C353.423 302.384 353.071 302.336 352.708 302.336C351.929 302.336 351.311 302.624 350.852 303.2C350.393 303.776 350.164 304.539 350.164 305.488V310.16H349.252V301.648H350.02L350.116 303.232H350.164C350.377 302.752 350.703 302.347 351.14 302.016C351.577 301.675 352.116 301.504 352.756 301.504Z" fill="#4F4F4F"/>
<path d="M358.244 301.504C359.204 301.504 359.919 301.739 360.388 302.208C360.858 302.677 361.092 303.419 361.092 304.432V310.16H360.404L360.244 308.72H360.196C359.887 309.2 359.508 309.589 359.06 309.888C358.623 310.176 358.01 310.32 357.22 310.32C356.399 310.32 355.754 310.117 355.284 309.712C354.815 309.296 354.58 308.704 354.58 307.936C354.58 307.083 354.927 306.437 355.62 306C356.314 305.552 357.322 305.301 358.644 305.248L360.196 305.168V304.576C360.196 303.744 360.026 303.152 359.684 302.8C359.354 302.448 358.863 302.272 358.212 302.272C357.775 302.272 357.354 302.331 356.948 302.448C356.543 302.565 356.138 302.72 355.732 302.912L355.444 302.176C355.85 301.984 356.287 301.824 356.756 301.696C357.236 301.568 357.732 301.504 358.244 301.504ZM358.756 305.92C357.668 305.973 356.858 306.165 356.324 306.496C355.802 306.816 355.54 307.296 355.54 307.936C355.54 308.469 355.7 308.875 356.02 309.152C356.351 309.419 356.804 309.552 357.38 309.552C358.266 309.552 358.954 309.301 359.444 308.8C359.935 308.288 360.186 307.584 360.196 306.688V305.856L358.756 305.92Z" fill="#4F4F4F"/>
<path d="M367.638 301.488C368.726 301.488 369.574 301.856 370.182 302.592C370.79 303.328 371.094 304.416 371.094 305.856C371.094 307.296 370.774 308.4 370.134 309.168C369.505 309.936 368.641 310.32 367.542 310.32C366.796 310.32 366.193 310.16 365.734 309.84C365.276 309.52 364.94 309.136 364.726 308.688H364.662C364.684 308.955 364.7 309.248 364.71 309.568C364.721 309.877 364.726 310.165 364.726 310.432V313.936H363.814V301.648H364.566L364.678 303.232H364.726C364.94 302.773 365.281 302.368 365.75 302.016C366.22 301.664 366.849 301.488 367.638 301.488ZM367.51 302.272C366.561 302.272 365.862 302.571 365.414 303.168C364.966 303.765 364.737 304.624 364.726 305.744V305.904C364.726 307.12 364.945 308.032 365.382 308.64C365.83 309.237 366.518 309.536 367.446 309.536C368.321 309.536 368.988 309.211 369.446 308.56C369.916 307.899 370.15 306.992 370.15 305.84C370.15 304.699 369.926 303.819 369.478 303.2C369.041 302.581 368.385 302.272 367.51 302.272Z" fill="#4F4F4F"/>
<path d="M374.304 301.888C374.304 302.112 374.299 302.325 374.288 302.528C374.278 302.731 374.262 302.928 374.24 303.12H374.304C374.528 302.651 374.88 302.261 375.36 301.952C375.851 301.643 376.459 301.488 377.184 301.488C378.166 301.488 378.912 301.739 379.424 302.24C379.936 302.741 380.192 303.525 380.192 304.592V310.16H379.296V304.656C379.296 303.845 379.11 303.248 378.736 302.864C378.363 302.469 377.819 302.272 377.104 302.272C375.238 302.272 374.304 303.355 374.304 305.52V310.16H373.392V298H374.304V301.888Z" fill="#4F4F4F"/>
<path d="M381.532 301.648H382.492L384.524 306.928C384.694 307.408 384.844 307.835 384.972 308.208C385.1 308.571 385.201 308.896 385.276 309.184H385.324C385.484 308.651 385.734 307.909 386.076 306.96L388.06 301.648H389.036L385.196 311.664C384.908 312.421 384.566 313.003 384.172 313.408C383.777 313.813 383.244 314.016 382.572 314.016C382.369 314.016 382.182 314.005 382.012 313.984C381.852 313.963 381.702 313.925 381.564 313.872V313.104C381.692 313.147 381.83 313.179 381.98 313.2C382.129 313.232 382.289 313.248 382.46 313.248C382.908 313.248 383.27 313.109 383.548 312.832C383.836 312.555 384.092 312.128 384.316 311.552L384.86 310.128L381.532 301.648Z" fill="#4F4F4F"/>
<path d="M78.072 223.184C78.072 223.867 77.9013 224.443 77.56 224.912C77.2187 225.381 76.7493 225.733 76.152 225.968C75.5547 226.203 74.8773 226.32 74.12 226.32C73.4267 226.32 72.824 226.272 72.312 226.176C71.8 226.08 71.3627 225.957 71 225.808V224.896C71.3947 225.056 71.864 225.195 72.408 225.312C72.952 225.429 73.5387 225.488 74.168 225.488C75.0427 225.488 75.752 225.301 76.296 224.928C76.8507 224.555 77.128 223.995 77.128 223.248C77.128 222.8 77.0213 222.432 76.808 222.144C76.6053 221.845 76.2853 221.589 75.848 221.376C75.4213 221.152 74.872 220.928 74.2 220.704C73.56 220.491 73.0107 220.251 72.552 219.984C72.0933 219.717 71.7413 219.387 71.496 218.992C71.2507 218.587 71.128 218.08 71.128 217.472C71.128 216.853 71.2827 216.331 71.592 215.904C71.912 215.467 72.344 215.136 72.888 214.912C73.4427 214.688 74.072 214.576 74.776 214.576C75.3307 214.576 75.8587 214.629 76.36 214.736C76.8613 214.843 77.336 214.992 77.784 215.184L77.48 215.984C76.5627 215.6 75.6507 215.408 74.744 215.408C73.9547 215.408 73.3093 215.584 72.808 215.936C72.3173 216.277 72.072 216.784 72.072 217.456C72.072 217.947 72.1787 218.341 72.392 218.64C72.6053 218.928 72.9147 219.173 73.32 219.376C73.7253 219.579 74.2213 219.781 74.808 219.984C75.48 220.219 76.056 220.464 76.536 220.72C77.0267 220.976 77.4053 221.301 77.672 221.696C77.9387 222.08 78.072 222.576 78.072 223.184Z" fill="#4F4F4F"/>
<path d="M83.5104 217.488C84.2357 217.488 84.8384 217.659 85.3184 218C85.809 218.331 86.177 218.789 86.4224 219.376C86.6784 219.963 86.8064 220.635 86.8064 221.392V222.016H80.7264C80.7264 223.147 80.9877 224.016 81.5104 224.624C82.0437 225.221 82.801 225.52 83.7824 225.52C84.305 225.52 84.7637 225.477 85.1584 225.392C85.553 225.296 85.985 225.147 86.4544 224.944V225.776C86.0277 225.968 85.6064 226.107 85.1904 226.192C84.7744 226.277 84.2944 226.32 83.7504 226.32C82.4704 226.32 81.489 225.931 80.8064 225.152C80.1237 224.373 79.7824 223.312 79.7824 221.968C79.7824 221.104 79.9264 220.336 80.2144 219.664C80.513 218.992 80.9397 218.464 81.4944 218.08C82.049 217.685 82.721 217.488 83.5104 217.488ZM83.4944 218.256C82.7157 218.256 82.081 218.517 81.5904 219.04C81.1104 219.563 80.833 220.304 80.7584 221.264H85.8624C85.8624 220.368 85.665 219.643 85.2704 219.088C84.8864 218.533 84.2944 218.256 83.4944 218.256Z" fill="#4F4F4F"/>
<path d="M98.0025 217.488C98.8452 217.488 99.5012 217.728 99.9705 218.208C100.45 218.688 100.691 219.445 100.691 220.48V226.16H99.7945V220.512C99.7945 219.755 99.6185 219.195 99.2665 218.832C98.9252 218.459 98.4612 218.272 97.8745 218.272C97.0638 218.272 96.4398 218.512 96.0025 218.992C95.5652 219.461 95.3465 220.192 95.3465 221.184V226.16H94.4505V220.512C94.4505 219.755 94.2745 219.195 93.9225 218.832C93.5812 218.459 93.1172 218.272 92.5305 218.272C91.7198 218.272 91.0958 218.523 90.6585 219.024C90.2318 219.525 90.0185 220.293 90.0185 221.328V226.16H89.1065V217.648H89.8425L89.9705 218.992H90.0345C90.2478 218.576 90.5678 218.224 90.9945 217.936C91.4318 217.637 91.9865 217.488 92.6585 217.488C93.2772 217.488 93.7998 217.621 94.2265 217.888C94.6532 218.155 94.9572 218.549 95.1385 219.072H95.1865C95.4318 218.571 95.7945 218.181 96.2745 217.904C96.7652 217.627 97.3412 217.488 98.0025 217.488Z" fill="#4F4F4F"/>
<path d="M106.411 217.504C107.371 217.504 108.086 217.739 108.555 218.208C109.025 218.677 109.259 219.419 109.259 220.432V226.16H108.571L108.411 224.72H108.363C108.054 225.2 107.675 225.589 107.227 225.888C106.79 226.176 106.177 226.32 105.387 226.32C104.566 226.32 103.921 226.117 103.451 225.712C102.982 225.296 102.747 224.704 102.747 223.936C102.747 223.083 103.094 222.437 103.787 222C104.481 221.552 105.489 221.301 106.811 221.248L108.363 221.168V220.576C108.363 219.744 108.193 219.152 107.851 218.8C107.521 218.448 107.03 218.272 106.379 218.272C105.942 218.272 105.521 218.331 105.115 218.448C104.71 218.565 104.305 218.72 103.899 218.912L103.611 218.176C104.017 217.984 104.454 217.824 104.923 217.696C105.403 217.568 105.899 217.504 106.411 217.504ZM106.923 221.92C105.835 221.973 105.025 222.165 104.491 222.496C103.969 222.816 103.707 223.296 103.707 223.936C103.707 224.469 103.867 224.875 104.187 225.152C104.518 225.419 104.971 225.552 105.547 225.552C106.433 225.552 107.121 225.301 107.611 224.8C108.102 224.288 108.353 223.584 108.363 222.688V221.856L106.923 221.92Z" fill="#4F4F4F"/>
<path d="M115.79 217.488C116.76 217.488 117.502 217.739 118.014 218.24C118.526 218.741 118.782 219.525 118.782 220.592V226.16H117.886V220.656C117.886 219.845 117.699 219.248 117.326 218.864C116.952 218.469 116.408 218.272 115.694 218.272C113.827 218.272 112.894 219.355 112.894 221.52V226.16H111.982V217.648H112.718L112.846 219.12H112.91C113.134 218.651 113.491 218.261 113.982 217.952C114.472 217.643 115.075 217.488 115.79 217.488Z" fill="#4F4F4F"/>
<path d="M123.913 225.536C124.147 225.536 124.371 225.52 124.585 225.488C124.798 225.456 124.985 225.408 125.145 225.344V226.08C124.985 226.144 124.787 226.197 124.553 226.24C124.318 226.293 124.067 226.32 123.801 226.32C123.086 226.32 122.537 226.123 122.153 225.728C121.769 225.333 121.577 224.688 121.577 223.792V218.384H120.313V217.872L121.577 217.568L121.897 215.616H122.489V217.648H125.097V218.384H122.489V223.744C122.489 224.939 122.963 225.536 123.913 225.536Z" fill="#4F4F4F"/>
<path d="M127.414 214.496C127.83 214.496 128.038 214.725 128.038 215.184C128.038 215.653 127.83 215.888 127.414 215.888C126.998 215.888 126.79 215.653 126.79 215.184C126.79 214.725 126.998 214.496 127.414 214.496ZM127.862 217.648V226.16H126.95V217.648H127.862Z" fill="#4F4F4F"/>
<path d="M134.093 226.32C132.845 226.32 131.879 225.936 131.197 225.168C130.525 224.4 130.189 223.328 130.189 221.952C130.189 220.992 130.359 220.181 130.701 219.52C131.042 218.859 131.517 218.357 132.125 218.016C132.743 217.664 133.463 217.488 134.285 217.488C134.69 217.488 135.074 217.525 135.437 217.6C135.799 217.675 136.119 217.776 136.397 217.904L136.141 218.688C135.853 218.571 135.543 218.48 135.213 218.416C134.882 218.341 134.567 218.304 134.269 218.304C133.255 218.304 132.477 218.629 131.933 219.28C131.399 219.931 131.133 220.816 131.133 221.936C131.133 223.003 131.373 223.867 131.853 224.528C132.333 225.179 133.079 225.504 134.093 225.504C134.509 225.504 134.903 225.461 135.277 225.376C135.65 225.291 135.986 225.184 136.285 225.056V225.872C136.007 226.011 135.687 226.117 135.325 226.192C134.973 226.277 134.562 226.32 134.093 226.32Z" fill="#4F4F4F"/>
<path d="M145.858 226.32C144.61 226.32 143.645 225.936 142.962 225.168C142.29 224.4 141.954 223.328 141.954 221.952C141.954 220.992 142.125 220.181 142.466 219.52C142.808 218.859 143.282 218.357 143.89 218.016C144.509 217.664 145.229 217.488 146.05 217.488C146.456 217.488 146.84 217.525 147.202 217.6C147.565 217.675 147.885 217.776 148.162 217.904L147.906 218.688C147.618 218.571 147.309 218.48 146.978 218.416C146.648 218.341 146.333 218.304 146.034 218.304C145.021 218.304 144.242 218.629 143.698 219.28C143.165 219.931 142.898 220.816 142.898 221.936C142.898 223.003 143.138 223.867 143.618 224.528C144.098 225.179 144.845 225.504 145.858 225.504C146.274 225.504 146.669 225.461 147.042 225.376C147.416 225.291 147.752 225.184 148.05 225.056V225.872C147.773 226.011 147.453 226.117 147.09 226.192C146.738 226.277 146.328 226.32 145.858 226.32Z" fill="#4F4F4F"/>
<path d="M157.18 221.888C157.18 222.784 157.03 223.563 156.732 224.224C156.444 224.885 156.012 225.403 155.436 225.776C154.87 226.139 154.177 226.32 153.356 226.32C152.566 226.32 151.889 226.139 151.324 225.776C150.758 225.413 150.321 224.901 150.012 224.24C149.713 223.568 149.564 222.784 149.564 221.888C149.564 220.512 149.905 219.435 150.588 218.656C151.27 217.877 152.214 217.488 153.42 217.488C154.23 217.488 154.913 217.675 155.468 218.048C156.033 218.411 156.46 218.923 156.748 219.584C157.036 220.245 157.18 221.013 157.18 221.888ZM150.508 221.888C150.508 222.987 150.737 223.872 151.196 224.544C151.665 225.205 152.39 225.536 153.372 225.536C154.364 225.536 155.089 225.2 155.548 224.528C156.006 223.856 156.236 222.976 156.236 221.888C156.236 221.184 156.14 220.56 155.948 220.016C155.756 219.472 155.452 219.045 155.036 218.736C154.62 218.427 154.076 218.272 153.404 218.272C152.444 218.272 151.718 218.592 151.228 219.232C150.748 219.872 150.508 220.757 150.508 221.888Z" fill="#4F4F4F"/>
<path d="M160.409 226.16H159.497V214H160.409V226.16Z" fill="#4F4F4F"/>
<path d="M170.352 221.888C170.352 222.784 170.202 223.563 169.904 224.224C169.616 224.885 169.183 225.403 168.607 225.776C168.042 226.139 167.349 226.32 166.528 226.32C165.738 226.32 165.061 226.139 164.495 225.776C163.93 225.413 163.493 224.901 163.184 224.24C162.885 223.568 162.736 222.784 162.736 221.888C162.736 220.512 163.077 219.435 163.759 218.656C164.442 217.877 165.386 217.488 166.591 217.488C167.402 217.488 168.085 217.675 168.64 218.048C169.205 218.411 169.632 218.923 169.92 219.584C170.208 220.245 170.352 221.013 170.352 221.888ZM163.68 221.888C163.68 222.987 163.909 223.872 164.368 224.544C164.837 225.205 165.562 225.536 166.544 225.536C167.536 225.536 168.261 225.2 168.72 224.528C169.178 223.856 169.408 222.976 169.408 221.888C169.408 221.184 169.311 220.56 169.119 220.016C168.927 219.472 168.624 219.045 168.208 218.736C167.792 218.427 167.248 218.272 166.576 218.272C165.616 218.272 164.89 218.592 164.4 219.232C163.92 219.872 163.68 220.757 163.68 221.888Z" fill="#4F4F4F"/>
<path d="M179.373 217.648V226.16H178.637L178.493 224.704H178.445C178.21 225.173 177.848 225.563 177.357 225.872C176.877 226.171 176.274 226.32 175.549 226.32C173.554 226.32 172.557 225.285 172.557 223.216V217.648H173.469V223.136C173.469 223.957 173.65 224.565 174.013 224.96C174.386 225.344 174.936 225.536 175.661 225.536C177.528 225.536 178.461 224.453 178.461 222.288V217.648H179.373Z" fill="#4F4F4F"/>
<path d="M185.704 217.504C186.12 217.504 186.504 217.547 186.856 217.632L186.712 218.48C186.371 218.384 186.019 218.336 185.656 218.336C184.878 218.336 184.259 218.624 183.8 219.2C183.342 219.776 183.112 220.539 183.112 221.488V226.16H182.2V217.648H182.968L183.064 219.232H183.112C183.326 218.752 183.651 218.347 184.088 218.016C184.526 217.675 185.064 217.504 185.704 217.504Z" fill="#4F4F4F"/>
<path d="M193.857 223.904C193.857 224.672 193.569 225.269 192.993 225.696C192.417 226.112 191.606 226.32 190.561 226.32C189.964 226.32 189.436 226.267 188.977 226.16C188.518 226.064 188.134 225.936 187.825 225.776V224.896C188.198 225.088 188.625 225.248 189.105 225.376C189.585 225.493 190.076 225.552 190.577 225.552C191.409 225.552 192.012 225.413 192.385 225.136C192.769 224.848 192.961 224.459 192.961 223.968C192.961 223.499 192.764 223.141 192.369 222.896C191.974 222.64 191.393 222.379 190.625 222.112C190.092 221.931 189.622 221.749 189.217 221.568C188.822 221.376 188.513 221.136 188.289 220.848C188.065 220.56 187.953 220.165 187.953 219.664C187.953 218.981 188.23 218.448 188.785 218.064C189.34 217.68 190.081 217.488 191.009 217.488C191.521 217.488 191.996 217.536 192.433 217.632C192.881 217.728 193.292 217.856 193.665 218.016L193.329 218.768C192.998 218.629 192.625 218.512 192.209 218.416C191.793 218.309 191.377 218.256 190.961 218.256C190.289 218.256 189.766 218.373 189.393 218.608C189.02 218.843 188.833 219.184 188.833 219.632C188.833 219.973 188.924 220.245 189.105 220.448C189.286 220.64 189.548 220.805 189.889 220.944C190.23 221.083 190.646 221.237 191.137 221.408C191.649 221.589 192.108 221.776 192.513 221.968C192.918 222.16 193.244 222.405 193.489 222.704C193.734 223.003 193.857 223.403 193.857 223.904Z" fill="#4F4F4F"/>
<path d="M187.048 255.576L183.944 267H183.032L180.632 258.6C180.515 258.216 180.413 257.864 180.328 257.544C180.243 257.213 180.179 256.941 180.136 256.728C180.104 256.931 180.051 257.187 179.976 257.496C179.912 257.795 179.832 258.109 179.736 258.44L177.352 267H176.44L173.368 255.576H174.328L176.408 263.416C176.515 263.864 176.611 264.275 176.696 264.648C176.792 265.011 176.872 265.368 176.936 265.72C177 265.357 177.075 264.984 177.16 264.6C177.245 264.216 177.352 263.805 177.48 263.368L179.688 255.576H180.632L182.904 263.416C183.032 263.875 183.139 264.296 183.224 264.68C183.32 265.053 183.4 265.411 183.464 265.752C183.517 265.4 183.581 265.043 183.656 264.68C183.741 264.307 183.848 263.885 183.976 263.416L186.088 255.576H187.048Z" fill="#4F4F4F"/>
<path d="M191.51 258.344C192.47 258.344 193.185 258.579 193.654 259.048C194.123 259.517 194.358 260.259 194.358 261.272V267H193.67L193.51 265.56H193.462C193.153 266.04 192.774 266.429 192.326 266.728C191.889 267.016 191.275 267.16 190.486 267.16C189.665 267.16 189.019 266.957 188.55 266.552C188.081 266.136 187.846 265.544 187.846 264.776C187.846 263.923 188.193 263.277 188.886 262.84C189.579 262.392 190.587 262.141 191.91 262.088L193.462 262.008V261.416C193.462 260.584 193.291 259.992 192.95 259.64C192.619 259.288 192.129 259.112 191.478 259.112C191.041 259.112 190.619 259.171 190.214 259.288C189.809 259.405 189.403 259.56 188.998 259.752L188.71 259.016C189.115 258.824 189.553 258.664 190.022 258.536C190.502 258.408 190.998 258.344 191.51 258.344ZM192.022 262.76C190.934 262.813 190.123 263.005 189.59 263.336C189.067 263.656 188.806 264.136 188.806 264.776C188.806 265.309 188.966 265.715 189.286 265.992C189.617 266.259 190.07 266.392 190.646 266.392C191.531 266.392 192.219 266.141 192.71 265.64C193.201 265.128 193.451 264.424 193.462 263.528V262.696L192.022 262.76Z" fill="#4F4F4F"/>
<path d="M200.584 258.344C201 258.344 201.384 258.387 201.736 258.472L201.592 259.32C201.251 259.224 200.899 259.176 200.536 259.176C199.757 259.176 199.139 259.464 198.68 260.04C198.221 260.616 197.992 261.379 197.992 262.328V267H197.08V258.488H197.848L197.944 260.072H197.992C198.205 259.592 198.531 259.187 198.968 258.856C199.405 258.515 199.944 258.344 200.584 258.344Z" fill="#4F4F4F"/>
<path d="M207.185 258.328C208.156 258.328 208.897 258.579 209.409 259.08C209.921 259.581 210.177 260.365 210.177 261.432V267H209.281V261.496C209.281 260.685 209.094 260.088 208.721 259.704C208.348 259.309 207.804 259.112 207.089 259.112C205.222 259.112 204.289 260.195 204.289 262.36V267H203.377V258.488H204.113L204.241 259.96H204.305C204.529 259.491 204.886 259.101 205.377 258.792C205.868 258.483 206.47 258.328 207.185 258.328Z" fill="#4F4F4F"/>
<path d="M213.372 255.336C213.788 255.336 213.996 255.565 213.996 256.024C213.996 256.493 213.788 256.728 213.372 256.728C212.956 256.728 212.748 256.493 212.748 256.024C212.748 255.565 212.956 255.336 213.372 255.336ZM213.82 258.488V267H212.908V258.488H213.82Z" fill="#4F4F4F"/>
<path d="M220.451 258.328C221.421 258.328 222.163 258.579 222.675 259.08C223.187 259.581 223.443 260.365 223.443 261.432V267H222.547V261.496C222.547 260.685 222.36 260.088 221.987 259.704C221.613 259.309 221.069 259.112 220.355 259.112C218.488 259.112 217.555 260.195 217.555 262.36V267H216.643V258.488H217.379L217.507 259.96H217.571C217.795 259.491 218.152 259.101 218.643 258.792C219.133 258.483 219.736 258.328 220.451 258.328Z" fill="#4F4F4F"/>
<path d="M229.294 258.328C229.955 258.328 230.504 258.461 230.942 258.728C231.39 258.984 231.747 259.336 232.014 259.784H232.078L232.206 258.488H232.942V267.272C232.942 268.392 232.654 269.267 232.078 269.896C231.502 270.525 230.568 270.84 229.278 270.84C228.638 270.84 228.067 270.787 227.566 270.68C227.075 270.584 226.632 270.445 226.238 270.264V269.384C226.632 269.587 227.091 269.747 227.614 269.864C228.136 269.992 228.702 270.056 229.31 270.056C230.238 270.056 230.926 269.811 231.374 269.32C231.822 268.829 232.046 268.163 232.046 267.32V266.824C232.046 266.6 232.046 266.376 232.046 266.152C232.056 265.917 232.067 265.699 232.078 265.496H232.03C231.539 266.605 230.59 267.16 229.182 267.16C228.083 267.16 227.224 266.787 226.606 266.04C225.987 265.293 225.678 264.216 225.678 262.808C225.678 261.432 225.987 260.344 226.606 259.544C227.224 258.733 228.12 258.328 229.294 258.328ZM229.39 259.112C228.462 259.112 227.768 259.437 227.31 260.088C226.851 260.739 226.622 261.651 226.622 262.824C226.622 263.976 226.851 264.856 227.31 265.464C227.768 266.072 228.43 266.376 229.294 266.376C229.998 266.376 230.547 266.237 230.942 265.96C231.347 265.672 231.63 265.277 231.79 264.776C231.96 264.275 232.046 263.704 232.046 263.064V262.504C232.046 261.427 231.843 260.595 231.438 260.008C231.043 259.411 230.36 259.112 229.39 259.112Z" fill="#4F4F4F"/>
<path d="M184.384 319.176C184.384 321.096 183.872 322.547 182.848 323.528C181.835 324.51 180.363 325 178.432 325H175.6V313.576H178.784C180.587 313.576 181.968 314.056 182.928 315.016C183.899 315.966 184.384 317.352 184.384 319.176ZM183.408 319.208C183.408 315.998 181.803 314.392 178.592 314.392H176.528V324.184H178.352C181.723 324.184 183.408 322.526 183.408 319.208Z" fill="#4F4F4F"/>
<path d="M189.791 316.344C190.751 316.344 191.466 316.579 191.935 317.048C192.404 317.518 192.639 318.259 192.639 319.272V325H191.951L191.791 323.56H191.743C191.434 324.04 191.055 324.43 190.607 324.728C190.17 325.016 189.556 325.16 188.767 325.16C187.946 325.16 187.3 324.958 186.831 324.552C186.362 324.136 186.127 323.544 186.127 322.776C186.127 321.923 186.474 321.278 187.167 320.84C187.86 320.392 188.868 320.142 190.191 320.088L191.743 320.008V319.416C191.743 318.584 191.572 317.992 191.231 317.64C190.9 317.288 190.41 317.112 189.759 317.112C189.322 317.112 188.9 317.171 188.495 317.288C188.09 317.406 187.684 317.56 187.279 317.752L186.991 317.016C187.396 316.824 187.834 316.664 188.303 316.536C188.783 316.408 189.279 316.344 189.791 316.344ZM190.303 320.76C189.215 320.814 188.404 321.006 187.871 321.336C187.348 321.656 187.087 322.136 187.087 322.776C187.087 323.31 187.247 323.715 187.567 323.992C187.898 324.259 188.351 324.392 188.927 324.392C189.812 324.392 190.5 324.142 190.991 323.64C191.482 323.128 191.732 322.424 191.743 321.528V320.696L190.303 320.76Z" fill="#4F4F4F"/>
<path d="M199.169 316.328C200.14 316.328 200.881 316.579 201.393 317.08C201.905 317.582 202.161 318.366 202.161 319.432V325H201.265V319.496C201.265 318.686 201.079 318.088 200.705 317.704C200.332 317.31 199.788 317.112 199.073 317.112C197.207 317.112 196.273 318.195 196.273 320.36V325H195.361V316.488H196.097L196.225 317.96H196.289C196.513 317.491 196.871 317.102 197.361 316.792C197.852 316.483 198.455 316.328 199.169 316.328Z" fill="#4F4F4F"/>
<path d="M208.012 316.328C208.674 316.328 209.223 316.462 209.66 316.728C210.108 316.984 210.466 317.336 210.732 317.784H210.796L210.924 316.488H211.66V325.272C211.66 326.392 211.372 327.267 210.796 327.896C210.22 328.526 209.287 328.84 207.996 328.84C207.356 328.84 206.786 328.787 206.284 328.68C205.794 328.584 205.351 328.446 204.956 328.264V327.384C205.351 327.587 205.81 327.747 206.332 327.864C206.855 327.992 207.42 328.056 208.028 328.056C208.956 328.056 209.644 327.811 210.092 327.32C210.54 326.83 210.764 326.163 210.764 325.32V324.824C210.764 324.6 210.764 324.376 210.764 324.152C210.775 323.918 210.786 323.699 210.796 323.496H210.748C210.258 324.606 209.308 325.16 207.9 325.16C206.802 325.16 205.943 324.787 205.324 324.04C204.706 323.294 204.396 322.216 204.396 320.808C204.396 319.432 204.706 318.344 205.324 317.544C205.943 316.734 206.839 316.328 208.012 316.328ZM208.108 317.112C207.18 317.112 206.487 317.438 206.028 318.088C205.57 318.739 205.34 319.651 205.34 320.824C205.34 321.976 205.57 322.856 206.028 323.464C206.487 324.072 207.148 324.376 208.012 324.376C208.716 324.376 209.266 324.238 209.66 323.96C210.066 323.672 210.348 323.278 210.508 322.776C210.679 322.275 210.764 321.704 210.764 321.064V320.504C210.764 319.427 210.562 318.595 210.156 318.008C209.762 317.411 209.079 317.112 208.108 317.112Z" fill="#4F4F4F"/>
<path d="M217.703 316.328C218.428 316.328 219.031 316.499 219.511 316.84C220.001 317.171 220.369 317.63 220.615 318.216C220.871 318.803 220.999 319.475 220.999 320.232V320.856H214.919C214.919 321.987 215.18 322.856 215.703 323.464C216.236 324.062 216.993 324.36 217.975 324.36C218.497 324.36 218.956 324.318 219.351 324.232C219.745 324.136 220.177 323.987 220.647 323.784V324.616C220.22 324.808 219.799 324.947 219.383 325.032C218.967 325.118 218.487 325.16 217.943 325.16C216.663 325.16 215.681 324.771 214.999 323.992C214.316 323.214 213.975 322.152 213.975 320.808C213.975 319.944 214.119 319.176 214.407 318.504C214.705 317.832 215.132 317.304 215.687 316.92C216.241 316.526 216.913 316.328 217.703 316.328ZM217.687 317.096C216.908 317.096 216.273 317.358 215.783 317.88C215.303 318.403 215.025 319.144 214.951 320.104H220.055C220.055 319.208 219.857 318.483 219.463 317.928C219.079 317.374 218.487 317.096 217.687 317.096Z" fill="#4F4F4F"/>
<path d="M226.803 316.344C227.219 316.344 227.603 316.387 227.955 316.472L227.811 317.32C227.469 317.224 227.117 317.176 226.755 317.176C225.976 317.176 225.357 317.464 224.899 318.04C224.44 318.616 224.211 319.379 224.211 320.328V325H223.299V316.488H224.067L224.163 318.072H224.211C224.424 317.592 224.749 317.187 225.187 316.856C225.624 316.515 226.163 316.344 226.803 316.344Z" fill="#4F4F4F"/>
<path d="M181.936 380.024C181.936 380.707 181.765 381.283 181.424 381.752C181.082 382.221 180.613 382.573 180.016 382.808C179.418 383.043 178.741 383.16 177.984 383.16C177.29 383.16 176.688 383.112 176.176 383.016C175.664 382.92 175.226 382.797 174.864 382.648V381.736C175.258 381.896 175.728 382.035 176.272 382.152C176.816 382.269 177.402 382.328 178.032 382.328C178.906 382.328 179.616 382.141 180.16 381.768C180.714 381.395 180.992 380.835 180.992 380.088C180.992 379.64 180.885 379.272 180.672 378.984C180.469 378.685 180.149 378.429 179.712 378.216C179.285 377.992 178.736 377.768 178.064 377.544C177.424 377.331 176.874 377.091 176.416 376.824C175.957 376.557 175.605 376.227 175.36 375.832C175.114 375.427 174.992 374.92 174.992 374.312C174.992 373.693 175.146 373.171 175.456 372.744C175.776 372.307 176.208 371.976 176.752 371.752C177.306 371.528 177.936 371.416 178.64 371.416C179.194 371.416 179.722 371.469 180.224 371.576C180.725 371.683 181.2 371.832 181.648 372.024L181.344 372.824C180.426 372.44 179.514 372.248 178.608 372.248C177.818 372.248 177.173 372.424 176.672 372.776C176.181 373.117 175.936 373.624 175.936 374.296C175.936 374.787 176.042 375.181 176.256 375.48C176.469 375.768 176.778 376.013 177.184 376.216C177.589 376.419 178.085 376.621 178.672 376.824C179.344 377.059 179.92 377.304 180.4 377.56C180.89 377.816 181.269 378.141 181.536 378.536C181.802 378.92 181.936 379.416 181.936 380.024Z" fill="#4F4F4F"/>
<path d="M190.846 374.488V383H190.11L189.966 381.544H189.918C189.683 382.013 189.321 382.403 188.83 382.712C188.35 383.011 187.747 383.16 187.022 383.16C185.027 383.16 184.03 382.125 184.03 380.056V374.488H184.942V379.976C184.942 380.797 185.123 381.405 185.486 381.8C185.859 382.184 186.409 382.376 187.134 382.376C189.001 382.376 189.934 381.293 189.934 379.128V374.488H190.846Z" fill="#4F4F4F"/>
<path d="M197.081 383.16C195.833 383.16 194.868 382.776 194.185 382.008C193.513 381.24 193.177 380.168 193.177 378.792C193.177 377.832 193.348 377.021 193.689 376.36C194.031 375.699 194.505 375.197 195.113 374.856C195.732 374.504 196.452 374.328 197.273 374.328C197.679 374.328 198.063 374.365 198.425 374.44C198.788 374.515 199.108 374.616 199.385 374.744L199.129 375.528C198.841 375.411 198.532 375.32 198.201 375.256C197.871 375.181 197.556 375.144 197.257 375.144C196.244 375.144 195.465 375.469 194.921 376.12C194.388 376.771 194.121 377.656 194.121 378.776C194.121 379.843 194.361 380.707 194.841 381.368C195.321 382.019 196.068 382.344 197.081 382.344C197.497 382.344 197.892 382.301 198.265 382.216C198.639 382.131 198.975 382.024 199.273 381.896V382.712C198.996 382.851 198.676 382.957 198.313 383.032C197.961 383.117 197.551 383.16 197.081 383.16Z" fill="#4F4F4F"/>
<path d="M204.691 383.16C203.443 383.16 202.477 382.776 201.795 382.008C201.123 381.24 200.787 380.168 200.787 378.792C200.787 377.832 200.957 377.021 201.299 376.36C201.64 375.699 202.115 375.197 202.723 374.856C203.341 374.504 204.061 374.328 204.883 374.328C205.288 374.328 205.672 374.365 206.035 374.44C206.397 374.515 206.717 374.616 206.995 374.744L206.739 375.528C206.451 375.411 206.141 375.32 205.811 375.256C205.48 375.181 205.165 375.144 204.867 375.144C203.853 375.144 203.075 375.469 202.531 376.12C201.997 376.771 201.731 377.656 201.731 378.776C201.731 379.843 201.971 380.707 202.451 381.368C202.931 382.019 203.677 382.344 204.691 382.344C205.107 382.344 205.501 382.301 205.875 382.216C206.248 382.131 206.584 382.024 206.883 381.896V382.712C206.605 382.851 206.285 382.957 205.923 383.032C205.571 383.117 205.16 383.16 204.691 383.16Z" fill="#4F4F4F"/>
<path d="M212.124 374.328C212.849 374.328 213.452 374.499 213.932 374.84C214.423 375.171 214.791 375.629 215.036 376.216C215.292 376.803 215.42 377.475 215.42 378.232V378.856H209.34C209.34 379.987 209.601 380.856 210.124 381.464C210.657 382.061 211.415 382.36 212.396 382.36C212.919 382.36 213.377 382.317 213.772 382.232C214.167 382.136 214.599 381.987 215.068 381.784V382.616C214.641 382.808 214.22 382.947 213.804 383.032C213.388 383.117 212.908 383.16 212.364 383.16C211.084 383.16 210.103 382.771 209.42 381.992C208.737 381.213 208.396 380.152 208.396 378.808C208.396 377.944 208.54 377.176 208.828 376.504C209.127 375.832 209.553 375.304 210.108 374.92C210.663 374.525 211.335 374.328 212.124 374.328ZM212.108 375.096C211.329 375.096 210.695 375.357 210.204 375.88C209.724 376.403 209.447 377.144 209.372 378.104H214.476C214.476 377.208 214.279 376.483 213.884 375.928C213.5 375.373 212.908 375.096 212.108 375.096Z" fill="#4F4F4F"/>
<path d="M223.08 380.744C223.08 381.512 222.792 382.109 222.216 382.536C221.64 382.952 220.83 383.16 219.784 383.16C219.187 383.16 218.659 383.107 218.2 383C217.742 382.904 217.358 382.776 217.048 382.616V381.736C217.422 381.928 217.848 382.088 218.328 382.216C218.808 382.333 219.299 382.392 219.8 382.392C220.632 382.392 221.235 382.253 221.608 381.976C221.992 381.688 222.184 381.299 222.184 380.808C222.184 380.339 221.987 379.981 221.592 379.736C221.198 379.48 220.616 379.219 219.848 378.952C219.315 378.771 218.846 378.589 218.44 378.408C218.046 378.216 217.736 377.976 217.512 377.688C217.288 377.4 217.176 377.005 217.176 376.504C217.176 375.821 217.454 375.288 218.008 374.904C218.563 374.52 219.304 374.328 220.232 374.328C220.744 374.328 221.219 374.376 221.656 374.472C222.104 374.568 222.515 374.696 222.888 374.856L222.552 375.608C222.222 375.469 221.848 375.352 221.432 375.256C221.016 375.149 220.6 375.096 220.184 375.096C219.512 375.096 218.99 375.213 218.616 375.448C218.243 375.683 218.056 376.024 218.056 376.472C218.056 376.813 218.147 377.085 218.328 377.288C218.51 377.48 218.771 377.645 219.112 377.784C219.454 377.923 219.87 378.077 220.36 378.248C220.872 378.429 221.331 378.616 221.736 378.808C222.142 379 222.467 379.245 222.712 379.544C222.958 379.843 223.08 380.243 223.08 380.744Z" fill="#4F4F4F"/>
<path d="M230.58 380.744C230.58 381.512 230.292 382.109 229.716 382.536C229.14 382.952 228.33 383.16 227.284 383.16C226.687 383.16 226.159 383.107 225.7 383C225.242 382.904 224.858 382.776 224.548 382.616V381.736C224.922 381.928 225.348 382.088 225.828 382.216C226.308 382.333 226.799 382.392 227.3 382.392C228.132 382.392 228.735 382.253 229.108 381.976C229.492 381.688 229.684 381.299 229.684 380.808C229.684 380.339 229.487 379.981 229.092 379.736C228.698 379.48 228.116 379.219 227.348 378.952C226.815 378.771 226.346 378.589 225.94 378.408C225.546 378.216 225.236 377.976 225.012 377.688C224.788 377.4 224.676 377.005 224.676 376.504C224.676 375.821 224.954 375.288 225.508 374.904C226.063 374.52 226.804 374.328 227.732 374.328C228.244 374.328 228.719 374.376 229.156 374.472C229.604 374.568 230.015 374.696 230.388 374.856L230.052 375.608C229.722 375.469 229.348 375.352 228.932 375.256C228.516 375.149 228.1 375.096 227.684 375.096C227.012 375.096 226.49 375.213 226.116 375.448C225.743 375.683 225.556 376.024 225.556 376.472C225.556 376.813 225.647 377.085 225.828 377.288C226.01 377.48 226.271 377.645 226.612 377.784C226.954 377.923 227.37 378.077 227.86 378.248C228.372 378.429 228.831 378.616 229.236 378.808C229.642 379 229.967 379.245 230.212 379.544C230.458 379.843 230.58 380.243 230.58 380.744Z" fill="#4F4F4F"/>
<path d="M178.176 441H174.816V440.424L176.032 440.248V430.344L174.816 430.152V429.576H178.176V430.152L176.96 430.344V440.248L178.176 440.424V441Z" fill="#4F4F4F"/>
<path d="M184.185 432.328C185.155 432.328 185.897 432.578 186.409 433.08C186.921 433.581 187.177 434.365 187.177 435.432V441H186.281V435.496C186.281 434.685 186.094 434.088 185.721 433.704C185.347 433.309 184.803 433.112 184.089 433.112C182.222 433.112 181.289 434.194 181.289 436.36V441H180.377V432.488H181.113L181.241 433.96H181.305C181.529 433.49 181.886 433.101 182.377 432.792C182.867 432.482 183.47 432.328 184.185 432.328Z" fill="#4F4F4F"/>
<path d="M193.22 433.224H191.188V441H190.276V433.224H188.708V432.728L190.276 432.456V431.608C190.276 429.709 191.124 428.76 192.82 428.76C193.119 428.76 193.391 428.786 193.636 428.84C193.881 428.882 194.105 428.936 194.308 429L194.1 429.752C193.908 429.688 193.7 429.634 193.476 429.592C193.263 429.549 193.049 429.528 192.836 429.528C192.26 429.528 191.839 429.693 191.572 430.024C191.316 430.354 191.188 430.882 191.188 431.608V432.488H193.22V433.224Z" fill="#4F4F4F"/>
<path d="M201.965 436.728C201.965 437.624 201.816 438.402 201.517 439.064C201.229 439.725 200.797 440.242 200.221 440.616C199.656 440.978 198.963 441.16 198.141 441.16C197.352 441.16 196.675 440.978 196.109 440.616C195.544 440.253 195.107 439.741 194.797 439.08C194.499 438.408 194.349 437.624 194.349 436.728C194.349 435.352 194.691 434.274 195.373 433.496C196.056 432.717 197 432.328 198.205 432.328C199.016 432.328 199.699 432.514 200.253 432.888C200.819 433.25 201.245 433.762 201.533 434.424C201.821 435.085 201.965 435.853 201.965 436.728ZM195.293 436.728C195.293 437.826 195.523 438.712 195.981 439.384C196.451 440.045 197.176 440.376 198.157 440.376C199.149 440.376 199.875 440.04 200.333 439.368C200.792 438.696 201.021 437.816 201.021 436.728C201.021 436.024 200.925 435.4 200.733 434.856C200.541 434.312 200.237 433.885 199.821 433.576C199.405 433.266 198.861 433.112 198.189 433.112C197.229 433.112 196.504 433.432 196.013 434.072C195.533 434.712 195.293 435.597 195.293 436.728Z" fill="#4F4F4F"/>
</svg>
