<svg width="565" height="640" viewBox="0 0 565 640" fill="none" xmlns="http://www.w3.org/2000/svg">
<path d="M0 56H132V188H0V56Z" fill="#1AF772"/>
<path d="M132 56H264V188H132V56Z" fill="#2192FB"/>
<path fill-rule="evenodd" clip-rule="evenodd" d="M49.5 21.5H214.5V44H213.5V22.5H50.5V40.5778H49.5V21.5Z" fill="#6B6B6B"/>
<path d="M115.6 12.0002V0.576172H116.528V11.1522H121.888V12.0002H115.6Z" fill="#585858"/>
<path d="M130.762 7.72817C130.762 8.62417 130.613 9.40284 130.314 10.0642C130.026 10.7255 129.594 11.2428 129.018 11.6162C128.453 11.9788 127.76 12.1602 126.938 12.1602C126.149 12.1602 125.472 11.9788 124.906 11.6162C124.341 11.2535 123.904 10.7415 123.594 10.0802C123.296 9.40817 123.146 8.62417 123.146 7.72817C123.146 6.35217 123.488 5.27484 124.17 4.49617C124.853 3.71751 125.797 3.32817 127.002 3.32817C127.813 3.32817 128.496 3.51484 129.05 3.88817C129.616 4.25084 130.042 4.76284 130.33 5.42417C130.618 6.08551 130.762 6.85351 130.762 7.72817ZM124.09 7.72817C124.09 8.82684 124.32 9.71217 124.778 10.3842C125.248 11.0455 125.973 11.3762 126.954 11.3762C127.946 11.3762 128.672 11.0402 129.13 10.3682C129.589 9.69617 129.818 8.81617 129.818 7.72817C129.818 7.02417 129.722 6.40017 129.53 5.85617C129.338 5.31217 129.034 4.88551 128.618 4.57617C128.202 4.26684 127.658 4.11217 126.986 4.11217C126.026 4.11217 125.301 4.43217 124.81 5.07217C124.33 5.71217 124.09 6.59751 124.09 7.72817Z" fill="#585858"/>
<path d="M136.2 3.32817C136.861 3.32817 137.411 3.46151 137.848 3.72817C138.296 3.98417 138.653 4.33617 138.92 4.78417H138.984L139.112 3.48817H139.848V12.2722C139.848 13.3922 139.56 14.2668 138.984 14.8962C138.408 15.5255 137.475 15.8402 136.184 15.8402C135.544 15.8402 134.973 15.7868 134.472 15.6802C133.981 15.5842 133.539 15.4455 133.144 15.2642V14.3842C133.539 14.5868 133.997 14.7468 134.52 14.8642C135.043 14.9922 135.608 15.0562 136.216 15.0562C137.144 15.0562 137.832 14.8108 138.28 14.3202C138.728 13.8295 138.952 13.1628 138.952 12.3202V11.8242C138.952 11.6002 138.952 11.3762 138.952 11.1522C138.963 10.9175 138.973 10.6988 138.984 10.4962H138.936C138.445 11.6055 137.496 12.1602 136.088 12.1602C134.989 12.1602 134.131 11.7868 133.512 11.0402C132.893 10.2935 132.584 9.21617 132.584 7.80817C132.584 6.43217 132.893 5.34417 133.512 4.54417C134.131 3.73351 135.027 3.32817 136.2 3.32817ZM136.296 4.11217C135.368 4.11217 134.675 4.43751 134.216 5.08817C133.757 5.73884 133.528 6.65084 133.528 7.82417C133.528 8.97617 133.757 9.85617 134.216 10.4642C134.675 11.0722 135.336 11.3762 136.2 11.3762C136.904 11.3762 137.453 11.2375 137.848 10.9602C138.253 10.6722 138.536 10.2775 138.696 9.77617C138.867 9.27484 138.952 8.70417 138.952 8.06417V7.50417C138.952 6.42684 138.749 5.59484 138.344 5.00817C137.949 4.41084 137.267 4.11217 136.296 4.11217Z" fill="#585858"/>
<path d="M149.778 7.72817C149.778 8.62417 149.629 9.40284 149.33 10.0642C149.042 10.7255 148.61 11.2428 148.034 11.6162C147.469 11.9788 146.775 12.1602 145.954 12.1602C145.165 12.1602 144.487 11.9788 143.922 11.6162C143.357 11.2535 142.919 10.7415 142.61 10.0802C142.311 9.40817 142.162 8.62417 142.162 7.72817C142.162 6.35217 142.503 5.27484 143.186 4.49617C143.869 3.71751 144.813 3.32817 146.018 3.32817C146.829 3.32817 147.511 3.51484 148.066 3.88817C148.631 4.25084 149.058 4.76284 149.346 5.42417C149.634 6.08551 149.778 6.85351 149.778 7.72817ZM143.106 7.72817C143.106 8.82684 143.335 9.71217 143.794 10.3842C144.263 11.0455 144.989 11.3762 145.97 11.3762C146.962 11.3762 147.687 11.0402 148.146 10.3682C148.605 9.69617 148.834 8.81617 148.834 7.72817C148.834 7.02417 148.738 6.40017 148.546 5.85617C148.354 5.31217 148.05 4.88551 147.634 4.57617C147.218 4.26684 146.674 4.11217 146.002 4.11217C145.042 4.11217 144.317 4.43217 143.826 5.07217C143.346 5.71217 143.106 6.59751 143.106 7.72817Z" fill="#585858"/>
<path d="M427 56H559V188H427V56Z" fill="#2F29A6"/>
<path d="M295 56H427V188H295V56Z" fill="#75DE6D"/>
<path fill-rule="evenodd" clip-rule="evenodd" d="M344.5 21.5H509.5V44H508.5V22.5H345.5V40.5778H344.5V21.5Z" fill="#6B6B6B"/>
<path d="M403.768 0.576172C405.176 0.576172 406.216 0.800172 406.888 1.24817C407.56 1.68551 407.896 2.38951 407.896 3.36017C407.896 4.02151 407.704 4.58684 407.32 5.05617C406.947 5.52551 406.397 5.82417 405.672 5.95217V6.00017C406.504 6.13884 407.139 6.43217 407.576 6.88017C408.013 7.32817 408.232 7.95217 408.232 8.75217C408.232 9.48817 408.061 10.0962 407.72 10.5762C407.379 11.0562 406.904 11.4135 406.296 11.6482C405.699 11.8828 405.005 12.0002 404.216 12.0002H400.6V0.576172H403.768ZM403.976 5.61617C405.032 5.61617 405.789 5.43484 406.248 5.07217C406.707 4.70951 406.936 4.17084 406.936 3.45617C406.936 2.72017 406.685 2.19217 406.184 1.87217C405.683 1.55217 404.877 1.39217 403.768 1.39217H401.528V5.61617H403.976ZM401.528 6.41617V11.1842H404.136C405.181 11.1842 405.96 10.9762 406.472 10.5602C406.984 10.1335 407.24 9.51484 407.24 8.70417C407.24 7.91484 406.973 7.33884 406.44 6.97617C405.907 6.60284 405.091 6.41617 403.992 6.41617H401.528Z" fill="#585858"/>
<path d="M417.221 3.48817V12.0002H416.485L416.341 10.5442H416.293C416.059 11.0135 415.696 11.4028 415.205 11.7122C414.725 12.0108 414.123 12.1602 413.397 12.1602C411.403 12.1602 410.405 11.1255 410.405 9.05617V3.48817H411.317V8.97617C411.317 9.79751 411.499 10.4055 411.861 10.8002C412.235 11.1842 412.784 11.3762 413.509 11.3762C415.376 11.3762 416.309 10.2935 416.309 8.12817V3.48817H417.221Z" fill="#585858"/>
<path d="M422.449 11.3762C422.683 11.3762 422.907 11.3602 423.121 11.3282C423.334 11.2962 423.521 11.2482 423.681 11.1842V11.9202C423.521 11.9842 423.323 12.0375 423.089 12.0802C422.854 12.1335 422.603 12.1602 422.337 12.1602C421.622 12.1602 421.073 11.9628 420.689 11.5682C420.305 11.1735 420.113 10.5282 420.113 9.63217V4.22417H418.849V3.71217L420.113 3.40817L420.433 1.45617H421.025V3.48817H423.633V4.22417H421.025V9.58417C421.025 10.7788 421.499 11.3762 422.449 11.3762Z" fill="#585858"/>
<path d="M427.886 11.3762C428.121 11.3762 428.345 11.3602 428.558 11.3282C428.772 11.2962 428.958 11.2482 429.118 11.1842V11.9202C428.958 11.9842 428.761 12.0375 428.526 12.0802C428.292 12.1335 428.041 12.1602 427.774 12.1602C427.06 12.1602 426.51 11.9628 426.126 11.5682C425.742 11.1735 425.55 10.5282 425.55 9.63217V4.22417H424.286V3.71217L425.55 3.40817L425.87 1.45617H426.462V3.48817H429.07V4.22417H426.462V9.58417C426.462 10.7788 426.937 11.3762 427.886 11.3762Z" fill="#585858"/>
<path d="M438.044 7.72817C438.044 8.62417 437.894 9.40284 437.596 10.0642C437.308 10.7255 436.876 11.2428 436.3 11.6162C435.734 11.9788 435.041 12.1602 434.22 12.1602C433.43 12.1602 432.753 11.9788 432.188 11.6162C431.622 11.2535 431.185 10.7415 430.876 10.0802C430.577 9.40817 430.428 8.62417 430.428 7.72817C430.428 6.35217 430.769 5.27484 431.452 4.49617C432.134 3.71751 433.078 3.32817 434.284 3.32817C435.094 3.32817 435.777 3.51484 436.332 3.88817C436.897 4.25084 437.324 4.76284 437.612 5.42417C437.9 6.08551 438.044 6.85351 438.044 7.72817ZM431.372 7.72817C431.372 8.82684 431.601 9.71217 432.06 10.3842C432.529 11.0455 433.254 11.3762 434.236 11.3762C435.228 11.3762 435.953 11.0402 436.412 10.3682C436.87 9.69617 437.1 8.81617 437.1 7.72817C437.1 7.02417 437.004 6.40017 436.812 5.85617C436.62 5.31217 436.316 4.88551 435.9 4.57617C435.484 4.26684 434.94 4.11217 434.268 4.11217C433.308 4.11217 432.582 4.43217 432.092 5.07217C431.612 5.71217 431.372 6.59751 431.372 7.72817Z" fill="#585858"/>
<path d="M444.169 3.32817C445.14 3.32817 445.881 3.57884 446.393 4.08017C446.905 4.58151 447.161 5.36551 447.161 6.43217V12.0002H446.265V6.49617C446.265 5.68551 446.079 5.08817 445.705 4.70417C445.332 4.30951 444.788 4.11217 444.073 4.11217C442.207 4.11217 441.273 5.19484 441.273 7.36017V12.0002H440.361V3.48817H441.097L441.225 4.96017H441.289C441.513 4.49084 441.871 4.10151 442.361 3.79217C442.852 3.48284 443.455 3.32817 444.169 3.32817Z" fill="#585858"/>
<path d="M455.252 9.74417C455.252 10.5122 454.964 11.1095 454.388 11.5362C453.812 11.9522 453.002 12.1602 451.956 12.1602C451.359 12.1602 450.831 12.1068 450.372 12.0002C449.914 11.9042 449.53 11.7762 449.22 11.6162V10.7362C449.594 10.9282 450.02 11.0882 450.5 11.2162C450.98 11.3335 451.471 11.3922 451.972 11.3922C452.804 11.3922 453.407 11.2535 453.78 10.9762C454.164 10.6882 454.356 10.2988 454.356 9.80817C454.356 9.33884 454.159 8.98151 453.764 8.73617C453.37 8.48017 452.788 8.21884 452.02 7.95217C451.487 7.77084 451.018 7.58951 450.612 7.40817C450.218 7.21617 449.908 6.97617 449.684 6.68817C449.46 6.40017 449.348 6.00551 449.348 5.50417C449.348 4.82151 449.626 4.28817 450.18 3.90417C450.735 3.52017 451.476 3.32817 452.404 3.32817C452.916 3.32817 453.391 3.37617 453.828 3.47217C454.276 3.56817 454.687 3.69617 455.06 3.85617L454.724 4.60817C454.394 4.46951 454.02 4.35217 453.604 4.25617C453.188 4.14951 452.772 4.09617 452.356 4.09617C451.684 4.09617 451.162 4.21351 450.788 4.44817C450.415 4.68284 450.228 5.02417 450.228 5.47217C450.228 5.81351 450.319 6.08551 450.5 6.28817C450.682 6.48017 450.943 6.64551 451.284 6.78417C451.626 6.92284 452.042 7.07751 452.532 7.24817C453.044 7.42951 453.503 7.61617 453.908 7.80817C454.314 8.00017 454.639 8.24551 454.884 8.54417C455.13 8.84284 455.252 9.24284 455.252 9.74417Z" fill="#585858"/>
<path d="M340 240H385V282H340V240Z" fill="#040058"/>
<path d="M385 326H430V368H385V326Z" fill="#7B6B2E"/>
<path d="M295 540H340V582H295V540Z" fill="#2A9259"/>
<path d="M295 598H340V640H295V598Z" fill="#6C29C1"/>
<path d="M340 540H385V582H340V540Z" fill="#D4E9DE"/>
<path d="M340 598H385V640H340V598Z" fill="#D5D4ED"/>
<path d="M385 240H430V282H385V240Z" fill="#F7FAFA"/>
<path d="M475 326H520V368H475V326Z" fill="#F0D05A"/>
<path d="M430 240H475V282H430V240Z" fill="#EDEDF3"/>
<path d="M295 326H340V368H295V326Z" fill="#0F1C3A"/>
<path d="M295 424H340V466H295V424Z" fill="#FFC107"/>
<path d="M340 424H385V466H340V424Z" fill="#FFF3CD"/>
<path d="M475 240H520V282H475V240Z" fill="#E0DFF2"/>
<path d="M520 326H565V368H520V326Z" fill="#E7D9C2"/>
<path d="M520 240H565V282H520V240Z" fill="#F5F5F5"/>
<path d="M430 326H475V368H430V326Z" fill="#39763A"/>
<path d="M295 240H340V282H295V240Z" fill="#16161D"/>
<path d="M340 326H385V368H340V326Z" fill="#93B5C6"/>
<path d="M295 482H340V524H295V482Z" fill="#DC3545"/>
<path d="M340 482H385V524H340V482Z" fill="#F8D7DA"/>
<path d="M299.704 230H298.776V219.408H295.096V218.576H303.384V219.408H299.704V230Z" fill="#4F4F4F"/>
<path d="M307.015 221.328C307.741 221.328 308.343 221.499 308.823 221.84C309.314 222.171 309.682 222.629 309.927 223.216C310.183 223.803 310.311 224.475 310.311 225.232V225.856H304.231C304.231 226.987 304.493 227.856 305.015 228.464C305.549 229.061 306.306 229.36 307.287 229.36C307.81 229.36 308.269 229.317 308.663 229.232C309.058 229.136 309.49 228.987 309.959 228.784V229.616C309.533 229.808 309.111 229.947 308.695 230.032C308.279 230.117 307.799 230.16 307.255 230.16C305.975 230.16 304.994 229.771 304.311 228.992C303.629 228.213 303.287 227.152 303.287 225.808C303.287 224.944 303.431 224.176 303.719 223.504C304.018 222.832 304.445 222.304 304.999 221.92C305.554 221.525 306.226 221.328 307.015 221.328ZM306.999 222.096C306.221 222.096 305.586 222.357 305.095 222.88C304.615 223.403 304.338 224.144 304.263 225.104H309.367C309.367 224.208 309.17 223.483 308.775 222.928C308.391 222.373 307.799 222.096 306.999 222.096Z" fill="#4F4F4F"/>
<path d="M314.347 225.632L311.387 221.488H312.443L314.907 225.008L317.355 221.488H318.395L315.451 225.632L318.571 230H317.515L314.907 226.256L312.283 230H311.243L314.347 225.632Z" fill="#4F4F4F"/>
<path d="M322.761 229.376C322.996 229.376 323.22 229.36 323.433 229.328C323.647 229.296 323.833 229.248 323.993 229.184V229.92C323.833 229.984 323.636 230.037 323.401 230.08C323.167 230.133 322.916 230.16 322.649 230.16C321.935 230.16 321.385 229.963 321.001 229.568C320.617 229.173 320.425 228.528 320.425 227.632V222.224H319.161V221.712L320.425 221.408L320.745 219.456H321.337V221.488H323.945V222.224H321.337V227.584C321.337 228.779 321.812 229.376 322.761 229.376Z" fill="#4F4F4F"/>
<path d="M329.767 218.576L325.495 230H324.583L328.855 218.576H329.767Z" fill="#4F4F4F"/>
<path d="M332.242 221.2C332.242 221.509 332.236 221.84 332.226 222.192C332.215 222.533 332.204 222.811 332.194 223.024H332.242C332.455 222.544 332.807 222.144 333.298 221.824C333.788 221.493 334.402 221.328 335.138 221.328C336.226 221.328 337.074 221.701 337.682 222.448C338.3 223.184 338.61 224.277 338.61 225.728C338.61 227.072 338.3 228.149 337.682 228.96C337.074 229.76 336.183 230.16 335.01 230.16C334.295 230.16 333.708 230.016 333.25 229.728C332.802 229.429 332.471 229.061 332.258 228.624H332.194L332.018 230H331.33V217.84H332.242V221.2ZM335.026 222.112C334.034 222.112 333.319 222.421 332.882 223.04C332.455 223.659 332.242 224.555 332.242 225.728V225.84C332.242 226.992 332.444 227.872 332.85 228.48C333.266 229.077 333.954 229.376 334.914 229.376C335.82 229.376 336.503 229.061 336.962 228.432C337.431 227.792 337.666 226.885 337.666 225.712C337.666 223.312 336.786 222.112 335.026 222.112Z" fill="#4F4F4F"/>
<path d="M343.932 221.344C344.892 221.344 345.606 221.579 346.076 222.048C346.545 222.517 346.78 223.259 346.78 224.272V230H346.092L345.932 228.56H345.884C345.574 229.04 345.196 229.429 344.748 229.728C344.31 230.016 343.697 230.16 342.908 230.16C342.086 230.16 341.441 229.957 340.972 229.552C340.502 229.136 340.268 228.544 340.268 227.776C340.268 226.923 340.614 226.277 341.308 225.84C342.001 225.392 343.009 225.141 344.332 225.088L345.884 225.008V224.416C345.884 223.584 345.713 222.992 345.372 222.64C345.041 222.288 344.55 222.112 343.9 222.112C343.462 222.112 343.041 222.171 342.636 222.288C342.23 222.405 341.825 222.56 341.42 222.752L341.132 222.016C341.537 221.824 341.974 221.664 342.444 221.536C342.924 221.408 343.42 221.344 343.932 221.344ZM344.444 225.76C343.356 225.813 342.545 226.005 342.012 226.336C341.489 226.656 341.228 227.136 341.228 227.776C341.228 228.309 341.388 228.715 341.708 228.992C342.038 229.259 342.492 229.392 343.068 229.392C343.953 229.392 344.641 229.141 345.132 228.64C345.622 228.128 345.873 227.424 345.884 226.528V225.696L344.444 225.76Z" fill="#4F4F4F"/>
<path d="M352.91 230.16C351.662 230.16 350.697 229.776 350.014 229.008C349.342 228.24 349.006 227.168 349.006 225.792C349.006 224.832 349.177 224.021 349.518 223.36C349.859 222.699 350.334 222.197 350.942 221.856C351.561 221.504 352.281 221.328 353.102 221.328C353.507 221.328 353.891 221.365 354.254 221.44C354.617 221.515 354.937 221.616 355.214 221.744L354.958 222.528C354.67 222.411 354.361 222.32 354.03 222.256C353.699 222.181 353.385 222.144 353.086 222.144C352.073 222.144 351.294 222.469 350.75 223.12C350.217 223.771 349.95 224.656 349.95 225.776C349.95 226.843 350.19 227.707 350.67 228.368C351.15 229.019 351.897 229.344 352.91 229.344C353.326 229.344 353.721 229.301 354.094 229.216C354.467 229.131 354.803 229.024 355.102 228.896V229.712C354.825 229.851 354.505 229.957 354.142 230.032C353.79 230.117 353.379 230.16 352.91 230.16Z" fill="#4F4F4F"/>
<path d="M358.007 224.016C358.007 224.357 358.002 224.715 357.991 225.088C357.981 225.451 357.975 225.808 357.975 226.16H357.991C358.13 226 358.285 225.813 358.455 225.6C358.637 225.387 358.807 225.189 358.967 225.008L362.199 221.488H363.303L359.927 225.136L363.575 230H362.487L359.303 225.728L358.007 227.04V230H357.111V217.84H358.007V224.016Z" fill="#4F4F4F"/>
<path d="M368.138 221.328C368.799 221.328 369.348 221.461 369.786 221.728C370.234 221.984 370.591 222.336 370.858 222.784H370.922L371.05 221.488H371.786V230.272C371.786 231.392 371.498 232.267 370.922 232.896C370.346 233.525 369.412 233.84 368.122 233.84C367.482 233.84 366.911 233.787 366.41 233.68C365.919 233.584 365.476 233.445 365.082 233.264V232.384C365.476 232.587 365.935 232.747 366.458 232.864C366.98 232.992 367.546 233.056 368.154 233.056C369.082 233.056 369.77 232.811 370.218 232.32C370.666 231.829 370.89 231.163 370.89 230.32V229.824C370.89 229.6 370.89 229.376 370.89 229.152C370.9 228.917 370.911 228.699 370.922 228.496H370.874C370.383 229.605 369.434 230.16 368.026 230.16C366.927 230.16 366.068 229.787 365.45 229.04C364.831 228.293 364.522 227.216 364.522 225.808C364.522 224.432 364.831 223.344 365.45 222.544C366.068 221.733 366.964 221.328 368.138 221.328ZM368.234 222.112C367.306 222.112 366.612 222.437 366.154 223.088C365.695 223.739 365.466 224.651 365.466 225.824C365.466 226.976 365.695 227.856 366.154 228.464C366.612 229.072 367.274 229.376 368.138 229.376C368.842 229.376 369.391 229.237 369.786 228.96C370.191 228.672 370.474 228.277 370.634 227.776C370.804 227.275 370.89 226.704 370.89 226.064V225.504C370.89 224.427 370.687 223.595 370.282 223.008C369.887 222.411 369.204 222.112 368.234 222.112Z" fill="#4F4F4F"/>
<path d="M378.1 221.344C378.516 221.344 378.9 221.387 379.252 221.472L379.108 222.32C378.766 222.224 378.414 222.176 378.052 222.176C377.273 222.176 376.654 222.464 376.196 223.04C375.737 223.616 375.508 224.379 375.508 225.328V230H374.596V221.488H375.364L375.46 223.072H375.508C375.721 222.592 376.046 222.187 376.484 221.856C376.921 221.515 377.46 221.344 378.1 221.344Z" fill="#4F4F4F"/>
<path d="M387.7 225.728C387.7 226.624 387.551 227.403 387.252 228.064C386.964 228.725 386.532 229.243 385.956 229.616C385.391 229.979 384.697 230.16 383.876 230.16C383.087 230.16 382.409 229.979 381.844 229.616C381.279 229.253 380.841 228.741 380.532 228.08C380.233 227.408 380.084 226.624 380.084 225.728C380.084 224.352 380.425 223.275 381.108 222.496C381.791 221.717 382.735 221.328 383.94 221.328C384.751 221.328 385.433 221.515 385.988 221.888C386.553 222.251 386.98 222.763 387.268 223.424C387.556 224.085 387.7 224.853 387.7 225.728ZM381.028 225.728C381.028 226.827 381.257 227.712 381.716 228.384C382.185 229.045 382.911 229.376 383.892 229.376C384.884 229.376 385.609 229.04 386.068 228.368C386.527 227.696 386.756 226.816 386.756 225.728C386.756 225.024 386.66 224.4 386.468 223.856C386.276 223.312 385.972 222.885 385.556 222.576C385.14 222.267 384.596 222.112 383.924 222.112C382.964 222.112 382.239 222.432 381.748 223.072C381.268 223.712 381.028 224.597 381.028 225.728Z" fill="#4F4F4F"/>
<path d="M396.722 221.488V230H395.986L395.842 228.544H395.794C395.559 229.013 395.196 229.403 394.706 229.712C394.226 230.011 393.623 230.16 392.898 230.16C390.903 230.16 389.906 229.125 389.906 227.056V221.488H390.818V226.976C390.818 227.797 390.999 228.405 391.362 228.8C391.735 229.184 392.284 229.376 393.01 229.376C394.876 229.376 395.81 228.293 395.81 226.128V221.488H396.722Z" fill="#4F4F4F"/>
<path d="M403.357 221.328C404.327 221.328 405.069 221.579 405.581 222.08C406.093 222.581 406.349 223.365 406.349 224.432V230H405.453V224.496C405.453 223.685 405.266 223.088 404.893 222.704C404.519 222.309 403.975 222.112 403.261 222.112C401.394 222.112 400.461 223.195 400.461 225.36V230H399.549V221.488H400.285L400.413 222.96H400.477C400.701 222.491 401.058 222.101 401.549 221.792C402.039 221.483 402.642 221.328 403.357 221.328Z" fill="#4F4F4F"/>
<path d="M412.136 230.16C410.995 230.16 410.115 229.797 409.496 229.072C408.888 228.336 408.584 227.253 408.584 225.824C408.584 224.363 408.904 223.248 409.544 222.48C410.184 221.712 411.075 221.328 412.216 221.328C412.931 221.328 413.507 221.488 413.944 221.808C414.392 222.117 414.728 222.496 414.952 222.944H415.016C415.005 222.699 414.989 222.427 414.968 222.128C414.957 221.819 414.952 221.536 414.952 221.28V217.84H415.864V230H415.128L415 228.512H414.952C414.728 228.971 414.392 229.36 413.944 229.68C413.496 230 412.893 230.16 412.136 230.16ZM412.248 229.376C413.229 229.376 413.928 229.077 414.344 228.48C414.76 227.883 414.968 227.019 414.968 225.888V225.744C414.968 224.571 414.76 223.675 414.344 223.056C413.939 222.427 413.261 222.112 412.312 222.112C411.395 222.112 410.701 222.437 410.232 223.088C409.763 223.728 409.528 224.645 409.528 225.84C409.528 226.992 409.752 227.872 410.2 228.48C410.648 229.077 411.331 229.376 412.248 229.376Z" fill="#4F4F4F"/>
<path d="M299.448 304.576C302.189 304.576 303.56 305.653 303.56 307.808C303.56 308.907 303.203 309.771 302.488 310.4C301.784 311.019 300.691 311.328 299.208 311.328H297.528V316H296.6V304.576H299.448ZM299.352 305.392H297.528V310.512H299.112C300.211 310.512 301.064 310.32 301.672 309.936C302.291 309.552 302.6 308.859 302.6 307.856C302.6 307.003 302.333 306.379 301.8 305.984C301.277 305.589 300.461 305.392 299.352 305.392Z" fill="#4F4F4F"/>
<path d="M306.742 307.728C306.742 307.952 306.737 308.165 306.726 308.368C306.715 308.571 306.699 308.768 306.678 308.96H306.742C306.966 308.491 307.318 308.101 307.798 307.792C308.289 307.483 308.897 307.328 309.622 307.328C310.603 307.328 311.35 307.579 311.862 308.08C312.374 308.581 312.63 309.365 312.63 310.432V316H311.734V310.496C311.734 309.685 311.547 309.088 311.174 308.704C310.801 308.309 310.257 308.112 309.542 308.112C307.675 308.112 306.742 309.195 306.742 311.36V316H305.83V303.84H306.742V307.728Z" fill="#4F4F4F"/>
<path d="M322.481 311.728C322.481 312.624 322.332 313.403 322.033 314.064C321.745 314.725 321.313 315.243 320.737 315.616C320.172 315.979 319.479 316.16 318.657 316.16C317.868 316.16 317.191 315.979 316.625 315.616C316.06 315.253 315.623 314.741 315.313 314.08C315.015 313.408 314.865 312.624 314.865 311.728C314.865 310.352 315.207 309.275 315.889 308.496C316.572 307.717 317.516 307.328 318.721 307.328C319.532 307.328 320.215 307.515 320.769 307.888C321.335 308.251 321.761 308.763 322.049 309.424C322.337 310.085 322.481 310.853 322.481 311.728ZM315.809 311.728C315.809 312.827 316.039 313.712 316.497 314.384C316.967 315.045 317.692 315.376 318.673 315.376C319.665 315.376 320.391 315.04 320.849 314.368C321.308 313.696 321.537 312.816 321.537 311.728C321.537 311.024 321.441 310.4 321.249 309.856C321.057 309.312 320.753 308.885 320.337 308.576C319.921 308.267 319.377 308.112 318.705 308.112C317.745 308.112 317.02 308.432 316.529 309.072C316.049 309.712 315.809 310.597 315.809 311.728Z" fill="#4F4F4F"/>
<path d="M327.199 315.376C327.433 315.376 327.657 315.36 327.871 315.328C328.084 315.296 328.271 315.248 328.431 315.184V315.92C328.271 315.984 328.073 316.037 327.839 316.08C327.604 316.133 327.353 316.16 327.087 316.16C326.372 316.16 325.823 315.963 325.439 315.568C325.055 315.173 324.863 314.528 324.863 313.632V308.224H323.599V307.712L324.863 307.408L325.183 305.456H325.775V307.488H328.383V308.224H325.775V313.584C325.775 314.779 326.249 315.376 327.199 315.376Z" fill="#4F4F4F"/>
<path d="M337.356 311.728C337.356 312.624 337.207 313.403 336.908 314.064C336.62 314.725 336.188 315.243 335.612 315.616C335.047 315.979 334.354 316.16 333.532 316.16C332.743 316.16 332.066 315.979 331.5 315.616C330.935 315.253 330.498 314.741 330.188 314.08C329.89 313.408 329.74 312.624 329.74 311.728C329.74 310.352 330.082 309.275 330.764 308.496C331.447 307.717 332.391 307.328 333.596 307.328C334.407 307.328 335.09 307.515 335.644 307.888C336.21 308.251 336.636 308.763 336.924 309.424C337.212 310.085 337.356 310.853 337.356 311.728ZM330.684 311.728C330.684 312.827 330.914 313.712 331.372 314.384C331.842 315.045 332.567 315.376 333.548 315.376C334.54 315.376 335.266 315.04 335.724 314.368C336.183 313.696 336.412 312.816 336.412 311.728C336.412 311.024 336.316 310.4 336.124 309.856C335.932 309.312 335.628 308.885 335.212 308.576C334.796 308.267 334.252 308.112 333.58 308.112C332.62 308.112 331.895 308.432 331.404 309.072C330.924 309.712 330.684 310.597 330.684 311.728Z" fill="#4F4F4F"/>
<path d="M342.794 307.328C343.455 307.328 344.004 307.461 344.442 307.728C344.89 307.984 345.247 308.336 345.514 308.784H345.578L345.706 307.488H346.442V316.272C346.442 317.392 346.154 318.267 345.578 318.896C345.002 319.525 344.068 319.84 342.778 319.84C342.138 319.84 341.567 319.787 341.066 319.68C340.575 319.584 340.132 319.445 339.738 319.264V318.384C340.132 318.587 340.591 318.747 341.114 318.864C341.636 318.992 342.202 319.056 342.81 319.056C343.738 319.056 344.426 318.811 344.874 318.32C345.322 317.829 345.546 317.163 345.546 316.32V315.824C345.546 315.6 345.546 315.376 345.546 315.152C345.556 314.917 345.567 314.699 345.578 314.496H345.53C345.039 315.605 344.09 316.16 342.682 316.16C341.583 316.16 340.724 315.787 340.106 315.04C339.487 314.293 339.178 313.216 339.178 311.808C339.178 310.432 339.487 309.344 340.106 308.544C340.724 307.733 341.62 307.328 342.794 307.328ZM342.89 308.112C341.962 308.112 341.268 308.437 340.81 309.088C340.351 309.739 340.122 310.651 340.122 311.824C340.122 312.976 340.351 313.856 340.81 314.464C341.268 315.072 341.93 315.376 342.794 315.376C343.498 315.376 344.047 315.237 344.442 314.96C344.847 314.672 345.13 314.277 345.29 313.776C345.46 313.275 345.546 312.704 345.546 312.064V311.504C345.546 310.427 345.343 309.595 344.938 309.008C344.543 308.411 343.86 308.112 342.89 308.112Z" fill="#4F4F4F"/>
<path d="M352.756 307.344C353.172 307.344 353.556 307.387 353.908 307.472L353.764 308.32C353.423 308.224 353.071 308.176 352.708 308.176C351.929 308.176 351.311 308.464 350.852 309.04C350.393 309.616 350.164 310.379 350.164 311.328V316H349.252V307.488H350.02L350.116 309.072H350.164C350.377 308.592 350.703 308.187 351.14 307.856C351.577 307.515 352.116 307.344 352.756 307.344Z" fill="#4F4F4F"/>
<path d="M358.244 307.344C359.204 307.344 359.919 307.579 360.388 308.048C360.858 308.517 361.092 309.259 361.092 310.272V316H360.404L360.244 314.56H360.196C359.887 315.04 359.508 315.429 359.06 315.728C358.623 316.016 358.01 316.16 357.22 316.16C356.399 316.16 355.754 315.957 355.284 315.552C354.815 315.136 354.58 314.544 354.58 313.776C354.58 312.923 354.927 312.277 355.62 311.84C356.314 311.392 357.322 311.141 358.644 311.088L360.196 311.008V310.416C360.196 309.584 360.026 308.992 359.684 308.64C359.354 308.288 358.863 308.112 358.212 308.112C357.775 308.112 357.354 308.171 356.948 308.288C356.543 308.405 356.138 308.56 355.732 308.752L355.444 308.016C355.85 307.824 356.287 307.664 356.756 307.536C357.236 307.408 357.732 307.344 358.244 307.344ZM358.756 311.76C357.668 311.813 356.858 312.005 356.324 312.336C355.802 312.656 355.54 313.136 355.54 313.776C355.54 314.309 355.7 314.715 356.02 314.992C356.351 315.259 356.804 315.392 357.38 315.392C358.266 315.392 358.954 315.141 359.444 314.64C359.935 314.128 360.186 313.424 360.196 312.528V311.696L358.756 311.76Z" fill="#4F4F4F"/>
<path d="M367.638 307.328C368.726 307.328 369.574 307.696 370.182 308.432C370.79 309.168 371.094 310.256 371.094 311.696C371.094 313.136 370.774 314.24 370.134 315.008C369.505 315.776 368.641 316.16 367.542 316.16C366.796 316.16 366.193 316 365.734 315.68C365.276 315.36 364.94 314.976 364.726 314.528H364.662C364.684 314.795 364.7 315.088 364.71 315.408C364.721 315.717 364.726 316.005 364.726 316.272V319.776H363.814V307.488H364.566L364.678 309.072H364.726C364.94 308.613 365.281 308.208 365.75 307.856C366.22 307.504 366.849 307.328 367.638 307.328ZM367.51 308.112C366.561 308.112 365.862 308.411 365.414 309.008C364.966 309.605 364.737 310.464 364.726 311.584V311.744C364.726 312.96 364.945 313.872 365.382 314.48C365.83 315.077 366.518 315.376 367.446 315.376C368.321 315.376 368.988 315.051 369.446 314.4C369.916 313.739 370.15 312.832 370.15 311.68C370.15 310.539 369.926 309.659 369.478 309.04C369.041 308.421 368.385 308.112 367.51 308.112Z" fill="#4F4F4F"/>
<path d="M374.304 307.728C374.304 307.952 374.299 308.165 374.288 308.368C374.278 308.571 374.262 308.768 374.24 308.96H374.304C374.528 308.491 374.88 308.101 375.36 307.792C375.851 307.483 376.459 307.328 377.184 307.328C378.166 307.328 378.912 307.579 379.424 308.08C379.936 308.581 380.192 309.365 380.192 310.432V316H379.296V310.496C379.296 309.685 379.11 309.088 378.736 308.704C378.363 308.309 377.819 308.112 377.104 308.112C375.238 308.112 374.304 309.195 374.304 311.36V316H373.392V303.84H374.304V307.728Z" fill="#4F4F4F"/>
<path d="M381.532 307.488H382.492L384.524 312.768C384.694 313.248 384.844 313.675 384.972 314.048C385.1 314.411 385.201 314.736 385.276 315.024H385.324C385.484 314.491 385.734 313.749 386.076 312.8L388.06 307.488H389.036L385.196 317.504C384.908 318.261 384.566 318.843 384.172 319.248C383.777 319.653 383.244 319.856 382.572 319.856C382.369 319.856 382.182 319.845 382.012 319.824C381.852 319.803 381.702 319.765 381.564 319.712V318.944C381.692 318.987 381.83 319.019 381.98 319.04C382.129 319.072 382.289 319.088 382.46 319.088C382.908 319.088 383.27 318.949 383.548 318.672C383.836 318.395 384.092 317.968 384.316 317.392L384.86 315.968L381.532 307.488Z" fill="#4F4F4F"/>
<path d="M302.936 399.024C302.936 399.707 302.765 400.283 302.424 400.752C302.082 401.221 301.613 401.573 301.016 401.808C300.418 402.043 299.741 402.16 298.984 402.16C298.29 402.16 297.688 402.112 297.176 402.016C296.664 401.92 296.226 401.797 295.864 401.648V400.736C296.258 400.896 296.728 401.035 297.272 401.152C297.816 401.269 298.402 401.328 299.032 401.328C299.906 401.328 300.616 401.141 301.16 400.768C301.714 400.395 301.992 399.835 301.992 399.088C301.992 398.64 301.885 398.272 301.672 397.984C301.469 397.685 301.149 397.429 300.712 397.216C300.285 396.992 299.736 396.768 299.064 396.544C298.424 396.331 297.874 396.091 297.416 395.824C296.957 395.557 296.605 395.227 296.36 394.832C296.114 394.427 295.992 393.92 295.992 393.312C295.992 392.693 296.146 392.171 296.456 391.744C296.776 391.307 297.208 390.976 297.752 390.752C298.306 390.528 298.936 390.416 299.64 390.416C300.194 390.416 300.722 390.469 301.224 390.576C301.725 390.683 302.2 390.832 302.648 391.024L302.344 391.824C301.426 391.44 300.514 391.248 299.608 391.248C298.818 391.248 298.173 391.424 297.672 391.776C297.181 392.117 296.936 392.624 296.936 393.296C296.936 393.787 297.042 394.181 297.256 394.48C297.469 394.768 297.778 395.013 298.184 395.216C298.589 395.419 299.085 395.621 299.672 395.824C300.344 396.059 300.92 396.304 301.4 396.56C301.89 396.816 302.269 397.141 302.536 397.536C302.802 397.92 302.936 398.416 302.936 399.024Z" fill="#4F4F4F"/>
<path d="M308.374 393.328C309.099 393.328 309.702 393.499 310.182 393.84C310.673 394.171 311.041 394.629 311.286 395.216C311.542 395.803 311.67 396.475 311.67 397.232V397.856H305.59C305.59 398.987 305.851 399.856 306.374 400.464C306.907 401.061 307.665 401.36 308.646 401.36C309.169 401.36 309.627 401.317 310.022 401.232C310.417 401.136 310.849 400.987 311.318 400.784V401.616C310.891 401.808 310.47 401.947 310.054 402.032C309.638 402.117 309.158 402.16 308.614 402.16C307.334 402.16 306.353 401.771 305.67 400.992C304.987 400.213 304.646 399.152 304.646 397.808C304.646 396.944 304.79 396.176 305.078 395.504C305.377 394.832 305.803 394.304 306.358 393.92C306.913 393.525 307.585 393.328 308.374 393.328ZM308.358 394.096C307.579 394.096 306.945 394.357 306.454 394.88C305.974 395.403 305.697 396.144 305.622 397.104H310.726C310.726 396.208 310.529 395.483 310.134 394.928C309.75 394.373 309.158 394.096 308.358 394.096Z" fill="#4F4F4F"/>
<path d="M322.866 393.328C323.709 393.328 324.365 393.568 324.834 394.048C325.314 394.528 325.554 395.285 325.554 396.32V402H324.658V396.352C324.658 395.595 324.482 395.035 324.13 394.672C323.789 394.299 323.325 394.112 322.738 394.112C321.928 394.112 321.304 394.352 320.866 394.832C320.429 395.301 320.21 396.032 320.21 397.024V402H319.314V396.352C319.314 395.595 319.138 395.035 318.786 394.672C318.445 394.299 317.981 394.112 317.394 394.112C316.584 394.112 315.96 394.363 315.522 394.864C315.096 395.365 314.882 396.133 314.882 397.168V402H313.97V393.488H314.706L314.834 394.832H314.898C315.112 394.416 315.432 394.064 315.858 393.776C316.296 393.477 316.85 393.328 317.522 393.328C318.141 393.328 318.664 393.461 319.09 393.728C319.517 393.995 319.821 394.389 320.002 394.912H320.05C320.296 394.411 320.658 394.021 321.138 393.744C321.629 393.467 322.205 393.328 322.866 393.328Z" fill="#4F4F4F"/>
<path d="M331.275 393.344C332.235 393.344 332.95 393.579 333.419 394.048C333.888 394.517 334.123 395.259 334.123 396.272V402H333.435L333.275 400.56H333.227C332.918 401.04 332.539 401.429 332.091 401.728C331.654 402.016 331.04 402.16 330.251 402.16C329.43 402.16 328.784 401.957 328.315 401.552C327.846 401.136 327.611 400.544 327.611 399.776C327.611 398.923 327.958 398.277 328.651 397.84C329.344 397.392 330.352 397.141 331.675 397.088L333.227 397.008V396.416C333.227 395.584 333.056 394.992 332.715 394.64C332.384 394.288 331.894 394.112 331.243 394.112C330.806 394.112 330.384 394.171 329.979 394.288C329.574 394.405 329.168 394.56 328.763 394.752L328.475 394.016C328.88 393.824 329.318 393.664 329.787 393.536C330.267 393.408 330.763 393.344 331.275 393.344ZM331.787 397.76C330.699 397.813 329.888 398.005 329.355 398.336C328.832 398.656 328.571 399.136 328.571 399.776C328.571 400.309 328.731 400.715 329.051 400.992C329.382 401.259 329.835 401.392 330.411 401.392C331.296 401.392 331.984 401.141 332.475 400.64C332.966 400.128 333.216 399.424 333.227 398.528V397.696L331.787 397.76Z" fill="#4F4F4F"/>
<path d="M340.653 393.328C341.624 393.328 342.365 393.579 342.877 394.08C343.389 394.581 343.645 395.365 343.645 396.432V402H342.749V396.496C342.749 395.685 342.563 395.088 342.189 394.704C341.816 394.309 341.272 394.112 340.557 394.112C338.691 394.112 337.757 395.195 337.757 397.36V402H336.845V393.488H337.581L337.709 394.96H337.773C337.997 394.491 338.355 394.101 338.845 393.792C339.336 393.483 339.939 393.328 340.653 393.328Z" fill="#4F4F4F"/>
<path d="M348.777 401.376C349.011 401.376 349.235 401.36 349.449 401.328C349.662 401.296 349.849 401.248 350.009 401.184V401.92C349.849 401.984 349.651 402.037 349.417 402.08C349.182 402.133 348.931 402.16 348.665 402.16C347.95 402.16 347.401 401.963 347.017 401.568C346.633 401.173 346.441 400.528 346.441 399.632V394.224H345.177V393.712L346.441 393.408L346.761 391.456H347.353V393.488H349.961V394.224H347.353V399.584C347.353 400.779 347.827 401.376 348.777 401.376Z" fill="#4F4F4F"/>
<path d="M352.278 390.336C352.694 390.336 352.902 390.565 352.902 391.024C352.902 391.493 352.694 391.728 352.278 391.728C351.862 391.728 351.654 391.493 351.654 391.024C351.654 390.565 351.862 390.336 352.278 390.336ZM352.726 393.488V402H351.814V393.488H352.726Z" fill="#4F4F4F"/>
<path d="M358.956 402.16C357.708 402.16 356.743 401.776 356.06 401.008C355.388 400.24 355.052 399.168 355.052 397.792C355.052 396.832 355.223 396.021 355.564 395.36C355.906 394.699 356.38 394.197 356.988 393.856C357.607 393.504 358.327 393.328 359.148 393.328C359.554 393.328 359.938 393.365 360.3 393.44C360.663 393.515 360.983 393.616 361.26 393.744L361.004 394.528C360.716 394.411 360.407 394.32 360.076 394.256C359.746 394.181 359.431 394.144 359.132 394.144C358.119 394.144 357.34 394.469 356.796 395.12C356.263 395.771 355.996 396.656 355.996 397.776C355.996 398.843 356.236 399.707 356.716 400.368C357.196 401.019 357.943 401.344 358.956 401.344C359.372 401.344 359.767 401.301 360.14 401.216C360.514 401.131 360.85 401.024 361.148 400.896V401.712C360.871 401.851 360.551 401.957 360.188 402.032C359.836 402.117 359.426 402.16 358.956 402.16Z" fill="#4F4F4F"/>
<path d="M370.722 402.16C369.474 402.16 368.509 401.776 367.826 401.008C367.154 400.24 366.818 399.168 366.818 397.792C366.818 396.832 366.989 396.021 367.33 395.36C367.671 394.699 368.146 394.197 368.754 393.856C369.373 393.504 370.093 393.328 370.914 393.328C371.319 393.328 371.703 393.365 372.066 393.44C372.429 393.515 372.749 393.616 373.026 393.744L372.77 394.528C372.482 394.411 372.173 394.32 371.842 394.256C371.511 394.181 371.197 394.144 370.898 394.144C369.885 394.144 369.106 394.469 368.562 395.12C368.029 395.771 367.762 396.656 367.762 397.776C367.762 398.843 368.002 399.707 368.482 400.368C368.962 401.019 369.709 401.344 370.722 401.344C371.138 401.344 371.533 401.301 371.906 401.216C372.279 401.131 372.615 401.024 372.914 400.896V401.712C372.637 401.851 372.317 401.957 371.954 402.032C371.602 402.117 371.191 402.16 370.722 402.16Z" fill="#4F4F4F"/>
<path d="M382.043 397.728C382.043 398.624 381.894 399.403 381.595 400.064C381.307 400.725 380.875 401.243 380.299 401.616C379.734 401.979 379.041 402.16 378.219 402.16C377.43 402.16 376.753 401.979 376.187 401.616C375.622 401.253 375.185 400.741 374.875 400.08C374.577 399.408 374.427 398.624 374.427 397.728C374.427 396.352 374.769 395.275 375.451 394.496C376.134 393.717 377.078 393.328 378.283 393.328C379.094 393.328 379.777 393.515 380.331 393.888C380.897 394.251 381.323 394.763 381.611 395.424C381.899 396.085 382.043 396.853 382.043 397.728ZM375.371 397.728C375.371 398.827 375.601 399.712 376.059 400.384C376.529 401.045 377.254 401.376 378.235 401.376C379.227 401.376 379.953 401.04 380.411 400.368C380.87 399.696 381.099 398.816 381.099 397.728C381.099 397.024 381.003 396.4 380.811 395.856C380.619 395.312 380.315 394.885 379.899 394.576C379.483 394.267 378.939 394.112 378.267 394.112C377.307 394.112 376.582 394.432 376.091 395.072C375.611 395.712 375.371 396.597 375.371 397.728Z" fill="#4F4F4F"/>
<path d="M385.273 402H384.361V389.84H385.273V402Z" fill="#4F4F4F"/>
<path d="M395.215 397.728C395.215 398.624 395.066 399.403 394.767 400.064C394.479 400.725 394.047 401.243 393.471 401.616C392.906 401.979 392.213 402.16 391.391 402.16C390.602 402.16 389.925 401.979 389.359 401.616C388.794 401.253 388.357 400.741 388.047 400.08C387.749 399.408 387.599 398.624 387.599 397.728C387.599 396.352 387.941 395.275 388.623 394.496C389.306 393.717 390.25 393.328 391.455 393.328C392.266 393.328 392.949 393.515 393.503 393.888C394.069 394.251 394.495 394.763 394.783 395.424C395.071 396.085 395.215 396.853 395.215 397.728ZM388.543 397.728C388.543 398.827 388.773 399.712 389.231 400.384C389.701 401.045 390.426 401.376 391.407 401.376C392.399 401.376 393.125 401.04 393.583 400.368C394.042 399.696 394.271 398.816 394.271 397.728C394.271 397.024 394.175 396.4 393.983 395.856C393.791 395.312 393.487 394.885 393.071 394.576C392.655 394.267 392.111 394.112 391.439 394.112C390.479 394.112 389.754 394.432 389.263 395.072C388.783 395.712 388.543 396.597 388.543 397.728Z" fill="#4F4F4F"/>
<path d="M404.237 393.488V402H403.501L403.357 400.544H403.309C403.074 401.013 402.711 401.403 402.221 401.712C401.741 402.011 401.138 402.16 400.413 402.16C398.418 402.16 397.421 401.125 397.421 399.056V393.488H398.333V398.976C398.333 399.797 398.514 400.405 398.877 400.8C399.25 401.184 399.799 401.376 400.525 401.376C402.391 401.376 403.325 400.293 403.325 398.128V393.488H404.237Z" fill="#4F4F4F"/>
<path d="M410.568 393.344C410.984 393.344 411.368 393.387 411.72 393.472L411.576 394.32C411.235 394.224 410.883 394.176 410.52 394.176C409.741 394.176 409.123 394.464 408.664 395.04C408.205 395.616 407.976 396.379 407.976 397.328V402H407.064V393.488H407.832L407.928 395.072H407.976C408.189 394.592 408.515 394.187 408.952 393.856C409.389 393.515 409.928 393.344 410.568 393.344Z" fill="#4F4F4F"/>
<path d="M418.721 399.744C418.721 400.512 418.433 401.109 417.857 401.536C417.281 401.952 416.47 402.16 415.425 402.16C414.828 402.16 414.3 402.107 413.841 402C413.382 401.904 412.998 401.776 412.689 401.616V400.736C413.062 400.928 413.489 401.088 413.969 401.216C414.449 401.333 414.94 401.392 415.441 401.392C416.273 401.392 416.876 401.253 417.249 400.976C417.633 400.688 417.825 400.299 417.825 399.808C417.825 399.339 417.628 398.981 417.233 398.736C416.838 398.48 416.257 398.219 415.489 397.952C414.956 397.771 414.486 397.589 414.081 397.408C413.686 397.216 413.377 396.976 413.153 396.688C412.929 396.4 412.817 396.005 412.817 395.504C412.817 394.821 413.094 394.288 413.649 393.904C414.204 393.52 414.945 393.328 415.873 393.328C416.385 393.328 416.86 393.376 417.297 393.472C417.745 393.568 418.156 393.696 418.529 393.856L418.193 394.608C417.862 394.469 417.489 394.352 417.073 394.256C416.657 394.149 416.241 394.096 415.825 394.096C415.153 394.096 414.63 394.213 414.257 394.448C413.884 394.683 413.697 395.024 413.697 395.472C413.697 395.813 413.788 396.085 413.969 396.288C414.15 396.48 414.412 396.645 414.753 396.784C415.094 396.923 415.51 397.077 416.001 397.248C416.513 397.429 416.972 397.616 417.377 397.808C417.782 398 418.108 398.245 418.353 398.544C418.598 398.843 418.721 399.243 418.721 399.744Z" fill="#4F4F4F"/>
<path d="M411.048 439.576L407.944 451H407.032L404.632 442.6C404.515 442.216 404.413 441.864 404.328 441.544C404.243 441.213 404.179 440.941 404.136 440.728C404.104 440.931 404.051 441.187 403.976 441.496C403.912 441.795 403.832 442.109 403.736 442.44L401.352 451H400.44L397.368 439.576H398.328L400.408 447.416C400.515 447.864 400.611 448.275 400.696 448.648C400.792 449.011 400.872 449.368 400.936 449.72C401 449.357 401.075 448.984 401.16 448.6C401.245 448.216 401.352 447.805 401.48 447.368L403.688 439.576H404.632L406.904 447.416C407.032 447.875 407.139 448.296 407.224 448.68C407.32 449.053 407.4 449.411 407.464 449.752C407.517 449.4 407.581 449.043 407.656 448.68C407.741 448.307 407.848 447.885 407.976 447.416L410.088 439.576H411.048Z" fill="#4F4F4F"/>
<path d="M415.51 442.344C416.47 442.344 417.185 442.579 417.654 443.048C418.123 443.517 418.358 444.259 418.358 445.272V451H417.67L417.51 449.56H417.462C417.153 450.04 416.774 450.429 416.326 450.728C415.889 451.016 415.275 451.16 414.486 451.16C413.665 451.16 413.019 450.957 412.55 450.552C412.081 450.136 411.846 449.544 411.846 448.776C411.846 447.923 412.193 447.277 412.886 446.84C413.579 446.392 414.587 446.141 415.91 446.088L417.462 446.008V445.416C417.462 444.584 417.291 443.992 416.95 443.64C416.619 443.288 416.129 443.112 415.478 443.112C415.041 443.112 414.619 443.171 414.214 443.288C413.809 443.405 413.403 443.56 412.998 443.752L412.71 443.016C413.115 442.824 413.553 442.664 414.022 442.536C414.502 442.408 414.998 442.344 415.51 442.344ZM416.022 446.76C414.934 446.813 414.123 447.005 413.59 447.336C413.067 447.656 412.806 448.136 412.806 448.776C412.806 449.309 412.966 449.715 413.286 449.992C413.617 450.259 414.07 450.392 414.646 450.392C415.531 450.392 416.219 450.141 416.71 449.64C417.201 449.128 417.451 448.424 417.462 447.528V446.696L416.022 446.76Z" fill="#4F4F4F"/>
<path d="M424.584 442.344C425 442.344 425.384 442.387 425.736 442.472L425.592 443.32C425.251 443.224 424.899 443.176 424.536 443.176C423.757 443.176 423.139 443.464 422.68 444.04C422.221 444.616 421.992 445.379 421.992 446.328V451H421.08V442.488H421.848L421.944 444.072H421.992C422.205 443.592 422.531 443.187 422.968 442.856C423.405 442.515 423.944 442.344 424.584 442.344Z" fill="#4F4F4F"/>
<path d="M431.185 442.328C432.156 442.328 432.897 442.579 433.409 443.08C433.921 443.581 434.177 444.365 434.177 445.432V451H433.281V445.496C433.281 444.685 433.094 444.088 432.721 443.704C432.348 443.309 431.804 443.112 431.089 443.112C429.222 443.112 428.289 444.195 428.289 446.36V451H427.377V442.488H428.113L428.241 443.96H428.305C428.529 443.491 428.886 443.101 429.377 442.792C429.868 442.483 430.47 442.328 431.185 442.328Z" fill="#4F4F4F"/>
<path d="M437.372 439.336C437.788 439.336 437.996 439.565 437.996 440.024C437.996 440.493 437.788 440.728 437.372 440.728C436.956 440.728 436.748 440.493 436.748 440.024C436.748 439.565 436.956 439.336 437.372 439.336ZM437.82 442.488V451H436.908V442.488H437.82Z" fill="#4F4F4F"/>
<path d="M444.451 442.328C445.421 442.328 446.163 442.579 446.675 443.08C447.187 443.581 447.443 444.365 447.443 445.432V451H446.547V445.496C446.547 444.685 446.36 444.088 445.987 443.704C445.613 443.309 445.069 443.112 444.355 443.112C442.488 443.112 441.555 444.195 441.555 446.36V451H440.643V442.488H441.379L441.507 443.96H441.571C441.795 443.491 442.152 443.101 442.643 442.792C443.133 442.483 443.736 442.328 444.451 442.328Z" fill="#4F4F4F"/>
<path d="M453.294 442.328C453.955 442.328 454.504 442.461 454.942 442.728C455.39 442.984 455.747 443.336 456.014 443.784H456.078L456.206 442.488H456.942V451.272C456.942 452.392 456.654 453.267 456.078 453.896C455.502 454.525 454.568 454.84 453.278 454.84C452.638 454.84 452.067 454.787 451.566 454.68C451.075 454.584 450.632 454.445 450.238 454.264V453.384C450.632 453.587 451.091 453.747 451.614 453.864C452.136 453.992 452.702 454.056 453.31 454.056C454.238 454.056 454.926 453.811 455.374 453.32C455.822 452.829 456.046 452.163 456.046 451.32V450.824C456.046 450.6 456.046 450.376 456.046 450.152C456.056 449.917 456.067 449.699 456.078 449.496H456.03C455.539 450.605 454.59 451.16 453.182 451.16C452.083 451.16 451.224 450.787 450.606 450.04C449.987 449.293 449.678 448.216 449.678 446.808C449.678 445.432 449.987 444.344 450.606 443.544C451.224 442.733 452.12 442.328 453.294 442.328ZM453.39 443.112C452.462 443.112 451.768 443.437 451.31 444.088C450.851 444.739 450.622 445.651 450.622 446.824C450.622 447.976 450.851 448.856 451.31 449.464C451.768 450.072 452.43 450.376 453.294 450.376C453.998 450.376 454.547 450.237 454.942 449.96C455.347 449.672 455.63 449.277 455.79 448.776C455.96 448.275 456.046 447.704 456.046 447.064V446.504C456.046 445.427 455.843 444.595 455.438 444.008C455.043 443.411 454.36 443.112 453.39 443.112Z" fill="#4F4F4F"/>
<path d="M408.384 503.176C408.384 505.096 407.872 506.547 406.848 507.528C405.835 508.51 404.363 509 402.432 509H399.6V497.576H402.784C404.587 497.576 405.968 498.056 406.928 499.016C407.899 499.966 408.384 501.352 408.384 503.176ZM407.408 503.208C407.408 499.998 405.803 498.392 402.592 498.392H400.528V508.184H402.352C405.723 508.184 407.408 506.526 407.408 503.208Z" fill="#4F4F4F"/>
<path d="M413.791 500.344C414.751 500.344 415.466 500.579 415.935 501.048C416.404 501.518 416.639 502.259 416.639 503.272V509H415.951L415.791 507.56H415.743C415.434 508.04 415.055 508.43 414.607 508.728C414.17 509.016 413.556 509.16 412.767 509.16C411.946 509.16 411.3 508.958 410.831 508.552C410.362 508.136 410.127 507.544 410.127 506.776C410.127 505.923 410.474 505.278 411.167 504.84C411.86 504.392 412.868 504.142 414.191 504.088L415.743 504.008V503.416C415.743 502.584 415.572 501.992 415.231 501.64C414.9 501.288 414.41 501.112 413.759 501.112C413.322 501.112 412.9 501.171 412.495 501.288C412.09 501.406 411.684 501.56 411.279 501.752L410.991 501.016C411.396 500.824 411.834 500.664 412.303 500.536C412.783 500.408 413.279 500.344 413.791 500.344ZM414.303 504.76C413.215 504.814 412.404 505.006 411.871 505.336C411.348 505.656 411.087 506.136 411.087 506.776C411.087 507.31 411.247 507.715 411.567 507.992C411.898 508.259 412.351 508.392 412.927 508.392C413.812 508.392 414.5 508.142 414.991 507.64C415.482 507.128 415.732 506.424 415.743 505.528V504.696L414.303 504.76Z" fill="#4F4F4F"/>
<path d="M423.169 500.328C424.14 500.328 424.881 500.579 425.393 501.08C425.905 501.582 426.161 502.366 426.161 503.432V509H425.265V503.496C425.265 502.686 425.079 502.088 424.705 501.704C424.332 501.31 423.788 501.112 423.073 501.112C421.207 501.112 420.273 502.195 420.273 504.36V509H419.361V500.488H420.097L420.225 501.96H420.289C420.513 501.491 420.871 501.102 421.361 500.792C421.852 500.483 422.455 500.328 423.169 500.328Z" fill="#4F4F4F"/>
<path d="M432.012 500.328C432.674 500.328 433.223 500.462 433.66 500.728C434.108 500.984 434.466 501.336 434.732 501.784H434.796L434.924 500.488H435.66V509.272C435.66 510.392 435.372 511.267 434.796 511.896C434.22 512.526 433.287 512.84 431.996 512.84C431.356 512.84 430.786 512.787 430.284 512.68C429.794 512.584 429.351 512.446 428.956 512.264V511.384C429.351 511.587 429.81 511.747 430.332 511.864C430.855 511.992 431.42 512.056 432.028 512.056C432.956 512.056 433.644 511.811 434.092 511.32C434.54 510.83 434.764 510.163 434.764 509.32V508.824C434.764 508.6 434.764 508.376 434.764 508.152C434.775 507.918 434.786 507.699 434.796 507.496H434.748C434.258 508.606 433.308 509.16 431.9 509.16C430.802 509.16 429.943 508.787 429.324 508.04C428.706 507.294 428.396 506.216 428.396 504.808C428.396 503.432 428.706 502.344 429.324 501.544C429.943 500.734 430.839 500.328 432.012 500.328ZM432.108 501.112C431.18 501.112 430.487 501.438 430.028 502.088C429.57 502.739 429.34 503.651 429.34 504.824C429.34 505.976 429.57 506.856 430.028 507.464C430.487 508.072 431.148 508.376 432.012 508.376C432.716 508.376 433.266 508.238 433.66 507.96C434.066 507.672 434.348 507.278 434.508 506.776C434.679 506.275 434.764 505.704 434.764 505.064V504.504C434.764 503.427 434.562 502.595 434.156 502.008C433.762 501.411 433.079 501.112 432.108 501.112Z" fill="#4F4F4F"/>
<path d="M441.703 500.328C442.428 500.328 443.031 500.499 443.511 500.84C444.001 501.171 444.369 501.63 444.615 502.216C444.871 502.803 444.999 503.475 444.999 504.232V504.856H438.919C438.919 505.987 439.18 506.856 439.703 507.464C440.236 508.062 440.993 508.36 441.975 508.36C442.497 508.36 442.956 508.318 443.351 508.232C443.745 508.136 444.177 507.987 444.647 507.784V508.616C444.22 508.808 443.799 508.947 443.383 509.032C442.967 509.118 442.487 509.16 441.943 509.16C440.663 509.16 439.681 508.771 438.999 507.992C438.316 507.214 437.975 506.152 437.975 504.808C437.975 503.944 438.119 503.176 438.407 502.504C438.705 501.832 439.132 501.304 439.687 500.92C440.241 500.526 440.913 500.328 441.703 500.328ZM441.687 501.096C440.908 501.096 440.273 501.358 439.783 501.88C439.303 502.403 439.025 503.144 438.951 504.104H444.055C444.055 503.208 443.857 502.483 443.463 501.928C443.079 501.374 442.487 501.096 441.687 501.096Z" fill="#4F4F4F"/>
<path d="M450.803 500.344C451.219 500.344 451.603 500.387 451.955 500.472L451.811 501.32C451.469 501.224 451.117 501.176 450.755 501.176C449.976 501.176 449.357 501.464 448.899 502.04C448.44 502.616 448.211 503.379 448.211 504.328V509H447.299V500.488H448.067L448.163 502.072H448.211C448.424 501.592 448.749 501.187 449.187 500.856C449.624 500.515 450.163 500.344 450.803 500.344Z" fill="#4F4F4F"/>
<path d="M405.936 564.024C405.936 564.707 405.765 565.283 405.424 565.752C405.082 566.221 404.613 566.573 404.016 566.808C403.418 567.043 402.741 567.16 401.984 567.16C401.29 567.16 400.688 567.112 400.176 567.016C399.664 566.92 399.226 566.797 398.864 566.648V565.736C399.258 565.896 399.728 566.035 400.272 566.152C400.816 566.269 401.402 566.328 402.032 566.328C402.906 566.328 403.616 566.141 404.16 565.768C404.714 565.395 404.992 564.835 404.992 564.088C404.992 563.64 404.885 563.272 404.672 562.984C404.469 562.685 404.149 562.429 403.712 562.216C403.285 561.992 402.736 561.768 402.064 561.544C401.424 561.331 400.874 561.091 400.416 560.824C399.957 560.557 399.605 560.227 399.36 559.832C399.114 559.427 398.992 558.92 398.992 558.312C398.992 557.693 399.146 557.171 399.456 556.744C399.776 556.307 400.208 555.976 400.752 555.752C401.306 555.528 401.936 555.416 402.64 555.416C403.194 555.416 403.722 555.469 404.224 555.576C404.725 555.683 405.2 555.832 405.648 556.024L405.344 556.824C404.426 556.44 403.514 556.248 402.608 556.248C401.818 556.248 401.173 556.424 400.672 556.776C400.181 557.117 399.936 557.624 399.936 558.296C399.936 558.787 400.042 559.181 400.256 559.48C400.469 559.768 400.778 560.013 401.184 560.216C401.589 560.419 402.085 560.621 402.672 560.824C403.344 561.059 403.92 561.304 404.4 561.56C404.89 561.816 405.269 562.141 405.536 562.536C405.802 562.92 405.936 563.416 405.936 564.024Z" fill="#4F4F4F"/>
<path d="M414.846 558.488V567H414.11L413.966 565.544H413.918C413.683 566.013 413.321 566.403 412.83 566.712C412.35 567.011 411.747 567.16 411.022 567.16C409.027 567.16 408.03 566.125 408.03 564.056V558.488H408.942V563.976C408.942 564.797 409.123 565.405 409.486 565.8C409.859 566.184 410.409 566.376 411.134 566.376C413.001 566.376 413.934 565.293 413.934 563.128V558.488H414.846Z" fill="#4F4F4F"/>
<path d="M421.081 567.16C419.833 567.16 418.868 566.776 418.185 566.008C417.513 565.24 417.177 564.168 417.177 562.792C417.177 561.832 417.348 561.021 417.689 560.36C418.031 559.699 418.505 559.197 419.113 558.856C419.732 558.504 420.452 558.328 421.273 558.328C421.679 558.328 422.063 558.365 422.425 558.44C422.788 558.515 423.108 558.616 423.385 558.744L423.129 559.528C422.841 559.411 422.532 559.32 422.201 559.256C421.871 559.181 421.556 559.144 421.257 559.144C420.244 559.144 419.465 559.469 418.921 560.12C418.388 560.771 418.121 561.656 418.121 562.776C418.121 563.843 418.361 564.707 418.841 565.368C419.321 566.019 420.068 566.344 421.081 566.344C421.497 566.344 421.892 566.301 422.265 566.216C422.639 566.131 422.975 566.024 423.273 565.896V566.712C422.996 566.851 422.676 566.957 422.313 567.032C421.961 567.117 421.551 567.16 421.081 567.16Z" fill="#4F4F4F"/>
<path d="M428.691 567.16C427.443 567.16 426.477 566.776 425.795 566.008C425.123 565.24 424.787 564.168 424.787 562.792C424.787 561.832 424.957 561.021 425.299 560.36C425.64 559.699 426.115 559.197 426.723 558.856C427.341 558.504 428.061 558.328 428.883 558.328C429.288 558.328 429.672 558.365 430.035 558.44C430.397 558.515 430.717 558.616 430.995 558.744L430.739 559.528C430.451 559.411 430.141 559.32 429.811 559.256C429.48 559.181 429.165 559.144 428.867 559.144C427.853 559.144 427.075 559.469 426.531 560.12C425.997 560.771 425.731 561.656 425.731 562.776C425.731 563.843 425.971 564.707 426.451 565.368C426.931 566.019 427.677 566.344 428.691 566.344C429.107 566.344 429.501 566.301 429.875 566.216C430.248 566.131 430.584 566.024 430.883 565.896V566.712C430.605 566.851 430.285 566.957 429.923 567.032C429.571 567.117 429.16 567.16 428.691 567.16Z" fill="#4F4F4F"/>
<path d="M436.124 558.328C436.849 558.328 437.452 558.499 437.932 558.84C438.423 559.171 438.791 559.629 439.036 560.216C439.292 560.803 439.42 561.475 439.42 562.232V562.856H433.34C433.34 563.987 433.601 564.856 434.124 565.464C434.657 566.061 435.415 566.36 436.396 566.36C436.919 566.36 437.377 566.317 437.772 566.232C438.167 566.136 438.599 565.987 439.068 565.784V566.616C438.641 566.808 438.22 566.947 437.804 567.032C437.388 567.117 436.908 567.16 436.364 567.16C435.084 567.16 434.103 566.771 433.42 565.992C432.737 565.213 432.396 564.152 432.396 562.808C432.396 561.944 432.54 561.176 432.828 560.504C433.127 559.832 433.553 559.304 434.108 558.92C434.663 558.525 435.335 558.328 436.124 558.328ZM436.108 559.096C435.329 559.096 434.695 559.357 434.204 559.88C433.724 560.403 433.447 561.144 433.372 562.104H438.476C438.476 561.208 438.279 560.483 437.884 559.928C437.5 559.373 436.908 559.096 436.108 559.096Z" fill="#4F4F4F"/>
<path d="M447.08 564.744C447.08 565.512 446.792 566.109 446.216 566.536C445.64 566.952 444.83 567.16 443.784 567.16C443.187 567.16 442.659 567.107 442.2 567C441.742 566.904 441.358 566.776 441.048 566.616V565.736C441.422 565.928 441.848 566.088 442.328 566.216C442.808 566.333 443.299 566.392 443.8 566.392C444.632 566.392 445.235 566.253 445.608 565.976C445.992 565.688 446.184 565.299 446.184 564.808C446.184 564.339 445.987 563.981 445.592 563.736C445.198 563.48 444.616 563.219 443.848 562.952C443.315 562.771 442.846 562.589 442.44 562.408C442.046 562.216 441.736 561.976 441.512 561.688C441.288 561.4 441.176 561.005 441.176 560.504C441.176 559.821 441.454 559.288 442.008 558.904C442.563 558.52 443.304 558.328 444.232 558.328C444.744 558.328 445.219 558.376 445.656 558.472C446.104 558.568 446.515 558.696 446.888 558.856L446.552 559.608C446.222 559.469 445.848 559.352 445.432 559.256C445.016 559.149 444.6 559.096 444.184 559.096C443.512 559.096 442.99 559.213 442.616 559.448C442.243 559.683 442.056 560.024 442.056 560.472C442.056 560.813 442.147 561.085 442.328 561.288C442.51 561.48 442.771 561.645 443.112 561.784C443.454 561.923 443.87 562.077 444.36 562.248C444.872 562.429 445.331 562.616 445.736 562.808C446.142 563 446.467 563.245 446.712 563.544C446.958 563.843 447.08 564.243 447.08 564.744Z" fill="#4F4F4F"/>
<path d="M454.58 564.744C454.58 565.512 454.292 566.109 453.716 566.536C453.14 566.952 452.33 567.16 451.284 567.16C450.687 567.16 450.159 567.107 449.7 567C449.242 566.904 448.858 566.776 448.548 566.616V565.736C448.922 565.928 449.348 566.088 449.828 566.216C450.308 566.333 450.799 566.392 451.3 566.392C452.132 566.392 452.735 566.253 453.108 565.976C453.492 565.688 453.684 565.299 453.684 564.808C453.684 564.339 453.487 563.981 453.092 563.736C452.698 563.48 452.116 563.219 451.348 562.952C450.815 562.771 450.346 562.589 449.94 562.408C449.546 562.216 449.236 561.976 449.012 561.688C448.788 561.4 448.676 561.005 448.676 560.504C448.676 559.821 448.954 559.288 449.508 558.904C450.063 558.52 450.804 558.328 451.732 558.328C452.244 558.328 452.719 558.376 453.156 558.472C453.604 558.568 454.015 558.696 454.388 558.856L454.052 559.608C453.722 559.469 453.348 559.352 452.932 559.256C452.516 559.149 452.1 559.096 451.684 559.096C451.012 559.096 450.49 559.213 450.116 559.448C449.743 559.683 449.556 560.024 449.556 560.472C449.556 560.813 449.647 561.085 449.828 561.288C450.01 561.48 450.271 561.645 450.612 561.784C450.954 561.923 451.37 562.077 451.86 562.248C452.372 562.429 452.831 562.616 453.236 562.808C453.642 563 453.967 563.245 454.212 563.544C454.458 563.843 454.58 564.243 454.58 564.744Z" fill="#4F4F4F"/>
<path d="M402.176 625H398.816V624.424L400.032 624.248V614.344L398.816 614.152V613.576H402.176V614.152L400.96 614.344V624.248L402.176 624.424V625Z" fill="#4F4F4F"/>
<path d="M408.185 616.328C409.155 616.328 409.897 616.578 410.409 617.08C410.921 617.581 411.177 618.365 411.177 619.432V625H410.281V619.496C410.281 618.685 410.094 618.088 409.721 617.704C409.347 617.309 408.803 617.112 408.089 617.112C406.222 617.112 405.289 618.194 405.289 620.36V625H404.377V616.488H405.113L405.241 617.96H405.305C405.529 617.49 405.886 617.101 406.377 616.792C406.867 616.482 407.47 616.328 408.185 616.328Z" fill="#4F4F4F"/>
<path d="M417.22 617.224H415.188V625H414.276V617.224H412.708V616.728L414.276 616.456V615.608C414.276 613.709 415.124 612.76 416.82 612.76C417.119 612.76 417.391 612.786 417.636 612.84C417.881 612.882 418.105 612.936 418.308 613L418.1 613.752C417.908 613.688 417.7 613.634 417.476 613.592C417.263 613.549 417.049 613.528 416.836 613.528C416.26 613.528 415.839 613.693 415.572 614.024C415.316 614.354 415.188 614.882 415.188 615.608V616.488H417.22V617.224Z" fill="#4F4F4F"/>
<path d="M425.965 620.728C425.965 621.624 425.816 622.402 425.517 623.064C425.229 623.725 424.797 624.242 424.221 624.616C423.656 624.978 422.963 625.16 422.141 625.16C421.352 625.16 420.675 624.978 420.109 624.616C419.544 624.253 419.107 623.741 418.797 623.08C418.499 622.408 418.349 621.624 418.349 620.728C418.349 619.352 418.691 618.274 419.373 617.496C420.056 616.717 421 616.328 422.205 616.328C423.016 616.328 423.699 616.514 424.253 616.888C424.819 617.25 425.245 617.762 425.533 618.424C425.821 619.085 425.965 619.853 425.965 620.728ZM419.293 620.728C419.293 621.826 419.523 622.712 419.981 623.384C420.451 624.045 421.176 624.376 422.157 624.376C423.149 624.376 423.875 624.04 424.333 623.368C424.792 622.696 425.021 621.816 425.021 620.728C425.021 620.024 424.925 619.4 424.733 618.856C424.541 618.312 424.237 617.885 423.821 617.576C423.405 617.266 422.861 617.112 422.189 617.112C421.229 617.112 420.504 617.432 420.013 618.072C419.533 618.712 419.293 619.597 419.293 620.728Z" fill="#4F4F4F"/>
</svg>
