<svg width="565" height="430" viewBox="0 0 565 430" fill="none" xmlns="http://www.w3.org/2000/svg">
<path d="M0 56H132V188H0V56Z" fill="#1AF772"/>
<path d="M132 56H264V188H132V56Z" fill="#2192FB"/>
<path fill-rule="evenodd" clip-rule="evenodd" d="M49.5 21.5H214.5V44H213.5V22.5H50.5V40.5778H49.5V21.5Z" fill="#6B6B6B"/>
<path d="M115.6 12.0002V0.576172H116.528V11.1522H121.888V12.0002H115.6Z" fill="#585858"/>
<path d="M130.762 7.72817C130.762 8.62417 130.613 9.40284 130.314 10.0642C130.026 10.7255 129.594 11.2428 129.018 11.6162C128.453 11.9788 127.76 12.1602 126.938 12.1602C126.149 12.1602 125.472 11.9788 124.906 11.6162C124.341 11.2535 123.904 10.7415 123.594 10.0802C123.296 9.40817 123.146 8.62417 123.146 7.72817C123.146 6.35217 123.488 5.27484 124.17 4.49617C124.853 3.71751 125.797 3.32817 127.002 3.32817C127.813 3.32817 128.496 3.51484 129.05 3.88817C129.616 4.25084 130.042 4.76284 130.33 5.42417C130.618 6.08551 130.762 6.85351 130.762 7.72817ZM124.09 7.72817C124.09 8.82684 124.32 9.71217 124.778 10.3842C125.248 11.0455 125.973 11.3762 126.954 11.3762C127.946 11.3762 128.672 11.0402 129.13 10.3682C129.589 9.69617 129.818 8.81617 129.818 7.72817C129.818 7.02417 129.722 6.40017 129.53 5.85617C129.338 5.31217 129.034 4.88551 128.618 4.57617C128.202 4.26684 127.658 4.11217 126.986 4.11217C126.026 4.11217 125.301 4.43217 124.81 5.07217C124.33 5.71217 124.09 6.59751 124.09 7.72817Z" fill="#585858"/>
<path d="M136.2 3.32817C136.861 3.32817 137.411 3.46151 137.848 3.72817C138.296 3.98417 138.653 4.33617 138.92 4.78417H138.984L139.112 3.48817H139.848V12.2722C139.848 13.3922 139.56 14.2668 138.984 14.8962C138.408 15.5255 137.475 15.8402 136.184 15.8402C135.544 15.8402 134.973 15.7868 134.472 15.6802C133.981 15.5842 133.539 15.4455 133.144 15.2642V14.3842C133.539 14.5868 133.997 14.7468 134.52 14.8642C135.043 14.9922 135.608 15.0562 136.216 15.0562C137.144 15.0562 137.832 14.8108 138.28 14.3202C138.728 13.8295 138.952 13.1628 138.952 12.3202V11.8242C138.952 11.6002 138.952 11.3762 138.952 11.1522C138.963 10.9175 138.973 10.6988 138.984 10.4962H138.936C138.445 11.6055 137.496 12.1602 136.088 12.1602C134.989 12.1602 134.131 11.7868 133.512 11.0402C132.893 10.2935 132.584 9.21617 132.584 7.80817C132.584 6.43217 132.893 5.34417 133.512 4.54417C134.131 3.73351 135.027 3.32817 136.2 3.32817ZM136.296 4.11217C135.368 4.11217 134.675 4.43751 134.216 5.08817C133.757 5.73884 133.528 6.65084 133.528 7.82417C133.528 8.97617 133.757 9.85617 134.216 10.4642C134.675 11.0722 135.336 11.3762 136.2 11.3762C136.904 11.3762 137.453 11.2375 137.848 10.9602C138.253 10.6722 138.536 10.2775 138.696 9.77617C138.867 9.27484 138.952 8.70417 138.952 8.06417V7.50417C138.952 6.42684 138.749 5.59484 138.344 5.00817C137.949 4.41084 137.267 4.11217 136.296 4.11217Z" fill="#585858"/>
<path d="M149.778 7.72817C149.778 8.62417 149.629 9.40284 149.33 10.0642C149.042 10.7255 148.61 11.2428 148.034 11.6162C147.469 11.9788 146.775 12.1602 145.954 12.1602C145.165 12.1602 144.487 11.9788 143.922 11.6162C143.357 11.2535 142.919 10.7415 142.61 10.0802C142.311 9.40817 142.162 8.62417 142.162 7.72817C142.162 6.35217 142.503 5.27484 143.186 4.49617C143.869 3.71751 144.813 3.32817 146.018 3.32817C146.829 3.32817 147.511 3.51484 148.066 3.88817C148.631 4.25084 149.058 4.76284 149.346 5.42417C149.634 6.08551 149.778 6.85351 149.778 7.72817ZM143.106 7.72817C143.106 8.82684 143.335 9.71217 143.794 10.3842C144.263 11.0455 144.989 11.3762 145.97 11.3762C146.962 11.3762 147.687 11.0402 148.146 10.3682C148.605 9.69617 148.834 8.81617 148.834 7.72817C148.834 7.02417 148.738 6.40017 148.546 5.85617C148.354 5.31217 148.05 4.88551 147.634 4.57617C147.218 4.26684 146.674 4.11217 146.002 4.11217C145.042 4.11217 144.317 4.43217 143.826 5.07217C143.346 5.71217 143.106 6.59751 143.106 7.72817Z" fill="#585858"/>
<path d="M427 56H559V188H427V56Z" fill="#2F29A6"/>
<path d="M295 56H427V188H295V56Z" fill="#75DE6D"/>
<path fill-rule="evenodd" clip-rule="evenodd" d="M344.5 21.5H509.5V44H508.5V22.5H345.5V40.5778H344.5V21.5Z" fill="#6B6B6B"/>
<path d="M403.768 0.576172C405.176 0.576172 406.216 0.800172 406.888 1.24817C407.56 1.68551 407.896 2.38951 407.896 3.36017C407.896 4.02151 407.704 4.58684 407.32 5.05617C406.947 5.52551 406.397 5.82417 405.672 5.95217V6.00017C406.504 6.13884 407.139 6.43217 407.576 6.88017C408.013 7.32817 408.232 7.95217 408.232 8.75217C408.232 9.48817 408.061 10.0962 407.72 10.5762C407.379 11.0562 406.904 11.4135 406.296 11.6482C405.699 11.8828 405.005 12.0002 404.216 12.0002H400.6V0.576172H403.768ZM403.976 5.61617C405.032 5.61617 405.789 5.43484 406.248 5.07217C406.707 4.70951 406.936 4.17084 406.936 3.45617C406.936 2.72017 406.685 2.19217 406.184 1.87217C405.683 1.55217 404.877 1.39217 403.768 1.39217H401.528V5.61617H403.976ZM401.528 6.41617V11.1842H404.136C405.181 11.1842 405.96 10.9762 406.472 10.5602C406.984 10.1335 407.24 9.51484 407.24 8.70417C407.24 7.91484 406.973 7.33884 406.44 6.97617C405.907 6.60284 405.091 6.41617 403.992 6.41617H401.528Z" fill="#585858"/>
<path d="M417.221 3.48817V12.0002H416.485L416.341 10.5442H416.293C416.059 11.0135 415.696 11.4028 415.205 11.7122C414.725 12.0108 414.123 12.1602 413.397 12.1602C411.403 12.1602 410.405 11.1255 410.405 9.05617V3.48817H411.317V8.97617C411.317 9.79751 411.499 10.4055 411.861 10.8002C412.235 11.1842 412.784 11.3762 413.509 11.3762C415.376 11.3762 416.309 10.2935 416.309 8.12817V3.48817H417.221Z" fill="#585858"/>
<path d="M422.449 11.3762C422.683 11.3762 422.907 11.3602 423.121 11.3282C423.334 11.2962 423.521 11.2482 423.681 11.1842V11.9202C423.521 11.9842 423.323 12.0375 423.089 12.0802C422.854 12.1335 422.603 12.1602 422.337 12.1602C421.622 12.1602 421.073 11.9628 420.689 11.5682C420.305 11.1735 420.113 10.5282 420.113 9.63217V4.22417H418.849V3.71217L420.113 3.40817L420.433 1.45617H421.025V3.48817H423.633V4.22417H421.025V9.58417C421.025 10.7788 421.499 11.3762 422.449 11.3762Z" fill="#585858"/>
<path d="M427.886 11.3762C428.121 11.3762 428.345 11.3602 428.558 11.3282C428.772 11.2962 428.958 11.2482 429.118 11.1842V11.9202C428.958 11.9842 428.761 12.0375 428.526 12.0802C428.292 12.1335 428.041 12.1602 427.774 12.1602C427.06 12.1602 426.51 11.9628 426.126 11.5682C425.742 11.1735 425.55 10.5282 425.55 9.63217V4.22417H424.286V3.71217L425.55 3.40817L425.87 1.45617H426.462V3.48817H429.07V4.22417H426.462V9.58417C426.462 10.7788 426.937 11.3762 427.886 11.3762Z" fill="#585858"/>
<path d="M438.044 7.72817C438.044 8.62417 437.894 9.40284 437.596 10.0642C437.308 10.7255 436.876 11.2428 436.3 11.6162C435.734 11.9788 435.041 12.1602 434.22 12.1602C433.43 12.1602 432.753 11.9788 432.188 11.6162C431.622 11.2535 431.185 10.7415 430.876 10.0802C430.577 9.40817 430.428 8.62417 430.428 7.72817C430.428 6.35217 430.769 5.27484 431.452 4.49617C432.134 3.71751 433.078 3.32817 434.284 3.32817C435.094 3.32817 435.777 3.51484 436.332 3.88817C436.897 4.25084 437.324 4.76284 437.612 5.42417C437.9 6.08551 438.044 6.85351 438.044 7.72817ZM431.372 7.72817C431.372 8.82684 431.601 9.71217 432.06 10.3842C432.529 11.0455 433.254 11.3762 434.236 11.3762C435.228 11.3762 435.953 11.0402 436.412 10.3682C436.87 9.69617 437.1 8.81617 437.1 7.72817C437.1 7.02417 437.004 6.40017 436.812 5.85617C436.62 5.31217 436.316 4.88551 435.9 4.57617C435.484 4.26684 434.94 4.11217 434.268 4.11217C433.308 4.11217 432.582 4.43217 432.092 5.07217C431.612 5.71217 431.372 6.59751 431.372 7.72817Z" fill="#585858"/>
<path d="M444.169 3.32817C445.14 3.32817 445.881 3.57884 446.393 4.08017C446.905 4.58151 447.161 5.36551 447.161 6.43217V12.0002H446.265V6.49617C446.265 5.68551 446.079 5.08817 445.705 4.70417C445.332 4.30951 444.788 4.11217 444.073 4.11217C442.207 4.11217 441.273 5.19484 441.273 7.36017V12.0002H440.361V3.48817H441.097L441.225 4.96017H441.289C441.513 4.49084 441.871 4.10151 442.361 3.79217C442.852 3.48284 443.455 3.32817 444.169 3.32817Z" fill="#585858"/>
<path d="M455.252 9.74417C455.252 10.5122 454.964 11.1095 454.388 11.5362C453.812 11.9522 453.002 12.1602 451.956 12.1602C451.359 12.1602 450.831 12.1068 450.372 12.0002C449.914 11.9042 449.53 11.7762 449.22 11.6162V10.7362C449.594 10.9282 450.02 11.0882 450.5 11.2162C450.98 11.3335 451.471 11.3922 451.972 11.3922C452.804 11.3922 453.407 11.2535 453.78 10.9762C454.164 10.6882 454.356 10.2988 454.356 9.80817C454.356 9.33884 454.159 8.98151 453.764 8.73617C453.37 8.48017 452.788 8.21884 452.02 7.95217C451.487 7.77084 451.018 7.58951 450.612 7.40817C450.218 7.21617 449.908 6.97617 449.684 6.68817C449.46 6.40017 449.348 6.00551 449.348 5.50417C449.348 4.82151 449.626 4.28817 450.18 3.90417C450.735 3.52017 451.476 3.32817 452.404 3.32817C452.916 3.32817 453.391 3.37617 453.828 3.47217C454.276 3.56817 454.687 3.69617 455.06 3.85617L454.724 4.60817C454.394 4.46951 454.02 4.35217 453.604 4.25617C453.188 4.14951 452.772 4.09617 452.356 4.09617C451.684 4.09617 451.162 4.21351 450.788 4.44817C450.415 4.68284 450.228 5.02417 450.228 5.47217C450.228 5.81351 450.319 6.08551 450.5 6.28817C450.682 6.48017 450.943 6.64551 451.284 6.78417C451.626 6.92284 452.042 7.07751 452.532 7.24817C453.044 7.42951 453.503 7.61617 453.908 7.80817C454.314 8.00017 454.639 8.24551 454.884 8.54417C455.13 8.84284 455.252 9.24284 455.252 9.74417Z" fill="#585858"/>
<path d="M340 240H385V282H340V240Z" fill="#040058"/>
<path d="M385 326H430V368H385V326Z" fill="#7B6B2E"/>
<path d="M77 330H122V372H77V330Z" fill="#2A9259"/>
<path d="M77 388H122V430H77V388Z" fill="#6C29C1"/>
<path d="M122 330H167V372H122V330Z" fill="#D4E9DE"/>
<path d="M122 388H167V430H122V388Z" fill="#D5D4ED"/>
<path d="M385 240H430V282H385V240Z" fill="#F7FAFA"/>
<path d="M475 326H520V368H475V326Z" fill="#F0D05A"/>
<path d="M430 240H475V282H430V240Z" fill="#EDEDF3"/>
<path d="M295 326H340V368H295V326Z" fill="#0F1C3A"/>
<path d="M77 214H122V256H77V214Z" fill="#FFC107"/>
<path d="M122 214H167V256H122V214Z" fill="#FFF3CD"/>
<path d="M475 240H520V282H475V240Z" fill="#E0DFF2"/>
<path d="M520 326H565V368H520V326Z" fill="#E7D9C2"/>
<path d="M520 240H565V282H520V240Z" fill="#F5F5F5"/>
<path d="M430 326H475V368H430V326Z" fill="#39763A"/>
<path d="M295 240H340V282H295V240Z" fill="#16161D"/>
<path d="M340 326H385V368H340V326Z" fill="#93B5C6"/>
<path d="M77 272H122V314H77V272Z" fill="#DC3545"/>
<path d="M122 272H167V314H122V272Z" fill="#F8D7DA"/>
<path d="M299.704 230H298.776V219.408H295.096V218.576H303.384V219.408H299.704V230Z" fill="#4F4F4F"/>
<path d="M307.015 221.328C307.741 221.328 308.343 221.499 308.823 221.84C309.314 222.171 309.682 222.629 309.927 223.216C310.183 223.803 310.311 224.475 310.311 225.232V225.856H304.231C304.231 226.987 304.493 227.856 305.015 228.464C305.549 229.061 306.306 229.36 307.287 229.36C307.81 229.36 308.269 229.317 308.663 229.232C309.058 229.136 309.49 228.987 309.959 228.784V229.616C309.533 229.808 309.111 229.947 308.695 230.032C308.279 230.117 307.799 230.16 307.255 230.16C305.975 230.16 304.994 229.771 304.311 228.992C303.629 228.213 303.287 227.152 303.287 225.808C303.287 224.944 303.431 224.176 303.719 223.504C304.018 222.832 304.445 222.304 304.999 221.92C305.554 221.525 306.226 221.328 307.015 221.328ZM306.999 222.096C306.221 222.096 305.586 222.357 305.095 222.88C304.615 223.403 304.338 224.144 304.263 225.104H309.367C309.367 224.208 309.17 223.483 308.775 222.928C308.391 222.373 307.799 222.096 306.999 222.096Z" fill="#4F4F4F"/>
<path d="M314.347 225.632L311.387 221.488H312.443L314.907 225.008L317.355 221.488H318.395L315.451 225.632L318.571 230H317.515L314.907 226.256L312.283 230H311.243L314.347 225.632Z" fill="#4F4F4F"/>
<path d="M322.761 229.376C322.996 229.376 323.22 229.36 323.433 229.328C323.647 229.296 323.833 229.248 323.993 229.184V229.92C323.833 229.984 323.636 230.037 323.401 230.08C323.167 230.133 322.916 230.16 322.649 230.16C321.935 230.16 321.385 229.963 321.001 229.568C320.617 229.173 320.425 228.528 320.425 227.632V222.224H319.161V221.712L320.425 221.408L320.745 219.456H321.337V221.488H323.945V222.224H321.337V227.584C321.337 228.779 321.812 229.376 322.761 229.376Z" fill="#4F4F4F"/>
<path d="M329.767 218.576L325.495 230H324.583L328.855 218.576H329.767Z" fill="#4F4F4F"/>
<path d="M332.242 221.2C332.242 221.509 332.236 221.84 332.226 222.192C332.215 222.533 332.204 222.811 332.194 223.024H332.242C332.455 222.544 332.807 222.144 333.298 221.824C333.788 221.493 334.402 221.328 335.138 221.328C336.226 221.328 337.074 221.701 337.682 222.448C338.3 223.184 338.61 224.277 338.61 225.728C338.61 227.072 338.3 228.149 337.682 228.96C337.074 229.76 336.183 230.16 335.01 230.16C334.295 230.16 333.708 230.016 333.25 229.728C332.802 229.429 332.471 229.061 332.258 228.624H332.194L332.018 230H331.33V217.84H332.242V221.2ZM335.026 222.112C334.034 222.112 333.319 222.421 332.882 223.04C332.455 223.659 332.242 224.555 332.242 225.728V225.84C332.242 226.992 332.444 227.872 332.85 228.48C333.266 229.077 333.954 229.376 334.914 229.376C335.82 229.376 336.503 229.061 336.962 228.432C337.431 227.792 337.666 226.885 337.666 225.712C337.666 223.312 336.786 222.112 335.026 222.112Z" fill="#4F4F4F"/>
<path d="M343.932 221.344C344.892 221.344 345.606 221.579 346.076 222.048C346.545 222.517 346.78 223.259 346.78 224.272V230H346.092L345.932 228.56H345.884C345.574 229.04 345.196 229.429 344.748 229.728C344.31 230.016 343.697 230.16 342.908 230.16C342.086 230.16 341.441 229.957 340.972 229.552C340.502 229.136 340.268 228.544 340.268 227.776C340.268 226.923 340.614 226.277 341.308 225.84C342.001 225.392 343.009 225.141 344.332 225.088L345.884 225.008V224.416C345.884 223.584 345.713 222.992 345.372 222.64C345.041 222.288 344.55 222.112 343.9 222.112C343.462 222.112 343.041 222.171 342.636 222.288C342.23 222.405 341.825 222.56 341.42 222.752L341.132 222.016C341.537 221.824 341.974 221.664 342.444 221.536C342.924 221.408 343.42 221.344 343.932 221.344ZM344.444 225.76C343.356 225.813 342.545 226.005 342.012 226.336C341.489 226.656 341.228 227.136 341.228 227.776C341.228 228.309 341.388 228.715 341.708 228.992C342.038 229.259 342.492 229.392 343.068 229.392C343.953 229.392 344.641 229.141 345.132 228.64C345.622 228.128 345.873 227.424 345.884 226.528V225.696L344.444 225.76Z" fill="#4F4F4F"/>
<path d="M352.91 230.16C351.662 230.16 350.697 229.776 350.014 229.008C349.342 228.24 349.006 227.168 349.006 225.792C349.006 224.832 349.177 224.021 349.518 223.36C349.859 222.699 350.334 222.197 350.942 221.856C351.561 221.504 352.281 221.328 353.102 221.328C353.507 221.328 353.891 221.365 354.254 221.44C354.617 221.515 354.937 221.616 355.214 221.744L354.958 222.528C354.67 222.411 354.361 222.32 354.03 222.256C353.699 222.181 353.385 222.144 353.086 222.144C352.073 222.144 351.294 222.469 350.75 223.12C350.217 223.771 349.95 224.656 349.95 225.776C349.95 226.843 350.19 227.707 350.67 228.368C351.15 229.019 351.897 229.344 352.91 229.344C353.326 229.344 353.721 229.301 354.094 229.216C354.467 229.131 354.803 229.024 355.102 228.896V229.712C354.825 229.851 354.505 229.957 354.142 230.032C353.79 230.117 353.379 230.16 352.91 230.16Z" fill="#4F4F4F"/>
<path d="M358.007 224.016C358.007 224.357 358.002 224.715 357.991 225.088C357.981 225.451 357.975 225.808 357.975 226.16H357.991C358.13 226 358.285 225.813 358.455 225.6C358.637 225.387 358.807 225.189 358.967 225.008L362.199 221.488H363.303L359.927 225.136L363.575 230H362.487L359.303 225.728L358.007 227.04V230H357.111V217.84H358.007V224.016Z" fill="#4F4F4F"/>
<path d="M368.138 221.328C368.799 221.328 369.348 221.461 369.786 221.728C370.234 221.984 370.591 222.336 370.858 222.784H370.922L371.05 221.488H371.786V230.272C371.786 231.392 371.498 232.267 370.922 232.896C370.346 233.525 369.412 233.84 368.122 233.84C367.482 233.84 366.911 233.787 366.41 233.68C365.919 233.584 365.476 233.445 365.082 233.264V232.384C365.476 232.587 365.935 232.747 366.458 232.864C366.98 232.992 367.546 233.056 368.154 233.056C369.082 233.056 369.77 232.811 370.218 232.32C370.666 231.829 370.89 231.163 370.89 230.32V229.824C370.89 229.6 370.89 229.376 370.89 229.152C370.9 228.917 370.911 228.699 370.922 228.496H370.874C370.383 229.605 369.434 230.16 368.026 230.16C366.927 230.16 366.068 229.787 365.45 229.04C364.831 228.293 364.522 227.216 364.522 225.808C364.522 224.432 364.831 223.344 365.45 222.544C366.068 221.733 366.964 221.328 368.138 221.328ZM368.234 222.112C367.306 222.112 366.612 222.437 366.154 223.088C365.695 223.739 365.466 224.651 365.466 225.824C365.466 226.976 365.695 227.856 366.154 228.464C366.612 229.072 367.274 229.376 368.138 229.376C368.842 229.376 369.391 229.237 369.786 228.96C370.191 228.672 370.474 228.277 370.634 227.776C370.804 227.275 370.89 226.704 370.89 226.064V225.504C370.89 224.427 370.687 223.595 370.282 223.008C369.887 222.411 369.204 222.112 368.234 222.112Z" fill="#4F4F4F"/>
<path d="M378.1 221.344C378.516 221.344 378.9 221.387 379.252 221.472L379.108 222.32C378.766 222.224 378.414 222.176 378.052 222.176C377.273 222.176 376.654 222.464 376.196 223.04C375.737 223.616 375.508 224.379 375.508 225.328V230H374.596V221.488H375.364L375.46 223.072H375.508C375.721 222.592 376.046 222.187 376.484 221.856C376.921 221.515 377.46 221.344 378.1 221.344Z" fill="#4F4F4F"/>
<path d="M387.7 225.728C387.7 226.624 387.551 227.403 387.252 228.064C386.964 228.725 386.532 229.243 385.956 229.616C385.391 229.979 384.697 230.16 383.876 230.16C383.087 230.16 382.409 229.979 381.844 229.616C381.279 229.253 380.841 228.741 380.532 228.08C380.233 227.408 380.084 226.624 380.084 225.728C380.084 224.352 380.425 223.275 381.108 222.496C381.791 221.717 382.735 221.328 383.94 221.328C384.751 221.328 385.433 221.515 385.988 221.888C386.553 222.251 386.98 222.763 387.268 223.424C387.556 224.085 387.7 224.853 387.7 225.728ZM381.028 225.728C381.028 226.827 381.257 227.712 381.716 228.384C382.185 229.045 382.911 229.376 383.892 229.376C384.884 229.376 385.609 229.04 386.068 228.368C386.527 227.696 386.756 226.816 386.756 225.728C386.756 225.024 386.66 224.4 386.468 223.856C386.276 223.312 385.972 222.885 385.556 222.576C385.14 222.267 384.596 222.112 383.924 222.112C382.964 222.112 382.239 222.432 381.748 223.072C381.268 223.712 381.028 224.597 381.028 225.728Z" fill="#4F4F4F"/>
<path d="M396.722 221.488V230H395.986L395.842 228.544H395.794C395.559 229.013 395.196 229.403 394.706 229.712C394.226 230.011 393.623 230.16 392.898 230.16C390.903 230.16 389.906 229.125 389.906 227.056V221.488H390.818V226.976C390.818 227.797 390.999 228.405 391.362 228.8C391.735 229.184 392.284 229.376 393.01 229.376C394.876 229.376 395.81 228.293 395.81 226.128V221.488H396.722Z" fill="#4F4F4F"/>
<path d="M403.357 221.328C404.327 221.328 405.069 221.579 405.581 222.08C406.093 222.581 406.349 223.365 406.349 224.432V230H405.453V224.496C405.453 223.685 405.266 223.088 404.893 222.704C404.519 222.309 403.975 222.112 403.261 222.112C401.394 222.112 400.461 223.195 400.461 225.36V230H399.549V221.488H400.285L400.413 222.96H400.477C400.701 222.491 401.058 222.101 401.549 221.792C402.039 221.483 402.642 221.328 403.357 221.328Z" fill="#4F4F4F"/>
<path d="M412.136 230.16C410.995 230.16 410.115 229.797 409.496 229.072C408.888 228.336 408.584 227.253 408.584 225.824C408.584 224.363 408.904 223.248 409.544 222.48C410.184 221.712 411.075 221.328 412.216 221.328C412.931 221.328 413.507 221.488 413.944 221.808C414.392 222.117 414.728 222.496 414.952 222.944H415.016C415.005 222.699 414.989 222.427 414.968 222.128C414.957 221.819 414.952 221.536 414.952 221.28V217.84H415.864V230H415.128L415 228.512H414.952C414.728 228.971 414.392 229.36 413.944 229.68C413.496 230 412.893 230.16 412.136 230.16ZM412.248 229.376C413.229 229.376 413.928 229.077 414.344 228.48C414.76 227.883 414.968 227.019 414.968 225.888V225.744C414.968 224.571 414.76 223.675 414.344 223.056C413.939 222.427 413.261 222.112 412.312 222.112C411.395 222.112 410.701 222.437 410.232 223.088C409.763 223.728 409.528 224.645 409.528 225.84C409.528 226.992 409.752 227.872 410.2 228.48C410.648 229.077 411.331 229.376 412.248 229.376Z" fill="#4F4F4F"/>
<path d="M299.448 304.576C302.189 304.576 303.56 305.653 303.56 307.808C303.56 308.907 303.203 309.771 302.488 310.4C301.784 311.019 300.691 311.328 299.208 311.328H297.528V316H296.6V304.576H299.448ZM299.352 305.392H297.528V310.512H299.112C300.211 310.512 301.064 310.32 301.672 309.936C302.291 309.552 302.6 308.859 302.6 307.856C302.6 307.003 302.333 306.379 301.8 305.984C301.277 305.589 300.461 305.392 299.352 305.392Z" fill="#4F4F4F"/>
<path d="M306.742 307.728C306.742 307.952 306.737 308.165 306.726 308.368C306.715 308.571 306.699 308.768 306.678 308.96H306.742C306.966 308.491 307.318 308.101 307.798 307.792C308.289 307.483 308.897 307.328 309.622 307.328C310.603 307.328 311.35 307.579 311.862 308.08C312.374 308.581 312.63 309.365 312.63 310.432V316H311.734V310.496C311.734 309.685 311.547 309.088 311.174 308.704C310.801 308.309 310.257 308.112 309.542 308.112C307.675 308.112 306.742 309.195 306.742 311.36V316H305.83V303.84H306.742V307.728Z" fill="#4F4F4F"/>
<path d="M322.481 311.728C322.481 312.624 322.332 313.403 322.033 314.064C321.745 314.725 321.313 315.243 320.737 315.616C320.172 315.979 319.479 316.16 318.657 316.16C317.868 316.16 317.191 315.979 316.625 315.616C316.06 315.253 315.623 314.741 315.313 314.08C315.015 313.408 314.865 312.624 314.865 311.728C314.865 310.352 315.207 309.275 315.889 308.496C316.572 307.717 317.516 307.328 318.721 307.328C319.532 307.328 320.215 307.515 320.769 307.888C321.335 308.251 321.761 308.763 322.049 309.424C322.337 310.085 322.481 310.853 322.481 311.728ZM315.809 311.728C315.809 312.827 316.039 313.712 316.497 314.384C316.967 315.045 317.692 315.376 318.673 315.376C319.665 315.376 320.391 315.04 320.849 314.368C321.308 313.696 321.537 312.816 321.537 311.728C321.537 311.024 321.441 310.4 321.249 309.856C321.057 309.312 320.753 308.885 320.337 308.576C319.921 308.267 319.377 308.112 318.705 308.112C317.745 308.112 317.02 308.432 316.529 309.072C316.049 309.712 315.809 310.597 315.809 311.728Z" fill="#4F4F4F"/>
<path d="M327.199 315.376C327.433 315.376 327.657 315.36 327.871 315.328C328.084 315.296 328.271 315.248 328.431 315.184V315.92C328.271 315.984 328.073 316.037 327.839 316.08C327.604 316.133 327.353 316.16 327.087 316.16C326.372 316.16 325.823 315.963 325.439 315.568C325.055 315.173 324.863 314.528 324.863 313.632V308.224H323.599V307.712L324.863 307.408L325.183 305.456H325.775V307.488H328.383V308.224H325.775V313.584C325.775 314.779 326.249 315.376 327.199 315.376Z" fill="#4F4F4F"/>
<path d="M337.356 311.728C337.356 312.624 337.207 313.403 336.908 314.064C336.62 314.725 336.188 315.243 335.612 315.616C335.047 315.979 334.354 316.16 333.532 316.16C332.743 316.16 332.066 315.979 331.5 315.616C330.935 315.253 330.498 314.741 330.188 314.08C329.89 313.408 329.74 312.624 329.74 311.728C329.74 310.352 330.082 309.275 330.764 308.496C331.447 307.717 332.391 307.328 333.596 307.328C334.407 307.328 335.09 307.515 335.644 307.888C336.21 308.251 336.636 308.763 336.924 309.424C337.212 310.085 337.356 310.853 337.356 311.728ZM330.684 311.728C330.684 312.827 330.914 313.712 331.372 314.384C331.842 315.045 332.567 315.376 333.548 315.376C334.54 315.376 335.266 315.04 335.724 314.368C336.183 313.696 336.412 312.816 336.412 311.728C336.412 311.024 336.316 310.4 336.124 309.856C335.932 309.312 335.628 308.885 335.212 308.576C334.796 308.267 334.252 308.112 333.58 308.112C332.62 308.112 331.895 308.432 331.404 309.072C330.924 309.712 330.684 310.597 330.684 311.728Z" fill="#4F4F4F"/>
<path d="M342.794 307.328C343.455 307.328 344.004 307.461 344.442 307.728C344.89 307.984 345.247 308.336 345.514 308.784H345.578L345.706 307.488H346.442V316.272C346.442 317.392 346.154 318.267 345.578 318.896C345.002 319.525 344.068 319.84 342.778 319.84C342.138 319.84 341.567 319.787 341.066 319.68C340.575 319.584 340.132 319.445 339.738 319.264V318.384C340.132 318.587 340.591 318.747 341.114 318.864C341.636 318.992 342.202 319.056 342.81 319.056C343.738 319.056 344.426 318.811 344.874 318.32C345.322 317.829 345.546 317.163 345.546 316.32V315.824C345.546 315.6 345.546 315.376 345.546 315.152C345.556 314.917 345.567 314.699 345.578 314.496H345.53C345.039 315.605 344.09 316.16 342.682 316.16C341.583 316.16 340.724 315.787 340.106 315.04C339.487 314.293 339.178 313.216 339.178 311.808C339.178 310.432 339.487 309.344 340.106 308.544C340.724 307.733 341.62 307.328 342.794 307.328ZM342.89 308.112C341.962 308.112 341.268 308.437 340.81 309.088C340.351 309.739 340.122 310.651 340.122 311.824C340.122 312.976 340.351 313.856 340.81 314.464C341.268 315.072 341.93 315.376 342.794 315.376C343.498 315.376 344.047 315.237 344.442 314.96C344.847 314.672 345.13 314.277 345.29 313.776C345.46 313.275 345.546 312.704 345.546 312.064V311.504C345.546 310.427 345.343 309.595 344.938 309.008C344.543 308.411 343.86 308.112 342.89 308.112Z" fill="#4F4F4F"/>
<path d="M352.756 307.344C353.172 307.344 353.556 307.387 353.908 307.472L353.764 308.32C353.423 308.224 353.071 308.176 352.708 308.176C351.929 308.176 351.311 308.464 350.852 309.04C350.393 309.616 350.164 310.379 350.164 311.328V316H349.252V307.488H350.02L350.116 309.072H350.164C350.377 308.592 350.703 308.187 351.14 307.856C351.577 307.515 352.116 307.344 352.756 307.344Z" fill="#4F4F4F"/>
<path d="M358.244 307.344C359.204 307.344 359.919 307.579 360.388 308.048C360.858 308.517 361.092 309.259 361.092 310.272V316H360.404L360.244 314.56H360.196C359.887 315.04 359.508 315.429 359.06 315.728C358.623 316.016 358.01 316.16 357.22 316.16C356.399 316.16 355.754 315.957 355.284 315.552C354.815 315.136 354.58 314.544 354.58 313.776C354.58 312.923 354.927 312.277 355.62 311.84C356.314 311.392 357.322 311.141 358.644 311.088L360.196 311.008V310.416C360.196 309.584 360.026 308.992 359.684 308.64C359.354 308.288 358.863 308.112 358.212 308.112C357.775 308.112 357.354 308.171 356.948 308.288C356.543 308.405 356.138 308.56 355.732 308.752L355.444 308.016C355.85 307.824 356.287 307.664 356.756 307.536C357.236 307.408 357.732 307.344 358.244 307.344ZM358.756 311.76C357.668 311.813 356.858 312.005 356.324 312.336C355.802 312.656 355.54 313.136 355.54 313.776C355.54 314.309 355.7 314.715 356.02 314.992C356.351 315.259 356.804 315.392 357.38 315.392C358.266 315.392 358.954 315.141 359.444 314.64C359.935 314.128 360.186 313.424 360.196 312.528V311.696L358.756 311.76Z" fill="#4F4F4F"/>
<path d="M367.638 307.328C368.726 307.328 369.574 307.696 370.182 308.432C370.79 309.168 371.094 310.256 371.094 311.696C371.094 313.136 370.774 314.24 370.134 315.008C369.505 315.776 368.641 316.16 367.542 316.16C366.796 316.16 366.193 316 365.734 315.68C365.276 315.36 364.94 314.976 364.726 314.528H364.662C364.684 314.795 364.7 315.088 364.71 315.408C364.721 315.717 364.726 316.005 364.726 316.272V319.776H363.814V307.488H364.566L364.678 309.072H364.726C364.94 308.613 365.281 308.208 365.75 307.856C366.22 307.504 366.849 307.328 367.638 307.328ZM367.51 308.112C366.561 308.112 365.862 308.411 365.414 309.008C364.966 309.605 364.737 310.464 364.726 311.584V311.744C364.726 312.96 364.945 313.872 365.382 314.48C365.83 315.077 366.518 315.376 367.446 315.376C368.321 315.376 368.988 315.051 369.446 314.4C369.916 313.739 370.15 312.832 370.15 311.68C370.15 310.539 369.926 309.659 369.478 309.04C369.041 308.421 368.385 308.112 367.51 308.112Z" fill="#4F4F4F"/>
<path d="M374.304 307.728C374.304 307.952 374.299 308.165 374.288 308.368C374.278 308.571 374.262 308.768 374.24 308.96H374.304C374.528 308.491 374.88 308.101 375.36 307.792C375.851 307.483 376.459 307.328 377.184 307.328C378.166 307.328 378.912 307.579 379.424 308.08C379.936 308.581 380.192 309.365 380.192 310.432V316H379.296V310.496C379.296 309.685 379.11 309.088 378.736 308.704C378.363 308.309 377.819 308.112 377.104 308.112C375.238 308.112 374.304 309.195 374.304 311.36V316H373.392V303.84H374.304V307.728Z" fill="#4F4F4F"/>
<path d="M381.532 307.488H382.492L384.524 312.768C384.694 313.248 384.844 313.675 384.972 314.048C385.1 314.411 385.201 314.736 385.276 315.024H385.324C385.484 314.491 385.734 313.749 386.076 312.8L388.06 307.488H389.036L385.196 317.504C384.908 318.261 384.566 318.843 384.172 319.248C383.777 319.653 383.244 319.856 382.572 319.856C382.369 319.856 382.182 319.845 382.012 319.824C381.852 319.803 381.702 319.765 381.564 319.712V318.944C381.692 318.987 381.83 319.019 381.98 319.04C382.129 319.072 382.289 319.088 382.46 319.088C382.908 319.088 383.27 318.949 383.548 318.672C383.836 318.395 384.092 317.968 384.316 317.392L384.86 315.968L381.532 307.488Z" fill="#4F4F4F"/>
<path d="M302.936 399.024C302.936 399.707 302.765 400.283 302.424 400.752C302.082 401.221 301.613 401.573 301.016 401.808C300.418 402.043 299.741 402.16 298.984 402.16C298.29 402.16 297.688 402.112 297.176 402.016C296.664 401.92 296.226 401.797 295.864 401.648V400.736C296.258 400.896 296.728 401.035 297.272 401.152C297.816 401.269 298.402 401.328 299.032 401.328C299.906 401.328 300.616 401.141 301.16 400.768C301.714 400.395 301.992 399.835 301.992 399.088C301.992 398.64 301.885 398.272 301.672 397.984C301.469 397.685 301.149 397.429 300.712 397.216C300.285 396.992 299.736 396.768 299.064 396.544C298.424 396.331 297.874 396.091 297.416 395.824C296.957 395.557 296.605 395.227 296.36 394.832C296.114 394.427 295.992 393.92 295.992 393.312C295.992 392.693 296.146 392.171 296.456 391.744C296.776 391.307 297.208 390.976 297.752 390.752C298.306 390.528 298.936 390.416 299.64 390.416C300.194 390.416 300.722 390.469 301.224 390.576C301.725 390.683 302.2 390.832 302.648 391.024L302.344 391.824C301.426 391.44 300.514 391.248 299.608 391.248C298.818 391.248 298.173 391.424 297.672 391.776C297.181 392.117 296.936 392.624 296.936 393.296C296.936 393.787 297.042 394.181 297.256 394.48C297.469 394.768 297.778 395.013 298.184 395.216C298.589 395.419 299.085 395.621 299.672 395.824C300.344 396.059 300.92 396.304 301.4 396.56C301.89 396.816 302.269 397.141 302.536 397.536C302.802 397.92 302.936 398.416 302.936 399.024Z" fill="#4F4F4F"/>
<path d="M308.374 393.328C309.099 393.328 309.702 393.499 310.182 393.84C310.673 394.171 311.041 394.629 311.286 395.216C311.542 395.803 311.67 396.475 311.67 397.232V397.856H305.59C305.59 398.987 305.851 399.856 306.374 400.464C306.907 401.061 307.665 401.36 308.646 401.36C309.169 401.36 309.627 401.317 310.022 401.232C310.417 401.136 310.849 400.987 311.318 400.784V401.616C310.891 401.808 310.47 401.947 310.054 402.032C309.638 402.117 309.158 402.16 308.614 402.16C307.334 402.16 306.353 401.771 305.67 400.992C304.987 400.213 304.646 399.152 304.646 397.808C304.646 396.944 304.79 396.176 305.078 395.504C305.377 394.832 305.803 394.304 306.358 393.92C306.913 393.525 307.585 393.328 308.374 393.328ZM308.358 394.096C307.579 394.096 306.945 394.357 306.454 394.88C305.974 395.403 305.697 396.144 305.622 397.104H310.726C310.726 396.208 310.529 395.483 310.134 394.928C309.75 394.373 309.158 394.096 308.358 394.096Z" fill="#4F4F4F"/>
<path d="M322.866 393.328C323.709 393.328 324.365 393.568 324.834 394.048C325.314 394.528 325.554 395.285 325.554 396.32V402H324.658V396.352C324.658 395.595 324.482 395.035 324.13 394.672C323.789 394.299 323.325 394.112 322.738 394.112C321.928 394.112 321.304 394.352 320.866 394.832C320.429 395.301 320.21 396.032 320.21 397.024V402H319.314V396.352C319.314 395.595 319.138 395.035 318.786 394.672C318.445 394.299 317.981 394.112 317.394 394.112C316.584 394.112 315.96 394.363 315.522 394.864C315.096 395.365 314.882 396.133 314.882 397.168V402H313.97V393.488H314.706L314.834 394.832H314.898C315.112 394.416 315.432 394.064 315.858 393.776C316.296 393.477 316.85 393.328 317.522 393.328C318.141 393.328 318.664 393.461 319.09 393.728C319.517 393.995 319.821 394.389 320.002 394.912H320.05C320.296 394.411 320.658 394.021 321.138 393.744C321.629 393.467 322.205 393.328 322.866 393.328Z" fill="#4F4F4F"/>
<path d="M331.275 393.344C332.235 393.344 332.95 393.579 333.419 394.048C333.888 394.517 334.123 395.259 334.123 396.272V402H333.435L333.275 400.56H333.227C332.918 401.04 332.539 401.429 332.091 401.728C331.654 402.016 331.04 402.16 330.251 402.16C329.43 402.16 328.784 401.957 328.315 401.552C327.846 401.136 327.611 400.544 327.611 399.776C327.611 398.923 327.958 398.277 328.651 397.84C329.344 397.392 330.352 397.141 331.675 397.088L333.227 397.008V396.416C333.227 395.584 333.056 394.992 332.715 394.64C332.384 394.288 331.894 394.112 331.243 394.112C330.806 394.112 330.384 394.171 329.979 394.288C329.574 394.405 329.168 394.56 328.763 394.752L328.475 394.016C328.88 393.824 329.318 393.664 329.787 393.536C330.267 393.408 330.763 393.344 331.275 393.344ZM331.787 397.76C330.699 397.813 329.888 398.005 329.355 398.336C328.832 398.656 328.571 399.136 328.571 399.776C328.571 400.309 328.731 400.715 329.051 400.992C329.382 401.259 329.835 401.392 330.411 401.392C331.296 401.392 331.984 401.141 332.475 400.64C332.966 400.128 333.216 399.424 333.227 398.528V397.696L331.787 397.76Z" fill="#4F4F4F"/>
<path d="M340.653 393.328C341.624 393.328 342.365 393.579 342.877 394.08C343.389 394.581 343.645 395.365 343.645 396.432V402H342.749V396.496C342.749 395.685 342.563 395.088 342.189 394.704C341.816 394.309 341.272 394.112 340.557 394.112C338.691 394.112 337.757 395.195 337.757 397.36V402H336.845V393.488H337.581L337.709 394.96H337.773C337.997 394.491 338.355 394.101 338.845 393.792C339.336 393.483 339.939 393.328 340.653 393.328Z" fill="#4F4F4F"/>
<path d="M348.777 401.376C349.011 401.376 349.235 401.36 349.449 401.328C349.662 401.296 349.849 401.248 350.009 401.184V401.92C349.849 401.984 349.651 402.037 349.417 402.08C349.182 402.133 348.931 402.16 348.665 402.16C347.95 402.16 347.401 401.963 347.017 401.568C346.633 401.173 346.441 400.528 346.441 399.632V394.224H345.177V393.712L346.441 393.408L346.761 391.456H347.353V393.488H349.961V394.224H347.353V399.584C347.353 400.779 347.827 401.376 348.777 401.376Z" fill="#4F4F4F"/>
<path d="M352.278 390.336C352.694 390.336 352.902 390.565 352.902 391.024C352.902 391.493 352.694 391.728 352.278 391.728C351.862 391.728 351.654 391.493 351.654 391.024C351.654 390.565 351.862 390.336 352.278 390.336ZM352.726 393.488V402H351.814V393.488H352.726Z" fill="#4F4F4F"/>
<path d="M358.956 402.16C357.708 402.16 356.743 401.776 356.06 401.008C355.388 400.24 355.052 399.168 355.052 397.792C355.052 396.832 355.223 396.021 355.564 395.36C355.906 394.699 356.38 394.197 356.988 393.856C357.607 393.504 358.327 393.328 359.148 393.328C359.554 393.328 359.938 393.365 360.3 393.44C360.663 393.515 360.983 393.616 361.26 393.744L361.004 394.528C360.716 394.411 360.407 394.32 360.076 394.256C359.746 394.181 359.431 394.144 359.132 394.144C358.119 394.144 357.34 394.469 356.796 395.12C356.263 395.771 355.996 396.656 355.996 397.776C355.996 398.843 356.236 399.707 356.716 400.368C357.196 401.019 357.943 401.344 358.956 401.344C359.372 401.344 359.767 401.301 360.14 401.216C360.514 401.131 360.85 401.024 361.148 400.896V401.712C360.871 401.851 360.551 401.957 360.188 402.032C359.836 402.117 359.426 402.16 358.956 402.16Z" fill="#4F4F4F"/>
<path d="M370.722 402.16C369.474 402.16 368.509 401.776 367.826 401.008C367.154 400.24 366.818 399.168 366.818 397.792C366.818 396.832 366.989 396.021 367.33 395.36C367.671 394.699 368.146 394.197 368.754 393.856C369.373 393.504 370.093 393.328 370.914 393.328C371.319 393.328 371.703 393.365 372.066 393.44C372.429 393.515 372.749 393.616 373.026 393.744L372.77 394.528C372.482 394.411 372.173 394.32 371.842 394.256C371.511 394.181 371.197 394.144 370.898 394.144C369.885 394.144 369.106 394.469 368.562 395.12C368.029 395.771 367.762 396.656 367.762 397.776C367.762 398.843 368.002 399.707 368.482 400.368C368.962 401.019 369.709 401.344 370.722 401.344C371.138 401.344 371.533 401.301 371.906 401.216C372.279 401.131 372.615 401.024 372.914 400.896V401.712C372.637 401.851 372.317 401.957 371.954 402.032C371.602 402.117 371.191 402.16 370.722 402.16Z" fill="#4F4F4F"/>
<path d="M382.043 397.728C382.043 398.624 381.894 399.403 381.595 400.064C381.307 400.725 380.875 401.243 380.299 401.616C379.734 401.979 379.041 402.16 378.219 402.16C377.43 402.16 376.753 401.979 376.187 401.616C375.622 401.253 375.185 400.741 374.875 400.08C374.577 399.408 374.427 398.624 374.427 397.728C374.427 396.352 374.769 395.275 375.451 394.496C376.134 393.717 377.078 393.328 378.283 393.328C379.094 393.328 379.777 393.515 380.331 393.888C380.897 394.251 381.323 394.763 381.611 395.424C381.899 396.085 382.043 396.853 382.043 397.728ZM375.371 397.728C375.371 398.827 375.601 399.712 376.059 400.384C376.529 401.045 377.254 401.376 378.235 401.376C379.227 401.376 379.953 401.04 380.411 400.368C380.87 399.696 381.099 398.816 381.099 397.728C381.099 397.024 381.003 396.4 380.811 395.856C380.619 395.312 380.315 394.885 379.899 394.576C379.483 394.267 378.939 394.112 378.267 394.112C377.307 394.112 376.582 394.432 376.091 395.072C375.611 395.712 375.371 396.597 375.371 397.728Z" fill="#4F4F4F"/>
<path d="M385.273 402H384.361V389.84H385.273V402Z" fill="#4F4F4F"/>
<path d="M395.215 397.728C395.215 398.624 395.066 399.403 394.767 400.064C394.479 400.725 394.047 401.243 393.471 401.616C392.906 401.979 392.213 402.16 391.391 402.16C390.602 402.16 389.925 401.979 389.359 401.616C388.794 401.253 388.357 400.741 388.047 400.08C387.749 399.408 387.599 398.624 387.599 397.728C387.599 396.352 387.941 395.275 388.623 394.496C389.306 393.717 390.25 393.328 391.455 393.328C392.266 393.328 392.949 393.515 393.503 393.888C394.069 394.251 394.495 394.763 394.783 395.424C395.071 396.085 395.215 396.853 395.215 397.728ZM388.543 397.728C388.543 398.827 388.773 399.712 389.231 400.384C389.701 401.045 390.426 401.376 391.407 401.376C392.399 401.376 393.125 401.04 393.583 400.368C394.042 399.696 394.271 398.816 394.271 397.728C394.271 397.024 394.175 396.4 393.983 395.856C393.791 395.312 393.487 394.885 393.071 394.576C392.655 394.267 392.111 394.112 391.439 394.112C390.479 394.112 389.754 394.432 389.263 395.072C388.783 395.712 388.543 396.597 388.543 397.728Z" fill="#4F4F4F"/>
<path d="M404.237 393.488V402H403.501L403.357 400.544H403.309C403.074 401.013 402.711 401.403 402.221 401.712C401.741 402.011 401.138 402.16 400.413 402.16C398.418 402.16 397.421 401.125 397.421 399.056V393.488H398.333V398.976C398.333 399.797 398.514 400.405 398.877 400.8C399.25 401.184 399.799 401.376 400.525 401.376C402.391 401.376 403.325 400.293 403.325 398.128V393.488H404.237Z" fill="#4F4F4F"/>
<path d="M410.568 393.344C410.984 393.344 411.368 393.387 411.72 393.472L411.576 394.32C411.235 394.224 410.883 394.176 410.52 394.176C409.741 394.176 409.123 394.464 408.664 395.04C408.205 395.616 407.976 396.379 407.976 397.328V402H407.064V393.488H407.832L407.928 395.072H407.976C408.189 394.592 408.515 394.187 408.952 393.856C409.389 393.515 409.928 393.344 410.568 393.344Z" fill="#4F4F4F"/>
<path d="M418.721 399.744C418.721 400.512 418.433 401.109 417.857 401.536C417.281 401.952 416.47 402.16 415.425 402.16C414.828 402.16 414.3 402.107 413.841 402C413.382 401.904 412.998 401.776 412.689 401.616V400.736C413.062 400.928 413.489 401.088 413.969 401.216C414.449 401.333 414.94 401.392 415.441 401.392C416.273 401.392 416.876 401.253 417.249 400.976C417.633 400.688 417.825 400.299 417.825 399.808C417.825 399.339 417.628 398.981 417.233 398.736C416.838 398.48 416.257 398.219 415.489 397.952C414.956 397.771 414.486 397.589 414.081 397.408C413.686 397.216 413.377 396.976 413.153 396.688C412.929 396.4 412.817 396.005 412.817 395.504C412.817 394.821 413.094 394.288 413.649 393.904C414.204 393.52 414.945 393.328 415.873 393.328C416.385 393.328 416.86 393.376 417.297 393.472C417.745 393.568 418.156 393.696 418.529 393.856L418.193 394.608C417.862 394.469 417.489 394.352 417.073 394.256C416.657 394.149 416.241 394.096 415.825 394.096C415.153 394.096 414.63 394.213 414.257 394.448C413.884 394.683 413.697 395.024 413.697 395.472C413.697 395.813 413.788 396.085 413.969 396.288C414.15 396.48 414.412 396.645 414.753 396.784C415.094 396.923 415.51 397.077 416.001 397.248C416.513 397.429 416.972 397.616 417.377 397.808C417.782 398 418.108 398.245 418.353 398.544C418.598 398.843 418.721 399.243 418.721 399.744Z" fill="#4F4F4F"/>
<path d="M193.048 229.576L189.944 241H189.032L186.632 232.6C186.515 232.216 186.413 231.864 186.328 231.544C186.243 231.213 186.179 230.941 186.136 230.728C186.104 230.931 186.051 231.187 185.976 231.496C185.912 231.795 185.832 232.109 185.736 232.44L183.352 241H182.44L179.368 229.576H180.328L182.408 237.416C182.515 237.864 182.611 238.275 182.696 238.648C182.792 239.011 182.872 239.368 182.936 239.72C183 239.357 183.075 238.984 183.16 238.6C183.245 238.216 183.352 237.805 183.48 237.368L185.688 229.576H186.632L188.904 237.416C189.032 237.875 189.139 238.296 189.224 238.68C189.32 239.053 189.4 239.411 189.464 239.752C189.517 239.4 189.581 239.043 189.656 238.68C189.741 238.307 189.848 237.885 189.976 237.416L192.088 229.576H193.048Z" fill="#4F4F4F"/>
<path d="M197.51 232.344C198.47 232.344 199.185 232.579 199.654 233.048C200.123 233.517 200.358 234.259 200.358 235.272V241H199.67L199.51 239.56H199.462C199.153 240.04 198.774 240.429 198.326 240.728C197.889 241.016 197.275 241.16 196.486 241.16C195.665 241.16 195.019 240.957 194.55 240.552C194.081 240.136 193.846 239.544 193.846 238.776C193.846 237.923 194.193 237.277 194.886 236.84C195.579 236.392 196.587 236.141 197.91 236.088L199.462 236.008V235.416C199.462 234.584 199.291 233.992 198.95 233.64C198.619 233.288 198.129 233.112 197.478 233.112C197.041 233.112 196.619 233.171 196.214 233.288C195.809 233.405 195.403 233.56 194.998 233.752L194.71 233.016C195.115 232.824 195.553 232.664 196.022 232.536C196.502 232.408 196.998 232.344 197.51 232.344ZM198.022 236.76C196.934 236.813 196.123 237.005 195.59 237.336C195.067 237.656 194.806 238.136 194.806 238.776C194.806 239.309 194.966 239.715 195.286 239.992C195.617 240.259 196.07 240.392 196.646 240.392C197.531 240.392 198.219 240.141 198.71 239.64C199.201 239.128 199.451 238.424 199.462 237.528V236.696L198.022 236.76Z" fill="#4F4F4F"/>
<path d="M206.584 232.344C207 232.344 207.384 232.387 207.736 232.472L207.592 233.32C207.251 233.224 206.899 233.176 206.536 233.176C205.757 233.176 205.139 233.464 204.68 234.04C204.221 234.616 203.992 235.379 203.992 236.328V241H203.08V232.488H203.848L203.944 234.072H203.992C204.205 233.592 204.531 233.187 204.968 232.856C205.405 232.515 205.944 232.344 206.584 232.344Z" fill="#4F4F4F"/>
<path d="M213.185 232.328C214.156 232.328 214.897 232.579 215.409 233.08C215.921 233.581 216.177 234.365 216.177 235.432V241H215.281V235.496C215.281 234.685 215.094 234.088 214.721 233.704C214.348 233.309 213.804 233.112 213.089 233.112C211.222 233.112 210.289 234.195 210.289 236.36V241H209.377V232.488H210.113L210.241 233.96H210.305C210.529 233.491 210.886 233.101 211.377 232.792C211.868 232.483 212.47 232.328 213.185 232.328Z" fill="#4F4F4F"/>
<path d="M219.372 229.336C219.788 229.336 219.996 229.565 219.996 230.024C219.996 230.493 219.788 230.728 219.372 230.728C218.956 230.728 218.748 230.493 218.748 230.024C218.748 229.565 218.956 229.336 219.372 229.336ZM219.82 232.488V241H218.908V232.488H219.82Z" fill="#4F4F4F"/>
<path d="M226.451 232.328C227.421 232.328 228.163 232.579 228.675 233.08C229.187 233.581 229.443 234.365 229.443 235.432V241H228.547V235.496C228.547 234.685 228.36 234.088 227.987 233.704C227.613 233.309 227.069 233.112 226.355 233.112C224.488 233.112 223.555 234.195 223.555 236.36V241H222.643V232.488H223.379L223.507 233.96H223.571C223.795 233.491 224.152 233.101 224.643 232.792C225.133 232.483 225.736 232.328 226.451 232.328Z" fill="#4F4F4F"/>
<path d="M235.294 232.328C235.955 232.328 236.504 232.461 236.942 232.728C237.39 232.984 237.747 233.336 238.014 233.784H238.078L238.206 232.488H238.942V241.272C238.942 242.392 238.654 243.267 238.078 243.896C237.502 244.525 236.568 244.84 235.278 244.84C234.638 244.84 234.067 244.787 233.566 244.68C233.075 244.584 232.632 244.445 232.238 244.264V243.384C232.632 243.587 233.091 243.747 233.614 243.864C234.136 243.992 234.702 244.056 235.31 244.056C236.238 244.056 236.926 243.811 237.374 243.32C237.822 242.829 238.046 242.163 238.046 241.32V240.824C238.046 240.6 238.046 240.376 238.046 240.152C238.056 239.917 238.067 239.699 238.078 239.496H238.03C237.539 240.605 236.59 241.16 235.182 241.16C234.083 241.16 233.224 240.787 232.606 240.04C231.987 239.293 231.678 238.216 231.678 236.808C231.678 235.432 231.987 234.344 232.606 233.544C233.224 232.733 234.12 232.328 235.294 232.328ZM235.39 233.112C234.462 233.112 233.768 233.437 233.31 234.088C232.851 234.739 232.622 235.651 232.622 236.824C232.622 237.976 232.851 238.856 233.31 239.464C233.768 240.072 234.43 240.376 235.294 240.376C235.998 240.376 236.547 240.237 236.942 239.96C237.347 239.672 237.63 239.277 237.79 238.776C237.96 238.275 238.046 237.704 238.046 237.064V236.504C238.046 235.427 237.843 234.595 237.438 234.008C237.043 233.411 236.36 233.112 235.39 233.112Z" fill="#4F4F4F"/>
<path d="M190.384 293.176C190.384 295.096 189.872 296.547 188.848 297.528C187.835 298.51 186.363 299 184.432 299H181.6V287.576H184.784C186.587 287.576 187.968 288.056 188.928 289.016C189.899 289.966 190.384 291.352 190.384 293.176ZM189.408 293.208C189.408 289.998 187.803 288.392 184.592 288.392H182.528V298.184H184.352C187.723 298.184 189.408 296.526 189.408 293.208Z" fill="#4F4F4F"/>
<path d="M195.791 290.344C196.751 290.344 197.466 290.579 197.935 291.048C198.404 291.518 198.639 292.259 198.639 293.272V299H197.951L197.791 297.56H197.743C197.434 298.04 197.055 298.43 196.607 298.728C196.17 299.016 195.556 299.16 194.767 299.16C193.946 299.16 193.3 298.958 192.831 298.552C192.362 298.136 192.127 297.544 192.127 296.776C192.127 295.923 192.474 295.278 193.167 294.84C193.86 294.392 194.868 294.142 196.191 294.088L197.743 294.008V293.416C197.743 292.584 197.572 291.992 197.231 291.64C196.9 291.288 196.41 291.112 195.759 291.112C195.322 291.112 194.9 291.171 194.495 291.288C194.09 291.406 193.684 291.56 193.279 291.752L192.991 291.016C193.396 290.824 193.834 290.664 194.303 290.536C194.783 290.408 195.279 290.344 195.791 290.344ZM196.303 294.76C195.215 294.814 194.404 295.006 193.871 295.336C193.348 295.656 193.087 296.136 193.087 296.776C193.087 297.31 193.247 297.715 193.567 297.992C193.898 298.259 194.351 298.392 194.927 298.392C195.812 298.392 196.5 298.142 196.991 297.64C197.482 297.128 197.732 296.424 197.743 295.528V294.696L196.303 294.76Z" fill="#4F4F4F"/>
<path d="M205.169 290.328C206.14 290.328 206.881 290.579 207.393 291.08C207.905 291.582 208.161 292.366 208.161 293.432V299H207.265V293.496C207.265 292.686 207.079 292.088 206.705 291.704C206.332 291.31 205.788 291.112 205.073 291.112C203.207 291.112 202.273 292.195 202.273 294.36V299H201.361V290.488H202.097L202.225 291.96H202.289C202.513 291.491 202.871 291.102 203.361 290.792C203.852 290.483 204.455 290.328 205.169 290.328Z" fill="#4F4F4F"/>
<path d="M214.012 290.328C214.674 290.328 215.223 290.462 215.66 290.728C216.108 290.984 216.466 291.336 216.732 291.784H216.796L216.924 290.488H217.66V299.272C217.66 300.392 217.372 301.267 216.796 301.896C216.22 302.526 215.287 302.84 213.996 302.84C213.356 302.84 212.786 302.787 212.284 302.68C211.794 302.584 211.351 302.446 210.956 302.264V301.384C211.351 301.587 211.81 301.747 212.332 301.864C212.855 301.992 213.42 302.056 214.028 302.056C214.956 302.056 215.644 301.811 216.092 301.32C216.54 300.83 216.764 300.163 216.764 299.32V298.824C216.764 298.6 216.764 298.376 216.764 298.152C216.775 297.918 216.786 297.699 216.796 297.496H216.748C216.258 298.606 215.308 299.16 213.9 299.16C212.802 299.16 211.943 298.787 211.324 298.04C210.706 297.294 210.396 296.216 210.396 294.808C210.396 293.432 210.706 292.344 211.324 291.544C211.943 290.734 212.839 290.328 214.012 290.328ZM214.108 291.112C213.18 291.112 212.487 291.438 212.028 292.088C211.57 292.739 211.34 293.651 211.34 294.824C211.34 295.976 211.57 296.856 212.028 297.464C212.487 298.072 213.148 298.376 214.012 298.376C214.716 298.376 215.266 298.238 215.66 297.96C216.066 297.672 216.348 297.278 216.508 296.776C216.679 296.275 216.764 295.704 216.764 295.064V294.504C216.764 293.427 216.562 292.595 216.156 292.008C215.762 291.411 215.079 291.112 214.108 291.112Z" fill="#4F4F4F"/>
<path d="M223.703 290.328C224.428 290.328 225.031 290.499 225.511 290.84C226.001 291.171 226.369 291.63 226.615 292.216C226.871 292.803 226.999 293.475 226.999 294.232V294.856H220.919C220.919 295.987 221.18 296.856 221.703 297.464C222.236 298.062 222.993 298.36 223.975 298.36C224.497 298.36 224.956 298.318 225.351 298.232C225.745 298.136 226.177 297.987 226.647 297.784V298.616C226.22 298.808 225.799 298.947 225.383 299.032C224.967 299.118 224.487 299.16 223.943 299.16C222.663 299.16 221.681 298.771 220.999 297.992C220.316 297.214 219.975 296.152 219.975 294.808C219.975 293.944 220.119 293.176 220.407 292.504C220.705 291.832 221.132 291.304 221.687 290.92C222.241 290.526 222.913 290.328 223.703 290.328ZM223.687 291.096C222.908 291.096 222.273 291.358 221.783 291.88C221.303 292.403 221.025 293.144 220.951 294.104H226.055C226.055 293.208 225.857 292.483 225.463 291.928C225.079 291.374 224.487 291.096 223.687 291.096Z" fill="#4F4F4F"/>
<path d="M232.803 290.344C233.219 290.344 233.603 290.387 233.955 290.472L233.811 291.32C233.469 291.224 233.117 291.176 232.755 291.176C231.976 291.176 231.357 291.464 230.899 292.04C230.44 292.616 230.211 293.379 230.211 294.328V299H229.299V290.488H230.067L230.163 292.072H230.211C230.424 291.592 230.749 291.187 231.187 290.856C231.624 290.515 232.163 290.344 232.803 290.344Z" fill="#4F4F4F"/>
<path d="M187.936 354.024C187.936 354.707 187.765 355.283 187.424 355.752C187.082 356.221 186.613 356.573 186.016 356.808C185.418 357.043 184.741 357.16 183.984 357.16C183.29 357.16 182.688 357.112 182.176 357.016C181.664 356.92 181.226 356.797 180.864 356.648V355.736C181.258 355.896 181.728 356.035 182.272 356.152C182.816 356.269 183.402 356.328 184.032 356.328C184.906 356.328 185.616 356.141 186.16 355.768C186.714 355.395 186.992 354.835 186.992 354.088C186.992 353.64 186.885 353.272 186.672 352.984C186.469 352.685 186.149 352.429 185.712 352.216C185.285 351.992 184.736 351.768 184.064 351.544C183.424 351.331 182.874 351.091 182.416 350.824C181.957 350.557 181.605 350.227 181.36 349.832C181.114 349.427 180.992 348.92 180.992 348.312C180.992 347.693 181.146 347.171 181.456 346.744C181.776 346.307 182.208 345.976 182.752 345.752C183.306 345.528 183.936 345.416 184.64 345.416C185.194 345.416 185.722 345.469 186.224 345.576C186.725 345.683 187.2 345.832 187.648 346.024L187.344 346.824C186.426 346.44 185.514 346.248 184.608 346.248C183.818 346.248 183.173 346.424 182.672 346.776C182.181 347.117 181.936 347.624 181.936 348.296C181.936 348.787 182.042 349.181 182.256 349.48C182.469 349.768 182.778 350.013 183.184 350.216C183.589 350.419 184.085 350.621 184.672 350.824C185.344 351.059 185.92 351.304 186.4 351.56C186.89 351.816 187.269 352.141 187.536 352.536C187.802 352.92 187.936 353.416 187.936 354.024Z" fill="#4F4F4F"/>
<path d="M196.846 348.488V357H196.11L195.966 355.544H195.918C195.683 356.013 195.321 356.403 194.83 356.712C194.35 357.011 193.747 357.16 193.022 357.16C191.027 357.16 190.03 356.125 190.03 354.056V348.488H190.942V353.976C190.942 354.797 191.123 355.405 191.486 355.8C191.859 356.184 192.409 356.376 193.134 356.376C195.001 356.376 195.934 355.293 195.934 353.128V348.488H196.846Z" fill="#4F4F4F"/>
<path d="M203.081 357.16C201.833 357.16 200.868 356.776 200.185 356.008C199.513 355.24 199.177 354.168 199.177 352.792C199.177 351.832 199.348 351.021 199.689 350.36C200.031 349.699 200.505 349.197 201.113 348.856C201.732 348.504 202.452 348.328 203.273 348.328C203.679 348.328 204.063 348.365 204.425 348.44C204.788 348.515 205.108 348.616 205.385 348.744L205.129 349.528C204.841 349.411 204.532 349.32 204.201 349.256C203.871 349.181 203.556 349.144 203.257 349.144C202.244 349.144 201.465 349.469 200.921 350.12C200.388 350.771 200.121 351.656 200.121 352.776C200.121 353.843 200.361 354.707 200.841 355.368C201.321 356.019 202.068 356.344 203.081 356.344C203.497 356.344 203.892 356.301 204.265 356.216C204.639 356.131 204.975 356.024 205.273 355.896V356.712C204.996 356.851 204.676 356.957 204.313 357.032C203.961 357.117 203.551 357.16 203.081 357.16Z" fill="#4F4F4F"/>
<path d="M210.691 357.16C209.443 357.16 208.477 356.776 207.795 356.008C207.123 355.24 206.787 354.168 206.787 352.792C206.787 351.832 206.957 351.021 207.299 350.36C207.64 349.699 208.115 349.197 208.723 348.856C209.341 348.504 210.061 348.328 210.883 348.328C211.288 348.328 211.672 348.365 212.035 348.44C212.397 348.515 212.717 348.616 212.995 348.744L212.739 349.528C212.451 349.411 212.141 349.32 211.811 349.256C211.48 349.181 211.165 349.144 210.867 349.144C209.853 349.144 209.075 349.469 208.531 350.12C207.997 350.771 207.731 351.656 207.731 352.776C207.731 353.843 207.971 354.707 208.451 355.368C208.931 356.019 209.677 356.344 210.691 356.344C211.107 356.344 211.501 356.301 211.875 356.216C212.248 356.131 212.584 356.024 212.883 355.896V356.712C212.605 356.851 212.285 356.957 211.923 357.032C211.571 357.117 211.16 357.16 210.691 357.16Z" fill="#4F4F4F"/>
<path d="M218.124 348.328C218.849 348.328 219.452 348.499 219.932 348.84C220.423 349.171 220.791 349.629 221.036 350.216C221.292 350.803 221.42 351.475 221.42 352.232V352.856H215.34C215.34 353.987 215.601 354.856 216.124 355.464C216.657 356.061 217.415 356.36 218.396 356.36C218.919 356.36 219.377 356.317 219.772 356.232C220.167 356.136 220.599 355.987 221.068 355.784V356.616C220.641 356.808 220.22 356.947 219.804 357.032C219.388 357.117 218.908 357.16 218.364 357.16C217.084 357.16 216.103 356.771 215.42 355.992C214.737 355.213 214.396 354.152 214.396 352.808C214.396 351.944 214.54 351.176 214.828 350.504C215.127 349.832 215.553 349.304 216.108 348.92C216.663 348.525 217.335 348.328 218.124 348.328ZM218.108 349.096C217.329 349.096 216.695 349.357 216.204 349.88C215.724 350.403 215.447 351.144 215.372 352.104H220.476C220.476 351.208 220.279 350.483 219.884 349.928C219.5 349.373 218.908 349.096 218.108 349.096Z" fill="#4F4F4F"/>
<path d="M229.08 354.744C229.08 355.512 228.792 356.109 228.216 356.536C227.64 356.952 226.83 357.16 225.784 357.16C225.187 357.16 224.659 357.107 224.2 357C223.742 356.904 223.358 356.776 223.048 356.616V355.736C223.422 355.928 223.848 356.088 224.328 356.216C224.808 356.333 225.299 356.392 225.8 356.392C226.632 356.392 227.235 356.253 227.608 355.976C227.992 355.688 228.184 355.299 228.184 354.808C228.184 354.339 227.987 353.981 227.592 353.736C227.198 353.48 226.616 353.219 225.848 352.952C225.315 352.771 224.846 352.589 224.44 352.408C224.046 352.216 223.736 351.976 223.512 351.688C223.288 351.4 223.176 351.005 223.176 350.504C223.176 349.821 223.454 349.288 224.008 348.904C224.563 348.52 225.304 348.328 226.232 348.328C226.744 348.328 227.219 348.376 227.656 348.472C228.104 348.568 228.515 348.696 228.888 348.856L228.552 349.608C228.222 349.469 227.848 349.352 227.432 349.256C227.016 349.149 226.6 349.096 226.184 349.096C225.512 349.096 224.99 349.213 224.616 349.448C224.243 349.683 224.056 350.024 224.056 350.472C224.056 350.813 224.147 351.085 224.328 351.288C224.51 351.48 224.771 351.645 225.112 351.784C225.454 351.923 225.87 352.077 226.36 352.248C226.872 352.429 227.331 352.616 227.736 352.808C228.142 353 228.467 353.245 228.712 353.544C228.958 353.843 229.08 354.243 229.08 354.744Z" fill="#4F4F4F"/>
<path d="M236.58 354.744C236.58 355.512 236.292 356.109 235.716 356.536C235.14 356.952 234.33 357.16 233.284 357.16C232.687 357.16 232.159 357.107 231.7 357C231.242 356.904 230.858 356.776 230.548 356.616V355.736C230.922 355.928 231.348 356.088 231.828 356.216C232.308 356.333 232.799 356.392 233.3 356.392C234.132 356.392 234.735 356.253 235.108 355.976C235.492 355.688 235.684 355.299 235.684 354.808C235.684 354.339 235.487 353.981 235.092 353.736C234.698 353.48 234.116 353.219 233.348 352.952C232.815 352.771 232.346 352.589 231.94 352.408C231.546 352.216 231.236 351.976 231.012 351.688C230.788 351.4 230.676 351.005 230.676 350.504C230.676 349.821 230.954 349.288 231.508 348.904C232.063 348.52 232.804 348.328 233.732 348.328C234.244 348.328 234.719 348.376 235.156 348.472C235.604 348.568 236.015 348.696 236.388 348.856L236.052 349.608C235.722 349.469 235.348 349.352 234.932 349.256C234.516 349.149 234.1 349.096 233.684 349.096C233.012 349.096 232.49 349.213 232.116 349.448C231.743 349.683 231.556 350.024 231.556 350.472C231.556 350.813 231.647 351.085 231.828 351.288C232.01 351.48 232.271 351.645 232.612 351.784C232.954 351.923 233.37 352.077 233.86 352.248C234.372 352.429 234.831 352.616 235.236 352.808C235.642 353 235.967 353.245 236.212 353.544C236.458 353.843 236.58 354.243 236.58 354.744Z" fill="#4F4F4F"/>
<path d="M184.176 415H180.816V414.424L182.032 414.248V404.344L180.816 404.152V403.576H184.176V404.152L182.96 404.344V414.248L184.176 414.424V415Z" fill="#4F4F4F"/>
<path d="M190.185 406.328C191.155 406.328 191.897 406.578 192.409 407.08C192.921 407.581 193.177 408.365 193.177 409.432V415H192.281V409.496C192.281 408.685 192.094 408.088 191.721 407.704C191.347 407.309 190.803 407.112 190.089 407.112C188.222 407.112 187.289 408.194 187.289 410.36V415H186.377V406.488H187.113L187.241 407.96H187.305C187.529 407.49 187.886 407.101 188.377 406.792C188.867 406.482 189.47 406.328 190.185 406.328Z" fill="#4F4F4F"/>
<path d="M199.22 407.224H197.188V415H196.276V407.224H194.708V406.728L196.276 406.456V405.608C196.276 403.709 197.124 402.76 198.82 402.76C199.119 402.76 199.391 402.786 199.636 402.84C199.881 402.882 200.105 402.936 200.308 403L200.1 403.752C199.908 403.688 199.7 403.634 199.476 403.592C199.263 403.549 199.049 403.528 198.836 403.528C198.26 403.528 197.839 403.693 197.572 404.024C197.316 404.354 197.188 404.882 197.188 405.608V406.488H199.22V407.224Z" fill="#4F4F4F"/>
<path d="M207.965 410.728C207.965 411.624 207.816 412.402 207.517 413.064C207.229 413.725 206.797 414.242 206.221 414.616C205.656 414.978 204.963 415.16 204.141 415.16C203.352 415.16 202.675 414.978 202.109 414.616C201.544 414.253 201.107 413.741 200.797 413.08C200.499 412.408 200.349 411.624 200.349 410.728C200.349 409.352 200.691 408.274 201.373 407.496C202.056 406.717 203 406.328 204.205 406.328C205.016 406.328 205.699 406.514 206.253 406.888C206.819 407.25 207.245 407.762 207.533 408.424C207.821 409.085 207.965 409.853 207.965 410.728ZM201.293 410.728C201.293 411.826 201.523 412.712 201.981 413.384C202.451 414.045 203.176 414.376 204.157 414.376C205.149 414.376 205.875 414.04 206.333 413.368C206.792 412.696 207.021 411.816 207.021 410.728C207.021 410.024 206.925 409.4 206.733 408.856C206.541 408.312 206.237 407.885 205.821 407.576C205.405 407.266 204.861 407.112 204.189 407.112C203.229 407.112 202.504 407.432 202.013 408.072C201.533 408.712 201.293 409.597 201.293 410.728Z" fill="#4F4F4F"/>
</svg>
