<svg width="709" height="103" viewBox="0 0 709 103" fill="none" xmlns="http://www.w3.org/2000/svg">
<path d="M22.9837 34.3863V35.9223H0.47168V1.84234H22.5517V3.37834H2.15168V17.7303H20.0077V19.2663H2.15168V34.3863H22.9837Z" fill="black"/>
<path d="M65.2417 35.9223H63.6097V22.0023C63.6097 18.6423 63.0817 16.1623 62.0257 14.5623C61.0017 12.9303 59.4177 12.1143 57.2737 12.1143C55.0337 12.1143 53.0817 12.8823 51.4177 14.4183C49.7537 15.9543 48.5857 17.9383 47.9137 20.3703V35.9223H46.2817V22.0023C46.2817 18.6103 45.7697 16.1143 44.7457 14.5143C43.7537 12.9143 42.1697 12.1143 39.9937 12.1143C37.8177 12.1143 35.8817 12.8663 34.1857 14.3703C32.5217 15.8743 31.3377 17.8583 30.6337 20.3223V35.9223H29.0017V10.9623H30.5857V17.2023C31.6417 15.0903 33.0017 13.4583 34.6657 12.3063C36.3617 11.1543 38.2017 10.5783 40.1857 10.5783C42.2657 10.5783 43.9777 11.2183 45.3217 12.4983C46.6657 13.7783 47.4657 15.4743 47.7217 17.5863C48.9377 15.2503 50.3617 13.5063 51.9937 12.3543C53.6257 11.1703 55.4977 10.5783 57.6097 10.5783C58.9537 10.5783 60.0897 10.8183 61.0177 11.2983C61.9777 11.7783 62.7617 12.4983 63.3697 13.4583C64.0097 14.3863 64.4737 15.5543 64.7617 16.9623C65.0817 18.3703 65.2417 19.9863 65.2417 21.8103V35.9223Z" fill="black"/>
<path d="M84.3521 36.4023C82.1761 36.4023 80.2241 35.8103 78.4961 34.6263C76.8001 33.4423 75.424 32.0183 74.368 30.3543V46.1463H72.7361V10.9623H74.2721V16.1463C75.3281 14.5143 76.7201 13.1863 78.4481 12.1623C80.2081 11.1063 82.0321 10.5783 83.9201 10.5783C85.6481 10.5783 87.2321 10.9463 88.6721 11.6823C90.1441 12.4183 91.4081 13.4103 92.4641 14.6583C93.5521 15.8743 94.3841 17.2503 94.9601 18.7863C95.5681 20.3223 95.8721 21.8903 95.8721 23.4903C95.8721 25.7943 95.3921 27.9223 94.4321 29.8743C93.4721 31.8263 92.1281 33.4103 90.4001 34.6263C88.7041 35.8103 86.6881 36.4023 84.3521 36.4023ZM84.1121 34.8663C85.6481 34.8663 87.0401 34.5463 88.2881 33.9063C89.5361 33.2663 90.5921 32.4023 91.4561 31.3143C92.3521 30.2263 93.0401 29.0103 93.5201 27.6663C94.0001 26.3223 94.2401 24.9303 94.2401 23.4903C94.2401 21.9863 93.9681 20.5623 93.4241 19.2183C92.8801 17.8423 92.1121 16.6263 91.1201 15.5703C90.1601 14.5143 89.0401 13.6823 87.7601 13.0743C86.5121 12.4343 85.1521 12.1143 83.6801 12.1143C82.7521 12.1143 81.7601 12.3063 80.7041 12.6903C79.6801 13.0743 78.6881 13.6183 77.7281 14.3223C76.8001 14.9943 76.0321 15.7623 75.4241 16.6263C74.8161 17.4903 74.464 18.3863 74.368 19.3143V27.9063C74.976 29.2183 75.7601 30.4023 76.7201 31.4583C77.7121 32.4823 78.8321 33.3143 80.0801 33.9543C81.3601 34.5623 82.7041 34.8663 84.1121 34.8663Z" fill="black"/>
<path d="M113.076 12.4983C110.804 12.5943 108.804 13.3303 107.076 14.7063C105.38 16.0503 104.196 17.8903 103.524 20.2263V35.9223H101.892V10.9623H103.476V17.2983C104.34 15.5383 105.492 14.0983 106.932 12.9783C108.404 11.8583 109.94 11.2023 111.54 11.0103C111.86 10.9783 112.148 10.9623 112.404 10.9623C112.692 10.9623 112.916 10.9623 113.076 10.9623V12.4983Z" fill="black"/>
<path d="M127.026 36.4023C125.362 36.4023 123.778 36.0663 122.274 35.3943C120.802 34.6903 119.506 33.7463 118.386 32.5623C117.298 31.3463 116.434 29.9543 115.794 28.3863C115.186 26.7863 114.882 25.0903 114.882 23.2983C114.882 20.9623 115.41 18.8343 116.466 16.9143C117.522 14.9943 118.946 13.4583 120.738 12.3063C122.562 11.1543 124.594 10.5783 126.834 10.5783C129.138 10.5783 131.186 11.1703 132.978 12.3543C134.802 13.5063 136.258 15.0583 137.346 17.0103C138.434 18.9303 138.978 21.0743 138.978 23.4423C138.978 23.5703 138.978 23.6983 138.978 23.8263C138.978 23.9543 138.962 24.0823 138.93 24.2103H116.562C116.722 26.2263 117.282 28.0503 118.242 29.6823C119.234 31.3143 120.498 32.6103 122.034 33.5703C123.602 34.5303 125.298 35.0103 127.122 35.0103C128.946 35.0103 130.658 34.5463 132.258 33.6183C133.858 32.6583 134.994 31.4423 135.666 29.9703L137.154 30.3543C136.674 31.5063 135.922 32.5463 134.898 33.4743C133.874 34.4023 132.674 35.1223 131.298 35.6343C129.954 36.1463 128.53 36.4023 127.026 36.4023ZM116.514 22.8183H137.346C137.218 20.7063 136.674 18.8503 135.714 17.2503C134.786 15.6183 133.554 14.3383 132.018 13.4103C130.482 12.4823 128.77 12.0183 126.882 12.0183C125.026 12.0183 123.33 12.4823 121.794 13.4103C120.29 14.3383 119.058 15.6183 118.098 17.2503C117.17 18.8823 116.642 20.7383 116.514 22.8183Z" fill="black"/>
<path d="M151.991 36.4023C150.071 36.4023 148.279 36.0823 146.615 35.4423C144.983 34.7703 143.543 33.7463 142.295 32.3703L143.159 31.2183C144.503 32.4983 145.879 33.4423 147.287 34.0503C148.695 34.6583 150.247 34.9623 151.943 34.9623C154.279 34.9623 156.167 34.4663 157.607 33.4743C159.047 32.4823 159.767 31.1063 159.767 29.3463C159.767 28.1943 159.431 27.2983 158.759 26.6583C158.119 26.0183 157.175 25.5063 155.927 25.1223C154.711 24.7063 153.223 24.2903 151.463 23.8743C149.735 23.4263 148.295 22.9943 147.143 22.5783C146.023 22.1303 145.175 21.5383 144.599 20.8023C144.023 20.0663 143.735 19.0423 143.735 17.7303C143.735 16.0663 144.135 14.7223 144.935 13.6983C145.767 12.6423 146.855 11.8583 148.199 11.3463C149.575 10.8343 151.079 10.5783 152.711 10.5783C154.695 10.5783 156.407 10.9143 157.847 11.5863C159.287 12.2583 160.327 13.1063 160.967 14.1303L159.911 15.0423C159.207 14.0503 158.183 13.2983 156.839 12.7863C155.527 12.2743 154.087 12.0183 152.519 12.0183C151.239 12.0183 150.055 12.2103 148.967 12.5943C147.879 12.9783 146.999 13.5703 146.327 14.3703C145.655 15.1383 145.319 16.1783 145.319 17.4903C145.319 18.5463 145.559 19.3623 146.039 19.9383C146.519 20.5143 147.239 20.9783 148.199 21.3303C149.159 21.6503 150.375 22.0023 151.847 22.3863C153.799 22.8663 155.479 23.3623 156.887 23.8743C158.327 24.3543 159.431 24.9943 160.199 25.7943C160.967 26.5943 161.351 27.7143 161.351 29.1543C161.351 31.3943 160.487 33.1703 158.759 34.4823C157.063 35.7623 154.807 36.4023 151.991 36.4023Z" fill="black"/>
<path d="M165.124 28.7703C165.124 27.2983 165.572 26.0343 166.468 24.9783C167.364 23.8903 168.58 23.0423 170.116 22.4343C171.652 21.7943 173.444 21.4743 175.492 21.4743C176.836 21.4743 178.228 21.6023 179.668 21.8583C181.108 22.0823 182.404 22.4023 183.556 22.8183V20.1783C183.556 17.7463 182.836 15.7943 181.396 14.3223C179.988 12.8183 178.084 12.0663 175.684 12.0663C174.468 12.0663 173.172 12.3223 171.796 12.8343C170.452 13.3463 169.076 14.0983 167.668 15.0903L166.852 13.8903C168.484 12.7703 170.036 11.9383 171.508 11.3943C172.98 10.8503 174.404 10.5783 175.78 10.5783C178.66 10.5783 180.948 11.4583 182.644 13.2183C184.34 14.9463 185.188 17.2983 185.188 20.2743V33.4263C185.188 33.7783 185.252 34.0503 185.38 34.2423C185.54 34.4023 185.764 34.4823 186.052 34.4823V35.9223C185.828 35.9223 185.636 35.9223 185.476 35.9223C185.348 35.9223 185.236 35.9063 185.14 35.8743C184.692 35.7783 184.34 35.5383 184.084 35.1543C183.828 34.7703 183.684 34.3543 183.652 33.9063V31.7463C182.5 33.2183 181.012 34.3703 179.188 35.2023C177.364 36.0023 175.412 36.4023 173.332 36.4023C171.796 36.4023 170.404 36.0663 169.156 35.3943C167.908 34.7223 166.916 33.8103 166.18 32.6583C165.476 31.4743 165.124 30.1783 165.124 28.7703ZM182.692 30.9303C182.98 30.5463 183.188 30.1783 183.316 29.8263C183.476 29.4423 183.556 29.1063 183.556 28.8183V24.2583C182.308 23.7783 181.012 23.4263 179.668 23.2023C178.356 22.9463 176.996 22.8183 175.588 22.8183C172.932 22.8183 170.788 23.3623 169.156 24.4503C167.524 25.5063 166.708 26.9143 166.708 28.6743C166.708 29.8263 166.996 30.8823 167.572 31.8423C168.18 32.8023 168.996 33.5703 170.02 34.1463C171.076 34.7223 172.244 35.0103 173.524 35.0103C175.508 35.0103 177.316 34.6423 178.948 33.9063C180.612 33.1383 181.86 32.1463 182.692 30.9303Z" fill="black"/>
<path d="M203.335 23.5383C203.335 21.2023 203.831 19.0583 204.823 17.1063C205.847 15.1543 207.223 13.5863 208.951 12.4023C210.679 11.1863 212.647 10.5783 214.855 10.5783C217.095 10.5783 219.079 11.1863 220.807 12.4023C222.535 13.5863 223.879 14.9943 224.839 16.6263V0.882343H226.471V33.4263C226.471 33.7463 226.551 34.0023 226.711 34.1943C226.871 34.3863 227.079 34.4823 227.335 34.4823V35.9223C226.951 35.9543 226.663 35.9383 226.471 35.8743C226.023 35.7463 225.655 35.4903 225.367 35.1063C225.079 34.7223 224.935 34.3063 224.935 33.8583V30.8343C223.911 32.4983 222.519 33.8423 220.759 34.8663C218.999 35.8903 217.191 36.4023 215.335 36.4023C213.607 36.4023 212.007 36.0503 210.535 35.3463C209.063 34.6103 207.783 33.6343 206.695 32.4183C205.639 31.1703 204.807 29.7783 204.199 28.2423C203.623 26.7063 203.335 25.1383 203.335 23.5383ZM224.839 27.6663V19.0743C224.391 17.7623 223.639 16.5943 222.583 15.5703C221.527 14.5143 220.343 13.6823 219.031 13.0743C217.719 12.4343 216.407 12.1143 215.095 12.1143C213.559 12.1143 212.167 12.4343 210.919 13.0743C209.703 13.7143 208.647 14.5783 207.751 15.6663C206.855 16.7543 206.167 17.9863 205.687 19.3623C205.239 20.7063 205.015 22.0983 205.015 23.5383C205.015 25.0423 205.271 26.4823 205.783 27.8583C206.327 29.2023 207.079 30.4183 208.039 31.5063C209.031 32.5623 210.151 33.3943 211.399 34.0023C212.679 34.5783 214.055 34.8663 215.527 34.8663C216.455 34.8663 217.431 34.6903 218.455 34.3383C219.511 33.9543 220.503 33.4263 221.431 32.7543C222.391 32.0823 223.175 31.3143 223.783 30.4503C224.391 29.5543 224.743 28.6263 224.839 27.6663Z" fill="black"/>
<path d="M244.729 36.4023C243.065 36.4023 241.481 36.0663 239.977 35.3943C238.505 34.6903 237.209 33.7463 236.089 32.5623C235.001 31.3463 234.137 29.9543 233.497 28.3863C232.889 26.7863 232.585 25.0903 232.585 23.2983C232.585 20.9623 233.113 18.8343 234.169 16.9143C235.225 14.9943 236.649 13.4583 238.441 12.3063C240.265 11.1543 242.297 10.5783 244.537 10.5783C246.841 10.5783 248.889 11.1703 250.681 12.3543C252.505 13.5063 253.961 15.0583 255.049 17.0103C256.137 18.9303 256.681 21.0743 256.681 23.4423C256.681 23.5703 256.681 23.6983 256.681 23.8263C256.681 23.9543 256.665 24.0823 256.633 24.2103H234.265C234.425 26.2263 234.985 28.0503 235.945 29.6823C236.937 31.3143 238.201 32.6103 239.737 33.5703C241.305 34.5303 243.001 35.0103 244.825 35.0103C246.649 35.0103 248.361 34.5463 249.961 33.6183C251.561 32.6583 252.697 31.4423 253.369 29.9703L254.857 30.3543C254.377 31.5063 253.625 32.5463 252.601 33.4743C251.577 34.4023 250.377 35.1223 249.001 35.6343C247.657 36.1463 246.233 36.4023 244.729 36.4023ZM234.217 22.8183H255.049C254.921 20.7063 254.377 18.8503 253.417 17.2503C252.489 15.6183 251.257 14.3383 249.721 13.4103C248.185 12.4823 246.473 12.0183 244.585 12.0183C242.729 12.0183 241.033 12.4823 239.497 13.4103C237.993 14.3383 236.761 15.6183 235.801 17.2503C234.873 18.8823 234.345 20.7383 234.217 22.8183Z" fill="black"/>
<path d="M275.588 35.9223V12.4023H272.036V10.9623H275.588V10.0503C275.588 8.03434 275.86 6.30634 276.404 4.86634C276.948 3.42634 277.732 2.32234 278.756 1.55434C279.78 0.786344 280.996 0.402344 282.404 0.402344C283.332 0.402344 284.228 0.562344 285.092 0.882343C285.988 1.17034 286.676 1.55434 287.156 2.03434L286.34 3.13834C285.924 2.75434 285.38 2.45034 284.708 2.22634C284.036 2.00234 283.332 1.89034 282.596 1.89034C280.868 1.89034 279.54 2.59434 278.612 4.00234C277.684 5.37834 277.22 7.39434 277.22 10.0503V10.9623H284.516V12.4023H277.22V35.9223H275.588Z" fill="black"/>
<path d="M298.444 36.4023C296.78 36.4023 295.212 36.0663 293.74 35.3943C292.268 34.7223 290.988 33.7943 289.9 32.6103C288.812 31.3943 287.964 30.0183 287.356 28.4823C286.748 26.9143 286.444 25.2663 286.444 23.5383C286.444 21.7783 286.748 20.1143 287.356 18.5463C287.996 16.9783 288.86 15.6023 289.948 14.4183C291.036 13.2023 292.316 12.2583 293.788 11.5863C295.26 10.9143 296.812 10.5783 298.444 10.5783C300.108 10.5783 301.66 10.9143 303.1 11.5863C304.572 12.2583 305.852 13.2023 306.94 14.4183C308.06 15.6023 308.924 16.9783 309.532 18.5463C310.172 20.1143 310.492 21.7783 310.492 23.5383C310.492 25.2663 310.188 26.9143 309.58 28.4823C308.972 30.0183 308.108 31.3943 306.988 32.6103C305.9 33.7943 304.62 34.7223 303.148 35.3943C301.708 36.0663 300.14 36.4023 298.444 36.4023ZM288.076 23.5863C288.076 25.6663 288.54 27.5703 289.468 29.2983C290.396 30.9943 291.644 32.3543 293.212 33.3783C294.78 34.3703 296.508 34.8663 298.396 34.8663C300.316 34.8663 302.06 34.3543 303.628 33.3303C305.196 32.3063 306.444 30.9303 307.372 29.2023C308.332 27.4423 308.812 25.5383 308.812 23.4903C308.812 21.4103 308.332 19.5063 307.372 17.7783C306.444 16.0503 305.196 14.6743 303.628 13.6503C302.06 12.6263 300.332 12.1143 298.444 12.1143C296.588 12.1143 294.86 12.6423 293.26 13.6983C291.692 14.7223 290.428 16.1143 289.468 17.8743C288.54 19.6023 288.076 21.5063 288.076 23.5863Z" fill="black"/>
<path d="M327.67 12.4983C325.398 12.5943 323.398 13.3303 321.67 14.7063C319.974 16.0503 318.79 17.8903 318.118 20.2263V35.9223H316.486V10.9623H318.07V17.2983C318.934 15.5383 320.086 14.0983 321.526 12.9783C322.998 11.8583 324.534 11.2023 326.134 11.0103C326.454 10.9783 326.742 10.9623 326.998 10.9623C327.286 10.9623 327.51 10.9623 327.67 10.9623V12.4983Z" fill="black"/>
<path d="M368.617 35.9223H366.985V22.0023C366.985 18.6423 366.457 16.1623 365.401 14.5623C364.377 12.9303 362.793 12.1143 360.649 12.1143C358.409 12.1143 356.457 12.8823 354.793 14.4183C353.129 15.9543 351.961 17.9383 351.289 20.3703V35.9223H349.657V22.0023C349.657 18.6103 349.145 16.1143 348.121 14.5143C347.129 12.9143 345.545 12.1143 343.369 12.1143C341.193 12.1143 339.257 12.8663 337.561 14.3703C335.897 15.8743 334.713 17.8583 334.009 20.3223V35.9223H332.377V10.9623H333.961V17.2023C335.017 15.0903 336.377 13.4583 338.041 12.3063C339.737 11.1543 341.577 10.5783 343.561 10.5783C345.641 10.5783 347.353 11.2183 348.697 12.4983C350.041 13.7783 350.841 15.4743 351.097 17.5863C352.313 15.2503 353.737 13.5063 355.369 12.3543C357.001 11.1703 358.873 10.5783 360.985 10.5783C362.329 10.5783 363.465 10.8183 364.393 11.2983C365.353 11.7783 366.137 12.4983 366.745 13.4583C367.385 14.3863 367.849 15.5543 368.137 16.9623C368.457 18.3703 368.617 19.9863 368.617 21.8103V35.9223Z" fill="black"/>
<path d="M373.999 28.7703C373.999 27.2983 374.447 26.0343 375.343 24.9783C376.239 23.8903 377.455 23.0423 378.991 22.4343C380.527 21.7943 382.319 21.4743 384.367 21.4743C385.711 21.4743 387.103 21.6023 388.543 21.8583C389.983 22.0823 391.279 22.4023 392.431 22.8183V20.1783C392.431 17.7463 391.711 15.7943 390.271 14.3223C388.863 12.8183 386.959 12.0663 384.559 12.0663C383.343 12.0663 382.047 12.3223 380.671 12.8343C379.327 13.3463 377.951 14.0983 376.543 15.0903L375.727 13.8903C377.359 12.7703 378.911 11.9383 380.383 11.3943C381.855 10.8503 383.279 10.5783 384.655 10.5783C387.535 10.5783 389.823 11.4583 391.519 13.2183C393.215 14.9463 394.063 17.2983 394.063 20.2743V33.4263C394.063 33.7783 394.127 34.0503 394.255 34.2423C394.415 34.4023 394.639 34.4823 394.927 34.4823V35.9223C394.703 35.9223 394.511 35.9223 394.351 35.9223C394.223 35.9223 394.111 35.9063 394.015 35.8743C393.567 35.7783 393.215 35.5383 392.959 35.1543C392.703 34.7703 392.559 34.3543 392.527 33.9063V31.7463C391.375 33.2183 389.887 34.3703 388.063 35.2023C386.239 36.0023 384.287 36.4023 382.207 36.4023C380.671 36.4023 379.279 36.0663 378.031 35.3943C376.783 34.7223 375.791 33.8103 375.055 32.6583C374.351 31.4743 373.999 30.1783 373.999 28.7703ZM391.567 30.9303C391.855 30.5463 392.063 30.1783 392.191 29.8263C392.351 29.4423 392.431 29.1063 392.431 28.8183V24.2583C391.183 23.7783 389.887 23.4263 388.543 23.2023C387.231 22.9463 385.871 22.8183 384.463 22.8183C381.807 22.8183 379.663 23.3623 378.031 24.4503C376.399 25.5063 375.583 26.9143 375.583 28.6743C375.583 29.8263 375.871 30.8823 376.447 31.8423C377.055 32.8023 377.871 33.5703 378.895 34.1463C379.951 34.7223 381.119 35.0103 382.399 35.0103C384.383 35.0103 386.191 34.6423 387.823 33.9063C389.487 33.1383 390.735 32.1463 391.567 30.9303Z" fill="black"/>
<path d="M411.98 36.4023C410.284 36.4023 408.7 36.0663 407.228 35.3943C405.756 34.6903 404.46 33.7463 403.34 32.5623C402.22 31.3463 401.34 29.9543 400.7 28.3863C400.092 26.8183 399.788 25.1383 399.788 23.3463C399.788 20.9463 400.316 18.7863 401.372 16.8663C402.428 14.9463 403.868 13.4263 405.692 12.3063C407.548 11.1543 409.628 10.5783 411.932 10.5783C414.108 10.5783 416.044 11.0903 417.74 12.1143C419.436 13.1063 420.7 14.4823 421.532 16.2423L419.948 16.8183C419.18 15.3463 418.06 14.1943 416.588 13.3623C415.148 12.5303 413.548 12.1143 411.788 12.1143C409.868 12.1143 408.124 12.6103 406.556 13.6023C404.988 14.5943 403.74 15.9383 402.812 17.6343C401.884 19.3303 401.42 21.2343 401.42 23.3463C401.42 25.4263 401.884 27.3463 402.812 29.1063C403.772 30.8663 405.036 32.2743 406.604 33.3303C408.204 34.3543 409.948 34.8663 411.836 34.8663C413.084 34.8663 414.3 34.6423 415.484 34.1943C416.668 33.7143 417.692 33.1063 418.556 32.3703C419.42 31.6023 419.98 30.7863 420.236 29.9223L421.868 30.4023C421.484 31.5543 420.78 32.5943 419.756 33.5223C418.764 34.4183 417.596 35.1223 416.252 35.6343C414.908 36.1463 413.484 36.4023 411.98 36.4023Z" fill="black"/>
<path d="M427.533 35.9223V10.9623H429.165V35.9223H427.533ZM427.533 4.91434V0.882343H429.165V4.91434H427.533Z" fill="black"/>
<path d="M447.226 36.4023C445.562 36.4023 443.994 36.0663 442.522 35.3943C441.05 34.7223 439.77 33.7943 438.682 32.6103C437.594 31.3943 436.746 30.0183 436.138 28.4823C435.53 26.9143 435.226 25.2663 435.226 23.5383C435.226 21.7783 435.53 20.1143 436.138 18.5463C436.778 16.9783 437.642 15.6023 438.73 14.4183C439.818 13.2023 441.098 12.2583 442.57 11.5863C444.042 10.9143 445.594 10.5783 447.226 10.5783C448.89 10.5783 450.442 10.9143 451.882 11.5863C453.354 12.2583 454.634 13.2023 455.722 14.4183C456.842 15.6023 457.706 16.9783 458.314 18.5463C458.954 20.1143 459.274 21.7783 459.274 23.5383C459.274 25.2663 458.97 26.9143 458.362 28.4823C457.754 30.0183 456.89 31.3943 455.77 32.6103C454.682 33.7943 453.402 34.7223 451.93 35.3943C450.49 36.0663 448.922 36.4023 447.226 36.4023ZM436.858 23.5863C436.858 25.6663 437.322 27.5703 438.25 29.2983C439.178 30.9943 440.426 32.3543 441.994 33.3783C443.562 34.3703 445.29 34.8663 447.178 34.8663C449.098 34.8663 450.842 34.3543 452.41 33.3303C453.978 32.3063 455.226 30.9303 456.154 29.2023C457.114 27.4423 457.594 25.5383 457.594 23.4903C457.594 21.4103 457.114 19.5063 456.154 17.7783C455.226 16.0503 453.978 14.6743 452.41 13.6503C450.842 12.6263 449.114 12.1143 447.226 12.1143C445.37 12.1143 443.642 12.6423 442.042 13.6983C440.474 14.7223 439.21 16.1143 438.25 17.8743C437.322 19.6023 436.858 21.5063 436.858 23.5863ZM447.754 5.29834L446.602 4.67434L449.578 0.882343H451.738L447.754 5.29834Z" fill="black"/>
<path d="M485.139 35.9223H483.507V22.0023C483.507 18.6103 483.011 16.1143 482.019 14.5143C481.059 12.9143 479.523 12.1143 477.411 12.1143C475.907 12.1143 474.435 12.4823 472.995 13.2183C471.555 13.9223 470.291 14.8983 469.203 16.1463C468.147 17.3623 467.379 18.7543 466.899 20.3223V35.9223H465.267V10.9623H466.851V17.2023C467.523 15.8903 468.419 14.7383 469.539 13.7463C470.691 12.7543 471.971 11.9863 473.379 11.4423C474.787 10.8663 476.227 10.5783 477.699 10.5783C479.011 10.5783 480.131 10.8183 481.059 11.2983C482.019 11.7783 482.787 12.4823 483.363 13.4103C483.971 14.3383 484.419 15.5063 484.707 16.9143C484.995 18.3223 485.139 19.9543 485.139 21.8103V35.9223Z" fill="black"/>
<path d="M493.89 39.8103L494.466 36.2103H493.842V32.3703H495.666V36.2103L494.85 39.8103H493.89Z" fill="black"/>
<path d="M527.48 36.4023C525.784 36.4023 524.2 36.0663 522.728 35.3943C521.256 34.6903 519.96 33.7463 518.84 32.5623C517.72 31.3463 516.84 29.9543 516.2 28.3863C515.592 26.8183 515.288 25.1383 515.288 23.3463C515.288 20.9463 515.816 18.7863 516.872 16.8663C517.928 14.9463 519.368 13.4263 521.192 12.3063C523.048 11.1543 525.128 10.5783 527.432 10.5783C529.608 10.5783 531.544 11.0903 533.24 12.1143C534.936 13.1063 536.2 14.4823 537.032 16.2423L535.448 16.8183C534.68 15.3463 533.56 14.1943 532.088 13.3623C530.648 12.5303 529.048 12.1143 527.288 12.1143C525.368 12.1143 523.624 12.6103 522.056 13.6023C520.488 14.5943 519.24 15.9383 518.312 17.6343C517.384 19.3303 516.92 21.2343 516.92 23.3463C516.92 25.4263 517.384 27.3463 518.312 29.1063C519.272 30.8663 520.536 32.2743 522.104 33.3303C523.704 34.3543 525.448 34.8663 527.336 34.8663C528.584 34.8663 529.8 34.6423 530.984 34.1943C532.168 33.7143 533.192 33.1063 534.056 32.3703C534.92 31.6023 535.48 30.7863 535.736 29.9223L537.368 30.4023C536.984 31.5543 536.28 32.5943 535.256 33.5223C534.264 34.4183 533.096 35.1223 531.752 35.6343C530.408 36.1463 528.984 36.4023 527.48 36.4023Z" fill="black"/>
<path d="M553.023 36.4023C551.359 36.4023 549.791 36.0663 548.319 35.3943C546.847 34.7223 545.567 33.7943 544.479 32.6103C543.391 31.3943 542.543 30.0183 541.935 28.4823C541.327 26.9143 541.023 25.2663 541.023 23.5383C541.023 21.7783 541.327 20.1143 541.935 18.5463C542.575 16.9783 543.439 15.6023 544.527 14.4183C545.615 13.2023 546.895 12.2583 548.367 11.5863C549.839 10.9143 551.391 10.5783 553.023 10.5783C554.687 10.5783 556.239 10.9143 557.679 11.5863C559.151 12.2583 560.431 13.2023 561.519 14.4183C562.639 15.6023 563.503 16.9783 564.111 18.5463C564.751 20.1143 565.071 21.7783 565.071 23.5383C565.071 25.2663 564.767 26.9143 564.159 28.4823C563.551 30.0183 562.687 31.3943 561.567 32.6103C560.479 33.7943 559.199 34.7223 557.727 35.3943C556.287 36.0663 554.719 36.4023 553.023 36.4023ZM542.655 23.5863C542.655 25.6663 543.119 27.5703 544.047 29.2983C544.975 30.9943 546.223 32.3543 547.791 33.3783C549.359 34.3703 551.087 34.8663 552.975 34.8663C554.895 34.8663 556.639 34.3543 558.207 33.3303C559.775 32.3063 561.023 30.9303 561.951 29.2023C562.911 27.4423 563.391 25.5383 563.391 23.4903C563.391 21.4103 562.911 19.5063 561.951 17.7783C561.023 16.0503 559.775 14.6743 558.207 13.6503C556.639 12.6263 554.911 12.1143 553.023 12.1143C551.167 12.1143 549.439 12.6423 547.839 13.6983C546.271 14.7223 545.007 16.1143 544.047 17.8743C543.119 19.6023 542.655 21.5063 542.655 23.5863Z" fill="black"/>
<path d="M568.952 28.7703C568.952 27.2983 569.4 26.0343 570.296 24.9783C571.192 23.8903 572.408 23.0423 573.944 22.4343C575.48 21.7943 577.272 21.4743 579.32 21.4743C580.664 21.4743 582.056 21.6023 583.496 21.8583C584.936 22.0823 586.232 22.4023 587.384 22.8183V20.1783C587.384 17.7463 586.664 15.7943 585.224 14.3223C583.816 12.8183 581.912 12.0663 579.512 12.0663C578.296 12.0663 577 12.3223 575.624 12.8343C574.28 13.3463 572.904 14.0983 571.496 15.0903L570.68 13.8903C572.312 12.7703 573.864 11.9383 575.336 11.3943C576.808 10.8503 578.232 10.5783 579.608 10.5783C582.488 10.5783 584.776 11.4583 586.472 13.2183C588.168 14.9463 589.016 17.2983 589.016 20.2743V33.4263C589.016 33.7783 589.08 34.0503 589.208 34.2423C589.368 34.4023 589.592 34.4823 589.88 34.4823V35.9223C589.656 35.9223 589.464 35.9223 589.304 35.9223C589.176 35.9223 589.064 35.9063 588.968 35.8743C588.52 35.7783 588.168 35.5383 587.912 35.1543C587.656 34.7703 587.512 34.3543 587.48 33.9063V31.7463C586.328 33.2183 584.84 34.3703 583.016 35.2023C581.192 36.0023 579.24 36.4023 577.16 36.4023C575.624 36.4023 574.232 36.0663 572.984 35.3943C571.736 34.7223 570.744 33.8103 570.008 32.6583C569.304 31.4743 568.952 30.1783 568.952 28.7703ZM586.52 30.9303C586.808 30.5463 587.016 30.1783 587.144 29.8263C587.304 29.4423 587.384 29.1063 587.384 28.8183V24.2583C586.136 23.7783 584.84 23.4263 583.496 23.2023C582.184 22.9463 580.824 22.8183 579.416 22.8183C576.76 22.8183 574.616 23.3623 572.984 24.4503C571.352 25.5063 570.536 26.9143 570.536 28.6743C570.536 29.8263 570.824 30.8823 571.4 31.8423C572.008 32.8023 572.824 33.5703 573.848 34.1463C574.904 34.7223 576.072 35.0103 577.352 35.0103C579.336 35.0103 581.144 34.6423 582.776 33.9063C584.44 33.1383 585.688 32.1463 586.52 30.9303Z" fill="black"/>
<path d="M606.933 36.4023C605.237 36.4023 603.653 36.0663 602.181 35.3943C600.709 34.6903 599.413 33.7463 598.293 32.5623C597.173 31.3463 596.293 29.9543 595.653 28.3863C595.045 26.8183 594.741 25.1383 594.741 23.3463C594.741 20.9463 595.269 18.7863 596.325 16.8663C597.381 14.9463 598.821 13.4263 600.645 12.3063C602.501 11.1543 604.581 10.5783 606.885 10.5783C609.061 10.5783 610.997 11.0903 612.693 12.1143C614.389 13.1063 615.653 14.4823 616.485 16.2423L614.901 16.8183C614.133 15.3463 613.013 14.1943 611.541 13.3623C610.101 12.5303 608.501 12.1143 606.741 12.1143C604.821 12.1143 603.077 12.6103 601.509 13.6023C599.941 14.5943 598.693 15.9383 597.765 17.6343C596.837 19.3303 596.373 21.2343 596.373 23.3463C596.373 25.4263 596.837 27.3463 597.765 29.1063C598.725 30.8663 599.989 32.2743 601.557 33.3303C603.157 34.3543 604.901 34.8663 606.789 34.8663C608.037 34.8663 609.253 34.6423 610.437 34.1943C611.621 33.7143 612.645 33.1063 613.509 32.3703C614.373 31.6023 614.933 30.7863 615.189 29.9223L616.821 30.4023C616.437 31.5543 615.733 32.5943 614.709 33.5223C613.717 34.4183 612.549 35.1223 611.205 35.6343C609.861 36.1463 608.437 36.4023 606.933 36.4023Z" fill="black"/>
<path d="M642.358 35.9223H640.726V22.0023C640.726 18.7383 640.166 16.2743 639.046 14.6103C637.926 12.9463 636.294 12.1143 634.15 12.1143C632.71 12.1143 631.286 12.4823 629.878 13.2183C628.502 13.9223 627.302 14.8983 626.278 16.1463C625.286 17.3623 624.566 18.7543 624.118 20.3223V35.9223H622.486V0.882343H624.118V17.2023C625.142 15.1863 626.582 13.5863 628.438 12.4023C630.326 11.1863 632.326 10.5783 634.438 10.5783C635.782 10.5783 636.934 10.8343 637.894 11.3463C638.886 11.8263 639.702 12.5623 640.342 13.5543C641.014 14.5143 641.51 15.6823 641.83 17.0583C642.182 18.4343 642.358 20.0183 642.358 21.8103V35.9223Z" fill="black"/>
<path d="M649.861 35.9223V10.9623H651.493V35.9223H649.861ZM649.861 4.91434V0.882343H651.493V4.91434H649.861Z" fill="black"/>
<path d="M679.202 35.9223H677.57V22.0023C677.57 18.6103 677.074 16.1143 676.082 14.5143C675.122 12.9143 673.586 12.1143 671.474 12.1143C669.97 12.1143 668.498 12.4823 667.058 13.2183C665.618 13.9223 664.354 14.8983 663.266 16.1463C662.21 17.3623 661.442 18.7543 660.962 20.3223V35.9223H659.33V10.9623H660.914V17.2023C661.586 15.8903 662.482 14.7383 663.602 13.7463C664.754 12.7543 666.034 11.9863 667.442 11.4423C668.85 10.8663 670.29 10.5783 671.762 10.5783C673.074 10.5783 674.194 10.8183 675.122 11.2983C676.082 11.7783 676.85 12.4823 677.426 13.4103C678.034 14.3383 678.482 15.5063 678.77 16.9143C679.058 18.3223 679.202 19.9543 679.202 21.8103V35.9223Z" fill="black"/>
<path d="M696.833 36.3543C695.137 36.3543 693.553 36.0023 692.081 35.2983C690.609 34.5623 689.345 33.5863 688.289 32.3703C687.233 31.1223 686.401 29.7463 685.793 28.2423C685.217 26.7063 684.929 25.1383 684.929 23.5383C684.929 21.8423 685.201 20.2263 685.745 18.6903C686.321 17.1223 687.121 15.7303 688.145 14.5143C689.201 13.2983 690.433 12.3383 691.841 11.6343C693.249 10.9303 694.817 10.5783 696.545 10.5783C698.753 10.5783 700.673 11.1703 702.305 12.3543C703.969 13.5383 705.377 14.9623 706.529 16.6263V10.9623H708.065V36.6903C708.065 38.8983 707.537 40.7383 706.481 42.2103C705.425 43.7143 704.017 44.8183 702.257 45.5223C700.529 46.2583 698.673 46.6263 696.689 46.6263C693.777 46.6263 691.473 46.0823 689.777 44.9943C688.113 43.9063 686.785 42.4983 685.793 40.7703L687.041 40.0983C688.033 41.8583 689.393 43.1383 691.121 43.9383C692.881 44.7703 694.737 45.1863 696.689 45.1863C698.481 45.1863 700.113 44.8663 701.585 44.2263C703.057 43.5863 704.225 42.6263 705.089 41.3463C705.985 40.0983 706.433 38.5463 706.433 36.6903V30.8343C705.409 32.4663 704.017 33.7943 702.257 34.8183C700.529 35.8423 698.721 36.3543 696.833 36.3543ZM697.121 34.8663C698.241 34.8663 699.329 34.6583 700.385 34.2423C701.441 33.8263 702.417 33.2663 703.313 32.5623C704.209 31.8583 704.929 31.0903 705.473 30.2583C706.017 29.3943 706.337 28.5303 706.433 27.6663V19.0743C705.921 17.6983 705.153 16.4983 704.129 15.4743C703.105 14.4183 701.953 13.6023 700.673 13.0263C699.393 12.4183 698.065 12.1143 696.689 12.1143C695.121 12.1143 693.697 12.4503 692.417 13.1223C691.169 13.7943 690.113 14.6903 689.249 15.8103C688.385 16.8983 687.729 18.1303 687.281 19.5063C686.833 20.8503 686.609 22.1943 686.609 23.5383C686.609 25.0423 686.865 26.4823 687.377 27.8583C687.921 29.2023 688.673 30.4183 689.633 31.5063C690.625 32.5623 691.745 33.3943 692.993 34.0023C694.273 34.5783 695.649 34.8663 697.121 34.8663Z" fill="black"/>
<path d="M222.57 101.042C223.082 101.074 223.546 101.074 223.962 101.042C224.378 101.01 224.666 100.898 224.826 100.706C225.018 100.578 225.242 100.29 225.498 99.8423C225.786 99.4263 226.186 98.5943 226.698 97.3463C227.242 96.1303 228.026 94.3223 229.05 91.9223L217.674 66.9623H219.45L229.914 90.0983L239.754 66.9623H241.434L227.178 100.37C227.018 100.754 226.81 101.09 226.554 101.378C226.298 101.698 226.01 101.938 225.69 102.098C225.402 102.29 225.018 102.402 224.538 102.434C224.25 102.498 223.946 102.546 223.626 102.578C223.306 102.61 222.954 102.61 222.57 102.578V101.042Z" fill="black"/>
<path d="M255.476 84.7703C255.476 83.2983 255.924 82.0343 256.82 80.9783C257.716 79.8903 258.932 79.0423 260.468 78.4343C262.004 77.7943 263.796 77.4743 265.844 77.4743C267.188 77.4743 268.58 77.6023 270.02 77.8583C271.46 78.0823 272.756 78.4023 273.908 78.8183V76.1783C273.908 73.7463 273.188 71.7943 271.748 70.3223C270.34 68.8183 268.436 68.0663 266.036 68.0663C264.82 68.0663 263.524 68.3223 262.148 68.8343C260.804 69.3463 259.428 70.0983 258.02 71.0903L257.204 69.8904C258.836 68.7704 260.388 67.9383 261.86 67.3943C263.332 66.8503 264.756 66.5783 266.132 66.5783C269.012 66.5783 271.3 67.4583 272.996 69.2183C274.692 70.9463 275.54 73.2983 275.54 76.2743V89.4263C275.54 89.7783 275.604 90.0503 275.732 90.2423C275.892 90.4023 276.116 90.4823 276.404 90.4823V91.9223C276.18 91.9223 275.988 91.9223 275.828 91.9223C275.7 91.9223 275.588 91.9063 275.492 91.8743C275.044 91.7783 274.692 91.5383 274.436 91.1543C274.18 90.7703 274.036 90.3543 274.004 89.9063V87.7463C272.852 89.2183 271.364 90.3703 269.54 91.2023C267.716 92.0023 265.764 92.4023 263.684 92.4023C262.148 92.4023 260.756 92.0663 259.508 91.3943C258.26 90.7223 257.268 89.8103 256.532 88.6583C255.828 87.4743 255.476 86.1783 255.476 84.7703ZM273.044 86.9303C273.332 86.5463 273.54 86.1783 273.668 85.8263C273.828 85.4423 273.908 85.1063 273.908 84.8183V80.2583C272.66 79.7783 271.364 79.4263 270.02 79.2023C268.708 78.9463 267.348 78.8183 265.94 78.8183C263.284 78.8183 261.14 79.3623 259.508 80.4503C257.876 81.5063 257.06 82.9143 257.06 84.6743C257.06 85.8263 257.348 86.8823 257.924 87.8423C258.532 88.8023 259.348 89.5703 260.372 90.1463C261.428 90.7223 262.596 91.0103 263.876 91.0103C265.86 91.0103 267.668 90.6423 269.3 89.9063C270.964 89.1383 272.212 88.1463 273.044 86.9303Z" fill="black"/>
<path d="M294.657 92.4023C292.481 92.4023 290.529 91.8103 288.801 90.6263C287.105 89.4423 285.729 88.0183 284.673 86.3543V102.146H283.041V66.9623H284.577V72.1463C285.633 70.5143 287.025 69.1863 288.753 68.1623C290.513 67.1063 292.337 66.5783 294.225 66.5783C295.953 66.5783 297.537 66.9463 298.977 67.6823C300.449 68.4183 301.713 69.4103 302.769 70.6583C303.857 71.8743 304.689 73.2503 305.265 74.7863C305.873 76.3223 306.177 77.8903 306.177 79.4903C306.177 81.7943 305.697 83.9223 304.737 85.8743C303.777 87.8263 302.433 89.4103 300.705 90.6263C299.009 91.8103 296.993 92.4023 294.657 92.4023ZM294.417 90.8663C295.953 90.8663 297.345 90.5463 298.593 89.9063C299.841 89.2663 300.897 88.4023 301.761 87.3143C302.657 86.2263 303.345 85.0104 303.825 83.6664C304.305 82.3224 304.545 80.9303 304.545 79.4903C304.545 77.9863 304.273 76.5623 303.729 75.2183C303.185 73.8423 302.417 72.6263 301.425 71.5703C300.465 70.5143 299.345 69.6823 298.065 69.0743C296.817 68.4343 295.457 68.1143 293.985 68.1143C293.057 68.1143 292.065 68.3063 291.009 68.6903C289.985 69.0743 288.993 69.6183 288.033 70.3223C287.105 70.9943 286.337 71.7623 285.729 72.6263C285.121 73.4903 284.769 74.3863 284.673 75.3143V83.9063C285.281 85.2183 286.065 86.4023 287.025 87.4583C288.017 88.4823 289.137 89.3143 290.385 89.9543C291.665 90.5623 293.009 90.8663 294.417 90.8663Z" fill="black"/>
<path d="M323.381 68.4983C321.109 68.5943 319.109 69.3303 317.381 70.7063C315.685 72.0503 314.501 73.8903 313.829 76.2263V91.9223H312.197V66.9623H313.781V73.2983C314.645 71.5383 315.797 70.0983 317.237 68.9783C318.709 67.8583 320.245 67.2023 321.845 67.0103C322.165 66.9783 322.453 66.9623 322.709 66.9623C322.997 66.9623 323.221 66.9623 323.381 66.9623V68.4983Z" fill="black"/>
<path d="M337.331 92.4023C335.667 92.4023 334.083 92.0663 332.579 91.3943C331.107 90.6903 329.811 89.7463 328.691 88.5623C327.603 87.3463 326.739 85.9543 326.099 84.3863C325.491 82.7863 325.187 81.0903 325.187 79.2983C325.187 76.9623 325.715 74.8343 326.771 72.9143C327.827 70.9943 329.251 69.4584 331.043 68.3064C332.867 67.1544 334.899 66.5783 337.139 66.5783C339.443 66.5783 341.491 67.1703 343.283 68.3543C345.107 69.5063 346.563 71.0583 347.651 73.0103C348.739 74.9303 349.283 77.0743 349.283 79.4423C349.283 79.5703 349.283 79.6983 349.283 79.8263C349.283 79.9543 349.267 80.0823 349.235 80.2103H326.867C327.027 82.2263 327.587 84.0503 328.547 85.6823C329.539 87.3143 330.803 88.6103 332.339 89.5703C333.907 90.5303 335.603 91.0103 337.427 91.0103C339.251 91.0103 340.963 90.5463 342.563 89.6183C344.163 88.6583 345.299 87.4423 345.971 85.9703L347.459 86.3543C346.979 87.5063 346.227 88.5463 345.203 89.4743C344.179 90.4024 342.979 91.1223 341.603 91.6343C340.259 92.1463 338.835 92.4023 337.331 92.4023ZM326.819 78.8183H347.651C347.523 76.7063 346.979 74.8503 346.019 73.2503C345.091 71.6183 343.859 70.3383 342.323 69.4103C340.787 68.4823 339.075 68.0183 337.187 68.0183C335.331 68.0183 333.635 68.4823 332.099 69.4103C330.595 70.3383 329.363 71.6183 328.403 73.2503C327.475 74.8823 326.947 76.7383 326.819 78.8183Z" fill="black"/>
<path d="M374.632 91.9223H372.999V78.0023C372.999 74.6103 372.504 72.1143 371.512 70.5143C370.552 68.9143 369.016 68.1143 366.904 68.1143C365.4 68.1143 363.927 68.4823 362.487 69.2183C361.047 69.9223 359.783 70.8983 358.695 72.1463C357.639 73.3623 356.871 74.7543 356.391 76.3223V91.9223H354.759V66.9623H356.344V73.2023C357.016 71.8903 357.911 70.7383 359.031 69.7463C360.183 68.7543 361.463 67.9863 362.871 67.4423C364.279 66.8663 365.719 66.5783 367.191 66.5783C368.503 66.5783 369.623 66.8183 370.551 67.2983C371.511 67.7783 372.279 68.4823 372.855 69.4103C373.463 70.3383 373.911 71.5063 374.199 72.9143C374.487 74.3223 374.632 75.9543 374.632 77.8103V91.9223Z" fill="black"/>
<path d="M380.358 79.5383C380.358 77.2023 380.854 75.0583 381.846 73.1063C382.87 71.1543 384.246 69.5863 385.974 68.4023C387.702 67.1863 389.67 66.5783 391.878 66.5783C394.118 66.5783 396.103 67.1863 397.831 68.4023C399.559 69.5863 400.902 70.9943 401.862 72.6263V56.8823H403.494V89.4263C403.494 89.7463 403.574 90.0024 403.734 90.1944C403.894 90.3864 404.102 90.4823 404.358 90.4823V91.9223C403.974 91.9543 403.686 91.9383 403.494 91.8743C403.046 91.7463 402.679 91.4903 402.391 91.1063C402.103 90.7223 401.958 90.3063 401.958 89.8583V86.8344C400.934 88.4984 399.543 89.8423 397.783 90.8663C396.023 91.8903 394.214 92.4023 392.358 92.4023C390.63 92.4023 389.031 92.0503 387.559 91.3463C386.087 90.6103 384.807 89.6344 383.719 88.4184C382.663 87.1704 381.831 85.7783 381.223 84.2423C380.647 82.7063 380.358 81.1383 380.358 79.5383ZM401.862 83.6664V75.0743C401.414 73.7623 400.663 72.5943 399.607 71.5703C398.551 70.5143 397.367 69.6823 396.055 69.0743C394.743 68.4343 393.431 68.1143 392.118 68.1143C390.582 68.1143 389.191 68.4343 387.943 69.0743C386.727 69.7143 385.671 70.5783 384.775 71.6663C383.879 72.7543 383.19 73.9864 382.71 75.3624C382.262 76.7064 382.038 78.0983 382.038 79.5383C382.038 81.0423 382.294 82.4823 382.806 83.8583C383.35 85.2023 384.102 86.4183 385.062 87.5063C386.055 88.5623 387.174 89.3943 388.422 90.0023C389.702 90.5783 391.078 90.8663 392.55 90.8663C393.478 90.8663 394.454 90.6903 395.478 90.3383C396.534 89.9543 397.526 89.4263 398.454 88.7543C399.414 88.0823 400.198 87.3143 400.806 86.4503C401.414 85.5543 401.766 84.6264 401.862 83.6664Z" fill="black"/>
<path d="M411.384 91.9223V66.9623H413.016V91.9223H411.384ZM411.384 60.9143V56.8823H413.016V60.9143H411.384Z" fill="black"/>
<path d="M418.501 90.5783L436.885 68.3543H418.789V66.9623H438.805V68.3064L420.517 90.5303H438.661V91.9223H418.501V90.5783Z" fill="black"/>
<path d="M442.226 84.7703C442.226 83.2983 442.674 82.0343 443.57 80.9783C444.466 79.8903 445.682 79.0423 447.218 78.4343C448.754 77.7943 450.546 77.4743 452.594 77.4743C453.938 77.4743 455.33 77.6023 456.77 77.8583C458.21 78.0823 459.506 78.4023 460.658 78.8183V76.1783C460.658 73.7463 459.938 71.7943 458.498 70.3223C457.09 68.8183 455.186 68.0663 452.786 68.0663C451.57 68.0663 450.274 68.3223 448.898 68.8343C447.554 69.3463 446.178 70.0983 444.77 71.0903L443.954 69.8904C445.586 68.7704 447.138 67.9383 448.61 67.3943C450.082 66.8503 451.506 66.5783 452.882 66.5783C455.762 66.5783 458.05 67.4583 459.746 69.2183C461.442 70.9463 462.29 73.2983 462.29 76.2743V89.4263C462.29 89.7783 462.354 90.0503 462.482 90.2423C462.642 90.4023 462.866 90.4823 463.154 90.4823V91.9223C462.93 91.9223 462.738 91.9223 462.578 91.9223C462.45 91.9223 462.338 91.9063 462.242 91.8743C461.794 91.7783 461.442 91.5383 461.186 91.1543C460.93 90.7703 460.786 90.3543 460.754 89.9063V87.7463C459.602 89.2183 458.114 90.3703 456.29 91.2023C454.466 92.0023 452.514 92.4023 450.434 92.4023C448.898 92.4023 447.506 92.0663 446.258 91.3943C445.01 90.7223 444.018 89.8103 443.282 88.6583C442.578 87.4743 442.226 86.1783 442.226 84.7703ZM459.794 86.9303C460.082 86.5463 460.29 86.1783 460.418 85.8263C460.578 85.4423 460.658 85.1063 460.658 84.8183V80.2583C459.41 79.7783 458.114 79.4263 456.77 79.2023C455.458 78.9463 454.098 78.8183 452.69 78.8183C450.034 78.8183 447.89 79.3623 446.258 80.4503C444.626 81.5063 443.81 82.9143 443.81 84.6743C443.81 85.8263 444.098 86.8823 444.674 87.8423C445.282 88.8023 446.098 89.5703 447.122 90.1463C448.178 90.7223 449.346 91.0103 450.626 91.0103C452.61 91.0103 454.418 90.6423 456.05 89.9063C457.714 89.1383 458.962 88.1463 459.794 86.9303Z" fill="black"/>
<path d="M465.135 100.226C464.175 100.226 463.279 100.098 462.447 99.8423C461.583 99.5863 460.815 99.1543 460.143 98.5463L461.151 97.4903C461.695 97.9703 462.319 98.2903 463.023 98.4503C463.695 98.6103 464.351 98.6903 464.991 98.6903C465.855 98.6903 466.671 98.4663 467.439 98.0183C468.239 97.5703 468.895 96.9463 469.407 96.1463C469.919 95.3783 470.175 94.4983 470.175 93.5063V66.9623H471.807V93.4583C471.807 94.7703 471.471 95.9383 470.799 96.9623C470.127 97.9863 469.279 98.7864 468.255 99.3624C467.263 99.9384 466.223 100.226 465.135 100.226ZM470.175 60.9143V56.8823H471.807V60.9143H470.175Z" fill="black"/>
<path d="M489.956 92.4023C488.292 92.4023 486.708 92.0663 485.204 91.3943C483.732 90.6903 482.436 89.7463 481.316 88.5623C480.228 87.3463 479.364 85.9543 478.724 84.3863C478.116 82.7863 477.812 81.0903 477.812 79.2983C477.812 76.9623 478.34 74.8343 479.396 72.9143C480.452 70.9943 481.876 69.4584 483.668 68.3064C485.492 67.1544 487.524 66.5783 489.764 66.5783C492.068 66.5783 494.116 67.1703 495.908 68.3543C497.732 69.5063 499.188 71.0583 500.276 73.0103C501.364 74.9303 501.908 77.0743 501.908 79.4423C501.908 79.5703 501.908 79.6983 501.908 79.8263C501.908 79.9543 501.892 80.0823 501.86 80.2103H479.492C479.652 82.2263 480.212 84.0503 481.172 85.6823C482.164 87.3143 483.428 88.6103 484.964 89.5703C486.532 90.5303 488.228 91.0103 490.052 91.0103C491.876 91.0103 493.588 90.5463 495.188 89.6183C496.788 88.6583 497.924 87.4423 498.596 85.9703L500.084 86.3543C499.604 87.5063 498.852 88.5463 497.828 89.4743C496.804 90.4024 495.604 91.1223 494.228 91.6343C492.884 92.1463 491.46 92.4023 489.956 92.4023ZM479.444 78.8183H500.276C500.148 76.7063 499.604 74.8503 498.644 73.2503C497.716 71.6183 496.484 70.3383 494.948 69.4103C493.412 68.4823 491.7 68.0183 489.812 68.0183C487.956 68.0183 486.26 68.4823 484.724 69.4103C483.22 70.3383 481.988 71.6183 481.028 73.2503C480.1 74.8823 479.572 76.7383 479.444 78.8183Z" fill="black"/>
</svg>
