<svg width="616" height="505" viewBox="0 0 616 505" fill="none" xmlns="http://www.w3.org/2000/svg">
<path d="M3.49163 112C3.49163 112 -1.94039 113.704 3.23653 115.478C8.41344 117.253 15.781 119.793 19.1988 117.368C22.6167 114.943 16.0574 112.311 13.9967 114.795C11.936 117.28 17.567 120.658 12.6414 119.889C7.71575 119.12 5.57792 117.871 3.36635 119.764" stroke="#7C6436" stroke-miterlimit="10"/>
<path d="M3.17365 112.16L5.84031 106.826" stroke="#7C6436" stroke-miterlimit="10"/>
<path d="M23.4493 94.256L22.7292 93.4931L8.95142 106.382L10.7292 108.16L28.7363 90.5277L25.8715 88L24.7762 89.0743L23.7651 88L17.1931 94.614L17.9514 95.9622L6.91396 106.157L7.80219 107.065L9.65447 108.794C9.65447 108.794 8.69245 109.295 3.17365 112.16" stroke="#7C6436" stroke-miterlimit="10"/>
<path d="M46.4163 98.8H48.0163V108.608H54.0803V110H46.4163V98.8ZM59.6149 110.096C58.7722 110.096 58.0149 109.909 57.3429 109.536C56.6709 109.163 56.1429 108.651 55.7589 108C55.3856 107.339 55.1989 106.592 55.1989 105.76C55.1989 104.928 55.3856 104.187 55.7589 103.536C56.1429 102.875 56.6709 102.363 57.3429 102C58.0149 101.627 58.7722 101.44 59.6149 101.44C60.4576 101.44 61.2096 101.627 61.8709 102C62.5429 102.363 63.0656 102.875 63.4389 103.536C63.8229 104.187 64.0149 104.928 64.0149 105.76C64.0149 106.592 63.8229 107.339 63.4389 108C63.0656 108.651 62.5429 109.163 61.8709 109.536C61.2096 109.909 60.4576 110.096 59.6149 110.096ZM59.6149 108.752C60.1589 108.752 60.6442 108.629 61.0709 108.384C61.5082 108.128 61.8496 107.776 62.0949 107.328C62.3402 106.869 62.4629 106.347 62.4629 105.76C62.4629 105.173 62.3402 104.656 62.0949 104.208C61.8496 103.749 61.5082 103.397 61.0709 103.152C60.6442 102.907 60.1589 102.784 59.6149 102.784C59.0709 102.784 58.5802 102.907 58.1429 103.152C57.7162 103.397 57.3749 103.749 57.1189 104.208C56.8736 104.656 56.7509 105.173 56.7509 105.76C56.7509 106.347 56.8736 106.869 57.1189 107.328C57.3749 107.776 57.7162 108.128 58.1429 108.384C58.5802 108.629 59.0709 108.752 59.6149 108.752ZM68.0111 102.944C68.2778 102.453 68.6725 102.08 69.1951 101.824C69.7178 101.568 70.3525 101.44 71.0991 101.44V102.928C71.0138 102.917 70.8965 102.912 70.7471 102.912C69.9151 102.912 69.2591 103.163 68.7791 103.664C68.3098 104.155 68.0751 104.859 68.0751 105.776V110H66.5391V101.52H68.0111V102.944ZM80.9781 105.808C80.9781 105.925 80.9675 106.08 80.9461 106.272H74.0661C74.1621 107.019 74.4875 107.621 75.0421 108.08C75.6075 108.528 76.3061 108.752 77.1381 108.752C78.1515 108.752 78.9675 108.411 79.5861 107.728L80.4341 108.72C80.0501 109.168 79.5701 109.509 78.9941 109.744C78.4288 109.979 77.7941 110.096 77.0901 110.096C76.1941 110.096 75.3995 109.915 74.7061 109.552C74.0128 109.179 73.4741 108.661 73.0901 108C72.7168 107.339 72.5301 106.592 72.5301 105.76C72.5301 104.939 72.7115 104.197 73.0741 103.536C73.4475 102.875 73.9541 102.363 74.5941 102C75.2448 101.627 75.9755 101.44 76.7861 101.44C77.5968 101.44 78.3168 101.627 78.9461 102C79.5861 102.363 80.0821 102.875 80.4341 103.536C80.7968 104.197 80.9781 104.955 80.9781 105.808ZM76.7861 102.736C76.0501 102.736 75.4315 102.96 74.9301 103.408C74.4395 103.856 74.1515 104.443 74.0661 105.168H79.5061C79.4208 104.453 79.1275 103.872 78.6261 103.424C78.1355 102.965 77.5221 102.736 76.7861 102.736ZM94.119 101.44C95.1857 101.44 96.0283 101.749 96.647 102.368C97.2764 102.987 97.591 103.904 97.591 105.12V110H96.055V105.296C96.055 104.475 95.863 103.856 95.479 103.44C95.1057 103.024 94.567 102.816 93.863 102.816C93.0843 102.816 92.4657 103.061 92.007 103.552C91.5483 104.032 91.319 104.725 91.319 105.632V110H89.783V105.296C89.783 104.475 89.591 103.856 89.207 103.44C88.8337 103.024 88.295 102.816 87.591 102.816C86.8123 102.816 86.1937 103.061 85.735 103.552C85.2763 104.032 85.047 104.725 85.047 105.632V110H83.511V101.52H84.983V102.784C85.2923 102.347 85.6977 102.016 86.199 101.792C86.7003 101.557 87.271 101.44 87.911 101.44C88.5723 101.44 89.159 101.573 89.671 101.84C90.183 102.107 90.5777 102.496 90.855 103.008C91.175 102.517 91.6177 102.133 92.183 101.856C92.759 101.579 93.4043 101.44 94.119 101.44ZM105.738 98.8H107.338V110H105.738V98.8ZM115.363 101.44C116.185 101.44 116.921 101.621 117.571 101.984C118.222 102.347 118.729 102.853 119.091 103.504C119.465 104.155 119.651 104.907 119.651 105.76C119.651 106.613 119.465 107.371 119.091 108.032C118.729 108.683 118.222 109.189 117.571 109.552C116.921 109.915 116.185 110.096 115.363 110.096C114.755 110.096 114.195 109.979 113.683 109.744C113.182 109.509 112.755 109.168 112.403 108.72V113.104H110.867V101.52H112.339V102.864C112.681 102.395 113.113 102.043 113.635 101.808C114.158 101.563 114.734 101.44 115.363 101.44ZM115.235 108.752C115.779 108.752 116.265 108.629 116.691 108.384C117.129 108.128 117.47 107.776 117.715 107.328C117.971 106.869 118.099 106.347 118.099 105.76C118.099 105.173 117.971 104.656 117.715 104.208C117.47 103.749 117.129 103.397 116.691 103.152C116.265 102.907 115.779 102.784 115.235 102.784C114.702 102.784 114.217 102.912 113.779 103.168C113.353 103.413 113.011 103.76 112.755 104.208C112.51 104.656 112.387 105.173 112.387 105.76C112.387 106.347 112.51 106.869 112.755 107.328C113.001 107.776 113.342 108.128 113.779 108.384C114.217 108.629 114.702 108.752 115.235 108.752ZM124.606 110.096C123.912 110.096 123.246 110.005 122.606 109.824C121.966 109.632 121.464 109.392 121.102 109.104L121.742 107.888C122.115 108.155 122.568 108.368 123.102 108.528C123.635 108.688 124.174 108.768 124.718 108.768C126.062 108.768 126.734 108.384 126.734 107.616C126.734 107.36 126.643 107.157 126.462 107.008C126.28 106.859 126.051 106.752 125.774 106.688C125.507 106.613 125.123 106.533 124.622 106.448C123.939 106.341 123.379 106.219 122.942 106.08C122.515 105.941 122.147 105.707 121.838 105.376C121.528 105.045 121.374 104.581 121.374 103.984C121.374 103.216 121.694 102.603 122.334 102.144C122.974 101.675 123.832 101.44 124.91 101.44C125.475 101.44 126.04 101.509 126.606 101.648C127.171 101.787 127.635 101.973 127.998 102.208L127.342 103.424C126.648 102.976 125.832 102.752 124.894 102.752C124.243 102.752 123.747 102.859 123.406 103.072C123.064 103.285 122.894 103.568 122.894 103.92C122.894 104.197 122.99 104.416 123.182 104.576C123.374 104.736 123.608 104.853 123.886 104.928C124.174 105.003 124.574 105.088 125.086 105.184C125.768 105.301 126.318 105.429 126.734 105.568C127.16 105.696 127.523 105.92 127.822 106.24C128.12 106.56 128.27 107.008 128.27 107.584C128.27 108.352 127.939 108.965 127.278 109.424C126.627 109.872 125.736 110.096 124.606 110.096ZM138.493 101.52V110H137.037V108.72C136.728 109.157 136.317 109.499 135.805 109.744C135.304 109.979 134.754 110.096 134.157 110.096C133.026 110.096 132.136 109.787 131.485 109.168C130.834 108.539 130.509 107.616 130.509 106.4V101.52H132.045V106.224C132.045 107.045 132.242 107.669 132.637 108.096C133.032 108.512 133.597 108.72 134.333 108.72C135.144 108.72 135.784 108.475 136.253 107.984C136.722 107.493 136.957 106.8 136.957 105.904V101.52H138.493ZM152.425 101.44C153.492 101.44 154.335 101.749 154.953 102.368C155.583 102.987 155.897 103.904 155.897 105.12V110H154.361V105.296C154.361 104.475 154.169 103.856 153.785 103.44C153.412 103.024 152.873 102.816 152.169 102.816C151.391 102.816 150.772 103.061 150.313 103.552C149.855 104.032 149.625 104.725 149.625 105.632V110H148.089V105.296C148.089 104.475 147.897 103.856 147.513 103.44C147.14 103.024 146.601 102.816 145.897 102.816C145.119 102.816 144.5 103.061 144.041 103.552C143.583 104.032 143.353 104.725 143.353 105.632V110H141.817V101.52H143.289V102.784C143.599 102.347 144.004 102.016 144.505 101.792C145.007 101.557 145.577 101.44 146.217 101.44C146.879 101.44 147.465 101.573 147.977 101.84C148.489 102.107 148.884 102.496 149.161 103.008C149.481 102.517 149.924 102.133 150.489 101.856C151.065 101.579 151.711 101.44 152.425 101.44Z" fill="#7C6436"/>
<path d="M9.53826 154.274V148.764H18.8732V154.274M9.53826 154.274H18.8732M9.53826 154.274C7.97142 157.813 5.99153 160.887 5.99153 160.887M18.8732 154.274L22.6655 160.887M18.8732 154.274L23.0408 151.519L28 159.233L22.6655 160.887M22.6655 160.887L28 163.091L23.0408 170.805C23.0408 170.805 19.204 168.409 18.8732 168.05M22.6655 160.887L18.8732 168.05M18.8732 168.05L9.53826 168.017M18.8732 168.05V173.56H9.53826C9.53826 173.56 9.72081 169.117 9.53826 168.017M9.53826 168.017L4.85714 170.805L1 163.091L5.99153 160.887M9.53826 168.017L5.99153 160.887M5.99153 160.887L1 158.131L4.85714 150.968C6.31575 151.703 8.90881 153.503 7.61224 154.825C5.99153 156.478 4.92184 152.07 5.99153 148.764C7.06122 145.458 4.5 143.691 1.5 146.152" stroke="#7C6436" stroke-miterlimit="10" stroke-linejoin="round"/>
<path d="M45.68 154.079H47.28V163.887H53.344V165.279H45.68V154.079ZM58.8786 165.375C58.036 165.375 57.2786 165.189 56.6066 164.815C55.9346 164.442 55.4066 163.93 55.0226 163.279C54.6493 162.618 54.4626 161.871 54.4626 161.039C54.4626 160.207 54.6493 159.466 55.0226 158.815C55.4066 158.154 55.9346 157.642 56.6066 157.279C57.2786 156.906 58.036 156.719 58.8786 156.719C59.7213 156.719 60.4733 156.906 61.1346 157.279C61.8066 157.642 62.3293 158.154 62.7026 158.815C63.0866 159.466 63.2786 160.207 63.2786 161.039C63.2786 161.871 63.0866 162.618 62.7026 163.279C62.3293 163.93 61.8066 164.442 61.1346 164.815C60.4733 165.189 59.7213 165.375 58.8786 165.375ZM58.8786 164.031C59.4226 164.031 59.908 163.909 60.3346 163.663C60.772 163.407 61.1133 163.055 61.3586 162.607C61.604 162.149 61.7266 161.626 61.7266 161.039C61.7266 160.453 61.604 159.935 61.3586 159.487C61.1133 159.029 60.772 158.677 60.3346 158.431C59.908 158.186 59.4226 158.063 58.8786 158.063C58.3346 158.063 57.844 158.186 57.4066 158.431C56.98 158.677 56.6386 159.029 56.3826 159.487C56.1373 159.935 56.0146 160.453 56.0146 161.039C56.0146 161.626 56.1373 162.149 56.3826 162.607C56.6386 163.055 56.98 163.407 57.4066 163.663C57.844 163.909 58.3346 164.031 58.8786 164.031ZM67.2749 158.223C67.5415 157.733 67.9362 157.359 68.4589 157.103C68.9815 156.847 69.6162 156.719 70.3629 156.719V158.207C70.2775 158.197 70.1602 158.191 70.0109 158.191C69.1789 158.191 68.5229 158.442 68.0429 158.943C67.5735 159.434 67.3389 160.138 67.3389 161.055V165.279H65.8029V156.799H67.2749V158.223ZM80.2419 161.087C80.2419 161.205 80.2312 161.359 80.2099 161.551H73.3299C73.4259 162.298 73.7512 162.901 74.3059 163.359C74.8712 163.807 75.5699 164.031 76.4019 164.031C77.4152 164.031 78.2312 163.69 78.8499 163.007L79.6979 163.999C79.3139 164.447 78.8339 164.789 78.2579 165.023C77.6925 165.258 77.0579 165.375 76.3539 165.375C75.4579 165.375 74.6632 165.194 73.9699 164.831C73.2765 164.458 72.7379 163.941 72.3539 163.279C71.9805 162.618 71.7939 161.871 71.7939 161.039C71.7939 160.218 71.9752 159.477 72.3379 158.815C72.7112 158.154 73.2179 157.642 73.8579 157.279C74.5085 156.906 75.2392 156.719 76.0499 156.719C76.8605 156.719 77.5805 156.906 78.2099 157.279C78.8499 157.642 79.3459 158.154 79.6979 158.815C80.0605 159.477 80.2419 160.234 80.2419 161.087ZM76.0499 158.015C75.3139 158.015 74.6952 158.239 74.1939 158.687C73.7032 159.135 73.4152 159.722 73.3299 160.447H78.7699C78.6845 159.733 78.3912 159.151 77.8899 158.703C77.3992 158.245 76.7859 158.015 76.0499 158.015ZM93.3827 156.719C94.4494 156.719 95.2921 157.029 95.9107 157.647C96.5401 158.266 96.8547 159.183 96.8547 160.399V165.279H95.3187V160.575C95.3187 159.754 95.1267 159.135 94.7427 158.719C94.3694 158.303 93.8307 158.095 93.1267 158.095C92.3481 158.095 91.7294 158.341 91.2707 158.831C90.8121 159.311 90.5827 160.005 90.5827 160.911V165.279H89.0467V160.575C89.0467 159.754 88.8547 159.135 88.4707 158.719C88.0974 158.303 87.5587 158.095 86.8547 158.095C86.0761 158.095 85.4574 158.341 84.9987 158.831C84.5401 159.311 84.3107 160.005 84.3107 160.911V165.279H82.7747V156.799H84.2467V158.063C84.5561 157.626 84.9614 157.295 85.4627 157.071C85.9641 156.837 86.5347 156.719 87.1747 156.719C87.8361 156.719 88.4227 156.853 88.9347 157.119C89.4467 157.386 89.8414 157.775 90.1187 158.287C90.4387 157.797 90.8814 157.413 91.4467 157.135C92.0227 156.858 92.6681 156.719 93.3827 156.719ZM104.778 156.799H106.314V165.279H104.778V156.799ZM105.546 155.167C105.247 155.167 104.997 155.071 104.794 154.879C104.602 154.687 104.506 154.453 104.506 154.175C104.506 153.898 104.602 153.663 104.794 153.471C104.997 153.269 105.247 153.167 105.546 153.167C105.845 153.167 106.09 153.263 106.282 153.455C106.485 153.637 106.586 153.866 106.586 154.143C106.586 154.431 106.485 154.677 106.282 154.879C106.09 155.071 105.845 155.167 105.546 155.167ZM114.143 156.719C114.964 156.719 115.7 156.901 116.351 157.263C117.001 157.626 117.508 158.133 117.871 158.783C118.244 159.434 118.431 160.186 118.431 161.039C118.431 161.893 118.244 162.65 117.871 163.311C117.508 163.962 117.001 164.469 116.351 164.831C115.7 165.194 114.964 165.375 114.143 165.375C113.535 165.375 112.975 165.258 112.463 165.023C111.961 164.789 111.535 164.447 111.183 163.999V168.383H109.647V156.799H111.119V158.143C111.46 157.674 111.892 157.322 112.415 157.087C112.937 156.842 113.513 156.719 114.143 156.719ZM114.015 164.031C114.559 164.031 115.044 163.909 115.471 163.663C115.908 163.407 116.249 163.055 116.495 162.607C116.751 162.149 116.879 161.626 116.879 161.039C116.879 160.453 116.751 159.935 116.495 159.487C116.249 159.029 115.908 158.677 115.471 158.431C115.044 158.186 114.559 158.063 114.015 158.063C113.481 158.063 112.996 158.191 112.559 158.447C112.132 158.693 111.791 159.039 111.535 159.487C111.289 159.935 111.167 160.453 111.167 161.039C111.167 161.626 111.289 162.149 111.535 162.607C111.78 163.055 112.121 163.407 112.559 163.663C112.996 163.909 113.481 164.031 114.015 164.031ZM123.385 165.375C122.692 165.375 122.025 165.285 121.385 165.103C120.745 164.911 120.244 164.671 119.881 164.383L120.521 163.167C120.894 163.434 121.348 163.647 121.881 163.807C122.414 163.967 122.953 164.047 123.497 164.047C124.841 164.047 125.513 163.663 125.513 162.895C125.513 162.639 125.422 162.437 125.241 162.287C125.06 162.138 124.83 162.031 124.553 161.967C124.286 161.893 123.902 161.813 123.401 161.727C122.718 161.621 122.158 161.498 121.721 161.359C121.294 161.221 120.926 160.986 120.617 160.655C120.308 160.325 120.153 159.861 120.153 159.263C120.153 158.495 120.473 157.882 121.113 157.423C121.753 156.954 122.612 156.719 123.689 156.719C124.254 156.719 124.82 156.789 125.385 156.927C125.95 157.066 126.414 157.253 126.777 157.487L126.121 158.703C125.428 158.255 124.612 158.031 123.673 158.031C123.022 158.031 122.526 158.138 122.185 158.351C121.844 158.565 121.673 158.847 121.673 159.199C121.673 159.477 121.769 159.695 121.961 159.855C122.153 160.015 122.388 160.133 122.665 160.207C122.953 160.282 123.353 160.367 123.865 160.463C124.548 160.581 125.097 160.709 125.513 160.847C125.94 160.975 126.302 161.199 126.601 161.519C126.9 161.839 127.049 162.287 127.049 162.863C127.049 163.631 126.718 164.245 126.057 164.703C125.406 165.151 124.516 165.375 123.385 165.375ZM137.272 156.799V165.279H135.816V163.999C135.507 164.437 135.096 164.778 134.584 165.023C134.083 165.258 133.534 165.375 132.936 165.375C131.806 165.375 130.915 165.066 130.264 164.447C129.614 163.818 129.288 162.895 129.288 161.679V156.799H130.824V161.503C130.824 162.325 131.022 162.949 131.416 163.375C131.811 163.791 132.376 163.999 133.112 163.999C133.923 163.999 134.563 163.754 135.032 163.263C135.502 162.773 135.736 162.079 135.736 161.183V156.799H137.272ZM151.205 156.719C152.271 156.719 153.114 157.029 153.733 157.647C154.362 158.266 154.677 159.183 154.677 160.399V165.279H153.141V160.575C153.141 159.754 152.949 159.135 152.565 158.719C152.191 158.303 151.653 158.095 150.949 158.095C150.17 158.095 149.551 158.341 149.093 158.831C148.634 159.311 148.405 160.005 148.405 160.911V165.279H146.869V160.575C146.869 159.754 146.677 159.135 146.293 158.719C145.919 158.303 145.381 158.095 144.677 158.095C143.898 158.095 143.279 158.341 142.821 158.831C142.362 159.311 142.133 160.005 142.133 160.911V165.279H140.597V156.799H142.069V158.063C142.378 157.626 142.783 157.295 143.285 157.071C143.786 156.837 144.357 156.719 144.997 156.719C145.658 156.719 146.245 156.853 146.757 157.119C147.269 157.386 147.663 157.775 147.941 158.287C148.261 157.797 148.703 157.413 149.269 157.135C149.845 156.858 150.49 156.719 151.205 156.719Z" fill="#7C6436"/>
<g clip-path="url(#clip0_378:84)">
<path d="M7.48161 211.126C6.8544 212.82 4.32777 213.087 3.59996 213.087C1.65914 213.087 0.994192 217.774 4.44454 219.194C8.05437 220.679 10.1233 217.7 11.489 220.165C12.8547 222.63 10.4107 222.331 8.97313 220.912C7.53552 219.493 9.53446 217.822 9.53446 217.822C11.167 216.161 21.4134 213.677 22.9229 212.482C24.4324 211.287 25.1288 211.104 25.7037 208.325C26.4764 204.59 27.303 201.079 26.8897 201.013C25.009 200.716 23.5203 205.439 22.7523 207.632C22.2 209.21 17.5852 208.858 16.507 209.53C15.4287 210.202 15.7954 212.374 17.8654 211.5C19.9353 210.626 16.507 209.53 16.7945 208.932C17.0821 208.335 20.2306 206.844 21.4128 204.888C21.6714 204.46 21.959 203.427 21.6556 203.107C21.3207 202.753 19.2223 203.641 19.2223 203.641C16.6412 204.764 13.9396 205.894 13.8532 205.921C13.8532 205.921 8.77549 207.632 7.48161 211.126Z" stroke="#7C6436" stroke-miterlimit="10" stroke-linejoin="round"/>
</g>
<path d="M37.68 205.372H39.28V215.18H45.344V216.572H37.68V205.372ZM50.8786 216.668C50.036 216.668 49.2786 216.482 48.6066 216.108C47.9346 215.735 47.4066 215.223 47.0226 214.572C46.6493 213.911 46.4626 213.164 46.4626 212.332C46.4626 211.5 46.6493 210.759 47.0226 210.108C47.4066 209.447 47.9346 208.935 48.6066 208.572C49.2786 208.199 50.036 208.012 50.8786 208.012C51.7213 208.012 52.4733 208.199 53.1346 208.572C53.8066 208.935 54.3293 209.447 54.7026 210.108C55.0866 210.759 55.2786 211.5 55.2786 212.332C55.2786 213.164 55.0866 213.911 54.7026 214.572C54.3293 215.223 53.8066 215.735 53.1346 216.108C52.4733 216.482 51.7213 216.668 50.8786 216.668ZM50.8786 215.324C51.4226 215.324 51.908 215.202 52.3346 214.956C52.772 214.7 53.1133 214.348 53.3586 213.9C53.604 213.442 53.7266 212.919 53.7266 212.332C53.7266 211.746 53.604 211.228 53.3586 210.78C53.1133 210.322 52.772 209.97 52.3346 209.724C51.908 209.479 51.4226 209.356 50.8786 209.356C50.3346 209.356 49.844 209.479 49.4066 209.724C48.98 209.97 48.6386 210.322 48.3826 210.78C48.1373 211.228 48.0146 211.746 48.0146 212.332C48.0146 212.919 48.1373 213.442 48.3826 213.9C48.6386 214.348 48.98 214.7 49.4066 214.956C49.844 215.202 50.3346 215.324 50.8786 215.324ZM59.2749 209.516C59.5415 209.026 59.9362 208.652 60.4589 208.396C60.9815 208.14 61.6162 208.012 62.3629 208.012V209.5C62.2775 209.49 62.1602 209.484 62.0109 209.484C61.1789 209.484 60.5229 209.735 60.0429 210.236C59.5735 210.727 59.3389 211.431 59.3389 212.348V216.572H57.8029V208.092H59.2749V209.516ZM72.2419 212.38C72.2419 212.498 72.2312 212.652 72.2099 212.844H65.3299C65.4259 213.591 65.7512 214.194 66.3059 214.652C66.8712 215.1 67.5699 215.324 68.4019 215.324C69.4152 215.324 70.2312 214.983 70.8499 214.3L71.6979 215.292C71.3139 215.74 70.8339 216.082 70.2579 216.316C69.6925 216.551 69.0579 216.668 68.3539 216.668C67.4579 216.668 66.6632 216.487 65.9699 216.124C65.2765 215.751 64.7379 215.234 64.3539 214.572C63.9805 213.911 63.7939 213.164 63.7939 212.332C63.7939 211.511 63.9752 210.77 64.3379 210.108C64.7112 209.447 65.2179 208.935 65.8579 208.572C66.5085 208.199 67.2392 208.012 68.0499 208.012C68.8605 208.012 69.5805 208.199 70.2099 208.572C70.8499 208.935 71.3459 209.447 71.6979 210.108C72.0605 210.77 72.2419 211.527 72.2419 212.38ZM68.0499 209.308C67.3139 209.308 66.6952 209.532 66.1939 209.98C65.7032 210.428 65.4152 211.015 65.3299 211.74H70.7699C70.6845 211.026 70.3912 210.444 69.8899 209.996C69.3992 209.538 68.7859 209.308 68.0499 209.308ZM85.3827 208.012C86.4494 208.012 87.2921 208.322 87.9107 208.94C88.5401 209.559 88.8547 210.476 88.8547 211.692V216.572H87.3187V211.868C87.3187 211.047 87.1267 210.428 86.7427 210.012C86.3694 209.596 85.8307 209.388 85.1267 209.388C84.3481 209.388 83.7294 209.634 83.2707 210.124C82.8121 210.604 82.5827 211.298 82.5827 212.204V216.572H81.0467V211.868C81.0467 211.047 80.8547 210.428 80.4707 210.012C80.0974 209.596 79.5587 209.388 78.8547 209.388C78.0761 209.388 77.4574 209.634 76.9987 210.124C76.5401 210.604 76.3107 211.298 76.3107 212.204V216.572H74.7747V208.092H76.2467V209.356C76.5561 208.919 76.9614 208.588 77.4627 208.364C77.9641 208.13 78.5347 208.012 79.1747 208.012C79.8361 208.012 80.4227 208.146 80.9347 208.412C81.4467 208.679 81.8414 209.068 82.1187 209.58C82.4387 209.09 82.8814 208.706 83.4467 208.428C84.0227 208.151 84.6681 208.012 85.3827 208.012ZM97.0019 205.372H98.6019V216.572H97.0019V205.372ZM106.627 208.012C107.448 208.012 108.184 208.194 108.835 208.556C109.486 208.919 109.992 209.426 110.355 210.076C110.728 210.727 110.915 211.479 110.915 212.332C110.915 213.186 110.728 213.943 110.355 214.604C109.992 215.255 109.486 215.762 108.835 216.124C108.184 216.487 107.448 216.668 106.627 216.668C106.019 216.668 105.459 216.551 104.947 216.316C104.446 216.082 104.019 215.74 103.667 215.292V219.676H102.131V208.092H103.603V209.436C103.944 208.967 104.376 208.615 104.899 208.38C105.422 208.135 105.998 208.012 106.627 208.012ZM106.499 215.324C107.043 215.324 107.528 215.202 107.955 214.956C108.392 214.7 108.734 214.348 108.979 213.9C109.235 213.442 109.363 212.919 109.363 212.332C109.363 211.746 109.235 211.228 108.979 210.78C108.734 210.322 108.392 209.97 107.955 209.724C107.528 209.479 107.043 209.356 106.499 209.356C105.966 209.356 105.48 209.484 105.043 209.74C104.616 209.986 104.275 210.332 104.019 210.78C103.774 211.228 103.651 211.746 103.651 212.332C103.651 212.919 103.774 213.442 104.019 213.9C104.264 214.348 104.606 214.7 105.043 214.956C105.48 215.202 105.966 215.324 106.499 215.324ZM115.869 216.668C115.176 216.668 114.509 216.578 113.869 216.396C113.229 216.204 112.728 215.964 112.365 215.676L113.005 214.46C113.379 214.727 113.832 214.94 114.365 215.1C114.899 215.26 115.437 215.34 115.981 215.34C117.325 215.34 117.997 214.956 117.997 214.188C117.997 213.932 117.907 213.73 117.725 213.58C117.544 213.431 117.315 213.324 117.037 213.26C116.771 213.186 116.387 213.106 115.885 213.02C115.203 212.914 114.643 212.791 114.205 212.652C113.779 212.514 113.411 212.279 113.101 211.948C112.792 211.618 112.637 211.154 112.637 210.556C112.637 209.788 112.957 209.175 113.597 208.716C114.237 208.247 115.096 208.012 116.173 208.012C116.739 208.012 117.304 208.082 117.869 208.22C118.435 208.359 118.899 208.546 119.261 208.78L118.605 209.996C117.912 209.548 117.096 209.324 116.157 209.324C115.507 209.324 115.011 209.431 114.669 209.644C114.328 209.858 114.157 210.14 114.157 210.492C114.157 210.77 114.253 210.988 114.445 211.148C114.637 211.308 114.872 211.426 115.149 211.5C115.437 211.575 115.837 211.66 116.349 211.756C117.032 211.874 117.581 212.002 117.997 212.14C118.424 212.268 118.787 212.492 119.085 212.812C119.384 213.132 119.533 213.58 119.533 214.156C119.533 214.924 119.203 215.538 118.541 215.996C117.891 216.444 117 216.668 115.869 216.668ZM129.757 208.092V216.572H128.301V215.292C127.992 215.73 127.581 216.071 127.069 216.316C126.568 216.551 126.018 216.668 125.421 216.668C124.29 216.668 123.4 216.359 122.749 215.74C122.098 215.111 121.773 214.188 121.773 212.972V208.092H123.309V212.796C123.309 213.618 123.506 214.242 123.901 214.668C124.296 215.084 124.861 215.292 125.597 215.292C126.408 215.292 127.048 215.047 127.517 214.556C127.986 214.066 128.221 213.372 128.221 212.476V208.092H129.757ZM143.689 208.012C144.756 208.012 145.598 208.322 146.217 208.94C146.846 209.559 147.161 210.476 147.161 211.692V216.572H145.625V211.868C145.625 211.047 145.433 210.428 145.049 210.012C144.676 209.596 144.137 209.388 143.433 209.388C142.654 209.388 142.036 209.634 141.577 210.124C141.118 210.604 140.889 211.298 140.889 212.204V216.572H139.353V211.868C139.353 211.047 139.161 210.428 138.777 210.012C138.404 209.596 137.865 209.388 137.161 209.388C136.382 209.388 135.764 209.634 135.305 210.124C134.846 210.604 134.617 211.298 134.617 212.204V216.572H133.081V208.092H134.553V209.356C134.862 208.919 135.268 208.588 135.769 208.364C136.27 208.13 136.841 208.012 137.481 208.012C138.142 208.012 138.729 208.146 139.241 208.412C139.753 208.679 140.148 209.068 140.425 209.58C140.745 209.09 141.188 208.706 141.753 208.428C142.329 208.151 142.974 208.012 143.689 208.012Z" fill="#7C6436"/>
<path d="M168.154 208.649C168.154 206.95 166.776 205.572 165.077 205.572C164.046 205.572 163.136 206.081 162.577 206.86C162.019 206.081 161.108 205.572 160.077 205.572C158.378 205.572 157 206.95 157 208.649C157 208.89 157.031 209.123 157.083 209.348C157.51 212.003 160.462 214.803 162.577 215.572C164.692 214.803 167.644 212.003 168.071 209.348C168.124 209.124 168.154 208.89 168.154 208.649Z" fill="#DD2E44"/>
<path d="M147.389 341C137.541 347.17 135.434 354.145 135.321 359.71C135.286 361.461 136.207 366.242 141.079 363.696C142.135 363.143 143.071 361.26 141.522 357.496C139.972 353.732 132.222 348.64 132.222 355.504C132.222 362.368 124.915 393.478 115.615 395.249C106.315 397.02 106.98 393.588 112.073 391.595C117.166 389.602 122.258 395.802 126.908 389.159C131.558 382.517 141.296 355.179 145.175 352.182C152.482 346.535 154.602 353.45 154.602 353.45" stroke="#7C6436" stroke-miterlimit="10" stroke-linejoin="round"/>
<path d="M41.7705 411.079C37.9065 421.118 22.3407 422.703 17.8569 422.703C5.90006 422.703 1.80352 450.492 23.0601 458.906C45.2991 467.709 58.0451 450.049 66.4587 464.663C74.8723 479.277 59.816 477.505 50.9594 469.092C42.1027 460.677 54.4175 450.772 54.4175 450.772C64.4752 440.927 127.6 426.203 136.9 419.117C146.199 412.031 150.489 410.947 154.031 394.472C158.792 372.33 163.884 351.516 161.338 351.128C149.751 349.365 140.58 377.367 135.849 390.367C132.446 399.719 104.016 397.63 97.3731 401.616C90.7304 405.602 99.5871 416.23 102.687 413.573C105.787 410.916 97.3731 401.616 99.1447 398.073C100.916 394.531 120.313 385.695 127.597 374.098C129.19 371.561 130.961 365.439 129.092 363.538C127.029 361.438 114.101 366.705 114.101 366.705C98.2001 373.36 81.5562 380.06 81.0241 380.22C81.0248 380.22 49.7418 390.367 41.7705 411.079Z" stroke="#7C6436" stroke-miterlimit="10" stroke-linejoin="round"/>
<path d="M11.08 38H2.216V36.016L4.936 35.216V17.968L2.216 17.136V15.152H11.08V17.136L8.392 17.968V35.216L11.08 36.016V38ZM18.3605 38H14.9685V13.68H18.3605V38ZM27.0793 38H23.6873V13.68H27.0793V38ZM47.254 20.752V38H44.534L44.054 35.728H43.894C43.3393 36.624 42.5713 37.2853 41.59 37.712C40.6087 38.1173 39.574 38.32 38.486 38.32C36.4593 38.32 34.9127 37.8187 33.846 36.816C32.7793 35.8133 32.246 34.224 32.246 32.048V20.752H35.67V31.536C35.67 34.2027 36.8327 35.536 39.158 35.536C40.9287 35.536 42.1553 35.0133 42.838 33.968C43.5207 32.9227 43.862 31.4293 43.862 29.488V20.752H47.254ZM64.0183 33.136C64.0183 34.8213 63.3996 36.112 62.1623 37.008C60.9249 37.8827 59.2076 38.32 57.0103 38.32C55.7943 38.32 54.7489 38.224 53.8743 38.032C53.0209 37.8613 52.2316 37.6053 51.5063 37.264V34.288C52.2529 34.6507 53.1276 34.9813 54.1302 35.28C55.1543 35.5573 56.1463 35.696 57.1063 35.696C58.3863 35.696 59.3036 35.4933 59.8583 35.088C60.4343 34.6827 60.7223 34.1387 60.7223 33.456C60.7223 33.072 60.6156 32.7307 60.4023 32.432C60.1889 32.112 59.7836 31.792 59.1863 31.472C58.6103 31.1307 57.7569 30.7467 56.6263 30.32C55.5169 29.872 54.5783 29.4347 53.8103 29.008C53.0636 28.56 52.4876 28.0373 52.0823 27.44C51.6769 26.8213 51.4743 26.032 51.4743 25.072C51.4743 23.5787 52.0716 22.4373 53.2663 21.648C54.4823 20.8373 56.0823 20.432 58.0663 20.432C59.1116 20.432 60.0929 20.5387 61.0103 20.752C61.9489 20.9653 62.8556 21.264 63.7303 21.648L62.6103 24.24C61.8636 23.92 61.0956 23.6533 60.3063 23.44C59.5169 23.2053 58.7169 23.088 57.9062 23.088C56.8823 23.088 56.1036 23.248 55.5703 23.568C55.0369 23.888 54.7703 24.336 54.7703 24.912C54.7703 25.3173 54.8983 25.6693 55.1543 25.968C55.4103 26.2667 55.8369 26.5653 56.4343 26.864C57.0529 27.1627 57.8956 27.5253 58.9623 27.952C60.0289 28.3573 60.9356 28.7733 61.6823 29.2C62.4503 29.6267 63.0263 30.1493 63.4103 30.768C63.8156 31.3867 64.0183 32.176 64.0183 33.136ZM74.2703 35.568C74.7183 35.568 75.1769 35.536 75.6463 35.472C76.1156 35.3867 76.5209 35.28 76.8623 35.152V37.712C76.4783 37.8827 75.9769 38.0213 75.3583 38.128C74.7609 38.256 74.1529 38.32 73.5343 38.32C72.5956 38.32 71.7316 38.16 70.9423 37.84C70.1529 37.52 69.5236 36.9653 69.0543 36.176C68.6063 35.3867 68.3823 34.288 68.3823 32.88V23.344H65.9823V21.808L68.5103 20.528L69.6943 16.88H71.7743V20.752H76.7023V23.344H71.7743V32.816C71.7743 33.7547 71.9983 34.448 72.4463 34.896C72.9156 35.344 73.5236 35.568 74.2703 35.568ZM88.8243 20.432C89.1229 20.432 89.4429 20.4533 89.7843 20.496C90.1469 20.5173 90.4563 20.5493 90.7123 20.592L90.3603 23.76C89.8056 23.6107 89.2296 23.536 88.6323 23.536C87.7789 23.536 86.9683 23.7493 86.2003 24.176C85.4536 24.6027 84.8456 25.2213 84.3763 26.032C83.9283 26.8213 83.7043 27.7813 83.7043 28.912V38H80.3123V20.752H83.0003L83.4483 23.824H83.5763C84.1309 22.9067 84.8456 22.1173 85.7203 21.456C86.5949 20.7733 87.6296 20.432 88.8243 20.432ZM99.969 20.432C102.124 20.432 103.734 20.912 104.801 21.872C105.889 22.8107 106.433 24.2933 106.433 26.32V38H104.033L103.361 35.6H103.233C102.486 36.5387 101.697 37.232 100.865 37.68C100.054 38.1067 98.9237 38.32 97.473 38.32C95.9157 38.32 94.625 37.904 93.601 37.072C92.577 36.2187 92.065 34.896 92.065 33.104C92.065 31.3547 92.7263 30.0213 94.049 29.104C95.3717 28.1867 97.409 27.6853 100.161 27.6L103.105 27.504V26.544C103.105 25.2853 102.817 24.4 102.241 23.888C101.665 23.3547 100.854 23.088 99.809 23.088C98.9343 23.088 98.0917 23.216 97.281 23.472C96.4703 23.728 95.6917 24.0373 94.945 24.4L93.857 21.936C94.6677 21.5093 95.5957 21.1573 96.641 20.88C97.7077 20.5813 98.817 20.432 99.969 20.432ZM100.769 29.776C98.8063 29.8613 97.441 30.192 96.673 30.768C95.9263 31.3227 95.553 32.112 95.553 33.136C95.553 34.032 95.8197 34.6827 96.353 35.088C96.8863 35.4933 97.5797 35.696 98.433 35.696C99.7557 35.696 100.854 35.3227 101.729 34.576C102.625 33.8293 103.073 32.7093 103.073 31.216V29.712L100.769 29.776ZM117.864 35.568C118.312 35.568 118.771 35.536 119.24 35.472C119.709 35.3867 120.115 35.28 120.456 35.152V37.712C120.072 37.8827 119.571 38.0213 118.952 38.128C118.355 38.256 117.747 38.32 117.128 38.32C116.189 38.32 115.325 38.16 114.536 37.84C113.747 37.52 113.117 36.9653 112.648 36.176C112.2 35.3867 111.976 34.288 111.976 32.88V23.344H109.576V21.808L112.104 20.528L113.288 16.88H115.368V20.752H120.296V23.344H115.368V32.816C115.368 33.7547 115.592 34.448 116.04 34.896C116.509 35.344 117.117 35.568 117.864 35.568ZM125.634 14.192C126.146 14.192 126.594 14.3413 126.978 14.64C127.362 14.9387 127.554 15.44 127.554 16.144C127.554 16.8267 127.362 17.328 126.978 17.648C126.594 17.9467 126.146 18.096 125.634 18.096C125.079 18.096 124.61 17.9467 124.226 17.648C123.863 17.328 123.682 16.8267 123.682 16.144C123.682 15.44 123.863 14.9387 124.226 14.64C124.61 14.3413 125.079 14.192 125.634 14.192ZM127.298 20.752V38H123.906V20.752H127.298ZM147.825 29.36C147.825 32.2187 147.089 34.4267 145.617 35.984C144.145 37.5413 142.161 38.32 139.665 38.32C138.107 38.32 136.721 37.968 135.505 37.264C134.31 36.56 133.361 35.5467 132.657 34.224C131.974 32.88 131.633 31.2587 131.633 29.36C131.633 26.5013 132.358 24.304 133.809 22.768C135.259 21.2107 137.243 20.432 139.761 20.432C141.339 20.432 142.726 20.784 143.921 21.488C145.137 22.1707 146.086 23.1733 146.769 24.496C147.473 25.8187 147.825 27.44 147.825 29.36ZM135.121 29.36C135.121 31.3013 135.483 32.816 136.209 33.904C136.955 34.992 138.129 35.536 139.729 35.536C141.329 35.536 142.491 34.992 143.217 33.904C143.963 32.816 144.337 31.3013 144.337 29.36C144.337 27.3973 143.963 25.8933 143.217 24.848C142.47 23.7813 141.297 23.248 139.697 23.248C138.097 23.248 136.934 23.7813 136.209 24.848C135.483 25.8933 135.121 27.3973 135.121 29.36ZM160.861 20.432C162.866 20.432 164.402 20.9333 165.469 21.936C166.535 22.9387 167.069 24.5493 167.069 26.768V38H163.709V27.248C163.709 24.56 162.525 23.216 160.157 23.216C158.386 23.216 157.17 23.7387 156.509 24.784C155.847 25.8293 155.517 27.3333 155.517 29.296V38H152.125V20.752H154.813L155.293 23.056H155.485C156.039 22.16 156.797 21.4987 157.757 21.072C158.738 20.6453 159.773 20.432 160.861 20.432ZM183.737 33.136C183.737 34.8213 183.118 36.112 181.881 37.008C180.644 37.8827 178.926 38.32 176.729 38.32C175.513 38.32 174.468 38.224 173.593 38.032C172.74 37.8613 171.95 37.6053 171.225 37.264V34.288C171.972 34.6507 172.846 34.9813 173.849 35.28C174.873 35.5573 175.865 35.696 176.825 35.696C178.105 35.696 179.022 35.4933 179.577 35.088C180.153 34.6827 180.441 34.1387 180.441 33.456C180.441 33.072 180.334 32.7307 180.121 32.432C179.908 32.112 179.502 31.792 178.905 31.472C178.329 31.1307 177.476 30.7467 176.345 30.32C175.236 29.872 174.297 29.4347 173.529 29.008C172.782 28.56 172.206 28.0373 171.801 27.44C171.396 26.8213 171.193 26.032 171.193 25.072C171.193 23.5787 171.79 22.4373 172.985 21.648C174.201 20.8373 175.801 20.432 177.785 20.432C178.83 20.432 179.812 20.5387 180.729 20.752C181.668 20.9653 182.574 21.264 183.449 21.648L182.329 24.24C181.582 23.92 180.814 23.6533 180.025 23.44C179.236 23.2053 178.436 23.088 177.625 23.088C176.601 23.088 175.822 23.248 175.289 23.568C174.756 23.888 174.489 24.336 174.489 24.912C174.489 25.3173 174.617 25.6693 174.873 25.968C175.129 26.2667 175.556 26.5653 176.153 26.864C176.772 27.1627 177.614 27.5253 178.681 27.952C179.748 28.3573 180.654 28.7733 181.401 29.2C182.169 29.6267 182.745 30.1493 183.129 30.768C183.534 31.3867 183.737 32.176 183.737 33.136ZM203.23 14.8C204.979 14.8 206.376 15.2373 207.422 16.112C208.488 16.9653 209.022 18.1813 209.022 19.76C209.022 21.1253 208.584 22.288 207.71 23.248C206.835 24.208 205.747 25.072 204.446 25.84L210.11 31.312C210.622 30.6293 211.048 29.872 211.39 29.04C211.731 28.1867 212.019 27.28 212.253 26.32H215.71C215.39 27.6427 214.952 28.9227 214.398 30.16C213.843 31.376 213.15 32.4747 212.318 33.456L216.99 38H212.574L210.078 35.6C209.096 36.4107 207.998 37.072 206.782 37.584C205.587 38.0747 204.168 38.32 202.526 38.32C200.2 38.32 198.366 37.7653 197.022 36.656C195.678 35.5253 195.006 33.968 195.006 31.984C195.006 30.3627 195.422 29.0613 196.254 28.08C197.107 27.0773 198.259 26.16 199.71 25.328C198.984 24.5173 198.366 23.6853 197.854 22.832C197.342 21.9573 197.086 20.976 197.086 19.888C197.086 18.3093 197.64 17.072 198.75 16.176C199.859 15.2587 201.352 14.8 203.23 14.8ZM203.134 17.52C202.344 17.52 201.683 17.7333 201.15 18.16C200.616 18.5653 200.35 19.1627 200.35 19.952C200.35 20.656 200.531 21.3173 200.894 21.936C201.256 22.5333 201.768 23.184 202.43 23.888C203.603 23.2267 204.446 22.5973 204.958 22C205.491 21.4027 205.758 20.6987 205.758 19.888C205.758 19.1627 205.512 18.5867 205.022 18.16C204.531 17.7333 203.902 17.52 203.134 17.52ZM201.726 27.408C200.744 28.0267 199.966 28.6667 199.39 29.328C198.835 29.968 198.558 30.7893 198.558 31.792C198.558 32.88 198.931 33.7547 199.678 34.416C200.446 35.056 201.448 35.376 202.686 35.376C203.859 35.376 204.872 35.1947 205.726 34.832C206.6 34.4693 207.347 34.0213 207.966 33.488L201.726 27.408ZM235.424 38H226.56V36.016L229.28 35.216V17.968L226.56 17.136V15.152H235.424V17.136L232.736 17.968V35.216L235.424 36.016V38ZM246.256 38.32C243.867 38.32 241.947 37.616 240.496 36.208C239.046 34.7787 238.32 32.5387 238.32 29.488C238.32 27.3547 238.672 25.6267 239.376 24.304C240.08 22.9813 241.051 22.0107 242.288 21.392C243.526 20.752 244.934 20.432 246.512 20.432C247.472 20.432 248.368 20.5387 249.2 20.752C250.054 20.944 250.758 21.168 251.312 21.424L250.288 24.176C249.691 23.9413 249.051 23.7387 248.368 23.568C247.707 23.3973 247.078 23.312 246.48 23.312C243.366 23.312 241.808 25.36 241.808 29.456C241.808 31.4187 242.192 32.912 242.96 33.936C243.728 34.96 244.859 35.472 246.352 35.472C247.312 35.472 248.155 35.3653 248.88 35.152C249.627 34.9387 250.31 34.6613 250.928 34.32V37.264C250.31 37.6267 249.638 37.8933 248.912 38.064C248.187 38.2347 247.302 38.32 246.256 38.32ZM270.2 29.36C270.2 32.2187 269.464 34.4267 267.992 35.984C266.52 37.5413 264.536 38.32 262.04 38.32C260.482 38.32 259.096 37.968 257.88 37.264C256.685 36.56 255.736 35.5467 255.032 34.224C254.349 32.88 254.008 31.2587 254.008 29.36C254.008 26.5013 254.733 24.304 256.184 22.768C257.634 21.2107 259.618 20.432 262.136 20.432C263.714 20.432 265.101 20.784 266.296 21.488C267.512 22.1707 268.461 23.1733 269.144 24.496C269.848 25.8187 270.2 27.44 270.2 29.36ZM257.496 29.36C257.496 31.3013 257.858 32.816 258.584 33.904C259.33 34.992 260.504 35.536 262.104 35.536C263.704 35.536 264.866 34.992 265.592 33.904C266.338 32.816 266.712 31.3013 266.712 29.36C266.712 27.3973 266.338 25.8933 265.592 24.848C264.845 23.7813 263.672 23.248 262.072 23.248C260.472 23.248 259.309 23.7813 258.584 24.848C257.858 25.8933 257.496 27.3973 257.496 29.36ZM283.236 20.432C285.241 20.432 286.777 20.9333 287.844 21.936C288.91 22.9387 289.444 24.5493 289.444 26.768V38H286.084V27.248C286.084 24.56 284.9 23.216 282.532 23.216C280.761 23.216 279.545 23.7387 278.884 24.784C278.222 25.8293 277.892 27.3333 277.892 29.296V38H274.5V20.752H277.188L277.668 23.056H277.86C278.414 22.16 279.172 21.4987 280.132 21.072C281.113 20.6453 282.148 20.432 283.236 20.432ZM306.112 33.136C306.112 34.8213 305.493 36.112 304.256 37.008C303.019 37.8827 301.301 38.32 299.104 38.32C297.888 38.32 296.843 38.224 295.968 38.032C295.115 37.8613 294.325 37.6053 293.6 37.264V34.288C294.347 34.6507 295.221 34.9813 296.224 35.28C297.248 35.5573 298.24 35.696 299.2 35.696C300.48 35.696 301.397 35.4933 301.952 35.088C302.528 34.6827 302.816 34.1387 302.816 33.456C302.816 33.072 302.709 32.7307 302.496 32.432C302.283 32.112 301.877 31.792 301.28 31.472C300.704 31.1307 299.851 30.7467 298.72 30.32C297.611 29.872 296.672 29.4347 295.904 29.008C295.157 28.56 294.581 28.0373 294.176 27.44C293.771 26.8213 293.568 26.032 293.568 25.072C293.568 23.5787 294.165 22.4373 295.36 21.648C296.576 20.8373 298.176 20.432 300.16 20.432C301.205 20.432 302.187 20.5387 303.104 20.752C304.043 20.9653 304.949 21.264 305.824 21.648L304.704 24.24C303.957 23.92 303.189 23.6533 302.4 23.44C301.611 23.2053 300.811 23.088 300 23.088C298.976 23.088 298.197 23.248 297.664 23.568C297.131 23.888 296.864 24.336 296.864 24.912C296.864 25.3173 296.992 25.6693 297.248 25.968C297.504 26.2667 297.931 26.5653 298.528 26.864C299.147 27.1627 299.989 27.5253 301.056 27.952C302.123 28.3573 303.029 28.7733 303.776 29.2C304.544 29.6267 305.12 30.1493 305.504 30.768C305.909 31.3867 306.112 32.176 306.112 33.136Z" fill="#141414"/>
<g clip-path="url(#clip1_378:84)">
<g opacity="0.5">
<g opacity="0.5">
<path opacity="0.5" d="M410.497 213.137C412.478 226.42 414.458 239.702 416.438 252.984C416.676 254.583 419.097 263.379 417.785 264.446C411.702 269.388 413.87 280.85 414.562 287.489C415.675 298.169 416.925 308.944 419.323 319.419C420.086 322.756 420.82 327.019 423.032 329.759C425.073 332.286 426.9 328.691 427.216 326.751C428.216 320.604 426.705 313.842 426.175 307.71C425.534 300.287 424.722 292.889 422.605 285.722C421.455 281.825 419.827 276.256 416.138 273.969C412.063 271.441 408.21 276.795 407.215 280.2C404.891 288.145 406.159 297.829 407.14 305.906C407.877 311.977 408.982 318.143 410.6 324.046C411.999 329.144 414.255 335.55 419.47 337.82C425.635 340.504 431.862 335.483 433.763 329.742C436.445 321.647 434.547 311.702 433.816 303.405C433.08 295.054 431.975 286.948 430.187 278.757C428.716 272.021 427.6 261.041 419.227 259.839C411.479 258.726 409.963 268.542 409.836 274.344C409.463 291.391 409.433 310.435 414.294 326.871C416.53 334.43 420.642 340.412 429.157 340.757C436.011 341.035 441.164 336.632 443.729 330.495C446.699 323.388 446.742 315.234 446.827 307.651C446.921 299.224 446.282 290.747 444.095 282.589C442.411 276.307 439.757 269.389 434.064 265.749C433.14 265.158 423.467 262.645 423.594 263.492C420.655 243.84 417.715 224.19 414.777 204.539C409.793 171.21 404.809 137.879 399.824 104.55C399.458 102.102 399.092 99.653 398.726 97.2051C398.568 96.1515 401.497 92.8523 402.045 92.0023C404.477 88.2321 406.908 84.4609 409.34 80.6907C411.003 78.1112 412.667 75.5303 414.331 72.9508C415.007 71.9033 420.858 71.5438 422.036 71.2984C426.002 70.4718 429.966 69.6442 433.93 68.8175C434.801 68.6361 434.017 62.1503 433.974 61C428.633 62.0591 423.291 63.1192 417.949 64.178C413.05 65.1501 412.854 65.1022 410.184 69.2449C406.441 75.0515 402.697 80.8569 398.954 86.6635C397.457 88.9873 396.604 92.9063 393.835 91.4841C384.032 86.4459 374.228 81.4087 364.425 76.3715C361.862 75.0548 354.265 77.3446 351.476 77.6427C346.838 78.1373 342.2 78.6326 337.562 79.1273C338.042 81.4799 338.523 83.8334 339.002 86.187C339.098 86.6561 341.629 86.08 342.05 86.0289C346.634 85.478 351.218 84.9274 355.802 84.3766C358.096 84.1018 361.253 83.1044 363.559 83.4448C365.793 83.7749 368.489 85.6594 370.532 86.5772C374.676 88.4384 378.821 90.3009 382.966 92.1621C385.621 93.3547 392.583 94.6834 393.079 97.959C393.857 103.081 394.634 108.204 395.411 113.328C399.833 142.478 404.254 171.629 408.676 200.779C398.492 228.094 388.308 255.41 378.124 282.725C376.88 286.06 375.754 289.505 374.276 292.746C371.8 298.18 369.372 299.647 363.572 299.99C360.552 300.17 357.511 300.069 354.488 300.069C352.972 300.069 346.007 301.116 344.9 300.069C344.333 299.533 344.9 295.225 344.9 294.482C344.9 285.499 344.9 276.517 344.9 267.534C344.9 262.498 344.9 257.461 344.9 252.425C344.9 252.112 329.452 252.274 328.123 252.274C322.828 252.274 317.63 252.673 312.605 250.618C308.266 248.842 302.819 245.857 299.972 241.958C296.341 236.986 299.782 229.678 305.903 229.419C313.125 229.113 320.245 242.869 319.641 249.32C319.486 250.981 318.738 251.619 318.755 253.45C318.781 256.368 318.808 259.286 318.834 262.204C318.948 274.885 319.063 287.565 319.177 300.247C317.517 300.247 315.857 300.247 314.198 300.247C314.221 285.734 314.244 271.221 314.267 256.707C314.269 255.518 314.63 253.6 314.195 252.449C312.298 247.432 314.386 243.546 317.212 239.025C319.719 235.013 323.027 229.965 328.448 230.789C335.475 231.858 337.377 241.425 331.42 245.241C325.893 248.781 320.205 252.145 313.674 252.145C306.005 252.145 298.335 252.145 290.667 252.145C290.17 252.145 290.422 290.734 290.422 294.456C290.422 300.172 291.3 300.057 285.513 300.059C279.124 300.063 272.736 300.065 266.346 300.068C266.411 286.944 264.702 271.551 256.956 260.498C250.875 251.819 241.08 259.213 237.673 266.642C233.035 276.757 232.83 289.087 233.072 300.041C233.226 306.962 233.752 314.596 236.566 321.015C238.351 325.085 241.523 326.582 243.899 322.058C250.164 310.134 249.542 290.086 245.453 277.588C244.1 273.453 240.958 270.979 238.588 276.221C235.897 282.175 237.06 289.911 237.146 296.242C237.243 303.428 237.466 310.58 238.535 317.7C239.222 322.276 239.966 329.858 243.926 332.981C250.254 337.97 251.531 307.998 251.622 305.317C252.101 291.223 252.413 273.891 245.66 261.037C239.603 249.505 233.667 263.768 232.116 270.074C228.111 286.362 228.116 304.546 231.276 320.972C232.412 326.875 233.538 336.534 239.44 339.725C244.919 342.688 252.661 340.42 256.971 336.315C262.002 331.522 263.824 322.972 264.899 316.369C265.266 314.114 264.364 306.966 267.116 306.966C272.268 306.966 277.42 306.966 282.573 306.966C300.916 306.966 319.258 306.966 337.601 306.966C346.732 306.966 355.899 307.203 365.028 306.966C368.344 306.88 372.203 306.857 375.299 305.543C378.349 304.248 379.895 298.505 381.046 295.694C382.193 292.892 383.129 290.006 384.126 287.146C392.77 262.349 401.415 237.553 410.061 212.756L410.497 213.137Z" stroke="#7C6436" stroke-miterlimit="10"/>
</g>
</g>
<path d="M410.497 213.137C412.478 226.42 414.458 239.702 416.438 252.984C416.676 254.583 419.097 263.379 417.785 264.446C411.702 269.388 413.87 280.85 414.562 287.489C415.675 298.169 416.925 308.944 419.323 319.419C420.086 322.756 420.82 327.019 423.032 329.759C425.073 332.286 426.9 328.691 427.216 326.751C428.216 320.604 426.705 313.842 426.175 307.71C425.534 300.287 424.722 292.889 422.605 285.722C421.455 281.825 419.827 276.256 416.138 273.969C412.063 271.441 408.21 276.795 407.215 280.2C404.891 288.145 406.159 297.829 407.14 305.906C407.877 311.977 408.982 318.143 410.6 324.046C411.999 329.144 414.255 335.55 419.47 337.82C425.635 340.504 431.862 335.483 433.763 329.742C436.445 321.647 434.547 311.702 433.816 303.405C433.08 295.054 431.975 286.948 430.187 278.757C428.716 272.021 427.6 261.041 419.227 259.839C411.479 258.726 409.963 268.542 409.836 274.344C409.463 291.391 409.433 310.435 414.294 326.871C416.53 334.43 420.642 340.412 429.157 340.757C436.011 341.035 441.164 336.632 443.729 330.495C446.699 323.388 446.742 315.234 446.827 307.651C446.921 299.224 446.282 290.747 444.095 282.589C442.411 276.307 439.757 269.389 434.064 265.749C433.14 265.158 423.467 262.645 423.594 263.492C420.655 243.84 417.715 224.19 414.777 204.539C409.793 171.21 404.809 137.879 399.824 104.55C399.458 102.102 399.092 99.653 398.726 97.2051C398.568 96.1515 401.497 92.8523 402.045 92.0023C404.477 88.2321 406.908 84.4609 409.34 80.6907C411.003 78.1112 412.667 75.5303 414.331 72.9508C415.007 71.9033 420.858 71.5438 422.036 71.2984C426.002 70.4718 429.966 69.6442 433.93 68.8175C434.801 68.6361 434.017 62.1503 433.974 61C428.633 62.0591 423.291 63.1192 417.949 64.178C413.05 65.1501 412.854 65.1022 410.184 69.2449C406.441 75.0515 402.697 80.8569 398.954 86.6635C397.457 88.9873 396.604 92.9063 393.835 91.4841C384.032 86.4459 374.228 81.4087 364.425 76.3715C361.862 75.0548 354.265 77.3446 351.476 77.6427C346.838 78.1373 342.2 78.6326 337.562 79.1273C338.042 81.4799 338.523 83.8334 339.002 86.187C339.098 86.6561 341.629 86.08 342.05 86.0289C346.634 85.478 351.218 84.9274 355.802 84.3766C358.096 84.1018 361.253 83.1044 363.559 83.4448C365.793 83.7749 368.489 85.6594 370.532 86.5772C374.676 88.4384 378.821 90.3009 382.966 92.1621C385.621 93.3547 392.583 94.6834 393.079 97.959C393.857 103.081 394.634 108.204 395.411 113.328C399.833 142.478 404.254 171.629 408.676 200.779C398.492 228.094 388.308 255.41 378.124 282.725C376.88 286.06 375.754 289.505 374.276 292.746C371.8 298.18 369.372 299.647 363.572 299.99C360.552 300.17 357.511 300.069 354.488 300.069C352.972 300.069 346.007 301.116 344.9 300.069C344.333 299.533 344.9 295.225 344.9 294.482C344.9 285.499 344.9 276.517 344.9 267.534C344.9 262.498 344.9 257.461 344.9 252.425C344.9 252.112 329.452 252.274 328.123 252.274C322.828 252.274 317.63 252.673 312.605 250.618C308.266 248.842 302.819 245.857 299.972 241.958C296.341 236.986 299.782 229.678 305.903 229.419C313.125 229.113 320.245 242.869 319.641 249.32C319.486 250.981 318.738 251.619 318.755 253.45C318.781 256.368 318.808 259.286 318.834 262.204C318.948 274.885 319.063 287.565 319.177 300.247C317.517 300.247 315.857 300.247 314.198 300.247C314.221 285.734 314.244 271.221 314.267 256.707C314.269 255.518 314.63 253.6 314.195 252.449C312.298 247.432 314.386 243.546 317.212 239.025C319.719 235.013 323.027 229.965 328.448 230.789C335.475 231.858 337.377 241.425 331.42 245.241C325.893 248.781 320.205 252.145 313.674 252.145C306.005 252.145 298.335 252.145 290.667 252.145C290.17 252.145 290.422 290.734 290.422 294.456C290.422 300.172 291.3 300.057 285.513 300.059C279.124 300.063 272.736 300.065 266.346 300.068C266.411 286.944 264.702 271.551 256.956 260.498C250.875 251.819 241.08 259.213 237.673 266.642C233.035 276.757 232.83 289.087 233.072 300.041C233.226 306.962 233.752 314.596 236.566 321.015C238.351 325.085 241.523 326.582 243.899 322.058C250.164 310.134 249.542 290.086 245.453 277.588C244.1 273.453 240.958 270.979 238.588 276.221C235.897 282.175 237.06 289.911 237.146 296.242C237.243 303.428 237.466 310.58 238.535 317.7C239.222 322.276 239.966 329.858 243.926 332.981C250.254 337.97 251.531 307.998 251.622 305.317C252.101 291.223 252.413 273.891 245.66 261.037C239.603 249.505 233.667 263.768 232.116 270.074C228.111 286.362 228.116 304.546 231.276 320.972C232.412 326.875 233.538 336.534 239.44 339.725C244.919 342.688 252.661 340.42 256.971 336.315C262.002 331.522 263.824 322.972 264.899 316.369C265.266 314.114 264.364 306.966 267.116 306.966C272.268 306.966 277.42 306.966 282.573 306.966C300.916 306.966 319.258 306.966 337.601 306.966C346.732 306.966 355.899 307.203 365.028 306.966C368.344 306.88 372.203 306.857 375.299 305.543C378.349 304.248 379.895 298.505 381.046 295.694C382.193 292.892 383.129 290.006 384.126 287.146C392.77 262.349 401.415 237.553 410.061 212.756L410.497 213.137Z" stroke="#7C6436" stroke-miterlimit="10"/>
<path d="M186.318 319.986H446.681" stroke="#7C6436" stroke-miterlimit="10"/>
</g>
<path d="M532.802 245.062C526.694 234.778 530.22 221.406 530.22 221.406C530.22 221.406 543.65 224.707 549.758 234.99C555.866 245.273 552.34 258.646 552.34 258.646C552.34 258.646 538.91 255.346 532.802 245.062Z" stroke="#435143"/>
<path d="M559.952 240.184C555.652 231.353 559.446 220.648 559.446 220.648C559.446 220.648 570.213 224.262 574.513 233.093C578.813 241.924 575.019 252.629 575.019 252.629C575.019 252.629 564.253 249.015 559.952 240.184Z" stroke="#435143"/>
<path d="M580.447 241.643C577.768 234.566 581.432 226.62 581.432 226.62C581.432 226.62 589.438 230.149 592.116 237.226C594.795 244.303 591.131 252.248 591.131 252.248C591.131 252.248 583.125 248.72 580.447 241.643Z" stroke="#435143"/>
<path d="M605.466 256.203C601.949 251.928 602.622 245.563 602.622 245.563C602.622 245.563 608.997 246.129 612.515 250.403C616.032 254.678 615.359 261.043 615.359 261.043C615.359 261.043 608.984 260.478 605.466 256.203Z" stroke="#435143"/>
<path d="M483.892 236.826C533.495 210.92 586.742 215.06 602.943 246.08" stroke="#435143"/>
<path d="M526.462 204.59C528.46 196.103 537.076 190.871 537.076 190.871C537.076 190.871 542.453 199.398 540.455 207.885C538.457 216.372 529.841 221.604 529.841 221.604C529.841 221.604 524.464 213.077 526.462 204.59Z" stroke="#435143"/>
<path d="M557.716 203.672C560.732 195.914 569.573 192.112 569.573 192.112C569.573 192.112 573.524 200.887 570.507 208.645C567.491 216.403 558.65 220.205 558.65 220.205C558.65 220.205 554.7 211.43 557.716 203.672Z" stroke="#435143"/>
<path d="M585.919 212.212C590.6 206.267 599.297 205.307 599.297 205.307C599.297 205.307 600.403 213.986 595.722 219.931C591.041 225.876 582.344 226.836 582.344 226.836C582.344 226.836 581.238 218.157 585.919 212.212Z" stroke="#435143"/>
<path d="M487.177 196.353C496.214 203.075 508.724 200.371 508.724 200.371C508.724 200.371 506.583 186.769 497.547 180.048C488.51 173.326 476 176.03 476 176.03C476 176.03 478.141 189.631 487.177 196.353Z" stroke="#435143"/>
<path d="M493.454 169.559C501.277 174.388 511.355 171.254 511.355 171.254C511.355 171.254 508.75 160.291 500.927 155.462C493.104 150.633 483.025 153.767 483.025 153.767C483.025 153.767 485.631 164.73 493.454 169.559Z" stroke="#435143"/>
<path d="M493.471 149.02C499.791 152.124 507.328 148.953 507.328 148.953C507.328 148.953 504.618 140.75 498.298 137.646C491.978 134.542 484.441 137.713 484.441 137.713C484.441 137.713 487.152 145.916 493.471 149.02Z" stroke="#435143"/>
<path d="M481.761 123.169C485.453 126.939 491.341 126.655 491.341 126.655C491.341 126.655 491.244 120.259 487.552 116.489C483.86 112.719 477.972 113.003 477.972 113.003C477.972 113.003 478.069 119.399 481.761 123.169Z" stroke="#435143"/>
<path d="M491.5 245.656C518.568 197.741 518.294 144.358 490.888 126.302" stroke="#435143"/>
<path d="M523.914 205.145C531.838 203.669 537.212 195.39 537.212 195.39C537.212 195.39 529.74 189.505 521.816 190.982C513.892 192.458 508.518 200.737 508.518 200.737C508.518 200.737 515.99 206.621 523.914 205.145Z" stroke="#435143"/>
<path d="M526.825 174.014C534.147 171.477 538.223 162.888 538.223 162.888C538.223 162.888 530.428 158.411 523.106 160.948C515.784 163.485 511.709 172.075 511.709 172.075C511.709 172.075 519.504 176.551 526.825 174.014Z" stroke="#435143"/>
<path d="M520.854 145.352C526.622 141.043 528.079 132.424 528.079 132.424C528.079 132.424 520.184 130.791 514.416 135.1C508.648 139.409 507.191 148.028 507.191 148.028C507.191 148.028 515.086 149.661 520.854 145.352Z" stroke="#435143"/>
<g clip-path="url(#clip2_378:84)">
<path d="M331.267 436.848C319.753 440.086 307.749 433.22 307.749 433.22C307.749 433.22 314.414 421.101 325.927 417.863C337.441 414.625 349.445 421.492 349.445 421.492C349.445 421.492 342.782 433.61 331.267 436.848Z" stroke="#435143"/>
<path d="M333.583 409.362C323.94 411.229 314.581 404.794 314.581 404.794C314.581 404.794 320.859 395.329 330.502 393.461C340.145 391.594 349.503 398.029 349.503 398.029C349.503 398.029 343.226 407.493 333.583 409.362Z" stroke="#435143"/>
<path d="M340.296 389.942C332.767 390.698 326.04 385.102 326.04 385.102C326.04 385.102 331.521 378.282 339.05 377.527C346.579 376.771 353.305 382.366 353.305 382.366C353.305 382.366 347.825 389.187 340.296 389.942Z" stroke="#435143"/>
<path d="M360.836 369.544C355.796 371.835 349.822 369.537 349.822 369.537C349.822 369.537 352.019 363.526 357.058 361.234C362.097 358.943 368.071 361.241 368.071 361.241C368.071 361.241 365.875 367.253 360.836 369.544Z" stroke="#435143"/>
<path d="M310.653 481.96C298.468 427.343 316.248 376.981 350.405 369.361" stroke="#435143"/>
<path d="M290.534 432.499C282.853 428.372 280.029 418.696 280.029 418.696C280.029 418.696 289.657 415.709 297.338 419.835C305.019 423.962 307.842 433.638 307.842 433.638C307.842 433.638 298.214 436.625 290.534 432.499Z" stroke="#435143"/>
<path d="M297.737 402.072C291.024 397.151 289.64 387.627 289.64 387.627C289.64 387.627 299.138 386.082 305.851 391.004C312.564 395.925 313.948 405.449 313.948 405.449C313.948 405.449 304.45 406.993 297.737 402.072Z" stroke="#435143"/>
<path d="M313.284 377.041C308.754 370.98 310.077 362.331 310.077 362.331C310.077 362.331 318.747 363.509 323.278 369.569C327.809 375.63 326.485 384.279 326.485 384.279C326.485 384.279 317.815 383.101 313.284 377.041Z" stroke="#435143"/>
<path d="M272.41 468.312C281.242 461.323 281.868 448.539 281.868 448.539C281.868 448.539 268.176 447.087 259.345 454.075C250.513 461.065 249.887 473.848 249.887 473.848C249.887 473.848 263.579 475.3 272.41 468.312Z" stroke="#435143"/>
<path d="M248.154 455.315C254.843 449.008 254.424 438.462 254.424 438.462C254.424 438.462 243.161 438.141 236.472 444.448C229.782 450.754 230.201 461.301 230.201 461.301C230.201 461.301 241.465 461.621 248.154 455.315Z" stroke="#435143"/>
<path d="M228.32 449.982C232.954 444.68 231.842 436.58 231.842 436.58C231.842 436.58 223.217 437.074 218.583 442.375C213.949 447.677 215.061 455.778 215.061 455.778C215.061 455.778 223.687 455.282 228.32 449.982Z" stroke="#435143"/>
<path d="M200.318 454.603C204.916 452.012 206.165 446.251 206.165 446.251C206.165 446.251 199.962 444.69 195.365 447.28C190.768 449.87 189.518 455.631 189.518 455.631C189.518 455.631 195.721 457.193 200.318 454.603Z" stroke="#435143"/>
<path d="M321.152 476.897C281.876 438.35 230.241 424.798 205.707 446.597" stroke="#435143"/>
<path d="M290.411 435.102C291.036 427.066 284.43 419.733 284.43 419.733C284.43 419.733 276.812 425.427 276.188 433.463C275.563 441.499 282.169 448.833 282.169 448.833C282.169 448.833 289.786 443.138 290.411 435.102Z" stroke="#435143"/>
<path d="M261.094 424.233C260.539 416.504 253.297 410.343 253.297 410.343C253.297 410.343 246.956 416.714 247.511 424.443C248.066 432.172 255.309 438.332 255.309 438.332C255.309 438.332 261.65 431.961 261.094 424.233Z" stroke="#435143"/>
<path d="M231.865 422.584C229.195 415.897 221.247 412.259 221.247 412.259C221.247 412.259 217.626 419.463 220.296 426.149C222.965 432.836 230.913 436.474 230.913 436.474C230.913 436.474 234.534 429.271 231.865 422.584Z" stroke="#435143"/>
</g>
<defs>
<clipPath id="clip0_378:84">
<rect width="27" height="23.1429" fill="white" transform="translate(1 199)"/>
</clipPath>
<clipPath id="clip1_378:84">
<rect width="317" height="341" fill="white" transform="translate(158)"/>
</clipPath>
<clipPath id="clip2_378:84">
<rect width="152" height="148" fill="white" transform="translate(332.821 504.297) rotate(-165)"/>
</clipPath>
</defs>
</svg>
