<?xml version="1.0" encoding="utf-8"?>
<!-- Generator: Adobe Illustrator 17.0.0, SVG Export Plug-In . SVG Version: 6.00 Build 0)  -->
<!DOCTYPE svg PUBLIC "-//W3C//DTD SVG 1.1//EN" "http://www.w3.org/Graphics/SVG/1.1/DTD/svg11.dtd">
<svg version="1.1" id="Layer_1" xmlns="http://www.w3.org/2000/svg" xmlns:xlink="http://www.w3.org/1999/xlink" x="0px" y="0px"
	 width="1385px" height="400px" viewBox="0 0 1385 400" enable-background="new 0 0 1385 400" xml:space="preserve">
<path fill="#2192FB" d="M300.333,246.333c29.456,0,53.334-25.37,53.334-56.666S329.789,133,300.333,133
	C270.878,133,247,158.371,247,189.667S270.878,246.333,300.333,246.333z"/>
<path fill="#1AF772" d="M113.337,133.333c36.819,0,66.666-29.847,66.666-66.666C180.003,29.848,150.156,0,113.337,0
	C76.518,0,46.67,29.848,46.67,66.667C46.67,103.486,76.518,133.333,113.337,133.333z"/>
<path fill="#2192FB" d="M375.839,272.279c-1.545-3.181-5.872-4.058-9.017-4.461c-4.212-0.54-8.465-0.191-12.692-0.069
	c-6.385,0.185-12.774,0.27-19.162,0.152c-12.818-0.238-25.692-1.281-38.215-4.149c-11.057-2.531-21.68-6.566-31.025-13.112
	c-9.032-6.326-16.447-14.645-21.751-24.333c-6.066-11.08-9.761-23.701-10.163-36.365c-0.421-13.282,2.893-26.211,8.159-38.313
	c4.399-10.112,9.88-19.865,15.669-29.235c0.821-1.33,1.711-2.616,2.537-3.942c1.406-2.261,3.055-5.907,0.161-7.791
	c-3.148-2.05-5.011,1.116-6.403,3.397c-1.465,2.403-2.99,4.763-4.596,7.073c-3.57,5.137-7.375,9.851-11.054,14.411
	c-0.913,1.131-1.826,2.261-2.733,3.399c-8.997,11.255-17.151,23.113-23.942,33.231c-16.899,25.173-31.509,50.797-43.425,76.158
	l-0.92,1.97c-22.019,47.569-25.504,90.201-23.944,119.7c18.266-18.65,45.526-39.684,84.121-54.184
	c24.368-9.155,49.526-16.191,74.998-21.471c11.764-2.438,23.657-4.689,35.588-6.138c6.076-0.739,12.157-1.333,18.177-2.479
	c3.553-0.676,7.1-1.497,10.512-2.71c2.688-0.956,5.518-2.163,7.589-4.195C376.043,277.119,376.966,274.602,375.839,272.279z
	 M208.195,323.047c-0.122,0.045-0.229,0.085-0.32,0.12C207.965,323.133,208.07,323.094,208.195,323.047z M207.563,323.285
	c-0.009,0.003-0.024,0.009-0.031,0.011C207.541,323.293,207.551,323.289,207.563,323.285z M219.626,318.752
	c0.437-0.164,0.893-0.335,1.356-0.51C220.529,318.413,220.077,318.584,219.626,318.752z M215.203,320.415
	c0.418-0.157,0.843-0.317,1.3-0.489C216.062,320.091,215.626,320.256,215.203,320.415z M217.984,319.369
	c0.379-0.142,0.789-0.297,1.192-0.449C218.776,319.071,218.379,319.221,217.984,319.369z M234.926,313.004
	c0.186-0.069,0.304-0.115,0.376-0.141C235.229,312.89,235.101,312.938,234.926,313.004z"/>
<path fill="#1AF772" d="M153.474,245.814c12.991-27.67,28.382-54.213,45.476-79.54c7.896-11.697,16.051-23.342,24.896-34.347
	c4.504-5.606,9.131-11.095,13.255-16.994c2.433-3.482,4.742-7.081,6.618-10.898c1.478-3.007,2.868-6.34,2.945-9.743
	c0.065-2.852-1.221-5.72-4.072-6.742c-3.905-1.4-8.261,1.416-11.236,3.659c-3.984,3.004-7.274,6.787-10.728,10.358
	c-5.219,5.394-10.521,10.709-15.989,15.851c-10.974,10.32-22.653,20.01-35.532,27.883c-11.371,6.951-23.607,12.287-36.826,14.468
	c-12.775,2.109-25.825,1.221-38.22-2.547c-14.175-4.309-27.622-11.856-38.332-22.14c-11.234-10.787-19.036-24.343-24.521-38.807
	c-4.583-12.086-7.963-24.759-10.77-37.362c-0.866-3.885-1.527-12.693-7.293-12.229c-1.815,0.147-3.518,1.237-4.594,2.675
	c-0.558,0.747-0.964,1.622-1.084,2.553c-0.119,0.62-0.454,1.356-0.432,1.986C-26.554,272.935,67.673,337.372,130.302,400
	C125.331,370.677,122.071,312.699,153.474,245.814C122.071,312.699,171.956,206.446,153.474,245.814z"/>
<path fill="#313135" d="M612.031,244.682v30.639H503.662V124.254h106.415v30.639h-70.799v29.362h60.809v28.299h-60.809v32.128
	H612.031z"/>
<path fill="#313135" d="M755.286,275.321v-90.002l-33.228,65.533h-19.545l-33.228-65.533v90.002h-35.616V124.254h38.657
	l39.959,78.938l40.177-78.938h38.44v151.067H755.286z"/>
<path fill="#313135" d="M820.514,275.321V124.254h104.677v30.639H856.13v32.554h56.899v28.298H856.13v59.576H820.514z"/>
<path fill="#313135" d="M1009.58,276.597c-11.44,0-21.864-2.128-31.275-6.383c-9.266-4.397-17.301-10.213-24.106-17.447
	c-6.805-7.376-12.017-15.603-15.637-24.681c-3.619-9.22-5.429-18.724-5.429-28.511c0-9.93,1.882-19.433,5.647-28.511
	c3.909-9.22,9.266-17.377,16.07-24.469c6.95-7.234,15.13-12.908,24.541-17.021c9.411-4.114,19.69-6.171,30.839-6.171
	c11.44,0,21.79,2.199,31.06,6.596c9.41,4.256,17.44,10.071,24.1,17.447c6.81,7.376,12.02,15.674,15.64,24.894
	c3.62,9.078,5.43,18.369,5.43,27.873c0,9.929-1.96,19.504-5.87,28.724c-3.76,9.078-9.12,17.234-16.07,24.468
	c-6.8,7.093-14.91,12.766-24.32,17.022C1030.93,274.54,1020.73,276.597,1009.58,276.597z M969.401,200
	c0,7.802,1.52,15.178,4.561,22.128c3.04,6.809,7.601,12.412,13.681,16.809c6.081,4.397,13.467,6.596,22.147,6.596
	c8.98,0,16.44-2.27,22.37-6.809c6.08-4.539,10.57-10.284,13.47-17.234c3.04-7.092,4.56-14.397,4.56-21.915
	c0-7.802-1.59-15.107-4.78-21.916c-3.04-6.95-7.6-12.553-13.68-16.808c-5.94-4.256-13.25-6.383-21.94-6.383
	c-8.97,0-16.5,2.269-22.581,6.808c-5.936,4.397-10.424,10.071-13.465,17.022C970.849,185.248,969.401,192.482,969.401,200z"/>
<path fill="#313135" d="M1098.13,198.511c0-9.078,1.74-18.086,5.22-27.022c3.47-8.936,8.54-17.021,15.2-24.256
	c6.66-7.234,14.77-12.978,24.32-17.234c9.56-4.397,20.42-6.596,32.58-6.596c14.33,0,26.85,3.05,37.57,9.149
	c10.71,6.1,18.67,14.043,23.89,23.831l-27.37,18.723c-2.31-5.248-5.43-9.362-9.34-12.34c-3.9-3.121-8.1-5.249-12.59-6.383
	c-4.49-1.277-8.83-1.915-13.03-1.915c-9.12,0-16.65,2.269-22.59,6.808c-5.93,4.539-10.35,10.284-13.25,17.235
	c-2.89,6.95-4.34,14.042-4.34,21.276c0,7.944,1.67,15.462,5,22.554c3.33,6.95,8.03,12.553,14.11,16.809
	c6.08,4.255,13.25,6.383,21.5,6.383c4.35,0,8.76-0.638,13.25-1.915c4.49-1.419,8.61-3.688,12.38-6.809
	c3.91-3.12,6.88-7.163,8.9-12.128l29.1,16.809c-3.04,7.518-8.03,13.901-14.98,19.149c-6.95,5.107-14.84,9.079-23.67,11.916
	c-8.69,2.695-17.3,4.042-25.85,4.042c-11.14,0-21.35-2.198-30.62-6.596c-9.26-4.539-17.3-10.496-24.1-17.872
	c-6.81-7.518-12.09-15.887-15.86-25.107C1099.94,217.66,1098.13,208.156,1098.13,198.511z"/>
<path fill="#313135" d="M1293.1,124.254h38.44l52.99,151.067h-36.49l-11.94-33.831h-48l-11.73,33.831h-36.48L1293.1,124.254z
	 M1330.23,217.447l-18.02-58.086l-18.46,58.086H1330.23z"/>
</svg>
