<?xml version="1.0" encoding="utf-8"?>
<!-- Generator: Adobe Illustrator 17.0.0, SVG Export Plug-In . SVG Version: 6.00 Build 0)  -->
<!DOCTYPE svg PUBLIC "-//W3C//DTD SVG 1.1//EN" "http://www.w3.org/Graphics/SVG/1.1/DTD/svg11.dtd">
<svg version="1.1" id="Layer_1" xmlns="http://www.w3.org/2000/svg" xmlns:xlink="http://www.w3.org/1999/xlink" x="0px" y="0px"
	 width="960px" height="560px" viewBox="0 0 960 560" enable-background="new 0 0 960 560" xml:space="preserve">
<g>
	<g>
		<linearGradient id="SVGID_1_" gradientUnits="userSpaceOnUse" x1="104.8202" y1="311.4142" x2="480.0856" y2="311.4142">
			<stop  offset="0" style="stop-color:#BFBADC"/>
			<stop  offset="1" style="stop-color:#FFFFFF"/>
		</linearGradient>
		<path fill="url(#SVGID_1_)" d="M104.824,313.417c-0.001-35.022-0.012-70.044,0.006-105.067c0.005-8.883,0.642-9.525,9.477-9.534
			c23.169-0.024,46.337-0.033,69.506,0.012c7.472,0.015,8.336,0.942,8.42,8.417c0.056,5.028,0.002,10.058,0.073,15.086
			c0.017,1.194-0.334,2.844,1.125,3.308c1.461,0.464,2.055-1.146,2.828-2.05c23.807-27.84,54.567-33.275,88.583-26.811
			c21.23,4.034,34.458,18,42.594,37.394c0.642,1.531,0.376,4.165,2.609,4.147c1.607-0.013,1.934-2.359,2.717-3.723
			c15.003-26.135,38.123-38.645,67.687-40.043c13.722-0.649,27.253,0.352,40.104,6.075c14.468,6.443,23.776,17.74,29.931,31.785
			c6.731,15.358,9.252,31.799,9.385,48.372c0.373,46.334,0.154,92.673,0.133,139.01c-0.004,7.797-0.889,8.668-8.696,8.68
			c-23.348,0.037-46.696,0.037-70.044-0.001c-7.771-0.013-8.64-0.889-8.649-8.726c-0.034-29.814-0.17-59.629,0.059-89.441
			c0.087-11.335-1.102-22.587-1.29-33.895c-0.075-4.506-1.286-8.873-2.778-13.132c-3.107-8.871-8.958-14.505-18.514-15.932
			c-9.571-1.429-17.426,1.669-23.377,9.129c-7.009,8.785-9.005,19.325-10.066,30.205c-1.521,15.595-0.938,31.217-1,46.831
			c-0.087,22.091-0.001,44.182-0.041,66.273c-0.014,7.804-0.884,8.676-8.686,8.688c-22.988,0.038-45.976,0.038-68.965,0
			c-7.806-0.013-8.681-0.884-8.69-8.685c-0.035-30.712-0.006-61.424-0.025-92.135c-0.008-13.11-0.118-26.273-2.587-39.16
			c-3.358-17.524-17.73-25.84-33.118-19.792c-7.474,2.938-12.279,8.579-15.405,15.744c-4.232,9.701-5.858,19.95-5.867,30.47
			c-0.03,34.483-0.007,68.967-0.023,103.45c-0.004,9.627-0.484,10.113-9.975,10.12c-22.809,0.017-45.619,0.024-68.428-0.008
			c-8.196-0.012-8.995-0.794-9.001-8.919C104.81,384.18,104.826,348.798,104.824,313.417z"/>
		<linearGradient id="SVGID_2_" gradientUnits="userSpaceOnUse" x1="514.5942" y1="279.5149" x2="717.3162" y2="279.5149">
			<stop  offset="0" style="stop-color:#BFBADC"/>
			<stop  offset="1" style="stop-color:#FFFFFF"/>
		</linearGradient>
		<path fill="url(#SVGID_2_)" d="M514.601,222.852c0.009-5.469,0.025-10.938,0.049-16.408c0.028-6.455,1.138-7.585,7.577-7.58
			c6.123,0.005,12.187-0.528,18.263-1.154c13.594-1.399,19.86-6.743,22.774-20.308c2.806-13.061,2.496-26.423,2.938-39.674
			c0.444-13.315,0.109-13.327,13.335-13.329c10.237-0.001,20.474,0,30.71,0.006c11.853,0.006,23.707-0.046,35.559,0.026
			c6.831,0.042,7.874,1.053,7.899,7.831c0.068,19.216,0.012,38.433,0.05,57.649c0.016,8.17,0.72,8.86,8.977,8.88
			c15.445,0.038,30.89-0.021,46.335,0.04c7.17,0.028,8.178,1.01,8.204,8.076c0.061,16.522,0.06,33.045,0.001,49.567
			c-0.025,7.109-1.023,8.1-8.151,8.129c-15.983,0.066-31.967,0.074-47.951,0.019c-4.31-0.015-7.489,0.93-7.394,6.155
			c0.474,26.2-1.228,52.431,1.048,78.604c0.247,2.844,0.774,5.706,1.542,8.456c2.027,7.266,5.87,10.344,13.436,11.089
			c7.621,0.75,15.062-0.469,22.401-2.304c3.97-0.993,5.741,0.121,5.723,4.339c-0.073,17.24-0.072,34.481-0.017,51.722
			c0.013,4.208-1.797,6.669-5.903,7.767c-12.226,3.269-24.524,4.881-37.268,3.905c-11.823-0.906-23.669-1.4-35.264-4.057
			c-18.117-4.151-33.591-12.452-43.98-28.565c-6.768-10.496-9.064-22.229-9.127-34.422c-0.159-30.889-0.058-61.78-0.078-92.669
			c-0.006-9.606-0.398-9.986-10.025-10.004c-11.314-0.022-22.629,0.043-33.943-0.043c-6.509-0.049-7.641-1.122-7.67-7.505
			C514.6,245.677,514.583,234.264,514.601,222.852"/>
		<linearGradient id="SVGID_3_" gradientUnits="userSpaceOnUse" x1="771.8764" y1="393.0317" x2="857.0842" y2="393.0317">
			<stop  offset="0" style="stop-color:#BFBADC"/>
			<stop  offset="1" style="stop-color:#FFFFFF"/>
		</linearGradient>
		<path fill="url(#SVGID_3_)" d="M771.876,392.643c0.032-24.173,18.676-42.716,42.778-42.548
			c23.467,0.164,42.369,19.172,42.429,42.666c0.061,23.636-19.203,43.196-42.556,43.209
			C790.415,435.983,771.844,417.119,771.876,392.643z"/>
	</g>
</g>
</svg>
