<?xml version="1.0" encoding="utf-8"?>
<!-- Generator: Adobe Illustrator 17.0.0, SVG Export Plug-In . SVG Version: 6.00 Build 0)  -->
<!DOCTYPE svg PUBLIC "-//W3C//DTD SVG 1.1//EN" "http://www.w3.org/Graphics/SVG/1.1/DTD/svg11.dtd">
<svg version="1.1" id="Layer_1" xmlns="http://www.w3.org/2000/svg" xmlns:xlink="http://www.w3.org/1999/xlink" x="0px" y="0px"
	 width="1000px" height="1000px" viewBox="1923.25 -173.25 1000 1000" enable-background="new 1923.25 -173.25 1000 1000"
	 xml:space="preserve">
<g>
	<g>
		<path fill="#2192FB" d="M2559.415,141.713c29.456,0,53.334-25.37,53.334-56.666s-23.878-56.667-53.334-56.667
			c-29.455,0-53.333,25.371-53.333,56.667S2529.96,141.713,2559.415,141.713z"/>
		<path fill="#1AF772" d="M2372.419,28.713c36.819,0,66.666-29.847,66.666-66.666c0-36.819-29.847-66.667-66.666-66.667
			c-36.819,0-66.667,29.848-66.667,66.667C2305.752-1.134,2335.6,28.713,2372.419,28.713z"/>
		<path fill="#2192FB" d="M2634.921,167.659c-1.545-3.181-5.872-4.058-9.017-4.461c-4.212-0.54-8.465-0.191-12.692-0.069
			c-6.385,0.185-12.774,0.27-19.162,0.152c-12.818-0.238-25.692-1.281-38.215-4.149c-11.057-2.531-21.68-6.566-31.025-13.112
			c-9.032-6.326-16.447-14.645-21.751-24.333c-6.066-11.08-9.761-23.701-10.163-36.365c-0.421-13.282,2.893-26.211,8.159-38.313
			c4.399-10.112,9.88-19.865,15.669-29.235c0.821-1.33,1.711-2.616,2.537-3.942c1.406-2.261,3.055-5.907,0.161-7.791
			c-3.148-2.05-5.011,1.116-6.403,3.397c-1.465,2.403-2.99,4.763-4.596,7.073c-3.57,5.137-7.375,9.851-11.054,14.411
			c-0.913,1.131-1.826,2.261-2.733,3.399c-8.997,11.255-17.151,23.113-23.942,33.231c-16.899,25.173-31.509,50.797-43.425,76.158
			l-0.92,1.97c-22.019,47.569-25.504,90.201-23.944,119.7c18.266-18.65,45.526-39.684,84.121-54.184
			c24.368-9.155,49.526-16.191,74.998-21.471c11.764-2.438,23.657-4.689,35.588-6.138c6.076-0.739,12.157-1.333,18.177-2.479
			c3.553-0.676,7.1-1.497,10.512-2.71c2.688-0.956,5.518-2.163,7.589-4.195C2635.125,172.499,2636.048,169.982,2634.921,167.659z
			 M2467.277,218.427c-0.122,0.045-0.229,0.085-0.32,0.12C2467.047,218.513,2467.152,218.474,2467.277,218.427z M2466.645,218.665
			c-0.009,0.003-0.024,0.009-0.031,0.011C2466.623,218.673,2466.633,218.669,2466.645,218.665z M2478.708,214.132
			c0.437-0.164,0.893-0.335,1.356-0.51C2479.611,213.793,2479.159,213.964,2478.708,214.132z M2474.285,215.795
			c0.418-0.157,0.843-0.317,1.3-0.489C2475.144,215.471,2474.708,215.636,2474.285,215.795z M2477.066,214.749
			c0.379-0.142,0.789-0.297,1.192-0.449C2477.858,214.451,2477.461,214.601,2477.066,214.749z M2494.008,208.384
			c0.186-0.069,0.304-0.115,0.376-0.141C2494.311,208.27,2494.183,208.318,2494.008,208.384z"/>
		<path fill="#1AF772" d="M2412.556,141.194c12.991-27.67,28.382-54.213,45.476-79.54c7.896-11.697,16.051-23.342,24.896-34.347
			c4.504-5.606,9.131-11.095,13.255-16.994c2.433-3.482,4.742-7.081,6.618-10.898c1.478-3.007,2.868-6.34,2.945-9.743
			c0.065-2.852-1.221-5.72-4.072-6.742c-3.905-1.4-8.261,1.416-11.236,3.659c-3.984,3.004-7.274,6.787-10.728,10.358
			c-5.219,5.394-10.521,10.709-15.989,15.851c-10.974,10.32-22.653,20.01-35.532,27.883c-11.371,6.951-23.607,12.287-36.826,14.468
			c-12.775,2.109-25.825,1.221-38.22-2.547c-14.176-4.309-27.622-11.856-38.332-22.14c-11.234-10.787-19.036-24.343-24.521-38.807
			c-4.583-12.086-7.963-24.759-10.77-37.362c-0.865-3.885-1.527-12.693-7.293-12.229c-1.814,0.147-3.518,1.237-4.594,2.675
			c-0.558,0.747-0.964,1.622-1.084,2.553c-0.119,0.62-0.454,1.356-0.432,1.986c-33.59,219.038,60.637,283.475,123.266,346.103
			C2384.413,266.057,2381.153,208.079,2412.556,141.194C2381.153,208.079,2431.038,101.826,2412.556,141.194z"/>
	</g>
	<g>
		<path fill="#313135" d="M2150.676,446.36v25.15h-88.954V347.507h87.351v25.15h-58.115v24.102h49.915v23.229h-49.915v26.372
			H2150.676z"/>
		<path fill="#313135" d="M2268.266,471.51v-73.878l-27.275,53.793h-16.043l-27.275-53.793v73.878h-29.235V347.507h31.731
			l32.8,64.796l32.979-64.796h31.553V471.51H2268.266z"/>
		<path fill="#313135" d="M2321.808,471.51V347.507h85.924v25.15h-56.688v26.722h46.705v23.228h-46.705v48.903H2321.808z"/>
		<path fill="#313135" d="M2477.002,472.558c-9.391,0-17.947-1.747-25.672-5.239c-7.606-3.609-14.201-8.383-19.787-14.321
			c-5.586-6.055-9.864-12.808-12.835-20.259c-2.971-7.568-4.457-15.37-4.457-23.403c0-8.151,1.545-15.952,4.635-23.403
			c3.208-7.568,7.606-14.264,13.191-20.085c5.705-5.938,12.419-10.595,20.144-13.972c7.725-3.377,16.163-5.065,25.314-5.065
			c9.39,0,17.886,1.805,25.496,5.414c7.724,3.494,14.315,8.267,19.782,14.321c5.59,6.055,9.867,12.866,12.838,20.434
			c2.971,7.452,4.457,15.078,4.457,22.879c0,8.15-1.609,16.01-4.818,23.578c-3.086,7.452-7.486,14.146-13.191,20.084
			c-5.582,5.822-12.239,10.479-19.963,13.972C2494.527,470.869,2486.155,472.558,2477.002,472.558z M2444.021,409.683
			c0,6.404,1.248,12.459,3.744,18.164c2.495,5.589,6.239,10.188,11.23,13.798c4.992,3.609,11.054,5.414,18.179,5.414
			c7.371,0,13.495-1.863,18.363-5.589c4.991-3.726,8.676-8.442,11.057-14.146c2.496-5.821,3.743-11.818,3.743-17.989
			c0-6.404-1.305-12.401-3.924-17.99c-2.495-5.705-6.239-10.304-11.229-13.797c-4.876-3.494-10.876-5.239-18.01-5.239
			c-7.363,0-13.544,1.862-18.535,5.588c-4.873,3.609-8.557,8.267-11.053,13.972C2445.21,397.574,2444.021,403.512,2444.021,409.683z
			"/>
		<path fill="#313135" d="M2549.688,408.461c0-7.452,1.428-14.846,4.285-22.181c2.848-7.335,7.01-13.972,12.477-19.91
			c5.467-5.938,12.124-10.653,19.963-14.146c7.847-3.609,16.762-5.414,26.743-5.414c11.763,0,22.04,2.504,30.839,7.51
			c8.791,5.007,15.325,11.527,19.61,19.562l-22.467,15.369c-1.896-4.308-4.457-7.685-7.667-10.129
			c-3.201-2.562-6.649-4.309-10.334-5.239c-3.686-1.048-7.248-1.572-10.696-1.572c-7.486,0-13.667,1.862-18.543,5.588
			c-4.868,3.726-8.496,8.442-10.876,14.147c-2.372,5.705-3.563,11.526-3.563,17.464c0,6.521,1.371,12.692,4.104,18.513
			c2.733,5.705,6.591,10.304,11.582,13.798c4.991,3.493,10.876,5.239,17.648,5.239c3.571,0,7.191-0.524,10.876-1.572
			c3.686-1.165,7.068-3.027,10.162-5.589c3.209-2.561,5.647-5.88,7.306-9.955l23.886,13.798
			c-2.495,6.171-6.591,11.411-12.296,15.718c-5.705,4.192-12.182,7.452-19.429,9.781c-7.133,2.212-14.201,3.318-21.219,3.318
			c-9.144,0-17.525-1.804-25.134-5.414c-7.601-3.726-14.201-8.616-19.782-14.67c-5.59-6.171-9.924-13.041-13.019-20.609
			C2551.174,424.179,2549.688,416.378,2549.688,408.461z"/>
		<path fill="#313135" d="M2709.729,347.507h31.553l43.497,124.003h-29.953l-9.801-27.77h-39.401l-9.629,27.77h-29.944
			L2709.729,347.507z M2740.207,424.005l-14.792-47.68l-15.153,47.68H2740.207z"/>
	</g>
	<rect x="2054.269" y="558.632" fill="none" width="737.963" height="247.488"/>
	<text transform="matrix(1 0 0 1 2063.8799 593.6727)"><tspan x="0" y="0" font-family="'RalewayThin-ExtraLight'" font-size="48">Empresa de formación, coaching </tspan><tspan x="214.844" y="57.6" font-family="'RalewayThin-ExtraLight'" font-size="48">y aprendizaje</tspan></text>
	<line fill="none" stroke="#000000" stroke-miterlimit="10" x1="2061.721" y1="513.635" x2="2784.779" y2="513.635"/>
</g>
</svg>
