<svg width="3380" height="1142" viewBox="0 0 3380 1142" fill="none" xmlns="http://www.w3.org/2000/svg">
<path fill-rule="evenodd" clip-rule="evenodd" d="M0.000488281 122.603L81.655 122.603C160.835 122.603 321.67 122.603 482.504 156.448C643.339 188.682 804.173 254.762 965.008 277.325C1125.84 298.277 1286.68 277.325 1447.51 222.528C1608.35 166.118 1771.65 79.0868 1932.49 33.9594C2003.33 14.7935 2074.16 4.06899 2145 0.959552C2235 -2.99095 2325 5.35036 2414.99 24.2892C2575.83 56.5231 2736.66 122.603 2897.5 156.448C3058.33 188.682 3219.17 188.682 3298.35 188.682L3380 188.682V1142H3298.35C3219.17 1142 3058.33 1142 2897.5 1142C2736.66 1142 2575.83 1142 2414.99 1142C2254.16 1142 2093.32 1142 1932.49 1142C1771.66 1142 1608.35 1142 1447.51 1142C1286.68 1142 1125.84 1142 965.008 1142C804.173 1142 643.339 1142 482.504 1142C321.67 1142 160.835 1142 81.6551 1142H0.000589626L0.000488281 122.603Z" fill="white"/>
<path fill-rule="evenodd" clip-rule="evenodd" d="M0.000488281 122.603L81.655 122.603C160.835 122.603 321.67 122.603 482.504 156.448C643.339 188.682 804.173 254.762 965.008 277.325C1125.84 298.277 1286.68 277.325 1447.51 222.528C1608.35 166.118 1771.65 79.0868 1932.49 33.9594C2003.33 14.7935 2074.16 4.06899 2145 0.959552C2235 -2.99095 2325 5.35036 2414.99 24.2892C2575.83 56.5231 2736.66 122.603 2897.5 156.448C3058.33 188.682 3219.17 188.682 3298.35 188.682L3380 188.682V1142H3298.35C3219.17 1142 3058.33 1142 2897.5 1142C2736.66 1142 2575.83 1142 2414.99 1142C2254.16 1142 2093.32 1142 1932.49 1142C1771.66 1142 1608.35 1142 1447.51 1142C1286.68 1142 1125.84 1142 965.008 1142C804.173 1142 643.339 1142 482.504 1142C321.67 1142 160.835 1142 81.6551 1142H0.000589626L0.000488281 122.603Z" fill="url(#paint0_radial_83:155)"/>
<path fill-rule="evenodd" clip-rule="evenodd" d="M0.000488281 122.603L81.655 122.603C160.835 122.603 321.67 122.603 482.504 156.448C643.339 188.682 804.173 254.762 965.008 277.325C1125.84 298.277 1286.68 277.325 1447.51 222.528C1608.35 166.118 1771.65 79.0868 1932.49 33.9594C2003.33 14.7935 2074.16 4.06899 2145 0.959552C2235 -2.99095 2325 5.35036 2414.99 24.2892C2575.83 56.5231 2736.66 122.603 2897.5 156.448C3058.33 188.682 3219.17 188.682 3298.35 188.682L3380 188.682V1142H3298.35C3219.17 1142 3058.33 1142 2897.5 1142C2736.66 1142 2575.83 1142 2414.99 1142C2254.16 1142 2093.32 1142 1932.49 1142C1771.66 1142 1608.35 1142 1447.51 1142C1286.68 1142 1125.84 1142 965.008 1142C804.173 1142 643.339 1142 482.504 1142C321.67 1142 160.835 1142 81.6551 1142H0.000589626L0.000488281 122.603Z" fill="url(#paint1_radial_83:155)"/>
<path fill-rule="evenodd" clip-rule="evenodd" d="M0.000488281 122.603L81.655 122.603C160.835 122.603 321.67 122.603 482.504 156.448C643.339 188.682 804.173 254.762 965.008 277.325C1125.84 298.277 1286.68 277.325 1447.51 222.528C1608.35 166.118 1771.65 79.0868 1932.49 33.9594C2003.33 14.7935 2074.16 4.06899 2145 0.959552C2235 -2.99095 2325 5.35036 2414.99 24.2892C2575.83 56.5231 2736.66 122.603 2897.5 156.448C3058.33 188.682 3219.17 188.682 3298.35 188.682L3380 188.682V1142H3298.35C3219.17 1142 3058.33 1142 2897.5 1142C2736.66 1142 2575.83 1142 2414.99 1142C2254.16 1142 2093.32 1142 1932.49 1142C1771.66 1142 1608.35 1142 1447.51 1142C1286.68 1142 1125.84 1142 965.008 1142C804.173 1142 643.339 1142 482.504 1142C321.67 1142 160.835 1142 81.6551 1142H0.000589626L0.000488281 122.603Z" fill="url(#paint2_radial_83:155)"/>
<path fill-rule="evenodd" clip-rule="evenodd" d="M0.000488281 122.603L81.655 122.603C160.835 122.603 321.67 122.603 482.504 156.448C643.339 188.682 804.173 254.762 965.008 277.325C1125.84 298.277 1286.68 277.325 1447.51 222.528C1608.35 166.118 1771.65 79.0868 1932.49 33.9594C2003.33 14.7935 2074.16 4.06899 2145 0.959552C2235 -2.99095 2325 5.35036 2414.99 24.2892C2575.83 56.5231 2736.66 122.603 2897.5 156.448C3058.33 188.682 3219.17 188.682 3298.35 188.682L3380 188.682V1142H3298.35C3219.17 1142 3058.33 1142 2897.5 1142C2736.66 1142 2575.83 1142 2414.99 1142C2254.16 1142 2093.32 1142 1932.49 1142C1771.66 1142 1608.35 1142 1447.51 1142C1286.68 1142 1125.84 1142 965.008 1142C804.173 1142 643.339 1142 482.504 1142C321.67 1142 160.835 1142 81.6551 1142H0.000589626L0.000488281 122.603Z" fill="url(#paint3_radial_83:155)"/>
<path fill-rule="evenodd" clip-rule="evenodd" d="M0.000488281 122.603L81.655 122.603C160.835 122.603 321.67 122.603 482.504 156.448C643.339 188.682 804.173 254.762 965.008 277.325C1125.84 298.277 1286.68 277.325 1447.51 222.528C1608.35 166.118 1771.65 79.0868 1932.49 33.9594C2003.33 14.7935 2074.16 4.06899 2145 0.959552C2235 -2.99095 2325 5.35036 2414.99 24.2892C2575.83 56.5231 2736.66 122.603 2897.5 156.448C3058.33 188.682 3219.17 188.682 3298.35 188.682L3380 188.682V1142H3298.35C3219.17 1142 3058.33 1142 2897.5 1142C2736.66 1142 2575.83 1142 2414.99 1142C2254.16 1142 2093.32 1142 1932.49 1142C1771.66 1142 1608.35 1142 1447.51 1142C1286.68 1142 1125.84 1142 965.008 1142C804.173 1142 643.339 1142 482.504 1142C321.67 1142 160.835 1142 81.6551 1142H0.000589626L0.000488281 122.603Z" fill="url(#paint4_radial_83:155)" fill-opacity="0.2"/>
<defs>
<radialGradient id="paint0_radial_83:155" cx="0" cy="0" r="1" gradientUnits="userSpaceOnUse" gradientTransform="translate(2113.5 45) rotate(115.232) scale(1749.97 2924.82)">
<stop stop-color="white"/>
<stop offset="0.770833" stop-color="#F7F8FF" stop-opacity="0.197917"/>
<stop offset="1" stop-color="white" stop-opacity="0"/>
</radialGradient>
<radialGradient id="paint1_radial_83:155" cx="0" cy="0" r="1" gradientUnits="userSpaceOnUse" gradientTransform="translate(1784.03 622.228) rotate(137.477) scale(1440.29 2929.72)">
<stop stop-color="#E0FFF4"/>
<stop offset="1" stop-color="#A7F6D0" stop-opacity="0.06"/>
</radialGradient>
<radialGradient id="paint2_radial_83:155" cx="0" cy="0" r="1" gradientUnits="userSpaceOnUse" gradientTransform="translate(795.513 388.532) rotate(111.115) scale(1214.51 3225.32)">
<stop stop-color="white"/>
<stop offset="1" stop-color="#CB5CFF" stop-opacity="0"/>
</radialGradient>
<radialGradient id="paint3_radial_83:155" cx="0" cy="0" r="1" gradientUnits="userSpaceOnUse" gradientTransform="translate(510 364) rotate(11.6397) scale(1618.28 2133.26)">
<stop stop-color="#BDC8FF"/>
<stop offset="0.982322" stop-color="#F7DCF9" stop-opacity="0"/>
</radialGradient>
<radialGradient id="paint4_radial_83:155" cx="0" cy="0" r="1" gradientUnits="userSpaceOnUse" gradientTransform="translate(1690 571) rotate(90) scale(571 1690)">
<stop offset="0.117528" stop-color="white"/>
<stop offset="1" stop-color="white" stop-opacity="0"/>
</radialGradient>
</defs>
</svg>
