<svg width="655" height="300" viewBox="0 0 655 300" fill="none" xmlns="http://www.w3.org/2000/svg">
<g filter="url(#filter0_d_68_2179)">
<path d="M349 174.5C349 162.074 359.074 152 371.5 152H628.5C640.926 152 651 162.074 651 174.5V174.5C651 186.926 640.926 197 628.5 197H371.5C359.074 197 349 186.926 349 174.5V174.5Z" fill="#FBFBFB"/>
<path d="M366.033 175.324V175.673C366.033 176.229 365.947 176.675 365.773 177.013C365.605 177.35 365.299 177.71 364.857 178.093C364.306 178.576 363.96 178.904 363.818 179.077C363.682 179.246 363.584 179.419 363.524 179.597C363.47 179.77 363.442 179.984 363.442 180.239C363.442 180.695 363.593 181.05 363.894 181.306C364.194 181.565 364.623 181.695 365.179 181.695C365.543 181.695 365.896 181.652 366.238 181.565C366.58 181.479 366.974 181.326 367.421 181.107L367.824 182.03C366.926 182.468 366.026 182.687 365.124 182.687C364.258 182.687 363.579 182.475 363.087 182.051C362.595 181.627 362.349 181.028 362.349 180.253C362.349 179.934 362.387 179.656 362.465 179.419C362.547 179.177 362.661 178.956 362.807 178.756C362.952 178.551 363.126 178.355 363.326 178.168C363.531 177.981 363.757 177.781 364.003 177.566C364.463 177.165 364.766 176.833 364.912 176.568C365.062 176.304 365.138 175.96 365.138 175.536V175.324H366.033ZM366.368 173.28C366.368 173.896 366.092 174.203 365.541 174.203C365.272 174.203 365.067 174.126 364.926 173.971C364.785 173.811 364.714 173.581 364.714 173.28C364.714 172.989 364.789 172.763 364.939 172.604C365.09 172.439 365.29 172.357 365.541 172.357C365.773 172.357 365.969 172.43 366.129 172.576C366.288 172.722 366.368 172.957 366.368 173.28ZM378.064 174.989C378.064 176.27 377.807 177.334 377.292 178.182C376.777 179.029 376.05 179.604 375.111 179.904L377.49 182.379H375.802L373.854 180.123L373.478 180.137C372.006 180.137 370.868 179.688 370.066 178.79C369.269 177.888 368.87 176.616 368.87 174.976C368.87 173.349 369.271 172.089 370.073 171.195C370.875 170.298 372.015 169.849 373.491 169.849C374.927 169.849 376.048 170.304 376.854 171.216C377.661 172.127 378.064 173.385 378.064 174.989ZM370.101 174.989C370.101 176.343 370.388 177.37 370.962 178.072C371.541 178.77 372.379 179.118 373.478 179.118C374.585 179.118 375.421 178.77 375.986 178.072C376.551 177.375 376.834 176.347 376.834 174.989C376.834 173.645 376.551 172.626 375.986 171.934C375.426 171.236 374.594 170.888 373.491 170.888C372.384 170.888 371.541 171.239 370.962 171.94C370.388 172.638 370.101 173.654 370.101 174.989ZM381.195 172.508V177.368C381.195 177.979 381.334 178.435 381.612 178.735C381.89 179.036 382.326 179.187 382.918 179.187C383.702 179.187 384.274 178.972 384.634 178.544C384.998 178.116 385.181 177.416 385.181 176.445V172.508H386.315V180H385.379L385.215 178.995H385.153C384.921 179.364 384.597 179.647 384.183 179.843C383.772 180.039 383.303 180.137 382.774 180.137C381.863 180.137 381.179 179.92 380.724 179.487C380.272 179.054 380.047 178.362 380.047 177.409V172.508H381.195ZM391.894 180.137C390.786 180.137 389.911 179.799 389.269 179.125C388.631 178.451 388.312 177.514 388.312 176.315C388.312 175.108 388.608 174.148 389.2 173.438C389.797 172.727 390.597 172.371 391.6 172.371C392.538 172.371 393.281 172.681 393.828 173.301C394.375 173.916 394.648 174.729 394.648 175.741V176.459H389.487C389.51 177.339 389.731 178.006 390.15 178.462C390.574 178.918 391.169 179.146 391.935 179.146C392.741 179.146 393.539 178.977 394.327 178.64V179.651C393.926 179.825 393.546 179.948 393.186 180.021C392.83 180.098 392.399 180.137 391.894 180.137ZM391.586 173.321C390.984 173.321 390.504 173.517 390.144 173.909C389.788 174.301 389.578 174.843 389.515 175.536H393.432C393.432 174.821 393.272 174.274 392.953 173.896C392.634 173.513 392.178 173.321 391.586 173.321ZM390.745 171.346C390.964 171.063 391.199 170.721 391.449 170.32C391.704 169.919 391.905 169.571 392.051 169.274H393.432V169.418C393.231 169.714 392.933 170.079 392.536 170.512C392.14 170.945 391.796 171.28 391.504 171.517H390.745V171.346ZM402.646 179.2C402.847 179.2 403.041 179.187 403.228 179.159C403.414 179.127 403.562 179.095 403.672 179.063V179.932C403.549 179.991 403.367 180.039 403.125 180.075C402.888 180.116 402.674 180.137 402.482 180.137C401.033 180.137 400.309 179.373 400.309 177.847V173.39H399.235V172.843L400.309 172.371L400.787 170.771H401.443V172.508H403.617V173.39H401.443V177.799C401.443 178.25 401.55 178.596 401.765 178.838C401.979 179.079 402.273 179.2 402.646 179.2ZM408.341 180.137C407.233 180.137 406.358 179.799 405.716 179.125C405.078 178.451 404.759 177.514 404.759 176.315C404.759 175.108 405.055 174.148 405.647 173.438C406.244 172.727 407.044 172.371 408.047 172.371C408.986 172.371 409.729 172.681 410.275 173.301C410.822 173.916 411.096 174.729 411.096 175.741V176.459H405.935C405.957 177.339 406.178 178.006 406.598 178.462C407.021 178.918 407.616 179.146 408.382 179.146C409.188 179.146 409.986 178.977 410.774 178.64V179.651C410.373 179.825 409.993 179.948 409.633 180.021C409.277 180.098 408.847 180.137 408.341 180.137ZM408.033 173.321C407.432 173.321 406.951 173.517 406.591 173.909C406.235 174.301 406.026 174.843 405.962 175.536H409.879C409.879 174.821 409.719 174.274 409.4 173.896C409.081 173.513 408.626 173.321 408.033 173.321ZM421.281 180L421.056 178.934H421.001C420.627 179.403 420.254 179.722 419.88 179.891C419.511 180.055 419.048 180.137 418.492 180.137C417.749 180.137 417.166 179.945 416.742 179.562C416.323 179.18 416.113 178.635 416.113 177.929C416.113 176.416 417.323 175.623 419.743 175.55L421.015 175.509V175.044C421.015 174.456 420.887 174.023 420.632 173.745C420.381 173.463 419.978 173.321 419.422 173.321C418.798 173.321 418.091 173.513 417.303 173.896L416.954 173.027C417.323 172.827 417.727 172.67 418.164 172.556C418.606 172.442 419.048 172.385 419.49 172.385C420.383 172.385 421.044 172.583 421.473 172.979C421.906 173.376 422.122 174.012 422.122 174.887V180H421.281ZM418.718 179.2C419.424 179.2 419.978 179.007 420.379 178.619C420.785 178.232 420.987 177.689 420.987 176.992V176.315L419.853 176.363C418.95 176.395 418.299 176.536 417.897 176.787C417.501 177.033 417.303 177.418 417.303 177.942C417.303 178.353 417.426 178.665 417.672 178.879C417.923 179.093 418.271 179.2 418.718 179.2ZM427.953 180.137C427.465 180.137 427.019 180.048 426.613 179.87C426.212 179.688 425.875 179.41 425.602 179.036H425.52C425.574 179.474 425.602 179.888 425.602 180.28V183.363H424.467V172.508H425.39L425.547 173.533H425.602C425.893 173.123 426.233 172.827 426.62 172.645C427.007 172.462 427.452 172.371 427.953 172.371C428.947 172.371 429.712 172.711 430.25 173.39C430.792 174.069 431.063 175.021 431.063 176.247C431.063 177.478 430.788 178.435 430.236 179.118C429.689 179.797 428.928 180.137 427.953 180.137ZM427.789 173.335C427.023 173.335 426.47 173.547 426.128 173.971C425.786 174.395 425.611 175.069 425.602 175.994V176.247C425.602 177.3 425.777 178.054 426.128 178.51C426.479 178.961 427.042 179.187 427.816 179.187C428.464 179.187 428.969 178.924 429.334 178.4C429.703 177.876 429.888 177.154 429.888 176.233C429.888 175.299 429.703 174.584 429.334 174.087C428.969 173.586 428.454 173.335 427.789 173.335ZM436.218 180.137C435.11 180.137 434.235 179.799 433.593 179.125C432.955 178.451 432.636 177.514 432.636 176.315C432.636 175.108 432.932 174.148 433.524 173.438C434.121 172.727 434.921 172.371 435.924 172.371C436.863 172.371 437.605 172.681 438.152 173.301C438.699 173.916 438.973 174.729 438.973 175.741V176.459H433.812C433.834 177.339 434.055 178.006 434.475 178.462C434.898 178.918 435.493 179.146 436.259 179.146C437.065 179.146 437.863 178.977 438.651 178.64V179.651C438.25 179.825 437.87 179.948 437.51 180.021C437.154 180.098 436.724 180.137 436.218 180.137ZM435.91 173.321C435.309 173.321 434.828 173.517 434.468 173.909C434.112 174.301 433.903 174.843 433.839 175.536H437.756C437.756 174.821 437.596 174.274 437.277 173.896C436.958 173.513 436.503 173.321 435.91 173.321ZM443.334 179.2C443.535 179.2 443.728 179.187 443.915 179.159C444.102 179.127 444.25 179.095 444.359 179.063V179.932C444.236 179.991 444.054 180.039 443.812 180.075C443.576 180.116 443.361 180.137 443.17 180.137C441.721 180.137 440.996 179.373 440.996 177.847V173.39H439.923V172.843L440.996 172.371L441.475 170.771H442.131V172.508H444.305V173.39H442.131V177.799C442.131 178.25 442.238 178.596 442.452 178.838C442.666 179.079 442.96 179.2 443.334 179.2ZM449.028 180.137C447.921 180.137 447.046 179.799 446.403 179.125C445.765 178.451 445.446 177.514 445.446 176.315C445.446 175.108 445.743 174.148 446.335 173.438C446.932 172.727 447.732 172.371 448.734 172.371C449.673 172.371 450.416 172.681 450.963 173.301C451.51 173.916 451.783 174.729 451.783 175.741V176.459H446.622C446.645 177.339 446.866 178.006 447.285 178.462C447.709 178.918 448.304 179.146 449.069 179.146C449.876 179.146 450.674 178.977 451.462 178.64V179.651C451.061 179.825 450.68 179.948 450.32 180.021C449.965 180.098 449.534 180.137 449.028 180.137ZM448.721 173.321C448.119 173.321 447.638 173.517 447.278 173.909C446.923 174.301 446.713 174.843 446.649 175.536H450.566C450.566 174.821 450.407 174.274 450.088 173.896C449.769 173.513 449.313 173.321 448.721 173.321ZM456.719 180.137C455.634 180.137 454.793 179.804 454.196 179.139C453.604 178.469 453.308 177.523 453.308 176.302C453.308 175.049 453.608 174.08 454.21 173.396C454.816 172.713 455.677 172.371 456.794 172.371C457.154 172.371 457.514 172.41 457.874 172.487C458.234 172.565 458.517 172.656 458.722 172.761L458.373 173.725C458.122 173.624 457.849 173.542 457.553 173.479C457.257 173.41 456.994 173.376 456.767 173.376C455.244 173.376 454.483 174.347 454.483 176.288C454.483 177.209 454.668 177.915 455.037 178.407C455.411 178.899 455.962 179.146 456.691 179.146C457.316 179.146 457.956 179.011 458.612 178.742V179.747C458.111 180.007 457.48 180.137 456.719 180.137ZM463.562 180.137C462.454 180.137 461.579 179.799 460.937 179.125C460.299 178.451 459.979 177.514 459.979 176.315C459.979 175.108 460.276 174.148 460.868 173.438C461.465 172.727 462.265 172.371 463.268 172.371C464.206 172.371 464.949 172.681 465.496 173.301C466.043 173.916 466.316 174.729 466.316 175.741V176.459H461.155C461.178 177.339 461.399 178.006 461.818 178.462C462.242 178.918 462.837 179.146 463.603 179.146C464.409 179.146 465.207 178.977 465.995 178.64V179.651C465.594 179.825 465.214 179.948 464.854 180.021C464.498 180.098 464.067 180.137 463.562 180.137ZM463.254 173.321C462.652 173.321 462.172 173.517 461.812 173.909C461.456 174.301 461.246 174.843 461.183 175.536H465.1C465.1 174.821 464.94 174.274 464.621 173.896C464.302 173.513 463.846 173.321 463.254 173.321ZM469.03 177.245V176.876C469.03 176.343 469.112 175.905 469.276 175.563C469.44 175.217 469.746 174.853 470.192 174.47C470.812 173.946 471.202 173.551 471.361 173.287C471.525 173.023 471.607 172.704 471.607 172.33C471.607 171.865 471.457 171.507 471.156 171.257C470.86 171.002 470.432 170.874 469.871 170.874C469.511 170.874 469.16 170.917 468.818 171.004C468.477 171.086 468.085 171.239 467.643 171.462L467.239 170.539C468.101 170.088 469.001 169.862 469.939 169.862C470.81 169.862 471.487 170.076 471.97 170.505C472.453 170.933 472.694 171.537 472.694 172.316C472.694 172.649 472.649 172.943 472.558 173.198C472.471 173.449 472.341 173.688 472.168 173.916C471.995 174.139 471.621 174.502 471.047 175.003C470.587 175.395 470.281 175.721 470.131 175.98C469.985 176.24 469.912 176.587 469.912 177.02V177.245H469.03ZM468.695 179.275C468.695 178.656 468.969 178.346 469.516 178.346C469.78 178.346 469.983 178.425 470.124 178.585C470.27 178.744 470.343 178.975 470.343 179.275C470.343 179.567 470.27 179.795 470.124 179.959C469.978 180.118 469.775 180.198 469.516 180.198C469.279 180.198 469.083 180.128 468.928 179.986C468.773 179.84 468.695 179.604 468.695 179.275Z" fill="#707070"/>
</g>
<path d="M612.5 176H611.71L611.43 175.73C612.41 174.59 613 173.11 613 171.5C613 167.91 610.09 165 606.5 165C602.91 165 600 167.91 600 171.5C600 175.09 602.91 178 606.5 178C608.11 178 609.59 177.41 610.73 176.43L611 176.71V177.5L616 182.49L617.49 181L612.5 176V176ZM606.5 176C604.01 176 602 173.99 602 171.5C602 169.01 604.01 167 606.5 167C608.99 167 611 169.01 611 171.5C611 173.99 608.99 176 606.5 176Z" fill="#FF3366"/>
<path d="M204 92C204 78.7452 214.745 68 228 68H429C442.255 68 453 78.7452 453 92V92C453 105.255 442.255 116 429 116H228C214.745 116 204 105.255 204 92V92Z" fill="#FF3366"/>
<path d="M242.376 85.6504H246.261L242.051 98.5H237.964L233.771 85.6504H237.674L239.423 92.1631C239.786 93.6104 239.985 94.6182 240.021 95.1865C240.062 94.7764 240.144 94.2637 240.267 93.6484C240.39 93.0332 240.498 92.5498 240.592 92.1982L242.376 85.6504ZM252.264 98.6758C250.605 98.6758 249.316 98.2363 248.396 97.3574C247.482 96.4727 247.025 95.2158 247.025 93.5869C247.025 91.9053 247.45 90.6162 248.3 89.7197C249.149 88.8174 250.362 88.3662 251.938 88.3662C253.438 88.3662 254.596 88.7588 255.41 89.5439C256.23 90.3232 256.641 91.4482 256.641 92.9189V94.4482H250.497C250.521 95.0049 250.723 95.4414 251.104 95.7578C251.49 96.0742 252.015 96.2324 252.677 96.2324C253.28 96.2324 253.834 96.1768 254.338 96.0654C254.848 95.9482 255.398 95.752 255.99 95.4766V97.9463C255.451 98.2217 254.895 98.4121 254.32 98.5176C253.746 98.623 253.061 98.6758 252.264 98.6758ZM252.062 90.7041C251.657 90.7041 251.317 90.833 251.042 91.0908C250.772 91.3428 250.614 91.7412 250.567 92.2861H253.521C253.509 91.8057 253.371 91.4219 253.107 91.1348C252.85 90.8477 252.501 90.7041 252.062 90.7041ZM264.595 88.3662C264.894 88.3662 265.178 88.3896 265.447 88.4365L265.641 88.4717L265.333 91.7148C265.052 91.6445 264.662 91.6094 264.164 91.6094C263.414 91.6094 262.869 91.7822 262.529 92.1279C262.189 92.4678 262.02 92.96 262.02 93.6045V98.5H258.583V88.542H261.141L261.677 90.1328H261.844C262.131 89.6055 262.529 89.1807 263.039 88.8584C263.555 88.5303 264.073 88.3662 264.595 88.3662ZM276.592 95.96C277.055 95.96 277.608 95.8457 278.253 95.6172V98.1221C277.79 98.3213 277.348 98.4619 276.926 98.5439C276.51 98.6318 276.021 98.6758 275.458 98.6758C274.304 98.6758 273.472 98.3945 272.962 97.832C272.452 97.2637 272.197 96.3936 272.197 95.2217V91.1172H270.993V89.7197L272.522 88.6387L273.41 86.5469H275.66V88.542H278.104V91.1172H275.66V94.9932C275.66 95.6377 275.971 95.96 276.592 95.96ZM289.503 93.499C289.503 95.1279 289.063 96.3994 288.185 97.3135C287.312 98.2217 286.087 98.6758 284.511 98.6758C282.999 98.6758 281.795 98.21 280.898 97.2783C280.008 96.3467 279.562 95.0869 279.562 93.499C279.562 91.876 279.999 90.6162 280.872 89.7197C281.751 88.8174 282.981 88.3662 284.563 88.3662C285.542 88.3662 286.406 88.5742 287.156 88.9902C287.906 89.4062 288.483 90.0039 288.888 90.7832C289.298 91.5566 289.503 92.4619 289.503 93.499ZM283.052 93.499C283.052 94.3545 283.166 95.0078 283.395 95.459C283.623 95.9043 284.007 96.127 284.546 96.127C285.079 96.127 285.454 95.9043 285.671 95.459C285.894 95.0078 286.005 94.3545 286.005 93.499C286.005 92.6494 285.894 92.0078 285.671 91.5742C285.448 91.1406 285.067 90.9238 284.528 90.9238C284.001 90.9238 283.623 91.1406 283.395 91.5742C283.166 92.002 283.052 92.6436 283.052 93.499ZM294.565 98.6758C293.856 98.6758 293.235 98.4736 292.702 98.0693C292.175 97.665 291.765 97.0703 291.472 96.2852C291.185 95.5 291.041 94.583 291.041 93.5342C291.041 91.917 291.366 90.6514 292.017 89.7373C292.667 88.8232 293.561 88.3662 294.697 88.3662C295.254 88.3662 295.74 88.4775 296.156 88.7002C296.578 88.9229 296.962 89.2979 297.308 89.8252H297.378C297.267 89.0459 297.211 88.2666 297.211 87.4873V84.8242H300.674V98.5H298.081L297.343 97.2432H297.211C296.619 98.1982 295.737 98.6758 294.565 98.6758ZM295.972 95.96C296.522 95.96 296.909 95.7871 297.132 95.4414C297.36 95.0957 297.483 94.5625 297.501 93.8418V93.5693C297.501 92.6904 297.375 92.0664 297.123 91.6973C296.871 91.3223 296.476 91.1348 295.937 91.1348C295.485 91.1348 295.134 91.3486 294.882 91.7764C294.636 92.1982 294.513 92.8018 294.513 93.5869C294.513 94.3604 294.639 94.9492 294.891 95.3535C295.143 95.7578 295.503 95.96 295.972 95.96ZM312.565 93.499C312.565 95.1279 312.126 96.3994 311.247 97.3135C310.374 98.2217 309.149 98.6758 307.573 98.6758C306.062 98.6758 304.857 98.21 303.961 97.2783C303.07 96.3467 302.625 95.0869 302.625 93.499C302.625 91.876 303.062 90.6162 303.935 89.7197C304.813 88.8174 306.044 88.3662 307.626 88.3662C308.604 88.3662 309.469 88.5742 310.219 88.9902C310.969 89.4062 311.546 90.0039 311.95 90.7832C312.36 91.5566 312.565 92.4619 312.565 93.499ZM306.114 93.499C306.114 94.3545 306.229 95.0078 306.457 95.459C306.686 95.9043 307.069 96.127 307.608 96.127C308.142 96.127 308.517 95.9043 308.733 95.459C308.956 95.0078 309.067 94.3545 309.067 93.499C309.067 92.6494 308.956 92.0078 308.733 91.5742C308.511 91.1406 308.13 90.9238 307.591 90.9238C307.063 90.9238 306.686 91.1406 306.457 91.5742C306.229 92.002 306.114 92.6436 306.114 93.499ZM322.225 95.4414C322.225 96.5078 321.861 97.3135 321.135 97.8584C320.408 98.4033 319.365 98.6758 318.006 98.6758C317.268 98.6758 316.626 98.6348 316.081 98.5527C315.536 98.4766 314.979 98.333 314.411 98.1221V95.3711C314.944 95.6055 315.527 95.7988 316.16 95.9512C316.799 96.1035 317.367 96.1797 317.865 96.1797C318.609 96.1797 318.981 96.0098 318.981 95.6699C318.981 95.4941 318.876 95.3389 318.665 95.2041C318.46 95.0635 317.856 94.7939 316.854 94.3955C315.94 94.0205 315.302 93.5957 314.938 93.1211C314.575 92.6406 314.394 92.0342 314.394 91.3018C314.394 90.376 314.751 89.6553 315.466 89.1396C316.181 88.624 317.191 88.3662 318.498 88.3662C319.154 88.3662 319.77 88.4395 320.344 88.5859C320.924 88.7266 321.524 88.9346 322.146 89.21L321.214 91.4248C320.757 91.2197 320.273 91.0469 319.764 90.9062C319.254 90.7598 318.838 90.6865 318.516 90.6865C317.953 90.6865 317.672 90.8242 317.672 91.0996C317.672 91.2695 317.769 91.416 317.962 91.5391C318.161 91.6562 318.729 91.8994 319.667 92.2686C320.364 92.5557 320.883 92.8369 321.223 93.1123C321.568 93.3877 321.82 93.7129 321.979 94.0879C322.143 94.457 322.225 94.9082 322.225 95.4414ZM332.244 98.5H328.808V84.8242H332.244V98.5ZM344.136 93.499C344.136 95.1279 343.696 96.3994 342.817 97.3135C341.944 98.2217 340.72 98.6758 339.144 98.6758C337.632 98.6758 336.428 98.21 335.531 97.2783C334.641 96.3467 334.195 95.0869 334.195 93.499C334.195 91.876 334.632 90.6162 335.505 89.7197C336.384 88.8174 337.614 88.3662 339.196 88.3662C340.175 88.3662 341.039 88.5742 341.789 88.9902C342.539 89.4062 343.116 90.0039 343.521 90.7832C343.931 91.5566 344.136 92.4619 344.136 93.499ZM337.685 93.499C337.685 94.3545 337.799 95.0078 338.027 95.459C338.256 95.9043 338.64 96.127 339.179 96.127C339.712 96.127 340.087 95.9043 340.304 95.459C340.526 95.0078 340.638 94.3545 340.638 93.499C340.638 92.6494 340.526 92.0078 340.304 91.5742C340.081 91.1406 339.7 90.9238 339.161 90.9238C338.634 90.9238 338.256 91.1406 338.027 91.5742C337.799 92.002 337.685 92.6436 337.685 93.499ZM353.795 95.4414C353.795 96.5078 353.432 97.3135 352.705 97.8584C351.979 98.4033 350.936 98.6758 349.576 98.6758C348.838 98.6758 348.196 98.6348 347.651 98.5527C347.106 98.4766 346.55 98.333 345.981 98.1221V95.3711C346.515 95.6055 347.098 95.7988 347.73 95.9512C348.369 96.1035 348.938 96.1797 349.436 96.1797C350.18 96.1797 350.552 96.0098 350.552 95.6699C350.552 95.4941 350.446 95.3389 350.235 95.2041C350.03 95.0635 349.427 94.7939 348.425 94.3955C347.511 94.0205 346.872 93.5957 346.509 93.1211C346.146 92.6406 345.964 92.0342 345.964 91.3018C345.964 90.376 346.321 89.6553 347.036 89.1396C347.751 88.624 348.762 88.3662 350.068 88.3662C350.725 88.3662 351.34 88.4395 351.914 88.5859C352.494 88.7266 353.095 88.9346 353.716 89.21L352.784 91.4248C352.327 91.2197 351.844 91.0469 351.334 90.9062C350.824 90.7598 350.408 90.6865 350.086 90.6865C349.523 90.6865 349.242 90.8242 349.242 91.0996C349.242 91.2695 349.339 91.416 349.532 91.5391C349.731 91.6562 350.3 91.8994 351.237 92.2686C351.935 92.5557 352.453 92.8369 352.793 93.1123C353.139 93.3877 353.391 93.7129 353.549 94.0879C353.713 94.457 353.795 94.9082 353.795 95.4414ZM368.068 95.4414C368.068 96.5078 367.705 97.3135 366.979 97.8584C366.252 98.4033 365.209 98.6758 363.85 98.6758C363.111 98.6758 362.47 98.6348 361.925 98.5527C361.38 98.4766 360.823 98.333 360.255 98.1221V95.3711C360.788 95.6055 361.371 95.7988 362.004 95.9512C362.643 96.1035 363.211 96.1797 363.709 96.1797C364.453 96.1797 364.825 96.0098 364.825 95.6699C364.825 95.4941 364.72 95.3389 364.509 95.2041C364.304 95.0635 363.7 94.7939 362.698 94.3955C361.784 94.0205 361.146 93.5957 360.782 93.1211C360.419 92.6406 360.237 92.0342 360.237 91.3018C360.237 90.376 360.595 89.6553 361.31 89.1396C362.024 88.624 363.035 88.3662 364.342 88.3662C364.998 88.3662 365.613 88.4395 366.188 88.5859C366.768 88.7266 367.368 88.9346 367.989 89.21L367.058 91.4248C366.601 91.2197 366.117 91.0469 365.607 90.9062C365.098 90.7598 364.682 90.6865 364.359 90.6865C363.797 90.6865 363.516 90.8242 363.516 91.0996C363.516 91.2695 363.612 91.416 363.806 91.5391C364.005 91.6562 364.573 91.8994 365.511 92.2686C366.208 92.5557 366.727 92.8369 367.066 93.1123C367.412 93.3877 367.664 93.7129 367.822 94.0879C367.986 94.457 368.068 94.9082 368.068 95.4414ZM376.26 98.5V93.0684C376.26 92.4062 376.163 91.9082 375.97 91.5742C375.782 91.2344 375.478 91.0645 375.056 91.0645C374.476 91.0645 374.057 91.2959 373.799 91.7588C373.541 92.2217 373.412 93.0156 373.412 94.1406V98.5H369.976V88.542H372.568L372.999 89.7725H373.201C373.494 89.3037 373.898 88.9521 374.414 88.7178C374.936 88.4834 375.533 88.3662 376.207 88.3662C377.309 88.3662 378.164 88.6855 378.773 89.3242C379.389 89.9629 379.696 90.8623 379.696 92.0225V98.5H376.26ZM388.529 98.5L387.87 97.1816H387.8C387.337 97.7559 386.865 98.1484 386.385 98.3594C385.904 98.5703 385.283 98.6758 384.521 98.6758C383.584 98.6758 382.846 98.3945 382.307 97.832C381.768 97.2695 381.498 96.4785 381.498 95.459C381.498 94.3984 381.867 93.6104 382.605 93.0947C383.344 92.5732 384.413 92.2803 385.813 92.2158L387.475 92.1631V92.0225C387.475 91.2021 387.07 90.792 386.262 90.792C385.535 90.792 384.612 91.0381 383.493 91.5303L382.5 89.2627C383.66 88.665 385.125 88.3662 386.895 88.3662C388.172 88.3662 389.159 88.6826 389.856 89.3154C390.56 89.9482 390.911 90.833 390.911 91.9697V98.5H388.529ZM385.98 96.25C386.396 96.25 386.751 96.1182 387.044 95.8545C387.343 95.5908 387.492 95.248 387.492 94.8262V94.0527L386.701 94.0879C385.57 94.1289 385.005 94.5449 385.005 95.3359C385.005 95.9453 385.33 96.25 385.98 96.25ZM397.784 98.6758C396.155 98.6758 394.919 98.2363 394.075 97.3574C393.237 96.4785 392.818 95.2158 392.818 93.5693C392.818 91.917 393.272 90.6367 394.181 89.7285C395.089 88.8203 396.381 88.3662 398.057 88.3662C399.211 88.3662 400.298 88.6182 401.317 89.1221L400.307 91.6621C399.891 91.4805 399.507 91.3369 399.155 91.2314C398.804 91.1201 398.438 91.0645 398.057 91.0645C397.5 91.0645 397.069 91.2812 396.765 91.7148C396.46 92.1484 396.308 92.7607 396.308 93.5518C396.308 95.1455 396.896 95.9424 398.074 95.9424C399.082 95.9424 400.049 95.6494 400.975 95.0635V97.7969C400.09 98.3828 399.026 98.6758 397.784 98.6758ZM406.283 92.9014C406.699 92.2393 407.054 91.7236 407.347 91.3545L409.579 88.542H413.411L409.957 92.7783L413.631 98.5H409.702L407.522 94.9316L406.406 95.7842V98.5H402.952V84.8242H406.406V90.2031C406.406 91.123 406.342 92.0225 406.213 92.9014H406.283ZM422.508 95.4414C422.508 96.5078 422.145 97.3135 421.418 97.8584C420.691 98.4033 419.648 98.6758 418.289 98.6758C417.551 98.6758 416.909 98.6348 416.364 98.5527C415.819 98.4766 415.263 98.333 414.694 98.1221V95.3711C415.228 95.6055 415.811 95.7988 416.443 95.9512C417.082 96.1035 417.65 96.1797 418.148 96.1797C418.893 96.1797 419.265 96.0098 419.265 95.6699C419.265 95.4941 419.159 95.3389 418.948 95.2041C418.743 95.0635 418.14 94.7939 417.138 94.3955C416.224 94.0205 415.585 93.5957 415.222 93.1211C414.858 92.6406 414.677 92.0342 414.677 91.3018C414.677 90.376 415.034 89.6553 415.749 89.1396C416.464 88.624 417.475 88.3662 418.781 88.3662C419.438 88.3662 420.053 88.4395 420.627 88.5859C421.207 88.7266 421.808 88.9346 422.429 89.21L421.497 91.4248C421.04 91.2197 420.557 91.0469 420.047 90.9062C419.537 90.7598 419.121 90.6865 418.799 90.6865C418.236 90.6865 417.955 90.8242 417.955 91.0996C417.955 91.2695 418.052 91.416 418.245 91.5391C418.444 91.6562 419.013 91.8994 419.95 92.2686C420.647 92.5557 421.166 92.8369 421.506 93.1123C421.852 93.3877 422.104 93.7129 422.262 94.0879C422.426 94.457 422.508 94.9082 422.508 95.4414Z" fill="white"/>
<path d="M349 255.5C349 243.074 359.074 233 371.5 233H601.5C613.926 233 624 243.074 624 255.5V255.5C624 267.926 613.926 278 601.5 278H371.5C359.074 278 349 267.926 349 255.5V255.5Z" fill="#F7F7F7"/>
<path d="M370.921 251.006V257.473C370.921 258.612 370.577 259.507 369.889 260.159C369.201 260.811 368.255 261.137 367.052 261.137C365.849 261.137 364.917 260.809 364.256 260.152C363.6 259.496 363.271 258.594 363.271 257.445V251.006H364.434V257.527C364.434 258.361 364.661 259.002 365.117 259.448C365.573 259.895 366.243 260.118 367.127 260.118C367.97 260.118 368.619 259.895 369.075 259.448C369.531 258.997 369.759 258.352 369.759 257.514V251.006H370.921ZM378.235 258.956C378.235 259.653 377.976 260.191 377.456 260.569C376.937 260.948 376.207 261.137 375.269 261.137C374.275 261.137 373.5 260.979 372.944 260.665V259.612C373.304 259.795 373.689 259.938 374.1 260.043C374.514 260.148 374.913 260.2 375.296 260.2C375.888 260.2 376.344 260.107 376.663 259.92C376.982 259.729 377.142 259.439 377.142 259.052C377.142 258.76 377.014 258.512 376.759 258.307C376.508 258.097 376.016 257.851 375.282 257.568C374.585 257.309 374.088 257.083 373.792 256.892C373.5 256.696 373.282 256.475 373.136 256.229C372.994 255.982 372.924 255.688 372.924 255.347C372.924 254.736 373.172 254.255 373.669 253.904C374.166 253.549 374.847 253.371 375.713 253.371C376.52 253.371 377.308 253.535 378.078 253.863L377.675 254.786C376.923 254.476 376.242 254.321 375.631 254.321C375.093 254.321 374.688 254.406 374.414 254.574C374.141 254.743 374.004 254.975 374.004 255.271C374.004 255.472 374.054 255.643 374.154 255.784C374.259 255.925 374.425 256.06 374.653 256.188C374.881 256.315 375.319 256.5 375.966 256.741C376.854 257.065 377.454 257.391 377.764 257.719C378.078 258.047 378.235 258.459 378.235 258.956ZM381.154 253.508V258.368C381.154 258.979 381.293 259.435 381.571 259.735C381.849 260.036 382.285 260.187 382.877 260.187C383.661 260.187 384.233 259.972 384.593 259.544C384.957 259.116 385.14 258.416 385.14 257.445V253.508H386.274V261H385.338L385.174 259.995H385.112C384.88 260.364 384.556 260.647 384.142 260.843C383.731 261.039 383.262 261.137 382.733 261.137C381.822 261.137 381.138 260.92 380.683 260.487C380.231 260.054 380.006 259.362 380.006 258.409V253.508H381.154ZM393.295 261L393.069 259.934H393.015C392.641 260.403 392.267 260.722 391.894 260.891C391.524 261.055 391.062 261.137 390.506 261.137C389.763 261.137 389.18 260.945 388.756 260.562C388.337 260.18 388.127 259.635 388.127 258.929C388.127 257.416 389.337 256.623 391.757 256.55L393.028 256.509V256.044C393.028 255.456 392.901 255.023 392.646 254.745C392.395 254.463 391.992 254.321 391.436 254.321C390.811 254.321 390.105 254.513 389.316 254.896L388.968 254.027C389.337 253.827 389.74 253.67 390.178 253.556C390.62 253.442 391.062 253.385 391.504 253.385C392.397 253.385 393.058 253.583 393.486 253.979C393.919 254.376 394.136 255.012 394.136 255.887V261H393.295ZM390.731 260.2C391.438 260.2 391.992 260.007 392.393 259.619C392.798 259.232 393.001 258.689 393.001 257.992V257.315L391.866 257.363C390.964 257.395 390.312 257.536 389.911 257.787C389.515 258.033 389.316 258.418 389.316 258.942C389.316 259.353 389.439 259.665 389.686 259.879C389.936 260.093 390.285 260.2 390.731 260.2ZM399.898 253.371C400.231 253.371 400.53 253.398 400.794 253.453L400.637 254.506C400.327 254.438 400.053 254.403 399.816 254.403C399.21 254.403 398.691 254.649 398.258 255.142C397.829 255.634 397.615 256.247 397.615 256.98V261H396.48V253.508H397.417L397.547 254.896H397.602C397.88 254.408 398.215 254.032 398.606 253.768C398.998 253.503 399.429 253.371 399.898 253.371ZM403.33 261H402.195V253.508H403.33V261ZM402.1 251.478C402.1 251.218 402.163 251.029 402.291 250.91C402.419 250.787 402.578 250.726 402.77 250.726C402.952 250.726 403.109 250.787 403.241 250.91C403.373 251.033 403.439 251.222 403.439 251.478C403.439 251.733 403.373 251.924 403.241 252.052C403.109 252.175 402.952 252.236 402.77 252.236C402.578 252.236 402.419 252.175 402.291 252.052C402.163 251.924 402.1 251.733 402.1 251.478ZM412.203 257.247C412.203 258.468 411.896 259.423 411.28 260.111C410.665 260.795 409.815 261.137 408.73 261.137C408.061 261.137 407.466 260.979 406.946 260.665C406.427 260.351 406.026 259.899 405.743 259.312C405.461 258.724 405.319 258.035 405.319 257.247C405.319 256.026 405.625 255.076 406.235 254.396C406.846 253.713 407.694 253.371 408.778 253.371C409.826 253.371 410.658 253.72 411.273 254.417C411.893 255.114 412.203 256.058 412.203 257.247ZM406.495 257.247C406.495 258.204 406.687 258.933 407.069 259.435C407.452 259.936 408.015 260.187 408.758 260.187C409.501 260.187 410.063 259.938 410.446 259.441C410.834 258.94 411.027 258.209 411.027 257.247C411.027 256.295 410.834 255.572 410.446 255.08C410.063 254.583 409.496 254.335 408.744 254.335C408.001 254.335 407.441 254.579 407.062 255.066C406.684 255.554 406.495 256.281 406.495 257.247Z" fill="#8D8B8B"/>
<path d="M0 90.5C0 76.4167 11.4167 65 25.5 65H155.5C169.583 65 181 76.4167 181 90.5V90.5C181 104.583 169.583 116 155.5 116H25.5C11.4167 116 0 104.583 0 90.5V90.5Z" fill="#FF3366"/>
<path d="M29.9873 97V84.1504H33.4766V97H29.9873ZM42.3447 97V91.5684C42.3447 90.9062 42.248 90.4082 42.0547 90.0742C41.8672 89.7344 41.5625 89.5645 41.1406 89.5645C40.5605 89.5645 40.1416 89.7959 39.8838 90.2588C39.626 90.7217 39.4971 91.5156 39.4971 92.6406V97H36.0605V87.042H38.6533L39.084 88.2725H39.2861C39.5791 87.8037 39.9834 87.4521 40.499 87.2178C41.0205 86.9834 41.6182 86.8662 42.292 86.8662C43.3936 86.8662 44.249 87.1855 44.8584 87.8242C45.4736 88.4629 45.7812 89.3623 45.7812 90.5225V97H42.3447ZM51.5732 97H48.1367V87.042H51.5732V97ZM48.0488 84.5635C48.0488 84.0479 48.1924 83.6641 48.4795 83.4121C48.7666 83.1602 49.2295 83.0342 49.8682 83.0342C50.5068 83.0342 50.9727 83.1631 51.2656 83.4209C51.5586 83.6787 51.7051 84.0596 51.7051 84.5635C51.7051 85.5713 51.0928 86.0752 49.8682 86.0752C48.6553 86.0752 48.0488 85.5713 48.0488 84.5635ZM58.5078 97.1758C56.8789 97.1758 55.6426 96.7363 54.7988 95.8574C53.9609 94.9785 53.542 93.7158 53.542 92.0693C53.542 90.417 53.9961 89.1367 54.9043 88.2285C55.8125 87.3203 57.1045 86.8662 58.7803 86.8662C59.9346 86.8662 61.0215 87.1182 62.041 87.6221L61.0303 90.1621C60.6143 89.9805 60.2305 89.8369 59.8789 89.7314C59.5273 89.6201 59.1611 89.5645 58.7803 89.5645C58.2236 89.5645 57.793 89.7812 57.4883 90.2148C57.1836 90.6484 57.0312 91.2607 57.0312 92.0518C57.0312 93.6455 57.6201 94.4424 58.7979 94.4424C59.8057 94.4424 60.7725 94.1494 61.6982 93.5635V96.2969C60.8135 96.8828 59.75 97.1758 58.5078 97.1758ZM67.1299 97H63.6934V87.042H67.1299V97ZM63.6055 84.5635C63.6055 84.0479 63.749 83.6641 64.0361 83.4121C64.3232 83.1602 64.7861 83.0342 65.4248 83.0342C66.0635 83.0342 66.5293 83.1631 66.8223 83.4209C67.1152 83.6787 67.2617 84.0596 67.2617 84.5635C67.2617 85.5713 66.6494 86.0752 65.4248 86.0752C64.2119 86.0752 63.6055 85.5713 63.6055 84.5635ZM76.0244 97L75.3652 95.6816H75.2949C74.832 96.2559 74.3604 96.6484 73.8799 96.8594C73.3994 97.0703 72.7783 97.1758 72.0166 97.1758C71.0791 97.1758 70.3408 96.8945 69.8018 96.332C69.2627 95.7695 68.9932 94.9785 68.9932 93.959C68.9932 92.8984 69.3623 92.1104 70.1006 91.5947C70.8389 91.0732 71.9082 90.7803 73.3086 90.7158L74.9697 90.6631V90.5225C74.9697 89.7021 74.5654 89.292 73.7568 89.292C73.0303 89.292 72.1074 89.5381 70.9883 90.0303L69.9951 87.7627C71.1553 87.165 72.6201 86.8662 74.3896 86.8662C75.667 86.8662 76.6543 87.1826 77.3516 87.8154C78.0547 88.4482 78.4062 89.333 78.4062 90.4697V97H76.0244ZM73.4756 94.75C73.8916 94.75 74.2461 94.6182 74.5391 94.3545C74.8379 94.0908 74.9873 93.748 74.9873 93.3262V92.5527L74.1963 92.5879C73.0654 92.6289 72.5 93.0449 72.5 93.8359C72.5 94.4453 72.8252 94.75 73.4756 94.75ZM86.7559 86.8662C87.0547 86.8662 87.3389 86.8896 87.6084 86.9365L87.8018 86.9717L87.4941 90.2148C87.2129 90.1445 86.8232 90.1094 86.3252 90.1094C85.5752 90.1094 85.0303 90.2822 84.6904 90.6279C84.3506 90.9678 84.1807 91.46 84.1807 92.1045V97H80.7441V87.042H83.3018L83.8379 88.6328H84.0049C84.292 88.1055 84.6904 87.6807 85.2002 87.3584C85.7158 87.0303 86.2344 86.8662 86.7559 86.8662ZM101.565 93.9414C101.565 95.0078 101.202 95.8135 100.476 96.3584C99.749 96.9033 98.7061 97.1758 97.3467 97.1758C96.6084 97.1758 95.9668 97.1348 95.4219 97.0527C94.877 96.9766 94.3203 96.833 93.752 96.6221V93.8711C94.2852 94.1055 94.8682 94.2988 95.501 94.4512C96.1396 94.6035 96.708 94.6797 97.2061 94.6797C97.9502 94.6797 98.3223 94.5098 98.3223 94.1699C98.3223 93.9941 98.2168 93.8389 98.0059 93.7041C97.8008 93.5635 97.1973 93.2939 96.1953 92.8955C95.2812 92.5205 94.6426 92.0957 94.2793 91.6211C93.916 91.1406 93.7344 90.5342 93.7344 89.8018C93.7344 88.876 94.0918 88.1553 94.8066 87.6396C95.5215 87.124 96.5322 86.8662 97.8389 86.8662C98.4951 86.8662 99.1104 86.9395 99.6846 87.0859C100.265 87.2266 100.865 87.4346 101.486 87.71L100.555 89.9248C100.098 89.7197 99.6143 89.5469 99.1045 89.4062C98.5947 89.2598 98.1787 89.1865 97.8564 89.1865C97.2939 89.1865 97.0127 89.3242 97.0127 89.5996C97.0127 89.7695 97.1094 89.916 97.3027 90.0391C97.502 90.1562 98.0703 90.3994 99.0078 90.7686C99.7051 91.0557 100.224 91.3369 100.563 91.6123C100.909 91.8877 101.161 92.2129 101.319 92.5879C101.483 92.957 101.565 93.4082 101.565 93.9414ZM108.28 97.1758C106.622 97.1758 105.333 96.7363 104.413 95.8574C103.499 94.9727 103.042 93.7158 103.042 92.0869C103.042 90.4053 103.467 89.1162 104.316 88.2197C105.166 87.3174 106.379 86.8662 107.955 86.8662C109.455 86.8662 110.612 87.2588 111.427 88.0439C112.247 88.8232 112.657 89.9482 112.657 91.4189V92.9482H106.514C106.537 93.5049 106.739 93.9414 107.12 94.2578C107.507 94.5742 108.031 94.7324 108.693 94.7324C109.297 94.7324 109.851 94.6768 110.354 94.5654C110.864 94.4482 111.415 94.252 112.007 93.9766V96.4463C111.468 96.7217 110.911 96.9121 110.337 97.0176C109.763 97.123 109.077 97.1758 108.28 97.1758ZM108.078 89.2041C107.674 89.2041 107.334 89.333 107.059 89.5908C106.789 89.8428 106.631 90.2412 106.584 90.7861H109.537C109.525 90.3057 109.388 89.9219 109.124 89.6348C108.866 89.3477 108.518 89.2041 108.078 89.2041ZM122.29 93.9414C122.29 95.0078 121.927 95.8135 121.2 96.3584C120.474 96.9033 119.431 97.1758 118.071 97.1758C117.333 97.1758 116.691 97.1348 116.146 97.0527C115.602 96.9766 115.045 96.833 114.477 96.6221V93.8711C115.01 94.1055 115.593 94.2988 116.226 94.4512C116.864 94.6035 117.433 94.6797 117.931 94.6797C118.675 94.6797 119.047 94.5098 119.047 94.1699C119.047 93.9941 118.941 93.8389 118.73 93.7041C118.525 93.5635 117.922 93.2939 116.92 92.8955C116.006 92.5205 115.367 92.0957 115.004 91.6211C114.641 91.1406 114.459 90.5342 114.459 89.8018C114.459 88.876 114.816 88.1553 115.531 87.6396C116.246 87.124 117.257 86.8662 118.563 86.8662C119.22 86.8662 119.835 86.9395 120.409 87.0859C120.989 87.2266 121.59 87.4346 122.211 87.71L121.279 89.9248C120.822 89.7197 120.339 89.5469 119.829 89.4062C119.319 89.2598 118.903 89.1865 118.581 89.1865C118.019 89.1865 117.737 89.3242 117.737 89.5996C117.737 89.7695 117.834 89.916 118.027 90.0391C118.227 90.1562 118.795 90.3994 119.732 90.7686C120.43 91.0557 120.948 91.3369 121.288 91.6123C121.634 91.8877 121.886 92.2129 122.044 92.5879C122.208 92.957 122.29 93.4082 122.29 93.9414ZM127.651 97H124.215V87.042H127.651V97ZM124.127 84.5635C124.127 84.0479 124.271 83.6641 124.558 83.4121C124.845 83.1602 125.308 83.0342 125.946 83.0342C126.585 83.0342 127.051 83.1631 127.344 83.4209C127.637 83.6787 127.783 84.0596 127.783 84.5635C127.783 85.5713 127.171 86.0752 125.946 86.0752C124.733 86.0752 124.127 85.5713 124.127 84.5635ZM139.561 91.999C139.561 93.6279 139.121 94.8994 138.242 95.8135C137.369 96.7217 136.145 97.1758 134.568 97.1758C133.057 97.1758 131.853 96.71 130.956 95.7783C130.065 94.8467 129.62 93.5869 129.62 91.999C129.62 90.376 130.057 89.1162 130.93 88.2197C131.809 87.3174 133.039 86.8662 134.621 86.8662C135.6 86.8662 136.464 87.0742 137.214 87.4902C137.964 87.9062 138.541 88.5039 138.945 89.2832C139.355 90.0566 139.561 90.9619 139.561 91.999ZM133.109 91.999C133.109 92.8545 133.224 93.5078 133.452 93.959C133.681 94.4043 134.064 94.627 134.604 94.627C135.137 94.627 135.512 94.4043 135.729 93.959C135.951 93.5078 136.062 92.8545 136.062 91.999C136.062 91.1494 135.951 90.5078 135.729 90.0742C135.506 89.6406 135.125 89.4238 134.586 89.4238C134.059 89.4238 133.681 89.6406 133.452 90.0742C133.224 90.502 133.109 91.1436 133.109 91.999ZM132.521 86.0928V85.8379C133.423 84.8711 133.994 84.2471 134.234 83.9658C134.48 83.6846 134.683 83.4326 134.841 83.21H138.603V83.3945C138.134 83.7695 137.489 84.2471 136.669 84.8271C135.849 85.4072 135.228 85.8291 134.806 86.0928H132.521ZM147.813 97V91.5684C147.813 90.9062 147.717 90.4082 147.523 90.0742C147.336 89.7344 147.031 89.5645 146.609 89.5645C146.029 89.5645 145.61 89.7959 145.353 90.2588C145.095 90.7217 144.966 91.5156 144.966 92.6406V97H141.529V87.042H144.122L144.553 88.2725H144.755C145.048 87.8037 145.452 87.4521 145.968 87.2178C146.489 86.9834 147.087 86.8662 147.761 86.8662C148.862 86.8662 149.718 87.1855 150.327 87.8242C150.942 88.4629 151.25 89.3623 151.25 90.5225V97H147.813Z" fill="white"/>
<rect width="314" height="51" transform="translate(0 152)" fill="#0A4836"/>
<path d="M91.5003 168.167C91.5003 167.99 91.5705 167.82 91.6956 167.695C91.8206 167.57 91.9902 167.5 92.167 167.5H94.167C94.3157 167.5 94.4601 167.55 94.5773 167.641C94.6945 167.733 94.7777 167.861 94.8136 168.005L95.3536 170.167H110.834C110.932 170.167 111.028 170.188 111.117 170.23C111.205 170.272 111.284 170.332 111.346 170.408C111.409 170.483 111.454 170.571 111.478 170.666C111.503 170.761 111.506 170.86 111.488 170.956L109.488 181.623C109.46 181.775 109.379 181.913 109.259 182.013C109.14 182.112 108.989 182.167 108.834 182.167H96.8336C96.6782 182.167 96.5277 182.112 96.4082 182.013C96.2886 181.913 96.2076 181.775 96.179 181.623L94.1803 170.976L93.647 168.833H92.167C91.9902 168.833 91.8206 168.763 91.6956 168.638C91.5705 168.513 91.5003 168.343 91.5003 168.167ZM95.6363 171.5L97.387 180.833H108.28L110.031 171.5H95.6363ZM98.167 182.167C97.4597 182.167 96.7815 182.448 96.2814 182.948C95.7813 183.448 95.5003 184.126 95.5003 184.833C95.5003 185.541 95.7813 186.219 96.2814 186.719C96.7815 187.219 97.4597 187.5 98.167 187.5C98.8742 187.5 99.5525 187.219 100.053 186.719C100.553 186.219 100.834 185.541 100.834 184.833C100.834 184.126 100.553 183.448 100.053 182.948C99.5525 182.448 98.8742 182.167 98.167 182.167ZM107.5 182.167C106.793 182.167 106.115 182.448 105.615 182.948C105.115 183.448 104.834 184.126 104.834 184.833C104.834 185.541 105.115 186.219 105.615 186.719C106.115 187.219 106.793 187.5 107.5 187.5C108.208 187.5 108.886 187.219 109.386 186.719C109.886 186.219 110.167 185.541 110.167 184.833C110.167 184.126 109.886 183.448 109.386 182.948C108.886 182.448 108.208 182.167 107.5 182.167ZM98.167 183.5C98.5206 183.5 98.8597 183.64 99.1098 183.891C99.3598 184.141 99.5003 184.48 99.5003 184.833C99.5003 185.187 99.3598 185.526 99.1098 185.776C98.8597 186.026 98.5206 186.167 98.167 186.167C97.8133 186.167 97.4742 186.026 97.2242 185.776C96.9741 185.526 96.8336 185.187 96.8336 184.833C96.8336 184.48 96.9741 184.141 97.2242 183.891C97.4742 183.64 97.8133 183.5 98.167 183.5ZM107.5 183.5C107.854 183.5 108.193 183.64 108.443 183.891C108.693 184.141 108.834 184.48 108.834 184.833C108.834 185.187 108.693 185.526 108.443 185.776C108.193 186.026 107.854 186.167 107.5 186.167C107.147 186.167 106.808 186.026 106.557 185.776C106.307 185.526 106.167 185.187 106.167 184.833C106.167 184.48 106.307 184.141 106.557 183.891C106.808 183.64 107.147 183.5 107.5 183.5V183.5Z" fill="white"/>
<path d="M130.507 171.15H134.391L130.181 184H126.094L121.902 171.15H125.804L127.553 177.663C127.917 179.11 128.116 180.118 128.151 180.687C128.192 180.276 128.274 179.764 128.397 179.148C128.52 178.533 128.629 178.05 128.722 177.698L130.507 171.15ZM140.394 184.176C138.736 184.176 137.447 183.736 136.527 182.857C135.613 181.973 135.156 180.716 135.156 179.087C135.156 177.405 135.581 176.116 136.43 175.22C137.28 174.317 138.493 173.866 140.069 173.866C141.569 173.866 142.726 174.259 143.541 175.044C144.361 175.823 144.771 176.948 144.771 178.419V179.948H138.628C138.651 180.505 138.853 180.941 139.234 181.258C139.621 181.574 140.145 181.732 140.807 181.732C141.411 181.732 141.965 181.677 142.468 181.565C142.978 181.448 143.529 181.252 144.121 180.977V183.446C143.582 183.722 143.025 183.912 142.451 184.018C141.877 184.123 141.191 184.176 140.394 184.176ZM140.192 176.204C139.788 176.204 139.448 176.333 139.173 176.591C138.903 176.843 138.745 177.241 138.698 177.786H141.651C141.639 177.306 141.502 176.922 141.238 176.635C140.98 176.348 140.632 176.204 140.192 176.204ZM152.725 173.866C153.024 173.866 153.308 173.89 153.578 173.937L153.771 173.972L153.464 177.215C153.182 177.145 152.793 177.109 152.295 177.109C151.545 177.109 151 177.282 150.66 177.628C150.32 177.968 150.15 178.46 150.15 179.104V184H146.714V174.042H149.271L149.807 175.633H149.974C150.261 175.105 150.66 174.681 151.17 174.358C151.685 174.03 152.204 173.866 152.725 173.866ZM164.38 184.176C162.751 184.176 161.514 183.736 160.671 182.857C159.833 181.979 159.414 180.716 159.414 179.069C159.414 177.417 159.868 176.137 160.776 175.229C161.684 174.32 162.976 173.866 164.652 173.866C165.806 173.866 166.893 174.118 167.913 174.622L166.902 177.162C166.486 176.98 166.102 176.837 165.751 176.731C165.399 176.62 165.033 176.564 164.652 176.564C164.095 176.564 163.665 176.781 163.36 177.215C163.055 177.648 162.903 178.261 162.903 179.052C162.903 180.646 163.492 181.442 164.67 181.442C165.677 181.442 166.644 181.149 167.57 180.563V183.297C166.685 183.883 165.622 184.176 164.38 184.176ZM176.043 184L175.383 182.682H175.313C174.85 183.256 174.379 183.648 173.898 183.859C173.418 184.07 172.797 184.176 172.035 184.176C171.097 184.176 170.359 183.895 169.82 183.332C169.281 182.77 169.011 181.979 169.011 180.959C169.011 179.898 169.381 179.11 170.119 178.595C170.857 178.073 171.926 177.78 173.327 177.716L174.988 177.663V177.522C174.988 176.702 174.584 176.292 173.775 176.292C173.049 176.292 172.126 176.538 171.007 177.03L170.013 174.763C171.174 174.165 172.638 173.866 174.408 173.866C175.685 173.866 176.673 174.183 177.37 174.815C178.073 175.448 178.424 176.333 178.424 177.47V184H176.043ZM173.494 181.75C173.91 181.75 174.264 181.618 174.557 181.354C174.856 181.091 175.006 180.748 175.006 180.326V179.553L174.215 179.588C173.084 179.629 172.518 180.045 172.518 180.836C172.518 181.445 172.843 181.75 173.494 181.75ZM186.774 173.866C187.073 173.866 187.357 173.89 187.627 173.937L187.82 173.972L187.512 177.215C187.231 177.145 186.841 177.109 186.343 177.109C185.593 177.109 185.049 177.282 184.709 177.628C184.369 177.968 184.199 178.46 184.199 179.104V184H180.762V174.042H183.32L183.856 175.633H184.023C184.31 175.105 184.709 174.681 185.218 174.358C185.734 174.03 186.253 173.866 186.774 173.866ZM195.229 173.866C195.528 173.866 195.812 173.89 196.082 173.937L196.275 173.972L195.967 177.215C195.686 177.145 195.297 177.109 194.799 177.109C194.049 177.109 193.504 177.282 193.164 177.628C192.824 177.968 192.654 178.46 192.654 179.104V184H189.217V174.042H191.775L192.311 175.633H192.478C192.765 175.105 193.164 174.681 193.674 174.358C194.189 174.03 194.708 173.866 195.229 173.866ZM201.127 184H197.69V174.042H201.127V184ZM197.602 171.563C197.602 171.048 197.746 170.664 198.033 170.412C198.32 170.16 198.783 170.034 199.422 170.034C200.06 170.034 200.526 170.163 200.819 170.421C201.112 170.679 201.258 171.06 201.258 171.563C201.258 172.571 200.646 173.075 199.422 173.075C198.209 173.075 197.602 172.571 197.602 171.563ZM208.404 181.46C208.867 181.46 209.421 181.346 210.065 181.117V183.622C209.602 183.821 209.16 183.962 208.738 184.044C208.322 184.132 207.833 184.176 207.27 184.176C206.116 184.176 205.284 183.895 204.774 183.332C204.264 182.764 204.009 181.894 204.009 180.722V176.617H202.805V175.22L204.335 174.139L205.222 172.047H207.472V174.042H209.916V176.617H207.472V180.493C207.472 181.138 207.783 181.46 208.404 181.46ZM221.315 178.999C221.315 180.628 220.876 181.899 219.997 182.813C219.124 183.722 217.899 184.176 216.323 184.176C214.811 184.176 213.607 183.71 212.711 182.778C211.82 181.847 211.375 180.587 211.375 178.999C211.375 177.376 211.811 176.116 212.684 175.22C213.563 174.317 214.794 173.866 216.376 173.866C217.354 173.866 218.218 174.074 218.968 174.49C219.718 174.906 220.296 175.504 220.7 176.283C221.11 177.057 221.315 177.962 221.315 178.999ZM214.864 178.999C214.864 179.854 214.978 180.508 215.207 180.959C215.435 181.404 215.819 181.627 216.358 181.627C216.891 181.627 217.266 181.404 217.483 180.959C217.706 180.508 217.817 179.854 217.817 178.999C217.817 178.149 217.706 177.508 217.483 177.074C217.26 176.641 216.88 176.424 216.341 176.424C215.813 176.424 215.435 176.641 215.207 177.074C214.978 177.502 214.864 178.144 214.864 178.999Z" fill="white"/>
<rect width="314" height="51" transform="translate(0 249)" fill="#0A4836"/>
<path d="M102.5 278.086L99.207 274.793L97.793 276.207L102.5 280.914L112.207 271.207L110.793 269.793L102.5 278.086Z" fill="white"/>
<path d="M133.79 270.813C132.964 270.813 132.319 271.153 131.856 271.833C131.394 272.507 131.162 273.438 131.162 274.628C131.162 277.101 132.103 278.337 133.983 278.337C134.552 278.337 135.103 278.258 135.636 278.1C136.169 277.941 136.705 277.751 137.244 277.528V280.464C136.172 280.938 134.959 281.176 133.605 281.176C131.666 281.176 130.178 280.613 129.141 279.488C128.109 278.363 127.594 276.737 127.594 274.61C127.594 273.28 127.843 272.111 128.341 271.104C128.845 270.096 129.565 269.322 130.503 268.783C131.446 268.238 132.554 267.966 133.825 267.966C135.214 267.966 136.541 268.268 137.807 268.871L136.743 271.604C136.269 271.382 135.794 271.194 135.319 271.042C134.845 270.89 134.335 270.813 133.79 270.813ZM149.065 275.999C149.065 277.628 148.626 278.899 147.747 279.813C146.874 280.722 145.649 281.176 144.073 281.176C142.562 281.176 141.357 280.71 140.461 279.778C139.57 278.847 139.125 277.587 139.125 275.999C139.125 274.376 139.562 273.116 140.435 272.22C141.313 271.317 142.544 270.866 144.126 270.866C145.104 270.866 145.969 271.074 146.719 271.49C147.469 271.906 148.046 272.504 148.45 273.283C148.86 274.057 149.065 274.962 149.065 275.999ZM142.614 275.999C142.614 276.854 142.729 277.508 142.957 277.959C143.186 278.404 143.569 278.627 144.108 278.627C144.642 278.627 145.017 278.404 145.233 277.959C145.456 277.508 145.567 276.854 145.567 275.999C145.567 275.149 145.456 274.508 145.233 274.074C145.011 273.641 144.63 273.424 144.091 273.424C143.563 273.424 143.186 273.641 142.957 274.074C142.729 274.502 142.614 275.144 142.614 275.999ZM157.318 281V275.568C157.318 274.906 157.222 274.408 157.028 274.074C156.841 273.734 156.536 273.564 156.114 273.564C155.534 273.564 155.115 273.796 154.857 274.259C154.6 274.722 154.471 275.516 154.471 276.641V281H151.034V271.042H153.627L154.058 272.272H154.26C154.553 271.804 154.957 271.452 155.473 271.218C155.994 270.983 156.592 270.866 157.266 270.866C158.367 270.866 159.223 271.186 159.832 271.824C160.447 272.463 160.755 273.362 160.755 274.522V281H157.318ZM173.982 281H170.546V271.042H173.982V281ZM170.458 268.563C170.458 268.048 170.602 267.664 170.889 267.412C171.176 267.16 171.639 267.034 172.277 267.034C172.916 267.034 173.382 267.163 173.675 267.421C173.968 267.679 174.114 268.06 174.114 268.563C174.114 269.571 173.502 270.075 172.277 270.075C171.064 270.075 170.458 269.571 170.458 268.563ZM169.175 273.617H167.057V281H163.62V273.617H162.302V271.93L163.69 271.086V270.919C163.69 269.606 163.957 268.663 164.49 268.089C165.029 267.515 165.891 267.228 167.074 267.228C167.531 267.228 167.962 267.263 168.366 267.333C168.776 267.403 169.251 267.526 169.79 267.702L169.052 269.926C168.63 269.809 168.217 269.75 167.812 269.75C167.549 269.75 167.355 269.832 167.232 269.996C167.115 270.154 167.057 270.415 167.057 270.778V271.042H169.175V273.617ZM182.394 270.866C182.692 270.866 182.977 270.89 183.246 270.937L183.439 270.972L183.132 274.215C182.851 274.145 182.461 274.109 181.963 274.109C181.213 274.109 180.668 274.282 180.328 274.628C179.988 274.968 179.818 275.46 179.818 276.104V281H176.382V271.042H178.939L179.476 272.633H179.643C179.93 272.105 180.328 271.681 180.838 271.358C181.354 271.03 181.872 270.866 182.394 270.866ZM197.062 281V275.586C197.062 274.912 196.969 274.408 196.781 274.074C196.6 273.734 196.31 273.564 195.911 273.564C195.384 273.564 194.997 273.79 194.751 274.241C194.505 274.692 194.382 275.398 194.382 276.359V281H190.937V275.586C190.937 274.912 190.849 274.408 190.673 274.074C190.497 273.734 190.213 273.564 189.82 273.564C189.281 273.564 188.889 273.805 188.643 274.285C188.396 274.766 188.273 275.551 188.273 276.641V281H184.837V271.042H187.43L187.86 272.272H188.062C188.326 271.815 188.707 271.467 189.205 271.227C189.709 270.986 190.28 270.866 190.919 270.866C192.354 270.866 193.362 271.303 193.942 272.176H194.215C194.496 271.766 194.886 271.446 195.384 271.218C195.888 270.983 196.441 270.866 197.045 270.866C198.223 270.866 199.093 271.168 199.655 271.771C200.218 272.375 200.499 273.292 200.499 274.522V281H197.062ZM209.332 281L208.673 279.682H208.603C208.14 280.256 207.668 280.648 207.188 280.859C206.707 281.07 206.086 281.176 205.324 281.176C204.387 281.176 203.648 280.895 203.109 280.332C202.57 279.77 202.301 278.979 202.301 277.959C202.301 276.898 202.67 276.11 203.408 275.595C204.146 275.073 205.216 274.78 206.616 274.716L208.277 274.663V274.522C208.277 273.702 207.873 273.292 207.064 273.292C206.338 273.292 205.415 273.538 204.296 274.03L203.303 271.763C204.463 271.165 205.928 270.866 207.697 270.866C208.975 270.866 209.962 271.183 210.659 271.815C211.362 272.448 211.714 273.333 211.714 274.47V281H209.332ZM206.783 278.75C207.199 278.75 207.554 278.618 207.847 278.354C208.146 278.091 208.295 277.748 208.295 277.326V276.553L207.504 276.588C206.373 276.629 205.808 277.045 205.808 277.836C205.808 278.445 206.133 278.75 206.783 278.75ZM220.063 270.866C220.362 270.866 220.646 270.89 220.916 270.937L221.109 270.972L220.802 274.215C220.521 274.145 220.131 274.109 219.633 274.109C218.883 274.109 218.338 274.282 217.998 274.628C217.658 274.968 217.488 275.46 217.488 276.104V281H214.052V271.042H216.609L217.146 272.633H217.312C217.6 272.105 217.998 271.681 218.508 271.358C219.023 271.03 219.542 270.866 220.063 270.866Z" fill="white"/>
<path d="M7.392 8.864C9.616 8.864 11.296 9.184 12.432 9.824C13.584 10.464 14.16 11.576 14.16 13.16C14.16 14.152 13.912 14.984 13.416 15.656C12.92 16.328 12.208 16.744 11.28 16.904V17.024C11.904 17.136 12.472 17.344 12.984 17.648C13.496 17.936 13.896 18.36 14.184 18.92C14.488 19.464 14.64 20.184 14.64 21.08C14.64 22.632 14.088 23.84 12.984 24.704C11.896 25.568 10.4 26 8.496 26H2.232V8.864H7.392ZM7.8 15.848C9.016 15.848 9.848 15.656 10.296 15.272C10.76 14.888 10.992 14.32 10.992 13.568C10.992 12.8 10.712 12.248 10.152 11.912C9.608 11.576 8.744 11.408 7.56 11.408H5.304V15.848H7.8ZM5.304 18.32V23.432H8.088C9.336 23.432 10.2 23.192 10.68 22.712C11.176 22.232 11.424 21.592 11.424 20.792C11.424 20.056 11.168 19.464 10.656 19.016C10.16 18.552 9.256 18.32 7.944 18.32H5.304ZM29.4975 19.472C29.4975 21.632 28.9375 23.304 27.8175 24.488C26.6975 25.656 25.1775 26.24 23.2575 26.24C22.0735 26.24 21.0175 25.976 20.0895 25.448C19.1615 24.92 18.4335 24.152 17.9055 23.144C17.3775 22.136 17.1135 20.912 17.1135 19.472C17.1135 17.312 17.6655 15.656 18.7695 14.504C19.8895 13.336 21.4095 12.752 23.3295 12.752C24.5295 12.752 25.5935 13.016 26.5215 13.544C27.4495 14.056 28.1775 14.816 28.7055 15.824C29.2335 16.816 29.4975 18.032 29.4975 19.472ZM20.2095 19.472C20.2095 20.848 20.4495 21.912 20.9295 22.664C21.4255 23.416 22.2175 23.792 23.3055 23.792C24.3935 23.792 25.1775 23.416 25.6575 22.664C26.1535 21.912 26.4015 20.848 26.4015 19.472C26.4015 18.096 26.1535 17.04 25.6575 16.304C25.1775 15.568 24.3855 15.2 23.2815 15.2C22.2095 15.2 21.4255 15.568 20.9295 16.304C20.4495 17.04 20.2095 18.096 20.2095 19.472ZM37.6637 23.816C38.0317 23.816 38.3917 23.784 38.7437 23.72C39.1117 23.64 39.4477 23.552 39.7517 23.456V25.712C39.4317 25.856 39.0157 25.976 38.5037 26.072C37.9917 26.184 37.4557 26.24 36.8957 26.24C36.1597 26.24 35.4877 26.12 34.8797 25.88C34.2717 25.624 33.7917 25.192 33.4397 24.584C33.0877 23.976 32.9117 23.128 32.9117 22.04V15.272H31.1597V13.952L33.0797 12.896L34.0397 10.136H35.9357V12.992H39.6317V15.272H35.9357V22.016C35.9357 22.624 36.0957 23.08 36.4157 23.384C36.7357 23.672 37.1517 23.816 37.6637 23.816ZM53.9897 19.472C53.9897 21.632 53.4297 23.304 52.3097 24.488C51.1897 25.656 49.6697 26.24 47.7497 26.24C46.5657 26.24 45.5097 25.976 44.5817 25.448C43.6537 24.92 42.9257 24.152 42.3977 23.144C41.8697 22.136 41.6057 20.912 41.6057 19.472C41.6057 17.312 42.1577 15.656 43.2617 14.504C44.3817 13.336 45.9017 12.752 47.8217 12.752C49.0217 12.752 50.0857 13.016 51.0137 13.544C51.9417 14.056 52.6697 14.816 53.1977 15.824C53.7257 16.816 53.9897 18.032 53.9897 19.472ZM44.7017 19.472C44.7017 20.848 44.9417 21.912 45.4217 22.664C45.9177 23.416 46.7097 23.792 47.7977 23.792C48.8857 23.792 49.6697 23.416 50.1497 22.664C50.6457 21.912 50.8937 20.848 50.8937 19.472C50.8937 18.096 50.6457 17.04 50.1497 16.304C49.6697 15.568 48.8777 15.2 47.7737 15.2C46.7017 15.2 45.9177 15.568 45.4217 16.304C44.9417 17.04 44.7017 18.096 44.7017 19.472ZM64.0759 12.752C65.5319 12.752 66.6679 13.128 67.4839 13.88C68.3159 14.632 68.7319 15.848 68.7319 17.528V26H65.7079V18.128C65.7079 16.176 64.9079 15.2 63.3079 15.2C62.0919 15.2 61.2599 15.584 60.8119 16.352C60.3639 17.12 60.1399 18.216 60.1399 19.64V26H57.1159V12.992H59.4439L59.8759 14.696H60.0439C60.4599 14.024 61.0279 13.536 61.7479 13.232C62.4839 12.912 63.2599 12.752 64.0759 12.752ZM77.7463 12.752C79.4903 12.752 80.8663 13.272 81.8743 14.312C82.8983 15.352 83.4103 16.8 83.4103 18.656V20.192H74.8183C74.8503 21.376 75.1783 22.296 75.8023 22.952C76.4263 23.592 77.2903 23.912 78.3943 23.912C79.2263 23.912 79.9783 23.832 80.6503 23.672C81.3223 23.496 82.0103 23.248 82.7143 22.928V25.352C82.0743 25.656 81.4103 25.88 80.7223 26.024C80.0343 26.168 79.2103 26.24 78.2503 26.24C76.9863 26.24 75.8583 26 74.8663 25.52C73.8903 25.024 73.1223 24.28 72.5623 23.288C72.0183 22.296 71.7463 21.064 71.7463 19.592C71.7463 17.368 72.2983 15.672 73.4023 14.504C74.5063 13.336 75.9543 12.752 77.7463 12.752ZM77.7463 14.984C76.9303 14.984 76.2663 15.248 75.7543 15.776C75.2583 16.288 74.9703 17.056 74.8903 18.08H80.4823C80.4663 17.184 80.2343 16.448 79.7863 15.872C79.3543 15.28 78.6743 14.984 77.7463 14.984ZM95.3156 22.232C95.3156 23.544 94.8436 24.544 93.8996 25.232C92.9716 25.904 91.6356 26.24 89.8916 26.24C88.9796 26.24 88.1956 26.176 87.5396 26.048C86.8996 25.92 86.2756 25.72 85.6676 25.448V22.88C86.3076 23.184 87.0116 23.44 87.7796 23.648C88.5636 23.856 89.2996 23.96 89.9876 23.96C90.8196 23.96 91.4196 23.832 91.7876 23.576C92.1556 23.32 92.3396 22.976 92.3396 22.544C92.3396 22.288 92.2676 22.064 92.1236 21.872C91.9796 21.664 91.6916 21.44 91.2596 21.2C90.8436 20.96 90.2196 20.664 89.3876 20.312C88.5556 19.992 87.8596 19.664 87.2996 19.328C86.7556 18.976 86.3396 18.568 86.0516 18.104C85.7796 17.64 85.6436 17.04 85.6436 16.304C85.6436 15.136 86.0996 14.256 87.0116 13.664C87.9396 13.056 89.1716 12.752 90.7076 12.752C91.5076 12.752 92.2596 12.832 92.9636 12.992C93.6836 13.152 94.4036 13.392 95.1236 13.712L94.1636 15.944C93.5556 15.688 92.9636 15.472 92.3876 15.296C91.8116 15.12 91.2196 15.032 90.6116 15.032C89.2836 15.032 88.6196 15.408 88.6196 16.16C88.6196 16.432 88.6996 16.664 88.8596 16.856C89.0356 17.048 89.3316 17.256 89.7476 17.48C90.1796 17.688 90.7876 17.944 91.5716 18.248C92.3396 18.552 93.0036 18.872 93.5636 19.208C94.1236 19.528 94.5556 19.928 94.8596 20.408C95.1636 20.888 95.3156 21.496 95.3156 22.232ZM109.692 12.752C111.436 12.752 112.812 13.272 113.82 14.312C114.844 15.352 115.356 16.8 115.356 18.656V20.192H106.764C106.796 21.376 107.124 22.296 107.748 22.952C108.372 23.592 109.236 23.912 110.34 23.912C111.172 23.912 111.924 23.832 112.596 23.672C113.268 23.496 113.956 23.248 114.66 22.928V25.352C114.02 25.656 113.356 25.88 112.668 26.024C111.98 26.168 111.156 26.24 110.196 26.24C108.932 26.24 107.804 26 106.812 25.52C105.836 25.024 105.068 24.28 104.508 23.288C103.964 22.296 103.692 21.064 103.692 19.592C103.692 17.368 104.244 15.672 105.348 14.504C106.452 13.336 107.9 12.752 109.692 12.752ZM109.692 14.984C108.876 14.984 108.212 15.248 107.7 15.776C107.204 16.288 106.916 17.056 106.836 18.08H112.428C112.412 17.184 112.18 16.448 111.732 15.872C111.3 15.28 110.62 14.984 109.692 14.984ZM126.151 7.976C126.615 7.976 127.007 8.096 127.327 8.336C127.663 8.56 127.831 8.968 127.831 9.56C127.831 10.152 127.663 10.568 127.327 10.808C127.007 11.048 126.615 11.168 126.151 11.168C125.687 11.168 125.287 11.048 124.951 10.808C124.631 10.568 124.471 10.152 124.471 9.56C124.471 8.968 124.631 8.56 124.951 8.336C125.287 8.096 125.687 7.976 126.151 7.976ZM127.663 12.992V26H124.639V12.992H127.663ZM138.49 12.752C139.946 12.752 141.082 13.128 141.898 13.88C142.73 14.632 143.146 15.848 143.146 17.528V26H140.122V18.128C140.122 16.176 139.322 15.2 137.722 15.2C136.506 15.2 135.674 15.584 135.226 16.352C134.778 17.12 134.554 18.216 134.554 19.64V26H131.53V12.992H133.858L134.29 14.696H134.458C134.874 14.024 135.442 13.536 136.162 13.232C136.898 12.912 137.674 12.752 138.49 12.752ZM153.768 12.752C155.288 12.752 156.512 13.32 157.44 14.456C158.368 15.576 158.832 17.248 158.832 19.472C158.832 21.696 158.352 23.384 157.392 24.536C156.448 25.672 155.216 26.24 153.696 26.24C152.736 26.24 151.96 26.064 151.368 25.712C150.776 25.36 150.304 24.952 149.952 24.488H149.76C149.808 24.792 149.848 25.128 149.88 25.496C149.928 25.848 149.952 26.176 149.952 26.48V31.76H146.928V12.992H149.376L149.808 14.72H149.952C150.304 14.176 150.784 13.712 151.392 13.328C152 12.944 152.792 12.752 153.768 12.752ZM152.904 15.2C151.832 15.2 151.072 15.52 150.624 16.16C150.192 16.8 149.968 17.768 149.952 19.064V19.448C149.952 20.84 150.16 21.912 150.576 22.664C151.008 23.4 151.8 23.768 152.952 23.768C153.896 23.768 154.592 23.384 155.04 22.616C155.504 21.832 155.736 20.768 155.736 19.424C155.736 18.08 155.504 17.04 155.04 16.304C154.592 15.568 153.88 15.2 152.904 15.2ZM173.496 12.992V26H171.12L170.712 24.32H170.568C170.136 24.992 169.552 25.48 168.816 25.784C168.096 26.088 167.328 26.24 166.512 26.24C165.056 26.24 163.912 25.864 163.08 25.112C162.264 24.36 161.856 23.152 161.856 21.488V12.992H164.88V20.888C164.88 22.824 165.68 23.792 167.28 23.792C168.496 23.792 169.328 23.416 169.776 22.664C170.24 21.896 170.472 20.792 170.472 19.352V12.992H173.496ZM182.39 23.816C182.758 23.816 183.118 23.784 183.47 23.72C183.838 23.64 184.174 23.552 184.478 23.456V25.712C184.158 25.856 183.742 25.976 183.23 26.072C182.718 26.184 182.182 26.24 181.622 26.24C180.886 26.24 180.214 26.12 179.606 25.88C178.998 25.624 178.518 25.192 178.166 24.584C177.814 23.976 177.638 23.128 177.638 22.04V15.272H175.886V13.952L177.806 12.896L178.766 10.136H180.662V12.992H184.358V15.272H180.662V22.016C180.662 22.624 180.822 23.08 181.142 23.384C181.462 23.672 181.878 23.816 182.39 23.816ZM195.956 22.232C195.956 23.544 195.484 24.544 194.54 25.232C193.612 25.904 192.276 26.24 190.532 26.24C189.62 26.24 188.836 26.176 188.18 26.048C187.54 25.92 186.916 25.72 186.308 25.448V22.88C186.948 23.184 187.652 23.44 188.42 23.648C189.204 23.856 189.94 23.96 190.628 23.96C191.46 23.96 192.06 23.832 192.428 23.576C192.796 23.32 192.98 22.976 192.98 22.544C192.98 22.288 192.908 22.064 192.764 21.872C192.62 21.664 192.332 21.44 191.9 21.2C191.484 20.96 190.86 20.664 190.028 20.312C189.196 19.992 188.5 19.664 187.94 19.328C187.396 18.976 186.98 18.568 186.692 18.104C186.42 17.64 186.284 17.04 186.284 16.304C186.284 15.136 186.74 14.256 187.652 13.664C188.58 13.056 189.812 12.752 191.348 12.752C192.148 12.752 192.9 12.832 193.604 12.992C194.324 13.152 195.044 13.392 195.764 13.712L194.804 15.944C194.196 15.688 193.604 15.472 193.028 15.296C192.452 15.12 191.86 15.032 191.252 15.032C189.924 15.032 189.26 15.408 189.26 16.16C189.26 16.432 189.34 16.664 189.5 16.856C189.676 17.048 189.972 17.256 190.388 17.48C190.82 17.688 191.428 17.944 192.212 18.248C192.98 18.552 193.644 18.872 194.204 19.208C194.764 19.528 195.196 19.928 195.5 20.408C195.804 20.888 195.956 21.496 195.956 22.232Z" fill="#263238"/>
<defs>
<filter id="filter0_d_68_2179" x="345" y="152" width="310" height="53" filterUnits="userSpaceOnUse" color-interpolation-filters="sRGB">
<feFlood flood-opacity="0" result="BackgroundImageFix"/>
<feColorMatrix in="SourceAlpha" type="matrix" values="0 0 0 0 0 0 0 0 0 0 0 0 0 0 0 0 0 0 127 0" result="hardAlpha"/>
<feOffset dy="4"/>
<feGaussianBlur stdDeviation="2"/>
<feComposite in2="hardAlpha" operator="out"/>
<feColorMatrix type="matrix" values="0 0 0 0 0.417865 0 0 0 0 0.470833 0 0 0 0 0.461299 0 0 0 0.15 0"/>
<feBlend mode="normal" in2="BackgroundImageFix" result="effect1_dropShadow_68_2179"/>
<feBlend mode="normal" in="SourceGraphic" in2="effect1_dropShadow_68_2179" result="shape"/>
</filter>
</defs>
</svg>
