<svg width="715" height="1081" viewBox="0 0 715 1081" fill="none" xmlns="http://www.w3.org/2000/svg">
<rect width="715" height="1081" fill="#E6FDEF"/>
<rect x="60" y="451" width="229" height="239" fill="#D7FFE2" stroke="#236818" stroke-width="4" stroke-dasharray="18 18"/>
<rect x="60" y="769" width="229" height="239" fill="#D7FFE2" stroke="#236818" stroke-width="4" stroke-dasharray="18 18"/>
<rect x="290" y="451" width="405" height="239" fill="#D7FFE2" stroke="#236818" stroke-width="4" stroke-dasharray="18 18"/>
<rect x="87" y="487" width="167" height="167" rx="20" fill="#B1EB96"/>
<path d="M154.88 578H152.76L147.7 571.18L146.24 572.46V578H144.44V563.72H146.24V570.76C146.64 570.307 147.047 569.853 147.46 569.4C147.873 568.947 148.287 568.493 148.7 568.04L152.56 563.72H154.66L149 569.94L154.88 578ZM160.723 567.08C161.643 567.08 162.429 567.28 163.083 567.68C163.749 568.08 164.256 568.647 164.603 569.38C164.963 570.1 165.143 570.947 165.143 571.92V572.98H157.803C157.829 574.193 158.136 575.12 158.723 575.76C159.323 576.387 160.156 576.7 161.223 576.7C161.903 576.7 162.503 576.64 163.023 576.52C163.556 576.387 164.103 576.2 164.663 575.96V577.5C164.116 577.74 163.576 577.913 163.043 578.02C162.509 578.14 161.876 578.2 161.143 578.2C160.129 578.2 159.229 577.993 158.443 577.58C157.669 577.167 157.063 576.553 156.623 575.74C156.196 574.913 155.983 573.907 155.983 572.72C155.983 571.547 156.176 570.54 156.563 569.7C156.963 568.86 157.516 568.213 158.223 567.76C158.943 567.307 159.776 567.08 160.723 567.08ZM160.703 568.52C159.863 568.52 159.196 568.793 158.703 569.34C158.223 569.873 157.936 570.62 157.843 571.58H163.303C163.289 570.673 163.076 569.94 162.663 569.38C162.249 568.807 161.596 568.52 160.703 568.52ZM169.612 570.74C169.612 570.953 169.599 571.233 169.572 571.58C169.559 571.927 169.545 572.227 169.532 572.48H169.612C169.692 572.373 169.812 572.22 169.972 572.02C170.132 571.82 170.292 571.62 170.452 571.42C170.625 571.207 170.772 571.033 170.892 570.9L174.312 567.28H176.372L172.032 571.86L176.672 578H174.552L170.832 573L169.612 574.06V578H167.872V562.8H169.612V570.74ZM182.695 567.08C183.615 567.08 184.402 567.28 185.055 567.68C185.722 568.08 186.229 568.647 186.575 569.38C186.935 570.1 187.115 570.947 187.115 571.92V572.98H179.775C179.802 574.193 180.109 575.12 180.695 575.76C181.295 576.387 182.129 576.7 183.195 576.7C183.875 576.7 184.475 576.64 184.995 576.52C185.529 576.387 186.075 576.2 186.635 575.96V577.5C186.089 577.74 185.549 577.913 185.015 578.02C184.482 578.14 183.849 578.2 183.115 578.2C182.102 578.2 181.202 577.993 180.415 577.58C179.642 577.167 179.035 576.553 178.595 575.74C178.169 574.913 177.955 573.907 177.955 572.72C177.955 571.547 178.149 570.54 178.535 569.7C178.935 568.86 179.489 568.213 180.195 567.76C180.915 567.307 181.749 567.08 182.695 567.08ZM182.675 568.52C181.835 568.52 181.169 568.793 180.675 569.34C180.195 569.873 179.909 570.62 179.815 571.58H185.275C185.262 570.673 185.049 569.94 184.635 569.38C184.222 568.807 183.569 568.52 182.675 568.52ZM196.825 575.04C196.825 576.08 196.438 576.867 195.665 577.4C194.891 577.933 193.851 578.2 192.545 578.2C191.798 578.2 191.151 578.14 190.605 578.02C190.071 577.9 189.598 577.733 189.185 577.52V575.92C189.611 576.133 190.125 576.333 190.725 576.52C191.338 576.693 191.958 576.78 192.585 576.78C193.478 576.78 194.125 576.64 194.525 576.36C194.925 576.067 195.125 575.68 195.125 575.2C195.125 574.933 195.051 574.693 194.905 574.48C194.758 574.267 194.491 574.053 194.105 573.84C193.731 573.627 193.191 573.387 192.485 573.12C191.791 572.853 191.198 572.587 190.705 572.32C190.211 572.053 189.831 571.733 189.565 571.36C189.298 570.987 189.165 570.507 189.165 569.92C189.165 569.013 189.531 568.313 190.265 567.82C191.011 567.327 191.985 567.08 193.185 567.08C193.838 567.08 194.445 567.147 195.005 567.28C195.578 567.4 196.111 567.573 196.605 567.8L196.005 569.2C195.551 569.013 195.078 568.853 194.585 568.72C194.091 568.587 193.585 568.52 193.065 568.52C192.345 568.52 191.791 568.64 191.405 568.88C191.031 569.107 190.845 569.42 190.845 569.82C190.845 570.113 190.931 570.367 191.105 570.58C191.278 570.78 191.565 570.98 191.965 571.18C192.378 571.367 192.925 571.593 193.605 571.86C194.285 572.113 194.865 572.373 195.345 572.64C195.825 572.907 196.191 573.233 196.445 573.62C196.698 573.993 196.825 574.467 196.825 575.04Z" fill="#0A1921"/>
<rect x="310" y="487" width="167" height="167" rx="20" fill="#B1EB96"/>
<path d="M372.86 578H371.06V571.34H363.74V578H361.94V563.72H363.74V569.76H371.06V563.72H372.86V578ZM380.664 567.08C381.584 567.08 382.371 567.28 383.024 567.68C383.691 568.08 384.198 568.647 384.544 569.38C384.904 570.1 385.084 570.947 385.084 571.92V572.98H377.744C377.771 574.193 378.078 575.12 378.664 575.76C379.264 576.387 380.098 576.7 381.164 576.7C381.844 576.7 382.444 576.64 382.964 576.52C383.498 576.387 384.044 576.2 384.604 575.96V577.5C384.058 577.74 383.518 577.913 382.984 578.02C382.451 578.14 381.818 578.2 381.084 578.2C380.071 578.2 379.171 577.993 378.384 577.58C377.611 577.167 377.004 576.553 376.564 575.74C376.138 574.913 375.924 573.907 375.924 572.72C375.924 571.547 376.118 570.54 376.504 569.7C376.904 568.86 377.458 568.213 378.164 567.76C378.884 567.307 379.718 567.08 380.664 567.08ZM380.644 568.52C379.804 568.52 379.138 568.793 378.644 569.34C378.164 569.873 377.878 570.62 377.784 571.58H383.244C383.231 570.673 383.018 569.94 382.604 569.38C382.191 568.807 381.538 568.52 380.644 568.52ZM389.573 578H387.813V562.8H389.573V578ZM397.03 567.1C398.336 567.1 399.303 567.387 399.93 567.96C400.556 568.533 400.87 569.447 400.87 570.7V578H399.59L399.25 576.48H399.17C398.703 577.067 398.21 577.5 397.69 577.78C397.183 578.06 396.476 578.2 395.57 578.2C394.596 578.2 393.79 577.947 393.15 577.44C392.51 576.92 392.19 576.113 392.19 575.02C392.19 573.953 392.61 573.133 393.45 572.56C394.29 571.973 395.583 571.653 397.33 571.6L399.15 571.54V570.9C399.15 570.007 398.956 569.387 398.57 569.04C398.183 568.693 397.636 568.52 396.93 568.52C396.37 568.52 395.836 568.607 395.33 568.78C394.823 568.94 394.35 569.127 393.91 569.34L393.37 568.02C393.836 567.767 394.39 567.553 395.03 567.38C395.67 567.193 396.336 567.1 397.03 567.1ZM397.55 572.82C396.216 572.873 395.29 573.087 394.77 573.46C394.263 573.833 394.01 574.36 394.01 575.04C394.01 575.64 394.19 576.08 394.55 576.36C394.923 576.64 395.396 576.78 395.97 576.78C396.876 576.78 397.63 576.533 398.23 576.04C398.83 575.533 399.13 574.76 399.13 573.72V572.76L397.55 572.82ZM407.98 578.2C406.647 578.2 405.58 577.74 404.78 576.82C403.98 575.887 403.58 574.5 403.58 572.66C403.58 570.82 403.98 569.433 404.78 568.5C405.594 567.553 406.667 567.08 408 567.08C408.827 567.08 409.5 567.233 410.02 567.54C410.554 567.847 410.987 568.22 411.32 568.66H411.44C411.427 568.487 411.4 568.233 411.36 567.9C411.334 567.553 411.32 567.28 411.32 567.08V562.8H413.08V578H411.66L411.4 576.56H411.32C411 577.013 410.574 577.4 410.04 577.72C409.507 578.04 408.82 578.2 407.98 578.2ZM408.26 576.74C409.394 576.74 410.187 576.433 410.64 575.82C411.107 575.193 411.34 574.253 411.34 573V572.68C411.34 571.347 411.12 570.327 410.68 569.62C410.24 568.9 409.427 568.54 408.24 568.54C407.294 568.54 406.58 568.92 406.1 569.68C405.634 570.427 405.4 571.433 405.4 572.7C405.4 573.98 405.634 574.973 406.1 575.68C406.58 576.387 407.3 576.74 408.26 576.74ZM425.805 572.62C425.805 574.393 425.352 575.767 424.445 576.74C423.552 577.713 422.338 578.2 420.805 578.2C419.858 578.2 419.012 577.987 418.265 577.56C417.532 577.12 416.952 576.487 416.525 575.66C416.098 574.82 415.885 573.807 415.885 572.62C415.885 570.847 416.332 569.48 417.225 568.52C418.118 567.56 419.332 567.08 420.865 567.08C421.838 567.08 422.692 567.3 423.425 567.74C424.172 568.167 424.752 568.793 425.165 569.62C425.592 570.433 425.805 571.433 425.805 572.62ZM417.705 572.62C417.705 573.887 417.952 574.893 418.445 575.64C418.952 576.373 419.752 576.74 420.845 576.74C421.925 576.74 422.718 576.373 423.225 575.64C423.732 574.893 423.985 573.887 423.985 572.62C423.985 571.353 423.732 570.36 423.225 569.64C422.718 568.92 421.918 568.56 420.825 568.56C419.732 568.56 418.938 568.92 418.445 569.64C417.952 570.36 417.705 571.353 417.705 572.62Z" fill="#0A1921"/>
<rect x="87" y="805" width="167" height="167" rx="20" fill="#B1EB96"/>
<path d="M132.22 881.72C134.087 881.72 135.447 882.087 136.3 882.82C137.153 883.553 137.58 884.587 137.58 885.92C137.58 886.707 137.4 887.447 137.04 888.14C136.693 888.82 136.1 889.373 135.26 889.8C134.433 890.227 133.307 890.44 131.88 890.44H130.24V896H128.44V881.72H132.22ZM132.06 883.26H130.24V888.9H131.68C133.04 888.9 134.053 888.68 134.72 888.24C135.387 887.8 135.72 887.053 135.72 886C135.72 885.08 135.427 884.393 134.84 883.94C134.253 883.487 133.327 883.26 132.06 883.26ZM149.629 890.62C149.629 892.393 149.176 893.767 148.269 894.74C147.376 895.713 146.163 896.2 144.629 896.2C143.683 896.2 142.836 895.987 142.089 895.56C141.356 895.12 140.776 894.487 140.349 893.66C139.923 892.82 139.709 891.807 139.709 890.62C139.709 888.847 140.156 887.48 141.049 886.52C141.943 885.56 143.156 885.08 144.689 885.08C145.663 885.08 146.516 885.3 147.249 885.74C147.996 886.167 148.576 886.793 148.989 887.62C149.416 888.433 149.629 889.433 149.629 890.62ZM141.529 890.62C141.529 891.887 141.776 892.893 142.269 893.64C142.776 894.373 143.576 894.74 144.669 894.74C145.749 894.74 146.543 894.373 147.049 893.64C147.556 892.893 147.809 891.887 147.809 890.62C147.809 889.353 147.556 888.36 147.049 887.64C146.543 886.92 145.743 886.56 144.649 886.56C143.556 886.56 142.763 886.92 142.269 887.64C141.776 888.36 141.529 889.353 141.529 890.62ZM157.519 885.08C158.839 885.08 159.899 885.54 160.699 886.46C161.512 887.38 161.919 888.767 161.919 890.62C161.919 892.447 161.512 893.833 160.699 894.78C159.899 895.727 158.832 896.2 157.499 896.2C156.672 896.2 155.985 896.047 155.439 895.74C154.905 895.42 154.485 895.053 154.179 894.64H154.059C154.085 894.867 154.112 895.153 154.139 895.5C154.165 895.847 154.179 896.147 154.179 896.4V900.8H152.419V885.28H153.859L154.099 886.74H154.179C154.499 886.273 154.919 885.88 155.439 885.56C155.959 885.24 156.652 885.08 157.519 885.08ZM157.199 886.56C156.105 886.56 155.332 886.867 154.879 887.48C154.439 888.093 154.205 889.027 154.179 890.28V890.62C154.179 891.94 154.392 892.96 154.819 893.68C155.259 894.387 156.065 894.74 157.239 894.74C157.892 894.74 158.425 894.56 158.839 894.2C159.265 893.84 159.579 893.353 159.779 892.74C159.992 892.113 160.099 891.4 160.099 890.6C160.099 889.373 159.859 888.393 159.379 887.66C158.912 886.927 158.185 886.56 157.199 886.56ZM176.279 883.1C174.745 883.1 173.539 883.613 172.659 884.64C171.779 885.667 171.339 887.073 171.339 888.86C171.339 890.633 171.745 892.04 172.559 893.08C173.385 894.107 174.619 894.62 176.259 894.62C176.885 894.62 177.479 894.567 178.039 894.46C178.599 894.353 179.145 894.22 179.679 894.06V895.62C179.145 895.82 178.592 895.967 178.019 896.06C177.459 896.153 176.785 896.2 175.999 896.2C174.545 896.2 173.332 895.9 172.359 895.3C171.385 894.7 170.652 893.847 170.159 892.74C169.679 891.633 169.439 890.333 169.439 888.84C169.439 887.4 169.699 886.133 170.219 885.04C170.752 883.933 171.532 883.073 172.559 882.46C173.585 881.833 174.832 881.52 176.299 881.52C177.805 881.52 179.119 881.8 180.239 882.36L179.519 883.88C179.079 883.68 178.585 883.5 178.039 883.34C177.505 883.18 176.919 883.1 176.279 883.1ZM191.875 890.62C191.875 892.393 191.422 893.767 190.515 894.74C189.622 895.713 188.409 896.2 186.875 896.2C185.929 896.2 185.082 895.987 184.335 895.56C183.602 895.12 183.022 894.487 182.595 893.66C182.169 892.82 181.955 891.807 181.955 890.62C181.955 888.847 182.402 887.48 183.295 886.52C184.189 885.56 185.402 885.08 186.935 885.08C187.909 885.08 188.762 885.3 189.495 885.74C190.242 886.167 190.822 886.793 191.235 887.62C191.662 888.433 191.875 889.433 191.875 890.62ZM183.775 890.62C183.775 891.887 184.022 892.893 184.515 893.64C185.022 894.373 185.822 894.74 186.915 894.74C187.995 894.74 188.789 894.373 189.295 893.64C189.802 892.893 190.055 891.887 190.055 890.62C190.055 889.353 189.802 888.36 189.295 887.64C188.789 886.92 187.989 886.56 186.895 886.56C185.802 886.56 185.009 886.92 184.515 887.64C184.022 888.36 183.775 889.353 183.775 890.62ZM199.665 885.08C199.865 885.08 200.078 885.093 200.305 885.12C200.545 885.133 200.752 885.16 200.925 885.2L200.705 886.82C200.532 886.78 200.338 886.747 200.125 886.72C199.925 886.693 199.732 886.68 199.545 886.68C198.998 886.68 198.485 886.833 198.005 887.14C197.525 887.433 197.138 887.853 196.845 888.4C196.565 888.933 196.425 889.56 196.425 890.28V896H194.665V885.28H196.105L196.305 887.24H196.385C196.732 886.653 197.178 886.147 197.725 885.72C198.272 885.293 198.918 885.08 199.665 885.08ZM208.087 885.08C209.367 885.08 210.333 885.393 210.987 886.02C211.64 886.633 211.967 887.633 211.967 889.02V896H210.227V889.14C210.227 887.42 209.427 886.56 207.827 886.56C206.64 886.56 205.82 886.893 205.367 887.56C204.913 888.227 204.687 889.187 204.687 890.44V896H202.927V885.28H204.347L204.607 886.74H204.707C205.053 886.18 205.533 885.767 206.147 885.5C206.76 885.22 207.407 885.08 208.087 885.08Z" fill="#0A1921"/>
<rect x="310" y="805" width="167" height="167" rx="20" fill="#B1EB96"/>
<path d="M363.64 888.46H368.58V895.46C367.807 895.713 367.027 895.9 366.24 896.02C365.453 896.14 364.56 896.2 363.56 896.2C362.08 896.2 360.833 895.907 359.82 895.32C358.807 894.72 358.033 893.873 357.5 892.78C356.98 891.673 356.72 890.367 356.72 888.86C356.72 887.367 357.013 886.073 357.6 884.98C358.187 883.887 359.027 883.04 360.12 882.44C361.227 881.827 362.56 881.52 364.12 881.52C364.92 881.52 365.673 881.593 366.38 881.74C367.1 881.887 367.767 882.093 368.38 882.36L367.7 883.92C367.193 883.693 366.62 883.5 365.98 883.34C365.353 883.18 364.7 883.1 364.02 883.1C362.313 883.1 360.98 883.613 360.02 884.64C359.073 885.667 358.6 887.073 358.6 888.86C358.6 889.993 358.78 891 359.14 891.88C359.513 892.747 360.093 893.427 360.88 893.92C361.667 894.4 362.7 894.64 363.98 894.64C364.607 894.64 365.14 894.607 365.58 894.54C366.02 894.473 366.42 894.393 366.78 894.3V890.06H363.64V888.46ZM375.811 885.1C377.117 885.1 378.084 885.387 378.711 885.96C379.337 886.533 379.651 887.447 379.651 888.7V896H378.371L378.031 894.48H377.951C377.484 895.067 376.991 895.5 376.471 895.78C375.964 896.06 375.257 896.2 374.351 896.2C373.377 896.2 372.571 895.947 371.931 895.44C371.291 894.92 370.971 894.113 370.971 893.02C370.971 891.953 371.391 891.133 372.231 890.56C373.071 889.973 374.364 889.653 376.111 889.6L377.931 889.54V888.9C377.931 888.007 377.737 887.387 377.351 887.04C376.964 886.693 376.417 886.52 375.711 886.52C375.151 886.52 374.617 886.607 374.111 886.78C373.604 886.94 373.131 887.127 372.691 887.34L372.151 886.02C372.617 885.767 373.171 885.553 373.811 885.38C374.451 885.193 375.117 885.1 375.811 885.1ZM376.331 890.82C374.997 890.873 374.071 891.087 373.551 891.46C373.044 891.833 372.791 892.36 372.791 893.04C372.791 893.64 372.971 894.08 373.331 894.36C373.704 894.64 374.177 894.78 374.751 894.78C375.657 894.78 376.411 894.533 377.011 894.04C377.611 893.533 377.911 892.76 377.911 891.72V890.76L376.331 890.82ZM384.722 896H382.962V880.8H384.722V896ZM389.878 896H388.118V880.8H389.878V896ZM397.414 885.08C398.334 885.08 399.121 885.28 399.774 885.68C400.441 886.08 400.948 886.647 401.294 887.38C401.654 888.1 401.834 888.947 401.834 889.92V890.98H394.494C394.521 892.193 394.828 893.12 395.414 893.76C396.014 894.387 396.848 894.7 397.914 894.7C398.594 894.7 399.194 894.64 399.714 894.52C400.248 894.387 400.794 894.2 401.354 893.96V895.5C400.808 895.74 400.268 895.913 399.734 896.02C399.201 896.14 398.568 896.2 397.834 896.2C396.821 896.2 395.921 895.993 395.134 895.58C394.361 895.167 393.754 894.553 393.314 893.74C392.888 892.913 392.674 891.907 392.674 890.72C392.674 889.547 392.868 888.54 393.254 887.7C393.654 886.86 394.208 886.213 394.914 885.76C395.634 885.307 396.468 885.08 397.414 885.08ZM397.394 886.52C396.554 886.52 395.888 886.793 395.394 887.34C394.914 887.873 394.628 888.62 394.534 889.58H399.994C399.981 888.673 399.768 887.94 399.354 887.38C398.941 886.807 398.288 886.52 397.394 886.52ZM408.143 894.76C408.41 894.76 408.683 894.74 408.963 894.7C409.243 894.647 409.47 894.593 409.643 894.54V895.88C409.457 895.973 409.19 896.047 408.843 896.1C408.497 896.167 408.163 896.2 407.843 896.2C407.283 896.2 406.763 896.107 406.283 895.92C405.817 895.72 405.437 895.38 405.143 894.9C404.85 894.42 404.703 893.747 404.703 892.88V886.64H403.183V885.8L404.723 885.1L405.423 882.82H406.463V885.28H409.563V886.64H406.463V892.84C406.463 893.493 406.617 893.98 406.923 894.3C407.243 894.607 407.65 894.76 408.143 894.76ZM415.85 885.1C417.157 885.1 418.123 885.387 418.75 885.96C419.377 886.533 419.69 887.447 419.69 888.7V896H418.41L418.07 894.48H417.99C417.523 895.067 417.03 895.5 416.51 895.78C416.003 896.06 415.297 896.2 414.39 896.2C413.417 896.2 412.61 895.947 411.97 895.44C411.33 894.92 411.01 894.113 411.01 893.02C411.01 891.953 411.43 891.133 412.27 890.56C413.11 889.973 414.403 889.653 416.15 889.6L417.97 889.54V888.9C417.97 888.007 417.777 887.387 417.39 887.04C417.003 886.693 416.457 886.52 415.75 886.52C415.19 886.52 414.657 886.607 414.15 886.78C413.643 886.94 413.17 887.127 412.73 887.34L412.19 886.02C412.657 885.767 413.21 885.553 413.85 885.38C414.49 885.193 415.157 885.1 415.85 885.1ZM416.37 890.82C415.037 890.873 414.11 891.087 413.59 891.46C413.083 891.833 412.83 892.36 412.83 893.04C412.83 893.64 413.01 894.08 413.37 894.36C413.743 894.64 414.217 894.78 414.79 894.78C415.697 894.78 416.45 894.533 417.05 894.04C417.65 893.533 417.95 892.76 417.95 891.72V890.76L416.37 890.82ZM429.981 893.04C429.981 894.08 429.594 894.867 428.821 895.4C428.047 895.933 427.007 896.2 425.701 896.2C424.954 896.2 424.307 896.14 423.761 896.02C423.227 895.9 422.754 895.733 422.341 895.52V893.92C422.767 894.133 423.281 894.333 423.881 894.52C424.494 894.693 425.114 894.78 425.741 894.78C426.634 894.78 427.281 894.64 427.681 894.36C428.081 894.067 428.281 893.68 428.281 893.2C428.281 892.933 428.207 892.693 428.061 892.48C427.914 892.267 427.647 892.053 427.261 891.84C426.887 891.627 426.347 891.387 425.641 891.12C424.947 890.853 424.354 890.587 423.861 890.32C423.367 890.053 422.987 889.733 422.721 889.36C422.454 888.987 422.321 888.507 422.321 887.92C422.321 887.013 422.687 886.313 423.421 885.82C424.167 885.327 425.141 885.08 426.341 885.08C426.994 885.08 427.601 885.147 428.161 885.28C428.734 885.4 429.267 885.573 429.761 885.8L429.161 887.2C428.707 887.013 428.234 886.853 427.741 886.72C427.247 886.587 426.741 886.52 426.221 886.52C425.501 886.52 424.947 886.64 424.561 886.88C424.187 887.107 424.001 887.42 424.001 887.82C424.001 888.113 424.087 888.367 424.261 888.58C424.434 888.78 424.721 888.98 425.121 889.18C425.534 889.367 426.081 889.593 426.761 889.86C427.441 890.113 428.021 890.373 428.501 890.64C428.981 890.907 429.347 891.233 429.601 891.62C429.854 891.993 429.981 892.467 429.981 893.04Z" fill="#0A1921"/>
<path d="M87.07 62.08C87.07 65.7 86.08 68.43 84.1 70.27C82.14 72.09 79.4 73 75.88 73H69.91V51.58H76.51C78.67 51.58 80.54 51.98 82.12 52.78C83.7 53.58 84.92 54.76 85.78 56.32C86.64 57.86 87.07 59.78 87.07 62.08ZM84.22 62.17C84.22 59.31 83.51 57.22 82.09 55.9C80.69 54.56 78.7 53.89 76.12 53.89H72.61V70.69H75.52C81.32 70.69 84.22 67.85 84.22 62.17ZM104.904 56.92V73H102.744L102.354 70.87H102.234C101.714 71.71 100.994 72.33 100.074 72.73C99.1541 73.11 98.1741 73.3 97.1341 73.3C95.1941 73.3 93.7341 72.84 92.7541 71.92C91.7741 70.98 91.2841 69.49 91.2841 67.45V56.92H93.9541V67.27C93.9541 69.83 95.1441 71.11 97.5241 71.11C99.3041 71.11 100.534 70.61 101.214 69.61C101.914 68.61 102.264 67.17 102.264 65.29V56.92H104.904ZM112.649 73H110.009V50.2H112.649V73ZM124.193 73.3C122.773 73.3 121.503 73.01 120.383 72.43C119.283 71.85 118.413 70.95 117.773 69.73C117.153 68.51 116.843 66.95 116.843 65.05C116.843 63.07 117.173 61.46 117.833 60.22C118.493 58.98 119.383 58.07 120.503 57.49C121.643 56.91 122.933 56.62 124.373 56.62C125.193 56.62 125.983 56.71 126.743 56.89C127.503 57.05 128.123 57.25 128.603 57.49L127.793 59.68C127.313 59.5 126.753 59.33 126.113 59.17C125.473 59.01 124.873 58.93 124.313 58.93C121.153 58.93 119.573 60.96 119.573 65.02C119.573 66.96 119.953 68.45 120.713 69.49C121.493 70.51 122.643 71.02 124.163 71.02C125.043 71.02 125.813 70.93 126.473 70.75C127.153 70.57 127.773 70.35 128.333 70.09V72.43C127.793 72.71 127.193 72.92 126.533 73.06C125.893 73.22 125.113 73.3 124.193 73.3ZM138.367 56.62C139.747 56.62 140.927 56.92 141.907 57.52C142.907 58.12 143.667 58.97 144.187 60.07C144.727 61.15 144.997 62.42 144.997 63.88V65.47H133.987C134.027 67.29 134.487 68.68 135.367 69.64C136.267 70.58 137.517 71.05 139.117 71.05C140.137 71.05 141.037 70.96 141.817 70.78C142.617 70.58 143.437 70.3 144.277 69.94V72.25C143.457 72.61 142.647 72.87 141.847 73.03C141.047 73.21 140.097 73.3 138.997 73.3C137.477 73.3 136.127 72.99 134.947 72.37C133.787 71.75 132.877 70.83 132.217 69.61C131.577 68.37 131.257 66.86 131.257 65.08C131.257 63.32 131.547 61.81 132.127 60.55C132.727 59.29 133.557 58.32 134.617 57.64C135.697 56.96 136.947 56.62 138.367 56.62ZM138.337 58.78C137.077 58.78 136.077 59.19 135.337 60.01C134.617 60.81 134.187 61.93 134.047 63.37H142.237C142.217 62.01 141.897 60.91 141.277 60.07C140.657 59.21 139.677 58.78 138.337 58.78ZM159.561 68.56C159.561 70.12 158.981 71.3 157.821 72.1C156.661 72.9 155.101 73.3 153.141 73.3C152.021 73.3 151.051 73.21 150.231 73.03C149.431 72.85 148.721 72.6 148.101 72.28V69.88C148.741 70.2 149.511 70.5 150.411 70.78C151.331 71.04 152.261 71.17 153.201 71.17C154.541 71.17 155.511 70.96 156.111 70.54C156.711 70.1 157.011 69.52 157.011 68.8C157.011 68.4 156.901 68.04 156.681 67.72C156.461 67.4 156.061 67.08 155.481 66.76C154.921 66.44 154.111 66.08 153.051 65.68C152.011 65.28 151.121 64.88 150.381 64.48C149.641 64.08 149.071 63.6 148.671 63.04C148.271 62.48 148.071 61.76 148.071 60.88C148.071 59.52 148.621 58.47 149.721 57.73C150.841 56.99 152.301 56.62 154.101 56.62C155.081 56.62 155.991 56.72 156.831 56.92C157.691 57.1 158.491 57.36 159.231 57.7L158.331 59.8C157.651 59.52 156.941 59.28 156.201 59.08C155.461 58.88 154.701 58.78 153.921 58.78C152.841 58.78 152.011 58.96 151.431 59.32C150.871 59.66 150.591 60.13 150.591 60.73C150.591 61.17 150.721 61.55 150.981 61.87C151.241 62.17 151.671 62.47 152.271 62.77C152.891 63.05 153.711 63.39 154.731 63.79C155.751 64.17 156.621 64.56 157.341 64.96C158.061 65.36 158.611 65.85 158.991 66.43C159.371 66.99 159.561 67.7 159.561 68.56Z" fill="#0A1921"/>
<path d="M74.86 420H73.06V413.34H65.74V420H63.94V405.72H65.74V411.76H73.06V405.72H74.86V420ZM87.8442 414.62C87.8442 416.393 87.3909 417.767 86.4842 418.74C85.5909 419.713 84.3776 420.2 82.8442 420.2C81.8976 420.2 81.0509 419.987 80.3042 419.56C79.5709 419.12 78.9909 418.487 78.5642 417.66C78.1376 416.82 77.9242 415.807 77.9242 414.62C77.9242 412.847 78.3709 411.48 79.2642 410.52C80.1576 409.56 81.3709 409.08 82.9042 409.08C83.8776 409.08 84.7309 409.3 85.4642 409.74C86.2109 410.167 86.7909 410.793 87.2042 411.62C87.6309 412.433 87.8442 413.433 87.8442 414.62ZM79.7442 414.62C79.7442 415.887 79.9909 416.893 80.4842 417.64C80.9909 418.373 81.7909 418.74 82.8842 418.74C83.9642 418.74 84.7576 418.373 85.2642 417.64C85.7709 416.893 86.0242 415.887 86.0242 414.62C86.0242 413.353 85.7709 412.36 85.2642 411.64C84.7576 410.92 83.9576 410.56 82.8642 410.56C81.7709 410.56 80.9776 410.92 80.4842 411.64C79.9909 412.36 79.7442 413.353 79.7442 414.62ZM95.6336 409.08C95.8336 409.08 96.0469 409.093 96.2736 409.12C96.5136 409.133 96.7203 409.16 96.8936 409.2L96.6736 410.82C96.5003 410.78 96.3069 410.747 96.0936 410.72C95.8936 410.693 95.7003 410.68 95.5136 410.68C94.9669 410.68 94.4536 410.833 93.9736 411.14C93.4936 411.433 93.1069 411.853 92.8136 412.4C92.5336 412.933 92.3936 413.56 92.3936 414.28V420H90.6336V409.28H92.0736L92.2736 411.24H92.3536C92.7003 410.653 93.1469 410.147 93.6936 409.72C94.2403 409.293 94.8869 409.08 95.6336 409.08ZM104.055 409.08C105.335 409.08 106.302 409.393 106.955 410.02C107.609 410.633 107.935 411.633 107.935 413.02V420H106.195V413.14C106.195 411.42 105.395 410.56 103.795 410.56C102.609 410.56 101.789 410.893 101.335 411.56C100.882 412.227 100.655 413.187 100.655 414.44V420H98.8953V409.28H100.315L100.575 410.74H100.675C101.022 410.18 101.502 409.767 102.115 409.5C102.729 409.22 103.375 409.08 104.055 409.08ZM115.399 409.08C116.319 409.08 117.105 409.28 117.759 409.68C118.425 410.08 118.932 410.647 119.279 411.38C119.639 412.1 119.819 412.947 119.819 413.92V414.98H112.479C112.505 416.193 112.812 417.12 113.399 417.76C113.999 418.387 114.832 418.7 115.899 418.7C116.579 418.7 117.179 418.64 117.699 418.52C118.232 418.387 118.779 418.2 119.339 417.96V419.5C118.792 419.74 118.252 419.913 117.719 420.02C117.185 420.14 116.552 420.2 115.819 420.2C114.805 420.2 113.905 419.993 113.119 419.58C112.345 419.167 111.739 418.553 111.299 417.74C110.872 416.913 110.659 415.907 110.659 414.72C110.659 413.547 110.852 412.54 111.239 411.7C111.639 410.86 112.192 410.213 112.899 409.76C113.619 409.307 114.452 409.08 115.399 409.08ZM115.379 410.52C114.539 410.52 113.872 410.793 113.379 411.34C112.899 411.873 112.612 412.62 112.519 413.58H117.979C117.965 412.673 117.752 411.94 117.339 411.38C116.925 410.807 116.272 410.52 115.379 410.52ZM126.608 409.1C127.914 409.1 128.881 409.387 129.508 409.96C130.134 410.533 130.448 411.447 130.448 412.7V420H129.168L128.828 418.48H128.748C128.281 419.067 127.788 419.5 127.268 419.78C126.761 420.06 126.054 420.2 125.148 420.2C124.174 420.2 123.368 419.947 122.728 419.44C122.088 418.92 121.768 418.113 121.768 417.02C121.768 415.953 122.188 415.133 123.028 414.56C123.868 413.973 125.161 413.653 126.908 413.6L128.728 413.54V412.9C128.728 412.007 128.534 411.387 128.148 411.04C127.761 410.693 127.214 410.52 126.508 410.52C125.948 410.52 125.414 410.607 124.908 410.78C124.401 410.94 123.928 411.127 123.488 411.34L122.948 410.02C123.414 409.767 123.968 409.553 124.608 409.38C125.248 409.193 125.914 409.1 126.608 409.1ZM127.128 414.82C125.794 414.873 124.868 415.087 124.348 415.46C123.841 415.833 123.588 416.36 123.588 417.04C123.588 417.64 123.768 418.08 124.128 418.36C124.501 418.64 124.974 418.78 125.548 418.78C126.454 418.78 127.208 418.533 127.808 418.04C128.408 417.533 128.708 416.76 128.708 415.72V414.76L127.128 414.82ZM137.559 420.2C136.225 420.2 135.159 419.74 134.359 418.82C133.559 417.887 133.159 416.5 133.159 414.66C133.159 412.82 133.559 411.433 134.359 410.5C135.172 409.553 136.245 409.08 137.579 409.08C138.405 409.08 139.079 409.233 139.599 409.54C140.132 409.847 140.565 410.22 140.899 410.66H141.019C141.005 410.487 140.979 410.233 140.939 409.9C140.912 409.553 140.899 409.28 140.899 409.08V404.8H142.659V420H141.239L140.979 418.56H140.899C140.579 419.013 140.152 419.4 139.619 419.72C139.085 420.04 138.399 420.2 137.559 420.2ZM137.839 418.74C138.972 418.74 139.765 418.433 140.219 417.82C140.685 417.193 140.919 416.253 140.919 415V414.68C140.919 413.347 140.699 412.327 140.259 411.62C139.819 410.9 139.005 410.54 137.819 410.54C136.872 410.54 136.159 410.92 135.679 411.68C135.212 412.427 134.979 413.433 134.979 414.7C134.979 415.98 135.212 416.973 135.679 417.68C136.159 418.387 136.879 418.74 137.839 418.74ZM155.383 414.62C155.383 416.393 154.93 417.767 154.023 418.74C153.13 419.713 151.917 420.2 150.383 420.2C149.437 420.2 148.59 419.987 147.843 419.56C147.11 419.12 146.53 418.487 146.103 417.66C145.677 416.82 145.463 415.807 145.463 414.62C145.463 412.847 145.91 411.48 146.803 410.52C147.697 409.56 148.91 409.08 150.443 409.08C151.417 409.08 152.27 409.3 153.003 409.74C153.75 410.167 154.33 410.793 154.743 411.62C155.17 412.433 155.383 413.433 155.383 414.62ZM147.283 414.62C147.283 415.887 147.53 416.893 148.023 417.64C148.53 418.373 149.33 418.74 150.423 418.74C151.503 418.74 152.297 418.373 152.803 417.64C153.31 416.893 153.563 415.887 153.563 414.62C153.563 413.353 153.31 412.36 152.803 411.64C152.297 410.92 151.497 410.56 150.403 410.56C149.31 410.56 148.517 410.92 148.023 411.64C147.53 412.36 147.283 413.353 147.283 414.62ZM165.153 417.04C165.153 418.08 164.766 418.867 163.993 419.4C163.219 419.933 162.179 420.2 160.873 420.2C160.126 420.2 159.479 420.14 158.933 420.02C158.399 419.9 157.926 419.733 157.513 419.52V417.92C157.939 418.133 158.453 418.333 159.053 418.52C159.666 418.693 160.286 418.78 160.913 418.78C161.806 418.78 162.453 418.64 162.853 418.36C163.253 418.067 163.453 417.68 163.453 417.2C163.453 416.933 163.379 416.693 163.233 416.48C163.086 416.267 162.819 416.053 162.433 415.84C162.059 415.627 161.519 415.387 160.813 415.12C160.119 414.853 159.526 414.587 159.033 414.32C158.539 414.053 158.159 413.733 157.893 413.36C157.626 412.987 157.493 412.507 157.493 411.92C157.493 411.013 157.859 410.313 158.593 409.82C159.339 409.327 160.313 409.08 161.513 409.08C162.166 409.08 162.773 409.147 163.333 409.28C163.906 409.4 164.439 409.573 164.933 409.8L164.333 411.2C163.879 411.013 163.406 410.853 162.913 410.72C162.419 410.587 161.913 410.52 161.393 410.52C160.673 410.52 160.119 410.64 159.733 410.88C159.359 411.107 159.173 411.42 159.173 411.82C159.173 412.113 159.259 412.367 159.433 412.58C159.606 412.78 159.893 412.98 160.293 413.18C160.706 413.367 161.253 413.593 161.933 413.86C162.613 414.113 163.193 414.373 163.673 414.64C164.153 414.907 164.519 415.233 164.773 415.62C165.026 415.993 165.153 416.467 165.153 417.04Z" fill="#0A1921"/>
<rect x="65" y="136" width="578" height="239" fill="#D7FFE2" stroke="#236818" stroke-width="4" stroke-dasharray="18 18"/>
<rect x="87" y="170" width="167" height="167" rx="20" fill="#B1EB96"/>
<path d="M133.56 248.1C132.027 248.1 130.82 248.613 129.94 249.64C129.06 250.667 128.62 252.073 128.62 253.86C128.62 255.633 129.027 257.04 129.84 258.08C130.667 259.107 131.9 259.62 133.54 259.62C134.167 259.62 134.76 259.567 135.32 259.46C135.88 259.353 136.427 259.22 136.96 259.06V260.62C136.427 260.82 135.873 260.967 135.3 261.06C134.74 261.153 134.067 261.2 133.28 261.2C131.827 261.2 130.613 260.9 129.64 260.3C128.667 259.7 127.933 258.847 127.44 257.74C126.96 256.633 126.72 255.333 126.72 253.84C126.72 252.4 126.98 251.133 127.5 250.04C128.033 248.933 128.813 248.073 129.84 247.46C130.867 246.833 132.113 246.52 133.58 246.52C135.087 246.52 136.4 246.8 137.52 247.36L136.8 248.88C136.36 248.68 135.867 248.5 135.32 248.34C134.787 248.18 134.2 248.1 133.56 248.1ZM141.597 250.26C141.597 250.793 141.563 251.293 141.497 251.76H141.617C141.963 251.213 142.43 250.8 143.017 250.52C143.617 250.24 144.263 250.1 144.957 250.1C146.263 250.1 147.243 250.413 147.897 251.04C148.55 251.653 148.877 252.647 148.877 254.02V261H147.137V254.14C147.137 252.42 146.337 251.56 144.737 251.56C143.537 251.56 142.71 251.9 142.257 252.58C141.817 253.247 141.597 254.207 141.597 255.46V261H139.837V245.8H141.597V250.26ZM161.16 250.28V261H159.72L159.46 259.58H159.38C159.033 260.14 158.553 260.553 157.94 260.82C157.327 261.073 156.673 261.2 155.98 261.2C154.687 261.2 153.713 260.893 153.06 260.28C152.407 259.653 152.08 258.66 152.08 257.3V250.28H153.86V257.18C153.86 258.887 154.653 259.74 156.24 259.74C157.427 259.74 158.247 259.407 158.7 258.74C159.167 258.073 159.4 257.113 159.4 255.86V250.28H161.16ZM169.663 250.08C170.983 250.08 172.043 250.54 172.843 251.46C173.657 252.38 174.063 253.767 174.063 255.62C174.063 257.447 173.657 258.833 172.843 259.78C172.043 260.727 170.977 261.2 169.643 261.2C168.817 261.2 168.13 261.047 167.583 260.74C167.05 260.42 166.63 260.053 166.323 259.64H166.203C166.23 259.867 166.257 260.153 166.283 260.5C166.31 260.847 166.323 261.147 166.323 261.4V265.8H164.563V250.28H166.003L166.243 251.74H166.323C166.643 251.273 167.063 250.88 167.583 250.56C168.103 250.24 168.797 250.08 169.663 250.08ZM169.343 251.56C168.25 251.56 167.477 251.867 167.023 252.48C166.583 253.093 166.35 254.027 166.323 255.28V255.62C166.323 256.94 166.537 257.96 166.963 258.68C167.403 259.387 168.21 259.74 169.383 259.74C170.037 259.74 170.57 259.56 170.983 259.2C171.41 258.84 171.723 258.353 171.923 257.74C172.137 257.113 172.243 256.4 172.243 255.6C172.243 254.373 172.003 253.393 171.523 252.66C171.057 251.927 170.33 251.56 169.343 251.56ZM181.008 250.08C181.928 250.08 182.715 250.28 183.368 250.68C184.035 251.08 184.541 251.647 184.888 252.38C185.248 253.1 185.428 253.947 185.428 254.92V255.98H178.088C178.115 257.193 178.421 258.12 179.008 258.76C179.608 259.387 180.441 259.7 181.508 259.7C182.188 259.7 182.788 259.64 183.308 259.52C183.841 259.387 184.388 259.2 184.948 258.96V260.5C184.401 260.74 183.861 260.913 183.328 261.02C182.795 261.14 182.161 261.2 181.428 261.2C180.415 261.2 179.515 260.993 178.728 260.58C177.955 260.167 177.348 259.553 176.908 258.74C176.481 257.913 176.268 256.907 176.268 255.72C176.268 254.547 176.461 253.54 176.848 252.7C177.248 251.86 177.801 251.213 178.508 250.76C179.228 250.307 180.061 250.08 181.008 250.08ZM180.988 251.52C180.148 251.52 179.481 251.793 178.988 252.34C178.508 252.873 178.221 253.62 178.128 254.58H183.588C183.575 253.673 183.361 252.94 182.948 252.38C182.535 251.807 181.881 251.52 180.988 251.52ZM191.737 259.76C192.004 259.76 192.277 259.74 192.557 259.7C192.837 259.647 193.064 259.593 193.237 259.54V260.88C193.05 260.973 192.784 261.047 192.437 261.1C192.09 261.167 191.757 261.2 191.437 261.2C190.877 261.2 190.357 261.107 189.877 260.92C189.41 260.72 189.03 260.38 188.737 259.9C188.444 259.42 188.297 258.747 188.297 257.88V251.64H186.777V250.8L188.317 250.1L189.017 247.82H190.057V250.28H193.157V251.64H190.057V257.84C190.057 258.493 190.21 258.98 190.517 259.3C190.837 259.607 191.244 259.76 191.737 259.76ZM199.524 250.08C200.444 250.08 201.23 250.28 201.884 250.68C202.55 251.08 203.057 251.647 203.404 252.38C203.764 253.1 203.944 253.947 203.944 254.92V255.98H196.604C196.63 257.193 196.937 258.12 197.524 258.76C198.124 259.387 198.957 259.7 200.024 259.7C200.704 259.7 201.304 259.64 201.824 259.52C202.357 259.387 202.904 259.2 203.464 258.96V260.5C202.917 260.74 202.377 260.913 201.844 261.02C201.31 261.14 200.677 261.2 199.944 261.2C198.93 261.2 198.03 260.993 197.244 260.58C196.47 260.167 195.864 259.553 195.424 258.74C194.997 257.913 194.784 256.907 194.784 255.72C194.784 254.547 194.977 253.54 195.364 252.7C195.764 251.86 196.317 251.213 197.024 250.76C197.744 250.307 198.577 250.08 199.524 250.08ZM199.504 251.52C198.664 251.52 197.997 251.793 197.504 252.34C197.024 252.873 196.737 253.62 196.644 254.58H202.104C202.09 253.673 201.877 252.94 201.464 252.38C201.05 251.807 200.397 251.52 199.504 251.52ZM213.653 258.04C213.653 259.08 213.266 259.867 212.493 260.4C211.719 260.933 210.679 261.2 209.373 261.2C208.626 261.2 207.979 261.14 207.433 261.02C206.899 260.9 206.426 260.733 206.013 260.52V258.92C206.439 259.133 206.953 259.333 207.553 259.52C208.166 259.693 208.786 259.78 209.413 259.78C210.306 259.78 210.953 259.64 211.353 259.36C211.753 259.067 211.953 258.68 211.953 258.2C211.953 257.933 211.879 257.693 211.733 257.48C211.586 257.267 211.319 257.053 210.933 256.84C210.559 256.627 210.019 256.387 209.313 256.12C208.619 255.853 208.026 255.587 207.533 255.32C207.039 255.053 206.659 254.733 206.393 254.36C206.126 253.987 205.993 253.507 205.993 252.92C205.993 252.013 206.359 251.313 207.093 250.82C207.839 250.327 208.813 250.08 210.013 250.08C210.666 250.08 211.273 250.147 211.833 250.28C212.406 250.4 212.939 250.573 213.433 250.8L212.833 252.2C212.379 252.013 211.906 251.853 211.413 251.72C210.919 251.587 210.413 251.52 209.893 251.52C209.173 251.52 208.619 251.64 208.233 251.88C207.859 252.107 207.673 252.42 207.673 252.82C207.673 253.113 207.759 253.367 207.933 253.58C208.106 253.78 208.393 253.98 208.793 254.18C209.206 254.367 209.753 254.593 210.433 254.86C211.113 255.113 211.693 255.373 212.173 255.64C212.653 255.907 213.019 256.233 213.273 256.62C213.526 256.993 213.653 257.467 213.653 258.04Z" fill="#0A1921"/>
<rect x="274" y="170" width="167" height="167" rx="20" fill="#B1EB96"/>
<path d="M315.56 248.1C314.027 248.1 312.82 248.613 311.94 249.64C311.06 250.667 310.62 252.073 310.62 253.86C310.62 255.633 311.027 257.04 311.84 258.08C312.667 259.107 313.9 259.62 315.54 259.62C316.167 259.62 316.76 259.567 317.32 259.46C317.88 259.353 318.427 259.22 318.96 259.06V260.62C318.427 260.82 317.873 260.967 317.3 261.06C316.74 261.153 316.067 261.2 315.28 261.2C313.827 261.2 312.613 260.9 311.64 260.3C310.667 259.7 309.933 258.847 309.44 257.74C308.96 256.633 308.72 255.333 308.72 253.84C308.72 252.4 308.98 251.133 309.5 250.04C310.033 248.933 310.813 248.073 311.84 247.46C312.867 246.833 314.113 246.52 315.58 246.52C317.087 246.52 318.4 246.8 319.52 247.36L318.8 248.88C318.36 248.68 317.867 248.5 317.32 248.34C316.787 248.18 316.2 248.1 315.56 248.1ZM325.897 250.1C327.203 250.1 328.17 250.387 328.797 250.96C329.423 251.533 329.737 252.447 329.737 253.7V261H328.457L328.117 259.48H328.037C327.57 260.067 327.077 260.5 326.557 260.78C326.05 261.06 325.343 261.2 324.437 261.2C323.463 261.2 322.657 260.947 322.017 260.44C321.377 259.92 321.057 259.113 321.057 258.02C321.057 256.953 321.477 256.133 322.317 255.56C323.157 254.973 324.45 254.653 326.197 254.6L328.017 254.54V253.9C328.017 253.007 327.823 252.387 327.437 252.04C327.05 251.693 326.503 251.52 325.797 251.52C325.237 251.52 324.703 251.607 324.197 251.78C323.69 251.94 323.217 252.127 322.777 252.34L322.237 251.02C322.703 250.767 323.257 250.553 323.897 250.38C324.537 250.193 325.203 250.1 325.897 250.1ZM326.417 255.82C325.083 255.873 324.157 256.087 323.637 256.46C323.13 256.833 322.877 257.36 322.877 258.04C322.877 258.64 323.057 259.08 323.417 259.36C323.79 259.64 324.263 259.78 324.837 259.78C325.743 259.78 326.497 259.533 327.097 259.04C327.697 258.533 327.997 257.76 327.997 256.72V255.76L326.417 255.82ZM338.048 250.08C338.248 250.08 338.461 250.093 338.688 250.12C338.928 250.133 339.134 250.16 339.308 250.2L339.088 251.82C338.914 251.78 338.721 251.747 338.508 251.72C338.308 251.693 338.114 251.68 337.928 251.68C337.381 251.68 336.868 251.833 336.388 252.14C335.908 252.433 335.521 252.853 335.228 253.4C334.948 253.933 334.808 254.56 334.808 255.28V261H333.048V250.28H334.488L334.688 252.24H334.768C335.114 251.653 335.561 251.147 336.108 250.72C336.654 250.293 337.301 250.08 338.048 250.08ZM344.979 250.1C346.285 250.1 347.252 250.387 347.879 250.96C348.505 251.533 348.819 252.447 348.819 253.7V261H347.539L347.199 259.48H347.119C346.652 260.067 346.159 260.5 345.639 260.78C345.132 261.06 344.425 261.2 343.519 261.2C342.545 261.2 341.739 260.947 341.099 260.44C340.459 259.92 340.139 259.113 340.139 258.02C340.139 256.953 340.559 256.133 341.399 255.56C342.239 254.973 343.532 254.653 345.279 254.6L347.099 254.54V253.9C347.099 253.007 346.905 252.387 346.519 252.04C346.132 251.693 345.585 251.52 344.879 251.52C344.319 251.52 343.785 251.607 343.279 251.78C342.772 251.94 342.299 252.127 341.859 252.34L341.319 251.02C341.785 250.767 342.339 250.553 342.979 250.38C343.619 250.193 344.285 250.1 344.979 250.1ZM345.499 255.82C344.165 255.873 343.239 256.087 342.719 256.46C342.212 256.833 341.959 257.36 341.959 258.04C341.959 258.64 342.139 259.08 342.499 259.36C342.872 259.64 343.345 259.78 343.919 259.78C344.825 259.78 345.579 259.533 346.179 259.04C346.779 258.533 347.079 257.76 347.079 256.72V255.76L345.499 255.82ZM363.89 250.08C365.103 250.08 366.01 250.393 366.61 251.02C367.21 251.633 367.51 252.633 367.51 254.02V261H365.77V254.1C365.77 252.407 365.043 251.56 363.59 251.56C362.55 251.56 361.803 251.86 361.35 252.46C360.91 253.06 360.69 253.933 360.69 255.08V261H358.95V254.1C358.95 252.407 358.216 251.56 356.75 251.56C355.67 251.56 354.923 251.893 354.51 252.56C354.096 253.227 353.89 254.187 353.89 255.44V261H352.13V250.28H353.55L353.81 251.74H353.91C354.243 251.18 354.69 250.767 355.25 250.5C355.823 250.22 356.43 250.08 357.07 250.08C358.75 250.08 359.843 250.68 360.35 251.88H360.45C360.81 251.267 361.296 250.813 361.91 250.52C362.536 250.227 363.196 250.08 363.89 250.08ZM374.961 250.08C375.881 250.08 376.668 250.28 377.321 250.68C377.988 251.08 378.494 251.647 378.841 252.38C379.201 253.1 379.381 253.947 379.381 254.92V255.98H372.041C372.068 257.193 372.374 258.12 372.961 258.76C373.561 259.387 374.394 259.7 375.461 259.7C376.141 259.7 376.741 259.64 377.261 259.52C377.794 259.387 378.341 259.2 378.901 258.96V260.5C378.354 260.74 377.814 260.913 377.281 261.02C376.748 261.14 376.114 261.2 375.381 261.2C374.368 261.2 373.468 260.993 372.681 260.58C371.908 260.167 371.301 259.553 370.861 258.74C370.434 257.913 370.221 256.907 370.221 255.72C370.221 254.547 370.414 253.54 370.801 252.7C371.201 251.86 371.754 251.213 372.461 250.76C373.181 250.307 374.014 250.08 374.961 250.08ZM374.941 251.52C374.101 251.52 373.434 251.793 372.941 252.34C372.461 252.873 372.174 253.62 372.081 254.58H377.541C377.528 253.673 377.314 252.94 376.901 252.38C376.488 251.807 375.834 251.52 374.941 251.52ZM383.87 261H382.11V245.8H383.87V261ZM396.586 255.62C396.586 257.393 396.133 258.767 395.226 259.74C394.333 260.713 393.12 261.2 391.586 261.2C390.64 261.2 389.793 260.987 389.046 260.56C388.313 260.12 387.733 259.487 387.306 258.66C386.88 257.82 386.666 256.807 386.666 255.62C386.666 253.847 387.113 252.48 388.006 251.52C388.9 250.56 390.113 250.08 391.646 250.08C392.62 250.08 393.473 250.3 394.206 250.74C394.953 251.167 395.533 251.793 395.946 252.62C396.373 253.433 396.586 254.433 396.586 255.62ZM388.486 255.62C388.486 256.887 388.733 257.893 389.226 258.64C389.733 259.373 390.533 259.74 391.626 259.74C392.706 259.74 393.5 259.373 394.006 258.64C394.513 257.893 394.766 256.887 394.766 255.62C394.766 254.353 394.513 253.36 394.006 252.64C393.5 251.92 392.7 251.56 391.606 251.56C390.513 251.56 389.72 251.92 389.226 252.64C388.733 253.36 388.486 254.353 388.486 255.62ZM406.356 258.04C406.356 259.08 405.969 259.867 405.196 260.4C404.422 260.933 403.382 261.2 402.076 261.2C401.329 261.2 400.682 261.14 400.136 261.02C399.602 260.9 399.129 260.733 398.716 260.52V258.92C399.142 259.133 399.656 259.333 400.256 259.52C400.869 259.693 401.489 259.78 402.116 259.78C403.009 259.78 403.656 259.64 404.056 259.36C404.456 259.067 404.656 258.68 404.656 258.2C404.656 257.933 404.582 257.693 404.436 257.48C404.289 257.267 404.022 257.053 403.636 256.84C403.262 256.627 402.722 256.387 402.016 256.12C401.322 255.853 400.729 255.587 400.236 255.32C399.742 255.053 399.362 254.733 399.096 254.36C398.829 253.987 398.696 253.507 398.696 252.92C398.696 252.013 399.062 251.313 399.796 250.82C400.542 250.327 401.516 250.08 402.716 250.08C403.369 250.08 403.976 250.147 404.536 250.28C405.109 250.4 405.642 250.573 406.136 250.8L405.536 252.2C405.082 252.013 404.609 251.853 404.116 251.72C403.622 251.587 403.116 251.52 402.596 251.52C401.876 251.52 401.322 251.64 400.936 251.88C400.562 252.107 400.376 252.42 400.376 252.82C400.376 253.113 400.462 253.367 400.636 253.58C400.809 253.78 401.096 253.98 401.496 254.18C401.909 254.367 402.456 254.593 403.136 254.86C403.816 255.113 404.396 255.373 404.876 255.64C405.356 255.907 405.722 256.233 405.976 256.62C406.229 256.993 406.356 257.467 406.356 258.04Z" fill="#0A1921"/>
<rect x="461" y="170" width="167" height="167" rx="20" fill="#B1EB96"/>
<path d="M505.56 248.1C504.027 248.1 502.82 248.613 501.94 249.64C501.06 250.667 500.62 252.073 500.62 253.86C500.62 255.633 501.027 257.04 501.84 258.08C502.667 259.107 503.9 259.62 505.54 259.62C506.167 259.62 506.76 259.567 507.32 259.46C507.88 259.353 508.427 259.22 508.96 259.06V260.62C508.427 260.82 507.873 260.967 507.3 261.06C506.74 261.153 506.067 261.2 505.28 261.2C503.827 261.2 502.613 260.9 501.64 260.3C500.667 259.7 499.933 258.847 499.44 257.74C498.96 256.633 498.72 255.333 498.72 253.84C498.72 252.4 498.98 251.133 499.5 250.04C500.033 248.933 500.813 248.073 501.84 247.46C502.867 246.833 504.113 246.52 505.58 246.52C507.087 246.52 508.4 246.8 509.52 247.36L508.8 248.88C508.36 248.68 507.867 248.5 507.32 248.34C506.787 248.18 506.2 248.1 505.56 248.1ZM513.597 250.26C513.597 250.793 513.563 251.293 513.497 251.76H513.617C513.963 251.213 514.43 250.8 515.017 250.52C515.617 250.24 516.263 250.1 516.957 250.1C518.263 250.1 519.243 250.413 519.897 251.04C520.55 251.653 520.877 252.647 520.877 254.02V261H519.137V254.14C519.137 252.42 518.337 251.56 516.737 251.56C515.537 251.56 514.71 251.9 514.257 252.58C513.817 253.247 513.597 254.207 513.597 255.46V261H511.837V245.8H513.597V250.26ZM533.52 255.62C533.52 257.393 533.067 258.767 532.16 259.74C531.267 260.713 530.053 261.2 528.52 261.2C527.573 261.2 526.727 260.987 525.98 260.56C525.247 260.12 524.667 259.487 524.24 258.66C523.813 257.82 523.6 256.807 523.6 255.62C523.6 253.847 524.047 252.48 524.94 251.52C525.833 250.56 527.047 250.08 528.58 250.08C529.553 250.08 530.407 250.3 531.14 250.74C531.887 251.167 532.467 251.793 532.88 252.62C533.307 253.433 533.52 254.433 533.52 255.62ZM525.42 255.62C525.42 256.887 525.667 257.893 526.16 258.64C526.667 259.373 527.467 259.74 528.56 259.74C529.64 259.74 530.433 259.373 530.94 258.64C531.447 257.893 531.7 256.887 531.7 255.62C531.7 254.353 531.447 253.36 530.94 252.64C530.433 251.92 529.633 251.56 528.54 251.56C527.447 251.56 526.653 251.92 526.16 252.64C525.667 253.36 525.42 254.353 525.42 255.62ZM540.609 261.2C539.663 261.2 538.816 261.007 538.069 260.62C537.336 260.233 536.756 259.633 536.329 258.82C535.916 258.007 535.709 256.967 535.709 255.7C535.709 254.38 535.929 253.307 536.369 252.48C536.809 251.653 537.403 251.047 538.149 250.66C538.909 250.273 539.769 250.08 540.729 250.08C541.276 250.08 541.803 250.14 542.309 250.26C542.816 250.367 543.229 250.5 543.549 250.66L543.009 252.12C542.689 252 542.316 251.887 541.889 251.78C541.463 251.673 541.063 251.62 540.689 251.62C538.583 251.62 537.529 252.973 537.529 255.68C537.529 256.973 537.783 257.967 538.289 258.66C538.809 259.34 539.576 259.68 540.589 259.68C541.176 259.68 541.689 259.62 542.129 259.5C542.583 259.38 542.996 259.233 543.369 259.06V260.62C543.009 260.807 542.609 260.947 542.169 261.04C541.743 261.147 541.223 261.2 540.609 261.2ZM555.239 255.62C555.239 257.393 554.785 258.767 553.879 259.74C552.985 260.713 551.772 261.2 550.239 261.2C549.292 261.2 548.445 260.987 547.699 260.56C546.965 260.12 546.385 259.487 545.959 258.66C545.532 257.82 545.319 256.807 545.319 255.62C545.319 253.847 545.765 252.48 546.659 251.52C547.552 250.56 548.765 250.08 550.299 250.08C551.272 250.08 552.125 250.3 552.859 250.74C553.605 251.167 554.185 251.793 554.599 252.62C555.025 253.433 555.239 254.433 555.239 255.62ZM547.139 255.62C547.139 256.887 547.385 257.893 547.879 258.64C548.385 259.373 549.185 259.74 550.279 259.74C551.359 259.74 552.152 259.373 552.659 258.64C553.165 257.893 553.419 256.887 553.419 255.62C553.419 254.353 553.165 253.36 552.659 252.64C552.152 251.92 551.352 251.56 550.259 251.56C549.165 251.56 548.372 251.92 547.879 252.64C547.385 253.36 547.139 254.353 547.139 255.62ZM559.788 261H558.028V245.8H559.788V261ZM567.244 250.1C568.551 250.1 569.518 250.387 570.144 250.96C570.771 251.533 571.084 252.447 571.084 253.7V261H569.804L569.464 259.48H569.384C568.918 260.067 568.424 260.5 567.904 260.78C567.398 261.06 566.691 261.2 565.784 261.2C564.811 261.2 564.004 260.947 563.364 260.44C562.724 259.92 562.404 259.113 562.404 258.02C562.404 256.953 562.824 256.133 563.664 255.56C564.504 254.973 565.798 254.653 567.544 254.6L569.364 254.54V253.9C569.364 253.007 569.171 252.387 568.784 252.04C568.398 251.693 567.851 251.52 567.144 251.52C566.584 251.52 566.051 251.607 565.544 251.78C565.038 251.94 564.564 252.127 564.124 252.34L563.584 251.02C564.051 250.767 564.604 250.553 565.244 250.38C565.884 250.193 566.551 250.1 567.244 250.1ZM567.764 255.82C566.431 255.873 565.504 256.087 564.984 256.46C564.478 256.833 564.224 257.36 564.224 258.04C564.224 258.64 564.404 259.08 564.764 259.36C565.138 259.64 565.611 259.78 566.184 259.78C567.091 259.78 567.844 259.533 568.444 259.04C569.044 258.533 569.344 257.76 569.344 256.72V255.76L567.764 255.82ZM577.975 259.76C578.242 259.76 578.515 259.74 578.795 259.7C579.075 259.647 579.302 259.593 579.475 259.54V260.88C579.289 260.973 579.022 261.047 578.675 261.1C578.329 261.167 577.995 261.2 577.675 261.2C577.115 261.2 576.595 261.107 576.115 260.92C575.649 260.72 575.269 260.38 574.975 259.9C574.682 259.42 574.535 258.747 574.535 257.88V251.64H573.015V250.8L574.555 250.1L575.255 247.82H576.295V250.28H579.395V251.64H576.295V257.84C576.295 258.493 576.449 258.98 576.755 259.3C577.075 259.607 577.482 259.76 577.975 259.76ZM585.762 250.08C586.682 250.08 587.469 250.28 588.122 250.68C588.789 251.08 589.295 251.647 589.642 252.38C590.002 253.1 590.182 253.947 590.182 254.92V255.98H582.842C582.869 257.193 583.175 258.12 583.762 258.76C584.362 259.387 585.195 259.7 586.262 259.7C586.942 259.7 587.542 259.64 588.062 259.52C588.595 259.387 589.142 259.2 589.702 258.96V260.5C589.155 260.74 588.615 260.913 588.082 261.02C587.549 261.14 586.915 261.2 586.182 261.2C585.169 261.2 584.269 260.993 583.482 260.58C582.709 260.167 582.102 259.553 581.662 258.74C581.235 257.913 581.022 256.907 581.022 255.72C581.022 254.547 581.215 253.54 581.602 252.7C582.002 251.86 582.555 251.213 583.262 250.76C583.982 250.307 584.815 250.08 585.762 250.08ZM585.742 251.52C584.902 251.52 584.235 251.793 583.742 252.34C583.262 252.873 582.975 253.62 582.882 254.58H588.342C588.329 253.673 588.115 252.94 587.702 252.38C587.289 251.807 586.635 251.52 585.742 251.52Z" fill="#0A1921"/>
<path d="M75.14 113.46H80.08V120.46C79.3067 120.713 78.5267 120.9 77.74 121.02C76.9533 121.14 76.06 121.2 75.06 121.2C73.58 121.2 72.3333 120.907 71.32 120.32C70.3067 119.72 69.5333 118.873 69 117.78C68.48 116.673 68.22 115.367 68.22 113.86C68.22 112.367 68.5133 111.073 69.1 109.98C69.6867 108.887 70.5267 108.04 71.62 107.44C72.7267 106.827 74.06 106.52 75.62 106.52C76.42 106.52 77.1733 106.593 77.88 106.74C78.6 106.887 79.2667 107.093 79.88 107.36L79.2 108.92C78.6933 108.693 78.12 108.5 77.48 108.34C76.8533 108.18 76.2 108.1 75.52 108.1C73.8133 108.1 72.48 108.613 71.52 109.64C70.5733 110.667 70.1 112.073 70.1 113.86C70.1 114.993 70.28 116 70.64 116.88C71.0133 117.747 71.5933 118.427 72.38 118.92C73.1667 119.4 74.2 119.64 75.48 119.64C76.1067 119.64 76.64 119.607 77.08 119.54C77.52 119.473 77.92 119.393 78.28 119.3V115.06H75.14V113.46ZM92.5708 115.62C92.5708 117.393 92.1174 118.767 91.2108 119.74C90.3174 120.713 89.1041 121.2 87.5708 121.2C86.6241 121.2 85.7774 120.987 85.0308 120.56C84.2974 120.12 83.7174 119.487 83.2908 118.66C82.8641 117.82 82.6508 116.807 82.6508 115.62C82.6508 113.847 83.0974 112.48 83.9908 111.52C84.8841 110.56 86.0974 110.08 87.6308 110.08C88.6041 110.08 89.4574 110.3 90.1908 110.74C90.9374 111.167 91.5174 111.793 91.9308 112.62C92.3574 113.433 92.5708 114.433 92.5708 115.62ZM84.4708 115.62C84.4708 116.887 84.7174 117.893 85.2108 118.64C85.7174 119.373 86.5174 119.74 87.6108 119.74C88.6908 119.74 89.4841 119.373 89.9908 118.64C90.4974 117.893 90.7508 116.887 90.7508 115.62C90.7508 114.353 90.4974 113.36 89.9908 112.64C89.4841 111.92 88.6841 111.56 87.5908 111.56C86.4974 111.56 85.7041 111.92 85.2108 112.64C84.7174 113.36 84.4708 114.353 84.4708 115.62ZM97.1202 121H95.3602V105.8H97.1202V121ZM109.836 115.62C109.836 117.393 109.383 118.767 108.476 119.74C107.583 120.713 106.37 121.2 104.836 121.2C103.89 121.2 103.043 120.987 102.296 120.56C101.563 120.12 100.983 119.487 100.556 118.66C100.13 117.82 99.9164 116.807 99.9164 115.62C99.9164 113.847 100.363 112.48 101.256 111.52C102.15 110.56 103.363 110.08 104.896 110.08C105.87 110.08 106.723 110.3 107.456 110.74C108.203 111.167 108.783 111.793 109.196 112.62C109.623 113.433 109.836 114.433 109.836 115.62ZM101.736 115.62C101.736 116.887 101.983 117.893 102.476 118.64C102.983 119.373 103.783 119.74 104.876 119.74C105.956 119.74 106.75 119.373 107.256 118.64C107.763 117.893 108.016 116.887 108.016 115.62C108.016 114.353 107.763 113.36 107.256 112.64C106.75 111.92 105.95 111.56 104.856 111.56C103.763 111.56 102.97 111.92 102.476 112.64C101.983 113.36 101.736 114.353 101.736 115.62ZM119.606 118.04C119.606 119.08 119.219 119.867 118.446 120.4C117.672 120.933 116.632 121.2 115.326 121.2C114.579 121.2 113.932 121.14 113.386 121.02C112.852 120.9 112.379 120.733 111.966 120.52V118.92C112.392 119.133 112.906 119.333 113.506 119.52C114.119 119.693 114.739 119.78 115.366 119.78C116.259 119.78 116.906 119.64 117.306 119.36C117.706 119.067 117.906 118.68 117.906 118.2C117.906 117.933 117.832 117.693 117.686 117.48C117.539 117.267 117.272 117.053 116.886 116.84C116.512 116.627 115.972 116.387 115.266 116.12C114.572 115.853 113.979 115.587 113.486 115.32C112.992 115.053 112.612 114.733 112.346 114.36C112.079 113.987 111.946 113.507 111.946 112.92C111.946 112.013 112.312 111.313 113.046 110.82C113.792 110.327 114.766 110.08 115.966 110.08C116.619 110.08 117.226 110.147 117.786 110.28C118.359 110.4 118.892 110.573 119.386 110.8L118.786 112.2C118.332 112.013 117.859 111.853 117.366 111.72C116.872 111.587 116.366 111.52 115.846 111.52C115.126 111.52 114.572 111.64 114.186 111.88C113.812 112.107 113.626 112.42 113.626 112.82C113.626 113.113 113.712 113.367 113.886 113.58C114.059 113.78 114.346 113.98 114.746 114.18C115.159 114.367 115.706 114.593 116.386 114.86C117.066 115.113 117.646 115.373 118.126 115.64C118.606 115.907 118.972 116.233 119.226 116.62C119.479 116.993 119.606 117.467 119.606 118.04ZM123.096 106.26C123.363 106.26 123.596 106.353 123.796 106.54C124.009 106.713 124.116 106.993 124.116 107.38C124.116 107.753 124.009 108.033 123.796 108.22C123.596 108.407 123.363 108.5 123.096 108.5C122.803 108.5 122.556 108.407 122.356 108.22C122.156 108.033 122.056 107.753 122.056 107.38C122.056 106.993 122.156 106.713 122.356 106.54C122.556 106.353 122.803 106.26 123.096 106.26ZM123.956 110.28V121H122.196V110.28H123.956ZM132.512 110.08C133.792 110.08 134.759 110.393 135.412 111.02C136.066 111.633 136.392 112.633 136.392 114.02V121H134.652V114.14C134.652 112.42 133.852 111.56 132.252 111.56C131.066 111.56 130.246 111.893 129.792 112.56C129.339 113.227 129.112 114.187 129.112 115.44V121H127.352V110.28H128.772L129.032 111.74H129.132C129.479 111.18 129.959 110.767 130.572 110.5C131.186 110.22 131.832 110.08 132.512 110.08ZM143.776 110.1C145.082 110.1 146.049 110.387 146.676 110.96C147.302 111.533 147.616 112.447 147.616 113.7V121H146.336L145.996 119.48H145.916C145.449 120.067 144.956 120.5 144.436 120.78C143.929 121.06 143.222 121.2 142.316 121.2C141.342 121.2 140.536 120.947 139.896 120.44C139.256 119.92 138.936 119.113 138.936 118.02C138.936 116.953 139.356 116.133 140.196 115.56C141.036 114.973 142.329 114.653 144.076 114.6L145.896 114.54V113.9C145.896 113.007 145.702 112.387 145.316 112.04C144.929 111.693 144.382 111.52 143.676 111.52C143.116 111.52 142.582 111.607 142.076 111.78C141.569 111.94 141.096 112.127 140.656 112.34L140.116 111.02C140.582 110.767 141.136 110.553 141.776 110.38C142.416 110.193 143.082 110.1 143.776 110.1ZM144.296 115.82C142.962 115.873 142.036 116.087 141.516 116.46C141.009 116.833 140.756 117.36 140.756 118.04C140.756 118.64 140.936 119.08 141.296 119.36C141.669 119.64 142.142 119.78 142.716 119.78C143.622 119.78 144.376 119.533 144.976 119.04C145.576 118.533 145.876 117.76 145.876 116.72V115.76L144.296 115.82ZM157.907 118.04C157.907 119.08 157.52 119.867 156.747 120.4C155.973 120.933 154.933 121.2 153.627 121.2C152.88 121.2 152.233 121.14 151.687 121.02C151.153 120.9 150.68 120.733 150.267 120.52V118.92C150.693 119.133 151.207 119.333 151.807 119.52C152.42 119.693 153.04 119.78 153.667 119.78C154.56 119.78 155.207 119.64 155.607 119.36C156.007 119.067 156.207 118.68 156.207 118.2C156.207 117.933 156.133 117.693 155.987 117.48C155.84 117.267 155.573 117.053 155.187 116.84C154.813 116.627 154.273 116.387 153.567 116.12C152.873 115.853 152.28 115.587 151.787 115.32C151.293 115.053 150.913 114.733 150.647 114.36C150.38 113.987 150.247 113.507 150.247 112.92C150.247 112.013 150.613 111.313 151.347 110.82C152.093 110.327 153.067 110.08 154.267 110.08C154.92 110.08 155.527 110.147 156.087 110.28C156.66 110.4 157.193 110.573 157.687 110.8L157.087 112.2C156.633 112.013 156.16 111.853 155.667 111.72C155.173 111.587 154.667 111.52 154.147 111.52C153.427 111.52 152.873 111.64 152.487 111.88C152.113 112.107 151.927 112.42 151.927 112.82C151.927 113.113 152.013 113.367 152.187 113.58C152.36 113.78 152.647 113.98 153.047 114.18C153.46 114.367 154.007 114.593 154.687 114.86C155.367 115.113 155.947 115.373 156.427 115.64C156.907 115.907 157.273 116.233 157.527 116.62C157.78 116.993 157.907 117.467 157.907 118.04Z" fill="#0A1921"/>
<path d="M70.06 724.1C68.5267 724.1 67.32 724.613 66.44 725.64C65.56 726.667 65.12 728.073 65.12 729.86C65.12 731.633 65.5267 733.04 66.34 734.08C67.1667 735.107 68.4 735.62 70.04 735.62C70.6667 735.62 71.26 735.567 71.82 735.46C72.38 735.353 72.9267 735.22 73.46 735.06V736.62C72.9267 736.82 72.3733 736.967 71.8 737.06C71.24 737.153 70.5667 737.2 69.78 737.2C68.3267 737.2 67.1133 736.9 66.14 736.3C65.1667 735.7 64.4333 734.847 63.94 733.74C63.46 732.633 63.22 731.333 63.22 729.84C63.22 728.4 63.48 727.133 64 726.04C64.5333 724.933 65.3133 724.073 66.34 723.46C67.3667 722.833 68.6133 722.52 70.08 722.52C71.5867 722.52 72.9 722.8 74.02 723.36L73.3 724.88C72.86 724.68 72.3667 724.5 71.82 724.34C71.2867 724.18 70.7 724.1 70.06 724.1ZM78.0967 726.26C78.0967 726.793 78.0634 727.293 77.9967 727.76H78.1167C78.4634 727.213 78.9301 726.8 79.5167 726.52C80.1167 726.24 80.7634 726.1 81.4567 726.1C82.7634 726.1 83.7434 726.413 84.3967 727.04C85.0501 727.653 85.3767 728.647 85.3767 730.02V737H83.6367V730.14C83.6367 728.42 82.8367 727.56 81.2367 727.56C80.0367 727.56 79.2101 727.9 78.7567 728.58C78.3167 729.247 78.0967 730.207 78.0967 731.46V737H76.3367V721.8H78.0967V726.26ZM89.6 722.26C89.8667 722.26 90.1 722.353 90.3 722.54C90.5133 722.713 90.62 722.993 90.62 723.38C90.62 723.753 90.5133 724.033 90.3 724.22C90.1 724.407 89.8667 724.5 89.6 724.5C89.3067 724.5 89.06 724.407 88.86 724.22C88.66 724.033 88.56 723.753 88.56 723.38C88.56 722.993 88.66 722.713 88.86 722.54C89.06 722.353 89.3067 722.26 89.6 722.26ZM90.46 726.28V737H88.7V726.28H90.46ZM98.9563 726.08C100.276 726.08 101.336 726.54 102.136 727.46C102.95 728.38 103.356 729.767 103.356 731.62C103.356 733.447 102.95 734.833 102.136 735.78C101.336 736.727 100.27 737.2 98.9363 737.2C98.1096 737.2 97.4229 737.047 96.8763 736.74C96.3429 736.42 95.9229 736.053 95.6163 735.64H95.4963C95.5229 735.867 95.5496 736.153 95.5763 736.5C95.6029 736.847 95.6163 737.147 95.6163 737.4V741.8H93.8563V726.28H95.2963L95.5363 727.74H95.6163C95.9363 727.273 96.3563 726.88 96.8763 726.56C97.3963 726.24 98.0896 726.08 98.9563 726.08ZM98.6363 727.56C97.5429 727.56 96.7696 727.867 96.3163 728.48C95.8763 729.093 95.6429 730.027 95.6163 731.28V731.62C95.6163 732.94 95.8296 733.96 96.2563 734.68C96.6963 735.387 97.5029 735.74 98.6763 735.74C99.3296 735.74 99.8629 735.56 100.276 735.2C100.703 734.84 101.016 734.353 101.216 733.74C101.43 733.113 101.536 732.4 101.536 731.6C101.536 730.373 101.296 729.393 100.816 728.66C100.35 727.927 99.6229 727.56 98.6363 727.56ZM113.141 734.04C113.141 735.08 112.754 735.867 111.981 736.4C111.208 736.933 110.168 737.2 108.861 737.2C108.114 737.2 107.468 737.14 106.921 737.02C106.388 736.9 105.914 736.733 105.501 736.52V734.92C105.928 735.133 106.441 735.333 107.041 735.52C107.654 735.693 108.274 735.78 108.901 735.78C109.794 735.78 110.441 735.64 110.841 735.36C111.241 735.067 111.441 734.68 111.441 734.2C111.441 733.933 111.368 733.693 111.221 733.48C111.074 733.267 110.808 733.053 110.421 732.84C110.048 732.627 109.508 732.387 108.801 732.12C108.108 731.853 107.514 731.587 107.021 731.32C106.528 731.053 106.148 730.733 105.881 730.36C105.614 729.987 105.481 729.507 105.481 728.92C105.481 728.013 105.848 727.313 106.581 726.82C107.328 726.327 108.301 726.08 109.501 726.08C110.154 726.08 110.761 726.147 111.321 726.28C111.894 726.4 112.428 726.573 112.921 726.8L112.321 728.2C111.868 728.013 111.394 727.853 110.901 727.72C110.408 727.587 109.901 727.52 109.381 727.52C108.661 727.52 108.108 727.64 107.721 727.88C107.348 728.107 107.161 728.42 107.161 728.82C107.161 729.113 107.248 729.367 107.421 729.58C107.594 729.78 107.881 729.98 108.281 730.18C108.694 730.367 109.241 730.593 109.921 730.86C110.601 731.113 111.181 731.373 111.661 731.64C112.141 731.907 112.508 732.233 112.761 732.62C113.014 732.993 113.141 733.467 113.141 734.04Z" fill="#0A1921"/>
<path d="M306.06 407.1C304.527 407.1 303.32 407.613 302.44 408.64C301.56 409.667 301.12 411.073 301.12 412.86C301.12 414.633 301.527 416.04 302.34 417.08C303.167 418.107 304.4 418.62 306.04 418.62C306.667 418.62 307.26 418.567 307.82 418.46C308.38 418.353 308.927 418.22 309.46 418.06V419.62C308.927 419.82 308.373 419.967 307.8 420.06C307.24 420.153 306.567 420.2 305.78 420.2C304.327 420.2 303.113 419.9 302.14 419.3C301.167 418.7 300.433 417.847 299.94 416.74C299.46 415.633 299.22 414.333 299.22 412.84C299.22 411.4 299.48 410.133 300 409.04C300.533 407.933 301.313 407.073 302.34 406.46C303.367 405.833 304.613 405.52 306.08 405.52C307.587 405.52 308.9 405.8 310.02 406.36L309.3 407.88C308.86 407.68 308.367 407.5 307.82 407.34C307.287 407.18 306.7 407.1 306.06 407.1ZM321.657 414.62C321.657 416.393 321.203 417.767 320.297 418.74C319.403 419.713 318.19 420.2 316.657 420.2C315.71 420.2 314.863 419.987 314.117 419.56C313.383 419.12 312.803 418.487 312.377 417.66C311.95 416.82 311.737 415.807 311.737 414.62C311.737 412.847 312.183 411.48 313.077 410.52C313.97 409.56 315.183 409.08 316.717 409.08C317.69 409.08 318.543 409.3 319.277 409.74C320.023 410.167 320.603 410.793 321.017 411.62C321.443 412.433 321.657 413.433 321.657 414.62ZM313.557 414.62C313.557 415.887 313.803 416.893 314.297 417.64C314.803 418.373 315.603 418.74 316.697 418.74C317.777 418.74 318.57 418.373 319.077 417.64C319.583 416.893 319.837 415.887 319.837 414.62C319.837 413.353 319.583 412.36 319.077 411.64C318.57 410.92 317.77 410.56 316.677 410.56C315.583 410.56 314.79 410.92 314.297 411.64C313.803 412.36 313.557 413.353 313.557 414.62ZM329.606 409.08C330.886 409.08 331.853 409.393 332.506 410.02C333.159 410.633 333.486 411.633 333.486 413.02V420H331.746V413.14C331.746 411.42 330.946 410.56 329.346 410.56C328.159 410.56 327.339 410.893 326.886 411.56C326.433 412.227 326.206 413.187 326.206 414.44V420H324.446V409.28H325.866L326.126 410.74H326.226C326.573 410.18 327.053 409.767 327.666 409.5C328.279 409.22 328.926 409.08 329.606 409.08ZM340.609 409.08C341.316 409.08 341.949 409.213 342.509 409.48C343.083 409.747 343.569 410.153 343.969 410.7H344.069L344.309 409.28H345.709V420.18C345.709 421.713 345.316 422.867 344.529 423.64C343.756 424.413 342.549 424.8 340.909 424.8C339.336 424.8 338.049 424.573 337.049 424.12V422.5C338.103 423.06 339.423 423.34 341.009 423.34C341.929 423.34 342.649 423.067 343.169 422.52C343.703 421.987 343.969 421.253 343.969 420.32V419.9C343.969 419.74 343.976 419.513 343.989 419.22C344.003 418.913 344.016 418.7 344.029 418.58H343.949C343.229 419.66 342.123 420.2 340.629 420.2C339.243 420.2 338.156 419.713 337.369 418.74C336.596 417.767 336.209 416.407 336.209 414.66C336.209 412.953 336.596 411.6 337.369 410.6C338.156 409.587 339.236 409.08 340.609 409.08ZM340.849 410.56C339.956 410.56 339.263 410.92 338.769 411.64C338.276 412.347 338.029 413.36 338.029 414.68C338.029 416 338.269 417.013 338.749 417.72C339.243 418.413 339.956 418.76 340.889 418.76C341.969 418.76 342.756 418.473 343.249 417.9C343.743 417.313 343.989 416.373 343.989 415.08V414.66C343.989 413.193 343.736 412.147 343.229 411.52C342.723 410.88 341.929 410.56 340.849 410.56ZM353.254 409.08C354.174 409.08 354.961 409.28 355.614 409.68C356.281 410.08 356.787 410.647 357.134 411.38C357.494 412.1 357.674 412.947 357.674 413.92V414.98H350.334C350.361 416.193 350.667 417.12 351.254 417.76C351.854 418.387 352.687 418.7 353.754 418.7C354.434 418.7 355.034 418.64 355.554 418.52C356.087 418.387 356.634 418.2 357.194 417.96V419.5C356.647 419.74 356.107 419.913 355.574 420.02C355.041 420.14 354.407 420.2 353.674 420.2C352.661 420.2 351.761 419.993 350.974 419.58C350.201 419.167 349.594 418.553 349.154 417.74C348.727 416.913 348.514 415.907 348.514 414.72C348.514 413.547 348.707 412.54 349.094 411.7C349.494 410.86 350.047 410.213 350.754 409.76C351.474 409.307 352.307 409.08 353.254 409.08ZM353.234 410.52C352.394 410.52 351.727 410.793 351.234 411.34C350.754 411.873 350.467 412.62 350.374 413.58H355.834C355.821 412.673 355.607 411.94 355.194 411.38C354.781 410.807 354.127 410.52 353.234 410.52ZM362.163 420H360.403V404.8H362.163V420ZM369.619 409.1C370.926 409.1 371.893 409.387 372.519 409.96C373.146 410.533 373.459 411.447 373.459 412.7V420H372.179L371.839 418.48H371.759C371.293 419.067 370.799 419.5 370.279 419.78C369.773 420.06 369.066 420.2 368.159 420.2C367.186 420.2 366.379 419.947 365.739 419.44C365.099 418.92 364.779 418.113 364.779 417.02C364.779 415.953 365.199 415.133 366.039 414.56C366.879 413.973 368.173 413.653 369.919 413.6L371.739 413.54V412.9C371.739 412.007 371.546 411.387 371.159 411.04C370.773 410.693 370.226 410.52 369.519 410.52C368.959 410.52 368.426 410.607 367.919 410.78C367.413 410.94 366.939 411.127 366.499 411.34L365.959 410.02C366.426 409.767 366.979 409.553 367.619 409.38C368.259 409.193 368.926 409.1 369.619 409.1ZM370.139 414.82C368.806 414.873 367.879 415.087 367.359 415.46C366.853 415.833 366.599 416.36 366.599 417.04C366.599 417.64 366.779 418.08 367.139 418.36C367.513 418.64 367.986 418.78 368.559 418.78C369.466 418.78 370.219 418.533 370.819 418.04C371.419 417.533 371.719 416.76 371.719 415.72V414.76L370.139 414.82ZM380.57 420.2C379.237 420.2 378.17 419.74 377.37 418.82C376.57 417.887 376.17 416.5 376.17 414.66C376.17 412.82 376.57 411.433 377.37 410.5C378.184 409.553 379.257 409.08 380.59 409.08C381.417 409.08 382.09 409.233 382.61 409.54C383.144 409.847 383.577 410.22 383.91 410.66H384.03C384.017 410.487 383.99 410.233 383.95 409.9C383.924 409.553 383.91 409.28 383.91 409.08V404.8H385.67V420H384.25L383.99 418.56H383.91C383.59 419.013 383.164 419.4 382.63 419.72C382.097 420.04 381.41 420.2 380.57 420.2ZM380.85 418.74C381.984 418.74 382.777 418.433 383.23 417.82C383.697 417.193 383.93 416.253 383.93 415V414.68C383.93 413.347 383.71 412.327 383.27 411.62C382.83 410.9 382.017 410.54 380.83 410.54C379.884 410.54 379.17 410.92 378.69 411.68C378.224 412.427 377.99 413.433 377.99 414.7C377.99 415.98 378.224 416.973 378.69 417.68C379.17 418.387 379.89 418.74 380.85 418.74ZM398.395 414.62C398.395 416.393 397.942 417.767 397.035 418.74C396.142 419.713 394.928 420.2 393.395 420.2C392.448 420.2 391.602 419.987 390.855 419.56C390.122 419.12 389.542 418.487 389.115 417.66C388.688 416.82 388.475 415.807 388.475 414.62C388.475 412.847 388.922 411.48 389.815 410.52C390.708 409.56 391.922 409.08 393.455 409.08C394.428 409.08 395.282 409.3 396.015 409.74C396.762 410.167 397.342 410.793 397.755 411.62C398.182 412.433 398.395 413.433 398.395 414.62ZM390.295 414.62C390.295 415.887 390.542 416.893 391.035 417.64C391.542 418.373 392.342 418.74 393.435 418.74C394.515 418.74 395.308 418.373 395.815 417.64C396.322 416.893 396.575 415.887 396.575 414.62C396.575 413.353 396.322 412.36 395.815 411.64C395.308 410.92 394.508 410.56 393.415 410.56C392.322 410.56 391.528 410.92 391.035 411.64C390.542 412.36 390.295 413.353 390.295 414.62ZM408.164 417.04C408.164 418.08 407.778 418.867 407.004 419.4C406.231 419.933 405.191 420.2 403.884 420.2C403.138 420.2 402.491 420.14 401.944 420.02C401.411 419.9 400.938 419.733 400.524 419.52V417.92C400.951 418.133 401.464 418.333 402.064 418.52C402.678 418.693 403.298 418.78 403.924 418.78C404.818 418.78 405.464 418.64 405.864 418.36C406.264 418.067 406.464 417.68 406.464 417.2C406.464 416.933 406.391 416.693 406.244 416.48C406.098 416.267 405.831 416.053 405.444 415.84C405.071 415.627 404.531 415.387 403.824 415.12C403.131 414.853 402.538 414.587 402.044 414.32C401.551 414.053 401.171 413.733 400.904 413.36C400.638 412.987 400.504 412.507 400.504 411.92C400.504 411.013 400.871 410.313 401.604 409.82C402.351 409.327 403.324 409.08 404.524 409.08C405.178 409.08 405.784 409.147 406.344 409.28C406.918 409.4 407.451 409.573 407.944 409.8L407.344 411.2C406.891 411.013 406.418 410.853 405.924 410.72C405.431 410.587 404.924 410.52 404.404 410.52C403.684 410.52 403.131 410.64 402.744 410.88C402.371 411.107 402.184 411.42 402.184 411.82C402.184 412.113 402.271 412.367 402.444 412.58C402.618 412.78 402.904 412.98 403.304 413.18C403.718 413.367 404.264 413.593 404.944 413.86C405.624 414.113 406.204 414.373 406.684 414.64C407.164 414.907 407.531 415.233 407.784 415.62C408.038 415.993 408.164 416.467 408.164 417.04Z" fill="#0A1921"/>
<rect x="500" y="487" width="167" height="167" rx="20" fill="#B1EB96"/>
<path d="M561.72 563.72C563.587 563.72 564.947 564.087 565.8 564.82C566.653 565.553 567.08 566.587 567.08 567.92C567.08 568.707 566.9 569.447 566.54 570.14C566.193 570.82 565.6 571.373 564.76 571.8C563.933 572.227 562.807 572.44 561.38 572.44H559.74V578H557.94V563.72H561.72ZM561.56 565.26H559.74V570.9H561.18C562.54 570.9 563.553 570.68 564.22 570.24C564.887 569.8 565.22 569.053 565.22 568C565.22 567.08 564.927 566.393 564.34 565.94C563.753 565.487 562.827 565.26 561.56 565.26ZM578.769 567.28V578H577.329L577.069 576.58H576.989C576.643 577.14 576.163 577.553 575.549 577.82C574.936 578.073 574.283 578.2 573.589 578.2C572.296 578.2 571.323 577.893 570.669 577.28C570.016 576.653 569.689 575.66 569.689 574.3V567.28H571.469V574.18C571.469 575.887 572.263 576.74 573.849 576.74C575.036 576.74 575.856 576.407 576.309 575.74C576.776 575.073 577.009 574.113 577.009 572.86V567.28H578.769ZM585.973 578.2C584.639 578.2 583.573 577.74 582.773 576.82C581.973 575.887 581.573 574.5 581.573 572.66C581.573 570.82 581.973 569.433 582.773 568.5C583.586 567.553 584.659 567.08 585.993 567.08C586.819 567.08 587.493 567.233 588.013 567.54C588.546 567.847 588.979 568.22 589.313 568.66H589.433C589.419 568.487 589.393 568.233 589.353 567.9C589.326 567.553 589.313 567.28 589.313 567.08V562.8H591.073V578H589.653L589.393 576.56H589.313C588.993 577.013 588.566 577.4 588.033 577.72C587.499 578.04 586.813 578.2 585.973 578.2ZM586.253 576.74C587.386 576.74 588.179 576.433 588.633 575.82C589.099 575.193 589.333 574.253 589.333 573V572.68C589.333 571.347 589.113 570.327 588.673 569.62C588.233 568.9 587.419 568.54 586.233 568.54C585.286 568.54 584.573 568.92 584.093 569.68C583.626 570.427 583.393 571.433 583.393 572.7C583.393 573.98 583.626 574.973 584.093 575.68C584.573 576.387 585.293 576.74 586.253 576.74ZM596.237 578H594.477V567.28H596.237V578ZM598.177 562.88C598.017 563.12 597.771 563.433 597.437 563.82C597.104 564.193 596.744 564.573 596.357 564.96C595.984 565.333 595.637 565.64 595.317 565.88H594.157V565.64C594.357 565.387 594.571 565.087 594.797 564.74C595.037 564.393 595.271 564.04 595.497 563.68C595.724 563.307 595.911 562.973 596.057 562.68H598.177V562.88ZM604.794 567.08C606.074 567.08 607.04 567.393 607.694 568.02C608.347 568.633 608.674 569.633 608.674 571.02V578H606.934V571.14C606.934 569.42 606.134 568.56 604.534 568.56C603.347 568.56 602.527 568.893 602.074 569.56C601.62 570.227 601.394 571.187 601.394 572.44V578H599.634V567.28H601.054L601.314 568.74H601.414C601.76 568.18 602.24 567.767 602.854 567.5C603.467 567.22 604.114 567.08 604.794 567.08Z" fill="#0A1921"/>
</svg>
