<svg width="715" height="757" viewBox="0 0 715 757" fill="none" xmlns="http://www.w3.org/2000/svg">
<rect width="715" height="757" fill="#EDF1F1"/>
<rect x="60" y="439" width="229" height="239" fill="#DDD8FD" stroke="#4555E7" stroke-width="4" stroke-dasharray="18 18"/>
<rect x="310" y="475" width="167" height="167" rx="20" fill="#97B9FD"/>
<path d="M336.24 566H334.44V551.72H342.42V553.3H336.24V558.36H342.04V559.94H336.24V566ZM349.571 555.08C349.771 555.08 349.984 555.093 350.211 555.12C350.451 555.133 350.658 555.16 350.831 555.2L350.611 556.82C350.438 556.78 350.244 556.747 350.031 556.72C349.831 556.693 349.638 556.68 349.451 556.68C348.904 556.68 348.391 556.833 347.911 557.14C347.431 557.433 347.044 557.853 346.751 558.4C346.471 558.933 346.331 559.56 346.331 560.28V566H344.571V555.28H346.011L346.211 557.24H346.291C346.638 556.653 347.084 556.147 347.631 555.72C348.178 555.293 348.824 555.08 349.571 555.08ZM361.793 555.28V566H360.353L360.093 564.58H360.013C359.666 565.14 359.186 565.553 358.573 565.82C357.959 566.073 357.306 566.2 356.613 566.2C355.319 566.2 354.346 565.893 353.693 565.28C353.039 564.653 352.713 563.66 352.713 562.3V555.28H354.493V562.18C354.493 563.887 355.286 564.74 356.873 564.74C358.059 564.74 358.879 564.407 359.333 563.74C359.799 563.073 360.033 562.113 360.033 560.86V555.28H361.793ZM368.776 564.76C369.043 564.76 369.316 564.74 369.596 564.7C369.876 564.647 370.103 564.593 370.276 564.54V565.88C370.089 565.973 369.823 566.047 369.476 566.1C369.129 566.167 368.796 566.2 368.476 566.2C367.916 566.2 367.396 566.107 366.916 565.92C366.449 565.72 366.069 565.38 365.776 564.9C365.483 564.42 365.336 563.747 365.336 562.88V556.64H363.816V555.8L365.356 555.1L366.056 552.82H367.096V555.28H370.196V556.64H367.096V562.84C367.096 563.493 367.249 563.98 367.556 564.3C367.876 564.607 368.283 564.76 368.776 564.76ZM381.743 560.62C381.743 562.393 381.289 563.767 380.383 564.74C379.489 565.713 378.276 566.2 376.743 566.2C375.796 566.2 374.949 565.987 374.203 565.56C373.469 565.12 372.889 564.487 372.463 563.66C372.036 562.82 371.823 561.807 371.823 560.62C371.823 558.847 372.269 557.48 373.163 556.52C374.056 555.56 375.269 555.08 376.803 555.08C377.776 555.08 378.629 555.3 379.363 555.74C380.109 556.167 380.689 556.793 381.103 557.62C381.529 558.433 381.743 559.433 381.743 560.62ZM373.643 560.62C373.643 561.887 373.889 562.893 374.383 563.64C374.889 564.373 375.689 564.74 376.783 564.74C377.863 564.74 378.656 564.373 379.163 563.64C379.669 562.893 379.923 561.887 379.923 560.62C379.923 559.353 379.669 558.36 379.163 557.64C378.656 556.92 377.856 556.56 376.763 556.56C375.669 556.56 374.876 556.92 374.383 557.64C373.889 558.36 373.643 559.353 373.643 560.62ZM391.512 563.04C391.512 564.08 391.125 564.867 390.352 565.4C389.579 565.933 388.539 566.2 387.232 566.2C386.485 566.2 385.839 566.14 385.292 566.02C384.759 565.9 384.285 565.733 383.872 565.52V563.92C384.299 564.133 384.812 564.333 385.412 564.52C386.025 564.693 386.645 564.78 387.272 564.78C388.165 564.78 388.812 564.64 389.212 564.36C389.612 564.067 389.812 563.68 389.812 563.2C389.812 562.933 389.739 562.693 389.592 562.48C389.445 562.267 389.179 562.053 388.792 561.84C388.419 561.627 387.879 561.387 387.172 561.12C386.479 560.853 385.885 560.587 385.392 560.32C384.899 560.053 384.519 559.733 384.252 559.36C383.985 558.987 383.852 558.507 383.852 557.92C383.852 557.013 384.219 556.313 384.952 555.82C385.699 555.327 386.672 555.08 387.872 555.08C388.525 555.08 389.132 555.147 389.692 555.28C390.265 555.4 390.799 555.573 391.292 555.8L390.692 557.2C390.239 557.013 389.765 556.853 389.272 556.72C388.779 556.587 388.272 556.52 387.752 556.52C387.032 556.52 386.479 556.64 386.092 556.88C385.719 557.107 385.532 557.42 385.532 557.82C385.532 558.113 385.619 558.367 385.792 558.58C385.965 558.78 386.252 558.98 386.652 559.18C387.065 559.367 387.612 559.593 388.292 559.86C388.972 560.113 389.552 560.373 390.032 560.64C390.512 560.907 390.879 561.233 391.132 561.62C391.385 561.993 391.512 562.467 391.512 563.04ZM406.278 563.04C406.278 564.08 405.891 564.867 405.118 565.4C404.344 565.933 403.304 566.2 401.998 566.2C401.251 566.2 400.604 566.14 400.058 566.02C399.524 565.9 399.051 565.733 398.638 565.52V563.92C399.064 564.133 399.578 564.333 400.178 564.52C400.791 564.693 401.411 564.78 402.038 564.78C402.931 564.78 403.578 564.64 403.978 564.36C404.378 564.067 404.578 563.68 404.578 563.2C404.578 562.933 404.504 562.693 404.358 562.48C404.211 562.267 403.944 562.053 403.558 561.84C403.184 561.627 402.644 561.387 401.938 561.12C401.244 560.853 400.651 560.587 400.158 560.32C399.664 560.053 399.284 559.733 399.018 559.36C398.751 558.987 398.618 558.507 398.618 557.92C398.618 557.013 398.984 556.313 399.718 555.82C400.464 555.327 401.438 555.08 402.638 555.08C403.291 555.08 403.898 555.147 404.458 555.28C405.031 555.4 405.564 555.573 406.058 555.8L405.458 557.2C405.004 557.013 404.531 556.853 404.038 556.72C403.544 556.587 403.038 556.52 402.518 556.52C401.798 556.52 401.244 556.64 400.858 556.88C400.484 557.107 400.298 557.42 400.298 557.82C400.298 558.113 400.384 558.367 400.558 558.58C400.731 558.78 401.018 558.98 401.418 559.18C401.831 559.367 402.378 559.593 403.058 559.86C403.738 560.113 404.318 560.373 404.798 560.64C405.278 560.907 405.644 561.233 405.898 561.62C406.151 561.993 406.278 562.467 406.278 563.04ZM413.008 555.08C413.928 555.08 414.715 555.28 415.368 555.68C416.035 556.08 416.541 556.647 416.888 557.38C417.248 558.1 417.428 558.947 417.428 559.92V560.98H410.088C410.115 562.193 410.421 563.12 411.008 563.76C411.608 564.387 412.441 564.7 413.508 564.7C414.188 564.7 414.788 564.64 415.308 564.52C415.841 564.387 416.388 564.2 416.948 563.96V565.5C416.401 565.74 415.861 565.913 415.328 566.02C414.795 566.14 414.161 566.2 413.428 566.2C412.415 566.2 411.515 565.993 410.728 565.58C409.955 565.167 409.348 564.553 408.908 563.74C408.481 562.913 408.268 561.907 408.268 560.72C408.268 559.547 408.461 558.54 408.848 557.7C409.248 556.86 409.801 556.213 410.508 555.76C411.228 555.307 412.061 555.08 413.008 555.08ZM412.988 556.52C412.148 556.52 411.481 556.793 410.988 557.34C410.508 557.873 410.221 558.62 410.128 559.58H415.588C415.575 558.673 415.361 557.94 414.948 557.38C414.535 556.807 413.881 556.52 412.988 556.52ZM424.457 566.2C423.51 566.2 422.664 566.007 421.917 565.62C421.184 565.233 420.604 564.633 420.177 563.82C419.764 563.007 419.557 561.967 419.557 560.7C419.557 559.38 419.777 558.307 420.217 557.48C420.657 556.653 421.25 556.047 421.997 555.66C422.757 555.273 423.617 555.08 424.577 555.08C425.124 555.08 425.65 555.14 426.157 555.26C426.664 555.367 427.077 555.5 427.397 555.66L426.857 557.12C426.537 557 426.164 556.887 425.737 556.78C425.31 556.673 424.91 556.62 424.537 556.62C422.43 556.62 421.377 557.973 421.377 560.68C421.377 561.973 421.63 562.967 422.137 563.66C422.657 564.34 423.424 564.68 424.437 564.68C425.024 564.68 425.537 564.62 425.977 564.5C426.43 564.38 426.844 564.233 427.217 564.06V565.62C426.857 565.807 426.457 565.947 426.017 566.04C425.59 566.147 425.07 566.2 424.457 566.2ZM439.086 560.62C439.086 562.393 438.633 563.767 437.726 564.74C436.833 565.713 435.62 566.2 434.086 566.2C433.14 566.2 432.293 565.987 431.546 565.56C430.813 565.12 430.233 564.487 429.806 563.66C429.38 562.82 429.166 561.807 429.166 560.62C429.166 558.847 429.613 557.48 430.506 556.52C431.4 555.56 432.613 555.08 434.146 555.08C435.12 555.08 435.973 555.3 436.706 555.74C437.453 556.167 438.033 556.793 438.446 557.62C438.873 558.433 439.086 559.433 439.086 560.62ZM430.986 560.62C430.986 561.887 431.233 562.893 431.726 563.64C432.233 564.373 433.033 564.74 434.126 564.74C435.206 564.74 436 564.373 436.506 563.64C437.013 562.893 437.266 561.887 437.266 560.62C437.266 559.353 437.013 558.36 436.506 557.64C436 556.92 435.2 556.56 434.106 556.56C433.013 556.56 432.22 556.92 431.726 557.64C431.233 558.36 430.986 559.353 430.986 560.62ZM448.856 563.04C448.856 564.08 448.469 564.867 447.696 565.4C446.922 565.933 445.882 566.2 444.576 566.2C443.829 566.2 443.182 566.14 442.636 566.02C442.102 565.9 441.629 565.733 441.216 565.52V563.92C441.642 564.133 442.156 564.333 442.756 564.52C443.369 564.693 443.989 564.78 444.616 564.78C445.509 564.78 446.156 564.64 446.556 564.36C446.956 564.067 447.156 563.68 447.156 563.2C447.156 562.933 447.082 562.693 446.936 562.48C446.789 562.267 446.522 562.053 446.136 561.84C445.762 561.627 445.222 561.387 444.516 561.12C443.822 560.853 443.229 560.587 442.736 560.32C442.242 560.053 441.862 559.733 441.596 559.36C441.329 558.987 441.196 558.507 441.196 557.92C441.196 557.013 441.562 556.313 442.296 555.82C443.042 555.327 444.016 555.08 445.216 555.08C445.869 555.08 446.476 555.147 447.036 555.28C447.609 555.4 448.142 555.573 448.636 555.8L448.036 557.2C447.582 557.013 447.109 556.853 446.616 556.72C446.122 556.587 445.616 556.52 445.096 556.52C444.376 556.52 443.822 556.64 443.436 556.88C443.062 557.107 442.876 557.42 442.876 557.82C442.876 558.113 442.962 558.367 443.136 558.58C443.309 558.78 443.596 558.98 443.996 559.18C444.409 559.367 444.956 559.593 445.636 559.86C446.316 560.113 446.896 560.373 447.376 560.64C447.856 560.907 448.222 561.233 448.476 561.62C448.729 561.993 448.856 562.467 448.856 563.04Z" fill="#0A1921"/>
<rect x="87" y="475" width="167" height="167" rx="20" fill="#97B9FD"/>
<path d="M125.42 566H117.44V551.72H125.42V553.3H119.24V557.76H125.06V559.32H119.24V564.42H125.42V566ZM140.073 555.08C141.287 555.08 142.193 555.393 142.793 556.02C143.393 556.633 143.693 557.633 143.693 559.02V566H141.953V559.1C141.953 557.407 141.227 556.56 139.773 556.56C138.733 556.56 137.987 556.86 137.533 557.46C137.093 558.06 136.873 558.933 136.873 560.08V566H135.133V559.1C135.133 557.407 134.4 556.56 132.933 556.56C131.853 556.56 131.107 556.893 130.693 557.56C130.28 558.227 130.073 559.187 130.073 560.44V566H128.313V555.28H129.733L129.993 556.74H130.093C130.427 556.18 130.873 555.767 131.433 555.5C132.007 555.22 132.613 555.08 133.253 555.08C134.933 555.08 136.027 555.68 136.533 556.88H136.633C136.993 556.267 137.48 555.813 138.093 555.52C138.72 555.227 139.38 555.08 140.073 555.08ZM152.105 555.08C153.425 555.08 154.485 555.54 155.285 556.46C156.098 557.38 156.505 558.767 156.505 560.62C156.505 562.447 156.098 563.833 155.285 564.78C154.485 565.727 153.418 566.2 152.085 566.2C151.258 566.2 150.571 566.047 150.025 565.74C149.491 565.42 149.071 565.053 148.765 564.64H148.645C148.671 564.867 148.698 565.153 148.725 565.5C148.751 565.847 148.765 566.147 148.765 566.4V570.8H147.005V555.28H148.445L148.685 556.74H148.765C149.085 556.273 149.505 555.88 150.025 555.56C150.545 555.24 151.238 555.08 152.105 555.08ZM151.785 556.56C150.691 556.56 149.918 556.867 149.465 557.48C149.025 558.093 148.791 559.027 148.765 560.28V560.62C148.765 561.94 148.978 562.96 149.405 563.68C149.845 564.387 150.651 564.74 151.825 564.74C152.478 564.74 153.011 564.56 153.425 564.2C153.851 563.84 154.165 563.353 154.365 562.74C154.578 562.113 154.685 561.4 154.685 560.6C154.685 559.373 154.445 558.393 153.965 557.66C153.498 556.927 152.771 556.56 151.785 556.56ZM163.369 555.1C164.676 555.1 165.643 555.387 166.269 555.96C166.896 556.533 167.209 557.447 167.209 558.7V566H165.929L165.589 564.48H165.509C165.043 565.067 164.549 565.5 164.029 565.78C163.523 566.06 162.816 566.2 161.909 566.2C160.936 566.2 160.129 565.947 159.489 565.44C158.849 564.92 158.529 564.113 158.529 563.02C158.529 561.953 158.949 561.133 159.789 560.56C160.629 559.973 161.923 559.653 163.669 559.6L165.489 559.54V558.9C165.489 558.007 165.296 557.387 164.909 557.04C164.523 556.693 163.976 556.52 163.269 556.52C162.709 556.52 162.176 556.607 161.669 556.78C161.163 556.94 160.689 557.127 160.249 557.34L159.709 556.02C160.176 555.767 160.729 555.553 161.369 555.38C162.009 555.193 162.676 555.1 163.369 555.1ZM163.889 560.82C162.556 560.873 161.629 561.087 161.109 561.46C160.603 561.833 160.349 562.36 160.349 563.04C160.349 563.64 160.529 564.08 160.889 564.36C161.263 564.64 161.736 564.78 162.309 564.78C163.216 564.78 163.969 564.533 164.569 564.04C165.169 563.533 165.469 562.76 165.469 561.72V560.76L163.889 560.82ZM175.68 555.08C176.96 555.08 177.927 555.393 178.58 556.02C179.234 556.633 179.56 557.633 179.56 559.02V566H177.82V559.14C177.82 557.42 177.02 556.56 175.42 556.56C174.234 556.56 173.414 556.893 172.96 557.56C172.507 558.227 172.28 559.187 172.28 560.44V566H170.52V555.28H171.94L172.2 556.74H172.3C172.647 556.18 173.127 555.767 173.74 555.5C174.354 555.22 175 555.08 175.68 555.08ZM186.944 555.1C188.25 555.1 189.217 555.387 189.844 555.96C190.47 556.533 190.784 557.447 190.784 558.7V566H189.504L189.164 564.48H189.084C188.617 565.067 188.124 565.5 187.604 565.78C187.097 566.06 186.39 566.2 185.484 566.2C184.51 566.2 183.704 565.947 183.064 565.44C182.424 564.92 182.104 564.113 182.104 563.02C182.104 561.953 182.524 561.133 183.364 560.56C184.204 559.973 185.497 559.653 187.244 559.6L189.064 559.54V558.9C189.064 558.007 188.87 557.387 188.484 557.04C188.097 556.693 187.55 556.52 186.844 556.52C186.284 556.52 185.75 556.607 185.244 556.78C184.737 556.94 184.264 557.127 183.824 557.34L183.284 556.02C183.75 555.767 184.304 555.553 184.944 555.38C185.584 555.193 186.25 555.1 186.944 555.1ZM187.464 560.82C186.13 560.873 185.204 561.087 184.684 561.46C184.177 561.833 183.924 562.36 183.924 563.04C183.924 563.64 184.104 564.08 184.464 564.36C184.837 564.64 185.31 564.78 185.884 564.78C186.79 564.78 187.544 564.533 188.144 564.04C188.744 563.533 189.044 562.76 189.044 561.72V560.76L187.464 560.82ZM197.895 566.2C196.561 566.2 195.495 565.74 194.695 564.82C193.895 563.887 193.495 562.5 193.495 560.66C193.495 558.82 193.895 557.433 194.695 556.5C195.508 555.553 196.581 555.08 197.915 555.08C198.741 555.08 199.415 555.233 199.935 555.54C200.468 555.847 200.901 556.22 201.235 556.66H201.355C201.341 556.487 201.315 556.233 201.275 555.9C201.248 555.553 201.235 555.28 201.235 555.08V550.8H202.995V566H201.575L201.315 564.56H201.235C200.915 565.013 200.488 565.4 199.955 565.72C199.421 566.04 198.735 566.2 197.895 566.2ZM198.175 564.74C199.308 564.74 200.101 564.433 200.555 563.82C201.021 563.193 201.255 562.253 201.255 561V560.68C201.255 559.347 201.035 558.327 200.595 557.62C200.155 556.9 199.341 556.54 198.155 556.54C197.208 556.54 196.495 556.92 196.015 557.68C195.548 558.427 195.315 559.433 195.315 560.7C195.315 561.98 195.548 562.973 196.015 563.68C196.495 564.387 197.215 564.74 198.175 564.74ZM210.459 555.1C211.766 555.1 212.733 555.387 213.359 555.96C213.986 556.533 214.299 557.447 214.299 558.7V566H213.019L212.679 564.48H212.599C212.133 565.067 211.639 565.5 211.119 565.78C210.613 566.06 209.906 566.2 208.999 566.2C208.026 566.2 207.219 565.947 206.579 565.44C205.939 564.92 205.619 564.113 205.619 563.02C205.619 561.953 206.039 561.133 206.879 560.56C207.719 559.973 209.013 559.653 210.759 559.6L212.579 559.54V558.9C212.579 558.007 212.386 557.387 211.999 557.04C211.613 556.693 211.066 556.52 210.359 556.52C209.799 556.52 209.266 556.607 208.759 556.78C208.253 556.94 207.779 557.127 207.339 557.34L206.799 556.02C207.266 555.767 207.819 555.553 208.459 555.38C209.099 555.193 209.766 555.1 210.459 555.1ZM210.979 560.82C209.646 560.873 208.719 561.087 208.199 561.46C207.693 561.833 207.439 562.36 207.439 563.04C207.439 563.64 207.619 564.08 207.979 564.36C208.353 564.64 208.826 564.78 209.399 564.78C210.306 564.78 211.059 564.533 211.659 564.04C212.259 563.533 212.559 562.76 212.559 561.72V560.76L210.979 560.82ZM224.59 563.04C224.59 564.08 224.203 564.867 223.43 565.4C222.657 565.933 221.617 566.2 220.31 566.2C219.563 566.2 218.917 566.14 218.37 566.02C217.837 565.9 217.363 565.733 216.95 565.52V563.92C217.377 564.133 217.89 564.333 218.49 564.52C219.103 564.693 219.723 564.78 220.35 564.78C221.243 564.78 221.89 564.64 222.29 564.36C222.69 564.067 222.89 563.68 222.89 563.2C222.89 562.933 222.817 562.693 222.67 562.48C222.523 562.267 222.257 562.053 221.87 561.84C221.497 561.627 220.957 561.387 220.25 561.12C219.557 560.853 218.963 560.587 218.47 560.32C217.977 560.053 217.597 559.733 217.33 559.36C217.063 558.987 216.93 558.507 216.93 557.92C216.93 557.013 217.297 556.313 218.03 555.82C218.777 555.327 219.75 555.08 220.95 555.08C221.603 555.08 222.21 555.147 222.77 555.28C223.343 555.4 223.877 555.573 224.37 555.8L223.77 557.2C223.317 557.013 222.843 556.853 222.35 556.72C221.857 556.587 221.35 556.52 220.83 556.52C220.11 556.52 219.557 556.64 219.17 556.88C218.797 557.107 218.61 557.42 218.61 557.82C218.61 558.113 218.697 558.367 218.87 558.58C219.043 558.78 219.33 558.98 219.73 559.18C220.143 559.367 220.69 559.593 221.37 559.86C222.05 560.113 222.63 560.373 223.11 560.64C223.59 560.907 223.957 561.233 224.21 561.62C224.463 561.993 224.59 562.467 224.59 563.04Z" fill="#0A1921"/>
<path d="M82.06 67.27C82.06 69.17 81.37 70.65 79.99 71.71C78.61 72.77 76.75 73.3 74.41 73.3C73.21 73.3 72.1 73.21 71.08 73.03C70.06 72.85 69.21 72.6 68.53 72.28V69.7C69.25 70.02 70.14 70.31 71.2 70.57C72.28 70.83 73.39 70.96 74.53 70.96C76.13 70.96 77.33 70.65 78.13 70.03C78.95 69.41 79.36 68.57 79.36 67.51C79.36 66.81 79.21 66.22 78.91 65.74C78.61 65.26 78.09 64.82 77.35 64.42C76.63 64 75.62 63.56 74.32 63.1C72.5 62.44 71.12 61.63 70.18 60.67C69.26 59.71 68.8 58.4 68.8 56.74C68.8 55.6 69.09 54.63 69.67 53.83C70.25 53.01 71.05 52.38 72.07 51.94C73.11 51.5 74.3 51.28 75.64 51.28C76.82 51.28 77.9 51.39 78.88 51.61C79.86 51.83 80.75 52.12 81.55 52.48L80.71 54.79C79.97 54.47 79.16 54.2 78.28 53.98C77.42 53.76 76.52 53.65 75.58 53.65C74.24 53.65 73.23 53.94 72.55 54.52C71.87 55.08 71.53 55.83 71.53 56.77C71.53 57.49 71.68 58.09 71.98 58.57C72.28 59.05 72.77 59.48 73.45 59.86C74.13 60.24 75.05 60.65 76.21 61.09C77.47 61.55 78.53 62.05 79.39 62.59C80.27 63.11 80.93 63.74 81.37 64.48C81.83 65.22 82.06 66.15 82.06 67.27ZM92.1048 56.65C94.0648 56.65 95.5148 57.08 96.4548 57.94C97.3948 58.8 97.8648 60.17 97.8648 62.05V73H95.9448L95.4348 70.72H95.3148C94.6148 71.6 93.8748 72.25 93.0948 72.67C92.3348 73.09 91.2748 73.3 89.9148 73.3C88.4548 73.3 87.2448 72.92 86.2848 72.16C85.3248 71.38 84.8448 70.17 84.8448 68.53C84.8448 66.93 85.4748 65.7 86.7348 64.84C87.9948 63.96 89.9348 63.48 92.5548 63.4L95.2848 63.31V62.35C95.2848 61.01 94.9948 60.08 94.4148 59.56C93.8348 59.04 93.0148 58.78 91.9548 58.78C91.1148 58.78 90.3148 58.91 89.5548 59.17C88.7948 59.41 88.0848 59.69 87.4248 60.01L86.6148 58.03C87.3148 57.65 88.1448 57.33 89.1048 57.07C90.0648 56.79 91.0648 56.65 92.1048 56.65ZM92.8848 65.23C90.8848 65.31 89.4948 65.63 88.7148 66.19C87.9548 66.75 87.5748 67.54 87.5748 68.56C87.5748 69.46 87.8448 70.12 88.3848 70.54C88.9448 70.96 89.6548 71.17 90.5148 71.17C91.8748 71.17 93.0048 70.8 93.9048 70.06C94.8048 69.3 95.2548 68.14 95.2548 66.58V65.14L92.8848 65.23ZM105.471 73H102.831V50.2H105.471V73ZM116.656 56.65C118.616 56.65 120.066 57.08 121.006 57.94C121.946 58.8 122.416 60.17 122.416 62.05V73H120.496L119.986 70.72H119.866C119.166 71.6 118.426 72.25 117.646 72.67C116.886 73.09 115.826 73.3 114.466 73.3C113.006 73.3 111.796 72.92 110.836 72.16C109.876 71.38 109.396 70.17 109.396 68.53C109.396 66.93 110.026 65.7 111.286 64.84C112.546 63.96 114.486 63.48 117.106 63.4L119.836 63.31V62.35C119.836 61.01 119.546 60.08 118.966 59.56C118.386 59.04 117.566 58.78 116.506 58.78C115.666 58.78 114.866 58.91 114.106 59.17C113.346 59.41 112.636 59.69 111.976 60.01L111.166 58.03C111.866 57.65 112.696 57.33 113.656 57.07C114.616 56.79 115.616 56.65 116.656 56.65ZM117.436 65.23C115.436 65.31 114.046 65.63 113.266 66.19C112.506 66.75 112.126 67.54 112.126 68.56C112.126 69.46 112.396 70.12 112.936 70.54C113.496 70.96 114.206 71.17 115.066 71.17C116.426 71.17 117.556 70.8 118.456 70.06C119.356 69.3 119.806 68.14 119.806 66.58V65.14L117.436 65.23ZM133.082 73.3C131.082 73.3 129.482 72.61 128.282 71.23C127.082 69.83 126.482 67.75 126.482 64.99C126.482 62.23 127.082 60.15 128.282 58.75C129.502 57.33 131.112 56.62 133.112 56.62C134.352 56.62 135.362 56.85 136.142 57.31C136.942 57.77 137.592 58.33 138.092 58.99H138.272C138.252 58.73 138.212 58.35 138.152 57.85C138.112 57.33 138.092 56.92 138.092 56.62V50.2H140.732V73H138.602L138.212 70.84H138.092C137.612 71.52 136.972 72.1 136.172 72.58C135.372 73.06 134.342 73.3 133.082 73.3ZM133.502 71.11C135.202 71.11 136.392 70.65 137.072 69.73C137.772 68.79 138.122 67.38 138.122 65.5V65.02C138.122 63.02 137.792 61.49 137.132 60.43C136.472 59.35 135.252 58.81 133.472 58.81C132.052 58.81 130.982 59.38 130.262 60.52C129.562 61.64 129.212 63.15 129.212 65.05C129.212 66.97 129.562 68.46 130.262 69.52C130.982 70.58 132.062 71.11 133.502 71.11ZM159.819 64.93C159.819 67.59 159.139 69.65 157.779 71.11C156.439 72.57 154.619 73.3 152.319 73.3C150.899 73.3 149.629 72.98 148.509 72.34C147.409 71.68 146.539 70.73 145.899 69.49C145.259 68.23 144.939 66.71 144.939 64.93C144.939 62.27 145.609 60.22 146.949 58.78C148.289 57.34 150.109 56.62 152.409 56.62C153.869 56.62 155.149 56.95 156.249 57.61C157.369 58.25 158.239 59.19 158.859 60.43C159.499 61.65 159.819 63.15 159.819 64.93ZM147.669 64.93C147.669 66.83 148.039 68.34 148.779 69.46C149.539 70.56 150.739 71.11 152.379 71.11C153.999 71.11 155.189 70.56 155.949 69.46C156.709 68.34 157.089 66.83 157.089 64.93C157.089 63.03 156.709 61.54 155.949 60.46C155.189 59.38 153.989 58.84 152.349 58.84C150.709 58.84 149.519 59.38 148.779 60.46C148.039 61.54 147.669 63.03 147.669 64.93ZM174.473 68.56C174.473 70.12 173.893 71.3 172.733 72.1C171.573 72.9 170.013 73.3 168.053 73.3C166.933 73.3 165.963 73.21 165.143 73.03C164.343 72.85 163.633 72.6 163.013 72.28V69.88C163.653 70.2 164.423 70.5 165.323 70.78C166.243 71.04 167.173 71.17 168.113 71.17C169.453 71.17 170.423 70.96 171.023 70.54C171.623 70.1 171.923 69.52 171.923 68.8C171.923 68.4 171.813 68.04 171.593 67.72C171.373 67.4 170.973 67.08 170.393 66.76C169.833 66.44 169.023 66.08 167.963 65.68C166.923 65.28 166.033 64.88 165.293 64.48C164.553 64.08 163.983 63.6 163.583 63.04C163.183 62.48 162.983 61.76 162.983 60.88C162.983 59.52 163.533 58.47 164.633 57.73C165.753 56.99 167.213 56.62 169.013 56.62C169.993 56.62 170.903 56.72 171.743 56.92C172.603 57.1 173.403 57.36 174.143 57.7L173.243 59.8C172.563 59.52 171.853 59.28 171.113 59.08C170.373 58.88 169.613 58.78 168.833 58.78C167.753 58.78 166.923 58.96 166.343 59.32C165.783 59.66 165.503 60.13 165.503 60.73C165.503 61.17 165.633 61.55 165.893 61.87C166.153 62.17 166.583 62.47 167.183 62.77C167.803 63.05 168.623 63.39 169.643 63.79C170.663 64.17 171.533 64.56 172.253 64.96C172.973 65.36 173.523 65.85 173.903 66.43C174.283 66.99 174.473 67.7 174.473 68.56Z" fill="#0A1921"/>
<rect x="65" y="136" width="578" height="239" fill="#DDD8FD" stroke="#4555E7" stroke-width="4" stroke-dasharray="18 18"/>
<rect x="87" y="170" width="167" height="167" rx="20" fill="#97B9FD"/>
<path d="M141.72 246.72C143.587 246.72 144.947 247.087 145.8 247.82C146.653 248.553 147.08 249.587 147.08 250.92C147.08 251.707 146.9 252.447 146.54 253.14C146.193 253.82 145.6 254.373 144.76 254.8C143.933 255.227 142.807 255.44 141.38 255.44H139.74V261H137.94V246.72H141.72ZM141.56 248.26H139.74V253.9H141.18C142.54 253.9 143.553 253.68 144.22 253.24C144.887 252.8 145.22 252.053 145.22 251C145.22 250.08 144.927 249.393 144.34 248.94C143.753 248.487 142.827 248.26 141.56 248.26ZM153.869 250.1C155.176 250.1 156.143 250.387 156.769 250.96C157.396 251.533 157.709 252.447 157.709 253.7V261H156.429L156.089 259.48H156.009C155.543 260.067 155.049 260.5 154.529 260.78C154.023 261.06 153.316 261.2 152.409 261.2C151.436 261.2 150.629 260.947 149.989 260.44C149.349 259.92 149.029 259.113 149.029 258.02C149.029 256.953 149.449 256.133 150.289 255.56C151.129 254.973 152.423 254.653 154.169 254.6L155.989 254.54V253.9C155.989 253.007 155.796 252.387 155.409 252.04C155.023 251.693 154.476 251.52 153.769 251.52C153.209 251.52 152.676 251.607 152.169 251.78C151.663 251.94 151.189 252.127 150.749 252.34L150.209 251.02C150.676 250.767 151.229 250.553 151.869 250.38C152.509 250.193 153.176 250.1 153.869 250.1ZM154.389 255.82C153.056 255.873 152.129 256.087 151.609 256.46C151.103 256.833 150.849 257.36 150.849 258.04C150.849 258.64 151.029 259.08 151.389 259.36C151.763 259.64 152.236 259.78 152.809 259.78C153.716 259.78 154.469 259.533 155.069 259.04C155.669 258.533 155.969 257.76 155.969 256.72V255.76L154.389 255.82ZM166.12 250.08C167.44 250.08 168.5 250.54 169.3 251.46C170.114 252.38 170.52 253.767 170.52 255.62C170.52 257.447 170.114 258.833 169.3 259.78C168.5 260.727 167.434 261.2 166.1 261.2C165.274 261.2 164.587 261.047 164.04 260.74C163.507 260.42 163.087 260.053 162.78 259.64H162.66C162.687 259.867 162.714 260.153 162.74 260.5C162.767 260.847 162.78 261.147 162.78 261.4V265.8H161.02V250.28H162.46L162.7 251.74H162.78C163.1 251.273 163.52 250.88 164.04 250.56C164.56 250.24 165.254 250.08 166.12 250.08ZM165.8 251.56C164.707 251.56 163.934 251.867 163.48 252.48C163.04 253.093 162.807 254.027 162.78 255.28V255.62C162.78 256.94 162.994 257.96 163.42 258.68C163.86 259.387 164.667 259.74 165.84 259.74C166.494 259.74 167.027 259.56 167.44 259.2C167.867 258.84 168.18 258.353 168.38 257.74C168.594 257.113 168.7 256.4 168.7 255.6C168.7 254.373 168.46 253.393 167.98 252.66C167.514 251.927 166.787 251.56 165.8 251.56ZM174.225 246.26C174.492 246.26 174.725 246.353 174.925 246.54C175.138 246.713 175.245 246.993 175.245 247.38C175.245 247.753 175.138 248.033 174.925 248.22C174.725 248.407 174.492 248.5 174.225 248.5C173.932 248.5 173.685 248.407 173.485 248.22C173.285 248.033 173.185 247.753 173.185 247.38C173.185 246.993 173.285 246.713 173.485 246.54C173.685 246.353 173.932 246.26 174.225 246.26ZM175.085 250.28V261H173.325V250.28H175.085ZM182.061 259.76C182.328 259.76 182.601 259.74 182.881 259.7C183.161 259.647 183.388 259.593 183.561 259.54V260.88C183.375 260.973 183.108 261.047 182.761 261.1C182.415 261.167 182.081 261.2 181.761 261.2C181.201 261.2 180.681 261.107 180.201 260.92C179.735 260.72 179.355 260.38 179.061 259.9C178.768 259.42 178.621 258.747 178.621 257.88V251.64H177.101V250.8L178.641 250.1L179.341 247.82H180.381V250.28H183.481V251.64H180.381V257.84C180.381 258.493 180.535 258.98 180.841 259.3C181.161 259.607 181.568 259.76 182.061 259.76ZM189.768 250.1C191.074 250.1 192.041 250.387 192.668 250.96C193.294 251.533 193.608 252.447 193.608 253.7V261H192.328L191.988 259.48H191.908C191.441 260.067 190.948 260.5 190.428 260.78C189.921 261.06 189.214 261.2 188.308 261.2C187.334 261.2 186.528 260.947 185.888 260.44C185.248 259.92 184.928 259.113 184.928 258.02C184.928 256.953 185.348 256.133 186.188 255.56C187.028 254.973 188.321 254.653 190.068 254.6L191.888 254.54V253.9C191.888 253.007 191.694 252.387 191.308 252.04C190.921 251.693 190.374 251.52 189.668 251.52C189.108 251.52 188.574 251.607 188.068 251.78C187.561 251.94 187.088 252.127 186.648 252.34L186.108 251.02C186.574 250.767 187.128 250.553 187.768 250.38C188.408 250.193 189.074 250.1 189.768 250.1ZM190.288 255.82C188.954 255.873 188.028 256.087 187.508 256.46C187.001 256.833 186.748 257.36 186.748 258.04C186.748 258.64 186.928 259.08 187.288 259.36C187.661 259.64 188.134 259.78 188.708 259.78C189.614 259.78 190.368 259.533 190.968 259.04C191.568 258.533 191.868 257.76 191.868 256.72V255.76L190.288 255.82ZM203.899 258.04C203.899 259.08 203.512 259.867 202.739 260.4C201.965 260.933 200.925 261.2 199.619 261.2C198.872 261.2 198.225 261.14 197.679 261.02C197.145 260.9 196.672 260.733 196.259 260.52V258.92C196.685 259.133 197.199 259.333 197.799 259.52C198.412 259.693 199.032 259.78 199.659 259.78C200.552 259.78 201.199 259.64 201.599 259.36C201.999 259.067 202.199 258.68 202.199 258.2C202.199 257.933 202.125 257.693 201.979 257.48C201.832 257.267 201.565 257.053 201.179 256.84C200.805 256.627 200.265 256.387 199.559 256.12C198.865 255.853 198.272 255.587 197.779 255.32C197.285 255.053 196.905 254.733 196.639 254.36C196.372 253.987 196.239 253.507 196.239 252.92C196.239 252.013 196.605 251.313 197.339 250.82C198.085 250.327 199.059 250.08 200.259 250.08C200.912 250.08 201.519 250.147 202.079 250.28C202.652 250.4 203.185 250.573 203.679 250.8L203.079 252.2C202.625 252.013 202.152 251.853 201.659 251.72C201.165 251.587 200.659 251.52 200.139 251.52C199.419 251.52 198.865 251.64 198.479 251.88C198.105 252.107 197.919 252.42 197.919 252.82C197.919 253.113 198.005 253.367 198.179 253.58C198.352 253.78 198.639 253.98 199.039 254.18C199.452 254.367 199.999 254.593 200.679 254.86C201.359 255.113 201.939 255.373 202.419 255.64C202.899 255.907 203.265 256.233 203.519 256.62C203.772 256.993 203.899 257.467 203.899 258.04Z" fill="#0A1921"/>
<rect x="274" y="170" width="167" height="167" rx="20" fill="#97B9FD"/>
<path d="M319.22 246.72C321.087 246.72 322.447 247.087 323.3 247.82C324.153 248.553 324.58 249.587 324.58 250.92C324.58 251.707 324.4 252.447 324.04 253.14C323.693 253.82 323.1 254.373 322.26 254.8C321.433 255.227 320.307 255.44 318.88 255.44H317.24V261H315.44V246.72H319.22ZM319.06 248.26H317.24V253.9H318.68C320.04 253.9 321.053 253.68 321.72 253.24C322.387 252.8 322.72 252.053 322.72 251C322.72 250.08 322.427 249.393 321.84 248.94C321.253 248.487 320.327 248.26 319.06 248.26ZM336.629 255.62C336.629 257.393 336.176 258.767 335.269 259.74C334.376 260.713 333.163 261.2 331.629 261.2C330.683 261.2 329.836 260.987 329.089 260.56C328.356 260.12 327.776 259.487 327.349 258.66C326.923 257.82 326.709 256.807 326.709 255.62C326.709 253.847 327.156 252.48 328.049 251.52C328.943 250.56 330.156 250.08 331.689 250.08C332.663 250.08 333.516 250.3 334.249 250.74C334.996 251.167 335.576 251.793 335.989 252.62C336.416 253.433 336.629 254.433 336.629 255.62ZM328.529 255.62C328.529 256.887 328.776 257.893 329.269 258.64C329.776 259.373 330.576 259.74 331.669 259.74C332.749 259.74 333.543 259.373 334.049 258.64C334.556 257.893 334.809 256.887 334.809 255.62C334.809 254.353 334.556 253.36 334.049 252.64C333.543 251.92 332.743 251.56 331.649 251.56C330.556 251.56 329.763 251.92 329.269 252.64C328.776 253.36 328.529 254.353 328.529 255.62ZM344.519 250.08C345.839 250.08 346.899 250.54 347.699 251.46C348.512 252.38 348.919 253.767 348.919 255.62C348.919 257.447 348.512 258.833 347.699 259.78C346.899 260.727 345.832 261.2 344.499 261.2C343.672 261.2 342.985 261.047 342.439 260.74C341.905 260.42 341.485 260.053 341.179 259.64H341.059C341.085 259.867 341.112 260.153 341.139 260.5C341.165 260.847 341.179 261.147 341.179 261.4V265.8H339.419V250.28H340.859L341.099 251.74H341.179C341.499 251.273 341.919 250.88 342.439 250.56C342.959 250.24 343.652 250.08 344.519 250.08ZM344.199 251.56C343.105 251.56 342.332 251.867 341.879 252.48C341.439 253.093 341.205 254.027 341.179 255.28V255.62C341.179 256.94 341.392 257.96 341.819 258.68C342.259 259.387 343.065 259.74 344.239 259.74C344.892 259.74 345.425 259.56 345.839 259.2C346.265 258.84 346.579 258.353 346.779 257.74C346.992 257.113 347.099 256.4 347.099 255.6C347.099 254.373 346.859 253.393 346.379 252.66C345.912 251.927 345.185 251.56 344.199 251.56ZM363.279 248.1C361.745 248.1 360.539 248.613 359.659 249.64C358.779 250.667 358.339 252.073 358.339 253.86C358.339 255.633 358.745 257.04 359.559 258.08C360.385 259.107 361.619 259.62 363.259 259.62C363.885 259.62 364.479 259.567 365.039 259.46C365.599 259.353 366.145 259.22 366.679 259.06V260.62C366.145 260.82 365.592 260.967 365.019 261.06C364.459 261.153 363.785 261.2 362.999 261.2C361.545 261.2 360.332 260.9 359.359 260.3C358.385 259.7 357.652 258.847 357.159 257.74C356.679 256.633 356.439 255.333 356.439 253.84C356.439 252.4 356.699 251.133 357.219 250.04C357.752 248.933 358.532 248.073 359.559 247.46C360.585 246.833 361.832 246.52 363.299 246.52C364.805 246.52 366.119 246.8 367.239 247.36L366.519 248.88C366.079 248.68 365.585 248.5 365.039 248.34C364.505 248.18 363.919 248.1 363.279 248.1ZM378.875 255.62C378.875 257.393 378.422 258.767 377.515 259.74C376.622 260.713 375.409 261.2 373.875 261.2C372.929 261.2 372.082 260.987 371.335 260.56C370.602 260.12 370.022 259.487 369.595 258.66C369.169 257.82 368.955 256.807 368.955 255.62C368.955 253.847 369.402 252.48 370.295 251.52C371.189 250.56 372.402 250.08 373.935 250.08C374.909 250.08 375.762 250.3 376.495 250.74C377.242 251.167 377.822 251.793 378.235 252.62C378.662 253.433 378.875 254.433 378.875 255.62ZM370.775 255.62C370.775 256.887 371.022 257.893 371.515 258.64C372.022 259.373 372.822 259.74 373.915 259.74C374.995 259.74 375.789 259.373 376.295 258.64C376.802 257.893 377.055 256.887 377.055 255.62C377.055 254.353 376.802 253.36 376.295 252.64C375.789 251.92 374.989 251.56 373.895 251.56C372.802 251.56 372.009 251.92 371.515 252.64C371.022 253.36 370.775 254.353 370.775 255.62ZM386.665 250.08C386.865 250.08 387.078 250.093 387.305 250.12C387.545 250.133 387.752 250.16 387.925 250.2L387.705 251.82C387.532 251.78 387.338 251.747 387.125 251.72C386.925 251.693 386.732 251.68 386.545 251.68C385.998 251.68 385.485 251.833 385.005 252.14C384.525 252.433 384.138 252.853 383.845 253.4C383.565 253.933 383.425 254.56 383.425 255.28V261H381.665V250.28H383.105L383.305 252.24H383.385C383.732 251.653 384.178 251.147 384.725 250.72C385.272 250.293 385.918 250.08 386.665 250.08ZM395.087 250.08C396.367 250.08 397.333 250.393 397.987 251.02C398.64 251.633 398.967 252.633 398.967 254.02V261H397.227V254.14C397.227 252.42 396.427 251.56 394.827 251.56C393.64 251.56 392.82 251.893 392.367 252.56C391.913 253.227 391.687 254.187 391.687 255.44V261H389.927V250.28H391.347L391.607 251.74H391.707C392.053 251.18 392.533 250.767 393.147 250.5C393.76 250.22 394.407 250.08 395.087 250.08Z" fill="#0A1921"/>
<rect x="461" y="170" width="167" height="167" rx="20" fill="#97B9FD"/>
<path d="M512.72 246.72C514.587 246.72 515.947 247.087 516.8 247.82C517.653 248.553 518.08 249.587 518.08 250.92C518.08 251.707 517.9 252.447 517.54 253.14C517.193 253.82 516.6 254.373 515.76 254.8C514.933 255.227 513.807 255.44 512.38 255.44H510.74V261H508.94V246.72H512.72ZM512.56 248.26H510.74V253.9H512.18C513.54 253.9 514.553 253.68 515.22 253.24C515.887 252.8 516.22 252.053 516.22 251C516.22 250.08 515.927 249.393 515.34 248.94C514.753 248.487 513.827 248.26 512.56 248.26ZM521.709 246.26C521.976 246.26 522.209 246.353 522.409 246.54C522.623 246.713 522.729 246.993 522.729 247.38C522.729 247.753 522.623 248.033 522.409 248.22C522.209 248.407 521.976 248.5 521.709 248.5C521.416 248.5 521.169 248.407 520.969 248.22C520.769 248.033 520.669 247.753 520.669 247.38C520.669 246.993 520.769 246.713 520.969 246.54C521.169 246.353 521.416 246.26 521.709 246.26ZM522.569 250.28V261H520.809V250.28H522.569ZM533.106 261.22C533.106 260.98 533.112 260.7 533.126 260.38C533.139 260.06 533.166 259.787 533.206 259.56H533.086C532.779 260.013 532.352 260.4 531.806 260.72C531.272 261.04 530.579 261.2 529.726 261.2C528.432 261.2 527.379 260.74 526.566 259.82C525.766 258.887 525.366 257.5 525.366 255.66C525.366 253.82 525.772 252.433 526.586 251.5C527.412 250.553 528.479 250.08 529.786 250.08C530.626 250.08 531.312 250.24 531.846 250.56C532.379 250.88 532.806 251.273 533.126 251.74H533.206L533.466 250.28H534.866V265.8H533.106V261.22ZM530.066 259.74C531.172 259.74 531.952 259.44 532.406 258.84C532.872 258.227 533.112 257.293 533.126 256.04V255.68C533.126 254.32 532.899 253.293 532.446 252.6C531.992 251.893 531.186 251.54 530.026 251.54C529.066 251.54 528.352 251.92 527.886 252.68C527.419 253.427 527.186 254.433 527.186 255.7C527.186 256.967 527.419 257.96 527.886 258.68C528.366 259.387 529.092 259.74 530.066 259.74ZM547.23 250.28V261H545.79L545.53 259.58H545.45C545.104 260.14 544.624 260.553 544.01 260.82C543.397 261.073 542.744 261.2 542.05 261.2C540.757 261.2 539.784 260.893 539.13 260.28C538.477 259.653 538.15 258.66 538.15 257.3V250.28H539.93V257.18C539.93 258.887 540.724 259.74 542.31 259.74C543.497 259.74 544.317 259.407 544.77 258.74C545.237 258.073 545.47 257.113 545.47 255.86V250.28H547.23ZM554.774 250.08C555.694 250.08 556.48 250.28 557.134 250.68C557.8 251.08 558.307 251.647 558.654 252.38C559.014 253.1 559.194 253.947 559.194 254.92V255.98H551.854C551.88 257.193 552.187 258.12 552.774 258.76C553.374 259.387 554.207 259.7 555.274 259.7C555.954 259.7 556.554 259.64 557.074 259.52C557.607 259.387 558.154 259.2 558.714 258.96V260.5C558.167 260.74 557.627 260.913 557.094 261.02C556.56 261.14 555.927 261.2 555.194 261.2C554.18 261.2 553.28 260.993 552.494 260.58C551.72 260.167 551.114 259.553 550.674 258.74C550.247 257.913 550.034 256.907 550.034 255.72C550.034 254.547 550.227 253.54 550.614 252.7C551.014 251.86 551.567 251.213 552.274 250.76C552.994 250.307 553.827 250.08 554.774 250.08ZM554.754 251.52C553.914 251.52 553.247 251.793 552.754 252.34C552.274 252.873 551.987 253.62 551.894 254.58H557.354C557.34 253.673 557.127 252.94 556.714 252.38C556.3 251.807 555.647 251.52 554.754 251.52ZM571.243 255.62C571.243 257.393 570.789 258.767 569.883 259.74C568.989 260.713 567.776 261.2 566.243 261.2C565.296 261.2 564.449 260.987 563.703 260.56C562.969 260.12 562.389 259.487 561.963 258.66C561.536 257.82 561.323 256.807 561.323 255.62C561.323 253.847 561.769 252.48 562.663 251.52C563.556 250.56 564.769 250.08 566.303 250.08C567.276 250.08 568.129 250.3 568.863 250.74C569.609 251.167 570.189 251.793 570.603 252.62C571.029 253.433 571.243 254.433 571.243 255.62ZM563.143 255.62C563.143 256.887 563.389 257.893 563.883 258.64C564.389 259.373 565.189 259.74 566.283 259.74C567.363 259.74 568.156 259.373 568.663 258.64C569.169 257.893 569.423 256.887 569.423 255.62C569.423 254.353 569.169 253.36 568.663 252.64C568.156 251.92 567.356 251.56 566.263 251.56C565.169 251.56 564.376 251.92 563.883 252.64C563.389 253.36 563.143 254.353 563.143 255.62ZM581.012 258.04C581.012 259.08 580.625 259.867 579.852 260.4C579.079 260.933 578.039 261.2 576.732 261.2C575.985 261.2 575.339 261.14 574.792 261.02C574.259 260.9 573.785 260.733 573.372 260.52V258.92C573.799 259.133 574.312 259.333 574.912 259.52C575.525 259.693 576.145 259.78 576.772 259.78C577.665 259.78 578.312 259.64 578.712 259.36C579.112 259.067 579.312 258.68 579.312 258.2C579.312 257.933 579.239 257.693 579.092 257.48C578.945 257.267 578.679 257.053 578.292 256.84C577.919 256.627 577.379 256.387 576.672 256.12C575.979 255.853 575.385 255.587 574.892 255.32C574.399 255.053 574.019 254.733 573.752 254.36C573.485 253.987 573.352 253.507 573.352 252.92C573.352 252.013 573.719 251.313 574.452 250.82C575.199 250.327 576.172 250.08 577.372 250.08C578.025 250.08 578.632 250.147 579.192 250.28C579.765 250.4 580.299 250.573 580.792 250.8L580.192 252.2C579.739 252.013 579.265 251.853 578.772 251.72C578.279 251.587 577.772 251.52 577.252 251.52C576.532 251.52 575.979 251.64 575.592 251.88C575.219 252.107 575.032 252.42 575.032 252.82C575.032 253.113 575.119 253.367 575.292 253.58C575.465 253.78 575.752 253.98 576.152 254.18C576.565 254.367 577.112 254.593 577.792 254.86C578.472 255.113 579.052 255.373 579.532 255.64C580.012 255.907 580.379 256.233 580.632 256.62C580.885 256.993 581.012 257.467 581.012 258.04Z" fill="#0A1921"/>
<path d="M75.06 108.1C73.5267 108.1 72.32 108.613 71.44 109.64C70.56 110.667 70.12 112.073 70.12 113.86C70.12 115.633 70.5267 117.04 71.34 118.08C72.1667 119.107 73.4 119.62 75.04 119.62C75.6667 119.62 76.26 119.567 76.82 119.46C77.38 119.353 77.9267 119.22 78.46 119.06V120.62C77.9267 120.82 77.3733 120.967 76.8 121.06C76.24 121.153 75.5667 121.2 74.78 121.2C73.3267 121.2 72.1133 120.9 71.14 120.3C70.1667 119.7 69.4333 118.847 68.94 117.74C68.46 116.633 68.22 115.333 68.22 113.84C68.22 112.4 68.48 111.133 69 110.04C69.5333 108.933 70.3133 108.073 71.34 107.46C72.3667 106.833 73.6133 106.52 75.08 106.52C76.5867 106.52 77.9 106.8 79.02 107.36L78.3 108.88C77.86 108.68 77.3667 108.5 76.82 108.34C76.2867 108.18 75.7 108.1 75.06 108.1ZM83.0967 110.26C83.0967 110.793 83.0634 111.293 82.9967 111.76H83.1167C83.4634 111.213 83.9301 110.8 84.5167 110.52C85.1167 110.24 85.7634 110.1 86.4567 110.1C87.7634 110.1 88.7434 110.413 89.3967 111.04C90.0501 111.653 90.3767 112.647 90.3767 114.02V121H88.6367V114.14C88.6367 112.42 87.8367 111.56 86.2367 111.56C85.0367 111.56 84.2101 111.9 83.7567 112.58C83.3167 113.247 83.0967 114.207 83.0967 115.46V121H81.3367V105.8H83.0967V110.26ZM94.6 106.26C94.8667 106.26 95.1 106.353 95.3 106.54C95.5133 106.713 95.62 106.993 95.62 107.38C95.62 107.753 95.5133 108.033 95.3 108.22C95.1 108.407 94.8667 108.5 94.6 108.5C94.3067 108.5 94.06 108.407 93.86 108.22C93.66 108.033 93.56 107.753 93.56 107.38C93.56 106.993 93.66 106.713 93.86 106.54C94.06 106.353 94.3067 106.26 94.6 106.26ZM95.46 110.28V121H93.7V110.28H95.46ZM103.956 110.08C105.276 110.08 106.336 110.54 107.136 111.46C107.95 112.38 108.356 113.767 108.356 115.62C108.356 117.447 107.95 118.833 107.136 119.78C106.336 120.727 105.27 121.2 103.936 121.2C103.11 121.2 102.423 121.047 101.876 120.74C101.343 120.42 100.923 120.053 100.616 119.64H100.496C100.523 119.867 100.55 120.153 100.576 120.5C100.603 120.847 100.616 121.147 100.616 121.4V125.8H98.8563V110.28H100.296L100.536 111.74H100.616C100.936 111.273 101.356 110.88 101.876 110.56C102.396 110.24 103.09 110.08 103.956 110.08ZM103.636 111.56C102.543 111.56 101.77 111.867 101.316 112.48C100.876 113.093 100.643 114.027 100.616 115.28V115.62C100.616 116.94 100.83 117.96 101.256 118.68C101.696 119.387 102.503 119.74 103.676 119.74C104.33 119.74 104.863 119.56 105.276 119.2C105.703 118.84 106.016 118.353 106.216 117.74C106.43 117.113 106.536 116.4 106.536 115.6C106.536 114.373 106.296 113.393 105.816 112.66C105.35 111.927 104.623 111.56 103.636 111.56ZM118.141 118.04C118.141 119.08 117.754 119.867 116.981 120.4C116.208 120.933 115.168 121.2 113.861 121.2C113.114 121.2 112.468 121.14 111.921 121.02C111.388 120.9 110.914 120.733 110.501 120.52V118.92C110.928 119.133 111.441 119.333 112.041 119.52C112.654 119.693 113.274 119.78 113.901 119.78C114.794 119.78 115.441 119.64 115.841 119.36C116.241 119.067 116.441 118.68 116.441 118.2C116.441 117.933 116.368 117.693 116.221 117.48C116.074 117.267 115.808 117.053 115.421 116.84C115.048 116.627 114.508 116.387 113.801 116.12C113.108 115.853 112.514 115.587 112.021 115.32C111.528 115.053 111.148 114.733 110.881 114.36C110.614 113.987 110.481 113.507 110.481 112.92C110.481 112.013 110.848 111.313 111.581 110.82C112.328 110.327 113.301 110.08 114.501 110.08C115.154 110.08 115.761 110.147 116.321 110.28C116.894 110.4 117.428 110.573 117.921 110.8L117.321 112.2C116.868 112.013 116.394 111.853 115.901 111.72C115.408 111.587 114.901 111.52 114.381 111.52C113.661 111.52 113.108 111.64 112.721 111.88C112.348 112.107 112.161 112.42 112.161 112.82C112.161 113.113 112.248 113.367 112.421 113.58C112.594 113.78 112.881 113.98 113.281 114.18C113.694 114.367 114.241 114.593 114.921 114.86C115.601 115.113 116.181 115.373 116.661 115.64C117.141 115.907 117.508 116.233 117.761 116.62C118.014 116.993 118.141 117.467 118.141 118.04Z" fill="#0A1921"/>
<path d="M74.86 414H73.06V407.34H65.74V414H63.94V399.72H65.74V405.76H73.06V399.72H74.86V414ZM87.8442 408.62C87.8442 410.393 87.3909 411.767 86.4842 412.74C85.5909 413.713 84.3776 414.2 82.8442 414.2C81.8976 414.2 81.0509 413.987 80.3042 413.56C79.5709 413.12 78.9909 412.487 78.5642 411.66C78.1376 410.82 77.9242 409.807 77.9242 408.62C77.9242 406.847 78.3709 405.48 79.2642 404.52C80.1576 403.56 81.3709 403.08 82.9042 403.08C83.8776 403.08 84.7309 403.3 85.4642 403.74C86.2109 404.167 86.7909 404.793 87.2042 405.62C87.6309 406.433 87.8442 407.433 87.8442 408.62ZM79.7442 408.62C79.7442 409.887 79.9909 410.893 80.4842 411.64C80.9909 412.373 81.7909 412.74 82.8842 412.74C83.9642 412.74 84.7576 412.373 85.2642 411.64C85.7709 410.893 86.0242 409.887 86.0242 408.62C86.0242 407.353 85.7709 406.36 85.2642 405.64C84.7576 404.92 83.9576 404.56 82.8642 404.56C81.7709 404.56 80.9776 404.92 80.4842 405.64C79.9909 406.36 79.7442 407.353 79.7442 408.62ZM95.6336 403.08C95.8336 403.08 96.0469 403.093 96.2736 403.12C96.5136 403.133 96.7203 403.16 96.8936 403.2L96.6736 404.82C96.5003 404.78 96.3069 404.747 96.0936 404.72C95.8936 404.693 95.7003 404.68 95.5136 404.68C94.9669 404.68 94.4536 404.833 93.9736 405.14C93.4936 405.433 93.1069 405.853 92.8136 406.4C92.5336 406.933 92.3936 407.56 92.3936 408.28V414H90.6336V403.28H92.0736L92.2736 405.24H92.3536C92.7003 404.653 93.1469 404.147 93.6936 403.72C94.2403 403.293 94.8869 403.08 95.6336 403.08ZM104.055 403.08C105.335 403.08 106.302 403.393 106.955 404.02C107.609 404.633 107.935 405.633 107.935 407.02V414H106.195V407.14C106.195 405.42 105.395 404.56 103.795 404.56C102.609 404.56 101.789 404.893 101.335 405.56C100.882 406.227 100.655 407.187 100.655 408.44V414H98.8953V403.28H100.315L100.575 404.74H100.675C101.022 404.18 101.502 403.767 102.115 403.5C102.729 403.22 103.375 403.08 104.055 403.08ZM115.399 403.08C116.319 403.08 117.105 403.28 117.759 403.68C118.425 404.08 118.932 404.647 119.279 405.38C119.639 406.1 119.819 406.947 119.819 407.92V408.98H112.479C112.505 410.193 112.812 411.12 113.399 411.76C113.999 412.387 114.832 412.7 115.899 412.7C116.579 412.7 117.179 412.64 117.699 412.52C118.232 412.387 118.779 412.2 119.339 411.96V413.5C118.792 413.74 118.252 413.913 117.719 414.02C117.185 414.14 116.552 414.2 115.819 414.2C114.805 414.2 113.905 413.993 113.119 413.58C112.345 413.167 111.739 412.553 111.299 411.74C110.872 410.913 110.659 409.907 110.659 408.72C110.659 407.547 110.852 406.54 111.239 405.7C111.639 404.86 112.192 404.213 112.899 403.76C113.619 403.307 114.452 403.08 115.399 403.08ZM115.379 404.52C114.539 404.52 113.872 404.793 113.379 405.34C112.899 405.873 112.612 406.62 112.519 407.58H117.979C117.965 406.673 117.752 405.94 117.339 405.38C116.925 404.807 116.272 404.52 115.379 404.52ZM126.608 403.1C127.914 403.1 128.881 403.387 129.508 403.96C130.134 404.533 130.448 405.447 130.448 406.7V414H129.168L128.828 412.48H128.748C128.281 413.067 127.788 413.5 127.268 413.78C126.761 414.06 126.054 414.2 125.148 414.2C124.174 414.2 123.368 413.947 122.728 413.44C122.088 412.92 121.768 412.113 121.768 411.02C121.768 409.953 122.188 409.133 123.028 408.56C123.868 407.973 125.161 407.653 126.908 407.6L128.728 407.54V406.9C128.728 406.007 128.534 405.387 128.148 405.04C127.761 404.693 127.214 404.52 126.508 404.52C125.948 404.52 125.414 404.607 124.908 404.78C124.401 404.94 123.928 405.127 123.488 405.34L122.948 404.02C123.414 403.767 123.968 403.553 124.608 403.38C125.248 403.193 125.914 403.1 126.608 403.1ZM127.128 408.82C125.794 408.873 124.868 409.087 124.348 409.46C123.841 409.833 123.588 410.36 123.588 411.04C123.588 411.64 123.768 412.08 124.128 412.36C124.501 412.64 124.974 412.78 125.548 412.78C126.454 412.78 127.208 412.533 127.808 412.04C128.408 411.533 128.708 410.76 128.708 409.72V408.76L127.128 408.82ZM137.559 414.2C136.225 414.2 135.159 413.74 134.359 412.82C133.559 411.887 133.159 410.5 133.159 408.66C133.159 406.82 133.559 405.433 134.359 404.5C135.172 403.553 136.245 403.08 137.579 403.08C138.405 403.08 139.079 403.233 139.599 403.54C140.132 403.847 140.565 404.22 140.899 404.66H141.019C141.005 404.487 140.979 404.233 140.939 403.9C140.912 403.553 140.899 403.28 140.899 403.08V398.8H142.659V414H141.239L140.979 412.56H140.899C140.579 413.013 140.152 413.4 139.619 413.72C139.085 414.04 138.399 414.2 137.559 414.2ZM137.839 412.74C138.972 412.74 139.765 412.433 140.219 411.82C140.685 411.193 140.919 410.253 140.919 409V408.68C140.919 407.347 140.699 406.327 140.259 405.62C139.819 404.9 139.005 404.54 137.819 404.54C136.872 404.54 136.159 404.92 135.679 405.68C135.212 406.427 134.979 407.433 134.979 408.7C134.979 409.98 135.212 410.973 135.679 411.68C136.159 412.387 136.879 412.74 137.839 412.74ZM155.383 408.62C155.383 410.393 154.93 411.767 154.023 412.74C153.13 413.713 151.917 414.2 150.383 414.2C149.437 414.2 148.59 413.987 147.843 413.56C147.11 413.12 146.53 412.487 146.103 411.66C145.677 410.82 145.463 409.807 145.463 408.62C145.463 406.847 145.91 405.48 146.803 404.52C147.697 403.56 148.91 403.08 150.443 403.08C151.417 403.08 152.27 403.3 153.003 403.74C153.75 404.167 154.33 404.793 154.743 405.62C155.17 406.433 155.383 407.433 155.383 408.62ZM147.283 408.62C147.283 409.887 147.53 410.893 148.023 411.64C148.53 412.373 149.33 412.74 150.423 412.74C151.503 412.74 152.297 412.373 152.803 411.64C153.31 410.893 153.563 409.887 153.563 408.62C153.563 407.353 153.31 406.36 152.803 405.64C152.297 404.92 151.497 404.56 150.403 404.56C149.31 404.56 148.517 404.92 148.023 405.64C147.53 406.36 147.283 407.353 147.283 408.62ZM165.153 411.04C165.153 412.08 164.766 412.867 163.993 413.4C163.219 413.933 162.179 414.2 160.873 414.2C160.126 414.2 159.479 414.14 158.933 414.02C158.399 413.9 157.926 413.733 157.513 413.52V411.92C157.939 412.133 158.453 412.333 159.053 412.52C159.666 412.693 160.286 412.78 160.913 412.78C161.806 412.78 162.453 412.64 162.853 412.36C163.253 412.067 163.453 411.68 163.453 411.2C163.453 410.933 163.379 410.693 163.233 410.48C163.086 410.267 162.819 410.053 162.433 409.84C162.059 409.627 161.519 409.387 160.813 409.12C160.119 408.853 159.526 408.587 159.033 408.32C158.539 408.053 158.159 407.733 157.893 407.36C157.626 406.987 157.493 406.507 157.493 405.92C157.493 405.013 157.859 404.313 158.593 403.82C159.339 403.327 160.313 403.08 161.513 403.08C162.166 403.08 162.773 403.147 163.333 403.28C163.906 403.4 164.439 403.573 164.933 403.8L164.333 405.2C163.879 405.013 163.406 404.853 162.913 404.72C162.419 404.587 161.913 404.52 161.393 404.52C160.673 404.52 160.119 404.64 159.733 404.88C159.359 405.107 159.173 405.42 159.173 405.82C159.173 406.113 159.259 406.367 159.433 406.58C159.606 406.78 159.893 406.98 160.293 407.18C160.706 407.367 161.253 407.593 161.933 407.86C162.613 408.113 163.193 408.373 163.673 408.64C164.153 408.907 164.519 409.233 164.773 409.62C165.026 409.993 165.153 410.467 165.153 411.04Z" fill="#0A1921"/>
<rect x="500" y="475" width="167" height="167" rx="20" fill="#97B9FD"/>
<path d="M553.64 558.46H558.58V565.46C557.807 565.713 557.027 565.9 556.24 566.02C555.453 566.14 554.56 566.2 553.56 566.2C552.08 566.2 550.833 565.907 549.82 565.32C548.807 564.72 548.033 563.873 547.5 562.78C546.98 561.673 546.72 560.367 546.72 558.86C546.72 557.367 547.013 556.073 547.6 554.98C548.187 553.887 549.027 553.04 550.12 552.44C551.227 551.827 552.56 551.52 554.12 551.52C554.92 551.52 555.673 551.593 556.38 551.74C557.1 551.887 557.767 552.093 558.38 552.36L557.7 553.92C557.193 553.693 556.62 553.5 555.98 553.34C555.353 553.18 554.7 553.1 554.02 553.1C552.313 553.1 550.98 553.613 550.02 554.64C549.073 555.667 548.6 557.073 548.6 558.86C548.6 559.993 548.78 561 549.14 561.88C549.513 562.747 550.093 563.427 550.88 563.92C551.667 564.4 552.7 564.64 553.98 564.64C554.607 564.64 555.14 564.607 555.58 564.54C556.02 564.473 556.42 564.393 556.78 564.3V560.06H553.64V558.46ZM565.811 555.1C567.117 555.1 568.084 555.387 568.711 555.96C569.337 556.533 569.651 557.447 569.651 558.7V566H568.371L568.031 564.48H567.951C567.484 565.067 566.991 565.5 566.471 565.78C565.964 566.06 565.257 566.2 564.351 566.2C563.377 566.2 562.571 565.947 561.931 565.44C561.291 564.92 560.971 564.113 560.971 563.02C560.971 561.953 561.391 561.133 562.231 560.56C563.071 559.973 564.364 559.653 566.111 559.6L567.931 559.54V558.9C567.931 558.007 567.737 557.387 567.351 557.04C566.964 556.693 566.417 556.52 565.711 556.52C565.151 556.52 564.617 556.607 564.111 556.78C563.604 556.94 563.131 557.127 562.691 557.34L562.151 556.02C562.617 555.767 563.171 555.553 563.811 555.38C564.451 555.193 565.117 555.1 565.811 555.1ZM566.331 560.82C564.997 560.873 564.071 561.087 563.551 561.46C563.044 561.833 562.791 562.36 562.791 563.04C562.791 563.64 562.971 564.08 563.331 564.36C563.704 564.64 564.177 564.78 564.751 564.78C565.657 564.78 566.411 564.533 567.011 564.04C567.611 563.533 567.911 562.76 567.911 561.72V560.76L566.331 560.82ZM574.722 566H572.962V550.8H574.722V566ZM579.878 566H578.118V550.8H579.878V566ZM587.414 555.08C588.334 555.08 589.121 555.28 589.774 555.68C590.441 556.08 590.948 556.647 591.294 557.38C591.654 558.1 591.834 558.947 591.834 559.92V560.98H584.494C584.521 562.193 584.828 563.12 585.414 563.76C586.014 564.387 586.848 564.7 587.914 564.7C588.594 564.7 589.194 564.64 589.714 564.52C590.248 564.387 590.794 564.2 591.354 563.96V565.5C590.808 565.74 590.268 565.913 589.734 566.02C589.201 566.14 588.568 566.2 587.834 566.2C586.821 566.2 585.921 565.993 585.134 565.58C584.361 565.167 583.754 564.553 583.314 563.74C582.888 562.913 582.674 561.907 582.674 560.72C582.674 559.547 582.868 558.54 583.254 557.7C583.654 556.86 584.208 556.213 584.914 555.76C585.634 555.307 586.468 555.08 587.414 555.08ZM587.394 556.52C586.554 556.52 585.888 556.793 585.394 557.34C584.914 557.873 584.628 558.62 584.534 559.58H589.994C589.981 558.673 589.768 557.94 589.354 557.38C588.941 556.807 588.288 556.52 587.394 556.52ZM598.143 564.76C598.41 564.76 598.683 564.74 598.963 564.7C599.243 564.647 599.47 564.593 599.643 564.54V565.88C599.457 565.973 599.19 566.047 598.843 566.1C598.497 566.167 598.163 566.2 597.843 566.2C597.283 566.2 596.763 566.107 596.283 565.92C595.817 565.72 595.437 565.38 595.143 564.9C594.85 564.42 594.703 563.747 594.703 562.88V556.64H593.183V555.8L594.723 555.1L595.423 552.82H596.463V555.28H599.563V556.64H596.463V562.84C596.463 563.493 596.617 563.98 596.923 564.3C597.243 564.607 597.65 564.76 598.143 564.76ZM605.85 555.1C607.157 555.1 608.123 555.387 608.75 555.96C609.377 556.533 609.69 557.447 609.69 558.7V566H608.41L608.07 564.48H607.99C607.523 565.067 607.03 565.5 606.51 565.78C606.003 566.06 605.297 566.2 604.39 566.2C603.417 566.2 602.61 565.947 601.97 565.44C601.33 564.92 601.01 564.113 601.01 563.02C601.01 561.953 601.43 561.133 602.27 560.56C603.11 559.973 604.403 559.653 606.15 559.6L607.97 559.54V558.9C607.97 558.007 607.777 557.387 607.39 557.04C607.003 556.693 606.457 556.52 605.75 556.52C605.19 556.52 604.657 556.607 604.15 556.78C603.643 556.94 603.17 557.127 602.73 557.34L602.19 556.02C602.657 555.767 603.21 555.553 603.85 555.38C604.49 555.193 605.157 555.1 605.85 555.1ZM606.37 560.82C605.037 560.873 604.11 561.087 603.59 561.46C603.083 561.833 602.83 562.36 602.83 563.04C602.83 563.64 603.01 564.08 603.37 564.36C603.743 564.64 604.217 564.78 604.79 564.78C605.697 564.78 606.45 564.533 607.05 564.04C607.65 563.533 607.95 562.76 607.95 561.72V560.76L606.37 560.82ZM619.981 563.04C619.981 564.08 619.594 564.867 618.821 565.4C618.047 565.933 617.007 566.2 615.701 566.2C614.954 566.2 614.307 566.14 613.761 566.02C613.227 565.9 612.754 565.733 612.341 565.52V563.92C612.767 564.133 613.281 564.333 613.881 564.52C614.494 564.693 615.114 564.78 615.741 564.78C616.634 564.78 617.281 564.64 617.681 564.36C618.081 564.067 618.281 563.68 618.281 563.2C618.281 562.933 618.207 562.693 618.061 562.48C617.914 562.267 617.647 562.053 617.261 561.84C616.887 561.627 616.347 561.387 615.641 561.12C614.947 560.853 614.354 560.587 613.861 560.32C613.367 560.053 612.987 559.733 612.721 559.36C612.454 558.987 612.321 558.507 612.321 557.92C612.321 557.013 612.687 556.313 613.421 555.82C614.167 555.327 615.141 555.08 616.341 555.08C616.994 555.08 617.601 555.147 618.161 555.28C618.734 555.4 619.267 555.573 619.761 555.8L619.161 557.2C618.707 557.013 618.234 556.853 617.741 556.72C617.247 556.587 616.741 556.52 616.221 556.52C615.501 556.52 614.947 556.64 614.561 556.88C614.187 557.107 614.001 557.42 614.001 557.82C614.001 558.113 614.087 558.367 614.261 558.58C614.434 558.78 614.721 558.98 615.121 559.18C615.534 559.367 616.081 559.593 616.761 559.86C617.441 560.113 618.021 560.373 618.501 560.64C618.981 560.907 619.347 561.233 619.601 561.62C619.854 561.993 619.981 562.467 619.981 563.04Z" fill="#0A1921"/>
</svg>
