<svg width="594" height="285" viewBox="0 0 594 285" fill="none" xmlns="http://www.w3.org/2000/svg">
<rect width="168" height="52" fill="#FBCB6E"/>
<path d="M32.652 38V15.216H38.54V38H32.652ZM17.548 38V15.216H23.436V38H17.548ZM19.308 28.784V24.08H36.204V28.784H19.308ZM42.4817 38V21.744H48.2738V38H42.4817ZM42.3217 13.776H48.3698V18.992H42.3217V13.776ZM51.8917 44.912V26.416C51.8917 25.648 51.8704 24.8693 51.8277 24.08C51.8064 23.2907 51.7424 22.512 51.6357 21.744H57.0757L57.4598 24.784L57.2678 24.592C57.6091 23.6107 58.2704 22.8213 59.2517 22.224C60.2331 21.6053 61.3531 21.296 62.6118 21.296C64.0198 21.296 65.2571 21.6587 66.3237 22.384C67.4118 23.1093 68.2651 24.1227 68.8838 25.424C69.5024 26.704 69.8118 28.1973 69.8118 29.904C69.8118 31.5893 69.5024 33.0613 68.8838 34.32C68.2651 35.5787 67.4118 36.5493 66.3237 37.232C65.2571 37.9147 64.0198 38.256 62.6118 38.256C61.3531 38.256 60.2331 37.968 59.2517 37.392C58.2704 36.816 57.6091 36.0267 57.2678 35.024L57.6838 34.288V44.912H51.8917ZM60.8518 33.936C61.8971 33.936 62.6864 33.5947 63.2198 32.912C63.7531 32.208 64.0198 31.2053 64.0198 29.904C64.0198 28.56 63.7424 27.5253 63.1877 26.8C62.6544 26.0533 61.8758 25.68 60.8518 25.68C59.8064 25.68 59.0064 26.032 58.4517 26.736C57.8971 27.44 57.6198 28.4747 57.6198 29.84C57.6198 31.1627 57.8971 32.176 58.4517 32.88C59.0064 33.584 59.8064 33.936 60.8518 33.936ZM73.4655 31.568V27.088H83.8335V31.568H73.4655ZM103.136 38V15.216H109.024V38H103.136ZM88.0317 38V15.216H93.9197V38H88.0317ZM89.7917 28.784V24.08H106.688V28.784H89.7917ZM121.158 38.256C119.323 38.256 117.734 37.9147 116.39 37.232C115.067 36.5493 114.043 35.5787 113.318 34.32C112.592 33.04 112.23 31.5253 112.23 29.776C112.23 28.048 112.592 26.5547 113.318 25.296C114.043 24.016 115.067 23.0347 116.39 22.352C117.734 21.648 119.323 21.296 121.158 21.296C122.95 21.296 124.507 21.648 125.83 22.352C127.174 23.0347 128.208 24.016 128.934 25.296C129.659 26.5547 130.022 28.048 130.022 29.776C130.022 31.5253 129.659 33.04 128.934 34.32C128.208 35.5787 127.174 36.5493 125.83 37.232C124.507 37.9147 122.95 38.256 121.158 38.256ZM121.158 33.936C122.16 33.936 122.928 33.6053 123.462 32.944C124.016 32.2827 124.294 31.2267 124.294 29.776C124.294 28.3467 124.027 27.3013 123.494 26.64C122.96 25.9787 122.182 25.648 121.158 25.648C120.112 25.648 119.312 25.9787 118.758 26.64C118.224 27.3013 117.958 28.3467 117.958 29.776C117.958 31.2267 118.224 32.2827 118.758 32.944C119.312 33.6053 120.112 33.936 121.158 33.936ZM132.907 44.912V26.416C132.907 25.648 132.885 24.8693 132.843 24.08C132.821 23.2907 132.757 22.512 132.651 21.744H138.091L138.475 24.784L138.283 24.592C138.624 23.6107 139.285 22.8213 140.267 22.224C141.248 21.6053 142.368 21.296 143.627 21.296C145.035 21.296 146.272 21.6587 147.339 22.384C148.427 23.1093 149.28 24.1227 149.899 25.424C150.517 26.704 150.827 28.1973 150.827 29.904C150.827 31.5893 150.517 33.0613 149.899 34.32C149.28 35.5787 148.427 36.5493 147.339 37.232C146.272 37.9147 145.035 38.256 143.627 38.256C142.368 38.256 141.248 37.968 140.267 37.392C139.285 36.816 138.624 36.0267 138.283 35.024L138.699 34.288V44.912H132.907ZM141.867 33.936C142.912 33.936 143.701 33.5947 144.235 32.912C144.768 32.208 145.035 31.2053 145.035 29.904C145.035 28.56 144.757 27.5253 144.203 26.8C143.669 26.0533 142.891 25.68 141.867 25.68C140.821 25.68 140.021 26.032 139.467 26.736C138.912 27.44 138.635 28.4747 138.635 29.84C138.635 31.1627 138.912 32.176 139.467 32.88C140.021 33.584 140.821 33.936 141.867 33.936Z" fill="#050505"/>
<rect width="168" height="52" transform="translate(213)" fill="#FFA9B8"/>
<path d="M268.048 38V15.216H278.896C281.541 15.216 283.568 15.8453 284.976 17.104C286.384 18.3627 287.088 20.048 287.088 22.16C287.088 24.272 286.373 25.9573 284.944 27.216C283.515 28.4747 281.499 29.104 278.896 29.104H274.064V38H268.048ZM274.064 24.624H278.096C279.269 24.624 280.123 24.4213 280.656 24.016C281.211 23.5893 281.488 22.992 281.488 22.224C281.488 21.4133 281.221 20.8053 280.688 20.4C280.155 19.9733 279.291 19.76 278.096 19.76H274.064V24.624ZM297.299 38.256C295.464 38.256 293.875 37.9147 292.531 37.232C291.208 36.5493 290.184 35.5787 289.459 34.32C288.733 33.04 288.371 31.5253 288.371 29.776C288.371 28.048 288.733 26.5547 289.459 25.296C290.184 24.016 291.208 23.0347 292.531 22.352C293.875 21.648 295.464 21.296 297.299 21.296C299.091 21.296 300.648 21.648 301.971 22.352C303.315 23.0347 304.349 24.016 305.075 25.296C305.8 26.5547 306.163 28.048 306.163 29.776C306.163 31.5253 305.8 33.04 305.075 34.32C304.349 35.5787 303.315 36.5493 301.971 37.232C300.648 37.9147 299.091 38.256 297.299 38.256ZM297.299 33.936C298.301 33.936 299.069 33.6053 299.603 32.944C300.157 32.2827 300.435 31.2267 300.435 29.776C300.435 28.3467 300.168 27.3013 299.635 26.64C299.101 25.9787 298.323 25.648 297.299 25.648C296.253 25.648 295.453 25.9787 294.899 26.64C294.365 27.3013 294.099 28.3467 294.099 29.776C294.099 31.2267 294.365 32.2827 294.899 32.944C295.453 33.6053 296.253 33.936 297.299 33.936ZM309.048 44.912V26.416C309.048 25.648 309.027 24.8693 308.984 24.08C308.963 23.2907 308.899 22.512 308.792 21.744H314.232L314.616 24.784L314.424 24.592C314.765 23.6107 315.427 22.8213 316.408 22.224C317.389 21.6053 318.509 21.296 319.768 21.296C321.176 21.296 322.413 21.6587 323.48 22.384C324.568 23.1093 325.421 24.1227 326.04 25.424C326.659 26.704 326.968 28.1973 326.968 29.904C326.968 31.5893 326.659 33.0613 326.04 34.32C325.421 35.5787 324.568 36.5493 323.48 37.232C322.413 37.9147 321.176 38.256 319.768 38.256C318.509 38.256 317.389 37.968 316.408 37.392C315.427 36.816 314.765 36.0267 314.424 35.024L314.84 34.288V44.912H309.048ZM318.008 33.936C319.053 33.936 319.843 33.5947 320.376 32.912C320.909 32.208 321.176 31.2053 321.176 29.904C321.176 28.56 320.899 27.5253 320.344 26.8C319.811 26.0533 319.032 25.68 318.008 25.68C316.963 25.68 316.163 26.032 315.608 26.736C315.053 27.44 314.776 28.4747 314.776 29.84C314.776 31.1627 315.053 32.176 315.608 32.88C316.163 33.584 316.963 33.936 318.008 33.936Z" fill="#050505"/>
<rect width="168" height="52" transform="translate(426)" fill="#957AFF"/>
<path d="M476.048 38V15.216H492.304V19.824H481.904V24.112H491.632V28.72H481.904V33.392H492.304V38H476.048ZM495.52 38V15.216H504.833C507.371 15.216 509.547 15.6747 511.361 16.592C513.174 17.488 514.561 18.7893 515.521 20.496C516.502 22.1813 516.993 24.208 516.993 26.576C516.993 28.9653 516.513 31.0133 515.553 32.72C514.593 34.4267 513.206 35.7387 511.392 36.656C509.579 37.552 507.393 38 504.833 38H495.52ZM501.536 33.2H504.417C506.635 33.2 508.289 32.656 509.377 31.568C510.486 30.4587 511.041 28.7947 511.041 26.576C511.041 22.2027 508.833 20.016 504.417 20.016H501.536V33.2ZM520.776 38V15.216H525.481L533.289 33.04H531.305L539.081 15.216H543.753V38H538.505L538.472 24.304L539.689 24.656L534.153 38H530.345L524.713 24.656L525.992 24.304V38H520.776Z" fill="#050505"/>
<rect width="168" height="52" transform="translate(0 92)" fill="#B8FF20"/>
<path d="M51.548 130V107.216H62.14C64.9133 107.216 66.9827 107.813 68.348 109.008C69.7347 110.203 70.428 111.888 70.428 114.064C70.428 116.112 69.7027 117.776 68.252 119.056C66.8227 120.315 64.828 120.944 62.268 120.944L65.02 120.368C65.788 120.368 66.492 120.613 67.132 121.104C67.7933 121.573 68.3053 122.277 68.668 123.216L71.356 130H64.988L62.044 122.416C61.852 121.947 61.532 121.616 61.084 121.424C60.636 121.232 60.156 121.136 59.644 121.136H57.468V130H51.548ZM57.404 116.656H61.18C62.4813 116.656 63.4093 116.464 63.964 116.08C64.54 115.675 64.828 115.056 64.828 114.224C64.828 113.349 64.54 112.72 63.964 112.336C63.4093 111.952 62.4813 111.76 61.18 111.76H57.404V116.656ZM81.6877 130.256C80.0237 130.256 78.5518 129.989 77.2717 129.456C76.0131 128.901 75.0211 128.133 74.2957 127.152C73.5917 126.171 73.2397 125.029 73.2397 123.728C73.2397 122.021 73.7944 120.56 74.9037 119.344C76.0131 118.107 77.7517 117.019 80.1198 116.08C81.1224 115.696 81.9224 115.323 82.5198 114.96C83.1384 114.597 83.5864 114.224 83.8638 113.84C84.1411 113.456 84.2798 113.04 84.2798 112.592C84.2798 112.016 84.1091 111.568 83.7678 111.248C83.4478 110.907 83.0318 110.736 82.5198 110.736C81.9224 110.736 81.4318 110.917 81.0478 111.28C80.6851 111.643 80.5037 112.144 80.5037 112.784C80.5037 113.083 80.5677 113.381 80.6958 113.68C80.8451 113.979 81.0904 114.32 81.4318 114.704C81.7944 115.088 82.2957 115.589 82.9358 116.208L90.7758 123.44C91.6078 124.251 92.4824 124.891 93.3998 125.36C94.3171 125.829 95.2984 126.16 96.3438 126.352L93.6238 130.32C92.4291 130.043 91.3518 129.659 90.3918 129.168C89.4531 128.677 88.5464 128.005 87.6718 127.152L77.9437 117.904C77.3891 117.392 76.9198 116.859 76.5357 116.304C76.1517 115.749 75.8637 115.184 75.6718 114.608C75.5011 114.011 75.4158 113.424 75.4158 112.848C75.4158 111.675 75.7038 110.651 76.2798 109.776C76.8771 108.901 77.6984 108.219 78.7438 107.728C79.8104 107.237 81.0371 106.992 82.4237 106.992C84.3651 106.992 85.9118 107.483 87.0638 108.464C88.2158 109.445 88.7917 110.747 88.7917 112.368C88.7917 113.371 88.5571 114.288 88.0878 115.12C87.6184 115.952 86.9251 116.709 86.0078 117.392C85.0904 118.075 83.9491 118.661 82.5838 119.152C81.7518 119.451 81.0584 119.803 80.5037 120.208C79.9491 120.613 79.5331 121.083 79.2558 121.616C78.9998 122.128 78.8718 122.693 78.8718 123.312C78.8718 124.123 79.1384 124.763 79.6718 125.232C80.2264 125.68 80.9518 125.904 81.8478 125.904C83.1491 125.904 84.3544 125.467 85.4638 124.592C86.5944 123.696 87.5224 122.491 88.2478 120.976C88.9944 119.44 89.4318 117.733 89.5598 115.856H94.2958C94.1891 117.883 93.7838 119.771 93.0798 121.52C92.3971 123.269 91.4798 124.805 90.3278 126.128C89.1971 127.429 87.8958 128.443 86.4238 129.168C84.9518 129.893 83.3731 130.256 81.6877 130.256ZM97.3992 130V107.216H108.471C110.839 107.216 112.727 107.749 114.135 108.816C115.565 109.883 116.279 111.323 116.279 113.136C116.279 114.373 115.927 115.461 115.223 116.4C114.541 117.317 113.559 117.957 112.279 118.32V118.064C113.773 118.427 114.914 119.099 115.703 120.08C116.514 121.061 116.919 122.288 116.919 123.76C116.919 125.637 116.183 127.152 114.711 128.304C113.261 129.435 111.277 130 108.759 130H97.3992ZM103.255 125.456H108.055C109.207 125.456 110.029 125.275 110.519 124.912C111.031 124.549 111.287 123.941 111.287 123.088C111.287 122.235 111.042 121.627 110.551 121.264C110.061 120.88 109.229 120.688 108.055 120.688H103.255V125.456ZM103.255 116.144H107.447C108.557 116.144 109.367 115.973 109.879 115.632C110.391 115.291 110.647 114.747 110.647 114C110.647 113.211 110.381 112.645 109.847 112.304C109.335 111.941 108.535 111.76 107.447 111.76H103.255V116.144Z" fill="#050505"/>
<rect width="168" height="52" transform="translate(213 92)" fill="#9FD8F8"/>
<path d="M238.048 130V107.216H248.64C251.413 107.216 253.483 107.813 254.848 109.008C256.235 110.203 256.928 111.888 256.928 114.064C256.928 116.112 256.203 117.776 254.752 119.056C253.323 120.315 251.328 120.944 248.768 120.944L251.52 120.368C252.288 120.368 252.992 120.613 253.632 121.104C254.293 121.573 254.805 122.277 255.168 123.216L257.856 130H251.488L248.544 122.416C248.352 121.947 248.032 121.616 247.584 121.424C247.136 121.232 246.656 121.136 246.144 121.136H243.968V130H238.048ZM243.904 116.656H247.68C248.981 116.656 249.909 116.464 250.464 116.08C251.04 115.675 251.328 115.056 251.328 114.224C251.328 113.349 251.04 112.72 250.464 112.336C249.909 111.952 248.981 111.76 247.68 111.76H243.904V116.656ZM275.452 128.336C274.641 128.955 273.66 129.435 272.508 129.776C271.356 130.096 270.204 130.256 269.052 130.256C267.174 130.256 265.553 129.915 264.188 129.232C262.844 128.549 261.809 127.579 261.084 126.32C260.358 125.04 259.996 123.536 259.996 121.808C259.996 120.144 260.337 118.672 261.02 117.392C261.724 116.112 262.684 115.109 263.9 114.384C265.116 113.659 266.524 113.296 268.124 113.296C269.681 113.296 271.025 113.637 272.156 114.32C273.308 115.003 274.193 115.973 274.812 117.232C275.43 118.491 275.74 119.973 275.74 121.68V122.448H265.116L265.18 119.76H272.252L270.844 120.688C270.844 119.536 270.62 118.683 270.172 118.128C269.745 117.552 269.116 117.264 268.284 117.264C267.366 117.264 266.662 117.605 266.172 118.288C265.702 118.949 265.468 119.963 265.468 121.328C265.468 123.013 265.777 124.219 266.396 124.944C267.014 125.648 267.996 126 269.34 126C270.15 126 270.961 125.872 271.772 125.616C272.604 125.339 273.34 124.965 273.98 124.496L275.452 128.336ZM285.011 130.256C283.625 130.256 282.387 129.915 281.299 129.232C280.211 128.549 279.358 127.579 278.739 126.32C278.142 125.061 277.843 123.589 277.843 121.904C277.843 120.197 278.153 118.704 278.771 117.424C279.39 116.123 280.233 115.109 281.299 114.384C282.387 113.659 283.625 113.296 285.011 113.296C286.249 113.296 287.358 113.605 288.339 114.224C289.342 114.821 290.025 115.611 290.387 116.592L290.003 116.816V113.744H295.699V130H290.003V127.024H290.387C290.025 128.027 289.342 128.816 288.339 129.392C287.358 129.968 286.249 130.256 285.011 130.256ZM286.803 125.936C287.806 125.936 288.585 125.584 289.139 124.88C289.715 124.176 290.003 123.163 290.003 121.84C290.003 120.475 289.726 119.44 289.171 118.736C288.617 118.032 287.827 117.68 286.803 117.68C285.801 117.68 285.011 118.053 284.435 118.8C283.859 119.525 283.571 120.56 283.571 121.904C283.571 123.205 283.849 124.208 284.403 124.912C284.958 125.595 285.758 125.936 286.803 125.936ZM307.174 137.168C304.571 137.168 302.278 136.699 300.294 135.76L301.158 131.536C302.118 131.984 303.099 132.325 304.102 132.56C305.126 132.795 306.086 132.912 306.982 132.912C308.304 132.912 309.275 132.624 309.894 132.048C310.534 131.493 310.854 130.619 310.854 129.424V125.904L311.238 126.384C310.982 126.875 310.587 127.365 310.054 127.856C309.52 128.347 308.88 128.752 308.134 129.072C307.408 129.392 306.63 129.552 305.798 129.552C304.411 129.552 303.163 129.221 302.054 128.56C300.966 127.899 300.112 126.96 299.494 125.744C298.875 124.507 298.566 123.067 298.566 121.424C298.566 119.803 298.875 118.384 299.494 117.168C300.112 115.952 300.966 115.003 302.054 114.32C303.163 113.637 304.411 113.296 305.798 113.296C307.056 113.296 308.187 113.605 309.19 114.224C310.192 114.821 310.875 115.6 311.238 116.56L310.854 117.136V113.744H316.614V128.976C316.614 131.664 315.814 133.701 314.214 135.088C312.614 136.475 310.267 137.168 307.174 137.168ZM307.59 125.232C308.614 125.232 309.414 124.901 309.99 124.24C310.566 123.557 310.854 122.619 310.854 121.424C310.854 120.272 310.566 119.365 309.99 118.704C309.435 118.021 308.635 117.68 307.59 117.68C306.566 117.68 305.755 118.011 305.158 118.672C304.582 119.333 304.294 120.251 304.294 121.424C304.294 122.597 304.592 123.525 305.19 124.208C305.787 124.891 306.587 125.232 307.59 125.232ZM328.052 137.168C325.45 137.168 323.156 136.699 321.172 135.76L322.036 131.536C322.996 131.984 323.978 132.325 324.98 132.56C326.004 132.795 326.964 132.912 327.86 132.912C329.183 132.912 330.154 132.624 330.773 132.048C331.413 131.493 331.733 130.619 331.733 129.424V125.904L332.116 126.384C331.861 126.875 331.466 127.365 330.932 127.856C330.399 128.347 329.759 128.752 329.012 129.072C328.287 129.392 327.508 129.552 326.676 129.552C325.29 129.552 324.042 129.221 322.932 128.56C321.844 127.899 320.991 126.96 320.372 125.744C319.754 124.507 319.444 123.067 319.444 121.424C319.444 119.803 319.754 118.384 320.372 117.168C320.991 115.952 321.844 115.003 322.932 114.32C324.042 113.637 325.29 113.296 326.676 113.296C327.935 113.296 329.066 113.605 330.068 114.224C331.071 114.821 331.754 115.6 332.116 116.56L331.733 117.136V113.744H337.493V128.976C337.493 131.664 336.693 133.701 335.093 135.088C333.493 136.475 331.146 137.168 328.052 137.168ZM328.469 125.232C329.493 125.232 330.293 124.901 330.868 124.24C331.444 123.557 331.733 122.619 331.733 121.424C331.733 120.272 331.444 119.365 330.868 118.704C330.314 118.021 329.514 117.68 328.469 117.68C327.444 117.68 326.634 118.011 326.036 118.672C325.46 119.333 325.172 120.251 325.172 121.424C325.172 122.597 325.471 123.525 326.068 124.208C326.666 124.891 327.466 125.232 328.469 125.232ZM355.779 128.336C354.969 128.955 353.987 129.435 352.835 129.776C351.683 130.096 350.531 130.256 349.379 130.256C347.502 130.256 345.881 129.915 344.515 129.232C343.171 128.549 342.137 127.579 341.411 126.32C340.686 125.04 340.323 123.536 340.323 121.808C340.323 120.144 340.665 118.672 341.347 117.392C342.051 116.112 343.011 115.109 344.227 114.384C345.443 113.659 346.851 113.296 348.451 113.296C350.009 113.296 351.353 113.637 352.483 114.32C353.635 115.003 354.521 115.973 355.139 117.232C355.758 118.491 356.067 119.973 356.067 121.68V122.448H345.443L345.507 119.76H352.579L351.171 120.688C351.171 119.536 350.947 118.683 350.499 118.128C350.073 117.552 349.443 117.264 348.611 117.264C347.694 117.264 346.99 117.605 346.499 118.288C346.03 118.949 345.795 119.963 345.795 121.328C345.795 123.013 346.105 124.219 346.723 124.944C347.342 125.648 348.323 126 349.667 126C350.478 126 351.289 125.872 352.099 125.616C352.931 125.339 353.667 124.965 354.307 124.496L355.779 128.336Z" fill="#050505"/>
<rect width="168" height="52" transform="translate(426 92)" fill="#FF6939"/>
<path d="M472.548 130V107.216H483.14C485.913 107.216 487.983 107.813 489.348 109.008C490.735 110.203 491.428 111.888 491.428 114.064C491.428 116.112 490.703 117.776 489.252 119.056C487.823 120.315 485.828 120.944 483.268 120.944L486.02 120.368C486.788 120.368 487.492 120.613 488.132 121.104C488.793 121.573 489.305 122.277 489.668 123.216L492.356 130H485.988L483.044 122.416C482.852 121.947 482.532 121.616 482.084 121.424C481.636 121.232 481.156 121.136 480.644 121.136H478.468V130H472.548ZM478.404 116.656H482.18C483.481 116.656 484.409 116.464 484.964 116.08C485.54 115.675 485.828 115.056 485.828 114.224C485.828 113.349 485.54 112.72 484.964 112.336C484.409 111.952 483.481 111.76 482.18 111.76H478.404V116.656ZM503.424 130.256C501.589 130.256 500 129.915 498.656 129.232C497.333 128.549 496.309 127.579 495.584 126.32C494.858 125.04 494.496 123.525 494.496 121.776C494.496 120.048 494.858 118.555 495.584 117.296C496.309 116.016 497.333 115.035 498.656 114.352C500 113.648 501.589 113.296 503.424 113.296C505.216 113.296 506.773 113.648 508.096 114.352C509.44 115.035 510.474 116.016 511.2 117.296C511.925 118.555 512.288 120.048 512.288 121.776C512.288 123.525 511.925 125.04 511.2 126.32C510.474 127.579 509.44 128.549 508.096 129.232C506.773 129.915 505.216 130.256 503.424 130.256ZM503.424 125.936C504.426 125.936 505.194 125.605 505.728 124.944C506.282 124.283 506.56 123.227 506.56 121.776C506.56 120.347 506.293 119.301 505.76 118.64C505.226 117.979 504.448 117.648 503.424 117.648C502.378 117.648 501.578 117.979 501.024 118.64C500.49 119.301 500.224 120.347 500.224 121.776C500.224 123.227 500.49 124.283 501.024 124.944C501.578 125.605 502.378 125.936 503.424 125.936ZM523.237 130.256C521.402 130.256 519.824 129.925 518.501 129.264C517.178 128.581 516.165 127.611 515.461 126.352C514.778 125.093 514.437 123.611 514.437 121.904C514.437 120.176 514.81 118.672 515.557 117.392C516.325 116.091 517.381 115.088 518.725 114.384C520.09 113.659 521.68 113.296 523.493 113.296C524.688 113.296 525.861 113.477 527.013 113.84C528.165 114.181 529.082 114.651 529.765 115.248L528.293 119.248C527.717 118.779 527.045 118.405 526.277 118.128C525.509 117.851 524.773 117.712 524.069 117.712C522.917 117.712 522.01 118.043 521.349 118.704C520.688 119.365 520.357 120.389 520.357 121.776C520.357 123.184 520.677 124.229 521.317 124.912C521.978 125.573 522.906 125.904 524.101 125.904C524.784 125.904 525.509 125.776 526.277 125.52C527.045 125.243 527.717 124.859 528.293 124.368L529.765 128.304C529.04 128.923 528.09 129.403 526.917 129.744C525.765 130.085 524.538 130.256 523.237 130.256ZM543.13 130L536.602 121.744L543.034 113.776H549.882L542.33 122.928L542.618 120.464L550.138 130H543.13ZM531.802 130V106.448H537.594V130H531.802Z" fill="#050505"/>
<rect width="168" height="52" transform="translate(0 184)" fill="#00FFB2"/>
<path d="M16.12 222.288C13.7307 222.288 11.6613 221.808 9.912 220.848C8.16267 219.867 6.808 218.501 5.848 216.752C4.90933 214.981 4.44 212.923 4.44 210.576C4.44 208.251 4.90933 206.213 5.848 204.464C6.808 202.715 8.16267 201.36 9.912 200.4C11.6613 199.419 13.7307 198.928 16.12 198.928C17.6133 198.928 19.0533 199.152 20.44 199.6C21.848 200.048 22.9787 200.656 23.832 201.424L22.008 205.68C21.0267 204.976 20.0667 204.464 19.128 204.144C18.1893 203.824 17.2293 203.664 16.248 203.664C14.4347 203.664 13.0267 204.24 12.024 205.392C11.0427 206.544 10.552 208.272 10.552 210.576C10.552 212.88 11.0427 214.619 12.024 215.792C13.0267 216.965 14.4347 217.552 16.248 217.552C17.2293 217.552 18.1893 217.392 19.128 217.072C20.0667 216.752 21.0267 216.24 22.008 215.536L23.832 219.792C22.9787 220.56 21.848 221.168 20.44 221.616C19.0533 222.064 17.6133 222.288 16.12 222.288ZM26.7942 222V198.448H32.5863V209.04L31.9783 208.656C32.5756 207.589 33.3543 206.768 34.3142 206.192C35.2956 205.595 36.4156 205.296 37.6743 205.296C41.4929 205.296 43.4023 207.632 43.4023 212.304V222H37.6103V212.56C37.6103 211.557 37.4396 210.843 37.0983 210.416C36.7569 209.968 36.2236 209.744 35.4983 209.744C34.6236 209.744 33.9196 210.043 33.3863 210.64C32.8529 211.216 32.5863 211.984 32.5863 212.944V222H26.7942ZM46.923 222V210.416C46.923 209.648 46.9017 208.869 46.859 208.08C46.8377 207.291 46.7737 206.512 46.667 205.744H52.107L52.651 210.128L52.107 209.808C52.3203 208.336 52.907 207.227 53.867 206.48C54.8483 205.733 55.9577 205.36 57.195 205.36C57.6003 205.36 57.9523 205.392 58.251 205.456C58.5497 205.52 58.8057 205.605 59.019 205.712V210.992C58.1017 210.565 57.2163 210.352 56.363 210.352C55.595 210.352 54.9443 210.48 54.411 210.736C53.8777 210.971 53.4617 211.344 53.163 211.856C52.8643 212.368 52.715 213.029 52.715 213.84V222H46.923ZM60.833 222V205.744H66.625V222H60.833ZM60.673 197.776H66.721V202.992H60.673V197.776ZM76.803 222.256C73.5603 222.256 71.0003 221.605 69.123 220.304L70.595 216.368C71.4697 216.965 72.4617 217.435 73.571 217.776C74.7017 218.096 75.7897 218.256 76.835 218.256C77.4963 218.256 78.0083 218.16 78.371 217.968C78.7337 217.776 78.915 217.509 78.915 217.168C78.915 216.869 78.7763 216.635 78.499 216.464C78.243 216.293 77.7417 216.123 76.995 215.952L74.371 215.344C72.707 215.003 71.5017 214.469 70.755 213.744C70.0297 212.997 69.667 211.973 69.667 210.672C69.667 209.627 69.9763 208.699 70.595 207.888C71.2137 207.077 72.067 206.448 73.155 206C74.2643 205.531 75.5337 205.296 76.963 205.296C78.1577 205.296 79.3203 205.477 80.451 205.84C81.5817 206.181 82.627 206.651 83.587 207.248L82.051 211.088C81.1977 210.533 80.323 210.107 79.427 209.808C78.531 209.509 77.6883 209.36 76.899 209.36C76.2803 209.36 75.779 209.467 75.395 209.68C75.0323 209.872 74.851 210.16 74.851 210.544C74.851 210.779 74.9577 210.971 75.171 211.12C75.3843 211.248 75.7897 211.387 76.387 211.536L79.107 212.144C80.835 212.528 82.0723 213.115 82.819 213.904C83.587 214.693 83.971 215.76 83.971 217.104C83.971 218.704 83.331 219.963 82.051 220.88C80.7923 221.797 79.043 222.256 76.803 222.256ZM84.8335 210V205.744H97.5695V210H84.8335ZM97.6015 217.392V221.776C97.1108 221.968 96.6202 222.096 96.1295 222.16C95.6388 222.224 95.1268 222.256 94.5935 222.256C92.3535 222.256 90.6682 221.627 89.5375 220.368C88.4282 219.109 87.8735 217.403 87.8735 215.248V202.064L93.6655 200.208V215.248C93.6655 215.781 93.7722 216.229 93.9855 216.592C94.2202 216.933 94.5188 217.189 94.8815 217.36C95.2442 217.509 95.6388 217.584 96.0655 217.584C96.2788 217.584 96.5028 217.573 96.7375 217.552C96.9935 217.509 97.2815 217.456 97.6015 217.392ZM99.938 222V210.416C99.938 209.648 99.9167 208.869 99.874 208.08C99.8527 207.291 99.7887 206.512 99.682 205.744H105.122L105.506 208.816L105.122 208.56C105.591 207.536 106.285 206.736 107.202 206.16C108.141 205.584 109.25 205.296 110.53 205.296C111.981 205.296 113.133 205.68 113.986 206.448C114.861 207.195 115.437 208.315 115.714 209.808L114.946 208.784C115.479 207.739 116.247 206.896 117.25 206.256C118.274 205.616 119.405 205.296 120.642 205.296C122.541 205.296 123.938 205.883 124.834 207.056C125.73 208.208 126.178 209.957 126.178 212.304V222H120.386V212.464C120.386 211.525 120.247 210.843 119.97 210.416C119.693 209.968 119.202 209.744 118.498 209.744C117.687 209.744 117.058 210.043 116.61 210.64C116.162 211.237 115.938 212.08 115.938 213.168V222H110.146V212.464C110.146 211.525 109.997 210.843 109.698 210.416C109.421 209.968 108.941 209.744 108.258 209.744C107.447 209.744 106.818 210.043 106.37 210.64C105.943 211.237 105.73 212.08 105.73 213.168V222H99.938ZM136.124 222.256C134.737 222.256 133.5 221.915 132.412 221.232C131.324 220.549 130.47 219.579 129.852 218.32C129.254 217.061 128.956 215.589 128.956 213.904C128.956 212.197 129.265 210.704 129.884 209.424C130.502 208.123 131.345 207.109 132.412 206.384C133.5 205.659 134.737 205.296 136.124 205.296C137.361 205.296 138.47 205.605 139.452 206.224C140.454 206.821 141.137 207.611 141.5 208.592L141.116 208.816V205.744H146.812V222H141.116V219.024H141.5C141.137 220.027 140.454 220.816 139.452 221.392C138.47 221.968 137.361 222.256 136.124 222.256ZM137.916 217.936C138.918 217.936 139.697 217.584 140.252 216.88C140.828 216.176 141.116 215.163 141.116 213.84C141.116 212.475 140.838 211.44 140.284 210.736C139.729 210.032 138.94 209.68 137.916 209.68C136.913 209.68 136.124 210.053 135.548 210.8C134.972 211.525 134.684 212.56 134.684 213.904C134.684 215.205 134.961 216.208 135.516 216.912C136.07 217.595 136.87 217.936 137.916 217.936ZM156.974 222.256C153.732 222.256 151.172 221.605 149.294 220.304L150.766 216.368C151.641 216.965 152.633 217.435 153.742 217.776C154.873 218.096 155.961 218.256 157.006 218.256C157.668 218.256 158.18 218.16 158.542 217.968C158.905 217.776 159.086 217.509 159.086 217.168C159.086 216.869 158.948 216.635 158.67 216.464C158.414 216.293 157.913 216.123 157.166 215.952L154.542 215.344C152.878 215.003 151.673 214.469 150.926 213.744C150.201 212.997 149.838 211.973 149.838 210.672C149.838 209.627 150.148 208.699 150.766 207.888C151.385 207.077 152.238 206.448 153.326 206C154.436 205.531 155.705 205.296 157.134 205.296C158.329 205.296 159.492 205.477 160.622 205.84C161.753 206.181 162.798 206.651 163.758 207.248L162.222 211.088C161.369 210.533 160.494 210.107 159.598 209.808C158.702 209.509 157.86 209.36 157.07 209.36C156.452 209.36 155.95 209.467 155.566 209.68C155.204 209.872 155.022 210.16 155.022 210.544C155.022 210.779 155.129 210.971 155.342 211.12C155.556 211.248 155.961 211.387 156.558 211.536L159.278 212.144C161.006 212.528 162.244 213.115 162.99 213.904C163.758 214.693 164.142 215.76 164.142 217.104C164.142 218.704 163.502 219.963 162.222 220.88C160.964 221.797 159.214 222.256 156.974 222.256Z" fill="#050505"/>
<rect width="168" height="52" transform="translate(213 184)" fill="#A0FF73"/>
<path d="M265.048 222V199.216H280.952V203.92H270.968V208.08H280.312V212.752H270.968V222H265.048ZM291.455 222.256C289.62 222.256 288.031 221.915 286.687 221.232C285.364 220.549 284.34 219.579 283.615 218.32C282.89 217.04 282.527 215.525 282.527 213.776C282.527 212.048 282.89 210.555 283.615 209.296C284.34 208.016 285.364 207.035 286.687 206.352C288.031 205.648 289.62 205.296 291.455 205.296C293.247 205.296 294.804 205.648 296.127 206.352C297.471 207.035 298.506 208.016 299.231 209.296C299.956 210.555 300.319 212.048 300.319 213.776C300.319 215.525 299.956 217.04 299.231 218.32C298.506 219.579 297.471 220.549 296.127 221.232C294.804 221.915 293.247 222.256 291.455 222.256ZM291.455 217.936C292.458 217.936 293.226 217.605 293.759 216.944C294.314 216.283 294.591 215.227 294.591 213.776C294.591 212.347 294.324 211.301 293.791 210.64C293.258 209.979 292.479 209.648 291.455 209.648C290.41 209.648 289.61 209.979 289.055 210.64C288.522 211.301 288.255 212.347 288.255 213.776C288.255 215.227 288.522 216.283 289.055 216.944C289.61 217.605 290.41 217.936 291.455 217.936ZM303.204 222V198.448H308.996V222H303.204ZM323.942 222L317.414 213.744L323.846 205.776H330.694L323.142 214.928L323.43 212.464L330.95 222H323.942ZM312.614 222V198.448H318.406V222H312.614Z" fill="#050505"/>
<path d="M180.32 188.784L180.008 193.56L184.64 192.072L184.904 193.512L180.344 194.376L183.272 198.216L181.952 198.984L179.552 194.856L177.248 198.984L175.904 198.216L178.808 194.376L174.248 193.512L174.512 192.072L179.12 193.56L178.808 188.784H180.32Z" fill="#050505"/>
<path d="M393.32 188.784L393.008 193.56L397.64 192.072L397.904 193.512L393.344 194.376L396.272 198.216L394.952 198.984L392.552 194.856L390.248 198.984L388.904 198.216L391.808 194.376L387.248 193.512L387.512 192.072L392.12 193.56L391.808 188.784H393.32Z" fill="black"/>
<path d="M4.88 267.856L4.672 271.04L7.76 270.048L7.936 271.008L4.896 271.584L6.848 274.144L5.968 274.656L4.368 271.904L2.832 274.656L1.936 274.144L3.872 271.584L0.832 271.008L1.008 270.048L4.08 271.04L3.872 267.856H4.88ZM21.0648 277.024C21.0648 277.707 20.8941 278.283 20.5528 278.752C20.2114 279.221 19.7421 279.573 19.1448 279.808C18.5474 280.043 17.8701 280.16 17.1128 280.16C16.4194 280.16 15.8168 280.112 15.3047 280.016C14.7927 279.92 14.3554 279.797 13.9927 279.648V278.736C14.3874 278.896 14.8567 279.035 15.4007 279.152C15.9447 279.269 16.5314 279.328 17.1607 279.328C18.0354 279.328 18.7448 279.141 19.2888 278.768C19.8434 278.395 20.1207 277.835 20.1207 277.088C20.1207 276.64 20.0141 276.272 19.8008 275.984C19.5981 275.685 19.2781 275.429 18.8408 275.216C18.4141 274.992 17.8647 274.768 17.1927 274.544C16.5527 274.331 16.0034 274.091 15.5447 273.824C15.0861 273.557 14.7341 273.227 14.4887 272.832C14.2434 272.427 14.1207 271.92 14.1207 271.312C14.1207 270.693 14.2754 270.171 14.5847 269.744C14.9047 269.307 15.3367 268.976 15.8807 268.752C16.4354 268.528 17.0648 268.416 17.7688 268.416C18.3234 268.416 18.8514 268.469 19.3528 268.576C19.8541 268.683 20.3288 268.832 20.7768 269.024L20.4728 269.824C19.5554 269.44 18.6434 269.248 17.7368 269.248C16.9474 269.248 16.3021 269.424 15.8008 269.776C15.3101 270.117 15.0647 270.624 15.0647 271.296C15.0647 271.787 15.1714 272.181 15.3847 272.48C15.5981 272.768 15.9074 273.013 16.3128 273.216C16.7181 273.419 17.2141 273.621 17.8008 273.824C18.4728 274.059 19.0488 274.304 19.5287 274.56C20.0194 274.816 20.3981 275.141 20.6648 275.536C20.9314 275.92 21.0648 276.416 21.0648 277.024ZM30.4711 275.728C30.4711 276.624 30.3218 277.403 30.0231 278.064C29.7351 278.725 29.3031 279.243 28.7271 279.616C28.1618 279.979 27.4685 280.16 26.6471 280.16C25.8578 280.16 25.1805 279.979 24.6151 279.616C24.0498 279.253 23.6125 278.741 23.3031 278.08C23.0045 277.408 22.8551 276.624 22.8551 275.728C22.8551 274.352 23.1965 273.275 23.8791 272.496C24.5618 271.717 25.5058 271.328 26.7111 271.328C27.5218 271.328 28.2045 271.515 28.7591 271.888C29.3245 272.251 29.7511 272.763 30.0391 273.424C30.3271 274.085 30.4711 274.853 30.4711 275.728ZM23.7991 275.728C23.7991 276.827 24.0285 277.712 24.4871 278.384C24.9565 279.045 25.6818 279.376 26.6631 279.376C27.6551 279.376 28.3805 279.04 28.8391 278.368C29.2978 277.696 29.5271 276.816 29.5271 275.728C29.5271 275.024 29.4311 274.4 29.2391 273.856C29.0471 273.312 28.7431 272.885 28.3271 272.576C27.9111 272.267 27.3671 272.112 26.6951 272.112C25.7351 272.112 25.0098 272.432 24.5191 273.072C24.0391 273.712 23.7991 274.597 23.7991 275.728ZM33.7806 280H32.8686V267.84H33.7806V280ZM43.803 275.728C43.803 276.624 43.6537 277.403 43.355 278.064C43.067 278.725 42.635 279.243 42.059 279.616C41.4937 279.979 40.8003 280.16 39.979 280.16C39.1897 280.16 38.5123 279.979 37.947 279.616C37.3817 279.253 36.9443 278.741 36.635 278.08C36.3363 277.408 36.187 276.624 36.187 275.728C36.187 274.352 36.5283 273.275 37.211 272.496C37.8937 271.717 38.8377 271.328 40.043 271.328C40.8537 271.328 41.5363 271.515 42.091 271.888C42.6563 272.251 43.083 272.763 43.371 273.424C43.659 274.085 43.803 274.853 43.803 275.728ZM37.131 275.728C37.131 276.827 37.3603 277.712 37.819 278.384C38.2883 279.045 39.0137 279.376 39.995 279.376C40.987 279.376 41.7123 279.04 42.171 278.368C42.6297 277.696 42.859 276.816 42.859 275.728C42.859 275.024 42.763 274.4 42.571 273.856C42.379 273.312 42.075 272.885 41.659 272.576C41.243 272.267 40.699 272.112 40.027 272.112C39.067 272.112 38.3417 272.432 37.851 273.072C37.371 273.712 37.131 274.597 37.131 275.728ZM54.2608 271.328C55.3488 271.328 56.1968 271.696 56.8048 272.432C57.4128 273.168 57.7168 274.256 57.7168 275.696C57.7168 277.136 57.3968 278.24 56.7568 279.008C56.1274 279.776 55.2634 280.16 54.1648 280.16C53.4181 280.16 52.8154 280 52.3568 279.68C51.8981 279.36 51.5621 278.976 51.3488 278.528H51.2848C51.3061 278.795 51.3221 279.088 51.3328 279.408C51.3434 279.717 51.3488 280.005 51.3488 280.272V283.776H50.4368V271.488H51.1888L51.3008 273.072H51.3488C51.5621 272.613 51.9034 272.208 52.3728 271.856C52.8421 271.504 53.4714 271.328 54.2608 271.328ZM54.1328 272.112C53.1834 272.112 52.4848 272.411 52.0368 273.008C51.5888 273.605 51.3594 274.464 51.3488 275.584V275.744C51.3488 276.96 51.5674 277.872 52.0048 278.48C52.4528 279.077 53.1408 279.376 54.0688 279.376C54.9434 279.376 55.6101 279.051 56.0688 278.4C56.5381 277.739 56.7728 276.832 56.7728 275.68C56.7728 274.539 56.5488 273.659 56.1008 273.04C55.6634 272.421 55.0074 272.112 54.1328 272.112ZM63.5989 271.344C64.0149 271.344 64.3989 271.387 64.7509 271.472L64.6069 272.32C64.2655 272.224 63.9135 272.176 63.5509 272.176C62.7722 272.176 62.1535 272.464 61.6949 273.04C61.2362 273.616 61.0069 274.379 61.0069 275.328V280H60.0949V271.488H60.8629L60.9589 273.072H61.0069C61.2202 272.592 61.5455 272.187 61.9829 271.856C62.4202 271.515 62.9589 271.344 63.5989 271.344ZM69.3913 271.328C70.1166 271.328 70.7193 271.499 71.1993 271.84C71.6899 272.171 72.0579 272.629 72.3033 273.216C72.5593 273.803 72.6873 274.475 72.6873 275.232V275.856H66.6073C66.6073 276.987 66.8686 277.856 67.3913 278.464C67.9246 279.061 68.6819 279.36 69.6633 279.36C70.1859 279.36 70.6446 279.317 71.0393 279.232C71.4339 279.136 71.8659 278.987 72.3353 278.784V279.616C71.9086 279.808 71.4873 279.947 71.0713 280.032C70.6553 280.117 70.1753 280.16 69.6313 280.16C68.3513 280.16 67.3699 279.771 66.6873 278.992C66.0046 278.213 65.6633 277.152 65.6633 275.808C65.6633 274.944 65.8073 274.176 66.0953 273.504C66.3939 272.832 66.8206 272.304 67.3753 271.92C67.9299 271.525 68.6019 271.328 69.3913 271.328ZM69.3753 272.096C68.5966 272.096 67.9619 272.357 67.4713 272.88C66.9913 273.403 66.7139 274.144 66.6393 275.104H71.7433C71.7433 274.208 71.5459 273.483 71.1513 272.928C70.7673 272.373 70.1753 272.096 69.3753 272.096ZM80.4274 277.744C80.4274 278.512 80.1394 279.109 79.5634 279.536C78.9874 279.952 78.1767 280.16 77.1314 280.16C76.534 280.16 76.006 280.107 75.5474 280C75.0887 279.904 74.7047 279.776 74.3954 279.616V278.736C74.7687 278.928 75.1954 279.088 75.6754 279.216C76.1554 279.333 76.646 279.392 77.1474 279.392C77.9794 279.392 78.582 279.253 78.9554 278.976C79.3394 278.688 79.5314 278.299 79.5314 277.808C79.5314 277.339 79.334 276.981 78.9394 276.736C78.5447 276.48 77.9634 276.219 77.1954 275.952C76.662 275.771 76.1927 275.589 75.7874 275.408C75.3927 275.216 75.0834 274.976 74.8594 274.688C74.6354 274.4 74.5234 274.005 74.5234 273.504C74.5234 272.821 74.8007 272.288 75.3554 271.904C75.91 271.52 76.6514 271.328 77.5794 271.328C78.0914 271.328 78.566 271.376 79.0034 271.472C79.4514 271.568 79.862 271.696 80.2354 271.856L79.8994 272.608C79.5687 272.469 79.1954 272.352 78.7794 272.256C78.3634 272.149 77.9474 272.096 77.5314 272.096C76.8594 272.096 76.3367 272.213 75.9634 272.448C75.59 272.683 75.4034 273.024 75.4034 273.472C75.4034 273.813 75.494 274.085 75.6754 274.288C75.8567 274.48 76.118 274.645 76.4594 274.784C76.8007 274.923 77.2167 275.077 77.7074 275.248C78.2194 275.429 78.678 275.616 79.0834 275.808C79.4887 276 79.814 276.245 80.0594 276.544C80.3047 276.843 80.4274 277.243 80.4274 277.744ZM85.8794 271.328C86.6047 271.328 87.2074 271.499 87.6874 271.84C88.178 272.171 88.546 272.629 88.7914 273.216C89.0474 273.803 89.1754 274.475 89.1754 275.232V275.856H83.0954C83.0954 276.987 83.3567 277.856 83.8794 278.464C84.4127 279.061 85.17 279.36 86.1514 279.36C86.674 279.36 87.1327 279.317 87.5274 279.232C87.922 279.136 88.354 278.987 88.8234 278.784V279.616C88.3967 279.808 87.9754 279.947 87.5594 280.032C87.1434 280.117 86.6634 280.16 86.1194 280.16C84.8394 280.16 83.858 279.771 83.1754 278.992C82.4927 278.213 82.1514 277.152 82.1514 275.808C82.1514 274.944 82.2954 274.176 82.5834 273.504C82.882 272.832 83.3087 272.304 83.8634 271.92C84.418 271.525 85.09 271.328 85.8794 271.328ZM85.8634 272.096C85.0847 272.096 84.45 272.357 83.9594 272.88C83.4794 273.403 83.202 274.144 83.1274 275.104H88.2314C88.2314 274.208 88.034 273.483 87.6394 272.928C87.2554 272.373 86.6634 272.096 85.8634 272.096ZM95.3635 271.328C96.3342 271.328 97.0755 271.579 97.5875 272.08C98.0995 272.581 98.3555 273.365 98.3555 274.432V280H97.4595V274.496C97.4595 273.685 97.2728 273.088 96.8995 272.704C96.5262 272.309 95.9822 272.112 95.2675 272.112C93.4008 272.112 92.4675 273.195 92.4675 275.36V280H91.5555V271.488H92.2915L92.4195 272.96H92.4835C92.7075 272.491 93.0648 272.101 93.5555 271.792C94.0462 271.483 94.6488 271.328 95.3635 271.328ZM103.567 279.376C103.801 279.376 104.025 279.36 104.239 279.328C104.452 279.296 104.639 279.248 104.799 279.184V279.92C104.639 279.984 104.441 280.037 104.207 280.08C103.972 280.133 103.721 280.16 103.455 280.16C102.74 280.16 102.191 279.963 101.807 279.568C101.423 279.173 101.231 278.528 101.231 277.632V272.224H99.9668V271.712L101.231 271.408L101.551 269.456H102.143V271.488H104.751V272.224H102.143V277.584C102.143 278.779 102.617 279.376 103.567 279.376ZM109.916 271.328C110.642 271.328 111.244 271.499 111.724 271.84C112.215 272.171 112.583 272.629 112.828 273.216C113.084 273.803 113.212 274.475 113.212 275.232V275.856H107.132C107.132 276.987 107.394 277.856 107.916 278.464C108.45 279.061 109.207 279.36 110.188 279.36C110.711 279.36 111.17 279.317 111.564 279.232C111.959 279.136 112.391 278.987 112.86 278.784V279.616C112.434 279.808 112.012 279.947 111.596 280.032C111.18 280.117 110.7 280.16 110.156 280.16C108.876 280.16 107.895 279.771 107.212 278.992C106.53 278.213 106.188 277.152 106.188 275.808C106.188 274.944 106.332 274.176 106.62 273.504C106.919 272.832 107.346 272.304 107.9 271.92C108.455 271.525 109.127 271.328 109.916 271.328ZM109.9 272.096C109.122 272.096 108.487 272.357 107.996 272.88C107.516 273.403 107.239 274.144 107.164 275.104H112.268C112.268 274.208 112.071 273.483 111.676 272.928C111.292 272.373 110.7 272.096 109.9 272.096ZM120.952 277.744C120.952 278.512 120.664 279.109 120.088 279.536C119.512 279.952 118.702 280.16 117.656 280.16C117.059 280.16 116.531 280.107 116.072 280C115.614 279.904 115.23 279.776 114.92 279.616V278.736C115.294 278.928 115.72 279.088 116.2 279.216C116.68 279.333 117.171 279.392 117.672 279.392C118.504 279.392 119.107 279.253 119.48 278.976C119.864 278.688 120.056 278.299 120.056 277.808C120.056 277.339 119.859 276.981 119.464 276.736C119.07 276.48 118.488 276.219 117.72 275.952C117.187 275.771 116.718 275.589 116.312 275.408C115.918 275.216 115.608 274.976 115.384 274.688C115.16 274.4 115.048 274.005 115.048 273.504C115.048 272.821 115.326 272.288 115.88 271.904C116.435 271.52 117.176 271.328 118.104 271.328C118.616 271.328 119.091 271.376 119.528 271.472C119.976 271.568 120.387 271.696 120.76 271.856L120.424 272.608C120.094 272.469 119.72 272.352 119.304 272.256C118.888 272.149 118.472 272.096 118.056 272.096C117.384 272.096 116.862 272.213 116.488 272.448C116.115 272.683 115.928 273.024 115.928 273.472C115.928 273.813 116.019 274.085 116.2 274.288C116.382 274.48 116.643 274.645 116.984 274.784C117.326 274.923 117.742 275.077 118.232 275.248C118.744 275.429 119.203 275.616 119.608 275.808C120.014 276 120.339 276.245 120.584 276.544C120.83 276.843 120.952 277.243 120.952 277.744ZM130.641 271.328C131.366 271.328 131.969 271.499 132.449 271.84C132.939 272.171 133.307 272.629 133.553 273.216C133.809 273.803 133.937 274.475 133.937 275.232V275.856H127.857C127.857 276.987 128.118 277.856 128.641 278.464C129.174 279.061 129.931 279.36 130.913 279.36C131.435 279.36 131.894 279.317 132.289 279.232C132.683 279.136 133.115 278.987 133.585 278.784V279.616C133.158 279.808 132.737 279.947 132.321 280.032C131.905 280.117 131.425 280.16 130.881 280.16C129.601 280.16 128.619 279.771 127.937 278.992C127.254 278.213 126.913 277.152 126.913 275.808C126.913 274.944 127.057 274.176 127.345 273.504C127.643 272.832 128.07 272.304 128.625 271.92C129.179 271.525 129.851 271.328 130.641 271.328ZM130.625 272.096C129.846 272.096 129.211 272.357 128.721 272.88C128.241 273.403 127.963 274.144 127.889 275.104H132.993C132.993 274.208 132.795 273.483 132.401 272.928C132.017 272.373 131.425 272.096 130.625 272.096ZM140.125 271.328C141.095 271.328 141.837 271.579 142.349 272.08C142.861 272.581 143.117 273.365 143.117 274.432V280H142.221V274.496C142.221 273.685 142.034 273.088 141.661 272.704C141.287 272.309 140.743 272.112 140.029 272.112C138.162 272.112 137.229 273.195 137.229 275.36V280H136.317V271.488H137.053L137.181 272.96H137.245C137.469 272.491 137.826 272.101 138.317 271.792C138.807 271.483 139.41 271.328 140.125 271.328ZM156.852 280H149.62V279.232L152.9 275.824C153.444 275.259 153.903 274.752 154.276 274.304C154.65 273.856 154.932 273.408 155.124 272.96C155.316 272.512 155.412 272.011 155.412 271.456C155.412 270.741 155.204 270.192 154.788 269.808C154.372 269.413 153.812 269.216 153.108 269.216C152.596 269.216 152.116 269.307 151.668 269.488C151.22 269.669 150.778 269.931 150.34 270.272L149.844 269.632C150.314 269.248 150.826 268.949 151.38 268.736C151.935 268.523 152.511 268.416 153.108 268.416C154.09 268.416 154.874 268.688 155.46 269.232C156.058 269.776 156.356 270.501 156.356 271.408C156.356 272.027 156.244 272.592 156.02 273.104C155.796 273.616 155.482 274.117 155.076 274.608C154.671 275.099 154.196 275.621 153.652 276.176L150.788 279.12V279.152H156.852V280ZM166.217 274.256C166.217 276.155 165.924 277.616 165.337 278.64C164.75 279.653 163.817 280.16 162.537 280.16C161.332 280.16 160.42 279.659 159.801 278.656C159.182 277.653 158.873 276.187 158.873 274.256C158.873 273.083 158.99 272.059 159.225 271.184C159.46 270.309 159.849 269.627 160.393 269.136C160.937 268.645 161.657 268.4 162.553 268.4C163.428 268.4 164.132 268.64 164.665 269.12C165.209 269.6 165.604 270.277 165.849 271.152C166.094 272.027 166.217 273.061 166.217 274.256ZM159.785 274.256C159.785 275.984 160.004 277.269 160.441 278.112C160.889 278.944 161.588 279.36 162.537 279.36C163.518 279.36 164.222 278.939 164.649 278.096C165.076 277.253 165.289 275.973 165.289 274.256C165.289 273.189 165.204 272.283 165.033 271.536C164.873 270.779 164.59 270.203 164.185 269.808C163.79 269.403 163.246 269.2 162.553 269.2C161.86 269.2 161.31 269.403 160.905 269.808C160.51 270.213 160.222 270.795 160.041 271.552C159.87 272.309 159.785 273.211 159.785 274.256ZM175.293 280H168.061V279.232L171.341 275.824C171.885 275.259 172.344 274.752 172.717 274.304C173.091 273.856 173.373 273.408 173.565 272.96C173.757 272.512 173.853 272.011 173.853 271.456C173.853 270.741 173.645 270.192 173.229 269.808C172.813 269.413 172.253 269.216 171.549 269.216C171.037 269.216 170.557 269.307 170.109 269.488C169.661 269.669 169.219 269.931 168.781 270.272L168.285 269.632C168.755 269.248 169.267 268.949 169.821 268.736C170.376 268.523 170.952 268.416 171.549 268.416C172.531 268.416 173.315 268.688 173.901 269.232C174.499 269.776 174.797 270.501 174.797 271.408C174.797 272.027 174.685 272.592 174.461 273.104C174.237 273.616 173.923 274.117 173.517 274.608C173.112 275.099 172.637 275.621 172.093 276.176L169.229 279.12V279.152H175.293V280ZM184.658 274.256C184.658 276.155 184.365 277.616 183.778 278.64C183.191 279.653 182.258 280.16 180.978 280.16C179.773 280.16 178.861 279.659 178.242 278.656C177.623 277.653 177.314 276.187 177.314 274.256C177.314 273.083 177.431 272.059 177.666 271.184C177.901 270.309 178.29 269.627 178.834 269.136C179.378 268.645 180.098 268.4 180.994 268.4C181.869 268.4 182.573 268.64 183.106 269.12C183.65 269.6 184.045 270.277 184.29 271.152C184.535 272.027 184.658 273.061 184.658 274.256ZM178.226 274.256C178.226 275.984 178.445 277.269 178.882 278.112C179.33 278.944 180.029 279.36 180.978 279.36C181.959 279.36 182.663 278.939 183.09 278.096C183.517 277.253 183.73 275.973 183.73 274.256C183.73 273.189 183.645 272.283 183.474 271.536C183.314 270.779 183.031 270.203 182.626 269.808C182.231 269.403 181.687 269.2 180.994 269.2C180.301 269.2 179.751 269.403 179.346 269.808C178.951 270.213 178.663 270.795 178.482 271.552C178.311 272.309 178.226 273.211 178.226 274.256Z" fill="#050505"/>
</svg>
