<svg width="203" height="104" viewBox="0 0 203 104" fill="none" xmlns="http://www.w3.org/2000/svg">
<rect width="57" height="19" fill="#FBCB6E"/>
<path d="M12.36 13V5.88H14.2V13H12.36ZM7.64 13V5.88H9.48V13H7.64ZM8.19 10.12V8.65H13.47V10.12H8.19ZM15.4318 13V7.92H17.2418V13H15.4318ZM15.3818 5.43H17.2718V7.06H15.3818V5.43ZM18.3724 15.16V9.38C18.3724 9.14 18.3658 8.89667 18.3524 8.65C18.3458 8.40333 18.3258 8.16 18.2924 7.92H19.9924L20.1124 8.87L20.0524 8.81C20.1591 8.50333 20.3658 8.25667 20.6724 8.07C20.9791 7.87667 21.3291 7.78 21.7224 7.78C22.1624 7.78 22.5491 7.89333 22.8824 8.12C23.2224 8.34667 23.4891 8.66333 23.6824 9.07C23.8758 9.47 23.9724 9.93667 23.9724 10.47C23.9724 10.9967 23.8758 11.4567 23.6824 11.85C23.4891 12.2433 23.2224 12.5467 22.8824 12.76C22.5491 12.9733 22.1624 13.08 21.7224 13.08C21.3291 13.08 20.9791 12.99 20.6724 12.81C20.3658 12.63 20.1591 12.3833 20.0524 12.07L20.1824 11.84V15.16H18.3724ZM21.1724 11.73C21.4991 11.73 21.7458 11.6233 21.9124 11.41C22.0791 11.19 22.1624 10.8767 22.1624 10.47C22.1624 10.05 22.0758 9.72667 21.9024 9.5C21.7358 9.26667 21.4924 9.15 21.1724 9.15C20.8458 9.15 20.5958 9.26 20.4224 9.48C20.2491 9.7 20.1624 10.0233 20.1624 10.45C20.1624 10.8633 20.2491 11.18 20.4224 11.4C20.5958 11.62 20.8458 11.73 21.1724 11.73ZM25.1142 10.99V9.59H28.3542V10.99H25.1142ZM34.3862 13V5.88H36.2262V13H34.3862ZM29.6662 13V5.88H31.5062V13H29.6662ZM30.2162 10.12V8.65H35.4962V10.12H30.2162ZM40.018 13.08C39.4446 13.08 38.948 12.9733 38.528 12.76C38.1146 12.5467 37.7946 12.2433 37.568 11.85C37.3413 11.45 37.228 10.9767 37.228 10.43C37.228 9.89 37.3413 9.42333 37.568 9.03C37.7946 8.63 38.1146 8.32333 38.528 8.11C38.948 7.89 39.4446 7.78 40.018 7.78C40.578 7.78 41.0646 7.89 41.478 8.11C41.898 8.32333 42.2213 8.63 42.448 9.03C42.6746 9.42333 42.788 9.89 42.788 10.43C42.788 10.9767 42.6746 11.45 42.448 11.85C42.2213 12.2433 41.898 12.5467 41.478 12.76C41.0646 12.9733 40.578 13.08 40.018 13.08ZM40.018 11.73C40.3313 11.73 40.5713 11.6267 40.738 11.42C40.9113 11.2133 40.998 10.8833 40.998 10.43C40.998 9.98333 40.9146 9.65667 40.748 9.45C40.5813 9.24333 40.338 9.14 40.018 9.14C39.6913 9.14 39.4413 9.24333 39.268 9.45C39.1013 9.65667 39.018 9.98333 39.018 10.43C39.018 10.8833 39.1013 11.2133 39.268 11.42C39.4413 11.6267 39.6913 11.73 40.018 11.73ZM43.6896 15.16V9.38C43.6896 9.14 43.6829 8.89667 43.6696 8.65C43.6629 8.40333 43.6429 8.16 43.6096 7.92H45.3096L45.4296 8.87L45.3696 8.81C45.4763 8.50333 45.6829 8.25667 45.9896 8.07C46.2963 7.87667 46.6463 7.78 47.0396 7.78C47.4796 7.78 47.8663 7.89333 48.1996 8.12C48.5396 8.34667 48.8063 8.66333 48.9996 9.07C49.1929 9.47 49.2896 9.93667 49.2896 10.47C49.2896 10.9967 49.1929 11.4567 48.9996 11.85C48.8063 12.2433 48.5396 12.5467 48.1996 12.76C47.8663 12.9733 47.4796 13.08 47.0396 13.08C46.6463 13.08 46.2963 12.99 45.9896 12.81C45.6829 12.63 45.4763 12.3833 45.3696 12.07L45.4996 11.84V15.16H43.6896ZM46.4896 11.73C46.8163 11.73 47.0629 11.6233 47.2296 11.41C47.3963 11.19 47.4796 10.8767 47.4796 10.47C47.4796 10.05 47.3929 9.72667 47.2196 9.5C47.0529 9.26667 46.8096 9.15 46.4896 9.15C46.1629 9.15 45.9129 9.26 45.7396 9.48C45.5663 9.7 45.4796 10.0233 45.4796 10.45C45.4796 10.8633 45.5663 11.18 45.7396 11.4C45.9129 11.62 46.1629 11.73 46.4896 11.73Z" fill="#050505"/>
<rect width="57" height="19" transform="translate(73)" fill="#FFA9B8"/>
<path d="M92.14 13V5.88H95.53C96.3567 5.88 96.99 6.07667 97.43 6.47C97.87 6.86333 98.09 7.39 98.09 8.05C98.09 8.71 97.8667 9.23667 97.42 9.63C96.9733 10.0233 96.3433 10.22 95.53 10.22H94.02V13H92.14ZM94.02 8.82H95.28C95.6467 8.82 95.9133 8.75667 96.08 8.63C96.2533 8.49667 96.34 8.31 96.34 8.07C96.34 7.81667 96.2567 7.62667 96.09 7.5C95.9233 7.36667 95.6533 7.3 95.28 7.3H94.02V8.82ZM101.281 13.08C100.708 13.08 100.211 12.9733 99.7909 12.76C99.3775 12.5467 99.0575 12.2433 98.8309 11.85C98.6042 11.45 98.4909 10.9767 98.4909 10.43C98.4909 9.89 98.6042 9.42333 98.8309 9.03C99.0575 8.63 99.3775 8.32333 99.7909 8.11C100.211 7.89 100.708 7.78 101.281 7.78C101.841 7.78 102.328 7.89 102.741 8.11C103.161 8.32333 103.484 8.63 103.711 9.03C103.938 9.42333 104.051 9.89 104.051 10.43C104.051 10.9767 103.938 11.45 103.711 11.85C103.484 12.2433 103.161 12.5467 102.741 12.76C102.328 12.9733 101.841 13.08 101.281 13.08ZM101.281 11.73C101.594 11.73 101.834 11.6267 102.001 11.42C102.174 11.2133 102.261 10.8833 102.261 10.43C102.261 9.98333 102.178 9.65667 102.011 9.45C101.844 9.24333 101.601 9.14 101.281 9.14C100.954 9.14 100.704 9.24333 100.531 9.45C100.364 9.65667 100.281 9.98333 100.281 10.43C100.281 10.8833 100.364 11.2133 100.531 11.42C100.704 11.6267 100.954 11.73 101.281 11.73ZM104.953 15.16V9.38C104.953 9.14 104.946 8.89667 104.933 8.65C104.926 8.40333 104.906 8.16 104.873 7.92H106.573L106.693 8.87L106.633 8.81C106.739 8.50333 106.946 8.25667 107.253 8.07C107.559 7.87667 107.909 7.78 108.303 7.78C108.743 7.78 109.129 7.89333 109.463 8.12C109.803 8.34667 110.069 8.66333 110.263 9.07C110.456 9.47 110.553 9.93667 110.553 10.47C110.553 10.9967 110.456 11.4567 110.263 11.85C110.069 12.2433 109.803 12.5467 109.463 12.76C109.129 12.9733 108.743 13.08 108.303 13.08C107.909 13.08 107.559 12.99 107.253 12.81C106.946 12.63 106.739 12.3833 106.633 12.07L106.763 11.84V15.16H104.953ZM107.753 11.73C108.079 11.73 108.326 11.6233 108.493 11.41C108.659 11.19 108.743 10.8767 108.743 10.47C108.743 10.05 108.656 9.72667 108.483 9.5C108.316 9.26667 108.073 9.15 107.753 9.15C107.426 9.15 107.176 9.26 107.003 9.48C106.829 9.7 106.743 10.0233 106.743 10.45C106.743 10.8633 106.829 11.18 107.003 11.4C107.176 11.62 107.426 11.73 107.753 11.73Z" fill="#050505"/>
<rect width="57" height="19" transform="translate(146)" fill="#957AFF"/>
<path d="M163.64 13V5.88H168.72V7.32H165.47V8.66H168.51V10.1H165.47V11.56H168.72V13H163.64ZM169.725 13V5.88H172.635C173.428 5.88 174.108 6.02333 174.675 6.31C175.242 6.59 175.675 6.99667 175.975 7.53C176.282 8.05667 176.435 8.69 176.435 9.43C176.435 10.1767 176.285 10.8167 175.985 11.35C175.685 11.8833 175.252 12.2933 174.685 12.58C174.118 12.86 173.435 13 172.635 13H169.725ZM171.605 11.5H172.505C173.198 11.5 173.715 11.33 174.055 10.99C174.402 10.6433 174.575 10.1233 174.575 9.43C174.575 8.06333 173.885 7.38 172.505 7.38H171.605V11.5ZM177.618 13V5.88H179.088L181.528 11.45H180.908L183.338 5.88H184.798V13H183.158L183.148 8.72L183.528 8.83L181.798 13H180.608L178.848 8.83L179.248 8.72V13H177.618Z" fill="#050505"/>
<rect width="57" height="19" transform="translate(0 32)" fill="#B8FF20"/>
<path d="M18.14 45V37.88H21.45C22.3167 37.88 22.9633 38.0667 23.39 38.44C23.8233 38.8133 24.04 39.34 24.04 40.02C24.04 40.66 23.8133 41.18 23.36 41.58C22.9133 41.9733 22.29 42.17 21.49 42.17L22.35 41.99C22.59 41.99 22.81 42.0667 23.01 42.22C23.2167 42.3667 23.3767 42.5867 23.49 42.88L24.33 45H22.34L21.42 42.63C21.36 42.4833 21.26 42.38 21.12 42.32C20.98 42.26 20.83 42.23 20.67 42.23H19.99V45H18.14ZM19.97 40.83H21.15C21.5567 40.83 21.8467 40.77 22.02 40.65C22.2 40.5233 22.29 40.33 22.29 40.07C22.29 39.7967 22.2 39.6 22.02 39.48C21.8467 39.36 21.5567 39.3 21.15 39.3H19.97V40.83ZM27.5587 45.08C27.0387 45.08 26.5787 44.9967 26.1787 44.83C25.7853 44.6567 25.4753 44.4167 25.2487 44.11C25.0287 43.8033 24.9187 43.4467 24.9187 43.04C24.9187 42.5067 25.092 42.05 25.4387 41.67C25.7853 41.2833 26.3287 40.9433 27.0687 40.65C27.382 40.53 27.632 40.4133 27.8187 40.3C28.012 40.1867 28.152 40.07 28.2387 39.95C28.3253 39.83 28.3687 39.7 28.3687 39.56C28.3687 39.38 28.3153 39.24 28.2087 39.14C28.1087 39.0333 27.9787 38.98 27.8187 38.98C27.632 38.98 27.4787 39.0367 27.3587 39.15C27.2453 39.2633 27.1887 39.42 27.1887 39.62C27.1887 39.7133 27.2087 39.8067 27.2487 39.9C27.2953 39.9933 27.372 40.1 27.4787 40.22C27.592 40.34 27.7487 40.4967 27.9487 40.69L30.3987 42.95C30.6587 43.2033 30.932 43.4033 31.2187 43.55C31.5053 43.6967 31.812 43.8 32.1387 43.86L31.2887 45.1C30.9153 45.0133 30.5787 44.8933 30.2787 44.74C29.9853 44.5867 29.702 44.3767 29.4287 44.11L26.3887 41.22C26.2153 41.06 26.0687 40.8933 25.9487 40.72C25.8287 40.5467 25.7387 40.37 25.6787 40.19C25.6253 40.0033 25.5987 39.82 25.5987 39.64C25.5987 39.2733 25.6887 38.9533 25.8687 38.68C26.0553 38.4067 26.312 38.1933 26.6387 38.04C26.972 37.8867 27.3553 37.81 27.7887 37.81C28.3953 37.81 28.8787 37.9633 29.2387 38.27C29.5987 38.5767 29.7787 38.9833 29.7787 39.49C29.7787 39.8033 29.7053 40.09 29.5587 40.35C29.412 40.61 29.1953 40.8467 28.9087 41.06C28.622 41.2733 28.2653 41.4567 27.8387 41.61C27.5787 41.7033 27.362 41.8133 27.1887 41.94C27.0153 42.0667 26.8853 42.2133 26.7987 42.38C26.7187 42.54 26.6787 42.7167 26.6787 42.91C26.6787 43.1633 26.762 43.3633 26.9287 43.51C27.102 43.65 27.3287 43.72 27.6087 43.72C28.0153 43.72 28.392 43.5833 28.7387 43.31C29.092 43.03 29.382 42.6533 29.6087 42.18C29.842 41.7 29.9787 41.1667 30.0187 40.58H31.4987C31.4653 41.2133 31.3387 41.8033 31.1187 42.35C30.9053 42.8967 30.6187 43.3767 30.2587 43.79C29.9053 44.1967 29.4987 44.5133 29.0387 44.74C28.5787 44.9667 28.0853 45.08 27.5587 45.08ZM32.4685 45V37.88H35.9285C36.6685 37.88 37.2585 38.0467 37.6985 38.38C38.1452 38.7133 38.3685 39.1633 38.3685 39.73C38.3685 40.1167 38.2585 40.4567 38.0385 40.75C37.8252 41.0367 37.5185 41.2367 37.1185 41.35V41.27C37.5852 41.3833 37.9418 41.5933 38.1885 41.9C38.4418 42.2067 38.5685 42.59 38.5685 43.05C38.5685 43.6367 38.3385 44.11 37.8785 44.47C37.4252 44.8233 36.8052 45 36.0185 45H32.4685ZM34.2985 43.58H35.7985C36.1585 43.58 36.4152 43.5233 36.5685 43.41C36.7285 43.2967 36.8085 43.1067 36.8085 42.84C36.8085 42.5733 36.7318 42.3833 36.5785 42.27C36.4252 42.15 36.1652 42.09 35.7985 42.09H34.2985V43.58ZM34.2985 40.67H35.6085C35.9552 40.67 36.2085 40.6167 36.3685 40.51C36.5285 40.4033 36.6085 40.2333 36.6085 40C36.6085 39.7533 36.5252 39.5767 36.3585 39.47C36.1985 39.3567 35.9485 39.3 35.6085 39.3H34.2985V40.67Z" fill="#050505"/>
<rect width="57" height="19" transform="translate(73 32)" fill="#9FD8F8"/>
<path d="M83.14 45V37.88H86.45C87.3167 37.88 87.9633 38.0667 88.39 38.44C88.8233 38.8133 89.04 39.34 89.04 40.02C89.04 40.66 88.8133 41.18 88.36 41.58C87.9133 41.9733 87.29 42.17 86.49 42.17L87.35 41.99C87.59 41.99 87.81 42.0667 88.01 42.22C88.2167 42.3667 88.3767 42.5867 88.49 42.88L89.33 45H87.34L86.42 42.63C86.36 42.4833 86.26 42.38 86.12 42.32C85.98 42.26 85.83 42.23 85.67 42.23H84.99V45H83.14ZM84.97 40.83H86.15C86.5567 40.83 86.8467 40.77 87.02 40.65C87.2 40.5233 87.29 40.33 87.29 40.07C87.29 39.7967 87.2 39.6 87.02 39.48C86.8467 39.36 86.5567 39.3 86.15 39.3H84.97V40.83ZM94.8287 44.48C94.5753 44.6733 94.2687 44.8233 93.9087 44.93C93.5487 45.03 93.1887 45.08 92.8287 45.08C92.242 45.08 91.7353 44.9733 91.3087 44.76C90.8887 44.5467 90.5653 44.2433 90.3387 43.85C90.112 43.45 89.9987 42.98 89.9987 42.44C89.9987 41.92 90.1053 41.46 90.3187 41.06C90.5387 40.66 90.8387 40.3467 91.2187 40.12C91.5987 39.8933 92.0387 39.78 92.5387 39.78C93.0253 39.78 93.4453 39.8867 93.7987 40.1C94.1587 40.3133 94.4353 40.6167 94.6287 41.01C94.822 41.4033 94.9187 41.8667 94.9187 42.4V42.64H91.5987L91.6187 41.8H93.8287L93.3887 42.09C93.3887 41.73 93.3187 41.4633 93.1787 41.29C93.0453 41.11 92.8487 41.02 92.5887 41.02C92.302 41.02 92.082 41.1267 91.9287 41.34C91.782 41.5467 91.7087 41.8633 91.7087 42.29C91.7087 42.8167 91.8053 43.1933 91.9987 43.42C92.192 43.64 92.4987 43.75 92.9187 43.75C93.172 43.75 93.4253 43.71 93.6787 43.63C93.9387 43.5433 94.1687 43.4267 94.3687 43.28L94.8287 44.48ZM97.816 45.08C97.3827 45.08 96.996 44.9733 96.656 44.76C96.316 44.5467 96.0493 44.2433 95.856 43.85C95.6693 43.4567 95.576 42.9967 95.576 42.47C95.576 41.9367 95.6727 41.47 95.866 41.07C96.0593 40.6633 96.3227 40.3467 96.656 40.12C96.996 39.8933 97.3827 39.78 97.816 39.78C98.2027 39.78 98.5493 39.8767 98.856 40.07C99.1693 40.2567 99.3827 40.5033 99.496 40.81L99.376 40.88V39.92H101.156V45H99.376V44.07H99.496C99.3827 44.3833 99.1693 44.63 98.856 44.81C98.5493 44.99 98.2027 45.08 97.816 45.08ZM98.376 43.73C98.6893 43.73 98.9327 43.62 99.106 43.4C99.286 43.18 99.376 42.8633 99.376 42.45C99.376 42.0233 99.2893 41.7 99.116 41.48C98.9427 41.26 98.696 41.15 98.376 41.15C98.0627 41.15 97.816 41.2667 97.636 41.5C97.456 41.7267 97.366 42.05 97.366 42.47C97.366 42.8767 97.4527 43.19 97.626 43.41C97.7993 43.6233 98.0493 43.73 98.376 43.73ZM104.742 47.24C103.928 47.24 103.212 47.0933 102.592 46.8L102.862 45.48C103.162 45.62 103.468 45.7267 103.782 45.8C104.102 45.8733 104.402 45.91 104.682 45.91C105.095 45.91 105.398 45.82 105.592 45.64C105.792 45.4667 105.892 45.1933 105.892 44.82V43.72L106.012 43.87C105.932 44.0233 105.808 44.1767 105.642 44.33C105.475 44.4833 105.275 44.61 105.042 44.71C104.815 44.81 104.572 44.86 104.312 44.86C103.878 44.86 103.488 44.7567 103.142 44.55C102.802 44.3433 102.535 44.05 102.342 43.67C102.148 43.2833 102.052 42.8333 102.052 42.32C102.052 41.8133 102.148 41.37 102.342 40.99C102.535 40.61 102.802 40.3133 103.142 40.1C103.488 39.8867 103.878 39.78 104.312 39.78C104.705 39.78 105.058 39.8767 105.372 40.07C105.685 40.2567 105.898 40.5 106.012 40.8L105.892 40.98V39.92H107.692V44.68C107.692 45.52 107.442 46.1567 106.942 46.59C106.442 47.0233 105.708 47.24 104.742 47.24ZM104.872 43.51C105.192 43.51 105.442 43.4067 105.622 43.2C105.802 42.9867 105.892 42.6933 105.892 42.32C105.892 41.96 105.802 41.6767 105.622 41.47C105.448 41.2567 105.198 41.15 104.872 41.15C104.552 41.15 104.298 41.2533 104.112 41.46C103.932 41.6667 103.842 41.9533 103.842 42.32C103.842 42.6867 103.935 42.9767 104.122 43.19C104.308 43.4033 104.558 43.51 104.872 43.51ZM111.266 47.24C110.453 47.24 109.736 47.0933 109.116 46.8L109.386 45.48C109.686 45.62 109.993 45.7267 110.306 45.8C110.626 45.8733 110.926 45.91 111.206 45.91C111.62 45.91 111.923 45.82 112.116 45.64C112.316 45.4667 112.416 45.1933 112.416 44.82V43.72L112.536 43.87C112.456 44.0233 112.333 44.1767 112.166 44.33C112 44.4833 111.8 44.61 111.566 44.71C111.34 44.81 111.096 44.86 110.836 44.86C110.403 44.86 110.013 44.7567 109.666 44.55C109.326 44.3433 109.06 44.05 108.866 43.67C108.673 43.2833 108.576 42.8333 108.576 42.32C108.576 41.8133 108.673 41.37 108.866 40.99C109.06 40.61 109.326 40.3133 109.666 40.1C110.013 39.8867 110.403 39.78 110.836 39.78C111.23 39.78 111.583 39.8767 111.896 40.07C112.21 40.2567 112.423 40.5 112.536 40.8L112.416 40.98V39.92H114.216V44.68C114.216 45.52 113.966 46.1567 113.466 46.59C112.966 47.0233 112.233 47.24 111.266 47.24ZM111.396 43.51C111.716 43.51 111.966 43.4067 112.146 43.2C112.326 42.9867 112.416 42.6933 112.416 42.32C112.416 41.96 112.326 41.6767 112.146 41.47C111.973 41.2567 111.723 41.15 111.396 41.15C111.076 41.15 110.823 41.2533 110.636 41.46C110.456 41.6667 110.366 41.9533 110.366 42.32C110.366 42.6867 110.46 42.9767 110.646 43.19C110.833 43.4033 111.083 43.51 111.396 43.51ZM119.931 44.48C119.678 44.6733 119.371 44.8233 119.011 44.93C118.651 45.03 118.291 45.08 117.931 45.08C117.344 45.08 116.838 44.9733 116.411 44.76C115.991 44.5467 115.668 44.2433 115.441 43.85C115.214 43.45 115.101 42.98 115.101 42.44C115.101 41.92 115.208 41.46 115.421 41.06C115.641 40.66 115.941 40.3467 116.321 40.12C116.701 39.8933 117.141 39.78 117.641 39.78C118.128 39.78 118.548 39.8867 118.901 40.1C119.261 40.3133 119.538 40.6167 119.731 41.01C119.924 41.4033 120.021 41.8667 120.021 42.4V42.64H116.701L116.721 41.8H118.931L118.491 42.09C118.491 41.73 118.421 41.4633 118.281 41.29C118.148 41.11 117.951 41.02 117.691 41.02C117.404 41.02 117.184 41.1267 117.031 41.34C116.884 41.5467 116.811 41.8633 116.811 42.29C116.811 42.8167 116.908 43.1933 117.101 43.42C117.294 43.64 117.601 43.75 118.021 43.75C118.274 43.75 118.528 43.71 118.781 43.63C119.041 43.5433 119.271 43.4267 119.471 43.28L119.931 44.48Z" fill="#050505"/>
<rect width="57" height="19" transform="translate(146 32)" fill="#FF6939"/>
<path d="M162.64 45V37.88H165.95C166.817 37.88 167.463 38.0667 167.89 38.44C168.323 38.8133 168.54 39.34 168.54 40.02C168.54 40.66 168.313 41.18 167.86 41.58C167.413 41.9733 166.79 42.17 165.99 42.17L166.85 41.99C167.09 41.99 167.31 42.0667 167.51 42.22C167.717 42.3667 167.877 42.5867 167.99 42.88L168.83 45H166.84L165.92 42.63C165.86 42.4833 165.76 42.38 165.62 42.32C165.48 42.26 165.33 42.23 165.17 42.23H164.49V45H162.64ZM164.47 40.83H165.65C166.057 40.83 166.347 40.77 166.52 40.65C166.7 40.5233 166.79 40.33 166.79 40.07C166.79 39.7967 166.7 39.6 166.52 39.48C166.347 39.36 166.057 39.3 165.65 39.3H164.47V40.83ZM172.289 45.08C171.715 45.08 171.219 44.9733 170.799 44.76C170.385 44.5467 170.065 44.2433 169.839 43.85C169.612 43.45 169.499 42.9767 169.499 42.43C169.499 41.89 169.612 41.4233 169.839 41.03C170.065 40.63 170.385 40.3233 170.799 40.11C171.219 39.89 171.715 39.78 172.289 39.78C172.849 39.78 173.335 39.89 173.749 40.11C174.169 40.3233 174.492 40.63 174.719 41.03C174.945 41.4233 175.059 41.89 175.059 42.43C175.059 42.9767 174.945 43.45 174.719 43.85C174.492 44.2433 174.169 44.5467 173.749 44.76C173.335 44.9733 172.849 45.08 172.289 45.08ZM172.289 43.73C172.602 43.73 172.842 43.6267 173.009 43.42C173.182 43.2133 173.269 42.8833 173.269 42.43C173.269 41.9833 173.185 41.6567 173.019 41.45C172.852 41.2433 172.609 41.14 172.289 41.14C171.962 41.14 171.712 41.2433 171.539 41.45C171.372 41.6567 171.289 41.9833 171.289 42.43C171.289 42.8833 171.372 43.2133 171.539 43.42C171.712 43.6267 171.962 43.73 172.289 43.73ZM178.48 45.08C177.907 45.08 177.414 44.9767 177 44.77C176.587 44.5567 176.27 44.2533 176.05 43.86C175.837 43.4667 175.73 43.0033 175.73 42.47C175.73 41.93 175.847 41.46 176.08 41.06C176.32 40.6533 176.65 40.34 177.07 40.12C177.497 39.8933 177.994 39.78 178.56 39.78C178.934 39.78 179.3 39.8367 179.66 39.95C180.02 40.0567 180.307 40.2033 180.52 40.39L180.06 41.64C179.88 41.4933 179.67 41.3767 179.43 41.29C179.19 41.2033 178.96 41.16 178.74 41.16C178.38 41.16 178.097 41.2633 177.89 41.47C177.684 41.6767 177.58 41.9967 177.58 42.43C177.58 42.87 177.68 43.1967 177.88 43.41C178.087 43.6167 178.377 43.72 178.75 43.72C178.964 43.72 179.19 43.68 179.43 43.6C179.67 43.5133 179.88 43.3933 180.06 43.24L180.52 44.47C180.294 44.6633 179.997 44.8133 179.63 44.92C179.27 45.0267 178.887 45.08 178.48 45.08ZM184.697 45L182.657 42.42L184.667 39.93H186.807L184.447 42.79L184.537 42.02L186.887 45H184.697ZM181.157 45V37.64H182.967V45H181.157Z" fill="#050505"/>
<rect width="57" height="19" transform="translate(0 61)" fill="#00FFB2"/>
<path d="M7.1 74.09C6.35333 74.09 5.70667 73.94 5.16 73.64C4.61333 73.3333 4.19 72.9067 3.89 72.36C3.59667 71.8067 3.45 71.1633 3.45 70.43C3.45 69.7033 3.59667 69.0667 3.89 68.52C4.19 67.9733 4.61333 67.55 5.16 67.25C5.70667 66.9433 6.35333 66.79 7.1 66.79C7.56667 66.79 8.01667 66.86 8.45 67C8.89 67.14 9.24333 67.33 9.51 67.57L8.94 68.9C8.63333 68.68 8.33333 68.52 8.04 68.42C7.74667 68.32 7.44667 68.27 7.14 68.27C6.57333 68.27 6.13333 68.45 5.82 68.81C5.51333 69.17 5.36 69.71 5.36 70.43C5.36 71.15 5.51333 71.6933 5.82 72.06C6.13333 72.4267 6.57333 72.61 7.14 72.61C7.44667 72.61 7.74667 72.56 8.04 72.46C8.33333 72.36 8.63333 72.2 8.94 71.98L9.51 73.31C9.24333 73.55 8.89 73.74 8.45 73.88C8.01667 74.02 7.56667 74.09 7.1 74.09ZM10.4357 74V66.64H12.2457V69.95L12.0557 69.83C12.2424 69.4967 12.4857 69.24 12.7857 69.06C13.0924 68.8733 13.4424 68.78 13.8357 68.78C15.029 68.78 15.6257 69.51 15.6257 70.97V74H13.8157V71.05C13.8157 70.7367 13.7624 70.5133 13.6557 70.38C13.549 70.24 13.3824 70.17 13.1557 70.17C12.8824 70.17 12.6624 70.2633 12.4957 70.45C12.329 70.63 12.2457 70.87 12.2457 71.17V74H10.4357ZM16.7259 74V70.38C16.7259 70.14 16.7193 69.8967 16.7059 69.65C16.6993 69.4033 16.6793 69.16 16.6459 68.92H18.3459L18.5159 70.29L18.3459 70.19C18.4126 69.73 18.5959 69.3833 18.8959 69.15C19.2026 68.9167 19.5493 68.8 19.9359 68.8C20.0626 68.8 20.1726 68.81 20.2659 68.83C20.3593 68.85 20.4393 68.8767 20.5059 68.91V70.56C20.2193 70.4267 19.9426 70.36 19.6759 70.36C19.4359 70.36 19.2326 70.4 19.0659 70.48C18.8993 70.5533 18.7693 70.67 18.6759 70.83C18.5826 70.99 18.5359 71.1967 18.5359 71.45V74H16.7259ZM21.0728 74V68.92H22.8828V74H21.0728ZM21.0228 66.43H22.9128V68.06H21.0228V66.43ZM26.0634 74.08C25.0501 74.08 24.2501 73.8767 23.6634 73.47L24.1234 72.24C24.3968 72.4267 24.7068 72.5733 25.0534 72.68C25.4068 72.78 25.7468 72.83 26.0734 72.83C26.2801 72.83 26.4401 72.8 26.5534 72.74C26.6668 72.68 26.7234 72.5967 26.7234 72.49C26.7234 72.3967 26.6801 72.3233 26.5934 72.27C26.5134 72.2167 26.3568 72.1633 26.1234 72.11L25.3034 71.92C24.7834 71.8133 24.4068 71.6467 24.1734 71.42C23.9468 71.1867 23.8334 70.8667 23.8334 70.46C23.8334 70.1333 23.9301 69.8433 24.1234 69.59C24.3168 69.3367 24.5834 69.14 24.9234 69C25.2701 68.8533 25.6668 68.78 26.1134 68.78C26.4868 68.78 26.8501 68.8367 27.2034 68.95C27.5568 69.0567 27.8834 69.2033 28.1834 69.39L27.7034 70.59C27.4368 70.4167 27.1634 70.2833 26.8834 70.19C26.6034 70.0967 26.3401 70.05 26.0934 70.05C25.9001 70.05 25.7434 70.0833 25.6234 70.15C25.5101 70.21 25.4534 70.3 25.4534 70.42C25.4534 70.4933 25.4868 70.5533 25.5534 70.6C25.6201 70.64 25.7468 70.6833 25.9334 70.73L26.7834 70.92C27.3234 71.04 27.7101 71.2233 27.9434 71.47C28.1834 71.7167 28.3034 72.05 28.3034 72.47C28.3034 72.97 28.1034 73.3633 27.7034 73.65C27.3101 73.9367 26.7634 74.08 26.0634 74.08ZM28.573 70.25V68.92H32.553V70.25H28.573ZM32.563 72.56V73.93C32.4096 73.99 32.2563 74.03 32.103 74.05C31.9496 74.07 31.7896 74.08 31.623 74.08C30.923 74.08 30.3963 73.8833 30.043 73.49C29.6963 73.0967 29.523 72.5633 29.523 71.89V67.77L31.333 67.19V71.89C31.333 72.0567 31.3663 72.1967 31.433 72.31C31.5063 72.4167 31.5996 72.4967 31.713 72.55C31.8263 72.5967 31.9496 72.62 32.083 72.62C32.1496 72.62 32.2196 72.6167 32.293 72.61C32.373 72.5967 32.463 72.58 32.563 72.56ZM33.2931 74V70.38C33.2931 70.14 33.2865 69.8967 33.2731 69.65C33.2665 69.4033 33.2465 69.16 33.2131 68.92H34.9131L35.0331 69.88L34.9131 69.8C35.0598 69.48 35.2765 69.23 35.5631 69.05C35.8565 68.87 36.2031 68.78 36.6031 68.78C37.0565 68.78 37.4165 68.9 37.6831 69.14C37.9565 69.3733 38.1365 69.7233 38.2231 70.19L37.9831 69.87C38.1498 69.5433 38.3898 69.28 38.7031 69.08C39.0231 68.88 39.3765 68.78 39.7631 68.78C40.3565 68.78 40.7931 68.9633 41.0731 69.33C41.3531 69.69 41.4931 70.2367 41.4931 70.97V74H39.6831V71.02C39.6831 70.7267 39.6398 70.5133 39.5531 70.38C39.4665 70.24 39.3131 70.17 39.0931 70.17C38.8398 70.17 38.6431 70.2633 38.5031 70.45C38.3631 70.6367 38.2931 70.9 38.2931 71.24V74H36.4831V71.02C36.4831 70.7267 36.4365 70.5133 36.3431 70.38C36.2565 70.24 36.1065 70.17 35.8931 70.17C35.6398 70.17 35.4431 70.2633 35.3031 70.45C35.1698 70.6367 35.1031 70.9 35.1031 71.24V74H33.2931ZM44.6012 74.08C44.1678 74.08 43.7812 73.9733 43.4412 73.76C43.1012 73.5467 42.8345 73.2433 42.6412 72.85C42.4545 72.4567 42.3612 71.9967 42.3612 71.47C42.3612 70.9367 42.4578 70.47 42.6512 70.07C42.8445 69.6633 43.1078 69.3467 43.4412 69.12C43.7812 68.8933 44.1678 68.78 44.6012 68.78C44.9878 68.78 45.3345 68.8767 45.6412 69.07C45.9545 69.2567 46.1678 69.5033 46.2812 69.81L46.1612 69.88V68.92H47.9412V74H46.1612V73.07H46.2812C46.1678 73.3833 45.9545 73.63 45.6412 73.81C45.3345 73.99 44.9878 74.08 44.6012 74.08ZM45.1612 72.73C45.4745 72.73 45.7178 72.62 45.8912 72.4C46.0712 72.18 46.1612 71.8633 46.1612 71.45C46.1612 71.0233 46.0745 70.7 45.9012 70.48C45.7278 70.26 45.4812 70.15 45.1612 70.15C44.8478 70.15 44.6012 70.2667 44.4212 70.5C44.2412 70.7267 44.1512 71.05 44.1512 71.47C44.1512 71.8767 44.2378 72.19 44.4112 72.41C44.5845 72.6233 44.8345 72.73 45.1612 72.73ZM51.117 74.08C50.1036 74.08 49.3036 73.8767 48.717 73.47L49.177 72.24C49.4503 72.4267 49.7603 72.5733 50.107 72.68C50.4603 72.78 50.8003 72.83 51.127 72.83C51.3336 72.83 51.4936 72.8 51.607 72.74C51.7203 72.68 51.777 72.5967 51.777 72.49C51.777 72.3967 51.7336 72.3233 51.647 72.27C51.567 72.2167 51.4103 72.1633 51.177 72.11L50.357 71.92C49.837 71.8133 49.4603 71.6467 49.227 71.42C49.0003 71.1867 48.887 70.8667 48.887 70.46C48.887 70.1333 48.9836 69.8433 49.177 69.59C49.3703 69.3367 49.637 69.14 49.977 69C50.3236 68.8533 50.7203 68.78 51.167 68.78C51.5403 68.78 51.9036 68.8367 52.257 68.95C52.6103 69.0567 52.937 69.2033 53.237 69.39L52.757 70.59C52.4903 70.4167 52.217 70.2833 51.937 70.19C51.657 70.0967 51.3936 70.05 51.147 70.05C50.9536 70.05 50.797 70.0833 50.677 70.15C50.5636 70.21 50.507 70.3 50.507 70.42C50.507 70.4933 50.5403 70.5533 50.607 70.6C50.6736 70.64 50.8003 70.6833 50.987 70.73L51.837 70.92C52.377 71.04 52.7636 71.2233 52.997 71.47C53.237 71.7167 53.357 72.05 53.357 72.47C53.357 72.97 53.157 73.3633 52.757 73.65C52.3636 73.9367 51.817 74.08 51.117 74.08Z" fill="#050505"/>
<path d="M64.05 64.41L63.92 66.4L65.85 65.78L65.96 66.38L64.06 66.74L65.28 68.34L64.73 68.66L63.73 66.94L62.77 68.66L62.21 68.34L63.42 66.74L61.52 66.38L61.63 65.78L63.55 66.4L63.42 64.41H64.05Z" fill="#050505"/>
<rect width="57" height="19" transform="translate(73 61)" fill="#A0FF73"/>
<path d="M91.64 74V66.88H96.61V68.35H93.49V69.65H96.41V71.11H93.49V74H91.64ZM99.8922 74.08C99.3189 74.08 98.8222 73.9733 98.4022 73.76C97.9889 73.5467 97.6689 73.2433 97.4422 72.85C97.2155 72.45 97.1022 71.9767 97.1022 71.43C97.1022 70.89 97.2155 70.4233 97.4422 70.03C97.6689 69.63 97.9889 69.3233 98.4022 69.11C98.8222 68.89 99.3189 68.78 99.8922 68.78C100.452 68.78 100.939 68.89 101.352 69.11C101.772 69.3233 102.096 69.63 102.322 70.03C102.549 70.4233 102.662 70.89 102.662 71.43C102.662 71.9767 102.549 72.45 102.322 72.85C102.096 73.2433 101.772 73.5467 101.352 73.76C100.939 73.9733 100.452 74.08 99.8922 74.08ZM99.8922 72.73C100.206 72.73 100.446 72.6267 100.612 72.42C100.786 72.2133 100.872 71.8833 100.872 71.43C100.872 70.9833 100.789 70.6567 100.622 70.45C100.456 70.2433 100.212 70.14 99.8922 70.14C99.5655 70.14 99.3155 70.2433 99.1422 70.45C98.9755 70.6567 98.8922 70.9833 98.8922 71.43C98.8922 71.8833 98.9755 72.2133 99.1422 72.42C99.3155 72.6267 99.5655 72.73 99.8922 72.73ZM103.564 74V66.64H105.374V74H103.564ZM110.044 74L108.004 71.42L110.014 68.93H112.154L109.794 71.79L109.884 71.02L112.234 74H110.044ZM106.504 74V66.64H108.314V74H106.504Z" fill="#050505"/>
<path d="M136.05 64.41L135.92 66.4L137.85 65.78L137.96 66.38L136.06 66.74L137.28 68.34L136.73 68.66L135.73 66.94L134.77 68.66L134.21 68.34L135.42 66.74L133.52 66.38L133.63 65.78L135.55 66.4L135.42 64.41H136.05Z" fill="black"/>
<path d="M2.44 95.928L2.336 97.52L3.88 97.024L3.968 97.504L2.448 97.792L3.424 99.072L2.984 99.328L2.184 97.952L1.416 99.328L0.968 99.072L1.936 97.792L0.416 97.504L0.504 97.024L2.04 97.52L1.936 95.928H2.44ZM10.5324 100.512C10.5324 100.853 10.447 101.141 10.2764 101.376C10.1057 101.611 9.87104 101.787 9.57238 101.904C9.27371 102.021 8.93504 102.08 8.55638 102.08C8.20971 102.08 7.90838 102.056 7.65237 102.008C7.39637 101.96 7.17771 101.899 6.99637 101.824V101.368C7.19371 101.448 7.42837 101.517 7.70037 101.576C7.97237 101.635 8.26571 101.664 8.58037 101.664C9.01771 101.664 9.37238 101.571 9.64438 101.384C9.92171 101.197 10.0604 100.917 10.0604 100.544C10.0604 100.32 10.007 100.136 9.90038 99.992C9.79904 99.8427 9.63904 99.7147 9.42038 99.608C9.20704 99.496 8.93237 99.384 8.59637 99.272C8.27637 99.1653 8.00171 99.0453 7.77237 98.912C7.54304 98.7787 7.36704 98.6133 7.24437 98.416C7.12171 98.2133 7.06037 97.96 7.06037 97.656C7.06037 97.3467 7.13771 97.0853 7.29237 96.872C7.45237 96.6533 7.66837 96.488 7.94037 96.376C8.21771 96.264 8.53238 96.208 8.88438 96.208C9.16171 96.208 9.42571 96.2347 9.67638 96.288C9.92704 96.3413 10.1644 96.416 10.3884 96.512L10.2364 96.912C9.77771 96.72 9.32171 96.624 8.86838 96.624C8.47371 96.624 8.15104 96.712 7.90038 96.888C7.65504 97.0587 7.53237 97.312 7.53237 97.648C7.53237 97.8933 7.58571 98.0907 7.69237 98.24C7.79904 98.384 7.95371 98.5067 8.15638 98.608C8.35904 98.7093 8.60704 98.8107 8.90038 98.912C9.23638 99.0293 9.52438 99.152 9.76437 99.28C10.0097 99.408 10.199 99.5707 10.3324 99.768C10.4657 99.96 10.5324 100.208 10.5324 100.512ZM15.2356 99.864C15.2356 100.312 15.1609 100.701 15.0116 101.032C14.8676 101.363 14.6516 101.621 14.3636 101.808C14.0809 101.989 13.7342 102.08 13.3236 102.08C12.9289 102.08 12.5902 101.989 12.3076 101.808C12.0249 101.627 11.8062 101.371 11.6516 101.04C11.5022 100.704 11.4276 100.312 11.4276 99.864C11.4276 99.176 11.5982 98.6373 11.9396 98.248C12.2809 97.8587 12.7529 97.664 13.3556 97.664C13.7609 97.664 14.1022 97.7573 14.3796 97.944C14.6622 98.1253 14.8756 98.3813 15.0196 98.712C15.1636 99.0427 15.2356 99.4267 15.2356 99.864ZM11.8996 99.864C11.8996 100.413 12.0142 100.856 12.2436 101.192C12.4782 101.523 12.8409 101.688 13.3316 101.688C13.8276 101.688 14.1902 101.52 14.4196 101.184C14.6489 100.848 14.7636 100.408 14.7636 99.864C14.7636 99.512 14.7156 99.2 14.6196 98.928C14.5236 98.656 14.3716 98.4427 14.1636 98.288C13.9556 98.1333 13.6836 98.056 13.3476 98.056C12.8676 98.056 12.5049 98.216 12.2596 98.536C12.0196 98.856 11.8996 99.2987 11.8996 99.864ZM16.8903 102H16.4343V95.92H16.8903V102ZM21.9015 99.864C21.9015 100.312 21.8268 100.701 21.6775 101.032C21.5335 101.363 21.3175 101.621 21.0295 101.808C20.7468 101.989 20.4002 102.08 19.9895 102.08C19.5948 102.08 19.2562 101.989 18.9735 101.808C18.6908 101.627 18.4722 101.371 18.3175 101.04C18.1682 100.704 18.0935 100.312 18.0935 99.864C18.0935 99.176 18.2642 98.6373 18.6055 98.248C18.9468 97.8587 19.4188 97.664 20.0215 97.664C20.4268 97.664 20.7682 97.7573 21.0455 97.944C21.3282 98.1253 21.5415 98.3813 21.6855 98.712C21.8295 99.0427 21.9015 99.4267 21.9015 99.864ZM18.5655 99.864C18.5655 100.413 18.6802 100.856 18.9095 101.192C19.1442 101.523 19.5068 101.688 19.9975 101.688C20.4935 101.688 20.8562 101.52 21.0855 101.184C21.3148 100.848 21.4295 100.408 21.4295 99.864C21.4295 99.512 21.3815 99.2 21.2855 98.928C21.1895 98.656 21.0375 98.4427 20.8295 98.288C20.6215 98.1333 20.3495 98.056 20.0135 98.056C19.5335 98.056 19.1708 98.216 18.9255 98.536C18.6855 98.856 18.5655 99.2987 18.5655 99.864ZM27.1304 97.664C27.6744 97.664 28.0984 97.848 28.4024 98.216C28.7064 98.584 28.8584 99.128 28.8584 99.848C28.8584 100.568 28.6984 101.12 28.3784 101.504C28.0637 101.888 27.6317 102.08 27.0824 102.08C26.709 102.08 26.4077 102 26.1784 101.84C25.949 101.68 25.781 101.488 25.6744 101.264H25.6424C25.653 101.397 25.661 101.544 25.6664 101.704C25.6717 101.859 25.6744 102.003 25.6744 102.136V103.888H25.2184V97.744H25.5944L25.6504 98.536H25.6744C25.781 98.3067 25.9517 98.104 26.1864 97.928C26.421 97.752 26.7357 97.664 27.1304 97.664ZM27.0664 98.056C26.5917 98.056 26.2424 98.2053 26.0184 98.504C25.7944 98.8027 25.6797 99.232 25.6744 99.792V99.872C25.6744 100.48 25.7837 100.936 26.0024 101.24C26.2264 101.539 26.5704 101.688 27.0344 101.688C27.4717 101.688 27.805 101.525 28.0344 101.2C28.269 100.869 28.3864 100.416 28.3864 99.84C28.3864 99.2693 28.2744 98.8293 28.0504 98.52C27.8317 98.2107 27.5037 98.056 27.0664 98.056ZM31.7994 97.672C32.0074 97.672 32.1994 97.6933 32.3754 97.736L32.3034 98.16C32.1328 98.112 31.9568 98.088 31.7754 98.088C31.3861 98.088 31.0768 98.232 30.8474 98.52C30.6181 98.808 30.5034 99.1893 30.5034 99.664V102H30.0474V97.744H30.4314L30.4794 98.536H30.5034C30.6101 98.296 30.7728 98.0933 30.9914 97.928C31.2101 97.7573 31.4794 97.672 31.7994 97.672ZM34.6956 97.664C35.0583 97.664 35.3596 97.7493 35.5996 97.92C35.845 98.0853 36.029 98.3147 36.1516 98.608C36.2796 98.9013 36.3436 99.2373 36.3436 99.616V99.928H33.3036C33.3036 100.493 33.4343 100.928 33.6956 101.232C33.9623 101.531 34.341 101.68 34.8316 101.68C35.093 101.68 35.3223 101.659 35.5196 101.616C35.717 101.568 35.933 101.493 36.1676 101.392V101.808C35.9543 101.904 35.7436 101.973 35.5356 102.016C35.3276 102.059 35.0876 102.08 34.8156 102.08C34.1756 102.08 33.685 101.885 33.3436 101.496C33.0023 101.107 32.8316 100.576 32.8316 99.904C32.8316 99.472 32.9036 99.088 33.0476 98.752C33.197 98.416 33.4103 98.152 33.6876 97.96C33.965 97.7627 34.301 97.664 34.6956 97.664ZM34.6876 98.048C34.2983 98.048 33.981 98.1787 33.7356 98.44C33.4956 98.7013 33.357 99.072 33.3196 99.552H35.8716C35.8716 99.104 35.773 98.7413 35.5756 98.464C35.3836 98.1867 35.0876 98.048 34.6876 98.048ZM40.2137 100.872C40.2137 101.256 40.0697 101.555 39.7817 101.768C39.4937 101.976 39.0884 102.08 38.5657 102.08C38.267 102.08 38.003 102.053 37.7737 102C37.5444 101.952 37.3524 101.888 37.1977 101.808V101.368C37.3844 101.464 37.5977 101.544 37.8377 101.608C38.0777 101.667 38.323 101.696 38.5737 101.696C38.9897 101.696 39.291 101.627 39.4777 101.488C39.6697 101.344 39.7657 101.149 39.7657 100.904C39.7657 100.669 39.667 100.491 39.4697 100.368C39.2724 100.24 38.9817 100.109 38.5977 99.976C38.331 99.8853 38.0964 99.7947 37.8937 99.704C37.6964 99.608 37.5417 99.488 37.4297 99.344C37.3177 99.2 37.2617 99.0027 37.2617 98.752C37.2617 98.4107 37.4004 98.144 37.6777 97.952C37.955 97.76 38.3257 97.664 38.7897 97.664C39.0457 97.664 39.283 97.688 39.5017 97.736C39.7257 97.784 39.931 97.848 40.1177 97.928L39.9497 98.304C39.7844 98.2347 39.5977 98.176 39.3897 98.128C39.1817 98.0747 38.9737 98.048 38.7657 98.048C38.4297 98.048 38.1684 98.1067 37.9817 98.224C37.795 98.3413 37.7017 98.512 37.7017 98.736C37.7017 98.9067 37.747 99.0427 37.8377 99.144C37.9284 99.24 38.059 99.3227 38.2297 99.392C38.4004 99.4613 38.6084 99.5387 38.8537 99.624C39.1097 99.7147 39.339 99.808 39.5417 99.904C39.7444 100 39.907 100.123 40.0297 100.272C40.1524 100.421 40.2137 100.621 40.2137 100.872ZM42.9397 97.664C43.3024 97.664 43.6037 97.7493 43.8437 97.92C44.089 98.0853 44.273 98.3147 44.3957 98.608C44.5237 98.9013 44.5877 99.2373 44.5877 99.616V99.928H41.5477C41.5477 100.493 41.6784 100.928 41.9397 101.232C42.2064 101.531 42.585 101.68 43.0757 101.68C43.337 101.68 43.5664 101.659 43.7637 101.616C43.961 101.568 44.177 101.493 44.4117 101.392V101.808C44.1984 101.904 43.9877 101.973 43.7797 102.016C43.5717 102.059 43.3317 102.08 43.0597 102.08C42.4197 102.08 41.929 101.885 41.5877 101.496C41.2464 101.107 41.0757 100.576 41.0757 99.904C41.0757 99.472 41.1477 99.088 41.2917 98.752C41.441 98.416 41.6544 98.152 41.9317 97.96C42.209 97.7627 42.545 97.664 42.9397 97.664ZM42.9317 98.048C42.5424 98.048 42.225 98.1787 41.9797 98.44C41.7397 98.7013 41.601 99.072 41.5637 99.552H44.1157C44.1157 99.104 44.017 98.7413 43.8197 98.464C43.6277 98.1867 43.3317 98.048 42.9317 98.048ZM47.6817 97.664C48.1671 97.664 48.5377 97.7893 48.7937 98.04C49.0497 98.2907 49.1777 98.6827 49.1777 99.216V102H48.7297V99.248C48.7297 98.8427 48.6364 98.544 48.4497 98.352C48.2631 98.1547 47.9911 98.056 47.6337 98.056C46.7004 98.056 46.2337 98.5973 46.2337 99.68V102H45.7777V97.744H46.1457L46.2097 98.48H46.2417C46.3537 98.2453 46.5324 98.0507 46.7777 97.896C47.0231 97.7413 47.3244 97.664 47.6817 97.664ZM51.7834 101.688C51.9007 101.688 52.0127 101.68 52.1194 101.664C52.226 101.648 52.3194 101.624 52.3994 101.592V101.96C52.3194 101.992 52.2207 102.019 52.1034 102.04C51.986 102.067 51.8607 102.08 51.7274 102.08C51.37 102.08 51.0954 101.981 50.9034 101.784C50.7114 101.587 50.6154 101.264 50.6154 100.816V98.112H49.9834V97.856L50.6154 97.704L50.7754 96.728H51.0714V97.744H52.3754V98.112H51.0714V100.792C51.0714 101.389 51.3087 101.688 51.7834 101.688ZM54.9581 97.664C55.3208 97.664 55.6221 97.7493 55.8621 97.92C56.1075 98.0853 56.2915 98.3147 56.4141 98.608C56.5421 98.9013 56.6061 99.2373 56.6061 99.616V99.928H53.5661C53.5661 100.493 53.6968 100.928 53.9581 101.232C54.2248 101.531 54.6035 101.68 55.0941 101.68C55.3555 101.68 55.5848 101.659 55.7821 101.616C55.9795 101.568 56.1955 101.493 56.4301 101.392V101.808C56.2168 101.904 56.0061 101.973 55.7981 102.016C55.5901 102.059 55.3501 102.08 55.0781 102.08C54.4381 102.08 53.9475 101.885 53.6061 101.496C53.2648 101.107 53.0941 100.576 53.0941 99.904C53.0941 99.472 53.1661 99.088 53.3101 98.752C53.4595 98.416 53.6728 98.152 53.9501 97.96C54.2275 97.7627 54.5635 97.664 54.9581 97.664ZM54.9501 98.048C54.5608 98.048 54.2435 98.1787 53.9981 98.44C53.7581 98.7013 53.6195 99.072 53.5821 99.552H56.1341C56.1341 99.104 56.0355 98.7413 55.8381 98.464C55.6461 98.1867 55.3501 98.048 54.9501 98.048ZM60.4762 100.872C60.4762 101.256 60.3322 101.555 60.0442 101.768C59.7562 101.976 59.3509 102.08 58.8282 102.08C58.5295 102.08 58.2655 102.053 58.0362 102C57.8069 101.952 57.6149 101.888 57.4602 101.808V101.368C57.6469 101.464 57.8602 101.544 58.1002 101.608C58.3402 101.667 58.5855 101.696 58.8362 101.696C59.2522 101.696 59.5535 101.627 59.7402 101.488C59.9322 101.344 60.0282 101.149 60.0282 100.904C60.0282 100.669 59.9295 100.491 59.7322 100.368C59.5349 100.24 59.2442 100.109 58.8602 99.976C58.5935 99.8853 58.3589 99.7947 58.1562 99.704C57.9589 99.608 57.8042 99.488 57.6922 99.344C57.5802 99.2 57.5242 99.0027 57.5242 98.752C57.5242 98.4107 57.6629 98.144 57.9402 97.952C58.2175 97.76 58.5882 97.664 59.0522 97.664C59.3082 97.664 59.5455 97.688 59.7642 97.736C59.9882 97.784 60.1935 97.848 60.3802 97.928L60.2122 98.304C60.0469 98.2347 59.8602 98.176 59.6522 98.128C59.4442 98.0747 59.2362 98.048 59.0282 98.048C58.6922 98.048 58.4309 98.1067 58.2442 98.224C58.0575 98.3413 57.9642 98.512 57.9642 98.736C57.9642 98.9067 58.0095 99.0427 58.1002 99.144C58.1909 99.24 58.3215 99.3227 58.4922 99.392C58.6629 99.4613 58.8709 99.5387 59.1162 99.624C59.3722 99.7147 59.6015 99.808 59.8042 99.904C60.0069 100 60.1695 100.123 60.2922 100.272C60.4149 100.421 60.4762 100.621 60.4762 100.872ZM65.3203 97.664C65.683 97.664 65.9843 97.7493 66.2243 97.92C66.4696 98.0853 66.6536 98.3147 66.7763 98.608C66.9043 98.9013 66.9683 99.2373 66.9683 99.616V99.928H63.9283C63.9283 100.493 64.059 100.928 64.3203 101.232C64.587 101.531 64.9656 101.68 65.4563 101.68C65.7176 101.68 65.947 101.659 66.1443 101.616C66.3416 101.568 66.5576 101.493 66.7923 101.392V101.808C66.579 101.904 66.3683 101.973 66.1603 102.016C65.9523 102.059 65.7123 102.08 65.4403 102.08C64.8003 102.08 64.3096 101.885 63.9683 101.496C63.627 101.107 63.4563 100.576 63.4563 99.904C63.4563 99.472 63.5283 99.088 63.6723 98.752C63.8216 98.416 64.035 98.152 64.3123 97.96C64.5896 97.7627 64.9256 97.664 65.3203 97.664ZM65.3123 98.048C64.923 98.048 64.6056 98.1787 64.3603 98.44C64.1203 98.7013 63.9816 99.072 63.9443 99.552H66.4963C66.4963 99.104 66.3976 98.7413 66.2003 98.464C66.0083 98.1867 65.7123 98.048 65.3123 98.048ZM70.0624 97.664C70.5477 97.664 70.9184 97.7893 71.1744 98.04C71.4304 98.2907 71.5584 98.6827 71.5584 99.216V102H71.1104V99.248C71.1104 98.8427 71.017 98.544 70.8304 98.352C70.6437 98.1547 70.3717 98.056 70.0144 98.056C69.081 98.056 68.6144 98.5973 68.6144 99.68V102H68.1584V97.744H68.5264L68.5904 98.48H68.6224C68.7344 98.2453 68.913 98.0507 69.1584 97.896C69.4037 97.7413 69.705 97.664 70.0624 97.664ZM78.4261 102H74.8101V101.616L76.4501 99.912C76.7221 99.6293 76.9515 99.376 77.1381 99.152C77.3248 98.928 77.4661 98.704 77.5621 98.48C77.6581 98.256 77.7061 98.0053 77.7061 97.728C77.7061 97.3707 77.6021 97.096 77.3941 96.904C77.1861 96.7067 76.9061 96.608 76.5541 96.608C76.2981 96.608 76.0581 96.6533 75.8341 96.744C75.6101 96.8347 75.3888 96.9653 75.1701 97.136L74.9221 96.816C75.1568 96.624 75.4128 96.4747 75.6901 96.368C75.9675 96.2613 76.2555 96.208 76.5541 96.208C77.0448 96.208 77.4368 96.344 77.7301 96.616C78.0288 96.888 78.1781 97.2507 78.1781 97.704C78.1781 98.0133 78.1221 98.296 78.0101 98.552C77.8981 98.808 77.7408 99.0587 77.5381 99.304C77.3355 99.5493 77.0981 99.8107 76.8261 100.088L75.3941 101.56V101.576H78.4261V102ZM83.1084 99.128C83.1084 100.077 82.9618 100.808 82.6684 101.32C82.3751 101.827 81.9084 102.08 81.2684 102.08C80.6658 102.08 80.2098 101.829 79.9004 101.328C79.5911 100.827 79.4364 100.093 79.4364 99.128C79.4364 98.5413 79.4951 98.0293 79.6124 97.592C79.7298 97.1547 79.9244 96.8133 80.1964 96.568C80.4684 96.3227 80.8284 96.2 81.2764 96.2C81.7138 96.2 82.0658 96.32 82.3324 96.56C82.6044 96.8 82.8018 97.1387 82.9244 97.576C83.0471 98.0133 83.1084 98.5307 83.1084 99.128ZM79.8924 99.128C79.8924 99.992 80.0018 100.635 80.2204 101.056C80.4444 101.472 80.7938 101.68 81.2684 101.68C81.7591 101.68 82.1111 101.469 82.3244 101.048C82.5378 100.627 82.6444 99.9867 82.6444 99.128C82.6444 98.5947 82.6018 98.1413 82.5164 97.768C82.4364 97.3893 82.2951 97.1013 82.0924 96.904C81.8951 96.7013 81.6231 96.6 81.2764 96.6C80.9298 96.6 80.6551 96.7013 80.4524 96.904C80.2551 97.1067 80.1111 97.3973 80.0204 97.776C79.9351 98.1547 79.8924 98.6053 79.8924 99.128ZM87.6467 102H84.0307V101.616L85.6707 99.912C85.9427 99.6293 86.1721 99.376 86.3587 99.152C86.5454 98.928 86.6867 98.704 86.7827 98.48C86.8787 98.256 86.9267 98.0053 86.9267 97.728C86.9267 97.3707 86.8227 97.096 86.6147 96.904C86.4067 96.7067 86.1267 96.608 85.7747 96.608C85.5187 96.608 85.2787 96.6533 85.0547 96.744C84.8307 96.8347 84.6094 96.9653 84.3907 97.136L84.1427 96.816C84.3774 96.624 84.6334 96.4747 84.9107 96.368C85.1881 96.2613 85.4761 96.208 85.7747 96.208C86.2654 96.208 86.6574 96.344 86.9507 96.616C87.2494 96.888 87.3987 97.2507 87.3987 97.704C87.3987 98.0133 87.3427 98.296 87.2307 98.552C87.1187 98.808 86.9614 99.0587 86.7587 99.304C86.5561 99.5493 86.3187 99.8107 86.0467 100.088L84.6147 101.56V101.576H87.6467V102ZM92.3291 99.128C92.3291 100.077 92.1824 100.808 91.8891 101.32C91.5957 101.827 91.1291 102.08 90.4891 102.08C89.8864 102.08 89.4304 101.829 89.1211 101.328C88.8117 100.827 88.6571 100.093 88.6571 99.128C88.6571 98.5413 88.7157 98.0293 88.8331 97.592C88.9504 97.1547 89.1451 96.8133 89.4171 96.568C89.6891 96.3227 90.0491 96.2 90.4971 96.2C90.9344 96.2 91.2864 96.32 91.5531 96.56C91.8251 96.8 92.0224 97.1387 92.1451 97.576C92.2677 98.0133 92.3291 98.5307 92.3291 99.128ZM89.1131 99.128C89.1131 99.992 89.2224 100.635 89.4411 101.056C89.6651 101.472 90.0144 101.68 90.4891 101.68C90.9797 101.68 91.3317 101.469 91.5451 101.048C91.7584 100.627 91.8651 99.9867 91.8651 99.128C91.8651 98.5947 91.8224 98.1413 91.7371 97.768C91.6571 97.3893 91.5157 97.1013 91.3131 96.904C91.1157 96.7013 90.8437 96.6 90.4971 96.6C90.1504 96.6 89.8757 96.7013 89.6731 96.904C89.4757 97.1067 89.3317 97.3973 89.2411 97.776C89.1557 98.1547 89.1131 98.6053 89.1131 99.128Z" fill="#050505"/>
</svg>
