<svg width="744" height="592" viewBox="0 0 744 592" fill="none" xmlns="http://www.w3.org/2000/svg">
<path fill-rule="evenodd" clip-rule="evenodd" d="M464.145 138.101L456 144.044C457.23 146.761 459.05 149.221 461.459 151.426C463.869 153.63 466.714 155.347 469.995 156.578C473.327 157.859 476.915 158.5 480.76 158.5C483.528 158.5 486.219 158.115 488.833 157.347C491.448 156.578 493.78 155.45 495.831 153.963C497.933 152.477 499.599 150.606 500.829 148.35C502.059 146.043 502.674 143.403 502.674 140.43C502.674 139.628 502.628 138.851 502.537 138.101H482.604C483.247 138.47 483.708 138.811 483.989 139.123C484.502 139.635 484.758 140.251 484.758 140.968C484.758 142.147 484.297 143.019 483.374 143.583C482.451 144.095 481.324 144.352 479.991 144.352C477.581 144.352 475.249 143.608 472.993 142.122C471.474 141.061 470.113 139.721 468.91 138.101H464.145ZM509.201 138.101V156.193H524.195V138.101H509.201ZM532.269 138.101V156.193H548.032V138.101H532.269ZM556.828 138.101C554.576 139.987 553.45 142.583 553.45 145.889C553.45 148.299 554.04 150.349 555.219 152.041C556.398 153.681 557.961 154.912 559.909 155.732C561.857 156.552 563.985 156.962 566.292 156.962C568.906 156.962 571.238 156.475 573.289 155.501C575.391 154.527 576.954 153.092 577.979 151.195V156.193H592.205V138.101H556.828ZM599.911 138.101V156.193H614.136V138.2L628.746 156.193H646.047L631.64 138.101H599.911ZM653.623 138.101C653.62 138.236 653.619 138.371 653.619 138.508C653.619 142.301 654.542 145.582 656.387 148.35C658.233 151.118 660.77 153.246 664 154.732C667.229 156.219 670.895 156.962 674.996 156.962C679.096 156.962 682.762 156.219 685.991 154.732C689.221 153.246 691.758 151.118 693.604 148.35C695.449 145.582 696.372 142.301 696.372 138.508C696.372 138.371 696.371 138.236 696.368 138.101H680.909C680.914 138.234 680.916 138.37 680.916 138.508C680.916 140.661 680.301 142.301 679.071 143.429C677.892 144.505 676.533 145.044 674.996 145.044C673.458 145.044 672.074 144.505 670.843 143.429C669.664 142.301 669.075 140.661 669.075 138.508C669.075 138.37 669.077 138.234 669.082 138.101H653.623ZM701.005 138.101C701.003 138.236 701.002 138.371 701.002 138.508C701.002 142.301 701.924 145.582 703.77 148.35C705.615 151.118 708.153 153.246 711.382 154.732C714.612 156.219 718.277 156.962 722.378 156.962C726.479 156.962 730.144 156.219 733.374 154.732C736.603 153.246 739.141 151.118 740.986 148.35C742.832 145.582 743.754 142.301 743.754 138.508C743.754 138.371 743.753 138.236 743.751 138.101H728.291C728.296 138.234 728.299 138.37 728.299 138.508C728.299 140.661 727.684 142.301 726.453 143.429C725.274 144.505 723.916 145.044 722.378 145.044C720.84 145.044 719.456 144.505 718.226 143.429C717.047 142.301 716.457 140.661 716.457 138.508C716.457 138.37 716.46 138.234 716.465 138.101H701.005ZM568.522 145.044C568.522 146.018 568.88 146.761 569.598 147.274C570.316 147.786 571.136 148.042 572.059 148.042C573.34 148.042 574.519 147.684 575.596 146.966C576.723 146.197 577.467 144.992 577.826 143.352C576.134 142.686 574.365 142.352 572.52 142.352C571.085 142.352 570.059 142.583 569.444 143.044C568.829 143.506 568.522 144.172 568.522 145.044Z" fill="#07462E"/>
<path fill-rule="evenodd" clip-rule="evenodd" d="M641.833 102.612C639.987 105.38 639.065 108.687 639.065 112.531C639.065 116.325 639.987 119.606 641.833 122.374C643.678 125.142 646.216 127.269 649.445 128.756C652.675 130.242 656.34 130.986 660.441 130.986C664.542 130.986 668.207 130.242 671.437 128.756C674.666 127.269 677.204 125.142 679.049 122.374C680.895 119.606 681.817 116.325 681.817 112.531C681.817 108.687 680.895 105.38 679.049 102.612C677.204 99.8439 674.666 97.7165 671.437 96.2299C668.207 94.7433 664.542 94 660.441 94C656.34 94 652.675 94.7433 649.445 96.2299C646.216 97.7165 643.678 99.8439 641.833 102.612ZM656.289 117.452C655.11 116.325 654.52 114.684 654.52 112.531C654.52 110.378 655.11 108.738 656.289 107.61C657.519 106.482 658.903 105.918 660.441 105.918C661.979 105.918 663.337 106.482 664.516 107.61C665.747 108.738 666.362 110.378 666.362 112.531C666.362 114.684 665.747 116.325 664.516 117.452C663.337 118.529 661.979 119.067 660.441 119.067C658.903 119.067 657.519 118.529 656.289 117.452ZM689.215 102.612C687.37 105.38 686.447 108.687 686.447 112.531C686.447 116.325 687.37 119.606 689.215 122.374C691.061 125.142 693.598 127.269 696.828 128.756C700.057 130.242 703.723 130.986 707.824 130.986C711.925 130.986 715.59 130.242 718.819 128.756C722.049 127.269 724.586 125.142 726.432 122.374C728.277 119.606 729.2 116.325 729.2 112.531C729.2 108.687 728.277 105.38 726.432 102.612C724.586 99.8439 722.049 97.7165 718.819 96.2299C715.59 94.7433 711.925 94 707.824 94C703.723 94 700.057 94.7433 696.828 96.2299C693.598 97.7165 691.061 99.8439 689.215 102.612ZM703.671 117.452C702.492 116.325 701.903 114.684 701.903 112.531C701.903 110.378 702.492 108.738 703.671 107.61C704.902 106.482 706.286 105.918 707.824 105.918C709.362 105.918 710.72 106.482 711.899 107.61C713.129 108.738 713.744 110.378 713.744 112.531C713.744 114.684 713.129 116.325 711.899 117.452C710.72 118.529 709.362 119.067 707.824 119.067C706.286 119.067 704.902 118.529 703.671 117.452Z" fill="#07462E"/>
<path d="M467.837 135.74C469.375 138.456 471.246 140.584 473.451 142.122C475.706 143.608 478.039 144.352 480.448 144.352C481.781 144.352 482.908 144.095 483.831 143.583C484.754 143.019 485.215 142.147 485.215 140.968C485.215 140.251 484.959 139.635 484.446 139.123C483.985 138.61 483.037 138.021 481.601 137.354C480.166 136.688 477.987 135.791 475.065 134.663C473.784 134.15 472.297 133.458 470.606 132.587C468.965 131.715 467.376 130.588 465.838 129.204C464.352 127.82 463.096 126.128 462.07 124.129C461.096 122.129 460.609 119.771 460.609 117.054C460.609 113.517 461.558 110.544 463.454 108.135C465.351 105.725 467.863 103.906 470.99 102.675C474.117 101.445 477.552 100.83 481.294 100.83C485.343 100.83 488.804 101.445 491.674 102.675C494.596 103.906 496.98 105.444 498.825 107.289C500.722 109.134 502.157 110.98 503.131 112.825L490.598 119.746C489.316 117.849 487.907 116.516 486.369 115.747C484.831 114.927 483.319 114.517 481.832 114.517C480.653 114.517 479.679 114.722 478.91 115.132C478.192 115.542 477.834 116.183 477.834 117.054C477.834 118.131 478.346 119.028 479.371 119.746C480.448 120.412 481.858 121.053 483.601 121.668C485.343 122.232 487.266 122.898 489.368 123.667C493.674 125.154 497.031 127.281 499.441 130.049C501.901 132.818 503.131 136.278 503.131 140.43C503.131 143.403 502.516 146.043 501.286 148.35C500.056 150.606 498.39 152.477 496.288 153.963C494.237 155.45 491.905 156.578 489.291 157.347C486.676 158.116 483.985 158.5 481.217 158.5C477.372 158.5 473.784 157.859 470.452 156.578C467.171 155.347 464.326 153.63 461.917 151.426C459.507 149.221 457.687 146.761 456.457 144.044L467.837 135.74Z" fill="#07462E"/>
<path d="M532.726 134.663C532.726 133.074 532.495 131.844 532.034 130.972C531.572 130.049 530.573 129.588 529.035 129.588C527.702 129.588 526.626 129.998 525.805 130.818C525.036 131.587 524.652 132.869 524.652 134.663V156.193H509.658V120.822H524.652V125.974C525.626 124.18 526.984 122.745 528.727 121.668C530.522 120.54 532.803 119.976 535.571 119.976C540.39 119.976 543.747 121.13 545.644 123.437C547.541 125.692 548.489 128.922 548.489 133.125V156.193H532.726V134.663Z" fill="#07462E"/>
<path d="M561.212 133.279L556.676 123.59C559.136 122.616 561.904 121.719 564.98 120.899C568.107 120.079 571.362 119.669 574.746 119.669C578.078 119.669 581.102 120.13 583.819 121.053C586.536 121.976 588.689 123.334 590.278 125.128C591.867 126.871 592.662 129.024 592.662 131.587V156.193H578.437V151.195C577.411 153.092 575.848 154.527 573.746 155.501C571.696 156.475 569.363 156.962 566.749 156.962C564.442 156.962 562.315 156.552 560.367 155.732C558.419 154.912 556.855 153.681 555.676 152.041C554.497 150.349 553.908 148.299 553.908 145.889C553.908 142.506 555.087 139.866 557.445 137.969C559.854 136.021 563.314 135.047 567.825 135.047C569.824 135.047 571.747 135.227 573.592 135.586C575.438 135.945 577.052 136.432 578.437 137.047V135.278C578.437 133.945 578.001 132.843 577.129 131.972C576.258 131.049 574.72 130.588 572.516 130.588C571.08 130.588 569.568 130.767 567.979 131.126C566.39 131.433 564.98 131.818 563.75 132.279C562.52 132.689 561.674 133.023 561.212 133.279ZM568.979 145.044C568.979 146.018 569.337 146.761 570.055 147.274C570.773 147.786 571.593 148.042 572.516 148.042C573.797 148.042 574.976 147.684 576.053 146.966C577.181 146.197 577.924 144.992 578.283 143.352C576.591 142.686 574.823 142.352 572.977 142.352C571.542 142.352 570.517 142.583 569.901 143.044C569.286 143.506 568.979 144.172 568.979 145.044Z" fill="#07462E"/>
<path d="M627.358 120.822H644.966L629.972 135.432L646.504 156.193H629.203L614.593 138.2V156.193H600.368V96.2163H614.593V133.279L627.358 120.822Z" fill="#07462E"/>
<rect x="456" y="219" width="136" height="138.937" rx="8" fill="#07462E"/>
<path d="M474 276.347C474 272.748 474.864 269.653 476.591 267.062C478.319 264.47 480.694 262.479 483.717 261.087C486.74 259.696 490.171 259 494.01 259C497.849 259 501.28 259.696 504.303 261.087C507.326 262.479 509.701 264.47 511.429 267.062C513.156 269.653 514.02 272.748 514.02 276.347C514.02 279.898 513.156 282.969 511.429 285.56C509.701 288.151 507.326 290.143 504.303 291.534C501.28 292.926 497.849 293.622 494.01 293.622C490.171 293.622 486.74 292.926 483.717 291.534C480.694 290.143 478.319 288.151 476.591 285.56C474.864 282.969 474 279.898 474 276.347ZM488.468 276.347C488.468 278.362 489.019 279.898 490.123 280.953C491.275 281.961 492.57 282.465 494.01 282.465C495.45 282.465 496.721 281.961 497.825 280.953C498.976 279.898 499.552 278.362 499.552 276.347C499.552 274.331 498.976 272.796 497.825 271.74C496.721 270.684 495.45 270.157 494.01 270.157C492.57 270.157 491.275 270.684 490.123 271.74C489.019 272.796 488.468 274.331 488.468 276.347Z" fill="#E5E5E5"/>
<path d="M518.354 276.347C518.354 272.748 519.218 269.653 520.945 267.062C522.672 264.47 525.048 262.479 528.071 261.087C531.094 259.696 534.525 259 538.364 259C542.203 259 545.633 259.696 548.657 261.087C551.68 262.479 554.055 264.47 555.782 267.062C557.51 269.653 558.374 272.748 558.374 276.347C558.374 279.898 557.51 282.969 555.782 285.56C554.055 288.151 551.68 290.143 548.657 291.534C545.633 292.926 542.203 293.622 538.364 293.622C534.525 293.622 531.094 292.926 528.071 291.534C525.048 290.143 522.672 288.151 520.945 285.56C519.218 282.969 518.354 279.898 518.354 276.347ZM532.821 276.347C532.821 278.362 533.373 279.898 534.477 280.953C535.629 281.961 536.924 282.465 538.364 282.465C539.803 282.465 541.075 281.961 542.179 280.953C543.33 279.898 543.906 278.362 543.906 276.347C543.906 274.331 543.33 272.796 542.179 271.74C541.075 270.684 539.803 270.157 538.364 270.157C536.924 270.157 535.629 270.684 534.477 271.74C533.373 272.796 532.821 274.331 532.821 276.347Z" fill="#E5E5E5"/>
<path fill-rule="evenodd" clip-rule="evenodd" d="M489.63 300.282C489.627 300.408 489.626 300.535 489.626 300.663C489.626 304.214 490.49 307.285 492.218 309.876C493.945 312.467 496.32 314.458 499.343 315.85C502.367 317.242 505.797 317.937 509.636 317.937C513.475 317.937 516.906 317.242 519.929 315.85C522.952 314.458 525.328 312.467 527.055 309.876C528.782 307.285 529.646 304.214 529.646 300.663C529.646 300.535 529.645 300.408 529.643 300.282H515.172C515.176 300.407 515.179 300.534 515.179 300.663C515.179 302.678 514.603 304.214 513.451 305.269C512.347 306.277 511.076 306.781 509.636 306.781C508.197 306.781 506.901 306.277 505.749 305.269C504.646 304.214 504.094 302.678 504.094 300.663C504.094 300.534 504.096 300.407 504.101 300.282H489.63ZM533.983 300.282C533.981 300.408 533.98 300.535 533.98 300.663C533.98 304.214 534.844 307.285 536.571 309.876C538.299 312.467 540.674 314.458 543.697 315.85C546.72 317.242 550.151 317.937 553.99 317.937C557.829 317.937 561.26 317.242 564.283 315.85C567.306 314.458 569.681 312.467 571.409 309.876C573.136 307.285 574 304.214 574 300.663C574 300.535 573.999 300.408 573.997 300.282H559.525C559.53 300.407 559.532 300.534 559.532 300.663C559.532 302.678 558.957 304.214 557.805 305.269C556.701 306.277 555.43 306.781 553.99 306.781C552.55 306.781 551.255 306.277 550.103 305.269C549 304.214 548.448 302.678 548.448 300.663C548.448 300.534 548.45 300.407 548.455 300.282H533.983Z" fill="#E5E5E5"/>
<path d="M9.528 11.216C7.96 11.216 6.744 11.776 5.88 12.896C5.032 14.016 4.608 15.536 4.608 17.456C4.608 19.392 5.008 20.912 5.808 22.016C6.608 23.104 7.84 23.648 9.504 23.648C10.224 23.648 10.928 23.576 11.616 23.432C12.304 23.272 13.024 23.064 13.776 22.808V25.424C13.072 25.712 12.36 25.92 11.64 26.048C10.936 26.176 10.12 26.24 9.192 26.24C7.432 26.24 5.976 25.88 4.824 25.16C3.672 24.424 2.816 23.4 2.256 22.088C1.696 20.76 1.416 19.208 1.416 17.432C1.416 15.704 1.728 14.184 2.352 12.872C2.976 11.544 3.888 10.504 5.088 9.752C6.304 9 7.784 8.624 9.528 8.624C10.392 8.624 11.24 8.728 12.072 8.936C12.92 9.128 13.712 9.4 14.448 9.752L13.392 12.272C12.784 12 12.152 11.76 11.496 11.552C10.856 11.328 10.2 11.216 9.528 11.216ZM28.7944 19.472C28.7944 21.632 28.2344 23.304 27.1144 24.488C25.9944 25.656 24.4744 26.24 22.5544 26.24C21.3704 26.24 20.3144 25.976 19.3864 25.448C18.4584 24.92 17.7304 24.152 17.2024 23.144C16.6744 22.136 16.4104 20.912 16.4104 19.472C16.4104 17.312 16.9624 15.656 18.0664 14.504C19.1864 13.336 20.7064 12.752 22.6264 12.752C23.8264 12.752 24.8904 13.016 25.8184 13.544C26.7464 14.056 27.4744 14.816 28.0024 15.824C28.5304 16.816 28.7944 18.032 28.7944 19.472ZM19.5064 19.472C19.5064 20.848 19.7464 21.912 20.2264 22.664C20.7224 23.416 21.5144 23.792 22.6024 23.792C23.6904 23.792 24.4744 23.416 24.9544 22.664C25.4504 21.912 25.6984 20.848 25.6984 19.472C25.6984 18.096 25.4504 17.04 24.9544 16.304C24.4744 15.568 23.6824 15.2 22.5784 15.2C21.5064 15.2 20.7224 15.568 20.2264 16.304C19.7464 17.04 19.5064 18.096 19.5064 19.472ZM34.9446 26H31.9206V7.76H34.9446V26ZM50.4272 19.472C50.4272 21.632 49.8672 23.304 48.7472 24.488C47.6272 25.656 46.1072 26.24 44.1872 26.24C43.0032 26.24 41.9472 25.976 41.0192 25.448C40.0912 24.92 39.3632 24.152 38.8352 23.144C38.3072 22.136 38.0432 20.912 38.0432 19.472C38.0432 17.312 38.5952 15.656 39.6992 14.504C40.8192 13.336 42.3392 12.752 44.2592 12.752C45.4592 12.752 46.5232 13.016 47.4512 13.544C48.3792 14.056 49.1072 14.816 49.6352 15.824C50.1632 16.816 50.4272 18.032 50.4272 19.472ZM41.1392 19.472C41.1392 20.848 41.3792 21.912 41.8592 22.664C42.3552 23.416 43.1472 23.792 44.2352 23.792C45.3232 23.792 46.1072 23.416 46.5872 22.664C47.0832 21.912 47.3312 20.848 47.3312 19.472C47.3312 18.096 47.0832 17.04 46.5872 16.304C46.1072 15.568 45.3152 15.2 44.2112 15.2C43.1392 15.2 42.3552 15.568 41.8592 16.304C41.3792 17.04 41.1392 18.096 41.1392 19.472ZM60.3694 12.752C60.5774 12.752 60.8014 12.76 61.0414 12.776C61.2974 12.792 61.5134 12.824 61.6894 12.872L61.4254 15.68C61.2654 15.648 61.0734 15.624 60.8494 15.608C60.6254 15.576 60.4254 15.56 60.2494 15.56C59.6094 15.56 59.0094 15.696 58.4494 15.968C57.8894 16.224 57.4334 16.632 57.0814 17.192C56.7454 17.736 56.5774 18.424 56.5774 19.256V26H53.5534V12.992H55.8814L56.3134 15.248H56.4574C56.8414 14.56 57.3694 13.976 58.0414 13.496C58.7134 13 59.4894 12.752 60.3694 12.752ZM68.8635 12.752C70.6075 12.752 71.9835 13.272 72.9915 14.312C74.0155 15.352 74.5275 16.8 74.5275 18.656V20.192H65.9355C65.9675 21.376 66.2955 22.296 66.9195 22.952C67.5435 23.592 68.4075 23.912 69.5115 23.912C70.3435 23.912 71.0955 23.832 71.7675 23.672C72.4395 23.496 73.1275 23.248 73.8315 22.928V25.352C73.1915 25.656 72.5275 25.88 71.8395 26.024C71.1515 26.168 70.3275 26.24 69.3675 26.24C68.1035 26.24 66.9755 26 65.9835 25.52C65.0075 25.024 64.2395 24.28 63.6795 23.288C63.1355 22.296 62.8635 21.064 62.8635 19.592C62.8635 17.368 63.4155 15.672 64.5195 14.504C65.6235 13.336 67.0715 12.752 68.8635 12.752ZM68.8635 14.984C68.0475 14.984 67.3835 15.248 66.8715 15.776C66.3755 16.288 66.0875 17.056 66.0075 18.08H71.5995C71.5835 17.184 71.3515 16.448 70.9035 15.872C70.4715 15.28 69.7915 14.984 68.8635 14.984ZM86.4328 22.232C86.4328 23.544 85.9608 24.544 85.0168 25.232C84.0888 25.904 82.7528 26.24 81.0088 26.24C80.0968 26.24 79.3128 26.176 78.6568 26.048C78.0168 25.92 77.3928 25.72 76.7848 25.448V22.88C77.4248 23.184 78.1288 23.44 78.8968 23.648C79.6808 23.856 80.4168 23.96 81.1048 23.96C81.9368 23.96 82.5368 23.832 82.9048 23.576C83.2728 23.32 83.4568 22.976 83.4568 22.544C83.4568 22.288 83.3848 22.064 83.2408 21.872C83.0968 21.664 82.8088 21.44 82.3768 21.2C81.9608 20.96 81.3368 20.664 80.5048 20.312C79.6728 19.992 78.9768 19.664 78.4168 19.328C77.8728 18.976 77.4568 18.568 77.1688 18.104C76.8968 17.64 76.7608 17.04 76.7608 16.304C76.7608 15.136 77.2168 14.256 78.1288 13.664C79.0568 13.056 80.2888 12.752 81.8248 12.752C82.6248 12.752 83.3768 12.832 84.0808 12.992C84.8008 13.152 85.5208 13.392 86.2408 13.712L85.2808 15.944C84.6728 15.688 84.0808 15.472 83.5048 15.296C82.9288 15.12 82.3368 15.032 81.7288 15.032C80.4008 15.032 79.7368 15.408 79.7368 16.16C79.7368 16.432 79.8168 16.664 79.9768 16.856C80.1528 17.048 80.4488 17.256 80.8648 17.48C81.2968 17.688 81.9048 17.944 82.6888 18.248C83.4568 18.552 84.1208 18.872 84.6808 19.208C85.2408 19.528 85.6728 19.928 85.9768 20.408C86.2808 20.888 86.4328 21.496 86.4328 22.232Z" fill="#263238"/>
<path d="M461.232 418V400.864H464.304V415.408H471.456V418H461.232ZM485.755 411.472C485.755 413.632 485.195 415.304 484.075 416.488C482.955 417.656 481.435 418.24 479.515 418.24C478.331 418.24 477.275 417.976 476.347 417.448C475.419 416.92 474.691 416.152 474.163 415.144C473.635 414.136 473.371 412.912 473.371 411.472C473.371 409.312 473.923 407.656 475.027 406.504C476.147 405.336 477.667 404.752 479.587 404.752C480.787 404.752 481.851 405.016 482.779 405.544C483.707 406.056 484.435 406.816 484.963 407.824C485.491 408.816 485.755 410.032 485.755 411.472ZM476.467 411.472C476.467 412.848 476.707 413.912 477.187 414.664C477.683 415.416 478.475 415.792 479.563 415.792C480.651 415.792 481.435 415.416 481.915 414.664C482.411 413.912 482.659 412.848 482.659 411.472C482.659 410.096 482.411 409.04 481.915 408.304C481.435 407.568 480.643 407.2 479.539 407.2C478.467 407.2 477.683 407.568 477.187 408.304C476.707 409.04 476.467 410.096 476.467 411.472ZM493.25 404.752C494.898 404.752 496.186 405.392 497.114 406.672H497.234L497.522 404.992H500.042V418.096C500.042 419.952 499.514 421.36 498.458 422.32C497.418 423.28 495.858 423.76 493.778 423.76C492.85 423.76 491.994 423.696 491.21 423.568C490.426 423.456 489.682 423.256 488.978 422.968V420.472C490.466 421.144 492.13 421.48 493.97 421.48C494.962 421.48 495.714 421.2 496.226 420.64C496.754 420.096 497.018 419.296 497.018 418.24V417.904C497.018 417.664 497.026 417.384 497.042 417.064C497.058 416.744 497.082 416.488 497.114 416.296H497.018C496.57 416.968 496.018 417.464 495.362 417.784C494.722 418.088 493.994 418.24 493.178 418.24C491.594 418.24 490.354 417.648 489.458 416.464C488.562 415.28 488.114 413.632 488.114 411.52C488.114 409.408 488.562 407.752 489.458 406.552C490.37 405.352 491.634 404.752 493.25 404.752ZM494.042 407.224C492.154 407.224 491.21 408.672 491.21 411.568C491.21 414.416 492.17 415.84 494.09 415.84C495.146 415.84 495.922 415.552 496.418 414.976C496.93 414.384 497.186 413.392 497.186 412V411.544C497.186 410.008 496.93 408.904 496.418 408.232C495.922 407.56 495.13 407.224 494.042 407.224ZM515.521 411.472C515.521 413.632 514.961 415.304 513.841 416.488C512.721 417.656 511.201 418.24 509.281 418.24C508.097 418.24 507.041 417.976 506.113 417.448C505.185 416.92 504.457 416.152 503.929 415.144C503.401 414.136 503.137 412.912 503.137 411.472C503.137 409.312 503.689 407.656 504.793 406.504C505.913 405.336 507.433 404.752 509.353 404.752C510.553 404.752 511.617 405.016 512.545 405.544C513.473 406.056 514.201 406.816 514.729 407.824C515.257 408.816 515.521 410.032 515.521 411.472ZM506.233 411.472C506.233 412.848 506.473 413.912 506.953 414.664C507.449 415.416 508.241 415.792 509.329 415.792C510.417 415.792 511.201 415.416 511.681 414.664C512.177 413.912 512.425 412.848 512.425 411.472C512.425 410.096 512.177 409.04 511.681 408.304C511.201 407.568 510.409 407.2 509.305 407.2C508.233 407.2 507.449 407.568 506.953 408.304C506.473 409.04 506.233 410.096 506.233 411.472ZM530.906 408.424H535.538V410.656H530.906V415.336H528.65V410.656H524.042V408.424H528.65V403.696H530.906V408.424ZM547.874 418H544.85V404.992H547.874V418ZM550.49 399.856C550.234 400.144 549.858 400.52 549.362 400.984C548.882 401.448 548.378 401.904 547.85 402.352C547.322 402.8 546.866 403.168 546.482 403.456H544.466V403.144C544.706 402.856 544.986 402.504 545.306 402.088C545.626 401.672 545.938 401.248 546.242 400.816C546.562 400.368 546.826 399.968 547.034 399.616H550.49V399.856ZM556.997 418.24C555.125 418.24 553.653 417.704 552.581 416.632C551.509 415.56 550.973 413.872 550.973 411.568C550.973 409.968 551.237 408.672 551.765 407.68C552.309 406.672 553.053 405.936 553.997 405.472C554.941 404.992 556.021 404.752 557.237 404.752C558.053 404.752 558.781 404.832 559.421 404.992C560.061 405.152 560.605 405.344 561.053 405.568L560.165 407.944C559.669 407.752 559.173 407.592 558.677 407.464C558.181 407.32 557.701 407.248 557.237 407.248C555.125 407.248 554.069 408.68 554.069 411.544C554.069 412.936 554.333 413.984 554.861 414.688C555.405 415.392 556.181 415.744 557.189 415.744C557.909 415.744 558.549 415.656 559.109 415.48C559.669 415.304 560.205 415.064 560.717 414.76V417.376C560.221 417.664 559.685 417.88 559.109 418.024C558.549 418.168 557.845 418.24 556.997 418.24ZM575.38 411.472C575.38 413.632 574.82 415.304 573.7 416.488C572.58 417.656 571.06 418.24 569.14 418.24C567.956 418.24 566.9 417.976 565.972 417.448C565.044 416.92 564.316 416.152 563.788 415.144C563.26 414.136 562.996 412.912 562.996 411.472C562.996 409.312 563.548 407.656 564.652 406.504C565.772 405.336 567.292 404.752 569.212 404.752C570.412 404.752 571.476 405.016 572.404 405.544C573.332 406.056 574.06 406.816 574.588 407.824C575.116 408.816 575.38 410.032 575.38 411.472ZM566.092 411.472C566.092 412.848 566.332 413.912 566.812 414.664C567.308 415.416 568.1 415.792 569.188 415.792C570.276 415.792 571.06 415.416 571.54 414.664C572.036 413.912 572.284 412.848 572.284 411.472C572.284 410.096 572.036 409.04 571.54 408.304C571.06 407.568 570.268 407.2 569.164 407.2C568.092 407.2 567.308 407.568 566.812 408.304C566.332 409.04 566.092 410.096 566.092 411.472ZM585.467 404.752C586.923 404.752 588.059 405.128 588.875 405.88C589.707 406.632 590.122 407.848 590.122 409.528V418H587.099V410.128C587.099 408.176 586.299 407.2 584.699 407.2C583.483 407.2 582.651 407.584 582.203 408.352C581.755 409.12 581.531 410.216 581.531 411.64V418H578.507V404.992H580.835L581.267 406.696H581.435C581.851 406.024 582.419 405.536 583.139 405.232C583.875 404.912 584.651 404.752 585.467 404.752ZM605.521 411.472C605.521 413.632 604.961 415.304 603.841 416.488C602.721 417.656 601.201 418.24 599.281 418.24C598.097 418.24 597.041 417.976 596.113 417.448C595.185 416.92 594.457 416.152 593.929 415.144C593.401 414.136 593.137 412.912 593.137 411.472C593.137 409.312 593.689 407.656 594.793 406.504C595.913 405.336 597.433 404.752 599.353 404.752C600.553 404.752 601.617 405.016 602.545 405.544C603.473 406.056 604.201 406.816 604.729 407.824C605.257 408.816 605.521 410.032 605.521 411.472ZM596.233 411.472C596.233 412.848 596.473 413.912 596.953 414.664C597.449 415.416 598.241 415.792 599.329 415.792C600.417 415.792 601.201 415.416 601.681 414.664C602.177 413.912 602.425 412.848 602.425 411.472C602.425 410.096 602.177 409.04 601.681 408.304C601.201 407.568 600.409 407.2 599.305 407.2C598.233 407.2 597.449 407.568 596.953 408.304C596.473 409.04 596.233 410.096 596.233 411.472Z" fill="#263238"/>
<rect y="219" width="243" height="161" fill="#FF3366"/>
<rect y="431" width="243" height="161" fill="#385B4E"/>
<rect x="291" y="219" width="111" height="99" fill="#ECFFB8"/>
<rect x="373" y="70" width="111" height="99" transform="rotate(90 373 70)" fill="#FF96B3"/>
<rect x="291" y="356" width="111" height="99" fill="#EFFFFE"/>
<rect x="291" y="493" width="111" height="99" fill="#D4EBE2"/>
<rect x="236" y="70" width="111" height="99" transform="rotate(90 236 70)" fill="#FFE6ED"/>
<rect x="99" y="70" width="111" height="99" transform="rotate(90 99 70)" fill="#FF4D7D"/>
</svg>
