<svg width="167" height="73" viewBox="0 0 167 73" fill="none" xmlns="http://www.w3.org/2000/svg">
<path d="M7.45058e-08 71V17.9H20.15V25.15C21.85 22.4833 24.0833 20.4333 26.85 19C29.6167 17.5333 32.8167 16.8 36.45 16.8C41.0833 16.8 44.6 17.8167 47 19.85C49.4333 21.8833 51.15 24.4667 52.15 27.6C53.7167 24.1667 56 21.5167 59 19.65C62 17.75 65.5833 16.8 69.75 16.8C74.4167 16.8 77.9833 17.8167 80.45 19.85C82.9167 21.8833 84.6 24.55 85.5 27.85C86.4333 31.1167 86.9 34.65 86.9 38.45V71H66.75V43.9C66.75 40.8 66.3667 38.2833 65.6 36.35C64.8667 34.4167 63.1833 33.45 60.55 33.45C58.2167 33.45 56.45 34.5 55.25 36.6C54.0833 38.7 53.5 41.4667 53.5 44.9V71H33.5V43.9C33.5 42.1 33.3667 40.4 33.1 38.8C32.8333 37.2 32.25 35.9167 31.35 34.95C30.4833 33.95 29.1167 33.45 27.25 33.45C24.9167 33.45 23.15 34.5 21.95 36.6C20.75 38.7 20.15 41.4667 20.15 44.9V71H7.45058e-08ZM124.91 72.3C122.61 72.3 120.177 72.1167 117.61 71.75C115.077 71.4167 112.693 70.7 110.46 69.6C108.227 68.5 106.41 66.85 105.01 64.65C103.61 62.4167 102.91 59.4333 102.91 55.7V32.9H91.0602V17.9H91.3102C93.9102 17.9 95.9768 17.7833 97.5102 17.55C99.0768 17.3167 100.243 16.75 101.01 15.85C101.777 14.95 102.277 13.5333 102.51 11.6C102.777 9.66666 102.91 7 102.91 3.6V0.499996H123.11V17.9H137.76V32.9H123.11V50.5C123.11 52.4333 123.343 54.0667 123.81 55.4C124.277 56.7333 125.527 57.4 127.56 57.4C128.76 57.4 129.893 57.2833 130.96 57.05C132.027 56.8167 132.827 56.5833 133.36 56.35V70.9C132.593 71.2333 131.477 71.55 130.01 71.85C128.577 72.15 126.877 72.3 124.91 72.3ZM156.844 72.6C154.11 72.6 151.777 71.65 149.844 69.75C147.944 67.8167 146.994 65.4833 146.994 62.75C146.994 60.05 147.944 57.75 149.844 55.85C151.777 53.9167 154.11 52.95 156.844 52.95C159.544 52.95 161.844 53.9167 163.744 55.85C165.677 57.75 166.644 60.05 166.644 62.75C166.644 65.4833 165.677 67.8167 163.744 69.75C161.844 71.65 159.544 72.6 156.844 72.6Z" fill="#4E38B1"/>
</svg>
