<svg width="761" height="386" viewBox="0 0 761 386" fill="none" xmlns="http://www.w3.org/2000/svg">
<path d="M408.014 368.341C408.014 369.22 407.695 369.906 407.057 370.398C406.419 370.891 405.553 371.137 404.459 371.137C403.274 371.137 402.363 370.984 401.725 370.679V369.558C402.135 369.731 402.581 369.868 403.064 369.968C403.548 370.068 404.026 370.118 404.5 370.118C405.275 370.118 405.858 369.972 406.25 369.681C406.642 369.384 406.838 368.974 406.838 368.45C406.838 368.104 406.767 367.821 406.626 367.603C406.489 367.379 406.257 367.174 405.929 366.987C405.605 366.8 405.111 366.589 404.445 366.352C403.516 366.019 402.85 365.625 402.449 365.169C402.053 364.713 401.854 364.118 401.854 363.385C401.854 362.615 402.144 362.002 402.723 361.546C403.301 361.09 404.067 360.862 405.02 360.862C406.013 360.862 406.927 361.045 407.761 361.409L407.398 362.421C406.574 362.075 405.771 361.901 404.992 361.901C404.377 361.901 403.896 362.034 403.55 362.298C403.203 362.562 403.03 362.929 403.03 363.398C403.03 363.745 403.094 364.03 403.222 364.253C403.349 364.472 403.563 364.674 403.864 364.861C404.17 365.044 404.634 365.246 405.259 365.47C406.307 365.843 407.027 366.244 407.419 366.673C407.815 367.101 408.014 367.657 408.014 368.341ZM411.053 363.508V368.368C411.053 368.979 411.192 369.435 411.47 369.735C411.748 370.036 412.183 370.187 412.776 370.187C413.56 370.187 414.132 369.972 414.492 369.544C414.856 369.116 415.038 368.416 415.038 367.445V363.508H416.173V371H415.237L415.073 369.995H415.011C414.779 370.364 414.455 370.647 414.04 370.843C413.63 371.039 413.161 371.137 412.632 371.137C411.721 371.137 411.037 370.92 410.581 370.487C410.13 370.054 409.905 369.362 409.905 368.409V363.508H411.053ZM422.173 363.385C423.157 363.385 423.92 363.722 424.463 364.396C425.01 365.066 425.283 366.017 425.283 367.247C425.283 368.478 425.007 369.435 424.456 370.118C423.909 370.797 423.148 371.137 422.173 371.137C421.685 371.137 421.238 371.048 420.833 370.87C420.432 370.688 420.095 370.41 419.821 370.036H419.739L419.5 371H418.686V360.363H419.821V362.947C419.821 363.526 419.803 364.046 419.766 364.506H419.821C420.35 363.758 421.134 363.385 422.173 363.385ZM422.009 364.335C421.234 364.335 420.676 364.558 420.334 365.005C419.992 365.447 419.821 366.194 419.821 367.247C419.821 368.3 419.997 369.054 420.347 369.51C420.698 369.961 421.261 370.187 422.036 370.187C422.733 370.187 423.253 369.934 423.595 369.428C423.936 368.917 424.107 368.186 424.107 367.233C424.107 366.258 423.936 365.531 423.595 365.053C423.253 364.574 422.724 364.335 422.009 364.335ZM429.792 370.2C429.993 370.2 430.186 370.187 430.373 370.159C430.56 370.127 430.708 370.095 430.818 370.063V370.932C430.695 370.991 430.512 371.039 430.271 371.075C430.034 371.116 429.82 371.137 429.628 371.137C428.179 371.137 427.454 370.373 427.454 368.847V364.39H426.381V363.843L427.454 363.371L427.933 361.771H428.589V363.508H430.763V364.39H428.589V368.799C428.589 369.25 428.696 369.596 428.91 369.838C429.125 370.079 429.418 370.2 429.792 370.2ZM433.556 371H432.421V363.508H433.556V371ZM432.326 361.478C432.326 361.218 432.39 361.029 432.517 360.91C432.645 360.787 432.804 360.726 432.996 360.726C433.178 360.726 433.335 360.787 433.467 360.91C433.6 361.033 433.666 361.222 433.666 361.478C433.666 361.733 433.6 361.924 433.467 362.052C433.335 362.175 433.178 362.236 432.996 362.236C432.804 362.236 432.645 362.175 432.517 362.052C432.39 361.924 432.326 361.733 432.326 361.478ZM438.482 370.2C438.683 370.2 438.877 370.187 439.063 370.159C439.25 370.127 439.398 370.095 439.508 370.063V370.932C439.385 370.991 439.202 371.039 438.961 371.075C438.724 371.116 438.51 371.137 438.318 371.137C436.869 371.137 436.145 370.373 436.145 368.847V364.39H435.071V363.843L436.145 363.371L436.623 361.771H437.279V363.508H439.453V364.39H437.279V368.799C437.279 369.25 437.386 369.596 437.601 369.838C437.815 370.079 438.109 370.2 438.482 370.2ZM442.246 371H441.112V360.363H442.246V371ZM447.918 371.137C446.81 371.137 445.935 370.799 445.293 370.125C444.655 369.451 444.336 368.514 444.336 367.315C444.336 366.108 444.632 365.148 445.224 364.438C445.821 363.727 446.621 363.371 447.624 363.371C448.563 363.371 449.305 363.681 449.852 364.301C450.399 364.916 450.673 365.729 450.673 366.741V367.459H445.512C445.534 368.339 445.755 369.006 446.175 369.462C446.598 369.918 447.193 370.146 447.959 370.146C448.765 370.146 449.563 369.977 450.351 369.64V370.651C449.95 370.825 449.57 370.948 449.21 371.021C448.854 371.098 448.424 371.137 447.918 371.137ZM447.61 364.321C447.009 364.321 446.528 364.517 446.168 364.909C445.812 365.301 445.603 365.843 445.539 366.536H449.456C449.456 365.821 449.296 365.274 448.977 364.896C448.658 364.513 448.203 364.321 447.61 364.321ZM460.135 371H459.028V363.877C459.028 363.285 459.046 362.724 459.083 362.195C458.987 362.291 458.88 362.391 458.761 362.496C458.643 362.601 458.101 363.045 457.134 363.829L456.533 363.05L459.178 361.006H460.135V371ZM471.084 368.703H469.601V371H468.514V368.703H463.653V367.712L468.397 360.951H469.601V367.671H471.084V368.703ZM468.514 367.671V364.349C468.514 363.697 468.536 362.961 468.582 362.141H468.527C468.309 362.578 468.104 362.94 467.912 363.228L464.788 367.671H468.514ZM476.161 371.137C475.673 371.137 475.226 371.048 474.821 370.87C474.42 370.688 474.082 370.41 473.809 370.036H473.727C473.782 370.474 473.809 370.888 473.809 371.28V374.363H472.674V363.508H473.597L473.754 364.533H473.809C474.101 364.123 474.44 363.827 474.828 363.645C475.215 363.462 475.659 363.371 476.161 363.371C477.154 363.371 477.92 363.711 478.457 364.39C479 365.069 479.271 366.021 479.271 367.247C479.271 368.478 478.995 369.435 478.444 370.118C477.897 370.797 477.136 371.137 476.161 371.137ZM475.996 364.335C475.231 364.335 474.677 364.547 474.335 364.971C473.994 365.395 473.818 366.069 473.809 366.994V367.247C473.809 368.3 473.984 369.054 474.335 369.51C474.686 369.961 475.249 370.187 476.024 370.187C476.671 370.187 477.177 369.924 477.541 369.4C477.911 368.876 478.095 368.154 478.095 367.233C478.095 366.299 477.911 365.584 477.541 365.087C477.177 364.586 476.662 364.335 475.996 364.335ZM483.78 370.2C483.981 370.2 484.174 370.187 484.361 370.159C484.548 370.127 484.696 370.095 484.805 370.063V370.932C484.682 370.991 484.5 371.039 484.259 371.075C484.022 371.116 483.807 371.137 483.616 371.137C482.167 371.137 481.442 370.373 481.442 368.847V364.39H480.369V363.843L481.442 363.371L481.921 361.771H482.577V363.508H484.751V364.39H482.577V368.799C482.577 369.25 482.684 369.596 482.898 369.838C483.112 370.079 483.406 370.2 483.78 370.2Z" fill="#1F3F33"/>
<path d="M402.57 309.578H405.797C407.312 309.578 408.409 309.805 409.086 310.258C409.763 310.711 410.102 311.427 410.102 312.406C410.102 313.083 409.911 313.643 409.531 314.086C409.156 314.523 408.607 314.807 407.883 314.938V315.016C409.617 315.312 410.484 316.224 410.484 317.75C410.484 318.771 410.138 319.568 409.445 320.141C408.758 320.714 407.794 321 406.555 321H402.57V309.578ZM403.898 314.469H406.086C407.023 314.469 407.698 314.323 408.109 314.031C408.521 313.734 408.727 313.237 408.727 312.539C408.727 311.898 408.497 311.438 408.039 311.156C407.581 310.87 406.852 310.727 405.852 310.727H403.898V314.469ZM403.898 315.594V319.867H406.281C407.203 319.867 407.896 319.69 408.359 319.336C408.828 318.977 409.062 318.417 409.062 317.656C409.062 316.948 408.823 316.427 408.344 316.094C407.87 315.76 407.146 315.594 406.172 315.594H403.898ZM420.301 316.711C420.301 318.107 419.949 319.198 419.246 319.984C418.543 320.766 417.571 321.156 416.332 321.156C415.566 321.156 414.887 320.977 414.293 320.617C413.699 320.258 413.241 319.742 412.918 319.07C412.595 318.398 412.433 317.612 412.433 316.711C412.433 315.315 412.782 314.229 413.48 313.453C414.178 312.672 415.147 312.281 416.387 312.281C417.584 312.281 418.535 312.68 419.238 313.477C419.946 314.273 420.301 315.352 420.301 316.711ZM413.777 316.711C413.777 317.805 413.996 318.638 414.433 319.211C414.871 319.784 415.514 320.07 416.363 320.07C417.212 320.07 417.855 319.786 418.293 319.219C418.736 318.646 418.957 317.81 418.957 316.711C418.957 315.622 418.736 314.797 418.293 314.234C417.855 313.667 417.207 313.383 416.347 313.383C415.499 313.383 414.858 313.661 414.426 314.219C413.993 314.776 413.777 315.607 413.777 316.711ZM428.57 319.852H428.5C427.901 320.721 427.005 321.156 425.812 321.156C424.692 321.156 423.82 320.773 423.195 320.008C422.575 319.242 422.265 318.154 422.265 316.742C422.265 315.331 422.578 314.234 423.203 313.453C423.828 312.672 424.698 312.281 425.812 312.281C426.974 312.281 427.864 312.703 428.484 313.547H428.586L428.531 312.93L428.5 312.328V308.844H429.797V321H428.742L428.57 319.852ZM425.976 320.07C426.862 320.07 427.502 319.831 427.898 319.352C428.299 318.867 428.5 318.089 428.5 317.016V316.742C428.5 315.529 428.297 314.664 427.89 314.148C427.489 313.628 426.846 313.367 425.961 313.367C425.2 313.367 424.617 313.664 424.211 314.258C423.81 314.846 423.609 315.68 423.609 316.758C423.609 317.852 423.81 318.677 424.211 319.234C424.612 319.792 425.2 320.07 425.976 320.07ZM431.355 312.438H432.746L434.621 317.32C435.032 318.435 435.287 319.24 435.386 319.734H435.449C435.516 319.469 435.657 319.016 435.871 318.375C436.089 317.729 436.798 315.75 437.996 312.438H439.386L435.707 322.188C435.342 323.151 434.915 323.833 434.425 324.234C433.941 324.641 433.345 324.844 432.636 324.844C432.24 324.844 431.85 324.799 431.464 324.711V323.672C431.751 323.734 432.071 323.766 432.425 323.766C433.316 323.766 433.951 323.266 434.332 322.266L434.808 321.047L431.355 312.438ZM449.464 321H448.198V312.859C448.198 312.182 448.219 311.542 448.261 310.938C448.152 311.047 448.029 311.161 447.894 311.281C447.758 311.401 447.139 311.909 446.034 312.805L445.347 311.914L448.37 309.578H449.464V321ZM454.108 316.117C454.108 313.872 454.543 312.195 455.413 311.086C456.288 309.971 457.58 309.414 459.288 309.414C459.877 309.414 460.34 309.464 460.679 309.562V310.68C460.278 310.549 459.819 310.484 459.304 310.484C458.08 310.484 457.145 310.867 456.499 311.633C455.853 312.393 455.499 313.591 455.437 315.227H455.53C456.103 314.331 457.009 313.883 458.249 313.883C459.275 313.883 460.082 314.193 460.671 314.812C461.265 315.432 461.562 316.273 461.562 317.336C461.562 318.523 461.236 319.458 460.585 320.141C459.939 320.818 459.064 321.156 457.96 321.156C456.778 321.156 455.84 320.714 455.147 319.828C454.455 318.938 454.108 317.701 454.108 316.117ZM457.944 320.055C458.684 320.055 459.257 319.823 459.663 319.359C460.075 318.891 460.28 318.216 460.28 317.336C460.28 316.581 460.09 315.987 459.71 315.555C459.33 315.122 458.762 314.906 458.007 314.906C457.538 314.906 457.108 315.003 456.718 315.195C456.327 315.388 456.015 315.654 455.78 315.992C455.551 316.331 455.437 316.682 455.437 317.047C455.437 317.583 455.541 318.083 455.749 318.547C455.957 319.01 456.252 319.378 456.632 319.648C457.017 319.919 457.455 320.055 457.944 320.055ZM467.87 321.156C467.313 321.156 466.802 321.055 466.339 320.852C465.88 320.643 465.495 320.326 465.182 319.898H465.089C465.151 320.398 465.182 320.872 465.182 321.32V324.844H463.886V312.438H464.94L465.12 313.609H465.182C465.516 313.141 465.904 312.802 466.347 312.594C466.789 312.385 467.297 312.281 467.87 312.281C469.005 312.281 469.88 312.669 470.495 313.445C471.115 314.221 471.425 315.31 471.425 316.711C471.425 318.117 471.11 319.211 470.479 319.992C469.854 320.768 468.985 321.156 467.87 321.156ZM467.682 313.383C466.807 313.383 466.175 313.625 465.784 314.109C465.393 314.594 465.193 315.365 465.182 316.422V316.711C465.182 317.914 465.383 318.776 465.784 319.297C466.185 319.812 466.828 320.07 467.714 320.07C468.453 320.07 469.031 319.771 469.448 319.172C469.87 318.573 470.081 317.747 470.081 316.695C470.081 315.628 469.87 314.81 469.448 314.242C469.031 313.669 468.443 313.383 467.682 313.383ZM476.624 320.086C476.853 320.086 477.074 320.07 477.288 320.039C477.501 320.003 477.671 319.966 477.796 319.93V320.922C477.655 320.99 477.447 321.044 477.171 321.086C476.9 321.133 476.655 321.156 476.436 321.156C474.78 321.156 473.952 320.284 473.952 318.539V313.445H472.725V312.82L473.952 312.281L474.499 310.453H475.249V312.438H477.733V313.445H475.249V318.484C475.249 319 475.371 319.396 475.616 319.672C475.861 319.948 476.197 320.086 476.624 320.086Z" fill="#1F3F33"/>
<path d="M414.145 269H411.801V262.564H405.219V269H402.885V254.723H405.219V260.562H411.801V254.723H414.145V269ZM417.087 262.916C417.087 257.33 419.363 254.537 423.914 254.537C424.63 254.537 425.235 254.592 425.73 254.703V256.617C425.235 256.474 424.662 256.402 424.011 256.402C422.481 256.402 421.332 256.812 420.564 257.633C419.796 258.453 419.379 259.768 419.314 261.578H419.431C419.737 261.051 420.167 260.644 420.72 260.357C421.274 260.064 421.925 259.918 422.673 259.918C423.969 259.918 424.978 260.315 425.701 261.109C426.423 261.904 426.785 262.981 426.785 264.342C426.785 265.839 426.365 267.024 425.525 267.896C424.692 268.762 423.552 269.195 422.107 269.195C421.085 269.195 420.196 268.951 419.441 268.463C418.686 267.968 418.103 267.252 417.693 266.314C417.289 265.37 417.087 264.238 417.087 262.916ZM422.068 267.301C422.856 267.301 423.461 267.047 423.884 266.539C424.314 266.031 424.529 265.305 424.529 264.361C424.529 263.541 424.327 262.896 423.923 262.428C423.526 261.959 422.927 261.725 422.127 261.725C421.632 261.725 421.176 261.832 420.759 262.047C420.343 262.255 420.014 262.545 419.773 262.916C419.532 263.281 419.412 263.655 419.412 264.039C419.412 264.957 419.659 265.732 420.154 266.363C420.655 266.988 421.293 267.301 422.068 267.301ZM443.647 269H433.97V267.262L437.651 263.561C438.738 262.447 439.458 261.66 439.809 261.197C440.167 260.729 440.428 260.289 440.591 259.879C440.753 259.469 440.835 259.029 440.835 258.561C440.835 257.916 440.639 257.408 440.249 257.037C439.865 256.666 439.331 256.48 438.647 256.48C438.1 256.48 437.57 256.581 437.055 256.783C436.548 256.985 435.958 257.35 435.288 257.877L434.048 256.363C434.842 255.693 435.613 255.217 436.362 254.938C437.111 254.658 437.908 254.518 438.755 254.518C440.083 254.518 441.147 254.866 441.948 255.562C442.749 256.253 443.149 257.184 443.149 258.355C443.149 259 443.032 259.612 442.798 260.191C442.57 260.771 442.215 261.37 441.733 261.988C441.258 262.6 440.464 263.43 439.35 264.479L436.87 266.881V266.979H443.647V269ZM455.223 261.861C455.223 264.342 454.823 266.184 454.022 267.389C453.228 268.593 452.01 269.195 450.37 269.195C448.781 269.195 447.577 268.574 446.756 267.33C445.936 266.087 445.526 264.264 445.526 261.861C445.526 259.342 445.923 257.486 446.717 256.295C447.518 255.097 448.735 254.498 450.37 254.498C451.965 254.498 453.172 255.123 453.993 256.373C454.813 257.623 455.223 259.452 455.223 261.861ZM447.85 261.861C447.85 263.808 448.049 265.198 448.446 266.031C448.849 266.865 449.491 267.281 450.37 267.281C451.248 267.281 451.89 266.858 452.293 266.012C452.704 265.165 452.909 263.782 452.909 261.861C452.909 259.947 452.704 258.564 452.293 257.711C451.89 256.852 451.248 256.422 450.37 256.422C449.491 256.422 448.849 256.842 448.446 257.682C448.049 258.521 447.85 259.915 447.85 261.861ZM463.361 269.195C461.994 269.195 460.933 268.704 460.178 267.721H460.041C460.132 268.632 460.178 269.186 460.178 269.381V273.805H457.883V258.199H459.738C459.79 258.401 459.898 258.883 460.061 259.645H460.178C460.894 258.551 461.968 258.004 463.4 258.004C464.748 258.004 465.796 258.492 466.545 259.469C467.3 260.445 467.678 261.816 467.678 263.58C467.678 265.344 467.294 266.721 466.525 267.711C465.764 268.701 464.709 269.195 463.361 269.195ZM462.805 259.879C461.893 259.879 461.226 260.146 460.803 260.68C460.386 261.214 460.178 262.066 460.178 263.238V263.58C460.178 264.895 460.386 265.849 460.803 266.441C461.219 267.027 461.9 267.32 462.844 267.32C463.638 267.32 464.25 266.995 464.68 266.344C465.109 265.693 465.324 264.765 465.324 263.561C465.324 262.35 465.109 261.435 464.68 260.816C464.257 260.191 463.632 259.879 462.805 259.879ZM474.517 267.34C475.077 267.34 475.637 267.252 476.197 267.076V268.805C475.943 268.915 475.614 269.007 475.211 269.078C474.813 269.156 474.4 269.195 473.97 269.195C471.796 269.195 470.709 268.049 470.709 265.758V259.938H469.234V258.922L470.816 258.082L471.597 255.797H473.013V258.199H476.089V259.938H473.013V265.719C473.013 266.272 473.15 266.682 473.423 266.949C473.703 267.21 474.068 267.34 474.517 267.34Z" fill="#1F3F33"/>
<path d="M416.773 212H413.961V204.277H406.062V212H403.262V194.867H406.062V201.875H413.961V194.867H416.773V212ZM425.891 201.301C427.617 201.301 428.984 201.758 429.992 202.672C431 203.586 431.504 204.832 431.504 206.41C431.504 208.238 430.93 209.668 429.781 210.699C428.641 211.723 427.016 212.234 424.906 212.234C422.992 212.234 421.488 211.926 420.395 211.309V208.812C421.027 209.172 421.754 209.449 422.574 209.645C423.395 209.84 424.156 209.938 424.859 209.938C426.102 209.938 427.047 209.66 427.695 209.105C428.344 208.551 428.668 207.738 428.668 206.668C428.668 204.621 427.363 203.598 424.754 203.598C424.387 203.598 423.934 203.637 423.395 203.715C422.855 203.785 422.383 203.867 421.977 203.961L420.746 203.234L421.402 194.867H430.309V197.316H423.828L423.441 201.559C423.715 201.512 424.047 201.457 424.438 201.395C424.836 201.332 425.32 201.301 425.891 201.301ZM451.637 212H440.023V209.914L444.441 205.473C445.746 204.137 446.609 203.191 447.031 202.637C447.461 202.074 447.773 201.547 447.969 201.055C448.164 200.562 448.262 200.035 448.262 199.473C448.262 198.699 448.027 198.09 447.559 197.645C447.098 197.199 446.457 196.977 445.637 196.977C444.98 196.977 444.344 197.098 443.727 197.34C443.117 197.582 442.41 198.02 441.605 198.652L440.117 196.836C441.07 196.031 441.996 195.461 442.895 195.125C443.793 194.789 444.75 194.621 445.766 194.621C447.359 194.621 448.637 195.039 449.598 195.875C450.559 196.703 451.039 197.82 451.039 199.227C451.039 200 450.898 200.734 450.617 201.43C450.344 202.125 449.918 202.844 449.34 203.586C448.77 204.32 447.816 205.316 446.48 206.574L443.504 209.457V209.574H451.637V212ZM465.957 208.262H463.648V212H460.965V208.262H453.137V206.141L460.965 194.82H463.648V205.977H465.957V208.262ZM460.965 205.977V201.676C460.965 200.145 461.004 198.891 461.082 197.914H460.988C460.77 198.43 460.426 199.055 459.957 199.789L455.703 205.977H460.965ZM474.934 212.234C473.293 212.234 472.02 211.645 471.113 210.465H470.949C471.059 211.559 471.113 212.223 471.113 212.457V217.766H468.359V199.039H470.586C470.648 199.281 470.777 199.859 470.973 200.773H471.113C471.973 199.461 473.262 198.805 474.98 198.805C476.598 198.805 477.855 199.391 478.754 200.562C479.66 201.734 480.113 203.379 480.113 205.496C480.113 207.613 479.652 209.266 478.73 210.453C477.816 211.641 476.551 212.234 474.934 212.234ZM474.266 201.055C473.172 201.055 472.371 201.375 471.863 202.016C471.363 202.656 471.113 203.68 471.113 205.086V205.496C471.113 207.074 471.363 208.219 471.863 208.93C472.363 209.633 473.18 209.984 474.312 209.984C475.266 209.984 476 209.594 476.516 208.812C477.031 208.031 477.289 206.918 477.289 205.473C477.289 204.02 477.031 202.922 476.516 202.18C476.008 201.43 475.258 201.055 474.266 201.055ZM488.141 210.008C488.812 210.008 489.484 209.902 490.156 209.691V211.766C489.852 211.898 489.457 212.008 488.973 212.094C488.496 212.188 488 212.234 487.484 212.234C484.875 212.234 483.57 210.859 483.57 208.109V201.125H481.801V199.906L483.699 198.898L484.637 196.156H486.336V199.039H490.027V201.125H486.336V208.062C486.336 208.727 486.5 209.219 486.828 209.539C487.164 209.852 487.602 210.008 488.141 210.008Z" fill="#1F3F33"/>
<path d="M423.346 150H419.361V139.06H408.172V150H404.204V125.729H408.172V135.656H419.361V125.729H423.346V150ZM445.593 144.704H442.322V150H438.521V144.704H427.431V141.699L438.521 125.662H442.322V141.467H445.593V144.704ZM438.521 141.467V135.374C438.521 133.205 438.576 131.428 438.687 130.045H438.554C438.244 130.775 437.757 131.661 437.093 132.701L431.066 141.467H438.521ZM472.572 131.307C472.572 132.845 472.124 134.129 471.228 135.158C470.331 136.176 469.069 136.863 467.442 137.217V137.35C469.39 137.593 470.851 138.202 471.825 139.176C472.799 140.139 473.286 141.423 473.286 143.027C473.286 145.363 472.462 147.167 470.812 148.439C469.163 149.701 466.817 150.332 463.773 150.332C461.084 150.332 458.815 149.895 456.967 149.021V145.551C457.996 146.06 459.086 146.453 460.237 146.729C461.388 147.006 462.495 147.145 463.558 147.145C465.439 147.145 466.845 146.796 467.774 146.099C468.704 145.401 469.169 144.322 469.169 142.861C469.169 141.566 468.654 140.615 467.625 140.006C466.596 139.397 464.98 139.093 462.777 139.093H460.669V135.922H462.811C466.684 135.922 468.621 134.583 468.621 131.904C468.621 130.864 468.284 130.062 467.608 129.497C466.933 128.933 465.937 128.65 464.62 128.65C463.701 128.65 462.816 128.783 461.964 129.049C461.112 129.303 460.104 129.807 458.942 130.56L457.033 127.837C459.258 126.199 461.842 125.38 464.786 125.38C467.232 125.38 469.141 125.906 470.514 126.957C471.886 128.008 472.572 129.458 472.572 131.307ZM494.022 144.704H490.752V150H486.95V144.704H475.86V141.699L486.95 125.662H490.752V141.467H494.022V144.704ZM486.95 141.467V135.374C486.95 133.205 487.006 131.428 487.116 130.045H486.983C486.674 130.775 486.187 131.661 485.522 132.701L479.496 141.467H486.95ZM506.989 150.332C504.665 150.332 502.861 149.496 501.577 147.825H501.345C501.5 149.375 501.577 150.315 501.577 150.647V158.168H497.676V131.639H500.83C500.919 131.982 501.101 132.801 501.378 134.096H501.577C502.795 132.236 504.621 131.307 507.056 131.307C509.347 131.307 511.129 132.137 512.401 133.797C513.685 135.457 514.327 137.787 514.327 140.786C514.327 143.785 513.674 146.126 512.368 147.809C511.073 149.491 509.28 150.332 506.989 150.332ZM506.043 134.494C504.493 134.494 503.359 134.948 502.64 135.855C501.931 136.763 501.577 138.213 501.577 140.205V140.786C501.577 143.022 501.931 144.643 502.64 145.65C503.348 146.646 504.505 147.145 506.109 147.145C507.46 147.145 508.5 146.591 509.23 145.484C509.961 144.378 510.326 142.8 510.326 140.753C510.326 138.694 509.961 137.139 509.23 136.088C508.511 135.025 507.449 134.494 506.043 134.494ZM525.949 147.178C526.901 147.178 527.853 147.028 528.805 146.729V149.668C528.373 149.856 527.814 150.011 527.128 150.133C526.453 150.266 525.75 150.332 525.02 150.332C521.323 150.332 519.475 148.384 519.475 144.488V134.594H516.968V132.867L519.657 131.439L520.985 127.555H523.393V131.639H528.622V134.594H523.393V144.422C523.393 145.363 523.625 146.06 524.09 146.514C524.566 146.956 525.186 147.178 525.949 147.178Z" fill="#1F3F33"/>
<path d="M432.547 76H426.922V60.5547H411.125V76H405.523V41.7344H411.125V55.75H426.922V41.7344H432.547V76ZM461.094 49.6094C461.094 51.7812 460.461 53.5938 459.195 55.0469C457.93 56.4844 456.148 57.4531 453.852 57.9531V58.1406C456.602 58.4844 458.664 59.3438 460.039 60.7188C461.414 62.0781 462.102 63.8906 462.102 66.1562C462.102 69.4531 460.938 72 458.609 73.7969C456.281 75.5781 452.969 76.4688 448.672 76.4688C444.875 76.4688 441.672 75.8516 439.062 74.6172V69.7188C440.516 70.4375 442.055 70.9922 443.68 71.3828C445.305 71.7734 446.867 71.9688 448.367 71.9688C451.023 71.9688 453.008 71.4766 454.32 70.4922C455.633 69.5078 456.289 67.9844 456.289 65.9219C456.289 64.0938 455.562 62.75 454.109 61.8906C452.656 61.0312 450.375 60.6016 447.266 60.6016H444.289V56.125H447.312C452.781 56.125 455.516 54.2344 455.516 50.4531C455.516 48.9844 455.039 47.8516 454.086 47.0547C453.133 46.2578 451.727 45.8594 449.867 45.8594C448.57 45.8594 447.32 46.0469 446.117 46.4219C444.914 46.7812 443.492 47.4922 441.852 48.5547L439.156 44.7109C442.297 42.3984 445.945 41.2422 450.102 41.2422C453.555 41.2422 456.25 41.9844 458.188 43.4688C460.125 44.9531 461.094 47 461.094 49.6094ZM503.492 68.5234H498.875V76H493.508V68.5234H477.852V64.2812L493.508 41.6406H498.875V63.9531H503.492V68.5234ZM493.508 63.9531V55.3516C493.508 52.2891 493.586 49.7812 493.742 47.8281H493.555C493.117 48.8594 492.43 50.1094 491.492 51.5781L482.984 63.9531H493.508ZM518.047 41.2891C521.297 41.2891 523.867 42.0391 525.758 43.5391C527.648 45.0234 528.594 47.0156 528.594 49.5156C528.594 53.0312 526.484 55.8281 522.266 57.9062C524.953 59.25 526.859 60.6641 527.984 62.1484C529.125 63.6328 529.695 65.2891 529.695 67.1172C529.695 69.9453 528.656 72.2109 526.578 73.9141C524.5 75.6172 521.688 76.4688 518.141 76.4688C514.422 76.4688 511.539 75.6719 509.492 74.0781C507.445 72.4844 506.422 70.2266 506.422 67.3047C506.422 65.3984 506.953 63.6875 508.016 62.1719C509.094 60.6406 510.852 59.2812 513.289 58.0938C511.195 56.8438 509.703 55.5234 508.812 54.1328C507.922 52.7422 507.477 51.1797 507.477 49.4453C507.477 46.9609 508.453 44.9844 510.406 43.5156C512.359 42.0312 514.906 41.2891 518.047 41.2891ZM511.695 67.1172C511.695 68.7422 512.266 70.0078 513.406 70.9141C514.547 71.8047 516.094 72.25 518.047 72.25C520.062 72.25 521.625 71.7891 522.734 70.8672C523.859 69.9297 524.422 68.6641 524.422 67.0703C524.422 65.8047 523.906 64.6484 522.875 63.6016C521.844 62.5547 520.281 61.5859 518.188 60.6953L517.508 60.3906C515.445 61.2969 513.961 62.2969 513.055 63.3906C512.148 64.4688 511.695 65.7109 511.695 67.1172ZM518 45.5312C516.438 45.5312 515.18 45.9219 514.227 46.7031C513.273 47.4688 512.797 48.5156 512.797 49.8438C512.797 50.6562 512.969 51.3828 513.312 52.0234C513.656 52.6641 514.156 53.25 514.812 53.7812C515.469 54.2969 516.578 54.9219 518.141 55.6562C520.016 54.8281 521.336 53.9609 522.102 53.0547C522.883 52.1328 523.273 51.0625 523.273 49.8438C523.273 48.5156 522.789 47.4688 521.82 46.7031C520.867 45.9219 519.594 45.5312 518 45.5312ZM548.867 76.4688C545.586 76.4688 543.039 75.2891 541.227 72.9297H540.898C541.117 75.1172 541.227 76.4453 541.227 76.9141V87.5312H535.719V50.0781H540.172C540.297 50.5625 540.555 51.7188 540.945 53.5469H541.227C542.945 50.9219 545.523 49.6094 548.961 49.6094C552.195 49.6094 554.711 50.7812 556.508 53.125C558.32 55.4688 559.227 58.7578 559.227 62.9922C559.227 67.2266 558.305 70.5312 556.461 72.9062C554.633 75.2812 552.102 76.4688 548.867 76.4688ZM547.531 54.1094C545.344 54.1094 543.742 54.75 542.727 56.0312C541.727 57.3125 541.227 59.3594 541.227 62.1719V62.9922C541.227 66.1484 541.727 68.4375 542.727 69.8594C543.727 71.2656 545.359 71.9688 547.625 71.9688C549.531 71.9688 551 71.1875 552.031 69.625C553.062 68.0625 553.578 65.8359 553.578 62.9453C553.578 60.0391 553.062 57.8438 552.031 56.3594C551.016 54.8594 549.516 54.1094 547.531 54.1094ZM575.281 72.0156C576.625 72.0156 577.969 71.8047 579.312 71.3828V75.5312C578.703 75.7969 577.914 76.0156 576.945 76.1875C575.992 76.375 575 76.4688 573.969 76.4688C568.75 76.4688 566.141 73.7188 566.141 68.2188V54.25H562.602V51.8125L566.398 49.7969L568.273 44.3125H571.672V50.0781H579.055V54.25H571.672V68.125C571.672 69.4531 572 70.4375 572.656 71.0781C573.328 71.7031 574.203 72.0156 575.281 72.0156Z" fill="#1F3F33"/>
<path d="M39.4336 371H32.4023V351.693H12.6562V371H5.6543V328.168H12.6562V345.688H32.4023V328.168H39.4336V371ZM76.7285 371H47.6953V365.785L58.7402 354.682C62.002 351.342 64.1602 348.979 65.2148 347.592C66.2891 346.186 67.0703 344.867 67.5586 343.637C68.0469 342.406 68.291 341.088 68.291 339.682C68.291 337.748 67.7051 336.225 66.5332 335.111C65.3809 333.998 63.7793 333.441 61.7285 333.441C60.0879 333.441 58.4961 333.744 56.9531 334.35C55.4297 334.955 53.6621 336.049 51.6504 337.631L47.9297 333.09C50.3125 331.078 52.627 329.652 54.873 328.812C57.1191 327.973 59.5117 327.553 62.0508 327.553C66.0352 327.553 69.2285 328.598 71.6309 330.688C74.0332 332.758 75.2344 335.551 75.2344 339.066C75.2344 341 74.8828 342.836 74.1797 344.574C73.4961 346.312 72.4316 348.109 70.9863 349.965C69.5605 351.801 67.1777 354.291 63.8379 357.436L56.3965 364.643V364.936H76.7285V371ZM97.6758 352.748C97.6758 335.99 104.502 327.611 118.154 327.611C120.303 327.611 122.119 327.777 123.604 328.109V333.852C122.119 333.422 120.4 333.207 118.447 333.207C113.857 333.207 110.41 334.438 108.105 336.898C105.801 339.359 104.551 343.305 104.355 348.734H104.707C105.625 347.152 106.914 345.932 108.574 345.072C110.234 344.193 112.188 343.754 114.434 343.754C118.32 343.754 121.348 344.945 123.516 347.328C125.684 349.711 126.768 352.943 126.768 357.025C126.768 361.518 125.508 365.072 122.988 367.689C120.488 370.287 117.07 371.586 112.734 371.586C109.668 371.586 107.002 370.854 104.736 369.389C102.471 367.904 100.723 365.756 99.4922 362.943C98.2812 360.111 97.6758 356.713 97.6758 352.748ZM112.617 365.902C114.98 365.902 116.797 365.141 118.066 363.617C119.355 362.094 120 359.916 120 357.084C120 354.623 119.395 352.689 118.184 351.283C116.992 349.877 115.195 349.174 112.793 349.174C111.309 349.174 109.941 349.496 108.691 350.141C107.441 350.766 106.455 351.635 105.732 352.748C105.01 353.842 104.648 354.965 104.648 356.117C104.648 358.871 105.391 361.195 106.875 363.09C108.379 364.965 110.293 365.902 112.617 365.902ZM160.869 349.584C160.869 357.025 159.668 362.553 157.266 366.166C154.883 369.779 151.23 371.586 146.309 371.586C141.543 371.586 137.93 369.721 135.469 365.99C133.008 362.26 131.777 356.791 131.777 349.584C131.777 342.025 132.969 336.459 135.352 332.885C137.754 329.291 141.406 327.494 146.309 327.494C151.094 327.494 154.717 329.369 157.178 333.119C159.639 336.869 160.869 342.357 160.869 349.584ZM138.75 349.584C138.75 355.424 139.346 359.594 140.537 362.094C141.748 364.594 143.672 365.844 146.309 365.844C148.945 365.844 150.869 364.574 152.08 362.035C153.311 359.496 153.926 355.346 153.926 349.584C153.926 343.842 153.311 339.691 152.08 337.133C150.869 334.555 148.945 333.266 146.309 333.266C143.672 333.266 141.748 334.525 140.537 337.045C139.346 339.564 138.75 343.744 138.75 349.584ZM184.834 371.586C180.732 371.586 177.549 370.111 175.283 367.162H174.873C175.146 369.896 175.283 371.557 175.283 372.143V385.414H168.398V338.598H173.965C174.121 339.203 174.443 340.648 174.932 342.934H175.283C177.432 339.652 180.654 338.012 184.951 338.012C188.994 338.012 192.139 339.477 194.385 342.406C196.65 345.336 197.783 349.447 197.783 354.74C197.783 360.033 196.631 364.164 194.326 367.133C192.041 370.102 188.877 371.586 184.834 371.586ZM183.164 343.637C180.43 343.637 178.428 344.438 177.158 346.039C175.908 347.641 175.283 350.199 175.283 353.715V354.74C175.283 358.686 175.908 361.547 177.158 363.324C178.408 365.082 180.449 365.961 183.281 365.961C185.664 365.961 187.5 364.984 188.789 363.031C190.078 361.078 190.723 358.295 190.723 354.682C190.723 351.049 190.078 348.305 188.789 346.449C187.52 344.574 185.645 343.637 183.164 343.637ZM217.852 366.02C219.531 366.02 221.211 365.756 222.891 365.229V370.414C222.129 370.746 221.143 371.02 219.932 371.234C218.74 371.469 217.5 371.586 216.211 371.586C209.688 371.586 206.426 368.148 206.426 361.273V343.812H202.002V340.766L206.748 338.246L209.092 331.391H213.34V338.598H222.568V343.812H213.34V361.156C213.34 362.816 213.75 364.047 214.57 364.848C215.41 365.629 216.504 366.02 217.852 366.02Z" fill="#1F3F33"/>
<path d="M63.0938 265H51.8438V234.109H20.25V265H9.04688V196.469H20.25V224.5H51.8438V196.469H63.0938V265ZM107.156 265H96.1406V220.75C96.1406 215.469 96.2656 211.281 96.5156 208.188C95.7969 208.938 94.9062 209.766 93.8438 210.672C92.8125 211.578 89.3125 214.453 83.3438 219.297L77.8125 212.312L97.9688 196.469H107.156V265ZM197.953 225.719C197.953 239.219 195.234 249.297 189.797 255.953C184.359 262.609 176.172 265.938 165.234 265.938C161.078 265.938 158.094 265.688 156.281 265.188V255.953C159.062 256.734 161.859 257.125 164.672 257.125C172.109 257.125 177.656 255.125 181.312 251.125C184.969 247.125 186.969 240.844 187.312 232.281H186.75C184.906 235.094 182.672 237.125 180.047 238.375C177.453 239.625 174.406 240.25 170.906 240.25C164.844 240.25 160.078 238.359 156.609 234.578C153.141 230.797 151.406 225.609 151.406 219.016C151.406 211.859 153.406 206.172 157.406 201.953C161.438 197.703 166.922 195.578 173.859 195.578C178.734 195.578 182.984 196.766 186.609 199.141C190.234 201.516 193.031 204.969 195 209.5C196.969 214 197.953 219.406 197.953 225.719ZM174.047 204.719C170.234 204.719 167.312 205.969 165.281 208.469C163.25 210.938 162.234 214.422 162.234 218.922C162.234 222.828 163.172 225.906 165.047 228.156C166.953 230.375 169.828 231.484 173.672 231.484C177.391 231.484 180.516 230.375 183.047 228.156C185.578 225.938 186.844 223.344 186.844 220.375C186.844 217.594 186.297 215 185.203 212.594C184.141 210.156 182.641 208.234 180.703 206.828C178.766 205.422 176.547 204.719 174.047 204.719ZM205.125 235.797C205.125 208.984 216.047 195.578 237.891 195.578C241.328 195.578 244.234 195.844 246.609 196.375V205.562C244.234 204.875 241.484 204.531 238.359 204.531C231.016 204.531 225.5 206.5 221.812 210.438C218.125 214.375 216.125 220.688 215.812 229.375H216.375C217.844 226.844 219.906 224.891 222.562 223.516C225.219 222.109 228.344 221.406 231.938 221.406C238.156 221.406 243 223.312 246.469 227.125C249.938 230.938 251.672 236.109 251.672 242.641C251.672 249.828 249.656 255.516 245.625 259.703C241.625 263.859 236.156 265.938 229.219 265.938C224.312 265.938 220.047 264.766 216.422 262.422C212.797 260.047 210 256.609 208.031 252.109C206.094 247.578 205.125 242.141 205.125 235.797ZM229.031 256.844C232.812 256.844 235.719 255.625 237.75 253.188C239.812 250.75 240.844 247.266 240.844 242.734C240.844 238.797 239.875 235.703 237.938 233.453C236.031 231.203 233.156 230.078 229.312 230.078C226.938 230.078 224.75 230.594 222.75 231.625C220.75 232.625 219.172 234.016 218.016 235.797C216.859 237.547 216.281 239.344 216.281 241.188C216.281 245.594 217.469 249.312 219.844 252.344C222.25 255.344 225.312 256.844 229.031 256.844ZM288.234 265.938C281.672 265.938 276.578 263.578 272.953 258.859H272.297C272.734 263.234 272.953 265.891 272.953 266.828V288.062H261.938V213.156H270.844C271.094 214.125 271.609 216.438 272.391 220.094H272.953C276.391 214.844 281.547 212.219 288.422 212.219C294.891 212.219 299.922 214.562 303.516 219.25C307.141 223.938 308.953 230.516 308.953 238.984C308.953 247.453 307.109 254.062 303.422 258.812C299.766 263.562 294.703 265.938 288.234 265.938ZM285.562 221.219C281.188 221.219 277.984 222.5 275.953 225.062C273.953 227.625 272.953 231.719 272.953 237.344V238.984C272.953 245.297 273.953 249.875 275.953 252.719C277.953 255.531 281.219 256.938 285.75 256.938C289.562 256.938 292.5 255.375 294.562 252.25C296.625 249.125 297.656 244.672 297.656 238.891C297.656 233.078 296.625 228.688 294.562 225.719C292.531 222.719 289.531 221.219 285.562 221.219ZM339.562 257.031C342.25 257.031 344.938 256.609 347.625 255.766V264.062C346.406 264.594 344.828 265.031 342.891 265.375C340.984 265.75 339 265.938 336.938 265.938C326.5 265.938 321.281 260.438 321.281 249.438V221.5H314.203V216.625L321.797 212.594L325.547 201.625H332.344V213.156H347.109V221.5H332.344V249.25C332.344 251.906 333 253.875 334.312 255.156C335.656 256.406 337.406 257.031 339.562 257.031Z" fill="#1F3F33"/>
<path d="M12.6834 36H7.54944V16.008H0.953438V11.724H19.2794V16.008H12.6834V36ZM25.1649 10.16C25.9129 10.16 26.5589 10.3413 27.1029 10.704C27.6469 11.044 27.9189 11.69 27.9189 12.642C27.9189 13.5713 27.6469 14.2173 27.1029 14.58C26.5589 14.9427 25.9129 15.124 25.1649 15.124C24.3942 15.124 23.7369 14.9427 23.1929 14.58C22.6716 14.2173 22.4109 13.5713 22.4109 12.642C22.4109 11.69 22.6716 11.044 23.1929 10.704C23.7369 10.3413 24.3942 10.16 25.1649 10.16ZM27.6809 17.436V36H22.6149V17.436H27.6809ZM43.3103 17.096C45.3956 17.096 47.0843 17.912 48.3763 19.544C49.6683 21.1533 50.3143 23.5333 50.3143 26.684C50.3143 29.8347 49.6456 32.2373 48.3083 33.892C46.9709 35.524 45.2596 36.34 43.1743 36.34C41.8369 36.34 40.7716 36.102 39.9783 35.626C39.1849 35.1273 38.5389 34.572 38.0403 33.96H37.7683C37.9496 34.912 38.0403 35.8187 38.0403 36.68V44.16H32.9743V17.436H37.0883L37.8023 19.85H38.0403C38.5389 19.102 39.2076 18.456 40.0463 17.912C40.8849 17.368 41.9729 17.096 43.3103 17.096ZM41.6783 21.142C40.3636 21.142 39.4343 21.55 38.8903 22.366C38.3689 23.182 38.0856 24.4287 38.0403 26.106V26.65C38.0403 28.4407 38.3009 29.8233 38.8223 30.798C39.3663 31.75 40.3409 32.226 41.7463 32.226C42.9023 32.226 43.7523 31.75 44.2963 30.798C44.8629 29.8233 45.1463 28.4293 45.1463 26.616C45.1463 22.9667 43.9903 21.142 41.6783 21.142ZM71.3539 26.684C71.3539 29.7667 70.5379 32.1467 68.9059 33.824C67.2966 35.5013 65.0979 36.34 62.3099 36.34C60.5872 36.34 59.0459 35.966 57.6859 35.218C56.3486 34.47 55.2946 33.382 54.5239 31.954C53.7532 30.5033 53.3679 28.7467 53.3679 26.684C53.3679 23.6013 54.1726 21.2327 55.7819 19.578C57.3912 17.9233 59.6012 17.096 62.4119 17.096C64.1572 17.096 65.6986 17.47 67.0359 18.218C68.3732 18.966 69.4272 20.054 70.1979 21.482C70.9686 22.8873 71.3539 24.6213 71.3539 26.684ZM58.5359 26.684C58.5359 28.52 58.8306 29.914 59.4199 30.866C60.0319 31.7953 61.0179 32.26 62.3779 32.26C63.7152 32.26 64.6786 31.7953 65.2679 30.866C65.8799 29.914 66.1859 28.52 66.1859 26.684C66.1859 24.848 65.8799 23.4767 65.2679 22.57C64.6786 21.6407 63.7039 21.176 62.3439 21.176C61.0066 21.176 60.0319 21.6407 59.4199 22.57C58.8306 23.4767 58.5359 24.848 58.5359 26.684ZM81.5587 17.096C83.848 17.096 85.6387 18.0027 86.9307 19.816H87.0667L87.4747 17.436H91.7587V36.034C91.7587 38.686 90.9767 40.7033 89.4127 42.086C87.8487 43.4687 85.5367 44.16 82.4767 44.16C81.162 44.16 79.938 44.0807 78.8047 43.922C77.694 43.7633 76.606 43.48 75.5407 43.072V39.026C77.83 39.978 80.244 40.454 82.7827 40.454C85.3893 40.454 86.6927 39.0487 86.6927 36.238V35.864C86.6927 35.4787 86.704 35.082 86.7267 34.674C86.772 34.266 86.806 33.9033 86.8287 33.586H86.6927C86.058 34.5607 85.2987 35.2633 84.4147 35.694C83.5307 36.1247 82.5333 36.34 81.4227 36.34C79.224 36.34 77.5013 35.5013 76.2547 33.824C75.0307 32.124 74.4187 29.7667 74.4187 26.752C74.4187 23.7147 75.0533 21.346 76.3227 19.646C77.592 17.946 79.3373 17.096 81.5587 17.096ZM83.1567 21.21C80.7767 21.21 79.5867 23.08 79.5867 26.82C79.5867 30.5147 80.7993 32.362 83.2247 32.362C84.5167 32.362 85.4687 31.9993 86.0807 31.274C86.7153 30.526 87.0327 29.234 87.0327 27.398V26.786C87.0327 24.7913 86.7267 23.3633 86.1147 22.502C85.5027 21.6407 84.5167 21.21 83.1567 21.21ZM107.426 17.096C107.676 17.096 107.97 17.1073 108.31 17.13C108.65 17.1527 108.922 17.1867 109.126 17.232L108.752 21.992C108.594 21.9467 108.356 21.9127 108.038 21.89C107.744 21.8447 107.483 21.822 107.256 21.822C106.395 21.822 105.568 21.9807 104.774 22.298C103.981 22.5927 103.335 23.08 102.836 23.76C102.36 24.44 102.122 25.3693 102.122 26.548V36H97.0563V17.436H100.898L101.646 20.564H101.884C102.428 19.612 103.176 18.796 104.128 18.116C105.08 17.436 106.18 17.096 107.426 17.096ZM119.448 17.062C121.941 17.062 123.845 17.606 125.16 18.694C126.497 19.7593 127.166 21.4027 127.166 23.624V36H123.63L122.644 33.484H122.508C121.714 34.4813 120.876 35.2067 119.992 35.66C119.108 36.1133 117.895 36.34 116.354 36.34C114.699 36.34 113.328 35.864 112.24 34.912C111.152 33.9373 110.608 32.4527 110.608 30.458C110.608 28.486 111.299 27.0353 112.682 26.106C114.064 25.154 116.138 24.6327 118.904 24.542L122.134 24.44V23.624C122.134 22.6493 121.873 21.9353 121.352 21.482C120.853 21.0287 120.15 20.802 119.244 20.802C118.337 20.802 117.453 20.938 116.592 21.21C115.73 21.4593 114.869 21.7767 114.008 22.162L112.342 18.728C113.339 18.2067 114.438 17.7987 115.64 17.504C116.864 17.2093 118.133 17.062 119.448 17.062ZM120.162 27.466C118.53 27.5113 117.396 27.806 116.762 28.35C116.127 28.894 115.81 29.608 115.81 30.492C115.81 31.2627 116.036 31.818 116.49 32.158C116.943 32.4753 117.532 32.634 118.258 32.634C119.346 32.634 120.264 32.3167 121.012 31.682C121.76 31.0247 122.134 30.1067 122.134 28.928V27.398L120.162 27.466ZM142.619 21.244H138.233V36H133.167V21.244H130.379V18.796L133.167 17.436V16.076C133.167 14.4893 133.428 13.2653 133.949 12.404C134.493 11.52 135.253 10.8967 136.227 10.534C137.225 10.1713 138.392 9.99 139.729 9.99C140.727 9.99 141.622 10.0693 142.415 10.228C143.231 10.3867 143.889 10.568 144.387 10.772L143.095 14.478C142.71 14.3647 142.291 14.2627 141.837 14.172C141.384 14.0587 140.863 14.002 140.273 14.002C139.571 14.002 139.049 14.2173 138.709 14.648C138.392 15.0787 138.233 15.6227 138.233 16.28V17.436H142.619V21.244ZM150.566 36H145.5V17.436H150.566V36ZM154.578 10.296C154.26 10.6133 153.841 10.9987 153.32 11.452C152.798 11.9053 152.232 12.3813 151.62 12.88C151.03 13.3787 150.441 13.8547 149.852 14.308C149.285 14.7387 148.786 15.1013 148.356 15.396H144.99V14.954C145.352 14.5233 145.772 14.0247 146.248 13.458C146.746 12.8687 147.234 12.268 147.71 11.656C148.186 11.0213 148.582 10.4547 148.9 9.956H154.578V10.296ZM163.475 17.062C165.968 17.062 167.872 17.606 169.187 18.694C170.524 19.7593 171.193 21.4027 171.193 23.624V36H167.657L166.671 33.484H166.535C165.742 34.4813 164.903 35.2067 164.019 35.66C163.135 36.1133 161.922 36.34 160.381 36.34C158.726 36.34 157.355 35.864 156.267 34.912C155.179 33.9373 154.635 32.4527 154.635 30.458C154.635 28.486 155.326 27.0353 156.709 26.106C158.092 25.154 160.166 24.6327 162.931 24.542L166.161 24.44V23.624C166.161 22.6493 165.9 21.9353 165.379 21.482C164.88 21.0287 164.178 20.802 163.271 20.802C162.364 20.802 161.48 20.938 160.619 21.21C159.758 21.4593 158.896 21.7767 158.035 22.162L156.369 18.728C157.366 18.2067 158.466 17.7987 159.667 17.504C160.891 17.2093 162.16 17.062 163.475 17.062ZM164.189 27.466C162.557 27.5113 161.424 27.806 160.789 28.35C160.154 28.894 159.837 29.608 159.837 30.492C159.837 31.2627 160.064 31.818 160.517 32.158C160.97 32.4753 161.56 32.634 162.285 32.634C163.373 32.634 164.291 32.3167 165.039 31.682C165.787 31.0247 166.161 30.1067 166.161 28.928V27.398L164.189 27.466Z" fill="black"/>
<path d="M24.9116 88.828C24.9116 91.344 24.481 93.5427 23.6196 95.424C22.781 97.2827 21.5343 98.7333 19.8796 99.776C18.225 100.819 16.1736 101.34 13.7256 101.34C11.2096 101.34 9.11297 100.819 7.43564 99.776C5.78097 98.7333 4.54564 97.2713 3.72964 95.39C2.91364 93.5087 2.50564 91.31 2.50564 88.794C2.50564 86.3007 2.91364 84.1247 3.72964 82.266C4.54564 80.4073 5.78097 78.9567 7.43564 77.914C9.11297 76.8713 11.221 76.35 13.7596 76.35C16.185 76.35 18.225 76.8713 19.8796 77.914C21.5343 78.934 22.781 80.3847 23.6196 82.266C24.481 84.1247 24.9116 86.312 24.9116 88.828ZM5.73564 88.828C5.73564 91.888 6.38164 94.302 7.67364 96.07C8.96564 97.8153 10.983 98.688 13.7256 98.688C16.491 98.688 18.5083 97.8153 19.7776 96.07C21.047 94.302 21.6816 91.888 21.6816 88.828C21.6816 85.768 21.047 83.3767 19.7776 81.654C18.5083 79.9087 16.5023 79.036 13.7596 79.036C11.017 79.036 8.98831 79.9087 7.67364 81.654C6.38164 83.3767 5.73564 85.768 5.73564 88.828ZM38.5541 82.436C40.7981 82.436 42.6001 83.218 43.9601 84.782C45.3428 86.346 46.0341 88.7033 46.0341 91.854C46.0341 94.9593 45.3428 97.3167 43.9601 98.926C42.6001 100.535 40.7868 101.34 38.5201 101.34C37.1148 101.34 35.9475 101.079 35.0181 100.558C34.1115 100.014 33.3975 99.3907 32.8761 98.688H32.6721C32.7175 99.0733 32.7628 99.5607 32.8081 100.15C32.8535 100.739 32.8761 101.249 32.8761 101.68V109.16H29.8841V82.776H32.3321L32.7401 85.258H32.8761C33.4201 84.4647 34.1341 83.796 35.0181 83.252C35.9021 82.708 37.0808 82.436 38.5541 82.436ZM38.0101 84.952C36.1515 84.952 34.8368 85.4733 34.0661 86.516C33.3181 87.5587 32.9215 89.1453 32.8761 91.276V91.854C32.8761 94.098 33.2388 95.832 33.9641 97.056C34.7121 98.2573 36.0835 98.858 38.0781 98.858C39.1888 98.858 40.0955 98.552 40.7981 97.94C41.5235 97.328 42.0561 96.5007 42.3961 95.458C42.7588 94.3927 42.9401 93.18 42.9401 91.82C42.9401 89.7347 42.5321 88.0687 41.7161 86.822C40.9228 85.5753 39.6875 84.952 38.0101 84.952ZM57.8401 82.436C59.4041 82.436 60.7414 82.776 61.8521 83.456C62.9854 84.136 63.8468 85.0993 64.4361 86.346C65.0481 87.57 65.3541 89.0093 65.3541 90.664V92.466H52.8761C52.9214 94.5287 53.4428 96.104 54.4401 97.192C55.4601 98.2573 56.8768 98.79 58.6901 98.79C59.8461 98.79 60.8661 98.688 61.7501 98.484C62.6568 98.2573 63.5861 97.94 64.5381 97.532V100.15C63.6088 100.558 62.6908 100.853 61.7841 101.034C60.8774 101.238 59.8008 101.34 58.5541 101.34C56.8314 101.34 55.3014 100.989 53.9641 100.286C52.6494 99.5833 51.6181 98.5407 50.8701 97.158C50.1448 95.7527 49.7821 94.0413 49.7821 92.024C49.7821 90.0293 50.1108 88.318 50.7681 86.89C51.4481 85.462 52.3888 84.3627 53.5901 83.592C54.8141 82.8213 56.2308 82.436 57.8401 82.436ZM57.8061 84.884C56.3781 84.884 55.2448 85.3487 54.4061 86.278C53.5901 87.1847 53.1028 88.454 52.9441 90.086H62.2261C62.2034 88.5447 61.8408 87.298 61.1381 86.346C60.4354 85.3713 59.3248 84.884 57.8061 84.884ZM78.7655 82.436C80.9415 82.436 82.5848 82.9687 83.6955 84.034C84.8062 85.0767 85.3615 86.7767 85.3615 89.134V101H82.4035V89.338C82.4035 86.414 81.0435 84.952 78.3235 84.952C76.3062 84.952 74.9122 85.5187 74.1415 86.652C73.3708 87.7853 72.9855 89.4173 72.9855 91.548V101H69.9935V82.776H72.4075L72.8495 85.258H73.0195C73.6088 84.306 74.4248 83.6033 75.4675 83.15C76.5102 82.674 77.6095 82.436 78.7655 82.436ZM111.709 95.968C111.709 97.736 111.052 99.0733 109.737 99.98C108.422 100.887 106.654 101.34 104.433 101.34C103.164 101.34 102.064 101.238 101.135 101.034C100.228 100.83 99.4238 100.547 98.7211 100.184V97.464C99.4465 97.8267 100.319 98.1667 101.339 98.484C102.382 98.7787 103.436 98.926 104.501 98.926C106.02 98.926 107.119 98.688 107.799 98.212C108.479 97.7133 108.819 97.056 108.819 96.24C108.819 95.7867 108.694 95.3787 108.445 95.016C108.196 94.6533 107.742 94.2907 107.085 93.928C106.45 93.5653 105.532 93.1573 104.331 92.704C103.152 92.2507 102.144 91.7973 101.305 91.344C100.466 90.8907 99.8205 90.3467 99.3671 89.712C98.9138 89.0773 98.6871 88.2613 98.6871 87.264C98.6871 85.7227 99.3105 84.5327 100.557 83.694C101.826 82.8553 103.481 82.436 105.521 82.436C106.632 82.436 107.663 82.5493 108.615 82.776C109.59 82.98 110.496 83.2747 111.335 83.66L110.315 86.04C109.544 85.7227 108.74 85.4507 107.901 85.224C107.062 84.9973 106.201 84.884 105.317 84.884C104.093 84.884 103.152 85.088 102.495 85.496C101.86 85.8813 101.543 86.414 101.543 87.094C101.543 87.5927 101.69 88.0233 101.985 88.386C102.28 88.726 102.767 89.066 103.447 89.406C104.15 89.7233 105.079 90.1087 106.235 90.562C107.391 90.9927 108.377 91.4347 109.193 91.888C110.009 92.3413 110.632 92.8967 111.063 93.554C111.494 94.1887 111.709 94.9933 111.709 95.968ZM123.015 82.47C125.236 82.47 126.879 82.9573 127.945 83.932C129.01 84.9067 129.543 86.4593 129.543 88.59V101H127.367L126.789 98.416H126.653C125.859 99.4133 125.021 100.15 124.137 100.626C123.275 101.102 122.074 101.34 120.533 101.34C118.878 101.34 117.507 100.909 116.419 100.048C115.331 99.164 114.787 97.7927 114.787 95.934C114.787 94.1207 115.501 92.7267 116.929 91.752C118.357 90.7547 120.555 90.2107 123.525 90.12L126.619 90.018V88.93C126.619 87.4113 126.29 86.3573 125.633 85.768C124.975 85.1787 124.046 84.884 122.845 84.884C121.893 84.884 120.986 85.0313 120.125 85.326C119.263 85.598 118.459 85.9153 117.711 86.278L116.793 84.034C117.586 83.6033 118.527 83.2407 119.615 82.946C120.703 82.6287 121.836 82.47 123.015 82.47ZM123.899 92.194C121.632 92.2847 120.057 92.6473 119.173 93.282C118.311 93.9167 117.881 94.812 117.881 95.968C117.881 96.988 118.187 97.736 118.799 98.212C119.433 98.688 120.238 98.926 121.213 98.926C122.754 98.926 124.035 98.5067 125.055 97.668C126.075 96.8067 126.585 95.492 126.585 93.724V92.092L123.899 92.194ZM143.943 82.436C146.119 82.436 147.763 82.9687 148.873 84.034C149.984 85.0767 150.539 86.7767 150.539 89.134V101H147.581V89.338C147.581 86.414 146.221 84.952 143.501 84.952C141.484 84.952 140.09 85.5187 139.319 86.652C138.549 87.7853 138.163 89.4173 138.163 91.548V101H135.171V82.776H137.585L138.027 85.258H138.197C138.787 84.306 139.603 83.6033 140.645 83.15C141.688 82.674 142.787 82.436 143.943 82.436ZM168.055 95.968C168.055 97.736 167.397 99.0733 166.083 99.98C164.768 100.887 163 101.34 160.779 101.34C159.509 101.34 158.41 101.238 157.481 101.034C156.574 100.83 155.769 100.547 155.067 100.184V97.464C155.792 97.8267 156.665 98.1667 157.685 98.484C158.727 98.7787 159.781 98.926 160.847 98.926C162.365 98.926 163.465 98.688 164.145 98.212C164.825 97.7133 165.165 97.056 165.165 96.24C165.165 95.7867 165.04 95.3787 164.791 95.016C164.541 94.6533 164.088 94.2907 163.431 93.928C162.796 93.5653 161.878 93.1573 160.677 92.704C159.498 92.2507 158.489 91.7973 157.651 91.344C156.812 90.8907 156.166 90.3467 155.713 89.712C155.259 89.0773 155.033 88.2613 155.033 87.264C155.033 85.7227 155.656 84.5327 156.903 83.694C158.172 82.8553 159.827 82.436 161.867 82.436C162.977 82.436 164.009 82.5493 164.961 82.776C165.935 82.98 166.842 83.2747 167.681 83.66L166.661 86.04C165.89 85.7227 165.085 85.4507 164.247 85.224C163.408 84.9973 162.547 84.884 161.663 84.884C160.439 84.884 159.498 85.088 158.841 85.496C158.206 85.8813 157.889 86.414 157.889 87.094C157.889 87.5927 158.036 88.0233 158.331 88.386C158.625 88.726 159.113 89.066 159.793 89.406C160.495 89.7233 161.425 90.1087 162.581 90.562C163.737 90.9927 164.723 91.4347 165.539 91.888C166.355 92.3413 166.978 92.8967 167.409 93.554C167.839 94.1887 168.055 94.9933 168.055 95.968Z" fill="black"/>
</svg>
