<svg width="348" height="416" viewBox="0 0 348 416" fill="none" xmlns="http://www.w3.org/2000/svg">
<path d="M2.71863 57.456V48.208C2.71863 47.8453 2.70796 47.4773 2.68663 47.104C2.67596 46.72 2.64396 46.3467 2.59063 45.984H3.51863L3.66263 47.664L3.51863 47.968C3.69996 47.264 4.04663 46.7253 4.55863 46.352C5.08129 45.9787 5.71596 45.792 6.46263 45.792C7.16663 45.792 7.78529 45.968 8.31863 46.32C8.86263 46.6613 9.28396 47.1467 9.58263 47.776C9.89196 48.4053 10.0466 49.1413 10.0466 49.984C10.0466 50.8267 9.89196 51.5573 9.58263 52.176C9.28396 52.784 8.86796 53.2587 8.33463 53.6C7.80129 53.9413 7.17729 54.112 6.46263 54.112C5.71596 54.112 5.08129 53.9253 4.55863 53.552C4.04663 53.168 3.69996 52.624 3.51863 51.92L3.69463 51.792V57.456H2.71863ZM6.35063 53.248C7.18263 53.248 7.83329 52.9653 8.30263 52.4C8.77196 51.8347 9.00663 51.0293 9.00663 49.984C9.00663 48.928 8.77196 48.112 8.30263 47.536C7.83329 46.9493 7.18263 46.656 6.35063 46.656C5.49729 46.656 4.84129 46.9387 4.38263 47.504C3.92396 48.0693 3.69463 48.8853 3.69463 49.952C3.69463 50.9973 3.92396 51.808 4.38263 52.384C4.84129 52.96 5.49729 53.248 6.35063 53.248ZM19.6259 56.912C19.2205 56.112 18.8899 55.3173 18.6339 54.528C18.3779 53.7387 18.1912 52.9493 18.0739 52.16C17.9565 51.3707 17.8979 50.5653 17.8979 49.744C17.8979 48.9333 17.9565 48.1333 18.0739 47.344C18.1912 46.5547 18.3725 45.7707 18.6179 44.992C18.8739 44.2027 19.2099 43.408 19.6259 42.608H20.4739C20.0792 43.5147 19.7645 44.3733 19.5299 45.184C19.3059 45.9947 19.1459 46.7787 19.0499 47.536C18.9539 48.2827 18.9059 49.0187 18.9059 49.744C18.9059 50.4693 18.9539 51.2107 19.0499 51.968C19.1565 52.7253 19.3219 53.5093 19.5459 54.32C19.7805 55.1413 20.0899 56.0053 20.4739 56.912H19.6259ZM26.3268 53.568V43.024L26.9668 43.504L23.9748 45.44V44.432L26.7588 42.608H27.3188V53.568H26.3268ZM23.7988 54V53.152H29.8468V54H23.7988ZM33.2005 54V48.208C33.2005 47.8453 33.1898 47.4773 33.1685 47.104C33.1578 46.72 33.1258 46.3467 33.0725 45.984H34.0005L34.1605 47.904L34.0005 47.872C34.1605 47.1893 34.4858 46.672 34.9765 46.32C35.4778 45.968 36.0378 45.792 36.6565 45.792C36.7952 45.792 36.9178 45.7973 37.0245 45.808C37.1418 45.8187 37.2538 45.8347 37.3605 45.856L37.3285 46.752C37.1258 46.6987 36.8752 46.672 36.5765 46.672C35.9898 46.672 35.5205 46.8053 35.1685 47.072C34.8165 47.3387 34.5605 47.6747 34.4005 48.08C34.2512 48.4747 34.1765 48.88 34.1765 49.296V54H33.2005ZM45.6944 53.008C45.353 53.3493 44.9104 53.6213 44.3664 53.824C43.8224 54.016 43.2624 54.112 42.6864 54.112C41.8757 54.112 41.177 53.9467 40.5904 53.616C40.0037 53.2853 39.5504 52.8107 39.2304 52.192C38.9104 51.5733 38.7504 50.832 38.7504 49.968C38.7504 49.136 38.905 48.4053 39.2144 47.776C39.5344 47.1467 39.977 46.6613 40.5424 46.32C41.1077 45.968 41.7584 45.792 42.4944 45.792C43.1877 45.792 43.785 45.9467 44.2864 46.256C44.7877 46.5547 45.1717 46.992 45.4384 47.568C45.705 48.144 45.8384 48.8427 45.8384 49.664V49.872H39.6144L39.5984 49.136H45.3104L44.9424 49.76C44.9744 48.736 44.777 47.952 44.3504 47.408C43.9344 46.864 43.3157 46.592 42.4944 46.592C41.6517 46.592 40.985 46.8907 40.4944 47.488C40.0144 48.0747 39.7744 48.8853 39.7744 49.92C39.7744 51.008 40.0197 51.8347 40.5104 52.4C41.0117 52.9653 41.7317 53.248 42.6704 53.248C43.161 53.248 43.6197 53.168 44.0464 53.008C44.4837 52.848 44.9104 52.5973 45.3264 52.256L45.6944 53.008ZM48.5743 54V48.208C48.5743 47.8453 48.5636 47.4773 48.5423 47.104C48.5316 46.72 48.4996 46.3467 48.4463 45.984H49.3743L49.5183 47.664L49.3583 47.824C49.5396 47.1627 49.8703 46.6613 50.3503 46.32C50.8303 45.968 51.3956 45.792 52.0463 45.792C52.8356 45.792 53.4436 45.984 53.8703 46.368C54.3076 46.752 54.5849 47.3387 54.7023 48.128L54.3183 47.984C54.4569 47.312 54.7876 46.7787 55.3103 46.384C55.8329 45.9893 56.4676 45.792 57.2143 45.792C58.0889 45.792 58.7503 46.048 59.1983 46.56C59.6463 47.072 59.8703 47.8507 59.8703 48.896V54H58.8943V48.96C58.8943 48.16 58.7503 47.5733 58.4623 47.2C58.1743 46.8267 57.7156 46.64 57.0863 46.64C56.3609 46.64 55.7849 46.8853 55.3583 47.376C54.9316 47.8667 54.7183 48.5333 54.7183 49.376V54H53.7423V48.96C53.7423 48.16 53.5929 47.5733 53.2943 47.2C53.0063 46.8267 52.5476 46.64 51.9183 46.64C51.1823 46.64 50.6009 46.8853 50.1743 47.376C49.7583 47.8667 49.5503 48.5333 49.5503 49.376V54H48.5743ZM63.1685 56.912H62.3365C62.7205 56.0053 63.0245 55.1413 63.2485 54.32C63.4832 53.5093 63.6485 52.7253 63.7445 51.968C63.8405 51.2107 63.8885 50.4693 63.8885 49.744C63.8885 49.0187 63.8405 48.2827 63.7445 47.536C63.6485 46.7787 63.4832 45.9947 63.2485 45.184C63.0245 44.3733 62.7205 43.5147 62.3365 42.608H63.1845C63.7925 43.8027 64.2298 44.992 64.4965 46.176C64.7738 47.3493 64.9125 48.5387 64.9125 49.744C64.9125 50.5653 64.8485 51.3707 64.7205 52.16C64.6032 52.9493 64.4165 53.7387 64.1605 54.528C63.9045 55.3173 63.5738 56.112 63.1685 56.912Z" fill="#121529"/>
<path d="M2.63863 89V77.224H3.93463V82.584L3.72663 82.744C3.95063 82.0933 4.32396 81.6027 4.84663 81.272C5.36929 80.9307 5.97196 80.76 6.65463 80.76C8.58529 80.76 9.55063 81.8213 9.55063 83.944V89H8.25463V84.008C8.25463 83.2613 8.10529 82.7173 7.80663 82.376C7.50796 82.024 7.03863 81.848 6.39863 81.848C5.65196 81.848 5.05463 82.0773 4.60663 82.536C4.15863 82.9947 3.93463 83.6133 3.93463 84.392V89H2.63863ZM15.918 89.128C14.542 89.128 13.4807 88.6533 12.734 87.704C11.9873 86.744 11.614 85.3733 11.614 83.592C11.614 82.3013 11.7847 81.2027 12.126 80.296C12.478 79.3787 12.9793 78.68 13.63 78.2C14.2913 77.72 15.0807 77.48 15.998 77.48C16.6593 77.48 17.2993 77.6027 17.918 77.848C18.5367 78.0827 19.086 78.4293 19.566 78.888L19.07 79.896C18.5367 79.4373 18.0193 79.1067 17.518 78.904C17.0273 78.6907 16.5313 78.584 16.03 78.584C15.0487 78.584 14.286 79.0213 13.742 79.896C13.198 80.76 12.926 81.9867 12.926 83.576V84.952L12.734 84.52C12.8193 83.976 13.0167 83.5067 13.326 83.112C13.6353 82.7067 14.0193 82.3973 14.478 82.184C14.9473 81.96 15.4647 81.848 16.03 81.848C16.734 81.848 17.3527 82.0027 17.886 82.312C18.4193 82.6107 18.8353 83.032 19.134 83.576C19.4327 84.12 19.582 84.7493 19.582 85.464C19.582 86.168 19.422 86.7973 19.102 87.352C18.7927 87.9067 18.3607 88.344 17.806 88.664C17.262 88.9733 16.6327 89.128 15.918 89.128ZM15.854 88.024C16.5793 88.024 17.166 87.7947 17.614 87.336C18.062 86.8667 18.286 86.248 18.286 85.48C18.286 84.7227 18.062 84.1147 17.614 83.656C17.166 83.1867 16.574 82.952 15.838 82.952C15.3473 82.952 14.91 83.064 14.526 83.288C14.142 83.5013 13.8433 83.8 13.63 84.184C13.4167 84.5573 13.31 84.9893 13.31 85.48C13.31 85.992 13.4167 86.44 13.63 86.824C13.8433 87.1973 14.142 87.4907 14.526 87.704C14.91 87.9173 15.3527 88.024 15.854 88.024ZM28.0036 91.912C27.5663 91.0907 27.2143 90.2853 26.9476 89.496C26.681 88.7067 26.4836 87.9227 26.3556 87.144C26.2383 86.3547 26.1796 85.5547 26.1796 84.744C26.1796 83.9333 26.2436 83.1387 26.3716 82.36C26.4996 81.5707 26.6916 80.7867 26.9476 80.008C27.2143 79.2187 27.5663 78.4187 28.0036 77.608H29.0916C28.697 78.5467 28.3823 79.4213 28.1476 80.232C27.9236 81.0427 27.7636 81.8213 27.6676 82.568C27.5716 83.304 27.5236 84.0293 27.5236 84.744C27.5236 85.4693 27.5716 86.2053 27.6676 86.952C27.7636 87.688 27.9236 88.4613 28.1476 89.272C28.3823 90.0933 28.6916 90.9733 29.0756 91.912H28.0036ZM34.1538 88.408V78.376L34.9058 78.76L31.8178 80.728V79.464L34.7298 77.608H35.4818V88.408H34.1538ZM31.6418 89V87.896H37.9938V89H31.6418ZM40.4355 89V83.208C40.4355 82.8347 40.4248 82.4613 40.4035 82.088C40.3928 81.704 40.3608 81.3253 40.3075 80.952H41.5395L41.7155 82.936L41.5395 82.888C41.6888 82.184 42.0088 81.656 42.4995 81.304C43.0008 80.9413 43.5608 80.76 44.1795 80.76C44.3182 80.76 44.4462 80.7707 44.5635 80.792C44.6915 80.8027 44.8088 80.824 44.9155 80.856L44.8835 82.04C44.6382 81.9547 44.3555 81.912 44.0355 81.912C43.4808 81.912 43.0328 82.0347 42.6915 82.28C42.3608 82.5253 42.1155 82.84 41.9555 83.224C41.8062 83.5973 41.7315 83.992 41.7315 84.408V89H40.4355ZM52.6681 88.04C52.3161 88.3707 51.8628 88.632 51.3081 88.824C50.7641 89.016 50.2041 89.112 49.6281 89.112C48.7961 89.112 48.0761 88.9467 47.4681 88.616C46.8708 88.2853 46.4068 87.8107 46.0761 87.192C45.7561 86.5627 45.5961 85.816 45.5961 84.952C45.5961 84.12 45.7561 83.3893 46.0761 82.76C46.3961 82.1307 46.8388 81.64 47.4041 81.288C47.9801 80.936 48.6415 80.76 49.3881 80.76C50.1028 80.76 50.7161 80.92 51.2281 81.24C51.7401 81.5493 52.1295 81.9973 52.3961 82.584C52.6735 83.1707 52.8121 83.8747 52.8121 84.696V84.936H46.7321V84.088H52.0761L51.6601 84.68C51.6815 83.7413 51.4948 83.0213 51.1001 82.52C50.7161 82.0187 50.1508 81.768 49.4041 81.768C48.6255 81.768 48.0121 82.0453 47.5641 82.6C47.1268 83.144 46.9081 83.9013 46.9081 84.872C46.9081 85.9173 47.1375 86.7067 47.5961 87.24C48.0655 87.7733 48.7481 88.04 49.6441 88.04C50.1135 88.04 50.5615 87.9653 50.9881 87.816C51.4255 87.656 51.8415 87.416 52.2361 87.096L52.6681 88.04ZM54.7793 89V83.208C54.7793 82.8347 54.7686 82.4613 54.7473 82.088C54.7366 81.704 54.7046 81.3253 54.6513 80.952H55.8832L56.0273 82.616L55.8673 82.728C56.0593 82.0987 56.3899 81.6133 56.8593 81.272C57.3393 80.9307 57.9046 80.76 58.5553 80.76C59.3339 80.76 59.9366 80.952 60.3633 81.336C60.8006 81.72 61.0779 82.3067 61.1953 83.096L60.8113 82.888C60.9819 82.2373 61.3233 81.72 61.8353 81.336C62.3579 80.952 62.9819 80.76 63.7073 80.76C64.5926 80.76 65.2593 81.0267 65.7073 81.56C66.1553 82.0827 66.3793 82.8773 66.3793 83.944V89H65.0833V84.008C65.0833 83.2613 64.9499 82.7173 64.6833 82.376C64.4166 82.024 63.9953 81.848 63.4193 81.848C62.7473 81.848 62.2139 82.0773 61.8193 82.536C61.4353 82.9947 61.2433 83.6187 61.2433 84.408V89H59.9473V84.008C59.9473 83.2613 59.8086 82.7173 59.5313 82.376C59.2646 82.024 58.8433 81.848 58.2673 81.848C57.5846 81.848 57.0459 82.0773 56.6513 82.536C56.2673 82.9947 56.0753 83.6187 56.0753 84.408V89H54.7793ZM69.1778 91.912H68.1058C68.5004 90.9733 68.8098 90.0933 69.0338 89.272C69.2578 88.4613 69.4178 87.688 69.5138 86.952C69.6098 86.2053 69.6578 85.4693 69.6578 84.744C69.6578 84.0293 69.6098 83.304 69.5138 82.568C69.4178 81.8213 69.2578 81.0427 69.0338 80.232C68.8098 79.4213 68.5004 78.5467 68.1058 77.608H69.1938C69.8338 78.824 70.2924 80.0187 70.5698 81.192C70.8578 82.3547 71.0018 83.5387 71.0018 84.744C71.0018 85.5547 70.9378 86.3547 70.8098 87.144C70.6924 87.9227 70.5004 88.7067 70.2338 89.496C69.9671 90.2853 69.6151 91.0907 69.1778 91.912Z" fill="#121529"/>
<path d="M2.75703 138V121.514H6.13943V128.95L5.75863 128.838C6.14689 128.032 6.68449 127.42 7.37143 127.002C8.07329 126.569 8.87969 126.352 9.79063 126.352C12.4637 126.352 13.8002 127.942 13.8002 131.123V138H10.4178V131.28C10.4178 130.474 10.2685 129.891 9.96983 129.533C9.68609 129.174 9.23063 128.995 8.60343 128.995C7.85676 128.995 7.25943 129.234 6.81143 129.712C6.36343 130.19 6.13943 130.832 6.13943 131.638V138H2.75703ZM21.6918 138.179C20.6764 138.179 19.6684 138.022 18.6678 137.709C17.6822 137.38 16.8833 136.94 16.271 136.387L17.391 133.878C18.0929 134.386 18.8097 134.774 19.5415 135.043C20.2732 135.297 21.0049 135.424 21.7366 135.424C22.6625 135.424 23.3569 135.215 23.8199 134.797C24.2977 134.364 24.5367 133.744 24.5367 132.938C24.5367 132.4 24.4247 131.945 24.2007 131.571C23.9916 131.183 23.678 130.892 23.2599 130.698C22.8567 130.489 22.3713 130.384 21.8039 130.384C21.2961 130.384 20.7735 130.481 20.2359 130.675C19.7132 130.854 19.2428 131.123 18.8246 131.482H16.831V122.051H27.0679V124.739H20.2359V129.309L19.183 129.13C19.646 128.652 20.1686 128.293 20.751 128.054C21.3484 127.801 22.0279 127.674 22.7895 127.674C23.79 127.674 24.6636 127.89 25.4102 128.323C26.1719 128.756 26.7692 129.354 27.2023 130.115C27.6353 130.877 27.8518 131.773 27.8518 132.803C27.8518 133.878 27.598 134.819 27.0903 135.626C26.5825 136.432 25.8657 137.059 24.9398 137.507C24.0289 137.955 22.9462 138.179 21.6918 138.179ZM40.0119 142.077C39.2951 140.837 38.7202 139.665 38.2871 138.56C37.854 137.455 37.5404 136.38 37.3463 135.334C37.1671 134.274 37.0775 133.177 37.0775 132.042C37.0775 130.907 37.1746 129.802 37.3687 128.726C37.5628 127.651 37.869 126.569 38.2871 125.478C38.7202 124.388 39.3026 123.246 40.0343 122.051H42.7447C42.1474 123.5 41.6919 124.791 41.3783 125.926C41.0796 127.046 40.8706 128.099 40.7511 129.085C40.6316 130.07 40.5719 131.056 40.5719 132.042C40.5719 133.042 40.6316 134.035 40.7511 135.021C40.8706 135.991 41.0796 137.044 41.3783 138.179C41.6919 139.314 42.125 140.613 42.6775 142.077H40.0119ZM49.0599 136.387V124.806L50.7175 124.963L45.8343 127.853V124.784L50.5159 122.051H52.5543V136.387H49.0599ZM45.6103 138V135.2H56.0263V138H45.6103ZM57.832 134.394H61.5056V138H57.832V134.394ZM70.0331 138V126.374H70.7499L65.9339 133.296V132.378H75.6555V135.088H63.3803V132.49L70.6827 122.051H73.4827V138H70.0331ZM77.4164 138V129.891C77.4164 129.354 77.4015 128.816 77.3716 128.278C77.3567 127.726 77.3119 127.181 77.2372 126.643H80.418L80.7764 129.645L80.418 129.466C80.5972 128.45 81.0228 127.681 81.6948 127.158C82.3817 126.636 83.1583 126.374 84.0244 126.374C84.2783 126.374 84.5023 126.397 84.6964 126.442C84.9055 126.486 85.0847 126.539 85.234 126.598L85.2116 129.69C84.6591 129.436 84.1065 129.309 83.554 129.309C82.9417 129.309 82.434 129.421 82.0308 129.645C81.6425 129.869 81.3364 130.19 81.1124 130.608C80.9033 131.011 80.7988 131.497 80.7988 132.064V138H77.4164ZM96.3755 136.79C95.823 137.223 95.151 137.567 94.3595 137.821C93.5681 138.06 92.7691 138.179 91.9627 138.179C90.6934 138.179 89.5958 137.94 88.6699 137.462C87.759 136.985 87.0571 136.305 86.5643 135.424C86.0715 134.543 85.8251 133.498 85.8251 132.288C85.8251 131.123 86.0641 130.093 86.5419 129.197C87.0198 128.301 87.6694 127.606 88.4907 127.114C89.327 126.606 90.2977 126.352 91.4027 126.352C92.463 126.352 93.3814 126.591 94.1579 127.069C94.9345 127.532 95.5318 128.196 95.9499 129.062C96.3681 129.914 96.5771 130.929 96.5771 132.109V132.602H88.8043L88.8491 130.922H94.5611L93.6875 131.616C93.7025 130.66 93.5158 129.943 93.1275 129.466C92.7542 128.973 92.2091 128.726 91.4923 128.726C90.7158 128.726 90.111 129.01 89.6779 129.578C89.2598 130.13 89.0507 130.944 89.0507 132.019C89.0507 133.289 89.2971 134.207 89.7899 134.774C90.2977 135.342 91.0667 135.626 92.0971 135.626C92.6945 135.626 93.2843 135.529 93.8667 135.334C94.4491 135.14 94.9867 134.864 95.4795 134.506L96.3755 136.79ZM98.7008 138V129.891C98.7008 129.354 98.6858 128.816 98.656 128.278C98.641 127.726 98.5962 127.181 98.5216 126.643H101.702L101.949 128.861L101.702 128.771C102.016 128.01 102.494 127.42 103.136 127.002C103.793 126.569 104.577 126.352 105.488 126.352C106.518 126.352 107.332 126.621 107.93 127.158C108.542 127.681 108.945 128.48 109.139 129.555L108.602 128.95C108.93 128.174 109.453 127.547 110.17 127.069C110.886 126.591 111.7 126.352 112.611 126.352C113.91 126.352 114.874 126.748 115.501 127.539C116.128 128.331 116.442 129.525 116.442 131.123V138H113.059V131.235C113.059 130.459 112.932 129.891 112.678 129.533C112.425 129.174 112.006 128.995 111.424 128.995C110.752 128.995 110.222 129.242 109.834 129.734C109.445 130.212 109.251 130.884 109.251 131.75V138H105.869V131.235C105.869 130.459 105.742 129.891 105.488 129.533C105.234 129.174 104.823 128.995 104.256 128.995C103.569 128.995 103.031 129.242 102.643 129.734C102.27 130.212 102.083 130.884 102.083 131.75V138H98.7008ZM121.014 142.077H118.349C118.916 140.613 119.349 139.314 119.648 138.179C119.946 137.044 120.155 135.991 120.275 135.021C120.394 134.035 120.454 133.042 120.454 132.042C120.454 131.056 120.394 130.07 120.275 129.085C120.17 128.099 119.961 127.046 119.648 125.926C119.334 124.791 118.894 123.5 118.326 122.051H121.014C122.074 123.828 122.829 125.516 123.277 127.114C123.725 128.711 123.949 130.354 123.949 132.042C123.949 133.177 123.851 134.274 123.657 135.334C123.478 136.38 123.172 137.455 122.739 138.56C122.321 139.665 121.746 140.837 121.014 142.077Z" fill="#121529"/>
<path d="M2.61232 184V167.349H6.70727V174.837L6.27741 174.566C6.69972 173.812 7.25024 173.231 7.92896 172.824C8.62276 172.401 9.4146 172.19 10.3045 172.19C13.0043 172.19 14.3542 173.842 14.3542 177.145V184H10.2592V177.326C10.2592 176.617 10.1386 176.112 9.89725 175.81C9.65593 175.493 9.27886 175.335 8.76605 175.335C8.14766 175.335 7.64993 175.546 7.27287 175.968C6.8958 176.376 6.70727 176.919 6.70727 177.597V184H2.61232ZM22.5672 184V173.118H23.3591L19.2641 178.977V178.05H28.8114V181.285H16.1194V178.163L23.3364 167.892H26.73V184H22.5672ZM40.9752 188.118C40.206 186.82 39.5876 185.614 39.12 184.498C38.6676 183.397 38.3433 182.326 38.1472 181.285C37.9662 180.229 37.8757 179.128 37.8757 177.982C37.8757 176.836 37.9738 175.727 38.1698 174.656C38.3659 173.57 38.6902 172.477 39.1427 171.376C39.6102 170.275 40.2362 169.113 41.0205 167.892H44.2557C43.6524 169.415 43.1924 170.75 42.8756 171.896C42.574 173.027 42.3628 174.076 42.2421 175.041C42.1366 176.006 42.0838 176.987 42.0838 177.982C42.0838 178.977 42.1366 179.958 42.2421 180.923C42.3628 181.888 42.574 182.944 42.8756 184.09C43.1924 185.237 43.6298 186.579 44.1878 188.118H40.9752ZM50.3256 182.032V171.398H52.2713L47.0904 174.362V170.72L52.0677 167.892H54.5563V182.032H50.3256ZM46.8642 184V180.629H58.0404V184H46.8642ZM59.3211 179.792H63.5971V184H59.3211V179.792ZM70.8224 167.688C72.9793 167.688 74.6384 168.389 75.7997 169.792C76.9762 171.18 77.5644 173.178 77.5644 175.787C77.5644 177.537 77.2778 179.045 76.7047 180.312C76.1466 181.564 75.3397 182.529 74.2839 183.208C73.2432 183.872 71.9989 184.204 70.551 184.204C69.5404 184.204 68.5525 184.06 67.5872 183.774C66.637 183.472 65.8301 183.042 65.1664 182.484L66.5013 179.475C67.2403 180.003 67.9341 180.38 68.5827 180.606C69.2463 180.818 69.8345 180.923 70.3473 180.923C71.3579 180.923 72.112 180.501 72.6097 179.656C73.1226 178.812 73.379 177.552 73.379 175.878V175.561L73.7636 176.082C73.6127 176.564 73.3488 176.987 72.9717 177.349C72.6097 177.711 72.1723 177.997 71.6595 178.208C71.1467 178.404 70.5887 178.502 69.9854 178.502C69.0653 178.502 68.2433 178.276 67.5193 177.824C66.7954 177.371 66.2222 176.753 65.7999 175.968C65.3776 175.169 65.1664 174.264 65.1664 173.254C65.1664 172.168 65.4078 171.21 65.8904 170.38C66.3881 169.536 67.0593 168.88 67.9039 168.412C68.7486 167.929 69.7214 167.688 70.8224 167.688ZM71.0713 170.946C70.468 170.946 69.9929 171.142 69.646 171.534C69.3142 171.926 69.1483 172.439 69.1483 173.073C69.1483 173.736 69.3142 174.264 69.646 174.656C69.9929 175.033 70.468 175.222 71.0713 175.222C71.4484 175.222 71.7802 175.139 72.0668 174.973C72.3684 174.792 72.5947 174.543 72.7455 174.226C72.9114 173.895 72.9944 173.51 72.9944 173.073C72.9944 172.65 72.9114 172.281 72.7455 171.964C72.5947 171.647 72.3684 171.398 72.0668 171.217C71.7802 171.036 71.4484 170.946 71.0713 170.946ZM79.3881 184V175.81C79.3881 175.267 79.373 174.717 79.3429 174.159C79.3278 173.601 79.2825 173.05 79.2071 172.507H83.0532L83.4378 175.606L83.0532 175.38C83.204 174.34 83.6188 173.555 84.2975 173.027C84.9913 172.499 85.7756 172.236 86.6504 172.236C86.937 172.236 87.1858 172.258 87.397 172.303C87.6082 172.349 87.7892 172.409 87.94 172.484V176.217C87.2914 175.916 86.6655 175.765 86.0622 175.765C85.5192 175.765 85.0592 175.855 84.6821 176.036C84.3051 176.202 84.0109 176.466 83.7998 176.828C83.5886 177.19 83.4831 177.658 83.4831 178.231V184H79.3881ZM99.2955 182.824C98.7223 183.261 98.0285 183.6 97.2141 183.842C96.3996 184.068 95.5851 184.181 94.7707 184.181C93.4434 184.181 92.2971 183.94 91.3318 183.457C90.3816 182.974 89.6501 182.288 89.1373 181.398C88.6245 180.493 88.3681 179.43 88.3681 178.208C88.3681 177.032 88.6094 175.991 89.092 175.086C89.5898 174.181 90.2685 173.472 91.1282 172.959C91.9879 172.447 92.9834 172.19 94.1146 172.19C95.2156 172.19 96.1658 172.432 96.9652 172.914C97.7797 173.397 98.4056 174.083 98.843 174.973C99.2804 175.863 99.4991 176.911 99.4991 178.118V178.661H91.9879L92.0332 176.76H97.0331L96.0376 177.416C96.0376 176.602 95.8792 175.999 95.5625 175.606C95.2608 175.199 94.8159 174.996 94.2277 174.996C93.5791 174.996 93.0814 175.237 92.7345 175.72C92.4027 176.187 92.2368 176.904 92.2368 177.869C92.2368 179.06 92.4555 179.913 92.8929 180.425C93.3303 180.923 94.0241 181.172 94.9743 181.172C95.5474 181.172 96.1206 181.082 96.6937 180.901C97.2819 180.704 97.8023 180.44 98.2548 180.109L99.2955 182.824ZM101.393 184V175.81C101.393 175.267 101.378 174.717 101.348 174.159C101.333 173.601 101.288 173.05 101.212 172.507H105.059L105.33 174.679L105.059 174.498C105.39 173.774 105.881 173.208 106.529 172.801C107.193 172.394 107.977 172.19 108.882 172.19C109.908 172.19 110.722 172.462 111.325 173.005C111.944 173.533 112.351 174.324 112.547 175.38L112.004 174.656C112.381 173.917 112.924 173.321 113.633 172.869C114.357 172.417 115.156 172.19 116.031 172.19C117.374 172.19 118.361 172.605 118.995 173.435C119.628 174.249 119.945 175.486 119.945 177.145V184H115.85V177.258C115.85 176.594 115.752 176.112 115.556 175.81C115.36 175.493 115.013 175.335 114.515 175.335C113.942 175.335 113.497 175.546 113.181 175.968C112.864 176.391 112.705 176.987 112.705 177.756V184H108.611V177.258C108.611 176.594 108.505 176.112 108.294 175.81C108.098 175.493 107.758 175.335 107.276 175.335C106.703 175.335 106.258 175.546 105.941 175.968C105.639 176.391 105.488 176.987 105.488 177.756V184H101.393ZM124.85 188.118H121.66C122.233 186.579 122.671 185.237 122.972 184.09C123.274 182.944 123.478 181.888 123.583 180.923C123.704 179.958 123.764 178.977 123.764 177.982C123.764 176.987 123.711 176.006 123.606 175.041C123.5 174.076 123.289 173.027 122.972 171.896C122.656 170.75 122.203 169.415 121.615 167.892H124.828C125.989 169.717 126.803 171.429 127.271 173.027C127.754 174.626 127.995 176.278 127.995 177.982C127.995 179.128 127.897 180.229 127.701 181.285C127.505 182.326 127.173 183.397 126.705 184.498C126.253 185.614 125.634 186.82 124.85 188.118Z" fill="#121529"/>
<path d="M3.53398 238V214.455H7.53277V225.108L7.05291 225.14C7.56476 223.924 8.32186 223.007 9.32423 222.389C10.3479 221.749 11.5209 221.429 12.8432 221.429C16.682 221.429 18.6014 223.647 18.6014 228.083V238H14.6026V228.243C14.6026 226.985 14.3574 226.068 13.8669 225.492C13.3763 224.895 12.6192 224.596 11.5955 224.596C10.3586 224.596 9.36688 224.991 8.62044 225.78C7.89533 226.547 7.53277 227.571 7.53277 228.851V238H3.53398ZM29.816 238.224C28.2805 238.224 26.7983 238 25.3694 237.552C23.9618 237.083 22.7995 236.432 21.8824 235.601L23.29 232.594C24.2924 233.383 25.3161 233.98 26.3611 234.385C27.4274 234.769 28.5258 234.961 29.6561 234.961C31.1276 234.961 32.2153 234.684 32.9191 234.129C33.6229 233.553 33.9748 232.668 33.9748 231.474C33.9748 230.322 33.6122 229.469 32.8871 228.915C32.162 228.36 31.0423 228.083 29.5281 228.083H26.521V224.82H28.9843C30.4558 224.82 31.5542 224.543 32.2793 223.988C33.0257 223.434 33.399 222.602 33.399 221.493C33.399 220.427 33.0791 219.616 32.4392 219.062C31.7994 218.507 30.9144 218.23 29.784 218.23C28.739 218.23 27.694 218.433 26.649 218.838C25.604 219.222 24.5909 219.808 23.6099 220.597L22.2023 217.59C23.1194 216.78 24.2817 216.14 25.6893 215.671C27.0969 215.202 28.5364 214.967 30.008 214.967C31.5009 214.967 32.7911 215.212 33.8788 215.703C34.9878 216.193 35.8409 216.897 36.438 217.814C37.0352 218.71 37.3338 219.766 37.3338 220.981C37.3338 222.346 36.9819 223.508 36.2781 224.468C35.5743 225.406 34.5826 226.068 33.303 226.451L33.271 226.132C34.7639 226.473 35.9049 227.134 36.694 228.115C37.5044 229.075 37.9096 230.312 37.9096 231.826C37.9096 233.809 37.1738 235.377 35.7023 236.528C34.252 237.659 32.29 238.224 29.816 238.224ZM55.8249 243.822C54.8652 242.095 54.0868 240.442 53.4896 238.864C52.9138 237.286 52.4979 235.739 52.242 234.225C51.9861 232.69 51.8581 231.111 51.8581 229.491C51.8581 227.87 51.9861 226.292 52.242 224.756C52.5193 223.199 52.9458 221.642 53.5216 220.085C54.0975 218.507 54.8759 216.886 55.8569 215.223H59.0879C58.2562 217.228 57.6164 219.04 57.1685 220.661C56.7207 222.261 56.4114 223.775 56.2408 225.204C56.0702 226.633 55.9849 228.062 55.9849 229.491C55.9849 230.919 56.0702 232.348 56.2408 233.777C56.4114 235.206 56.7207 236.731 57.1685 238.352C57.6164 239.994 58.2349 241.818 59.024 243.822H55.8249ZM62.27 238V234.961L69.9797 226.611C70.8754 225.609 71.5365 224.692 71.9631 223.86C72.3896 223.029 72.6029 222.207 72.6029 221.397C72.6029 220.352 72.3043 219.563 71.7071 219.03C71.11 218.497 70.2462 218.23 69.1159 218.23C68.0922 218.23 67.0579 218.433 66.0129 218.838C64.9892 219.222 63.9655 219.808 62.9418 220.597L61.5342 217.59C62.4513 216.78 63.6136 216.14 65.0212 215.671C66.4287 215.202 67.8576 214.967 69.3079 214.967C70.8007 214.967 72.1017 215.212 73.2107 215.703C74.3197 216.193 75.1728 216.908 75.7699 217.846C76.3671 218.763 76.6656 219.861 76.6656 221.141C76.6656 222.463 76.3884 223.7 75.8339 224.852C75.2794 225.982 74.341 227.262 73.0187 228.691L66.0768 236.049L65.597 234.673H77.5294V238H62.27ZM80.9079 233.521H85.4185V238H80.9079V233.521ZM96.7743 238.224C95.0895 238.224 93.6073 237.979 92.3277 237.488C91.048 236.976 90.0457 236.241 89.3206 235.281C88.6168 234.321 88.2649 233.18 88.2649 231.858C88.2649 230.258 88.7874 228.957 89.8324 227.955C90.8774 226.931 92.3063 226.302 94.1191 226.068L93.9911 226.547C92.3916 226.228 91.1227 225.588 90.1843 224.628C89.2459 223.647 88.7767 222.463 88.7767 221.077C88.7767 219.819 89.118 218.731 89.8004 217.814C90.5042 216.897 91.4532 216.193 92.6476 215.703C93.8632 215.212 95.2388 214.967 96.7743 214.967C98.3098 214.967 99.6748 215.212 100.869 215.703C102.085 216.193 103.034 216.897 103.716 217.814C104.42 218.731 104.772 219.819 104.772 221.077C104.772 222.485 104.303 223.679 103.364 224.66C102.426 225.641 101.168 226.27 99.5895 226.547L99.4615 226.068C101.274 226.324 102.693 226.963 103.716 227.987C104.761 229.011 105.284 230.301 105.284 231.858C105.284 233.18 104.921 234.321 104.196 235.281C103.492 236.241 102.501 236.976 101.221 237.488C99.9414 237.979 98.4591 238.224 96.7743 238.224ZM96.7743 235.025C98.2032 235.025 99.3335 234.737 100.165 234.161C100.997 233.564 101.413 232.7 101.413 231.57C101.413 230.482 100.976 229.629 100.101 229.011C99.2482 228.371 98.1392 227.966 96.7743 227.795C95.4094 227.966 94.2897 228.371 93.4153 229.011C92.5622 229.629 92.1357 230.482 92.1357 231.57C92.1357 232.7 92.5516 233.564 93.3833 234.161C94.2151 234.737 95.3454 235.025 96.7743 235.025ZM96.7743 225.172C97.9473 224.98 98.9177 224.585 99.6854 223.988C100.453 223.37 100.837 222.538 100.837 221.493C100.837 220.405 100.464 219.584 99.7174 219.03C98.9923 218.454 98.0113 218.166 96.7743 218.166C95.5373 218.166 94.5456 218.454 93.7992 219.03C93.0741 219.584 92.7115 220.405 92.7115 221.493C92.7115 222.538 93.0954 223.37 93.8632 223.988C94.631 224.585 95.6013 224.98 96.7743 225.172ZM108.502 238V226.419C108.502 225.673 108.481 224.916 108.438 224.148C108.417 223.359 108.353 222.591 108.246 221.845H112.021L112.469 226.004L112.021 225.78C112.298 224.351 112.928 223.274 113.909 222.549C114.89 221.824 115.999 221.461 117.236 221.461C117.556 221.461 117.854 221.482 118.131 221.525C118.409 221.568 118.654 221.632 118.867 221.717L118.803 225.364C118.142 225.087 117.438 224.948 116.692 224.948C115.732 224.948 114.943 225.14 114.325 225.524C113.727 225.908 113.269 226.43 112.949 227.091C112.65 227.731 112.501 228.456 112.501 229.267V238H108.502ZM134.601 236.209C133.833 236.848 132.884 237.35 131.754 237.712C130.645 238.053 129.515 238.224 128.363 238.224C126.614 238.224 125.1 237.893 123.82 237.232C122.562 236.571 121.592 235.611 120.909 234.353C120.227 233.095 119.886 231.602 119.886 229.874C119.886 228.211 120.216 226.75 120.877 225.492C121.538 224.212 122.455 223.22 123.628 222.517C124.801 221.792 126.156 221.429 127.691 221.429C129.184 221.429 130.464 221.76 131.53 222.421C132.596 223.061 133.417 223.988 133.993 225.204C134.59 226.419 134.889 227.859 134.889 229.523V230.13H123.405L123.437 227.987H132.522L131.434 229.075C131.455 227.518 131.146 226.334 130.506 225.524C129.888 224.713 128.981 224.308 127.787 224.308C126.508 224.308 125.516 224.767 124.812 225.684C124.108 226.579 123.756 227.87 123.756 229.555C123.756 231.474 124.151 232.892 124.94 233.809C125.729 234.705 126.923 235.153 128.523 235.153C129.397 235.153 130.25 235.014 131.082 234.737C131.935 234.438 132.724 234.012 133.449 233.457L134.601 236.209ZM138.243 238V226.419C138.243 225.673 138.222 224.916 138.179 224.148C138.158 223.359 138.094 222.591 137.987 221.845H141.762L142.114 225.044L141.762 225.076C142.189 223.924 142.871 223.029 143.81 222.389C144.748 221.749 145.857 221.429 147.137 221.429C148.651 221.429 149.834 221.813 150.688 222.581C151.562 223.327 152.127 224.479 152.383 226.036L151.615 225.332C152.042 224.159 152.767 223.22 153.791 222.517C154.814 221.792 156.009 221.429 157.374 221.429C159.186 221.429 160.541 221.984 161.436 223.093C162.332 224.18 162.78 225.844 162.78 228.083V238H158.781V228.211C158.781 226.974 158.568 226.068 158.141 225.492C157.736 224.895 157.054 224.596 156.094 224.596C154.985 224.596 154.11 224.991 153.471 225.78C152.852 226.547 152.543 227.614 152.543 228.979V238H148.544V228.211C148.544 226.974 148.32 226.068 147.872 225.492C147.446 224.895 146.763 224.596 145.825 224.596C144.695 224.596 143.81 224.991 143.17 225.78C142.551 226.547 142.242 227.614 142.242 228.979V238H138.243ZM168.967 243.822H165.8C166.589 241.818 167.197 239.994 167.624 238.352C168.072 236.731 168.381 235.206 168.551 233.777C168.743 232.348 168.839 230.919 168.839 229.491C168.839 228.062 168.754 226.633 168.583 225.204C168.413 223.775 168.104 222.261 167.656 220.661C167.208 219.04 166.579 217.228 165.768 215.223H168.999C170.428 217.718 171.441 220.117 172.038 222.421C172.657 224.724 172.966 227.081 172.966 229.491C172.966 231.111 172.838 232.69 172.582 234.225C172.326 235.739 171.9 237.286 171.303 238.864C170.727 240.442 169.948 242.095 168.967 243.822Z" fill="#121529"/>
<path d="M4.42133 309V275.708H10.0756V290.771L9.3971 290.816C10.1209 289.097 11.1914 287.8 12.6087 286.926C14.0562 286.021 15.7148 285.569 17.5845 285.569C23.0126 285.569 25.7267 288.705 25.7267 294.977V309H20.0724V295.204C20.0724 293.424 19.7256 292.128 19.032 291.313C18.3384 290.469 17.2679 290.047 15.8204 290.047C14.0713 290.047 12.6691 290.605 11.6136 291.72C10.5883 292.806 10.0756 294.254 10.0756 296.063V309H4.42133ZM31.8588 309V304.703L42.7603 292.897C44.0268 291.479 44.9617 290.183 45.5648 289.006C46.1679 287.83 46.4695 286.669 46.4695 285.523C46.4695 284.046 46.0473 282.93 45.2029 282.176C44.3585 281.422 43.1372 281.045 41.5389 281.045C40.0914 281.045 38.6289 281.332 37.1512 281.905C35.7037 282.447 34.2562 283.277 32.8087 284.393L30.8184 280.14C32.1151 278.995 33.7586 278.09 35.7489 277.426C37.7392 276.763 39.7597 276.431 41.8103 276.431C43.9213 276.431 45.7608 276.778 47.3289 277.472C48.897 278.165 50.1033 279.175 50.9477 280.502C51.792 281.799 52.2142 283.352 52.2142 285.162C52.2142 287.031 51.8222 288.78 51.0381 290.409C50.2541 292.007 48.9272 293.816 47.0575 295.837L37.2417 306.241L36.5631 304.296H53.4356V309H31.8588ZM78.3607 317.233C77.0037 314.79 75.903 312.453 75.0586 310.221C74.2444 307.99 73.6564 305.803 73.2945 303.662C72.9326 301.491 72.7517 299.26 72.7517 296.968C72.7517 294.676 72.9326 292.444 73.2945 290.273C73.6865 288.072 74.2896 285.87 75.1039 283.669C75.9181 281.437 77.0188 279.145 78.406 276.793H82.9746C81.7985 279.628 80.8939 282.191 80.2606 284.483C79.6273 286.745 79.19 288.886 78.9488 290.906C78.7075 292.927 78.5869 294.947 78.5869 296.968C78.5869 298.988 78.7075 301.009 78.9488 303.029C79.19 305.05 79.6273 307.206 80.2606 309.498C80.8939 311.82 81.7684 314.398 82.8842 317.233H78.3607ZM97.1994 309.317C95.0282 309.317 92.9323 309 90.9119 308.367C88.9215 307.703 87.278 306.784 85.9813 305.607L87.9716 301.355C89.389 302.471 90.8365 303.316 92.3141 303.889C93.8219 304.431 95.375 304.703 96.9733 304.703C99.054 304.703 100.592 304.311 101.587 303.527C102.582 302.712 103.08 301.461 103.08 299.772C103.08 298.144 102.567 296.938 101.542 296.153C100.517 295.369 98.9334 294.977 96.7923 294.977H92.5403V290.363H96.0233C98.1041 290.363 99.6572 289.971 100.682 289.187C101.738 288.403 102.266 287.227 102.266 285.659C102.266 284.151 101.813 283.005 100.909 282.221C100.004 281.437 98.7525 281.045 97.1542 281.045C95.6765 281.045 94.1989 281.332 92.7212 281.905C91.2436 282.447 89.8112 283.277 88.424 284.393L86.4337 280.14C87.7304 278.995 89.3739 278.09 91.3642 277.426C93.3545 276.763 95.3901 276.431 97.4708 276.431C99.5818 276.431 101.406 276.778 102.944 277.472C104.512 278.165 105.719 279.16 106.563 280.457C107.407 281.724 107.829 283.216 107.829 284.935C107.829 286.865 107.332 288.509 106.337 289.866C105.342 291.193 103.939 292.128 102.13 292.67L102.085 292.218C104.196 292.701 105.809 293.635 106.925 295.023C108.071 296.38 108.644 298.129 108.644 300.27C108.644 303.074 107.603 305.291 105.523 306.919C103.472 308.518 100.698 309.317 97.1994 309.317ZM113.828 302.667H120.206V309H113.828V302.667ZM135.223 276.431C139.294 276.431 142.43 277.803 144.632 280.548C146.833 283.262 147.934 287.182 147.934 292.309C147.934 295.897 147.406 298.973 146.35 301.536C145.325 304.069 143.832 306.015 141.872 307.372C139.912 308.698 137.56 309.362 134.816 309.362C132.886 309.362 131.001 309.045 129.161 308.412C127.352 307.779 125.769 306.859 124.412 305.653L126.402 301.401C127.91 302.577 129.342 303.436 130.699 303.979C132.056 304.492 133.368 304.748 134.635 304.748C137.077 304.748 138.947 303.693 140.244 301.582C141.541 299.44 142.189 296.38 142.189 292.399V289.956L142.822 291.087C142.551 292.384 142.008 293.515 141.194 294.48C140.379 295.415 139.369 296.153 138.163 296.696C136.987 297.209 135.69 297.465 134.273 297.465C132.373 297.465 130.669 297.028 129.161 296.153C127.684 295.249 126.523 294.027 125.678 292.489C124.834 290.921 124.412 289.127 124.412 287.107C124.412 285.026 124.879 283.186 125.814 281.588C126.749 279.96 128.031 278.693 129.659 277.788C131.287 276.884 133.142 276.431 135.223 276.431ZM135.539 281.045C133.851 281.045 132.494 281.588 131.468 282.674C130.473 283.729 129.976 285.146 129.976 286.926C129.976 288.705 130.473 290.137 131.468 291.223C132.494 292.278 133.851 292.806 135.539 292.806C136.655 292.806 137.65 292.565 138.525 292.082C139.399 291.57 140.063 290.876 140.515 290.002C140.998 289.097 141.239 288.072 141.239 286.926C141.239 285.75 140.998 284.724 140.515 283.85C140.063 282.975 139.399 282.297 138.525 281.814C137.65 281.302 136.655 281.045 135.539 281.045ZM152.846 309V292.625C152.846 291.57 152.816 290.499 152.756 289.414C152.726 288.298 152.635 287.212 152.485 286.157H157.822L158.456 292.037L157.822 291.72C158.214 289.7 159.104 288.177 160.491 287.152C161.878 286.127 163.446 285.614 165.195 285.614C165.648 285.614 166.07 285.644 166.462 285.704C166.854 285.765 167.201 285.855 167.502 285.976L167.412 291.132C166.477 290.74 165.482 290.544 164.426 290.544C163.069 290.544 161.954 290.816 161.079 291.359C160.235 291.901 159.586 292.64 159.134 293.575C158.712 294.48 158.501 295.505 158.501 296.651V309H152.846ZM189.75 306.467C188.665 307.372 187.323 308.08 185.724 308.593C184.156 309.075 182.558 309.317 180.93 309.317C178.457 309.317 176.316 308.849 174.506 307.914C172.727 306.98 171.355 305.623 170.39 303.843C169.425 302.064 168.942 299.953 168.942 297.51C168.942 295.158 169.41 293.093 170.345 291.313C171.28 289.504 172.576 288.102 174.235 287.107C175.894 286.081 177.808 285.569 179.98 285.569C182.091 285.569 183.9 286.036 185.408 286.971C186.916 287.876 188.077 289.187 188.891 290.906C189.735 292.625 190.157 294.661 190.157 297.013V297.872H173.918L173.964 294.842H186.81L185.272 296.38C185.302 294.178 184.865 292.505 183.96 291.359C183.086 290.213 181.804 289.64 180.115 289.64C178.306 289.64 176.904 290.288 175.909 291.585C174.913 292.851 174.416 294.676 174.416 297.058C174.416 299.772 174.974 301.778 176.09 303.074C177.205 304.341 178.894 304.974 181.156 304.974C182.392 304.974 183.598 304.778 184.775 304.386C185.981 303.964 187.097 303.361 188.122 302.577L189.75 306.467ZM194.9 309V292.625C194.9 291.57 194.87 290.499 194.81 289.414C194.78 288.298 194.689 287.212 194.538 286.157H199.876L200.374 290.68L199.876 290.725C200.479 289.097 201.444 287.83 202.771 286.926C204.098 286.021 205.666 285.569 207.475 285.569C209.617 285.569 211.29 286.111 212.496 287.197C213.733 288.253 214.532 289.881 214.894 292.082L213.808 291.087C214.411 289.429 215.437 288.102 216.884 287.107C218.332 286.081 220.02 285.569 221.95 285.569C224.514 285.569 226.429 286.353 227.695 287.921C228.962 289.459 229.595 291.811 229.595 294.977V309H223.941V295.158C223.941 293.409 223.639 292.128 223.036 291.313C222.463 290.469 221.498 290.047 220.141 290.047C218.573 290.047 217.337 290.605 216.432 291.72C215.557 292.806 215.12 294.314 215.12 296.244V309H209.466V295.158C209.466 293.409 209.149 292.128 208.516 291.313C207.913 290.469 206.948 290.047 205.621 290.047C204.023 290.047 202.771 290.605 201.866 291.72C200.992 292.806 200.555 294.314 200.555 296.244V309H194.9ZM238.344 317.233H233.866C234.982 314.398 235.841 311.82 236.444 309.498C237.077 307.206 237.515 305.05 237.756 303.029C238.027 301.009 238.163 298.988 238.163 296.968C238.163 294.947 238.042 292.927 237.801 290.906C237.56 288.886 237.123 286.745 236.489 284.483C235.856 282.191 234.966 279.628 233.821 276.793H238.389C240.41 280.321 241.842 283.714 242.686 286.971C243.561 290.228 243.998 293.56 243.998 296.968C243.998 299.26 243.817 301.491 243.455 303.662C243.094 305.803 242.49 307.99 241.646 310.221C240.832 312.453 239.731 314.79 238.344 317.233Z" fill="#121529"/>
<path d="M3.56531 400L7.27507 352.924H18.8521L17.1251 374.991L16.1657 372.369C17.1891 370.663 18.6815 369.277 20.643 368.211C22.6045 367.145 24.8858 366.612 27.4869 366.612C31.4098 366.612 34.2881 367.849 36.1216 370.322C37.9552 372.752 38.6801 376.292 38.2963 380.94L36.7613 400H25.1842L26.7193 381.387C26.8899 379.554 26.5914 378.125 25.8239 377.102C25.099 376.078 23.9477 375.567 22.3699 375.567C20.579 375.567 19.1932 376.164 18.2125 377.358C17.2744 378.509 16.7413 380.023 16.6134 381.899L15.1423 400H3.56531ZM56.0791 394.435L58.5096 364.374H64.0742L48.7875 372.752L49.555 362.455L64.2661 354.46H71.3658L68.1678 394.435H56.0791ZM45.9732 400L46.7407 390.47H78.2737L77.4422 400H45.9732ZM92.7679 411.641C90.8064 407.974 89.2927 404.563 88.2267 401.407C87.2033 398.294 86.521 395.267 86.1799 392.325C85.8814 389.34 85.8601 386.227 86.1159 382.986C86.3718 379.746 86.9048 376.611 87.715 373.584C88.5251 370.514 89.6978 367.422 91.2328 364.31C92.7679 361.197 94.772 357.913 97.2452 354.46H106.456C104.409 358.766 102.81 362.54 101.659 365.781C100.507 368.979 99.6544 371.942 99.1001 374.671C98.5884 377.4 98.2259 380.172 98.0127 382.986C97.7995 385.801 97.7356 388.572 97.8209 391.301C97.9488 394.03 98.3112 397.015 98.9082 400.256C99.5052 403.497 100.422 407.292 101.659 411.641H92.7679ZM124 400.512C120.717 400.512 117.625 400.085 114.726 399.232C111.826 398.38 109.332 397.186 107.242 395.651L111.655 387.144C113.489 388.551 115.408 389.596 117.412 390.278C119.459 390.917 121.591 391.237 123.808 391.237C126.111 391.237 127.88 390.704 129.117 389.638C130.396 388.572 131.036 387.058 131.036 385.097C131.036 383.263 130.439 381.835 129.245 380.812C128.094 379.788 126.409 379.277 124.192 379.277C122.87 379.277 121.548 379.468 120.226 379.852C118.904 380.236 117.732 380.769 116.708 381.451H110.12L112.231 354.46H142.293L141.589 363.542H123.232L122.273 374.288L118.18 373.712C119.757 372.433 121.335 371.516 122.913 370.962C124.49 370.407 126.281 370.13 128.285 370.13C131.057 370.13 133.488 370.706 135.577 371.857C137.709 373.008 139.372 374.607 140.566 376.654C141.76 378.701 142.357 381.067 142.357 383.754C142.357 387.293 141.611 390.321 140.118 392.836C138.626 395.31 136.494 397.207 133.722 398.529C130.993 399.851 127.752 400.512 124 400.512ZM146.362 388.103H158.386L157.491 400H145.402L146.362 388.103ZM182.011 400.576C176.127 400.576 171.586 398.806 168.388 395.267C165.19 391.728 163.591 386.675 163.591 380.108C163.591 374.735 164.443 370.087 166.149 366.164C167.855 362.241 170.264 359.214 173.377 357.082C176.489 354.95 180.157 353.884 184.378 353.884C187.32 353.884 190.177 354.31 192.949 355.163C195.721 356.016 198.172 357.21 200.304 358.745L195.891 367.252C194.058 365.845 192.181 364.821 190.263 364.182C188.386 363.499 186.638 363.158 185.018 363.158C182.289 363.158 180.114 364.246 178.494 366.42C176.916 368.552 175.956 371.814 175.615 376.206L175.551 377.869L174.464 376.526C175.018 375.29 175.807 374.202 176.831 373.264C177.897 372.283 179.112 371.516 180.476 370.962C181.884 370.407 183.355 370.13 184.89 370.13C187.448 370.13 189.729 370.727 191.734 371.921C193.738 373.115 195.294 374.778 196.403 376.91C197.554 379.042 198.13 381.473 198.13 384.202C198.13 387.357 197.447 390.171 196.083 392.644C194.718 395.118 192.821 397.058 190.39 398.465C187.96 399.872 185.167 400.576 182.011 400.576ZM181.564 391.365C182.63 391.365 183.547 391.109 184.314 390.598C185.124 390.043 185.764 389.276 186.233 388.295C186.702 387.314 186.937 386.184 186.937 384.905C186.937 383.114 186.446 381.728 185.465 380.748C184.527 379.767 183.248 379.277 181.628 379.277C180.562 379.277 179.602 379.532 178.749 380.044C177.897 380.556 177.236 381.281 176.767 382.219C176.298 383.157 176.063 384.287 176.063 385.609C176.063 387.314 176.553 388.7 177.534 389.766C178.558 390.832 179.901 391.365 181.564 391.365ZM202.07 400L203.925 376.846C204.011 375.311 204.074 373.755 204.117 372.177C204.202 370.599 204.202 369.043 204.117 367.508H215.055L215.374 376.27L214.415 374.16C215.055 371.857 216.398 370.045 218.444 368.723C220.491 367.401 222.73 366.74 225.16 366.74C225.885 366.74 226.568 366.804 227.207 366.932C227.889 367.06 228.444 367.23 228.87 367.444L228.103 377.997C227.207 377.571 226.312 377.251 225.416 377.038C224.521 376.825 223.625 376.718 222.73 376.718C221.28 376.718 219.98 376.931 218.828 377.358C217.72 377.784 216.824 378.509 216.142 379.532C215.502 380.556 215.097 381.942 214.927 383.69L213.647 400H202.07ZM258.607 396.61C257.115 397.847 255.281 398.806 253.107 399.488C250.974 400.171 248.715 400.512 246.327 400.512C242.787 400.512 239.696 399.851 237.052 398.529C234.451 397.207 232.404 395.352 230.912 392.964C229.462 390.534 228.737 387.698 228.737 384.457C228.737 380.961 229.462 377.869 230.912 375.183C232.404 372.497 234.408 370.407 236.924 368.915C239.44 367.38 242.254 366.612 245.367 366.612C248.651 366.612 251.465 367.337 253.81 368.787C256.155 370.237 257.882 372.326 258.991 375.055C260.1 377.784 260.398 381.067 259.886 384.905H238.843L239.355 379.532H253.554L250.612 380.364C250.697 378.445 250.292 376.995 249.397 376.014C248.544 375.034 247.35 374.543 245.815 374.543C243.896 374.543 242.404 375.268 241.338 376.718C240.272 378.125 239.739 380.62 239.739 384.202C239.739 386.888 240.357 388.871 241.593 390.15C242.873 391.387 244.728 392.005 247.158 392.005C248.906 392.005 250.505 391.749 251.955 391.237C253.448 390.726 254.897 389.979 256.305 388.999L258.607 396.61ZM264.283 400L266.138 376.846C266.266 375.268 266.351 373.712 266.394 372.177C266.436 370.599 266.415 369.043 266.33 367.508H277.267L277.459 373.648L276.627 372.177C279.399 368.467 283.066 366.612 287.629 366.612C290.528 366.612 292.874 367.422 294.664 369.043C296.455 370.62 297.5 372.816 297.799 375.631L296.263 372.561C297.713 370.599 299.419 369.128 301.38 368.147C303.384 367.124 305.538 366.612 307.84 366.612C311.55 366.612 314.301 367.827 316.091 370.258C317.925 372.689 318.671 376.206 318.33 380.812L316.795 400H305.218L306.689 381.067C306.86 379.319 306.647 377.976 306.05 377.038C305.453 376.057 304.472 375.567 303.107 375.567C301.53 375.567 300.293 376.121 299.398 377.23C298.502 378.296 297.926 380.065 297.671 382.539L296.391 400H284.686L286.222 381.259C286.349 379.383 286.115 377.976 285.518 377.038C284.964 376.057 283.983 375.567 282.576 375.567C280.998 375.567 279.761 376.121 278.866 377.23C277.971 378.296 277.437 380.065 277.267 382.539L275.86 400H264.283ZM329.703 411.641H320.492C322.539 407.292 324.117 403.497 325.225 400.256C326.377 397.015 327.208 394.03 327.72 391.301C328.274 388.572 328.658 385.801 328.871 382.986C329.084 380.172 329.148 377.4 329.063 374.671C328.978 371.942 328.637 368.979 328.04 365.781C327.443 362.54 326.462 358.766 325.098 354.46H334.18C337.037 359.619 338.956 364.459 339.937 368.979C340.917 373.499 341.216 378.168 340.832 382.986C340.576 386.227 340.043 389.34 339.233 392.325C338.465 395.267 337.314 398.294 335.779 401.407C334.244 404.563 332.219 407.974 329.703 411.641Z" fill="#121529"/>
<path d="M3.336 16H0.824L6.056 4.608H8.072L13.304 16H10.824L6.792 6.592H7.4L3.336 16ZM3.192 13.472L4.152 11.568H9.848L10.792 13.472H3.192ZM17.0926 16.128C16.0793 16.128 15.322 15.8453 14.8206 15.28C14.3193 14.7147 14.0686 13.8613 14.0686 12.72V7.888H16.4846V12.768C16.4846 13.2693 16.586 13.6427 16.7886 13.888C17.002 14.1227 17.3273 14.24 17.7646 14.24C18.2553 14.24 18.6553 14.0693 18.9646 13.728C19.274 13.3867 19.4286 12.9333 19.4286 12.368V7.888H21.8606V16H19.5086V14.384L19.7166 14.4C19.482 14.9653 19.1353 15.3973 18.6766 15.696C18.2286 15.984 17.7006 16.128 17.0926 16.128ZM27.6438 19.584C26.3638 19.584 25.2438 19.3333 24.2838 18.832L24.6518 17.04C25.1318 17.2853 25.6171 17.4667 26.1078 17.584C26.5984 17.7013 27.0838 17.76 27.5638 17.76C28.2571 17.76 28.7744 17.6 29.1158 17.28C29.4571 16.96 29.6278 16.4693 29.6278 15.808V13.936L29.8198 14.032C29.6918 14.3307 29.4944 14.6133 29.2278 14.88C28.9611 15.1467 28.6358 15.3653 28.2518 15.536C27.8784 15.696 27.4731 15.776 27.0358 15.776C26.3318 15.776 25.7078 15.6107 25.1638 15.28C24.6198 14.9387 24.1931 14.464 23.8838 13.856C23.5744 13.248 23.4198 12.5387 23.4198 11.728C23.4198 10.9173 23.5744 10.2133 23.8838 9.616C24.1931 9.008 24.6198 8.53333 25.1638 8.192C25.7078 7.85067 26.3318 7.68 27.0358 7.68C27.6971 7.68 28.2784 7.84533 28.7798 8.176C29.2918 8.496 29.6384 8.92267 29.8198 9.456L29.6278 9.6V7.888H32.0278V15.616C32.0278 16.9173 31.6544 17.904 30.9078 18.576C30.1718 19.248 29.0838 19.584 27.6438 19.584ZM27.7398 13.936C28.3264 13.936 28.7851 13.744 29.1158 13.36C29.4571 12.9653 29.6278 12.4213 29.6278 11.728C29.6278 11.056 29.4624 10.5227 29.1318 10.128C28.8011 9.73333 28.3371 9.536 27.7398 9.536C27.1424 9.536 26.6731 9.73333 26.3318 10.128C25.9904 10.512 25.8198 11.0453 25.8198 11.728C25.8198 12.4107 25.9904 12.9493 26.3318 13.344C26.6838 13.7387 27.1531 13.936 27.7398 13.936ZM33.9604 16V10.208C33.9604 9.824 33.9497 9.44 33.9284 9.056C33.9177 8.66133 33.8857 8.272 33.8324 7.888H36.1044L36.2804 9.472L36.1044 9.408C36.3284 8.864 36.6697 8.44267 37.1284 8.144C37.5977 7.83467 38.1577 7.68 38.8084 7.68C39.5444 7.68 40.1257 7.872 40.5524 8.256C40.9897 8.62933 41.2777 9.2 41.4164 9.968L41.0324 9.536C41.267 8.98133 41.6404 8.53333 42.1524 8.192C42.6644 7.85067 43.2457 7.68 43.8964 7.68C44.8244 7.68 45.5124 7.96267 45.9604 8.528C46.4084 9.09333 46.6324 9.94667 46.6324 11.088V16H44.2164V11.168C44.2164 10.6133 44.1257 10.208 43.9444 9.952C43.763 9.696 43.4644 9.568 43.0484 9.568C42.5684 9.568 42.1897 9.744 41.9124 10.096C41.635 10.4373 41.4964 10.9173 41.4964 11.536V16H39.0804V11.168C39.0804 10.6133 38.9897 10.208 38.8084 9.952C38.627 9.696 38.3337 9.568 37.9284 9.568C37.4377 9.568 37.0537 9.744 36.7764 10.096C36.5097 10.4373 36.3764 10.9173 36.3764 11.536V16H33.9604ZM55.6745 15.136C55.2798 15.4453 54.7998 15.6907 54.2345 15.872C53.6692 16.0427 53.0985 16.128 52.5225 16.128C51.6158 16.128 50.8318 15.9573 50.1705 15.616C49.5198 15.2747 49.0185 14.7893 48.6665 14.16C48.3145 13.5307 48.1385 12.784 48.1385 11.92C48.1385 11.088 48.3092 10.352 48.6505 9.712C48.9918 9.072 49.4558 8.576 50.0425 8.224C50.6398 7.86133 51.3332 7.68 52.1225 7.68C52.8798 7.68 53.5358 7.85067 54.0905 8.192C54.6452 8.52267 55.0718 8.99733 55.3705 9.616C55.6692 10.224 55.8185 10.9493 55.8185 11.792V12.144H50.2665L50.2985 10.944H54.3785L53.7545 11.44C53.7652 10.7573 53.6318 10.2453 53.3545 9.904C53.0878 9.552 52.6985 9.376 52.1865 9.376C51.6318 9.376 51.1998 9.57867 50.8905 9.984C50.5918 10.3787 50.4425 10.96 50.4425 11.728C50.4425 12.6347 50.6185 13.2907 50.9705 13.696C51.3332 14.1013 51.8825 14.304 52.6185 14.304C53.0452 14.304 53.4665 14.2347 53.8825 14.096C54.2985 13.9573 54.6825 13.76 55.0345 13.504L55.6745 15.136ZM57.3354 16V10.208C57.3354 9.824 57.3247 9.44 57.3034 9.056C57.2927 8.66133 57.2607 8.272 57.2074 7.888H59.4794L59.6554 9.472L59.4794 9.456C59.7567 8.88 60.1407 8.44267 60.6314 8.144C61.1327 7.83467 61.7087 7.68 62.3594 7.68C64.2687 7.68 65.2234 8.816 65.2234 11.088V16H62.8074V11.2C62.8074 10.624 62.7007 10.208 62.4874 9.952C62.2847 9.696 61.9594 9.568 61.5114 9.568C60.978 9.568 60.5514 9.73867 60.2314 10.08C59.9114 10.4213 59.7514 10.88 59.7514 11.456V16H57.3354ZM66.2203 9.696V7.888H72.2363V9.696H66.2203ZM72.2363 14.048V15.904C72.0123 15.9893 71.7883 16.048 71.5643 16.08C71.3403 16.112 71.1003 16.128 70.8443 16.128C69.8416 16.128 69.0736 15.8453 68.5403 15.28C68.0176 14.704 67.7563 13.9093 67.7563 12.896V5.984L70.1723 5.2V12.848C70.1723 13.168 70.2309 13.424 70.3483 13.616C70.4656 13.808 70.6203 13.9467 70.8123 14.032C71.0043 14.1067 71.2123 14.144 71.4363 14.144C71.5643 14.144 71.6869 14.1387 71.8043 14.128C71.9323 14.1067 72.0763 14.08 72.2363 14.048ZM80.612 15.136C80.2173 15.4453 79.7373 15.6907 79.172 15.872C78.6067 16.0427 78.036 16.128 77.46 16.128C76.5533 16.128 75.7693 15.9573 75.108 15.616C74.4573 15.2747 73.956 14.7893 73.604 14.16C73.252 13.5307 73.076 12.784 73.076 11.92C73.076 11.088 73.2467 10.352 73.588 9.712C73.9293 9.072 74.3933 8.576 74.98 8.224C75.5773 7.86133 76.2707 7.68 77.06 7.68C77.8173 7.68 78.4733 7.85067 79.028 8.192C79.5827 8.52267 80.0093 8.99733 80.308 9.616C80.6067 10.224 80.756 10.9493 80.756 11.792V12.144H75.204L75.236 10.944H79.316L78.692 11.44C78.7027 10.7573 78.5693 10.2453 78.292 9.904C78.0253 9.552 77.636 9.376 77.124 9.376C76.5693 9.376 76.1373 9.57867 75.828 9.984C75.5293 10.3787 75.38 10.96 75.38 11.728C75.38 12.6347 75.556 13.2907 75.908 13.696C76.2707 14.1013 76.82 14.304 77.556 14.304C77.9827 14.304 78.404 14.2347 78.82 14.096C79.236 13.9573 79.62 13.76 79.972 13.504L80.612 15.136ZM90.4009 16H88.0169V14.016L88.2089 14.368C88.0275 14.9227 87.6862 15.3547 87.1849 15.664C86.6835 15.9733 86.1075 16.128 85.4569 16.128C84.7529 16.128 84.1289 15.952 83.5849 15.6C83.0515 15.2373 82.6302 14.7413 82.3209 14.112C82.0222 13.472 81.8729 12.7253 81.8729 11.872C81.8729 11.0293 82.0222 10.2933 82.3209 9.664C82.6195 9.03467 83.0409 8.54933 83.5849 8.208C84.1289 7.856 84.7529 7.68 85.4569 7.68C86.1075 7.68 86.6835 7.84533 87.1849 8.176C87.6862 8.496 88.0275 8.92267 88.2089 9.456L87.9849 9.744V4.224H90.4009V16ZM86.1609 14.288C86.7475 14.288 87.2009 14.0853 87.5209 13.68C87.8515 13.2747 88.0169 12.6827 88.0169 11.904C88.0169 11.1573 87.8515 10.576 87.5209 10.16C87.2009 9.744 86.7475 9.536 86.1609 9.536C85.5529 9.536 85.0835 9.73867 84.7529 10.144C84.4329 10.5493 84.2729 11.1253 84.2729 11.872C84.2729 12.6507 84.4382 13.248 84.7689 13.664C85.1102 14.08 85.5742 14.288 86.1609 14.288ZM95.939 9.696V7.888H101.571V9.696H95.939ZM101.891 6.24C101.582 6.16533 101.32 6.128 101.107 6.128C100.883 6.128 100.675 6.17067 100.483 6.256C100.291 6.34133 100.142 6.48 100.035 6.672C99.9283 6.864 99.875 7.12 99.875 7.44V16H97.459V7.376C97.459 6.36267 97.715 5.57333 98.227 5.008C98.7497 4.432 99.5123 4.144 100.515 4.144C100.76 4.144 100.995 4.16 101.219 4.192C101.454 4.224 101.678 4.27733 101.891 4.352V6.24ZM106.801 16.128C105.926 16.128 105.169 15.9573 104.529 15.616C103.889 15.2747 103.393 14.7893 103.041 14.16C102.7 13.52 102.529 12.768 102.529 11.904C102.529 11.04 102.7 10.2933 103.041 9.664C103.393 9.03467 103.889 8.54933 104.529 8.208C105.169 7.856 105.926 7.68 106.801 7.68C107.654 7.68 108.401 7.856 109.041 8.208C109.681 8.54933 110.172 9.03467 110.513 9.664C110.865 10.2933 111.041 11.04 111.041 11.904C111.041 12.768 110.865 13.52 110.513 14.16C110.172 14.7893 109.681 15.2747 109.041 15.616C108.401 15.9573 107.654 16.128 106.801 16.128ZM106.801 14.288C107.388 14.288 107.841 14.096 108.161 13.712C108.481 13.3173 108.641 12.7147 108.641 11.904C108.641 11.104 108.481 10.512 108.161 10.128C107.841 9.73333 107.388 9.536 106.801 9.536C106.204 9.536 105.74 9.73333 105.409 10.128C105.089 10.512 104.929 11.104 104.929 11.904C104.929 12.7147 105.089 13.3173 105.409 13.712C105.729 14.096 106.193 14.288 106.801 14.288ZM115.561 16.128C114.548 16.128 113.791 15.8453 113.289 15.28C112.788 14.7147 112.537 13.8613 112.537 12.72V7.888H114.953V12.768C114.953 13.2693 115.055 13.6427 115.257 13.888C115.471 14.1227 115.796 14.24 116.233 14.24C116.724 14.24 117.124 14.0693 117.433 13.728C117.743 13.3867 117.897 12.9333 117.897 12.368V7.888H120.329V16H117.977V14.384L118.185 14.4C117.951 14.9653 117.604 15.3973 117.145 15.696C116.697 15.984 116.169 16.128 115.561 16.128ZM122.289 16V10.208C122.289 9.824 122.278 9.44 122.257 9.056C122.246 8.66133 122.214 8.272 122.161 7.888H124.433L124.689 10.032L124.433 9.904C124.561 9.17867 124.865 8.62933 125.345 8.256C125.835 7.88267 126.39 7.696 127.009 7.696C127.19 7.696 127.35 7.712 127.489 7.744C127.638 7.776 127.766 7.81333 127.873 7.856L127.857 10.064C127.462 9.88267 127.067 9.792 126.673 9.792C126.235 9.792 125.873 9.872 125.585 10.032C125.307 10.192 125.089 10.4213 124.929 10.72C124.779 11.008 124.705 11.3547 124.705 11.76V16H122.289ZM128.736 9.696V7.888H134.752V9.696H128.736ZM134.752 14.048V15.904C134.528 15.9893 134.304 16.048 134.08 16.08C133.856 16.112 133.616 16.128 133.36 16.128C132.357 16.128 131.589 15.8453 131.056 15.28C130.533 14.704 130.272 13.9093 130.272 12.896V5.984L132.688 5.2V12.848C132.688 13.168 132.747 13.424 132.864 13.616C132.981 13.808 133.136 13.9467 133.328 14.032C133.52 14.1067 133.728 14.144 133.952 14.144C134.08 14.144 134.203 14.1387 134.32 14.128C134.448 14.1067 134.592 14.08 134.752 14.048ZM135.992 16V4.224H138.408V9.536L138.136 9.456C138.413 8.88 138.797 8.44267 139.288 8.144C139.789 7.83467 140.365 7.68 141.016 7.68C142.925 7.68 143.88 8.816 143.88 11.088V16H141.464V11.2C141.464 10.624 141.357 10.208 141.144 9.952C140.941 9.696 140.616 9.568 140.168 9.568C139.634 9.568 139.208 9.73867 138.888 10.08C138.568 10.4213 138.408 10.88 138.408 11.456V16H135.992Z" fill="#121529"/>
</svg>
