<svg width="935" height="765" viewBox="0 0 935 765" fill="none" xmlns="http://www.w3.org/2000/svg">
<rect y="96" width="404.839" height="404.839" fill="#9C4BF2"/>
<rect x="228.211" y="588.371" width="176.629" height="176.629" fill="#C27CF2"/>
<rect x="758.096" y="588.371" width="176.629" height="176.629" fill="#7EDDDD"/>
<rect y="588.371" width="176.629" height="176.629" fill="#5D15B7"/>
<rect x="529.885" y="588.371" width="176.629" height="176.629" fill="#2F1595"/>
<rect x="529.885" y="96" width="404.839" height="404.839" fill="#658DF4"/>
<path d="M17.248 34H1.28V30.64L7.008 24.848C8.16 23.6533 9.088 22.6613 9.792 21.872C10.496 21.0613 11.008 20.336 11.328 19.696C11.648 19.0347 11.808 18.3307 11.808 17.584C11.808 16.6667 11.552 15.984 11.04 15.536C10.5493 15.088 9.87733 14.864 9.024 14.864C8.14933 14.864 7.296 15.0667 6.464 15.472C5.632 15.8773 4.75733 16.4533 3.84 17.2L1.216 14.096C1.87733 13.52 2.57067 12.9867 3.296 12.496C4.04267 12.0053 4.896 11.6107 5.856 11.312C6.83733 10.992 8.01067 10.832 9.376 10.832C10.8693 10.832 12.1493 11.1093 13.216 11.664C14.304 12.1973 15.136 12.9333 15.712 13.872C16.3093 14.7893 16.608 15.8347 16.608 17.008C16.608 18.2667 16.352 19.4187 15.84 20.464C15.3493 21.5093 14.624 22.544 13.664 23.568C12.7253 24.592 11.584 25.7227 10.24 26.96L7.296 29.712V29.936H17.248V34ZM35.4325 22.576C35.4325 25.0293 35.1658 27.1307 34.6325 28.88C34.1205 30.6293 33.2778 31.9733 32.1045 32.912C30.9525 33.8507 29.3952 34.32 27.4325 34.32C24.6805 34.32 22.6645 33.2853 21.3845 31.216C20.1045 29.1253 19.4645 26.2453 19.4645 22.576C19.4645 20.1013 19.7205 17.9893 20.2325 16.24C20.7445 14.4907 21.5872 13.1467 22.7605 12.208C23.9338 11.2693 25.4912 10.8 27.4325 10.8C30.1632 10.8 32.1792 11.8347 33.4805 13.904C34.7818 15.9733 35.4325 18.864 35.4325 22.576ZM24.2645 22.576C24.2645 25.1787 24.4885 27.1413 24.9365 28.464C25.3845 29.7653 26.2165 30.416 27.4325 30.416C28.6272 30.416 29.4592 29.7653 29.9285 28.464C30.3978 27.1627 30.6325 25.2 30.6325 22.576C30.6325 19.9733 30.3978 18.0107 29.9285 16.688C29.4592 15.3653 28.6272 14.704 27.4325 14.704C26.2165 14.704 25.3845 15.3653 24.9365 16.688C24.4885 18.0107 24.2645 19.9733 24.2645 22.576ZM49.841 34H45.009V20.784C45.009 20.2293 45.0197 19.504 45.041 18.608C45.0837 17.712 45.1157 16.9227 45.137 16.24C45.0303 16.368 44.7957 16.6027 44.433 16.944C44.0917 17.264 43.7717 17.552 43.473 17.808L40.849 19.92L38.513 17.008L45.873 11.152H49.841V34ZM72.0575 22.576C72.0575 25.0293 71.7908 27.1307 71.2575 28.88C70.7455 30.6293 69.9028 31.9733 68.7295 32.912C67.5775 33.8507 66.0202 34.32 64.0575 34.32C61.3055 34.32 59.2895 33.2853 58.0095 31.216C56.7295 29.1253 56.0895 26.2453 56.0895 22.576C56.0895 20.1013 56.3455 17.9893 56.8575 16.24C57.3695 14.4907 58.2122 13.1467 59.3855 12.208C60.5588 11.2693 62.1162 10.8 64.0575 10.8C66.7882 10.8 68.8042 11.8347 70.1055 13.904C71.4068 15.9733 72.0575 18.864 72.0575 22.576ZM60.8895 22.576C60.8895 25.1787 61.1135 27.1413 61.5615 28.464C62.0095 29.7653 62.8415 30.416 64.0575 30.416C65.2522 30.416 66.0842 29.7653 66.5535 28.464C67.0228 27.1627 67.2575 25.2 67.2575 22.576C67.2575 19.9733 67.0228 18.0107 66.5535 16.688C66.0842 15.3653 65.2522 14.704 64.0575 14.704C62.8415 14.704 62.0095 15.3653 61.5615 16.688C61.1135 18.0107 60.8895 19.9733 60.8895 22.576Z" fill="black"/>
<path d="M547.248 34H531.28V30.64L537.008 24.848C538.16 23.6533 539.088 22.6613 539.792 21.872C540.496 21.0613 541.008 20.336 541.328 19.696C541.648 19.0347 541.808 18.3307 541.808 17.584C541.808 16.6667 541.552 15.984 541.04 15.536C540.549 15.088 539.877 14.864 539.024 14.864C538.149 14.864 537.296 15.0667 536.464 15.472C535.632 15.8773 534.757 16.4533 533.84 17.2L531.216 14.096C531.877 13.52 532.571 12.9867 533.296 12.496C534.043 12.0053 534.896 11.6107 535.856 11.312C536.837 10.992 538.011 10.832 539.376 10.832C540.869 10.832 542.149 11.1093 543.216 11.664C544.304 12.1973 545.136 12.9333 545.712 13.872C546.309 14.7893 546.608 15.8347 546.608 17.008C546.608 18.2667 546.352 19.4187 545.84 20.464C545.349 21.5093 544.624 22.544 543.664 23.568C542.725 24.592 541.584 25.7227 540.24 26.96L537.296 29.712V29.936H547.248V34ZM565.433 22.576C565.433 25.0293 565.166 27.1307 564.633 28.88C564.121 30.6293 563.278 31.9733 562.105 32.912C560.953 33.8507 559.395 34.32 557.433 34.32C554.681 34.32 552.665 33.2853 551.385 31.216C550.105 29.1253 549.465 26.2453 549.465 22.576C549.465 20.1013 549.721 17.9893 550.233 16.24C550.745 14.4907 551.587 13.1467 552.761 12.208C553.934 11.2693 555.491 10.8 557.433 10.8C560.163 10.8 562.179 11.8347 563.481 13.904C564.782 15.9733 565.433 18.864 565.433 22.576ZM554.265 22.576C554.265 25.1787 554.489 27.1413 554.937 28.464C555.385 29.7653 556.217 30.416 557.433 30.416C558.627 30.416 559.459 29.7653 559.929 28.464C560.398 27.1627 560.633 25.2 560.633 22.576C560.633 19.9733 560.398 18.0107 559.929 16.688C559.459 15.3653 558.627 14.704 557.433 14.704C556.217 14.704 555.385 15.3653 554.937 16.688C554.489 18.0107 554.265 19.9733 554.265 22.576ZM583.873 34H567.905V30.64L573.633 24.848C574.785 23.6533 575.713 22.6613 576.417 21.872C577.121 21.0613 577.633 20.336 577.953 19.696C578.273 19.0347 578.433 18.3307 578.433 17.584C578.433 16.6667 578.177 15.984 577.665 15.536C577.174 15.088 576.502 14.864 575.649 14.864C574.774 14.864 573.921 15.0667 573.089 15.472C572.257 15.8773 571.382 16.4533 570.465 17.2L567.841 14.096C568.502 13.52 569.196 12.9867 569.921 12.496C570.668 12.0053 571.521 11.6107 572.481 11.312C573.462 10.992 574.636 10.832 576.001 10.832C577.494 10.832 578.774 11.1093 579.841 11.664C580.929 12.1973 581.761 12.9333 582.337 13.872C582.934 14.7893 583.233 15.8347 583.233 17.008C583.233 18.2667 582.977 19.4187 582.465 20.464C581.974 21.5093 581.249 22.544 580.289 23.568C579.35 24.592 578.209 25.7227 576.865 26.96L573.921 29.712V29.936H583.873V34ZM602.058 22.576C602.058 25.0293 601.791 27.1307 601.258 28.88C600.746 30.6293 599.903 31.9733 598.73 32.912C597.578 33.8507 596.02 34.32 594.058 34.32C591.306 34.32 589.29 33.2853 588.01 31.216C586.73 29.1253 586.09 26.2453 586.09 22.576C586.09 20.1013 586.346 17.9893 586.858 16.24C587.37 14.4907 588.212 13.1467 589.386 12.208C590.559 11.2693 592.116 10.8 594.058 10.8C596.788 10.8 598.804 11.8347 600.106 13.904C601.407 15.9733 602.058 18.864 602.058 22.576ZM590.89 22.576C590.89 25.1787 591.114 27.1413 591.562 28.464C592.01 29.7653 592.842 30.416 594.058 30.416C595.252 30.416 596.084 29.7653 596.554 28.464C597.023 27.1627 597.258 25.2 597.258 22.576C597.258 19.9733 597.023 18.0107 596.554 16.688C596.084 15.3653 595.252 14.704 594.058 14.704C592.842 14.704 592.01 15.3653 591.562 16.688C591.114 18.0107 590.89 19.9733 590.89 22.576Z" fill="black"/>
</svg>
