<svg width="3380" height="1142" viewBox="0 0 3380 1142" fill="none" xmlns="http://www.w3.org/2000/svg">
<path fill-rule="evenodd" clip-rule="evenodd" d="M3380 1019.4H3298.35C3219.17 1019.4 3058.33 1019.4 2897.5 985.552C2736.66 953.318 2575.83 887.238 2414.99 864.675C2254.16 843.723 2093.32 864.675 1932.49 919.472C1771.65 975.882 1608.35 1062.91 1447.51 1108.04C1376.67 1127.21 1305.84 1137.93 1235 1141.04C1145 1144.99 1055 1136.65 965.007 1117.71C804.173 1085.48 643.338 1019.4 482.504 985.552C321.669 953.318 160.835 953.318 81.6543 953.318H0L8.3341e-05 0L81.6543 7.1384e-06C160.835 1.40605e-05 321.669 2.81212e-05 482.504 4.21818e-05C643.339 5.62424e-05 804.173 7.0303e-05 965.007 8.43636e-05C1125.84 9.84242e-05 1286.68 0.000112485 1447.51 0.000126545C1608.35 0.000140606 1771.65 0.000154883 1932.49 0.000168943C2093.32 0.000183004 2254.16 0.000197064 2414.99 0.000211125C2575.83 0.000225186 2736.66 0.000239246 2897.5 0.000253307C3058.33 0.000267367 3219.17 0.000281428 3298.35 0.00028835L3380 0.000295489V1019.4Z" fill="url(#paint0_linear_118_16)"/>
<defs>
<linearGradient id="paint0_linear_118_16" x1="354.5" y1="-112.5" x2="1760.5" y2="1794" gradientUnits="userSpaceOnUse">
<stop stop-color="#C9CEFE"/>
<stop offset="0.539073" stop-color="#EADEFB"/>
<stop offset="0.905274" stop-color="#EFFCF7"/>
</linearGradient>
</defs>
</svg>
