<svg id="efMJsvUFu0d1" xmlns="http://www.w3.org/2000/svg" xmlns:xlink="http://www.w3.org/1999/xlink" viewBox="0 0 480.1 560" shape-rendering="geometricPrecision" text-rendering="geometricPrecision" width="480.1" height="560"><style><![CDATA[#efMJsvUFu0d11_tr {animation: efMJsvUFu0d11_tr__tr 3000ms linear infinite normal forwards}@keyframes efMJsvUFu0d11_tr__tr { 0% {transform: translate(274.843763px,271.334001px) rotate(0deg)} 53.333333% {transform: translate(274.843763px,271.334001px) rotate(-5.654307deg)} 100% {transform: translate(274.843763px,271.334001px) rotate(0deg)}} #efMJsvUFu0d38_tr {animation: efMJsvUFu0d38_tr__tr 3000ms linear infinite normal forwards}@keyframes efMJsvUFu0d38_tr__tr { 0% {transform: translate(195.755001px,462.14722px) rotate(6.041699deg);animation-timing-function: cubic-bezier(0.14,0.515,0.68,0.53)} 16.666667% {transform: translate(195.755001px,462.14722px) rotate(-1.1657deg);animation-timing-function: cubic-bezier(0.42,0,0.58,1)} 33.333333% {transform: translate(195.755001px,462.14722px) rotate(6.041699deg);animation-timing-function: cubic-bezier(0.55,0.085,0.68,0.53)} 50% {transform: translate(195.755001px,462.14722px) rotate(-1.1657deg);animation-timing-function: cubic-bezier(0.42,0,0.58,1)} 66.666667% {transform: translate(195.755001px,462.14722px) rotate(6.041699deg);animation-timing-function: cubic-bezier(0.55,0.085,0.68,0.53)} 83.333333% {transform: translate(195.755001px,462.14722px) rotate(-1.1657deg);animation-timing-function: cubic-bezier(0.42,0,0.58,1)} 100% {transform: translate(195.755001px,462.14722px) rotate(6.041699deg)}} #efMJsvUFu0d63_tr {animation: efMJsvUFu0d63_tr__tr 3000ms linear infinite normal forwards}@keyframes efMJsvUFu0d63_tr__tr { 0% {transform: translate(146.987976px,404.047px) rotate(0deg)} 16.666667% {transform: translate(146.987976px,404.047px) rotate(-7.248863deg)} 33.333333% {transform: translate(146.987976px,404.047px) rotate(-1.778936deg)} 50% {transform: translate(146.987976px,404.047px) rotate(-6.399356deg)} 66.666667% {transform: translate(146.987976px,404.047px) rotate(0.734321deg)} 83.333333% {transform: translate(146.987976px,404.047px) rotate(-5.721091deg)} 100% {transform: translate(146.987976px,404.047px) rotate(0deg)}} #efMJsvUFu0d120_tr {animation: efMJsvUFu0d120_tr__tr 3000ms linear infinite normal forwards}@keyframes efMJsvUFu0d120_tr__tr { 0% {transform: translate(270.726px,338.009827px) rotate(0deg);animation-timing-function: cubic-bezier(0.19,0.51,0.44,0.765)} 53.333333% {transform: translate(270.726px,338.009827px) rotate(-5.654307deg)} 100% {transform: translate(270.726px,338.009827px) rotate(0deg)}} #efMJsvUFu0d142_tr {animation: efMJsvUFu0d142_tr__tr 3000ms linear infinite normal forwards}@keyframes efMJsvUFu0d142_tr__tr { 0% {transform: translate(228.1625px,180.402px) rotate(0deg)} 23.333333% {transform: translate(228.1625px,180.402px) rotate(4.727938deg)} 80% {transform: translate(228.1625px,180.402px) rotate(-2.324332deg)} 100% {transform: translate(228.1625px,180.402px) rotate(0deg)}} #efMJsvUFu0d144_tr {animation: efMJsvUFu0d144_tr__tr 3000ms linear infinite normal forwards}@keyframes efMJsvUFu0d144_tr__tr { 0% {transform: translate(253.492px,180.402px) rotate(0deg)} 30% {transform: translate(253.492px,180.402px) rotate(7.845663deg)} 56.666667% {transform: translate(253.492px,180.402px) rotate(8.603001deg);animation-timing-function: cubic-bezier(0.645,-0.03,0.58,1)} 100% {transform: translate(253.492px,180.402px) rotate(0deg)}} #efMJsvUFu0d148_tr {animation: efMJsvUFu0d148_tr__tr 3000ms linear infinite normal forwards}@keyframes efMJsvUFu0d148_tr__tr { 0% {transform: translate(242.366px,184.814793px) rotate(0deg)} 56.666667% {transform: translate(242.366px,184.814793px) rotate(6.280049deg)} 100% {transform: translate(242.366px,184.814793px) rotate(0deg)}} #efMJsvUFu0d150_ts {animation: efMJsvUFu0d150_ts__ts 3000ms linear infinite normal forwards}@keyframes efMJsvUFu0d150_ts__ts { 0% {transform: translate(214.652001px,255.895996px) scale(1,1)} 46.666667% {transform: translate(214.652001px,255.895996px) scale(1,1)} 50% {transform: translate(214.652001px,255.895996px) scale(1,-1)} 56.666667% {transform: translate(214.652001px,255.895996px) scale(1,-0.733333)} 60% {transform: translate(214.652001px,255.895996px) scale(1,1)} 100% {transform: translate(214.652001px,255.895996px) scale(1,1)}} #efMJsvUFu0d160_ts {animation: efMJsvUFu0d160_ts__ts 3000ms linear infinite normal forwards}@keyframes efMJsvUFu0d160_ts__ts { 0% {transform: translate(211.80543px,255.109139px) scale(1,1)} 46.666667% {transform: translate(211.80543px,255.109139px) scale(1,1);animation-timing-function: step-end} 50% {transform: translate(211.80543px,255.109139px) scale(0,0.070769)} 56.666667% {transform: translate(211.80543px,255.109139px) scale(0,0.070769)} 60% {transform: translate(211.80543px,255.109139px) scale(1,1)} 100% {transform: translate(211.80543px,255.109139px) scale(1,1)}} #efMJsvUFu0d160 {animation: efMJsvUFu0d160_c_o 3000ms linear infinite normal forwards}@keyframes efMJsvUFu0d160_c_o { 0% {opacity: 1} 46.666667% {opacity: 1;animation-timing-function: step-end} 50% {opacity: 0} 56.666667% {opacity: 0} 60% {opacity: 1} 100% {opacity: 1}} #efMJsvUFu0d163_ts {animation: efMJsvUFu0d163_ts__ts 3000ms linear infinite normal forwards}@keyframes efMJsvUFu0d163_ts__ts { 0% {transform: translate(261.185883px,262.52591px) scale(1,1)} 46.666667% {transform: translate(261.185883px,262.52591px) scale(1,1)} 50% {transform: translate(261.185883px,262.52591px) scale(1,-1)} 56.666667% {transform: translate(261.185883px,262.52591px) scale(1,-0.733333)} 60% {transform: translate(261.185883px,262.52591px) scale(1,1)} 100% {transform: translate(261.185883px,262.52591px) scale(1,1)}} #efMJsvUFu0d173_ts {animation: efMJsvUFu0d173_ts__ts 3000ms linear infinite normal forwards}@keyframes efMJsvUFu0d173_ts__ts { 0% {transform: translate(258.179135px,259.788255px) scale(1,1)} 46.666667% {transform: translate(258.179135px,259.788255px) scale(1,1);animation-timing-function: step-end} 50% {transform: translate(258.179135px,259.788255px) scale(0,0.07077)} 56.666667% {transform: translate(258.179135px,259.788255px) scale(0,0.07077)} 60% {transform: translate(258.179135px,259.788255px) scale(1,1)} 100% {transform: translate(258.179135px,259.788255px) scale(1,1)}} #efMJsvUFu0d173 {animation: efMJsvUFu0d173_c_o 3000ms linear infinite normal forwards}@keyframes efMJsvUFu0d173_c_o { 0% {opacity: 1} 46.666667% {opacity: 1} 50% {opacity: 0;animation-timing-function: step-end} 56.666667% {opacity: 0} 60% {opacity: 1} 100% {opacity: 1}} #efMJsvUFu0d179_tr {animation: efMJsvUFu0d179_tr__tr 3000ms linear infinite normal forwards}@keyframes efMJsvUFu0d179_tr__tr { 0% {transform: translate(274.843762px,180.402px) rotate(0deg);animation-timing-function: cubic-bezier(0.42,0,0.58,1)} 20% {transform: translate(274.843762px,180.402px) rotate(3.38721deg);animation-timing-function: cubic-bezier(0.42,0,0.58,1)} 76.666667% {transform: translate(274.843762px,180.402px) rotate(-0.325887deg);animation-timing-function: cubic-bezier(0.42,0,0.58,1)} 100% {transform: translate(274.843762px,180.402px) rotate(0deg)}}]]></style><g id="efMJsvUFu0d2"><path id="efMJsvUFu0d3" d="M6.751,212.422L183.361,35.812C96.325,56.887,27.826,125.386,6.751,212.422Z" fill="rgb(200,186,228)" stroke="none" stroke-width="1"/><path id="efMJsvUFu0d4" d="M183.361,35.812L6.751,212.564C4.438,222.118,2.697,232,1.565,242L259.414,242L259.414,29.882C253.414,29.347,246.495,29.061,239.815,29.061C220.285,29.061,201.539,31.411,183.361,35.812Z" fill="rgb(231,217,251)" stroke="none" stroke-width="1"/><path id="efMJsvUFu0d5" d="M478.535,242C465.673,129,374.415,39.225,259.415,29.882L259.415,242L478.535,242Z" fill="rgb(200,186,228)" stroke="none" stroke-width="1"/><path id="efMJsvUFu0d6" d="M1.565,242C1.526,242,1.485,242.541,1.448,242.883C141.018,254.626,251.463,367.778,259.203,508.451C259.352,508.439,259.414,508.353,259.414,508.341L259.414,242L1.565,242Z" fill="rgb(193,202,255)" stroke="none" stroke-width="1"/><path id="efMJsvUFu0d7" d="M259.437,508.38C254.611,508.766,249.744,509.005,244.841,509.101L244.84002,509.10002C243.24635,509.13201,241.65167,509.161,240.05,509.161C107.474,509.161,0,401.687,0,269.111C0,267.50933,0.02899,265.91465,0.06098,264.32098L0.06,264.32C0.203,257.043,0.672,249.846,1.448,242.741C141.018,254.484,251.697,367.707,259.437,508.38Z" fill="rgb(191,177,234)" stroke="none" stroke-width="1"/><path id="efMJsvUFu0d8" d="M470.608,336.267C476.78,314.997,480.1,292.585,480.1,269.324C480.1,260.059,479.556,251,478.535,242L259.883,242C343.651,242,418.887,278.34,470.608,336.267Z" fill="rgb(158,158,225)" stroke="none" stroke-width="1"/><path id="efMJsvUFu0d9" d="M259.415,241.716L259.415,508.34C301.415,504.906,340.319,490.679,373.398,468.426C304.227,416.948,259.415,334.568,259.415,241.716Z" fill="rgb(225,214,248)" stroke="none" stroke-width="1"/><path id="efMJsvUFu0d10" d="M470.608,336.125C462.387,364.458,449.088,390.629,431.757,413.59C415.656,434.921,396.081,453.482,373.867,468.426C304.695,416.948,259.883,334.568,259.883,241.716C343.651,241.716,418.887,278.198,470.608,336.125Z" fill="rgb(189,200,255)" stroke="none" stroke-width="1"/></g><g id="efMJsvUFu0d11_tr" transform="translate(274.843763,271.334001) rotate(0)"><g id="efMJsvUFu0d11" transform="translate(-274.843762,-271.334001)"><g id="efMJsvUFu0d12"><path id="efMJsvUFu0d13" d="M220.321,347.062C220.321,347.062,234.05,354.515,254.84,354.907C275.63,355.299,334.076,356.868,334.076,356.868L334.468,286.654L206.984,298.03L220.321,347.062Z" fill="rgb(0,0,0)" stroke="none" stroke-width="1"/></g><g id="efMJsvUFu0d14"><path id="efMJsvUFu0d15" d="M201.002,243.577C201.002,243.577,197.402,282.276,178.476,296.325C159.55,310.374,151.818,323.69,164.705,332.173C177.591,340.656,182.272,334.213,193.462,342.589C204.652,350.965,226.988,347.744,226.988,347.744L201.002,243.577Z" fill="rgb(0,0,0)" stroke="none" stroke-width="1"/></g></g></g><g id="efMJsvUFu0d16"><path id="efMJsvUFu0d17" d="M242.366,374.104C232.686,385.745,223.005,397.386,213.325,409.026C209.335,413.824,205.627,418.786,201.853,423.691C199.666,426.533,196.029,427.566,193.426,430.025C190.701,432.598,188.384,435.946,187.619,439.666C186.992,442.715,186.897,445.977,186.286,448.878C185.704,451.643,186.06,454.839,186.619,457.472C187.372,461.022,187.52,464.589,188.62,468C188.952,469.03,189.454,470.211,189.332,471.291C189.2,472.45,188.976,473.653,188.814,474.819C188.643,476.054,188.464,477.683,189.166,478.667C189.734,479.464,191.491,480.075,192.421,480.498C194.323,481.363,195.901,481.771,197.958,481.518C199.87,481.283,201.769,480.512,203.351,479.42C212.675,472.983,222.137,466.739,231.607,460.52C235.227,458.143,238.804,455.701,242.406,453.296C243.165,452.79,251.813,447.941,251.704,447.087C251.701,447.078,242.366,374.104,242.366,374.104Z" fill="rgb(213,208,232)" stroke="none" stroke-width="1"/></g><g id="efMJsvUFu0d18" transform="matrix(1 0 0 1 0.000001 0)"><path id="efMJsvUFu0d19" d="M325.25,367.852C325.25,367.852,309.56,360.791,292.77,359.032C251.463,354.703,242.366,374.105,242.366,374.105C242.366,374.105,227.302,406.61,226.165,426.678C225.784,433.41,233.85,443.91,234.166,450.227C234.434,455.579,233.393,481.365,233.448,509.068C235.642,509.127,237.842,509.162,240.05,509.162C276.197,509.162,310.469,501.157,341.215,486.848C337.917,460.969,334.112,432.247,339.372,399.233C341.446,386.208,325.25,367.852,325.25,367.852Z" fill="rgb(213,208,232)" stroke="none" stroke-width="1"/><g id="efMJsvUFu0d20"><g id="efMJsvUFu0d21"><path id="efMJsvUFu0d22" d="M272.791,381.302C287.957,381.118,318.027,376.932,318.329,376.891L320.406,392.002C319.135,392.177,289.094,396.247,272.978,396.444C272.694,396.447,272.409,396.426,272.123,396.426C255.529,396.426,235.942,392.124,235.059,391.876L241.157,376.809" fill="rgb(142,128,194)" stroke="none" stroke-width="1"/></g></g><g id="efMJsvUFu0d23"><path id="efMJsvUFu0d24" d="M253.966,363.836C251.205,365.526,251.082,368.429,251.509,376.548C251.936,384.667,256.316,398.554,256.316,398.554C256.316,398.554,281.276,381.723,287.152,375.207C293.027,368.691,298.333,359.802,298.333,359.802C298.333,359.802,295.314,359.168,293.266,359.156C285.199,359.106,266.342,359.787,259.241,361.674C256.617,362.371,255.147,363.112,253.966,363.836Z" fill="rgb(65,41,152)" stroke="none" stroke-width="1"/></g><g id="efMJsvUFu0d25"><g id="efMJsvUFu0d26"><path id="efMJsvUFu0d27" d="M258.475,431.131C238.542,431.131,227.145,423.175,226.499,422.768L229.451,408.988C229.451,408.988,243.909,416.315,259.994,415.809C267.805,415.565,275.205,414.523,282.36,413.515C292.158,412.135,301.412,410.834,310.88,411.619C324.199,412.716,337.455,406.351,337.607,406.293L337.397,424.726C336.647,425.012,326.45,428.265,309.614,426.864C301.855,426.218,293.421,427.408,284.494,428.664C276.935,429.729,269.117,430.83,260.474,431.1C259.801,431.121,259.135,431.131,258.475,431.131Z" fill="rgb(142,128,194)" stroke="none" stroke-width="1"/></g></g><g id="efMJsvUFu0d28"><path id="efMJsvUFu0d29" d="M258.812,392.564C258.812,392.564,278.102,377.557,287.888,368.587C291.418,365.351,293.478,359.467,293.478,359.467C293.478,359.467,291.419,357.261,291.566,346.67C291.707,336.513,289.595,325.062,285.136,323.175C278.42,320.332,261.803,321.725,257.392,329.752C254.694,334.662,258.616,362.263,258.616,362.263C258.616,362.263,256.751,365.017,256.41,366.382C254.202,375.206,258.812,392.564,258.812,392.564Z" fill="rgb(224,191,144)" stroke="none" stroke-width="1"/></g><g id="efMJsvUFu0d30"><path id="efMJsvUFu0d31" d="M260.842,356.211C265.166,355.888,269.342,354.68,273.479,353.437C279.852,351.521,286.011,349.338,291.565,345.811C291.579,335.876,289.47,325.009,285.135,323.174C278.419,320.331,261.802,321.724,257.391,329.751C255.49,333.209,256.874,347.919,257.859,356.317C258.587,356.368,259.556,356.307,260.842,356.211Z" fill="rgb(163,60,36)" stroke="none" stroke-width="1"/></g><g id="efMJsvUFu0d32"><g id="efMJsvUFu0d33"><path id="efMJsvUFu0d34" d="M261.179,472.084C259.929,472.084,258.799,472.05,257.807,471.976C238.82,470.574,234.955,468.992,233.948,468.366L234.199,451.31C234.199,451.31,243.762,455.599,258.933,456.719C272.63,457.733,318.017,450.209,337.135,446.73L338.301,462.057C331.466,463.302,282.754,472.084,261.179,472.084Z" fill="rgb(142,128,194)" stroke="none" stroke-width="1"/></g></g><g id="efMJsvUFu0d35"><path id="efMJsvUFu0d36" d="M234.166,450.226C234.166,450.226,234.118,449.916,234.028,449.334C233.999,449.04,233.892,448.692,233.784,448.282C233.686,447.871,233.534,447.408,233.35,446.892C232.66,444.813,231.227,442.028,229.561,438.65C228.733,436.957,227.838,435.115,227.045,433.081C226.299,431.053,225.479,428.794,225.692,426.276C225.797,425.104,225.904,423.913,226.012,422.707C226.197,421.496,226.384,420.271,226.573,419.036C227.029,416.589,227.522,414.115,228.151,411.674C228.448,410.448,228.781,409.233,229.142,408.032C229.499,406.83,229.819,405.621,230.209,404.445C230.943,402.078,231.714,399.766,232.493,397.54C233.273,395.315,234.067,393.178,234.87,391.173C235.652,389.159,236.434,387.273,237.152,385.53C238.603,382.051,239.936,379.206,240.855,377.21C241.794,375.222,242.366,374.105,242.366,374.105C242.366,374.105,241.893,375.268,241.065,377.302C240.233,379.334,239.117,382.266,237.767,385.776C237.108,387.537,236.389,389.443,235.674,391.474C234.938,393.498,234.23,395.656,233.458,397.873C232.706,400.097,231.964,402.406,231.26,404.766C230.884,405.939,230.58,407.143,230.238,408.34C229.891,409.537,229.577,410.746,229.291,411.962C228.641,414.375,228.127,416.821,227.653,419.225C227.455,420.43,227.259,421.625,227.065,422.806C226.944,424.011,226.824,425.2,226.707,426.371C226.504,428.584,227.172,430.786,227.847,432.787C228.558,434.797,229.387,436.657,230.159,438.37C231.727,441.788,232.964,444.698,233.569,446.824C233.729,447.352,233.856,447.828,233.923,448.255C234.004,448.677,234.085,449.032,234.093,449.327C234.14,449.913,234.166,450.226,234.166,450.226Z" fill="rgb(65,41,152)" stroke="none" stroke-width="1"/></g><path id="efMJsvUFu0d37" d="M340.49,481.147C336.005,483.723,326.136,491.699,309.253,491.699C309.077,491.699,308.901,491.698,308.725,491.696C303.607,491.616,299.173,491.491,294.885,491.371C282.8,491.032,253,488.965,233.947,489.844L233.445,506.997C245.482,506.441,262.712,506.327,276.524,506.407C299.296,502.936,321.007,496.25,341.202,486.853L340.49,481.147Z" fill="rgb(142,128,194)" stroke="none" stroke-width="1"/></g><g id="efMJsvUFu0d38_tr" transform="translate(195.755001,462.14722) rotate(6.041699)"><g id="efMJsvUFu0d38" transform="translate(-195.755,-462.14722)"><g id="efMJsvUFu0d39"><g id="efMJsvUFu0d40"><path id="efMJsvUFu0d41" d="M149.689,420.552C152.48,421.177,155.588,421.154,158.113,419.655C162.048,417.32,164.106,412.696,166.553,409.067C168.458,406.241,169.1,403.631,167.345,400.604C166.632,399.374,165.767,398.163,165.369,396.782C164.965,395.381,164.584,395.446,163.636,396.454C160.642,399.635,157.928,403.058,154.84,406.158C151.785,409.224,147.992,413.097,143.587,414.04C141.88,414.405,140.157,414.808,138.517,415.417C137.965,415.622,137.058,415.809,136.98,416.486C136.754,418.465,140.966,418.824,142.102,419.055C144.627,419.571,147.172,419.988,149.689,420.552Z" fill="rgb(87,91,87)" stroke="none" stroke-width="1"/></g><g id="efMJsvUFu0d42"><polygon id="efMJsvUFu0d43" points="136.388,406.489 146.897,423.356 168.347,406.489 155.402,392.564" fill="rgb(224,191,144)" stroke="none" stroke-width="1"/></g><g id="efMJsvUFu0d44"><path id="efMJsvUFu0d45" d="M194.959,426.938C194.708,426.702,194.437,426.482,194.136,426.283C192.602,425.269,190.9,424.473,189.361,423.424C187.224,421.967,184.918,420.88,182.684,419.588C178.585,417.217,173.351,413.748,171.376,409.261C170.624,407.553,170.421,405.595,169.72,403.844C169.024,402.105,165.355,397.226,165.706,395.506C165.706,395.507,166.287,404.14,157.266,410.808C146.338,418.885,136.392,417.009,136.389,417.009C137.467,417.056,141.111,423.121,141.887,424.128C143.858,426.689,145.62,429.585,147.794,431.97C151.453,435.985,154.328,440.176,157.472,444.663C164.927,455.304,173.303,465.366,182.856,474.192C185.985,477.082,189.405,480.821,193.923,479.589C197.138,478.713,199.825,476.509,201.916,473.982C206.132,468.887,208.909,461.653,208.581,454.99C208.284,448.971,207.849,443.771,204.372,438.716C202.116,435.436,199.523,432.411,196.993,429.344C196.293,428.495,195.713,427.646,194.959,426.938Z" fill="rgb(213,208,232)" stroke="none" stroke-width="1"/></g><g id="efMJsvUFu0d46"><path id="efMJsvUFu0d47" d="M196.688,427.083C196.688,427.083,196.936,427.346,197.347,427.822C197.739,428.313,198.369,428.957,198.999,429.833C199.639,430.704,200.367,431.74,201.128,432.867C201.324,433.172,201.495,433.386,201.719,433.777C201.851,434.096,201.984,434.418,202.118,434.744C202.38,435.396,202.541,436.155,202.755,436.865C202.932,437.584,203.058,438.281,203.21,438.979C203.37,439.672,203.446,440.364,203.564,441.028C203.784,442.358,203.917,443.607,204.025,444.678C204.132,445.749,204.167,446.65,204.208,447.276C204.242,447.904,204.239,448.266,204.239,448.266C204.239,448.266,204.138,447.919,203.981,447.31C203.84,446.699,203.593,445.833,203.358,444.787C203.12,443.743,202.843,442.525,202.546,441.219C202.401,440.568,202.251,439.895,202.099,439.212C201.939,438.537,201.794,437.828,201.618,437.162C201.428,436.501,201.322,435.844,201.072,435.185C200.951,434.854,200.831,434.526,200.712,434.202C200.549,433.924,200.387,433.649,200.229,433.378C199.558,432.238,198.95,431.157,198.445,430.214C197.932,429.275,197.469,428.5,197.161,427.954C196.851,427.405,196.688,427.083,196.688,427.083Z" fill="rgb(65,41,152)" stroke="none" stroke-width="1"/></g><g id="efMJsvUFu0d48"><g id="efMJsvUFu0d49"><path id="efMJsvUFu0d50" d="M165.706,395.506C165.676,395.654,165.685,395.832,165.709,396.022C165.715,395.7,165.706,395.506,165.706,395.506Z" fill="rgb(168,138,206)" stroke="none" stroke-width="1"/></g><g id="efMJsvUFu0d51"><path id="efMJsvUFu0d52" d="M232.873,506.996C232.873,506.901,232.874,506.806,232.874,506.711L232.873,506.711L232.873,506.996Z" fill="rgb(168,138,206)" stroke="none" stroke-width="1"/></g></g><g id="efMJsvUFu0d53"><path id="efMJsvUFu0d54" d="M136.388,417.009C136.388,417.009,142.771,418.155,148.39,415.554C154.008,412.953,162.902,408.254,164.306,402.143C165.71,396.032,164.959,395.877,164.959,395.877C164.959,395.877,166.876,397.075,166.68,399.036C166.484,400.997,165.013,409.039,156.481,413.255C147.949,417.472,138.241,417.864,138.241,417.864L136.388,417.009Z" fill="rgb(76,66,76)" stroke="none" stroke-width="1"/></g><g id="efMJsvUFu0d55"><path id="efMJsvUFu0d56" d="M169.197,412.039C168.999,411.214,166.692,403.717,166.427,404.047C163.545,407.643,171.668,416.902,170.899,418.576C171.791,416.636,169.146,413.105,169.02,411.162" fill="rgb(65,41,152)" stroke="none" stroke-width="1"/></g><g id="efMJsvUFu0d57"><path id="efMJsvUFu0d58" d="M164.603,417.737C164.236,416.972,160.399,410.13,160.209,410.51C158.15,414.633,168.044,421.97,167.646,423.768C168.108,421.684,164.778,418.79,164.245,416.917" fill="rgb(65,41,152)" stroke="none" stroke-width="1"/></g><g id="efMJsvUFu0d59"><path id="efMJsvUFu0d60" d="M158.719,422.444C158.352,421.679,154.515,414.837,154.325,415.217C152.266,419.34,162.16,426.677,161.762,428.475C162.224,426.391,158.894,423.497,158.361,421.624" fill="rgb(65,41,152)" stroke="none" stroke-width="1"/></g><g id="efMJsvUFu0d61"><path id="efMJsvUFu0d62" d="M151.658,424.798C151.291,424.033,147.454,417.191,147.264,417.571C145.205,421.694,155.099,429.031,154.701,430.829C155.163,428.745,151.833,425.851,151.3,423.978" fill="rgb(65,41,152)" stroke="none" stroke-width="1"/></g></g><g id="efMJsvUFu0d63_tr" transform="translate(146.987976,404.047) rotate(0)"><g id="efMJsvUFu0d63" transform="translate(-146.987973,-404.046998)"><g id="efMJsvUFu0d64"><path id="efMJsvUFu0d65" d="M114.767,380.369C114.767,380.369,144.713,353.39,149.865,366.754C151.818,371.818,154.12,376.746,156.113,381.795C157.273,384.735,159.198,388.27,159.501,391.435C159.871,395.295,157.246,397.692,154.489,399.83C153.151,400.868,151.761,402.198,150.182,402.964C148.23,403.911,146.31,405.026,144.248,405.73C142.819,406.218,142.553,405.832,141.65,407.166C139.73,410.003,136.904,411.26,133.576,410.8C131.464,410.508,129.129,408.412,127.939,406.763C125.158,402.913,124.823,400.077,123.101,395.767C119.635,387.097,114.767,380.369,114.767,380.369Z" fill="rgb(224,191,144)" stroke="none" stroke-width="1"/></g><g id="efMJsvUFu0d66"><path id="efMJsvUFu0d67" d="M142.142,376.026C143.871,371.709,146.886,369.683,149.494,366.071C152.142,362.403,152.797,357.691,155.699,354.166C159.962,348.988,163.635,355.237,162.71,359.803C161.476,365.89,158.584,372.441,159.166,378.716C159.684,384.296,162.139,392.118,157.469,396.502C155.927,397.95,153.672,398.611,151.924,399.414C150.383,399.394,149.077,399.48,147.989,398.418C147.163,397.612,146.529,396.403,145.926,395.427C144.614,393.307,143.484,391.066,142.561,388.75C141.477,386.031,139.298,380.729,141.452,377.999" fill="rgb(224,191,144)" stroke="none" stroke-width="1"/></g><g id="efMJsvUFu0d68"><path id="efMJsvUFu0d69" d="M150.95,372.523C150.644,375.465,148.351,377.277,145.425,376.6C144.325,376.345,142.581,375.833,141.652,375.197C140.352,374.307,137.302,357.798,134.57,353.846C132.17,350.375,127.716,345.774,127.99,341.315C128.231,337.39,131.053,337.229,133.667,339.409C136.948,342.146,139.419,345.659,142.531,348.557C145.266,351.104,146.55,355.815,147.705,359.347C148.921,363.057,151.352,368.668,150.95,372.523Z" fill="rgb(224,191,144)" stroke="none" stroke-width="1"/></g><g id="efMJsvUFu0d70"><path id="efMJsvUFu0d71" d="M141.374,371.147C141.625,374.094,139.712,376.304,136.711,376.187C135.582,376.143,133.774,375.966,132.742,375.516C131.298,374.885,125.209,359.241,121.784,355.871C118.776,352.911,113.539,349.226,112.972,344.795C112.473,340.894,115.215,340.207,118.191,341.859C121.927,343.932,125.012,346.92,128.612,349.184C131.776,351.173,133.919,355.561,135.717,358.813C137.606,362.229,141.045,367.285,141.374,371.147Z" fill="rgb(224,191,144)" stroke="none" stroke-width="1"/></g><g id="efMJsvUFu0d72"><path id="efMJsvUFu0d73" d="M136.296,379.783C136.883,382.682,135.237,385.097,132.242,385.324C131.116,385.41,129.299,385.442,128.222,385.113C126.716,384.652,118.871,369.81,115.083,366.855C111.755,364.26,106.13,361.2,105.059,356.863C104.116,353.045,106.76,352.048,109.907,353.347C113.856,354.978,117.264,357.592,121.1,359.428C124.471,361.041,127.104,365.154,129.263,368.178C131.53,371.356,135.527,375.985,136.296,379.783Z" fill="rgb(224,191,144)" stroke="none" stroke-width="1"/></g><g id="efMJsvUFu0d74"><path id="efMJsvUFu0d75" d="M128.084,386.433C128.545,388.709,127.252,390.606,124.901,390.785C124.017,390.852,122.59,390.877,121.744,390.619C120.561,390.257,114.401,378.601,111.426,376.281C108.813,374.243,104.395,371.84,103.554,368.434C102.813,365.436,104.89,364.653,107.361,365.673C110.462,366.954,113.138,369.007,116.15,370.448C118.797,371.715,120.865,374.944,122.56,377.319C124.342,379.815,127.48,383.45,128.084,386.433Z" fill="rgb(224,191,144)" stroke="none" stroke-width="1"/></g><g id="efMJsvUFu0d76"><path id="efMJsvUFu0d77" d="M149.152,365.383C149.152,365.383,148.855,365.842,148.334,366.645C148.068,367.042,147.745,367.524,147.374,368.077C147.011,368.634,146.572,369.246,146.136,369.935C145.243,371.303,144.233,372.917,143.097,374.605C142.528,375.447,141.939,376.318,141.341,377.202C141.1,377.603,140.827,378.127,140.57,378.588C140.308,379.064,140.031,379.539,139.851,380.03C139.436,381,138.978,381.946,138.669,382.967C138.494,383.466,138.321,383.961,138.15,384.45C138.009,384.949,137.871,385.442,137.734,385.927C137.6,386.413,137.468,386.892,137.339,387.36C137.236,387.835,137.134,388.299,137.036,388.751C136.942,389.204,136.829,389.643,136.759,390.073C136.701,390.504,136.645,390.921,136.592,391.322C136.537,391.723,136.483,392.108,136.433,392.474C136.413,392.841,136.394,393.19,136.376,393.517C136.353,394.173,136.269,394.755,136.35,395.22C136.423,396.171,136.465,396.714,136.465,396.714C136.465,396.714,136.34,396.18,136.123,395.246C135.983,394.774,135.997,394.19,135.939,393.519C135.917,393.182,135.893,392.824,135.868,392.446C135.889,392.07,135.911,391.675,135.934,391.263C135.959,390.849,135.984,390.419,136.011,389.973C136.051,389.529,136.131,389.075,136.193,388.605C136.26,388.135,136.328,387.652,136.398,387.158C136.484,386.667,136.621,386.177,136.733,385.671C136.854,385.167,136.978,384.655,137.103,384.137C137.266,383.629,137.432,383.115,137.598,382.596C137.9,381.554,138.373,380.525,138.81,379.489C139.019,378.958,139.299,378.494,139.566,378.022C139.845,377.539,140.073,377.102,140.39,376.588C141.022,375.714,141.645,374.854,142.247,374.022C143.455,372.36,144.632,370.849,145.613,369.537C146.09,368.87,146.602,368.319,147.032,367.812C147.466,367.308,147.845,366.868,148.157,366.507C148.789,365.791,149.152,365.383,149.152,365.383Z" fill="rgb(163,60,36)" stroke="none" stroke-width="1"/></g><g id="efMJsvUFu0d78"><path id="efMJsvUFu0d79" d="M127.522,365.723C127.522,365.723,127.616,365.816,127.764,365.986C127.909,366.161,128.125,366.386,128.281,366.76C128.471,367.131,128.625,367.55,128.76,367.988C128.825,368.21,128.917,368.412,128.974,368.636C129.043,368.872,129.113,369.112,129.184,369.352C129.312,369.815,129.4,370.337,129.429,370.836C129.481,371.327,129.414,371.778,129.38,372.161C129.326,372.544,129.222,372.856,129.158,373.072C129.088,373.288,129.037,373.408,129.037,373.408C129.037,373.408,128.855,372.901,128.705,372.189C128.589,371.838,128.53,371.418,128.406,371C128.289,370.585,128.206,370.136,128.047,369.653C127.992,369.416,127.937,369.179,127.882,368.946C127.823,368.699,127.785,368.44,127.75,368.211C127.695,367.744,127.666,367.32,127.645,366.981C127.625,366.806,127.647,366.635,127.608,366.481C127.579,366.329,127.565,366.192,127.55,366.081C127.527,365.856,127.522,365.723,127.522,365.723Z" fill="rgb(163,60,36)" stroke="none" stroke-width="1"/></g><g id="efMJsvUFu0d80"><path id="efMJsvUFu0d81" d="M136.784,359.981C136.784,359.981,136.878,360.074,137.026,360.244C137.171,360.419,137.387,360.644,137.543,361.018C137.733,361.389,137.887,361.808,138.022,362.246C138.087,362.468,138.179,362.67,138.236,362.894C138.305,363.13,138.375,363.37,138.446,363.61C138.574,364.073,138.662,364.595,138.691,365.094C138.743,365.585,138.676,366.036,138.642,366.419C138.588,366.801,138.484,367.114,138.42,367.33C138.35,367.546,138.299,367.666,138.299,367.666C138.299,367.666,138.117,367.159,137.967,366.447C137.851,366.095,137.792,365.676,137.668,365.258C137.551,364.843,137.468,364.394,137.309,363.911C137.254,363.674,137.199,363.437,137.144,363.204C137.085,362.957,137.047,362.698,137.012,362.469C136.957,362.002,136.928,361.578,136.907,361.239C136.887,361.064,136.909,360.893,136.87,360.739C136.841,360.587,136.827,360.45,136.812,360.339C136.789,360.114,136.784,359.981,136.784,359.981Z" fill="rgb(163,60,36)" stroke="none" stroke-width="1"/></g><g id="efMJsvUFu0d82"><path id="efMJsvUFu0d83" d="M118.918,371.788C118.918,371.788,119.031,371.857,119.214,371.989C119.395,372.126,119.657,372.297,119.894,372.626C120.163,372.944,120.408,373.317,120.639,373.714C120.753,373.916,120.888,374.091,120.995,374.296C121.116,374.51,121.239,374.728,121.362,374.946C121.592,375.368,121.796,375.856,121.938,376.336C122.1,376.803,122.138,377.256,122.191,377.638C122.226,378.023,122.195,378.351,122.182,378.576C122.163,378.802,122.14,378.93,122.14,378.93C122.14,378.93,121.848,378.477,121.54,377.819C121.348,377.503,121.194,377.108,120.979,376.729C120.771,376.352,120.588,375.933,120.324,375.499C120.216,375.281,120.109,375.062,120.003,374.848C119.889,374.621,119.794,374.377,119.708,374.162C119.549,373.72,119.424,373.313,119.327,372.988C119.267,372.822,119.251,372.65,119.178,372.509C119.115,372.368,119.07,372.238,119.031,372.132C118.952,371.917,118.918,371.788,118.918,371.788Z" fill="rgb(163,60,36)" stroke="none" stroke-width="1"/></g><g id="efMJsvUFu0d84"><path id="efMJsvUFu0d85" d="M137.085,410.72C137.085,410.72,138.147,410.218,139.741,409.466C140.14,409.288,140.553,409.059,141.002,408.846C141.456,408.64,141.89,408.355,142.367,408.114C142.825,407.852,143.277,407.539,143.701,407.231L144.275,406.722L144.952,406.089C145.406,405.72,146.015,405.324,146.509,405.05C147.022,404.754,147.541,404.503,148.03,404.261C148.52,404.02,148.993,403.787,149.442,403.566C149.895,403.351,150.286,403.111,150.676,402.915C151.064,402.717,151.37,402.478,151.679,402.301C151.992,402.127,152.219,401.925,152.407,401.756C152.794,401.427,153.035,401.241,153.035,401.241C153.035,401.241,152.88,401.487,152.573,401.913C152.421,402.128,152.232,402.391,151.961,402.635C151.697,402.883,151.422,403.215,151.056,403.472C150.698,403.737,150.317,404.061,149.883,404.324C149.454,404.599,149.001,404.901,148.525,405.169C148.058,405.447,147.576,405.735,147.085,406.027C146.583,406.329,146.202,406.58,145.752,406.948C145.295,407.345,144.839,407.741,144.389,408.131C143.883,408.495,143.354,408.773,142.847,409.027C142.332,409.257,141.835,409.491,141.348,409.648C140.866,409.821,140.409,409.982,139.978,410.094C138.264,410.578,137.085,410.72,137.085,410.72Z" fill="rgb(163,60,36)" stroke="none" stroke-width="1"/></g></g></g></g></g><g id="efMJsvUFu0d86" transform="matrix(1 0 0 1 0.000001 0.000003)"><g id="efMJsvUFu0d87"><g id="efMJsvUFu0d88"><path id="efMJsvUFu0d89" d="M206.065,515.781C206.192,515.77,206.065,506.917,206.065,506.341C206.065,500.517,205.214,499.398,199.669,496.647C195.247,494.453,190.337,493.508,185.422,493.499C175.87,493.48,166.438,496.828,158.084,501.246C153.346,503.752,157.729,512.31,160.893,515.115C168.169,521.565,179.366,518.17,188.047,517.385C194.052,516.84,200.058,516.305,206.065,515.781Z" fill="rgb(224,191,144)" stroke="none" stroke-width="1"/></g><g id="efMJsvUFu0d90"><g id="efMJsvUFu0d91"><path id="efMJsvUFu0d92" d="M174.491,510.359C171.036,511.186,167.567,511.944,164.082,512.631C161.491,512.835,159.039,516.741,157.452,518.457C155.86,520.178,150.83,523.389,152.662,526.279C154.025,528.429,159.474,524.431,160.915,523.609C163.135,522.342,165.275,520.932,167.508,519.69C170.786,517.867,174.216,518.9,177.901,518.572C180.435,518.346,188.167,516.961,188.78,514.006C190.473,505.858,169.437,511.874,166.487,512.267C165.611,512.368,164.733,512.441,163.853,512.487" fill="rgb(224,191,144)" stroke="none" stroke-width="1"/></g><g id="efMJsvUFu0d93"><path id="efMJsvUFu0d94" d="M165.37,498.602C161.296,500.519,154.391,501.892,150.541,504.483C149.643,505.087,148.984,506.261,148.177,507.293C144.275,512.284,140.004,516.87,135.167,520.94C132.982,522.779,129.668,526.709,135.311,525.856C138.232,525.414,141.164,523.043,143.669,521.543C146.843,519.643,148.599,517.353,151.348,515.055C153.805,513.002,157.657,512.37,160.63,511.441C163.564,510.524,168.82,510.713,171.003,508.156C173.89,504.775,167.944,502.537,165.09,502.226" fill="rgb(224,191,144)" stroke="none" stroke-width="1"/></g><g id="efMJsvUFu0d95"><path id="efMJsvUFu0d96" d="M169.83,503.062C165.756,504.979,158.851,506.352,155.001,508.943C154.103,509.547,153.444,510.721,152.637,511.753C148.735,516.744,144.464,521.33,139.627,525.399C137.442,527.238,134.128,531.168,139.771,530.315C142.692,529.873,145.624,527.502,148.129,526.002C151.303,524.102,153.059,521.812,155.808,519.514C158.265,517.461,162.117,516.829,165.09,515.9C168.024,514.983,173.28,515.172,175.463,512.615C178.35,509.234,172.404,506.996,169.55,506.685" fill="rgb(224,191,144)" stroke="none" stroke-width="1"/></g><g id="efMJsvUFu0d97"><path id="efMJsvUFu0d98" d="M143.852,520.78C143.852,520.78,144.74,519.714,146.18,518.239C147.633,516.771,149.587,514.87,151.652,513.08C152.692,512.184,153.731,511.287,154.706,510.447C155.675,509.604,156.652,508.877,157.461,508.24C158.295,507.632,158.989,507.125,159.476,506.77C159.975,506.432,160.26,506.238,160.26,506.238C160.26,506.238,159.294,507.221,157.83,508.666C157.097,509.383,156.243,510.218,155.327,511.114C154.413,512.031,153.448,512.973,152.437,513.911C150.421,515.781,148.329,517.579,146.674,518.801C145.024,520.038,143.852,520.78,143.852,520.78Z" fill="rgb(163,60,36)" stroke="none" stroke-width="1"/></g></g><g id="efMJsvUFu0d99"><path id="efMJsvUFu0d100" d="M155.002,520.78C155.002,520.78,155.502,519.997,156.399,518.955C156.849,518.436,157.381,517.836,158.002,517.241C158.317,516.948,158.616,516.62,158.969,516.333C159.316,516.04,159.668,515.742,160.021,515.445C160.402,515.174,160.783,514.903,161.159,514.636C161.584,514.393,161.974,514.172,162.436,513.985C162.839,513.849,163.237,513.736,163.612,513.627C163.975,513.5,164.368,513.446,164.72,513.395C165.421,513.267,166.001,513.249,166.407,513.253C166.811,513.246,167.043,513.282,167.043,513.282C167.043,513.282,166.82,513.345,166.443,513.484C166.062,513.609,165.527,513.795,164.916,514.041C164.608,514.158,164.281,514.269,163.923,514.448C163.568,514.613,163.196,514.791,162.803,514.954C162.491,515.113,162.142,515.382,161.792,515.579C161.447,515.84,161.096,516.106,160.745,516.371C159.347,517.473,157.952,518.623,156.862,519.442C155.781,520.275,155.002,520.78,155.002,520.78Z" fill="rgb(163,60,36)" stroke="none" stroke-width="1"/></g></g><g id="efMJsvUFu0d101"><g id="efMJsvUFu0d102"><path id="efMJsvUFu0d103" d="M337.999,394.728C337.999,394.728,337.616,370.246,321.6,364.671C298.107,356.494,287.084,381.349,287.084,381.349C284.617,395.568,275.973,448.235,275.724,449.317C275.25,451.381,274.112,450.834,272.988,451.818C272.37,452.36,271.928,452.716,271.652,453.552C271.16,455.039,273.395,457.214,272.788,458.064C272.133,458.981,270.281,457.613,269.794,459.755C269.533,460.905,269.974,462.159,269.032,463.072C268.496,463.592,216.407,491.689,211.601,494.336L192.409,493.614L190.981,519.211C190.981,519.211,201.79,517.164,216.239,516.145C241.931,514.333,281.562,510.638,309.733,490.894C310.23,490.546,310.544,490.125,310.771,489.675C322.297,466.827,337.999,394.728,337.999,394.728Z" fill="rgb(213,208,232)" stroke="none" stroke-width="1"/></g><g id="efMJsvUFu0d104"><path id="efMJsvUFu0d105" d="M236.172,514.389C236.172,514.389,238.498,513.996,242.568,513.309C246.636,512.617,252.438,511.559,259.346,510.066C266.25,508.562,274.249,506.521,282.583,503.64C286.75,502.206,290.988,500.525,295.174,498.568C299.36,496.61,303.481,494.347,307.395,491.771L308.85,490.787C309.356,490.458,309.785,490.156,310.029,489.783C310.293,489.415,310.527,488.813,310.788,488.298L311.548,486.706C312.008,485.637,312.466,484.57,312.924,483.506C313.351,482.423,313.777,481.343,314.202,480.267C315.844,475.939,317.3,471.614,318.657,467.411C319.99,463.2,321.253,459.12,322.407,455.236C323.562,451.353,324.612,447.668,325.566,444.262C327.459,437.446,329.027,431.762,330.076,427.77C331.142,423.782,331.751,421.503,331.751,421.503C331.751,421.503,331.223,423.802,330.299,427.826C329.342,431.842,328.001,437.587,326.207,444.435C324.409,451.281,322.277,459.265,319.631,467.719C318.294,471.941,316.858,476.289,315.23,480.655C314.808,481.742,314.385,482.832,313.961,483.927C313.501,485.013,313.04,486.103,312.577,487.195L311.826,488.791C311.555,489.323,311.385,489.842,310.979,490.447C310.561,491.064,309.985,491.43,309.513,491.749L308.04,492.751C304.056,495.341,299.874,497.606,295.636,499.559C291.398,501.512,287.117,503.181,282.913,504.602C274.504,507.457,266.419,509.297,259.481,510.709C252.533,512.101,246.688,512.934,242.603,513.532C238.511,514.077,236.172,514.389,236.172,514.389Z" fill="rgb(65,41,152)" stroke="none" stroke-width="1"/></g><g id="efMJsvUFu0d106"><path id="efMJsvUFu0d107" d="M337.999,394.728C337.846,391.456,337.343,388.207,336.58,385.029C335.803,381.857,334.748,378.74,333.237,375.851C331.737,372.969,329.793,370.284,327.284,368.237C326.034,367.22,324.68,366.317,323.206,365.664C321.751,365.012,320.179,364.521,318.601,364.145C317.818,363.957,317.032,363.783,316.227,363.685C315.43,363.539,314.624,363.49,313.818,363.433C312.207,363.349,310.587,363.404,308.998,363.667C305.811,364.14,302.752,365.344,300.034,367.067C297.293,368.769,294.906,371.005,292.816,373.464C291.775,374.701,290.813,376.005,289.925,377.357C289.045,378.706,288.215,380.122,287.548,381.556L287.584,381.437L281.36,419.068L278.213,437.877L276.625,447.278C276.475,448.08,276.399,448.804,276.189,449.669C276.116,449.868,276.098,450.026,275.981,450.259C275.847,450.486,275.751,450.749,275.55,450.922C275.204,451.347,274.706,451.517,274.349,451.678C273.978,451.823,273.691,451.962,273.438,452.164C273.17,452.363,272.842,452.677,272.632,452.899C272.199,453.415,271.986,453.935,272.218,454.594C272.423,455.263,272.83,455.925,273.175,456.709C273.259,456.911,273.34,457.127,273.393,457.385C273.435,457.645,273.459,458.007,273.229,458.361C273.048,458.566,273.123,458.514,272.895,458.685C272.71,458.818,272.583,458.843,272.437,458.894C272.167,458.956,271.931,458.964,271.724,458.968C270.852,458.963,270.558,459.048,270.359,459.7L270.324,459.816C270.321,459.821,270.306,459.886,270.312,459.842L270.3,459.916L270.253,460.21C270.231,460.403,270.228,460.539,270.218,460.736C270.208,461.118,270.203,461.545,270.134,461.997C270.038,462.45,269.864,462.955,269.505,463.316C269.441,463.382,269.477,463.373,269.33,463.498L269.2,463.571L268.941,463.717L268.422,464.01L266.346,465.181L262.135,467.485C256.503,470.579,250.93,473.526,245.322,476.546L228.517,485.542L211.686,494.493L211.641,494.517L211.594,494.515L192.409,493.617L211.607,494.162L211.516,494.183L228.203,484.968L244.916,475.798L261.589,466.634L265.735,464.354L267.806,463.177L268.324,462.883L268.583,462.736L268.712,462.662C268.64,462.724,268.73,462.629,268.731,462.621C268.945,462.413,269.03,462.131,269.106,461.818C269.154,461.483,269.163,461.115,269.171,460.702C269.178,460.503,269.192,460.241,269.217,460.04L269.263,459.746L269.275,459.672L269.305,459.555L269.355,459.385C269.481,458.946,269.775,458.412,270.309,458.143C270.832,457.889,271.328,457.923,271.703,457.907C271.893,457.905,272.055,457.89,272.173,457.864C272.213,457.847,272.283,457.823,272.257,457.834C272.21,457.916,272.401,457.693,272.354,457.755C272.365,457.798,272.36,457.452,272.193,457.127C271.902,456.457,271.459,455.757,271.188,454.904C271.124,454.685,271.074,454.454,271.051,454.206C271.041,454.073,271.051,453.912,271.06,453.767C271.076,453.641,271.1,453.565,271.12,453.461C271.228,453.142,271.308,453.002,271.408,452.766C271.533,452.568,271.671,452.366,271.816,452.187C272.152,451.833,272.4,451.595,272.763,451.312C273.129,451.013,273.57,450.811,273.937,450.667C274.293,450.508,274.588,450.402,274.74,450.185C274.856,450.104,274.875,449.961,274.96,449.86C275.034,449.746,275.083,449.502,275.145,449.329C275.3,448.652,275.411,447.792,275.546,447.032L277.1,437.632L280.238,418.838L286.584,381.263L286.595,381.197L286.62,381.144C287.34,379.611,288.179,378.198,289.091,376.808C290.002,375.423,291,374.096,292.083,372.84C294.253,370.339,296.731,368.065,299.579,366.335C302.404,364.585,305.588,363.369,308.887,362.914C310.533,362.66,312.205,362.62,313.861,362.724C314.689,362.79,315.517,362.85,316.332,363.008C317.154,363.118,317.964,363.304,318.772,363.508C320.372,363.908,321.938,364.412,323.464,365.112C324.983,365.799,326.367,366.755,327.63,367.826C330.17,369.978,332.094,372.75,333.557,375.69C335.03,378.639,336.033,381.793,336.754,384.99C337.462,388.19,337.906,391.453,337.999,394.728Z" fill="rgb(65,41,152)" stroke="none" stroke-width="1"/></g><g id="efMJsvUFu0d108"><path id="efMJsvUFu0d109" d="M279.805,461.405C280.531,461.983,282.932,463.522,282.881,464.762C282.783,467.12,279.764,464.457,279.081,463.922C277.572,462.741,274.574,462.44,273.599,460.659C273.119,459.782,273.281,458.767,274.351,458.593C275.713,458.371,278.787,460.595,279.805,461.405Z" fill="rgb(65,41,152)" stroke="none" stroke-width="1"/></g><g id="efMJsvUFu0d110"><path id="efMJsvUFu0d111" d="M277.002,451.357C279.844,453.495,284.758,454.956,284.949,459.234C284.907,457.978,282.184,456.76,281.34,455.896C280.302,454.833,279.21,453.648,277.839,453.029" fill="rgb(65,41,152)" stroke="none" stroke-width="1"/></g><g id="efMJsvUFu0d112"><path id="efMJsvUFu0d113" d="M203.765,496.442C202.968,496.338,195.552,495.845,195.755,496.191C197.963,499.958,208.905,495.899,210.126,497.146C208.711,495.701,204.691,496.848,202.929,496.302" fill="rgb(65,41,152)" stroke="none" stroke-width="1"/></g><g id="efMJsvUFu0d114"><path id="efMJsvUFu0d115" d="M203.765,505.362C202.968,505.258,195.552,504.765,195.755,505.111C197.963,508.878,208.905,504.819,210.126,506.066C208.711,504.621,204.691,505.768,202.929,505.222" fill="rgb(65,41,152)" stroke="none" stroke-width="1"/></g><g id="efMJsvUFu0d116"><path id="efMJsvUFu0d117" d="M203.765,500.902C202.968,500.798,195.552,500.305,195.755,500.651C197.963,504.418,208.905,500.359,210.126,501.606C208.711,500.161,204.691,501.308,202.929,500.762" fill="rgb(65,41,152)" stroke="none" stroke-width="1"/></g><g id="efMJsvUFu0d118"><path id="efMJsvUFu0d119" d="M203.765,510.936C202.968,510.832,195.552,510.339,195.755,510.685C197.963,514.452,208.905,510.393,210.126,511.64C208.711,510.195,204.691,511.342,202.929,510.796" fill="rgb(65,41,152)" stroke="none" stroke-width="1"/></g></g></g><g id="efMJsvUFu0d120_tr" transform="translate(270.726,338.009827) rotate(0)"><g id="efMJsvUFu0d120" transform="translate(-270.725999,-338.009826)"><g id="efMJsvUFu0d121"><g id="efMJsvUFu0d122"><path id="efMJsvUFu0d123" d="M200.762,223.809C199.087,266.448,176.34,278.517,203.611,318C210.058,327.333,223.748,342.667,246.415,342C296.616,340.523,316.631,327.604,326.415,278.667C328.012,270.68,361.858,282.668,365.057,275.221C368.046,268.265,365.858,264.004,363.911,256.933C362.787,252.851,362.529,248.857,361.468,244.818C358.58,233.827,355.052,223.168,347.646,214.138C341.564,206.723,332.599,201.071,324.214,197.135C313.721,192.21,303.736,186.612,292.815,182.712C263.174,172.129,202.429,181.362,200.762,223.809Z" fill="rgb(224,191,144)" stroke="none" stroke-width="1"/></g><g id="efMJsvUFu0d124"><path id="efMJsvUFu0d125" d="M230.877,316.89C218.737,316.89,210.262,309.201,210.174,309.12L210.799,308.443C210.888,308.525,219.794,316.613,232.362,315.929C245.033,315.25,256.066,310.482,256.176,310.434L256.545,311.279C256.433,311.328,245.255,316.161,232.411,316.849C231.893,316.877,231.382,316.89,230.877,316.89Z" fill="rgb(163,60,36)" stroke="none" stroke-width="1"/></g><g id="efMJsvUFu0d126"><path id="efMJsvUFu0d127" d="M235.885,257.453C235.885,257.453,235.584,258.134,235.057,259.325C234.787,259.917,234.459,260.636,234.083,261.461C233.706,262.299,233.277,263.196,232.847,264.228C232.633,264.741,232.387,265.272,232.174,265.829C231.997,266.39,231.814,266.969,231.626,267.565C231.415,268.147,231.314,268.803,231.151,269.442C230.998,270.085,230.839,270.745,230.709,271.43C230.55,272.129,230.469,272.76,230.24,273.543C230.137,273.886,230.034,274.232,229.93,274.579C229.832,274.926,229.727,275.273,229.527,275.624C228.863,277.063,228,278.339,227.032,279.495C226.075,280.672,225.056,281.742,224.147,282.858C223.68,283.409,223.301,283.995,222.871,284.548C222.499,285.13,222.189,285.734,221.849,286.313C221.738,286.625,221.627,286.933,221.518,287.24C221.495,287.529,221.43,287.802,221.406,288.092C221.406,288.69,221.492,289.282,221.718,289.825C222.154,290.918,222.957,291.797,223.797,292.451C224.647,293.109,225.559,293.53,226.385,293.835C227.22,294.129,227.995,294.241,228.633,294.26C229.268,294.265,229.783,294.234,230.113,294.134C230.452,294.054,230.633,294.012,230.633,294.012C230.633,294.012,230.458,294.076,230.13,294.196C229.806,294.332,229.294,294.444,228.636,294.49C227.977,294.529,227.162,294.485,226.261,294.256C225.368,294.02,224.358,293.66,223.409,292.989C222.465,292.331,221.516,291.423,220.928,290.164C220.629,289.539,220.474,288.825,220.44,288.082C220.442,287.705,220.511,287.308,220.563,286.918C220.676,286.577,220.79,286.233,220.905,285.886C221.248,285.252,221.571,284.585,221.953,283.95C222.381,283.355,222.784,282.713,223.262,282.146C224.19,280.985,225.212,279.89,226.12,278.752C227.075,277.643,227.879,276.432,228.464,275.225C228.644,274.943,228.751,274.593,228.858,274.244L229.196,273.217C229.394,272.631,229.533,271.857,229.7,271.202C229.852,270.522,230.019,269.852,230.22,269.201C230.424,268.551,230.558,267.908,230.813,267.299C231.044,266.689,231.268,266.095,231.485,265.52C231.731,264.968,232.003,264.457,232.245,263.954C232.715,262.945,233.252,262.041,233.693,261.263C234.14,260.475,234.531,259.788,234.852,259.222C235.511,258.096,235.885,257.453,235.885,257.453Z" fill="rgb(163,60,36)" stroke="none" stroke-width="1"/></g><g id="efMJsvUFu0d128"><path id="efMJsvUFu0d129" d="M261.433,185.038L301.891,153.674C301.891,153.674,291.69,149.443,274.32,151.166C256.95,152.889,213.753,160.982,203.874,194.12C193.995,227.258,200.086,228.546,200.086,228.546C200.086,228.546,219.025,189.458,236.363,186.88C253.701,184.302,261.433,185.038,261.433,185.038Z" fill="rgb(0,0,0)" stroke="none" stroke-width="1"/></g><g id="efMJsvUFu0d130"><g id="efMJsvUFu0d131"><path id="efMJsvUFu0d132" d="M283.769,182.156C283.769,182.156,318.132,168.84,318.991,218.667C319.85,268.494,310.278,308.096,309.541,326.482C308.804,344.868,310.4,352.684,321.139,361.704C331.878,370.724,342.616,372.443,346.052,365.57C349.488,358.697,352.925,358.268,363.234,356.12C373.543,353.972,380.845,351.395,380.416,337.65C379.986,323.905,390.295,324.678,391.155,318.063C392.014,311.448,376.421,299.528,378.633,275.85C380.845,252.172,391.189,226.399,378.633,199.338C369.657,179.992,355.709,169.708,335.601,163.196C315.493,156.684,301.89,153.675,301.89,153.675L257.137,185.593L283.769,182.156Z" fill="rgb(0,0,0)" stroke="none" stroke-width="1"/></g><g id="efMJsvUFu0d133"><path id="efMJsvUFu0d134" d="M356.6,302.344C356.6,302.344,354.865,308.228,361.141,315.289C367.417,322.35,379.577,323.239,376.047,317.303C372.517,311.366,356.6,302.344,356.6,302.344Z" fill="rgb(15,22,28)" stroke="none" stroke-width="1"/></g><g id="efMJsvUFu0d135"><path id="efMJsvUFu0d136" d="M334.861,325.095C334.861,325.095,335.392,344.86,341.599,348.707C347.806,352.553,357.028,357.489,351.436,348.353C345.844,339.217,334.861,325.095,334.861,325.095Z" fill="rgb(15,22,28)" stroke="none" stroke-width="1"/></g></g><circle id="efMJsvUFu0d137" r="7.415" transform="matrix(1 0 0 1 262.938 283.749)" fill="rgb(232,170,139)" stroke="none" stroke-width="1"/><circle id="efMJsvUFu0d138" r="7.415" transform="matrix(1 0 0 1 205.938 278.749)" fill="rgb(232,170,139)" stroke="none" stroke-width="1"/></g><g id="efMJsvUFu0d139"><path id="efMJsvUFu0d140" d="M229.357,242.847C229.357,242.847,229.062,242.765,228.547,242.623C228.063,242.487,227.339,242.302,226.44,242.093C225.554,241.865,224.496,241.674,223.37,241.428C222.802,241.328,222.216,241.225,221.62,241.12C221.023,241.025,220.416,240.892,219.806,240.826C218.589,240.688,217.361,240.465,216.216,240.402C215.071,240.329,213.988,240.199,213.072,240.193C211.232,240.175,210.005,240.164,210.005,240.164L209.665,237.206C209.665,237.206,210.986,237.063,212.967,236.848C213.962,236.741,215.114,236.74,216.36,236.676C217.609,236.603,218.919,236.681,220.248,236.678C220.914,236.673,221.566,236.736,222.217,236.763C222.867,236.8,223.506,236.837,224.125,236.872C225.356,236.991,226.513,237.064,227.499,237.196C228.48,237.306,229.316,237.416,229.919,237.51C230.49,237.598,230.816,237.648,230.816,237.648L229.357,242.847Z" fill="rgb(0,0,0)" stroke="none" stroke-width="1"/></g><g id="efMJsvUFu0d141"><g id="efMJsvUFu0d142_tr" transform="translate(228.1625,180.402) rotate(0)"><path id="efMJsvUFu0d142" d="M257.137,185.592C257.137,185.592,230.53,163.269,212.777,176.861C175.388,205.486,187.981,252.708,173.376,254.748C158.772,256.788,189.122,257.43,201.852,248.276C225.425,231.326,198.697,216.178,230.047,187.739C240.337,178.405,257.137,185.592,257.137,185.592Z" transform="translate(-228.162499,-180.934993)" fill="rgb(0,0,0)" stroke="none" stroke-width="1"/></g></g><g id="efMJsvUFu0d143"><g id="efMJsvUFu0d144_tr" transform="translate(253.492,180.402) rotate(0)"><path id="efMJsvUFu0d144" d="M248.882,180.008C248.882,180.008,240.515,192.035,248.882,208.787C257.249,225.539,248.882,237.137,248.882,237.137C248.882,237.137,260.255,225.969,260.255,219.096C260.255,212.223,251.235,201.914,255.96,192.035C260.685,182.156,268.202,176.861,268.202,176.861L251.665,180.008" transform="translate(-253.492,-180.402)" fill="rgb(0,0,0)" stroke="none" stroke-width="1"/></g></g><g id="efMJsvUFu0d145"><path id="efMJsvUFu0d146" d="M256.057,239.856C256.057,239.856,256.689,239.853,257.845,239.922C258.979,239.985,260.588,240.139,262.512,240.406C264.436,240.691,266.674,241.097,269.061,241.727C270.262,242.053,271.48,242.387,272.736,242.876L273.676,243.22L274.147,243.393L274.265,243.436L274.324,243.458L274.469,243.516L274.482,243.523L274.508,243.537L274.718,243.647L276.403,244.531C276.957,244.8,277.54,245.16,278.12,245.533C278.698,245.895,279.269,246.257,279.825,246.63C280.926,247.371,281.883,248.135,282.872,248.853C283.833,249.593,284.714,250.358,285.571,251.055C286.428,251.751,287.181,252.479,287.904,253.112C290.752,255.701,292.463,257.627,292.463,257.627C292.463,257.627,290.21,256.426,286.83,254.625C285.991,254.177,285.093,253.674,284.127,253.179C283.166,252.679,282.169,252.119,281.115,251.603C280.074,251.089,278.987,250.49,277.915,250.009C277.379,249.779,276.85,249.535,276.323,249.287C275.805,249.036,275.276,248.791,274.653,248.585L272.868,247.934L272.646,247.853L272.618,247.843L272.604,247.838C272.571,247.825,272.843,247.933,272.721,247.886L272.667,247.872L272.56,247.844L272.132,247.733L271.282,247.512C270.179,247.184,268.991,247.014,267.892,246.749C266.784,246.5,265.667,246.361,264.641,246.134C263.598,245.947,262.604,245.803,261.695,245.621C259.862,245.317,258.333,245.053,257.265,244.854C256.199,244.655,255.591,244.541,255.591,244.541L256.057,239.856Z" fill="rgb(0,0,0)" stroke="none" stroke-width="1"/></g><g id="efMJsvUFu0d147"><g id="efMJsvUFu0d148_tr" transform="translate(242.366,184.814793) rotate(0)"><path id="efMJsvUFu0d148" d="M247.127,181.874C247.127,181.874,247.03,182.009,246.848,182.261C246.671,182.522,246.41,182.904,246.079,183.391C245.75,183.883,245.353,184.485,244.931,185.196C244.499,185.9,244.044,186.716,243.555,187.604C243.065,188.493,242.569,189.474,242.104,190.532C241.626,191.585,241.194,192.725,240.798,193.909C240.6,194.502,240.397,195.105,240.258,195.729C240.089,196.348,239.943,196.977,239.847,197.617L239.672,198.578L239.587,199.549C239.501,200.2,239.509,200.849,239.528,201.499L239.534,201.987C239.532,202.038,239.542,202.218,239.531,202.163L239.563,202.423L239.691,203.459C239.745,204.189,239.952,204.719,240.078,205.344C240.204,205.95,240.49,206.556,240.672,207.161C240.898,207.758,241.185,208.326,241.432,208.902C242.017,210.011,242.638,211.066,243.298,212.031C243.968,212.988,244.656,213.864,245.335,214.639C246.703,216.178,247.937,217.407,248.859,218.201C249.772,219.007,250.329,219.435,250.329,219.435C250.329,219.435,249.693,219.135,248.653,218.477C247.626,217.806,246.142,216.832,244.574,215.387C243.785,214.671,242.969,213.848,242.151,212.926C241.743,212.465,241.361,211.956,240.948,211.452C240.571,210.921,240.207,210.36,239.831,209.792C239.507,209.192,239.144,208.596,238.838,207.958C238.565,207.298,238.239,206.674,238.026,205.948C237.824,205.241,237.533,204.466,237.447,203.807L237.254,202.781L237.206,202.524C237.177,202.296,237.188,202.301,237.178,202.178L237.145,201.621C237.091,200.877,237.054,200.132,237.116,199.398L237.168,198.294L237.315,197.213C237.394,196.489,237.549,195.79,237.716,195.105C237.857,194.41,238.061,193.747,238.262,193.095C238.649,191.785,239.16,190.572,239.666,189.441C240.172,188.308,240.705,187.267,241.23,186.326C241.741,185.377,242.274,184.546,242.758,183.819C243.235,183.087,243.681,182.469,244.052,181.962C244.42,181.452,244.739,181.075,244.955,180.805C245.176,180.542,245.294,180.402,245.294,180.402L247.127,181.874Z" transform="translate(-242.366,-184.814793)" fill="rgb(0,0,0)" stroke="none" stroke-width="1"/></g></g><g id="efMJsvUFu0d149" transform="matrix(1.367529 0 0 1.437565 -78.55583 -111.309969)"><g id="efMJsvUFu0d150_ts" transform="translate(214.652001,255.895996) scale(1,1)"><g id="efMJsvUFu0d150" transform="translate(-214.652,-255.895996)"><g id="efMJsvUFu0d151"><path id="efMJsvUFu0d152" d="M206.904,259.77C206.904,255.491,210.373,252.022,214.652,252.022C218.931,252.022,222.4,255.491,222.4,259.77" fill="none" stroke="rgb(0,0,0)" stroke-width="1" stroke-miterlimit="10"/></g><g id="efMJsvUFu0d153"><g id="efMJsvUFu0d154"><path id="efMJsvUFu0d155" d="M209.032,255.526C209.032,255.526,208.722,255.413,208.256,255.244C208.024,255.15,207.753,255.04,207.463,254.923C207.313,254.845,207.157,254.765,206.999,254.684C206.809,254.583,206.731,254.479,206.591,254.376C206.345,254.165,206.08,253.896,205.902,253.65C205.704,253.407,205.554,253.156,205.431,252.943C205.187,252.513,205.081,252.204,205.081,252.204C205.081,252.204,205.246,252.487,205.559,252.854C205.717,253.035,205.904,253.244,206.132,253.434C206.241,253.535,206.358,253.632,206.482,253.712C206.606,253.797,206.714,253.887,206.868,253.961C207.004,254.025,207.171,254.146,207.278,254.161C207.415,254.2,207.55,254.238,207.681,254.276C207.973,254.333,208.245,254.386,208.478,254.431C208.953,254.506,209.27,254.556,209.27,254.556L209.032,255.526Z" fill="rgb(0,0,0)" stroke="none" stroke-width="1"/></g><g id="efMJsvUFu0d156"><path id="efMJsvUFu0d157" d="M210.323,253.729C210.323,253.729,209.968,253.604,209.435,253.418C209.168,253.32,208.859,253.193,208.528,253.063C208.357,252.977,208.181,252.889,208.002,252.799C207.791,252.69,207.695,252.57,207.535,252.455C207.388,252.35,207.248,252.195,207.112,252.059C206.97,251.924,206.852,251.781,206.744,251.639C206.516,251.365,206.341,251.081,206.199,250.839C205.916,250.351,205.79,250,205.79,250C205.79,250,205.974,250.326,206.328,250.75C206.506,250.96,206.717,251.202,206.976,251.422C207.1,251.539,207.232,251.652,207.375,251.747C207.517,251.847,207.641,251.954,207.815,252.039C207.97,252.115,208.155,252.252,208.284,252.276C208.442,252.324,208.598,252.371,208.749,252.416C209.083,252.486,209.391,252.556,209.66,252.605C210.202,252.697,210.564,252.759,210.564,252.759L210.323,253.729Z" fill="rgb(0,0,0)" stroke="none" stroke-width="1"/></g><g id="efMJsvUFu0d158"><path id="efMJsvUFu0d159" d="M212.323,252.729C212.323,252.729,211.968,252.604,211.435,252.418C211.168,252.32,210.859,252.193,210.528,252.063C210.357,251.977,210.181,251.889,210.002,251.799C209.791,251.69,209.695,251.57,209.535,251.455C209.388,251.35,209.248,251.195,209.112,251.059C208.97,250.924,208.852,250.781,208.744,250.639C208.516,250.365,208.341,250.081,208.199,249.839C207.916,249.351,207.79,249,207.79,249C207.79,249,207.974,249.326,208.328,249.75C208.506,249.96,208.717,250.202,208.976,250.422C209.1,250.539,209.232,250.652,209.375,250.747C209.517,250.847,209.641,250.954,209.815,251.039C209.97,251.115,210.155,251.252,210.284,251.276C210.442,251.324,210.598,251.371,210.749,251.416C211.083,251.486,211.391,251.556,211.66,251.605C212.202,251.697,212.564,251.759,212.564,251.759L212.323,252.729Z" fill="rgb(0,0,0)" stroke="none" stroke-width="1"/></g></g></g></g><g id="efMJsvUFu0d160_ts" transform="translate(211.80543,255.109139) scale(1,1)"><g id="efMJsvUFu0d160" transform="translate(-211.80543,-255.109139)"><circle id="efMJsvUFu0d161" r="3.526" transform="matrix(1 0 0 1 210.652 257.77)" fill="rgb(0,0,0)" stroke="none" stroke-width="1"/></g></g></g><g id="efMJsvUFu0d162" transform="matrix(1.367528 0 0 1.437563 -95.366304 -114.433507)"><g id="efMJsvUFu0d163_ts" transform="translate(261.185883,262.52591) scale(1,1)"><g id="efMJsvUFu0d163" transform="translate(-261.185883,-262.525909)"><g id="efMJsvUFu0d164"><path id="efMJsvUFu0d165" d="M253.492,264.429C254.208,260.21,258.209,257.371,262.428,258.088C266.647,258.805,269.486,262.805,268.769,267.024" transform="matrix(1 0 0 1 0 0.025291)" fill="none" stroke="rgb(0,0,0)" stroke-width="1" stroke-miterlimit="10"/></g><g id="efMJsvUFu0d166"><g id="efMJsvUFu0d167"><path id="efMJsvUFu0d168" d="M254.032,262.526C254.032,262.526,253.722,262.413,253.256,262.244C253.024,262.15,252.753,262.04,252.463,261.923C252.313,261.845,252.157,261.765,251.999,261.684C251.809,261.583,251.731,261.479,251.591,261.376C251.345,261.165,251.08,260.896,250.902,260.65C250.704,260.407,250.554,260.156,250.431,259.943C250.187,259.513,250.081,259.204,250.081,259.204C250.081,259.204,250.246,259.487,250.559,259.854C250.717,260.035,250.904,260.244,251.132,260.434C251.241,260.535,251.358,260.632,251.482,260.712C251.606,260.797,251.714,260.887,251.868,260.961C252.004,261.025,252.171,261.146,252.278,261.161C252.415,261.2,252.55,261.238,252.681,261.276C252.973,261.333,253.245,261.386,253.478,261.431C253.953,261.506,254.27,261.556,254.27,261.556L254.032,262.526Z" fill="rgb(0,0,0)" stroke="none" stroke-width="1"/></g><g id="efMJsvUFu0d169"><path id="efMJsvUFu0d170" d="M255.323,260.729C255.323,260.729,254.968,260.604,254.435,260.418C254.168,260.32,253.859,260.193,253.528,260.063C253.357,259.977,253.181,259.889,253.002,259.799C252.791,259.69,252.695,259.57,252.535,259.455C252.388,259.35,252.248,259.195,252.112,259.059C251.97,258.924,251.852,258.781,251.744,258.639C251.516,258.365,251.341,258.081,251.199,257.839C250.916,257.351,250.79,257,250.79,257C250.79,257,250.974,257.326,251.328,257.75C251.506,257.96,251.717,258.202,251.976,258.422C252.1,258.539,252.232,258.652,252.375,258.747C252.517,258.847,252.641,258.954,252.815,259.039C252.97,259.115,253.155,259.252,253.284,259.276C253.442,259.324,253.598,259.371,253.749,259.416C254.083,259.486,254.391,259.556,254.66,259.605C255.202,259.697,255.564,259.759,255.564,259.759L255.323,260.729Z" fill="rgb(0,0,0)" stroke="none" stroke-width="1"/></g><g id="efMJsvUFu0d171"><path id="efMJsvUFu0d172" d="M257.323,259.729C257.323,259.729,256.968,259.604,256.435,259.418C256.168,259.32,255.859,259.193,255.528,259.063C255.357,258.977,255.181,258.889,255.002,258.799C254.791,258.69,254.695,258.57,254.535,258.455C254.388,258.35,254.248,258.195,254.112,258.059C253.97,257.924,253.852,257.781,253.744,257.639C253.516,257.365,253.341,257.081,253.199,256.839C252.916,256.351,252.79,256,252.79,256C252.79,256,252.974,256.326,253.328,256.75C253.506,256.96,253.717,257.202,253.976,257.422C254.1,257.539,254.232,257.652,254.375,257.747C254.517,257.847,254.641,257.954,254.815,258.039C254.97,258.115,255.155,258.252,255.284,258.276C255.442,258.324,255.598,258.371,255.749,258.416C256.083,258.486,256.391,258.556,256.66,258.605C257.202,258.697,257.564,258.759,257.564,258.759L257.323,259.729Z" fill="rgb(0,0,0)" stroke="none" stroke-width="1"/></g></g></g></g><g id="efMJsvUFu0d173_ts" transform="translate(258.179135,259.788255) scale(1,1)"><g id="efMJsvUFu0d173" transform="translate(-258.179135,-259.788255)"><circle id="efMJsvUFu0d174" r="3.526" transform="matrix(1 0 0 1 257.522 263.084)" fill="rgb(0,0,0)" stroke="none" stroke-width="1"/></g></g></g><g id="efMJsvUFu0d175"><g id="efMJsvUFu0d176"><path id="efMJsvUFu0d177" d="M251.507,187.944C251.507,187.944,279.807,179.531,290.133,196.357C300.459,213.183,288.221,261.753,293.192,291.965C298.164,322.177,325.316,334.415,325.316,334.415C325.316,334.415,311.931,304.075,322.257,269.529C332.583,234.983,341.379,203.623,317.668,184.119C293.957,164.616,251.507,187.944,251.507,187.944Z" fill="rgb(15,22,28)" stroke="none" stroke-width="1"/></g><g id="efMJsvUFu0d178"><g id="efMJsvUFu0d179_tr" transform="translate(274.843762,180.402) rotate(0)"><path id="efMJsvUFu0d179" d="M245.623,189.121C245.623,189.121,273.923,180.708,284.249,197.534C294.575,214.36,282.337,262.93,287.308,293.142C292.28,323.354,319.432,335.592,319.432,335.592C319.432,335.592,306.047,305.252,316.373,270.706C326.699,236.16,335.495,204.8,311.784,185.296C288.073,165.792,245.623,189.121,245.623,189.121Z" transform="translate(-274.843758,-180.402)" fill="rgb(0,0,0)" stroke="none" stroke-width="1"/></g></g></g></g></g></svg>