<svg width="673" height="378" viewBox="0 0 673 378" fill="none" xmlns="http://www.w3.org/2000/svg">
<path d="M65.408 171.8L60.496 183H58.912L53.984 171.8H55.712L59.744 181L63.808 171.8H65.408ZM74.0356 178.808C74.0356 178.925 74.025 179.08 74.0036 179.272H67.1236C67.2196 180.019 67.545 180.621 68.0996 181.08C68.665 181.528 69.3636 181.752 70.1956 181.752C71.209 181.752 72.025 181.411 72.6436 180.728L73.4916 181.72C73.1076 182.168 72.6276 182.509 72.0516 182.744C71.4863 182.979 70.8516 183.096 70.1476 183.096C69.2516 183.096 68.457 182.915 67.7636 182.552C67.0703 182.179 66.5316 181.661 66.1476 181C65.7743 180.339 65.5876 179.592 65.5876 178.76C65.5876 177.939 65.769 177.197 66.1316 176.536C66.505 175.875 67.0116 175.363 67.6516 175C68.3023 174.627 69.033 174.44 69.8436 174.44C70.6543 174.44 71.3743 174.627 72.0036 175C72.6436 175.363 73.1396 175.875 73.4916 176.536C73.8543 177.197 74.0356 177.955 74.0356 178.808ZM69.8436 175.736C69.1076 175.736 68.489 175.96 67.9876 176.408C67.497 176.856 67.209 177.443 67.1236 178.168H72.5636C72.4783 177.453 72.185 176.872 71.6836 176.424C71.193 175.965 70.5796 175.736 69.8436 175.736ZM78.0405 175.944C78.3072 175.453 78.7018 175.08 79.2245 174.824C79.7472 174.568 80.3818 174.44 81.1285 174.44V175.928C81.0432 175.917 80.9258 175.912 80.7765 175.912C79.9445 175.912 79.2885 176.163 78.8085 176.664C78.3392 177.155 78.1045 177.859 78.1045 178.776V183H76.5685V174.52H78.0405V175.944ZM98.8359 174.44C99.9025 174.44 100.745 174.749 101.364 175.368C101.993 175.987 102.308 176.904 102.308 178.12V183H100.772V178.296C100.772 177.475 100.58 176.856 100.196 176.44C99.8225 176.024 99.2839 175.816 98.5799 175.816C97.8012 175.816 97.1825 176.061 96.7239 176.552C96.2652 177.032 96.0359 177.725 96.0359 178.632V183H94.4999V178.296C94.4999 177.475 94.3079 176.856 93.9239 176.44C93.5505 176.024 93.0119 175.816 92.3079 175.816C91.5292 175.816 90.9105 176.061 90.4519 176.552C89.9932 177.032 89.7639 177.725 89.7639 178.632V183H88.2279V174.52H89.6999V175.784C90.0092 175.347 90.4145 175.016 90.9159 174.792C91.4172 174.557 91.9879 174.44 92.6279 174.44C93.2892 174.44 93.8759 174.573 94.3879 174.84C94.8999 175.107 95.2945 175.496 95.5719 176.008C95.8919 175.517 96.3345 175.133 96.8999 174.856C97.4759 174.579 98.1212 174.44 98.8359 174.44ZM108.622 174.44C109.795 174.44 110.691 174.728 111.31 175.304C111.939 175.88 112.254 176.739 112.254 177.88V183H110.798V181.88C110.542 182.275 110.174 182.579 109.694 182.792C109.225 182.995 108.665 183.096 108.014 183.096C107.065 183.096 106.302 182.867 105.726 182.408C105.161 181.949 104.878 181.347 104.878 180.6C104.878 179.853 105.15 179.256 105.694 178.808C106.238 178.349 107.102 178.12 108.286 178.12H110.718V177.816C110.718 177.155 110.526 176.648 110.142 176.296C109.758 175.944 109.193 175.768 108.446 175.768C107.945 175.768 107.454 175.853 106.974 176.024C106.494 176.184 106.089 176.403 105.758 176.68L105.118 175.528C105.555 175.176 106.078 174.909 106.686 174.728C107.294 174.536 107.939 174.44 108.622 174.44ZM108.27 181.912C108.857 181.912 109.363 181.784 109.79 181.528C110.217 181.261 110.526 180.888 110.718 180.408V179.224H108.35C107.049 179.224 106.398 179.661 106.398 180.536C106.398 180.963 106.563 181.299 106.894 181.544C107.225 181.789 107.683 181.912 108.27 181.912ZM109.71 171.208H111.662L108.974 173.288H107.534L109.71 171.208ZM117.929 183.096C117.235 183.096 116.569 183.005 115.929 182.824C115.289 182.632 114.787 182.392 114.425 182.104L115.065 180.888C115.438 181.155 115.891 181.368 116.425 181.528C116.958 181.688 117.497 181.768 118.041 181.768C119.385 181.768 120.057 181.384 120.057 180.616C120.057 180.36 119.966 180.157 119.785 180.008C119.603 179.859 119.374 179.752 119.097 179.688C118.83 179.613 118.446 179.533 117.945 179.448C117.262 179.341 116.702 179.219 116.265 179.08C115.838 178.941 115.47 178.707 115.161 178.376C114.851 178.045 114.697 177.581 114.697 176.984C114.697 176.216 115.017 175.603 115.657 175.144C116.297 174.675 117.155 174.44 118.233 174.44C118.798 174.44 119.363 174.509 119.929 174.648C120.494 174.787 120.958 174.973 121.321 175.208L120.665 176.424C119.971 175.976 119.155 175.752 118.217 175.752C117.566 175.752 117.07 175.859 116.729 176.072C116.387 176.285 116.217 176.568 116.217 176.92C116.217 177.197 116.313 177.416 116.505 177.576C116.697 177.736 116.931 177.853 117.209 177.928C117.497 178.003 117.897 178.088 118.409 178.184C119.091 178.301 119.641 178.429 120.057 178.568C120.483 178.696 120.846 178.92 121.145 179.24C121.443 179.56 121.593 180.008 121.593 180.584C121.593 181.352 121.262 181.965 120.601 182.424C119.95 182.872 119.059 183.096 117.929 183.096Z" fill="#7C6436"/>
<path d="M1.5 152.5H175.5V192C175.5 197.247 171.247 201.5 166 201.5H1.5V152.5Z" stroke="#7C6436"/>
<path d="M270.408 171.8L265.496 183H263.912L258.984 171.8H260.712L264.744 181L268.808 171.8H270.408ZM279.036 178.808C279.036 178.925 279.025 179.08 279.004 179.272H272.124C272.22 180.019 272.545 180.621 273.1 181.08C273.665 181.528 274.364 181.752 275.196 181.752C276.209 181.752 277.025 181.411 277.644 180.728L278.492 181.72C278.108 182.168 277.628 182.509 277.052 182.744C276.486 182.979 275.852 183.096 275.148 183.096C274.252 183.096 273.457 182.915 272.764 182.552C272.07 182.179 271.532 181.661 271.148 181C270.774 180.339 270.588 179.592 270.588 178.76C270.588 177.939 270.769 177.197 271.132 176.536C271.505 175.875 272.012 175.363 272.652 175C273.302 174.627 274.033 174.44 274.844 174.44C275.654 174.44 276.374 174.627 277.004 175C277.644 175.363 278.14 175.875 278.492 176.536C278.854 177.197 279.036 177.955 279.036 178.808ZM274.844 175.736C274.108 175.736 273.489 175.96 272.988 176.408C272.497 176.856 272.209 177.443 272.124 178.168H277.564C277.478 177.453 277.185 176.872 276.684 176.424C276.193 175.965 275.58 175.736 274.844 175.736ZM283.04 175.944C283.307 175.453 283.702 175.08 284.224 174.824C284.747 174.568 285.382 174.44 286.128 174.44V175.928C286.043 175.917 285.926 175.912 285.776 175.912C284.944 175.912 284.288 176.163 283.808 176.664C283.339 177.155 283.104 177.859 283.104 178.776V183H281.568V174.52H283.04V175.944ZM303.836 174.44C304.903 174.44 305.745 174.749 306.364 175.368C306.993 175.987 307.308 176.904 307.308 178.12V183H305.772V178.296C305.772 177.475 305.58 176.856 305.196 176.44C304.823 176.024 304.284 175.816 303.58 175.816C302.801 175.816 302.183 176.061 301.724 176.552C301.265 177.032 301.036 177.725 301.036 178.632V183H299.5V178.296C299.5 177.475 299.308 176.856 298.924 176.44C298.551 176.024 298.012 175.816 297.308 175.816C296.529 175.816 295.911 176.061 295.452 176.552C294.993 177.032 294.764 177.725 294.764 178.632V183H293.228V174.52H294.7V175.784C295.009 175.347 295.415 175.016 295.916 174.792C296.417 174.557 296.988 174.44 297.628 174.44C298.289 174.44 298.876 174.573 299.388 174.84C299.9 175.107 300.295 175.496 300.572 176.008C300.892 175.517 301.335 175.133 301.9 174.856C302.476 174.579 303.121 174.44 303.836 174.44ZM313.622 174.44C314.795 174.44 315.691 174.728 316.31 175.304C316.939 175.88 317.254 176.739 317.254 177.88V183H315.798V181.88C315.542 182.275 315.174 182.579 314.694 182.792C314.225 182.995 313.665 183.096 313.014 183.096C312.065 183.096 311.302 182.867 310.726 182.408C310.161 181.949 309.878 181.347 309.878 180.6C309.878 179.853 310.15 179.256 310.694 178.808C311.238 178.349 312.102 178.12 313.286 178.12H315.718V177.816C315.718 177.155 315.526 176.648 315.142 176.296C314.758 175.944 314.193 175.768 313.446 175.768C312.945 175.768 312.454 175.853 311.974 176.024C311.494 176.184 311.089 176.403 310.758 176.68L310.118 175.528C310.555 175.176 311.078 174.909 311.686 174.728C312.294 174.536 312.939 174.44 313.622 174.44ZM313.27 181.912C313.857 181.912 314.363 181.784 314.79 181.528C315.217 181.261 315.526 180.888 315.718 180.408V179.224H313.35C312.049 179.224 311.398 179.661 311.398 180.536C311.398 180.963 311.563 181.299 311.894 181.544C312.225 181.789 312.683 181.912 313.27 181.912ZM314.71 171.208H316.662L313.974 173.288H312.534L314.71 171.208ZM322.929 183.096C322.235 183.096 321.569 183.005 320.929 182.824C320.289 182.632 319.787 182.392 319.425 182.104L320.065 180.888C320.438 181.155 320.891 181.368 321.425 181.528C321.958 181.688 322.497 181.768 323.041 181.768C324.385 181.768 325.057 181.384 325.057 180.616C325.057 180.36 324.966 180.157 324.785 180.008C324.603 179.859 324.374 179.752 324.097 179.688C323.83 179.613 323.446 179.533 322.945 179.448C322.262 179.341 321.702 179.219 321.265 179.08C320.838 178.941 320.47 178.707 320.161 178.376C319.851 178.045 319.697 177.581 319.697 176.984C319.697 176.216 320.017 175.603 320.657 175.144C321.297 174.675 322.155 174.44 323.233 174.44C323.798 174.44 324.363 174.509 324.929 174.648C325.494 174.787 325.958 174.973 326.321 175.208L325.665 176.424C324.971 175.976 324.155 175.752 323.217 175.752C322.566 175.752 322.07 175.859 321.729 176.072C321.387 176.285 321.217 176.568 321.217 176.92C321.217 177.197 321.313 177.416 321.505 177.576C321.697 177.736 321.931 177.853 322.209 177.928C322.497 178.003 322.897 178.088 323.409 178.184C324.091 178.301 324.641 178.429 325.057 178.568C325.483 178.696 325.846 178.92 326.145 179.24C326.443 179.56 326.593 180.008 326.593 180.584C326.593 181.352 326.262 181.965 325.601 182.424C324.95 182.872 324.059 183.096 322.929 183.096Z" fill="#7C6436"/>
<path d="M259 184.6H327.057V185.4H259V184.6Z" fill="#7C6436"/>
<path d="M206.5 152.5H380.5V192C380.5 197.247 376.247 201.5 371 201.5H206.5V152.5Z" stroke="#7C6436"/>
<path d="M447.688 182.929C446.568 182.929 445.555 182.683 444.648 182.193C443.752 181.691 443.048 181.009 442.536 180.145C442.024 179.27 441.768 178.289 441.768 177.201C441.768 176.113 442.024 175.137 442.536 174.273C443.048 173.398 443.757 172.715 444.664 172.225C445.571 171.723 446.584 171.473 447.704 171.473C448.579 171.473 449.379 171.622 450.104 171.921C450.829 172.209 451.448 172.641 451.96 173.217L450.92 174.225C450.077 173.339 449.027 172.897 447.768 172.897C446.936 172.897 446.184 173.083 445.512 173.457C444.84 173.83 444.312 174.347 443.928 175.009C443.555 175.659 443.368 176.39 443.368 177.201C443.368 178.011 443.555 178.747 443.928 179.409C444.312 180.059 444.84 180.571 445.512 180.945C446.184 181.318 446.936 181.505 447.768 181.505C449.016 181.505 450.067 181.057 450.92 180.161L451.96 181.169C451.448 181.745 450.824 182.182 450.088 182.481C449.363 182.779 448.563 182.929 447.688 182.929ZM457.691 182.897C456.848 182.897 456.091 182.71 455.419 182.337C454.747 181.963 454.219 181.451 453.835 180.801C453.462 180.139 453.275 179.393 453.275 178.561C453.275 177.729 453.462 176.987 453.835 176.337C454.219 175.675 454.747 175.163 455.419 174.801C456.091 174.427 456.848 174.241 457.691 174.241C458.534 174.241 459.286 174.427 459.947 174.801C460.619 175.163 461.142 175.675 461.515 176.337C461.899 176.987 462.091 177.729 462.091 178.561C462.091 179.393 461.899 180.139 461.515 180.801C461.142 181.451 460.619 181.963 459.947 182.337C459.286 182.71 458.534 182.897 457.691 182.897ZM457.691 181.553C458.235 181.553 458.72 181.43 459.147 181.185C459.584 180.929 459.926 180.577 460.171 180.129C460.416 179.67 460.539 179.147 460.539 178.561C460.539 177.974 460.416 177.457 460.171 177.009C459.926 176.55 459.584 176.198 459.147 175.953C458.72 175.707 458.235 175.585 457.691 175.585C457.147 175.585 456.656 175.707 456.219 175.953C455.792 176.198 455.451 176.55 455.195 177.009C454.95 177.457 454.827 177.974 454.827 178.561C454.827 179.147 454.95 179.67 455.195 180.129C455.451 180.577 455.792 180.929 456.219 181.185C456.656 181.43 457.147 181.553 457.691 181.553ZM469.143 174.241C470.221 174.241 471.074 174.555 471.703 175.185C472.343 175.803 472.663 176.715 472.663 177.921V182.801H471.127V178.097C471.127 177.275 470.93 176.657 470.535 176.241C470.141 175.825 469.575 175.617 468.839 175.617C468.007 175.617 467.351 175.862 466.871 176.353C466.391 176.833 466.151 177.526 466.151 178.433V182.801H464.615V174.321H466.087V175.601C466.397 175.163 466.813 174.827 467.335 174.593C467.869 174.358 468.471 174.241 469.143 174.241ZM480.674 182.305C480.45 182.497 480.173 182.646 479.842 182.753C479.511 182.849 479.17 182.897 478.818 182.897C477.965 182.897 477.303 182.667 476.834 182.209C476.365 181.75 476.13 181.094 476.13 180.241V175.585H474.69V174.321H476.13V172.465H477.666V174.321H480.098V175.585H477.666V180.177C477.666 180.635 477.778 180.987 478.002 181.233C478.237 181.478 478.567 181.601 478.994 181.601C479.463 181.601 479.863 181.467 480.194 181.201L480.674 182.305ZM486.019 174.241C487.192 174.241 488.088 174.529 488.707 175.105C489.336 175.681 489.651 176.539 489.651 177.681V182.801H488.195V181.681C487.939 182.075 487.571 182.379 487.091 182.593C486.622 182.795 486.062 182.897 485.411 182.897C484.462 182.897 483.699 182.667 483.123 182.209C482.558 181.75 482.275 181.147 482.275 180.401C482.275 179.654 482.547 179.057 483.091 178.609C483.635 178.15 484.499 177.921 485.683 177.921H488.115V177.617C488.115 176.955 487.923 176.449 487.539 176.097C487.155 175.745 486.59 175.569 485.843 175.569C485.342 175.569 484.851 175.654 484.371 175.825C483.891 175.985 483.486 176.203 483.155 176.481L482.515 175.329C482.952 174.977 483.475 174.71 484.083 174.529C484.691 174.337 485.336 174.241 486.019 174.241ZM485.667 181.713C486.254 181.713 486.76 181.585 487.187 181.329C487.614 181.062 487.923 180.689 488.115 180.209V179.025H485.747C484.446 179.025 483.795 179.462 483.795 180.337C483.795 180.763 483.96 181.099 484.291 181.345C484.622 181.59 485.08 181.713 485.667 181.713ZM487.107 171.009H489.059L486.371 173.089H484.931L487.107 171.009ZM496.636 182.897C495.772 182.897 494.999 182.71 494.316 182.337C493.644 181.963 493.116 181.451 492.732 180.801C492.348 180.139 492.156 179.393 492.156 178.561C492.156 177.729 492.348 176.987 492.732 176.337C493.116 175.675 493.644 175.163 494.316 174.801C494.999 174.427 495.772 174.241 496.636 174.241C497.404 174.241 498.087 174.395 498.684 174.705C499.292 175.014 499.762 175.462 500.092 176.049L498.924 176.801C498.658 176.395 498.327 176.091 497.932 175.889C497.538 175.686 497.1 175.585 496.62 175.585C496.066 175.585 495.564 175.707 495.116 175.953C494.679 176.198 494.332 176.55 494.076 177.009C493.831 177.457 493.708 177.974 493.708 178.561C493.708 179.158 493.831 179.686 494.076 180.145C494.332 180.593 494.679 180.939 495.116 181.185C495.564 181.43 496.066 181.553 496.62 181.553C497.1 181.553 497.538 181.451 497.932 181.249C498.327 181.046 498.658 180.742 498.924 180.337L500.092 181.073C499.762 181.659 499.292 182.113 498.684 182.433C498.087 182.742 497.404 182.897 496.636 182.897ZM507.358 182.305C507.134 182.497 506.857 182.646 506.526 182.753C506.196 182.849 505.854 182.897 505.502 182.897C504.649 182.897 503.988 182.667 503.518 182.209C503.049 181.75 502.814 181.094 502.814 180.241V175.585H501.374V174.321H502.814V172.465H504.35V174.321H506.782V175.585H504.35V180.177C504.35 180.635 504.462 180.987 504.686 181.233C504.921 181.478 505.252 181.601 505.678 181.601C506.148 181.601 506.548 181.467 506.878 181.201L507.358 182.305ZM512.703 174.241C513.877 174.241 514.773 174.529 515.391 175.105C516.021 175.681 516.335 176.539 516.335 177.681V182.801H514.879V181.681C514.623 182.075 514.255 182.379 513.775 182.593C513.306 182.795 512.746 182.897 512.095 182.897C511.146 182.897 510.383 182.667 509.807 182.209C509.242 181.75 508.959 181.147 508.959 180.401C508.959 179.654 509.231 179.057 509.775 178.609C510.319 178.15 511.183 177.921 512.367 177.921H514.799V177.617C514.799 176.955 514.607 176.449 514.223 176.097C513.839 175.745 513.274 175.569 512.527 175.569C512.026 175.569 511.535 175.654 511.055 175.825C510.575 175.985 510.17 176.203 509.839 176.481L509.199 175.329C509.637 174.977 510.159 174.71 510.767 174.529C511.375 174.337 512.021 174.241 512.703 174.241ZM512.351 181.713C512.938 181.713 513.445 181.585 513.871 181.329C514.298 181.062 514.607 180.689 514.799 180.209V179.025H512.431C511.13 179.025 510.479 179.462 510.479 180.337C510.479 180.763 510.645 181.099 510.975 181.345C511.306 181.59 511.765 181.713 512.351 181.713ZM524.106 174.241C525.183 174.241 526.037 174.555 526.666 175.185C527.306 175.803 527.626 176.715 527.626 177.921V182.801H526.09V178.097C526.09 177.275 525.893 176.657 525.498 176.241C525.103 175.825 524.538 175.617 523.802 175.617C522.97 175.617 522.314 175.862 521.834 176.353C521.354 176.833 521.114 177.526 521.114 178.433V182.801H519.578V174.321H521.05V175.601C521.359 175.163 521.775 174.827 522.298 174.593C522.831 174.358 523.434 174.241 524.106 174.241ZM534.547 182.897C533.705 182.897 532.947 182.71 532.275 182.337C531.603 181.963 531.075 181.451 530.691 180.801C530.318 180.139 530.131 179.393 530.131 178.561C530.131 177.729 530.318 176.987 530.691 176.337C531.075 175.675 531.603 175.163 532.275 174.801C532.947 174.427 533.705 174.241 534.547 174.241C535.39 174.241 536.142 174.427 536.803 174.801C537.475 175.163 537.998 175.675 538.371 176.337C538.755 176.987 538.947 177.729 538.947 178.561C538.947 179.393 538.755 180.139 538.371 180.801C537.998 181.451 537.475 181.963 536.803 182.337C536.142 182.71 535.39 182.897 534.547 182.897ZM534.547 181.553C535.091 181.553 535.577 181.43 536.003 181.185C536.441 180.929 536.782 180.577 537.027 180.129C537.273 179.67 537.395 179.147 537.395 178.561C537.395 177.974 537.273 177.457 537.027 177.009C536.782 176.55 536.441 176.198 536.003 175.953C535.577 175.707 535.091 175.585 534.547 175.585C534.003 175.585 533.513 175.707 533.075 175.953C532.649 176.198 532.307 176.55 532.051 177.009C531.806 177.457 531.683 177.974 531.683 178.561C531.683 179.147 531.806 179.67 532.051 180.129C532.307 180.577 532.649 180.929 533.075 181.185C533.513 181.43 534.003 181.553 534.547 181.553ZM543.904 182.897C543.21 182.897 542.544 182.806 541.904 182.625C541.264 182.433 540.762 182.193 540.4 181.905L541.04 180.689C541.413 180.955 541.866 181.169 542.4 181.329C542.933 181.489 543.472 181.569 544.016 181.569C545.36 181.569 546.032 181.185 546.032 180.417C546.032 180.161 545.941 179.958 545.76 179.809C545.578 179.659 545.349 179.553 545.072 179.489C544.805 179.414 544.421 179.334 543.92 179.249C543.237 179.142 542.677 179.019 542.24 178.881C541.813 178.742 541.445 178.507 541.136 178.177C540.826 177.846 540.672 177.382 540.672 176.785C540.672 176.017 540.992 175.403 541.632 174.945C542.272 174.475 543.13 174.241 544.208 174.241C544.773 174.241 545.338 174.31 545.904 174.449C546.469 174.587 546.933 174.774 547.296 175.009L546.64 176.225C545.946 175.777 545.13 175.553 544.192 175.553C543.541 175.553 543.045 175.659 542.704 175.873C542.362 176.086 542.192 176.369 542.192 176.721C542.192 176.998 542.288 177.217 542.48 177.377C542.672 177.537 542.906 177.654 543.184 177.729C543.472 177.803 543.872 177.889 544.384 177.985C545.066 178.102 545.616 178.23 546.032 178.369C546.458 178.497 546.821 178.721 547.12 179.041C547.418 179.361 547.568 179.809 547.568 180.385C547.568 181.153 547.237 181.766 546.576 182.225C545.925 182.673 545.034 182.897 543.904 182.897Z" fill="#7C6436"/>
<path d="M594 159.301H559V194.301H577.446L577.384 181.788H573.189V176.909H577.384V173.314C577.384 169.142 579.922 166.868 583.63 166.868C585.408 166.868 586.932 167.001 587.378 167.062V171.42H587.374H584.804C582.789 171.42 582.399 172.381 582.399 173.795V176.909H587.209L586.582 181.784H582.399V194.301H584C589.523 194.301 594 189.824 594 184.301V159.301Z" fill="#7C6436"/>
<path fill-rule="evenodd" clip-rule="evenodd" d="M604 159H639.6V184.6C639.6 190.123 635.123 194.6 629.6 194.6H604V159ZM632.521 167.808C632.404 168.073 632.235 168.312 632.025 168.51C631.615 168.896 631.072 169.108 630.509 169.1C629.946 169.091 629.408 168.864 629.01 168.466C628.612 168.068 628.385 167.531 628.377 166.968C628.369 166.405 628.58 165.861 628.966 165.452C629.165 165.241 629.404 165.073 629.669 164.956C629.934 164.84 630.219 164.777 630.509 164.773C630.798 164.769 631.085 164.823 631.354 164.932C631.622 165.04 631.865 165.202 632.07 165.407C632.275 165.611 632.436 165.855 632.545 166.123C632.654 166.391 632.708 166.678 632.704 166.968C632.699 167.257 632.637 167.543 632.521 167.808ZM614.377 169.828C615.227 168.978 616.235 168.304 617.345 167.844C618.455 167.385 619.645 167.148 620.846 167.148C622.048 167.148 623.238 167.385 624.348 167.844C625.458 168.304 626.466 168.978 627.316 169.828C628.166 170.677 628.839 171.686 629.299 172.796C629.759 173.906 629.996 175.096 629.996 176.297C629.996 177.499 629.759 178.688 629.299 179.798C628.839 180.908 628.166 181.917 627.316 182.767C625.6 184.482 623.273 185.446 620.846 185.446C618.42 185.446 616.093 184.482 614.377 182.767C612.661 181.051 611.697 178.724 611.697 176.297C611.697 173.871 612.661 171.544 614.377 169.828Z" fill="#7C6436"/>
<path d="M622.573 181.986C621.257 182.384 619.843 182.312 618.573 181.784C617.762 181.448 617.036 180.936 616.446 180.285C615.857 179.634 615.419 178.861 615.164 178.021C614.91 177.181 614.844 176.294 614.973 175.426C615.102 174.558 615.422 173.729 615.91 172.999C616.398 172.269 617.041 171.656 617.794 171.204C618.547 170.753 619.391 170.474 620.265 170.388C621.138 170.302 622.02 170.41 622.847 170.706C623.674 171.002 624.425 171.477 625.046 172.097C626.02 173.068 626.627 174.347 626.763 175.716C626.899 177.084 626.555 178.458 625.791 179.601C625.027 180.745 623.889 181.588 622.573 181.986Z" fill="#7C6436"/>
<path d="M411.5 149.5H669.1V194.6C669.1 199.847 664.847 204.1 659.6 204.1H411.5V149.5Z" stroke="#7C6436"/>
<path d="M10.728 11.152C13.6293 11.152 15.8267 11.5787 17.32 12.432C18.8347 13.2853 19.592 14.7573 19.592 16.848C19.592 18.192 19.2293 19.312 18.504 20.208C17.8 21.0827 16.7867 21.6373 15.464 21.872V22.032C16.36 22.1813 17.1707 22.4587 17.896 22.864C18.6427 23.2693 19.2293 23.8453 19.656 24.592C20.0827 25.3173 20.296 26.2773 20.296 27.472C20.296 29.5413 19.5707 31.152 18.12 32.304C16.6693 33.4347 14.7067 34 12.232 34H4.04V11.152H10.728ZM11.304 20.688C13.096 20.688 14.3227 20.4 14.984 19.824C15.6667 19.248 16.008 18.3947 16.008 17.264C16.008 16.1333 15.6027 15.3227 14.792 14.832C13.9813 14.32 12.6907 14.064 10.92 14.064H7.496V20.688H11.304ZM7.496 23.504V31.12H11.688C13.5227 31.12 14.8027 30.7573 15.528 30.032C16.2747 29.3067 16.648 28.3467 16.648 27.152C16.648 26.064 16.264 25.1893 15.496 24.528C14.7493 23.8453 13.4053 23.504 11.464 23.504H7.496ZM39.504 16.752V34H36.784L36.304 31.728H36.144C35.5893 32.624 34.8213 33.2853 33.84 33.712C32.8587 34.1173 31.824 34.32 30.736 34.32C28.7093 34.32 27.1627 33.8187 26.096 32.816C25.0293 31.8133 24.496 30.224 24.496 28.048V16.752H27.92V27.536C27.92 30.2027 29.0827 31.536 31.408 31.536C33.1787 31.536 34.4053 31.0133 35.088 29.968C35.7707 28.9227 36.112 27.4293 36.112 25.488V16.752H39.504ZM51.0203 31.568C51.4683 31.568 51.9269 31.536 52.3963 31.472C52.8656 31.3867 53.2709 31.28 53.6123 31.152V33.712C53.2283 33.8827 52.7269 34.0213 52.1083 34.128C51.5109 34.256 50.9029 34.32 50.2843 34.32C49.3456 34.32 48.4816 34.16 47.6923 33.84C46.9029 33.52 46.2736 32.9653 45.8043 32.176C45.3563 31.3867 45.1323 30.288 45.1323 28.88V19.344H42.7323V17.808L45.2603 16.528L46.4443 12.88H48.5243V16.752H53.4523V19.344H48.5243V28.816C48.5243 29.7547 48.7483 30.448 49.1963 30.896C49.6656 31.344 50.2736 31.568 51.0203 31.568ZM63.2703 31.568C63.7183 31.568 64.1769 31.536 64.6463 31.472C65.1156 31.3867 65.5209 31.28 65.8623 31.152V33.712C65.4783 33.8827 64.9769 34.0213 64.3583 34.128C63.7609 34.256 63.1529 34.32 62.5343 34.32C61.5956 34.32 60.7316 34.16 59.9423 33.84C59.1529 33.52 58.5236 32.9653 58.0543 32.176C57.6063 31.3867 57.3823 30.288 57.3823 28.88V19.344H54.9823V17.808L57.5103 16.528L58.6943 12.88H60.7743V16.752H65.7023V19.344H60.7743V28.816C60.7743 29.7547 60.9983 30.448 61.4463 30.896C61.9156 31.344 62.5236 31.568 63.2703 31.568ZM84.5123 25.36C84.5123 28.2187 83.7763 30.4267 82.3043 31.984C80.8323 33.5413 78.8483 34.32 76.3523 34.32C74.7949 34.32 73.4083 33.968 72.1923 33.264C70.9976 32.56 70.0483 31.5467 69.3443 30.224C68.6616 28.88 68.3203 27.2587 68.3203 25.36C68.3203 22.5013 69.0456 20.304 70.4963 18.768C71.9469 17.2107 73.9309 16.432 76.4483 16.432C78.0269 16.432 79.4136 16.784 80.6083 17.488C81.8243 18.1707 82.7736 19.1733 83.4563 20.496C84.1603 21.8187 84.5123 23.44 84.5123 25.36ZM71.8083 25.36C71.8083 27.3013 72.1709 28.816 72.8963 29.904C73.6429 30.992 74.8163 31.536 76.4163 31.536C78.0163 31.536 79.1789 30.992 79.9043 29.904C80.6509 28.816 81.0243 27.3013 81.0243 25.36C81.0243 23.3973 80.6509 21.8933 79.9043 20.848C79.1576 19.7813 77.9843 19.248 76.3843 19.248C74.7843 19.248 73.6216 19.7813 72.8963 20.848C72.1709 21.8933 71.8083 23.3973 71.8083 25.36ZM97.5483 16.432C99.5536 16.432 101.09 16.9333 102.156 17.936C103.223 18.9387 103.756 20.5493 103.756 22.768V34H100.396V23.248C100.396 20.56 99.2123 19.216 96.8443 19.216C95.0736 19.216 93.8576 19.7387 93.1963 20.784C92.5349 21.8293 92.2043 23.3333 92.2043 25.296V34H88.8123V16.752H91.5003L91.9803 19.056H92.1723C92.7269 18.16 93.4843 17.4987 94.4443 17.072C95.4256 16.6453 96.4603 16.432 97.5483 16.432ZM120.425 29.136C120.425 30.8213 119.806 32.112 118.569 33.008C117.331 33.8827 115.614 34.32 113.417 34.32C112.201 34.32 111.155 34.224 110.281 34.032C109.427 33.8613 108.638 33.6053 107.913 33.264V30.288C108.659 30.6507 109.534 30.9813 110.536 31.28C111.561 31.5573 112.553 31.696 113.513 31.696C114.793 31.696 115.71 31.4933 116.265 31.088C116.841 30.6827 117.129 30.1387 117.129 29.456C117.129 29.072 117.022 28.7307 116.809 28.432C116.595 28.112 116.19 27.792 115.593 27.472C115.017 27.1307 114.163 26.7467 113.033 26.32C111.923 25.872 110.985 25.4347 110.217 25.008C109.47 24.56 108.894 24.0373 108.489 23.44C108.083 22.8213 107.881 22.032 107.881 21.072C107.881 19.5787 108.478 18.4373 109.673 17.648C110.889 16.8373 112.489 16.432 114.473 16.432C115.518 16.432 116.499 16.5387 117.417 16.752C118.355 16.9653 119.262 17.264 120.137 17.648L119.017 20.24C118.27 19.92 117.502 19.6533 116.713 19.44C115.923 19.2053 115.123 19.088 114.312 19.088C113.289 19.088 112.51 19.248 111.977 19.568C111.443 19.888 111.177 20.336 111.177 20.912C111.177 21.3173 111.305 21.6693 111.561 21.968C111.817 22.2667 112.243 22.5653 112.841 22.864C113.459 23.1627 114.302 23.5253 115.369 23.952C116.435 24.3573 117.342 24.7733 118.089 25.2C118.857 25.6267 119.433 26.1493 119.817 26.768C120.222 27.3867 120.425 28.176 120.425 29.136Z" fill="#141414"/>
<path d="M1 328H148V368C148 373.523 143.523 378 138 378H1V328Z" fill="#798F77"/>
<path d="M37.048 347.8C38.4987 347.8 39.64 348.147 40.472 348.84C41.304 349.533 41.72 350.488 41.72 351.704C41.72 352.92 41.304 353.875 40.472 354.568C39.64 355.261 38.4987 355.608 37.048 355.608H34.28V359H32.68V347.8H37.048ZM37 354.216C38.0133 354.216 38.7867 354.003 39.32 353.576C39.8533 353.139 40.12 352.515 40.12 351.704C40.12 350.893 39.8533 350.275 39.32 349.848C38.7867 349.411 38.0133 349.192 37 349.192H34.28V354.216H37ZM45.578 351.944C45.8447 351.453 46.2393 351.08 46.762 350.824C47.2847 350.568 47.9193 350.44 48.666 350.44V351.928C48.5807 351.917 48.4633 351.912 48.314 351.912C47.482 351.912 46.826 352.163 46.346 352.664C45.8767 353.155 45.642 353.859 45.642 354.776V359H44.106V350.52H45.578V351.944ZM54.513 359.096C53.6703 359.096 52.913 358.909 52.241 358.536C51.569 358.163 51.041 357.651 50.657 357C50.2837 356.339 50.097 355.592 50.097 354.76C50.097 353.928 50.2837 353.187 50.657 352.536C51.041 351.875 51.569 351.363 52.241 351C52.913 350.627 53.6703 350.44 54.513 350.44C55.3557 350.44 56.1077 350.627 56.769 351C57.441 351.363 57.9637 351.875 58.337 352.536C58.721 353.187 58.913 353.928 58.913 354.76C58.913 355.592 58.721 356.339 58.337 357C57.9637 357.651 57.441 358.163 56.769 358.536C56.1077 358.909 55.3557 359.096 54.513 359.096ZM54.513 357.752C55.057 357.752 55.5423 357.629 55.969 357.384C56.4063 357.128 56.7477 356.776 56.993 356.328C57.2383 355.869 57.361 355.347 57.361 354.76C57.361 354.173 57.2383 353.656 56.993 353.208C56.7477 352.749 56.4063 352.397 55.969 352.152C55.5423 351.907 55.057 351.784 54.513 351.784C53.969 351.784 53.4783 351.907 53.041 352.152C52.6143 352.397 52.273 352.749 52.017 353.208C51.7717 353.656 51.649 354.173 51.649 354.76C51.649 355.347 51.7717 355.869 52.017 356.328C52.273 356.776 52.6143 357.128 53.041 357.384C53.4783 357.629 53.969 357.752 54.513 357.752ZM69.4373 347.128V359H67.9653V357.656C67.6239 358.125 67.1919 358.483 66.6693 358.728C66.1466 358.973 65.5706 359.096 64.9413 359.096C64.1199 359.096 63.3839 358.915 62.7333 358.552C62.0826 358.189 61.5706 357.683 61.1973 357.032C60.8346 356.371 60.6533 355.613 60.6533 354.76C60.6533 353.907 60.8346 353.155 61.1973 352.504C61.5706 351.853 62.0826 351.347 62.7333 350.984C63.3839 350.621 64.1199 350.44 64.9413 350.44C65.5493 350.44 66.1093 350.557 66.6213 350.792C67.1333 351.016 67.5599 351.352 67.9013 351.8V347.128H69.4373ZM65.0693 357.752C65.6026 357.752 66.0879 357.629 66.5253 357.384C66.9626 357.128 67.3039 356.776 67.5493 356.328C67.7946 355.869 67.9173 355.347 67.9173 354.76C67.9173 354.173 67.7946 353.656 67.5493 353.208C67.3039 352.749 66.9626 352.397 66.5253 352.152C66.0879 351.907 65.6026 351.784 65.0693 351.784C64.5253 351.784 64.0346 351.907 63.5973 352.152C63.1706 352.397 62.8293 352.749 62.5733 353.208C62.3279 353.656 62.2053 354.173 62.2053 354.76C62.2053 355.347 62.3279 355.869 62.5733 356.328C62.8293 356.776 63.1706 357.128 63.5973 357.384C64.0346 357.629 64.5253 357.752 65.0693 357.752ZM80.6475 350.52V359H79.1915V357.72C78.8822 358.157 78.4715 358.499 77.9595 358.744C77.4582 358.979 76.9088 359.096 76.3115 359.096C75.1808 359.096 74.2902 358.787 73.6395 358.168C72.9888 357.539 72.6635 356.616 72.6635 355.4V350.52H74.1995V355.224C74.1995 356.045 74.3968 356.669 74.7915 357.096C75.1862 357.512 75.7515 357.72 76.4875 357.72C77.2982 357.72 77.9382 357.475 78.4075 356.984C78.8768 356.493 79.1115 355.8 79.1115 354.904V350.52H80.6475ZM87.6676 359.096C86.8036 359.096 86.0303 358.909 85.3476 358.536C84.6756 358.163 84.1476 357.651 83.7636 357C83.3796 356.339 83.1876 355.592 83.1876 354.76C83.1876 353.928 83.3796 353.187 83.7636 352.536C84.1476 351.875 84.6756 351.363 85.3476 351C86.0303 350.627 86.8036 350.44 87.6676 350.44C88.4356 350.44 89.1183 350.595 89.7156 350.904C90.3236 351.213 90.793 351.661 91.1236 352.248L89.9556 353C89.689 352.595 89.3583 352.291 88.9636 352.088C88.569 351.885 88.1316 351.784 87.6516 351.784C87.097 351.784 86.5956 351.907 86.1476 352.152C85.7103 352.397 85.3636 352.749 85.1076 353.208C84.8623 353.656 84.7396 354.173 84.7396 354.76C84.7396 355.357 84.8623 355.885 85.1076 356.344C85.3636 356.792 85.7103 357.139 86.1476 357.384C86.5956 357.629 87.097 357.752 87.6516 357.752C88.1316 357.752 88.569 357.651 88.9636 357.448C89.3583 357.245 89.689 356.941 89.9556 356.536L91.1236 357.272C90.793 357.859 90.3236 358.312 89.7156 358.632C89.1183 358.941 88.4356 359.096 87.6676 359.096ZM98.3896 358.504C98.1656 358.696 97.8883 358.845 97.5576 358.952C97.227 359.048 96.8856 359.096 96.5336 359.096C95.6803 359.096 95.019 358.867 94.5496 358.408C94.0803 357.949 93.8456 357.293 93.8456 356.44V351.784H92.4056V350.52H93.8456V348.664H95.3816V350.52H97.8136V351.784H95.3816V356.376C95.3816 356.835 95.4936 357.187 95.7176 357.432C95.9523 357.677 96.283 357.8 96.7096 357.8C97.179 357.8 97.579 357.667 97.9096 357.4L98.3896 358.504ZM103.997 359.096C103.155 359.096 102.397 358.909 101.725 358.536C101.053 358.163 100.525 357.651 100.141 357C99.768 356.339 99.5814 355.592 99.5814 354.76C99.5814 353.928 99.768 353.187 100.141 352.536C100.525 351.875 101.053 351.363 101.725 351C102.397 350.627 103.155 350.44 103.997 350.44C104.84 350.44 105.592 350.627 106.253 351C106.925 351.363 107.448 351.875 107.821 352.536C108.205 353.187 108.397 353.928 108.397 354.76C108.397 355.592 108.205 356.339 107.821 357C107.448 357.651 106.925 358.163 106.253 358.536C105.592 358.909 104.84 359.096 103.997 359.096ZM103.997 357.752C104.541 357.752 105.027 357.629 105.453 357.384C105.891 357.128 106.232 356.776 106.477 356.328C106.723 355.869 106.845 355.347 106.845 354.76C106.845 354.173 106.723 353.656 106.477 353.208C106.232 352.749 105.891 352.397 105.453 352.152C105.027 351.907 104.541 351.784 103.997 351.784C103.453 351.784 102.963 351.907 102.525 352.152C102.099 352.397 101.757 352.749 101.501 353.208C101.256 353.656 101.133 354.173 101.133 354.76C101.133 355.347 101.256 355.869 101.501 356.328C101.757 356.776 102.099 357.128 102.525 357.384C102.963 357.629 103.453 357.752 103.997 357.752ZM113.354 359.096C112.66 359.096 111.994 359.005 111.354 358.824C110.714 358.632 110.212 358.392 109.85 358.104L110.49 356.888C110.863 357.155 111.316 357.368 111.85 357.528C112.383 357.688 112.922 357.768 113.466 357.768C114.81 357.768 115.482 357.384 115.482 356.616C115.482 356.36 115.391 356.157 115.21 356.008C115.028 355.859 114.799 355.752 114.522 355.688C114.255 355.613 113.871 355.533 113.37 355.448C112.687 355.341 112.127 355.219 111.69 355.08C111.263 354.941 110.895 354.707 110.586 354.376C110.276 354.045 110.122 353.581 110.122 352.984C110.122 352.216 110.442 351.603 111.082 351.144C111.722 350.675 112.58 350.44 113.658 350.44C114.223 350.44 114.788 350.509 115.354 350.648C115.919 350.787 116.383 350.973 116.746 351.208L116.09 352.424C115.396 351.976 114.58 351.752 113.642 351.752C112.991 351.752 112.495 351.859 112.154 352.072C111.812 352.285 111.642 352.568 111.642 352.92C111.642 353.197 111.738 353.416 111.93 353.576C112.122 353.736 112.356 353.853 112.634 353.928C112.922 354.003 113.322 354.088 113.834 354.184C114.516 354.301 115.066 354.429 115.482 354.568C115.908 354.696 116.271 354.92 116.57 355.24C116.868 355.56 117.018 356.008 117.018 356.584C117.018 357.352 116.687 357.965 116.026 358.424C115.375 358.872 114.484 359.096 113.354 359.096Z" fill="#FCFAE8"/>
<path d="M206 328H353V368C353 373.523 348.523 378 343 378H206V328Z" fill="#798F77"/>
<path d="M242.048 347.8C243.499 347.8 244.64 348.147 245.472 348.84C246.304 349.533 246.72 350.488 246.72 351.704C246.72 352.92 246.304 353.875 245.472 354.568C244.64 355.261 243.499 355.608 242.048 355.608H239.28V359H237.68V347.8H242.048ZM242 354.216C243.013 354.216 243.787 354.003 244.32 353.576C244.853 353.139 245.12 352.515 245.12 351.704C245.12 350.893 244.853 350.275 244.32 349.848C243.787 349.411 243.013 349.192 242 349.192H239.28V354.216H242ZM250.578 351.944C250.845 351.453 251.239 351.08 251.762 350.824C252.285 350.568 252.919 350.44 253.666 350.44V351.928C253.581 351.917 253.463 351.912 253.314 351.912C252.482 351.912 251.826 352.163 251.346 352.664C250.877 353.155 250.642 353.859 250.642 354.776V359H249.106V350.52H250.578V351.944ZM259.513 359.096C258.67 359.096 257.913 358.909 257.241 358.536C256.569 358.163 256.041 357.651 255.657 357C255.284 356.339 255.097 355.592 255.097 354.76C255.097 353.928 255.284 353.187 255.657 352.536C256.041 351.875 256.569 351.363 257.241 351C257.913 350.627 258.67 350.44 259.513 350.44C260.356 350.44 261.108 350.627 261.769 351C262.441 351.363 262.964 351.875 263.337 352.536C263.721 353.187 263.913 353.928 263.913 354.76C263.913 355.592 263.721 356.339 263.337 357C262.964 357.651 262.441 358.163 261.769 358.536C261.108 358.909 260.356 359.096 259.513 359.096ZM259.513 357.752C260.057 357.752 260.542 357.629 260.969 357.384C261.406 357.128 261.748 356.776 261.993 356.328C262.238 355.869 262.361 355.347 262.361 354.76C262.361 354.173 262.238 353.656 261.993 353.208C261.748 352.749 261.406 352.397 260.969 352.152C260.542 351.907 260.057 351.784 259.513 351.784C258.969 351.784 258.478 351.907 258.041 352.152C257.614 352.397 257.273 352.749 257.017 353.208C256.772 353.656 256.649 354.173 256.649 354.76C256.649 355.347 256.772 355.869 257.017 356.328C257.273 356.776 257.614 357.128 258.041 357.384C258.478 357.629 258.969 357.752 259.513 357.752ZM274.437 347.128V359H272.965V357.656C272.624 358.125 272.192 358.483 271.669 358.728C271.147 358.973 270.571 359.096 269.941 359.096C269.12 359.096 268.384 358.915 267.733 358.552C267.083 358.189 266.571 357.683 266.197 357.032C265.835 356.371 265.653 355.613 265.653 354.76C265.653 353.907 265.835 353.155 266.197 352.504C266.571 351.853 267.083 351.347 267.733 350.984C268.384 350.621 269.12 350.44 269.941 350.44C270.549 350.44 271.109 350.557 271.621 350.792C272.133 351.016 272.56 351.352 272.901 351.8V347.128H274.437ZM270.069 357.752C270.603 357.752 271.088 357.629 271.525 357.384C271.963 357.128 272.304 356.776 272.549 356.328C272.795 355.869 272.917 355.347 272.917 354.76C272.917 354.173 272.795 353.656 272.549 353.208C272.304 352.749 271.963 352.397 271.525 352.152C271.088 351.907 270.603 351.784 270.069 351.784C269.525 351.784 269.035 351.907 268.597 352.152C268.171 352.397 267.829 352.749 267.573 353.208C267.328 353.656 267.205 354.173 267.205 354.76C267.205 355.347 267.328 355.869 267.573 356.328C267.829 356.776 268.171 357.128 268.597 357.384C269.035 357.629 269.525 357.752 270.069 357.752ZM285.647 350.52V359H284.191V357.72C283.882 358.157 283.471 358.499 282.959 358.744C282.458 358.979 281.909 359.096 281.311 359.096C280.181 359.096 279.29 358.787 278.639 358.168C277.989 357.539 277.663 356.616 277.663 355.4V350.52H279.199V355.224C279.199 356.045 279.397 356.669 279.791 357.096C280.186 357.512 280.751 357.72 281.487 357.72C282.298 357.72 282.938 357.475 283.407 356.984C283.877 356.493 284.111 355.8 284.111 354.904V350.52H285.647ZM292.668 359.096C291.804 359.096 291.03 358.909 290.348 358.536C289.676 358.163 289.148 357.651 288.764 357C288.38 356.339 288.188 355.592 288.188 354.76C288.188 353.928 288.38 353.187 288.764 352.536C289.148 351.875 289.676 351.363 290.348 351C291.03 350.627 291.804 350.44 292.668 350.44C293.436 350.44 294.118 350.595 294.716 350.904C295.324 351.213 295.793 351.661 296.124 352.248L294.956 353C294.689 352.595 294.358 352.291 293.964 352.088C293.569 351.885 293.132 351.784 292.652 351.784C292.097 351.784 291.596 351.907 291.148 352.152C290.71 352.397 290.364 352.749 290.108 353.208C289.862 353.656 289.74 354.173 289.74 354.76C289.74 355.357 289.862 355.885 290.108 356.344C290.364 356.792 290.71 357.139 291.148 357.384C291.596 357.629 292.097 357.752 292.652 357.752C293.132 357.752 293.569 357.651 293.964 357.448C294.358 357.245 294.689 356.941 294.956 356.536L296.124 357.272C295.793 357.859 295.324 358.312 294.716 358.632C294.118 358.941 293.436 359.096 292.668 359.096ZM303.39 358.504C303.166 358.696 302.888 358.845 302.558 358.952C302.227 359.048 301.886 359.096 301.534 359.096C300.68 359.096 300.019 358.867 299.55 358.408C299.08 357.949 298.846 357.293 298.846 356.44V351.784H297.406V350.52H298.846V348.664H300.382V350.52H302.814V351.784H300.382V356.376C300.382 356.835 300.494 357.187 300.718 357.432C300.952 357.677 301.283 357.8 301.71 357.8C302.179 357.8 302.579 357.667 302.91 357.4L303.39 358.504ZM308.997 359.096C308.155 359.096 307.397 358.909 306.725 358.536C306.053 358.163 305.525 357.651 305.141 357C304.768 356.339 304.581 355.592 304.581 354.76C304.581 353.928 304.768 353.187 305.141 352.536C305.525 351.875 306.053 351.363 306.725 351C307.397 350.627 308.155 350.44 308.997 350.44C309.84 350.44 310.592 350.627 311.253 351C311.925 351.363 312.448 351.875 312.821 352.536C313.205 353.187 313.397 353.928 313.397 354.76C313.397 355.592 313.205 356.339 312.821 357C312.448 357.651 311.925 358.163 311.253 358.536C310.592 358.909 309.84 359.096 308.997 359.096ZM308.997 357.752C309.541 357.752 310.027 357.629 310.453 357.384C310.891 357.128 311.232 356.776 311.477 356.328C311.723 355.869 311.845 355.347 311.845 354.76C311.845 354.173 311.723 353.656 311.477 353.208C311.232 352.749 310.891 352.397 310.453 352.152C310.027 351.907 309.541 351.784 308.997 351.784C308.453 351.784 307.963 351.907 307.525 352.152C307.099 352.397 306.757 352.749 306.501 353.208C306.256 353.656 306.133 354.173 306.133 354.76C306.133 355.347 306.256 355.869 306.501 356.328C306.757 356.776 307.099 357.128 307.525 357.384C307.963 357.629 308.453 357.752 308.997 357.752ZM318.354 359.096C317.66 359.096 316.994 359.005 316.354 358.824C315.714 358.632 315.212 358.392 314.85 358.104L315.49 356.888C315.863 357.155 316.316 357.368 316.85 357.528C317.383 357.688 317.922 357.768 318.466 357.768C319.81 357.768 320.482 357.384 320.482 356.616C320.482 356.36 320.391 356.157 320.21 356.008C320.028 355.859 319.799 355.752 319.522 355.688C319.255 355.613 318.871 355.533 318.37 355.448C317.687 355.341 317.127 355.219 316.69 355.08C316.263 354.941 315.895 354.707 315.586 354.376C315.276 354.045 315.122 353.581 315.122 352.984C315.122 352.216 315.442 351.603 316.082 351.144C316.722 350.675 317.58 350.44 318.658 350.44C319.223 350.44 319.788 350.509 320.354 350.648C320.919 350.787 321.383 350.973 321.746 351.208L321.09 352.424C320.396 351.976 319.58 351.752 318.642 351.752C317.991 351.752 317.495 351.859 317.154 352.072C316.812 352.285 316.642 352.568 316.642 352.92C316.642 353.197 316.738 353.416 316.93 353.576C317.122 353.736 317.356 353.853 317.634 353.928C317.922 354.003 318.322 354.088 318.834 354.184C319.516 354.301 320.066 354.429 320.482 354.568C320.908 354.696 321.271 354.92 321.57 355.24C321.868 355.56 322.018 356.008 322.018 356.584C322.018 357.352 321.687 357.965 321.026 358.424C320.375 358.872 319.484 359.096 318.354 359.096Z" fill="#FCFAE8"/>
<path d="M236 360.6H322.482V361.4H236V360.6Z" fill="#FCFAE8"/>
<path d="M412.52 69V57.576H414.248V67.512H419.128V69H412.52ZM424.25 60.216C425.327 60.216 426.133 60.456 426.666 60.936C427.21 61.4053 427.482 62.1467 427.482 63.16V69H426.282L425.946 67.8H425.882C425.509 68.2693 425.114 68.616 424.698 68.84C424.293 69.0533 423.727 69.16 423.002 69.16C422.223 69.16 421.578 68.952 421.066 68.536C420.554 68.1093 420.298 67.448 420.298 66.552C420.298 65.6773 420.629 65.0107 421.29 64.552C421.951 64.0933 422.97 63.8427 424.346 63.8L425.818 63.752V63.272C425.818 62.6427 425.674 62.2 425.386 61.944C425.098 61.6773 424.693 61.544 424.17 61.544C423.733 61.544 423.311 61.608 422.906 61.736C422.501 61.864 422.111 62.0187 421.738 62.2L421.194 60.968C421.599 60.7547 422.063 60.5787 422.586 60.44C423.119 60.2907 423.674 60.216 424.25 60.216ZM424.65 64.888C423.669 64.9307 422.986 65.096 422.602 65.384C422.229 65.6613 422.042 66.056 422.042 66.568C422.042 67.016 422.175 67.3413 422.442 67.544C422.709 67.7467 423.055 67.848 423.482 67.848C424.143 67.848 424.693 67.6613 425.13 67.288C425.578 66.9147 425.802 66.3547 425.802 65.608V64.856L424.65 64.888ZM434.35 60.216C434.499 60.216 434.659 60.2267 434.83 60.248C435.011 60.2587 435.166 60.2747 435.294 60.296L435.118 61.88C434.84 61.8053 434.552 61.768 434.254 61.768C433.827 61.768 433.422 61.8747 433.038 62.088C432.664 62.3013 432.36 62.6107 432.126 63.016C431.902 63.4107 431.79 63.8907 431.79 64.456V69H430.094V60.376H431.438L431.662 61.912H431.726C432.003 61.4533 432.36 61.0587 432.798 60.728C433.235 60.3867 433.752 60.216 434.35 60.216ZM439.71 60.216C440.852 60.216 441.732 60.648 442.35 61.512H442.43L442.622 60.376H443.998V69.112C443.998 70.3387 443.668 71.2667 443.006 71.896C442.356 72.5253 441.358 72.84 440.014 72.84C439.385 72.84 438.809 72.7973 438.286 72.712C437.774 72.6267 437.3 72.4933 436.862 72.312V70.824C437.78 71.272 438.862 71.496 440.11 71.496C440.814 71.496 441.358 71.2933 441.742 70.888C442.126 70.4933 442.318 69.9333 442.318 69.208V68.92C442.318 68.7813 442.324 68.6 442.334 68.376C442.345 68.152 442.356 67.9813 442.366 67.864H442.302C442.014 68.312 441.652 68.6427 441.214 68.856C440.777 69.0587 440.276 69.16 439.71 69.16C438.622 69.16 437.769 68.7707 437.15 67.992C436.542 67.2027 436.238 66.1093 436.238 64.712C436.238 63.3253 436.542 62.232 437.15 61.432C437.769 60.6213 438.622 60.216 439.71 60.216ZM440.062 61.624C439.39 61.624 438.873 61.8907 438.51 62.424C438.158 62.9573 437.982 63.7253 437.982 64.728C437.982 65.7307 438.158 66.4933 438.51 67.016C438.873 67.5387 439.401 67.8 440.094 67.8C440.884 67.8 441.46 67.5867 441.822 67.16C442.196 66.7227 442.382 66.0133 442.382 65.032V64.712C442.382 63.6133 442.196 62.824 441.822 62.344C441.449 61.864 440.862 61.624 440.062 61.624ZM450.048 60.216C451.179 60.216 452.069 60.568 452.72 61.272C453.371 61.9653 453.696 62.9147 453.696 64.12V65.048H447.904C447.925 65.9333 448.155 66.6107 448.592 67.08C449.04 67.5493 449.664 67.784 450.464 67.784C451.019 67.784 451.509 67.736 451.936 67.64C452.373 67.5333 452.821 67.3787 453.28 67.176V68.584C452.843 68.776 452.405 68.92 451.968 69.016C451.531 69.112 451.008 69.16 450.4 69.16C449.557 69.16 448.816 68.9947 448.176 68.664C447.547 68.3333 447.051 67.8427 446.688 67.192C446.336 66.5307 446.16 65.72 446.16 64.76C446.16 63.7893 446.32 62.968 446.64 62.296C446.971 61.624 447.424 61.112 448 60.76C448.587 60.3973 449.269 60.216 450.048 60.216ZM450.048 61.528C449.44 61.528 448.949 61.7253 448.576 62.12C448.213 62.5147 448 63.0747 447.936 63.8H452C451.989 63.128 451.824 62.584 451.504 62.168C451.195 61.7413 450.709 61.528 450.048 61.528ZM467.569 64.68C467.569 66.1093 467.201 67.2133 466.465 67.992C465.729 68.7707 464.737 69.16 463.489 69.16C462.71 69.16 462.017 68.984 461.409 68.632C460.811 68.28 460.337 67.7733 459.985 67.112C459.643 66.44 459.473 65.6293 459.473 64.68C459.473 63.2507 459.835 62.152 460.561 61.384C461.286 60.6053 462.278 60.216 463.537 60.216C464.326 60.216 465.019 60.392 465.617 60.744C466.225 61.0853 466.699 61.5867 467.041 62.248C467.393 62.9093 467.569 63.72 467.569 64.68ZM461.217 64.68C461.217 65.6507 461.398 66.408 461.761 66.952C462.134 67.496 462.721 67.768 463.521 67.768C464.321 67.768 464.902 67.496 465.265 66.952C465.638 66.408 465.825 65.6507 465.825 64.68C465.825 63.6987 465.638 62.9467 465.265 62.424C464.891 61.8907 464.305 61.624 463.505 61.624C462.705 61.624 462.123 61.8907 461.761 62.424C461.398 62.9467 461.217 63.6987 461.217 64.68ZM477.143 60.376V69H475.783L475.543 67.864H475.463C475.185 68.312 474.801 68.6427 474.311 68.856C473.82 69.0587 473.303 69.16 472.759 69.16C471.745 69.16 470.972 68.9093 470.439 68.408C469.905 67.9067 469.639 67.112 469.639 66.024V60.376H471.351V65.768C471.351 67.1013 471.932 67.768 473.095 67.768C473.98 67.768 474.593 67.5067 474.935 66.984C475.276 66.4613 475.447 65.7147 475.447 64.744V60.376H477.143ZM482.901 67.784C483.125 67.784 483.354 67.768 483.589 67.736C483.823 67.6933 484.026 67.64 484.197 67.576V68.856C484.005 68.9413 483.754 69.0107 483.445 69.064C483.146 69.128 482.842 69.16 482.533 69.16C482.063 69.16 481.631 69.08 481.237 68.92C480.842 68.76 480.527 68.4827 480.293 68.088C480.069 67.6933 479.957 67.144 479.957 66.44V61.672H478.757V60.904L480.021 60.264L480.613 58.44H481.653V60.376H484.117V61.672H481.653V66.408C481.653 66.8773 481.765 67.224 481.989 67.448C482.223 67.672 482.527 67.784 482.901 67.784ZM487.618 69H485.922V56.84H487.618V69ZM491.145 57.096C491.401 57.096 491.625 57.1707 491.817 57.32C492.009 57.4693 492.105 57.72 492.105 58.072C492.105 58.4133 492.009 58.664 491.817 58.824C491.625 58.9733 491.401 59.048 491.145 59.048C490.868 59.048 490.633 58.9733 490.441 58.824C490.26 58.664 490.169 58.4133 490.169 58.072C490.169 57.72 490.26 57.4693 490.441 57.32C490.633 57.1707 490.868 57.096 491.145 57.096ZM491.977 60.376V69H490.281V60.376H491.977ZM499.009 60.216C500.011 60.216 500.779 60.4667 501.312 60.968C501.846 61.4693 502.113 62.2747 502.113 63.384V69H500.433V63.624C500.433 62.28 499.841 61.608 498.657 61.608C497.771 61.608 497.163 61.8693 496.833 62.392C496.502 62.9147 496.337 63.6667 496.337 64.648V69H494.641V60.376H495.985L496.225 61.528H496.321C496.598 61.08 496.977 60.7493 497.457 60.536C497.947 60.3227 498.465 60.216 499.009 60.216ZM508.111 60.216C509.241 60.216 510.132 60.568 510.783 61.272C511.433 61.9653 511.759 62.9147 511.759 64.12V65.048H505.967C505.988 65.9333 506.217 66.6107 506.655 67.08C507.103 67.5493 507.727 67.784 508.527 67.784C509.081 67.784 509.572 67.736 509.999 67.64C510.436 67.5333 510.884 67.3787 511.343 67.176V68.584C510.905 68.776 510.468 68.92 510.031 69.016C509.593 69.112 509.071 69.16 508.463 69.16C507.62 69.16 506.879 68.9947 506.239 68.664C505.609 68.3333 505.113 67.8427 504.751 67.192C504.399 66.5307 504.223 65.72 504.223 64.76C504.223 63.7893 504.383 62.968 504.703 62.296C505.033 61.624 505.487 61.112 506.063 60.76C506.649 60.3973 507.332 60.216 508.111 60.216ZM508.111 61.528C507.503 61.528 507.012 61.7253 506.639 62.12C506.276 62.5147 506.063 63.0747 505.999 63.8H510.063C510.052 63.128 509.887 62.584 509.567 62.168C509.257 61.7413 508.772 61.528 508.111 61.528ZM414.024 81.768C414.024 82.12 414.013 82.456 413.992 82.776C413.971 83.096 413.955 83.3413 413.944 83.512H414.024C414.259 83.1493 414.584 82.8453 415 82.6C415.427 82.3547 415.971 82.232 416.632 82.232C417.667 82.232 418.499 82.6053 419.128 83.352C419.768 84.0987 420.088 85.208 420.088 86.68C420.088 88.1627 419.768 89.2827 419.128 90.04C418.488 90.7867 417.651 91.16 416.616 91.16C415.944 91.16 415.4 91.0427 414.984 90.808C414.579 90.5627 414.259 90.2747 414.024 89.944H413.896L413.576 91H412.328V78.84H414.024V81.768ZM416.232 83.608C415.4 83.608 414.824 83.8533 414.504 84.344C414.184 84.824 414.024 85.5653 414.024 86.568V86.696C414.024 87.688 414.179 88.4507 414.488 88.984C414.808 89.5067 415.4 89.768 416.264 89.768C416.947 89.768 417.464 89.5013 417.816 88.968C418.168 88.4347 418.344 87.6667 418.344 86.664C418.344 84.6267 417.64 83.608 416.232 83.608ZM429.674 82.376V91H428.314L428.074 89.864H427.994C427.717 90.312 427.333 90.6427 426.842 90.856C426.351 91.0587 425.834 91.16 425.29 91.16C424.277 91.16 423.503 90.9093 422.97 90.408C422.437 89.9067 422.17 89.112 422.17 88.024V82.376H423.882V87.768C423.882 89.1013 424.463 89.768 425.626 89.768C426.511 89.768 427.125 89.5067 427.466 88.984C427.807 88.4613 427.978 87.7147 427.978 86.744V82.376H429.674ZM435.432 89.784C435.656 89.784 435.885 89.768 436.12 89.736C436.355 89.6933 436.557 89.64 436.728 89.576V90.856C436.536 90.9413 436.285 91.0107 435.976 91.064C435.677 91.128 435.373 91.16 435.064 91.16C434.595 91.16 434.163 91.08 433.768 90.92C433.373 90.76 433.059 90.4827 432.824 90.088C432.6 89.6933 432.488 89.144 432.488 88.44V83.672H431.288V82.904L432.552 82.264L433.144 80.44H434.184V82.376H436.648V83.672H434.184V88.408C434.184 88.8773 434.296 89.224 434.52 89.448C434.755 89.672 435.059 89.784 435.432 89.784ZM441.557 89.784C441.781 89.784 442.01 89.768 442.245 89.736C442.48 89.6933 442.682 89.64 442.853 89.576V90.856C442.661 90.9413 442.41 91.0107 442.101 91.064C441.802 91.128 441.498 91.16 441.189 91.16C440.72 91.16 440.288 91.08 439.893 90.92C439.498 90.76 439.184 90.4827 438.949 90.088C438.725 89.6933 438.613 89.144 438.613 88.44V83.672H437.413V82.904L438.677 82.264L439.269 80.44H440.309V82.376H442.773V83.672H440.309V88.408C440.309 88.8773 440.421 89.224 440.645 89.448C440.88 89.672 441.184 89.784 441.557 89.784ZM452.178 86.68C452.178 88.1093 451.81 89.2133 451.074 89.992C450.338 90.7707 449.346 91.16 448.098 91.16C447.319 91.16 446.626 90.984 446.018 90.632C445.421 90.28 444.946 89.7733 444.594 89.112C444.253 88.44 444.082 87.6293 444.082 86.68C444.082 85.2507 444.445 84.152 445.17 83.384C445.895 82.6053 446.887 82.216 448.146 82.216C448.935 82.216 449.629 82.392 450.226 82.744C450.834 83.0853 451.309 83.5867 451.65 84.248C452.002 84.9093 452.178 85.72 452.178 86.68ZM445.826 86.68C445.826 87.6507 446.007 88.408 446.37 88.952C446.743 89.496 447.33 89.768 448.13 89.768C448.93 89.768 449.511 89.496 449.874 88.952C450.247 88.408 450.434 87.6507 450.434 86.68C450.434 85.6987 450.247 84.9467 449.874 84.424C449.501 83.8907 448.914 83.624 448.114 83.624C447.314 83.624 446.733 83.8907 446.37 84.424C446.007 84.9467 445.826 85.6987 445.826 86.68ZM458.696 82.216C459.699 82.216 460.467 82.4667 461 82.968C461.533 83.4693 461.8 84.2747 461.8 85.384V91H460.12V85.624C460.12 84.28 459.528 83.608 458.344 83.608C457.459 83.608 456.851 83.8693 456.52 84.392C456.189 84.9147 456.024 85.6667 456.024 86.648V91H454.328V82.376H455.672L455.912 83.528H456.008C456.285 83.08 456.664 82.7493 457.144 82.536C457.635 82.3227 458.152 82.216 458.696 82.216ZM474.386 86.68C474.301 86.4027 474.21 86.0827 474.114 85.72C474.029 85.3573 473.949 85.016 473.874 84.696C473.8 84.3653 473.741 84.1147 473.698 83.944H473.634C473.602 84.1147 473.549 84.3653 473.474 84.696C473.4 85.0267 473.314 85.3733 473.218 85.736C473.133 86.0987 473.048 86.4187 472.962 86.696L471.682 90.984H469.794L467.41 82.36H469.138L470.258 86.728C470.376 87.176 470.482 87.656 470.578 88.168C470.685 88.6693 470.76 89.0747 470.802 89.384H470.866C470.898 89.2027 470.941 88.9627 470.994 88.664C471.058 88.3653 471.122 88.0667 471.186 87.768C471.261 87.4587 471.33 87.208 471.394 87.016L472.77 82.36H474.626L475.97 87.016C476.034 87.2293 476.104 87.4853 476.178 87.784C476.253 88.072 476.317 88.36 476.37 88.648C476.434 88.9253 476.477 89.1653 476.498 89.368H476.562C476.584 89.1973 476.621 88.9627 476.674 88.664C476.728 88.3653 476.792 88.0453 476.866 87.704C476.952 87.3627 477.032 87.0373 477.106 86.728L478.258 82.36H479.97L477.554 90.984H475.618L474.386 86.68ZM482.333 79.096C482.589 79.096 482.813 79.1707 483.005 79.32C483.197 79.4693 483.293 79.72 483.293 80.072C483.293 80.4133 483.197 80.664 483.005 80.824C482.813 80.9733 482.589 81.048 482.333 81.048C482.055 81.048 481.821 80.9733 481.629 80.824C481.447 80.664 481.357 80.4133 481.357 80.072C481.357 79.72 481.447 79.4693 481.629 79.32C481.821 79.1707 482.055 79.096 482.333 79.096ZM483.165 82.376V91H481.469V82.376H483.165ZM488.932 89.784C489.156 89.784 489.385 89.768 489.62 89.736C489.855 89.6933 490.057 89.64 490.228 89.576V90.856C490.036 90.9413 489.785 91.0107 489.476 91.064C489.177 91.128 488.873 91.16 488.564 91.16C488.095 91.16 487.663 91.08 487.268 90.92C486.873 90.76 486.559 90.4827 486.324 90.088C486.1 89.6933 485.988 89.144 485.988 88.44V83.672H484.788V82.904L486.052 82.264L486.644 80.44H487.684V82.376H490.148V83.672H487.684V88.408C487.684 88.8773 487.796 89.224 488.02 89.448C488.255 89.672 488.559 89.784 488.932 89.784ZM493.649 82.088C493.649 82.3653 493.638 82.6373 493.617 82.904C493.596 83.16 493.574 83.3733 493.553 83.544H493.665C493.942 83.096 494.31 82.7653 494.769 82.552C495.238 82.3387 495.745 82.232 496.289 82.232C497.302 82.232 498.076 82.4827 498.609 82.984C499.153 83.4853 499.425 84.2853 499.425 85.384V91H497.745V85.624C497.745 84.28 497.153 83.608 495.969 83.608C495.084 83.608 494.476 83.8747 494.145 84.408C493.814 84.9307 493.649 85.6827 493.649 86.664V91H491.953V78.84H493.649V82.088ZM511.915 88.568C511.915 89.4107 511.606 90.056 510.987 90.504C510.369 90.9413 509.51 91.16 508.411 91.16C507.803 91.16 507.281 91.112 506.843 91.016C506.417 90.9307 506.022 90.8027 505.659 90.632V89.144C506.033 89.3253 506.47 89.4907 506.971 89.64C507.483 89.7787 507.979 89.848 508.459 89.848C509.099 89.848 509.558 89.7467 509.835 89.544C510.123 89.3413 510.267 89.0693 510.267 88.728C510.267 88.536 510.214 88.3653 510.107 88.216C510.001 88.056 509.798 87.896 509.499 87.736C509.211 87.5653 508.785 87.3733 508.219 87.16C507.665 86.936 507.195 86.7173 506.811 86.504C506.438 86.28 506.15 86.0187 505.947 85.72C505.745 85.4107 505.643 85.016 505.643 84.536C505.643 83.7893 505.942 83.2187 506.539 82.824C507.147 82.4187 507.947 82.216 508.939 82.216C509.462 82.216 509.953 82.2693 510.411 82.376C510.881 82.4827 511.334 82.632 511.771 82.824L511.211 84.12C510.838 83.96 510.454 83.8267 510.059 83.72C509.665 83.6027 509.265 83.544 508.859 83.544C508.347 83.544 507.958 83.624 507.691 83.784C507.425 83.944 507.291 84.168 507.291 84.456C507.291 84.6587 507.355 84.8347 507.483 84.984C507.611 85.1333 507.825 85.2827 508.123 85.432C508.433 85.5813 508.854 85.7627 509.387 85.976C509.921 86.1787 510.374 86.3867 510.747 86.6C511.131 86.8133 511.419 87.0747 511.611 87.384C511.814 87.6933 511.915 88.088 511.915 88.568ZM521.537 86.68C521.537 88.1093 521.169 89.2133 520.433 89.992C519.697 90.7707 518.705 91.16 517.457 91.16C516.679 91.16 515.985 90.984 515.377 90.632C514.78 90.28 514.305 89.7733 513.953 89.112C513.612 88.44 513.441 87.6293 513.441 86.68C513.441 85.2507 513.804 84.152 514.529 83.384C515.255 82.6053 516.247 82.216 517.505 82.216C518.295 82.216 518.988 82.392 519.585 82.744C520.193 83.0853 520.668 83.5867 521.009 84.248C521.361 84.9093 521.537 85.72 521.537 86.68ZM515.185 86.68C515.185 87.6507 515.367 88.408 515.729 88.952C516.103 89.496 516.689 89.768 517.489 89.768C518.289 89.768 518.871 89.496 519.233 88.952C519.607 88.408 519.793 87.6507 519.793 86.68C519.793 85.6987 519.607 84.9467 519.233 84.424C518.86 83.8907 518.273 83.624 517.473 83.624C516.673 83.624 516.092 83.8907 515.729 84.424C515.367 84.9467 515.185 85.6987 515.185 86.68ZM527.159 91.16C525.965 91.16 525.005 90.808 524.279 90.104C523.554 89.3893 523.191 88.2693 523.191 86.744C523.191 85.6773 523.367 84.8133 523.719 84.152C524.071 83.4907 524.557 83.0053 525.175 82.696C525.794 82.376 526.498 82.216 527.287 82.216C527.767 82.216 528.215 82.2693 528.631 82.376C529.058 82.472 529.41 82.584 529.687 82.712L529.175 84.088C528.877 83.9707 528.557 83.8693 528.215 83.784C527.885 83.6987 527.57 83.656 527.271 83.656C525.714 83.656 524.935 84.68 524.935 86.728C524.935 87.7093 525.127 88.456 525.511 88.968C525.895 89.48 526.461 89.736 527.207 89.736C527.687 89.736 528.109 89.6827 528.471 89.576C528.845 89.4693 529.186 89.3307 529.495 89.16V90.632C529.186 90.8133 528.85 90.9467 528.487 91.032C528.125 91.1173 527.682 91.16 527.159 91.16ZM532.395 79.096C532.651 79.096 532.875 79.1707 533.067 79.32C533.259 79.4693 533.355 79.72 533.355 80.072C533.355 80.4133 533.259 80.664 533.067 80.824C532.875 80.9733 532.651 81.048 532.395 81.048C532.118 81.048 531.883 80.9733 531.691 80.824C531.51 80.664 531.419 80.4133 531.419 80.072C531.419 79.72 531.51 79.4693 531.691 79.32C531.883 79.1707 532.118 79.096 532.395 79.096ZM533.227 82.376V91H531.531V82.376H533.227ZM539.235 82.216C540.312 82.216 541.117 82.456 541.651 82.936C542.195 83.4053 542.467 84.1467 542.467 85.16V91H541.267L540.931 89.8H540.867C540.493 90.2693 540.099 90.616 539.683 90.84C539.277 91.0533 538.712 91.16 537.987 91.16C537.208 91.16 536.563 90.952 536.051 90.536C535.539 90.1093 535.283 89.448 535.283 88.552C535.283 87.6773 535.613 87.0107 536.275 86.552C536.936 86.0933 537.955 85.8427 539.331 85.8L540.803 85.752V85.272C540.803 84.6427 540.659 84.2 540.371 83.944C540.083 83.6773 539.677 83.544 539.155 83.544C538.717 83.544 538.296 83.608 537.891 83.736C537.485 83.864 537.096 84.0187 536.723 84.2L536.179 82.968C536.584 82.7547 537.048 82.5787 537.571 82.44C538.104 82.2907 538.659 82.216 539.235 82.216ZM539.635 86.888C538.653 86.9307 537.971 87.096 537.587 87.384C537.213 87.6613 537.027 88.056 537.027 88.568C537.027 89.016 537.16 89.3413 537.427 89.544C537.693 89.7467 538.04 89.848 538.467 89.848C539.128 89.848 539.677 89.6613 540.115 89.288C540.563 88.9147 540.787 88.3547 540.787 87.608V86.856L539.635 86.888ZM546.774 91H545.078V78.84H546.774V91ZM555.165 88.568C555.165 89.4107 554.856 90.056 554.237 90.504C553.619 90.9413 552.76 91.16 551.661 91.16C551.053 91.16 550.531 91.112 550.093 91.016C549.667 90.9307 549.272 90.8027 548.909 90.632V89.144C549.283 89.3253 549.72 89.4907 550.221 89.64C550.733 89.7787 551.229 89.848 551.709 89.848C552.349 89.848 552.808 89.7467 553.085 89.544C553.373 89.3413 553.517 89.0693 553.517 88.728C553.517 88.536 553.464 88.3653 553.357 88.216C553.251 88.056 553.048 87.896 552.749 87.736C552.461 87.5653 552.035 87.3733 551.469 87.16C550.915 86.936 550.445 86.7173 550.061 86.504C549.688 86.28 549.4 86.0187 549.197 85.72C548.995 85.4107 548.893 85.016 548.893 84.536C548.893 83.7893 549.192 83.2187 549.789 82.824C550.397 82.4187 551.197 82.216 552.189 82.216C552.712 82.216 553.203 82.2693 553.661 82.376C554.131 82.4827 554.584 82.632 555.021 82.824L554.461 84.12C554.088 83.96 553.704 83.8267 553.309 83.72C552.915 83.6027 552.515 83.544 552.109 83.544C551.597 83.544 551.208 83.624 550.941 83.784C550.675 83.944 550.541 84.168 550.541 84.456C550.541 84.6587 550.605 84.8347 550.733 84.984C550.861 85.1333 551.075 85.2827 551.373 85.432C551.683 85.5813 552.104 85.7627 552.637 85.976C553.171 86.1787 553.624 86.3867 553.997 86.6C554.381 86.8133 554.669 87.0747 554.861 87.384C555.064 87.6933 555.165 88.088 555.165 88.568Z" fill="#7C6436"/>
<path d="M12.6 68.272C12.6 69.456 12.4027 70.4907 12.008 71.376C11.6133 72.2507 11.0213 72.9333 10.232 73.424C9.44267 73.9147 8.46133 74.16 7.288 74.16C6.08267 74.16 5.08533 73.9147 4.296 73.424C3.50667 72.9333 2.92 72.2453 2.536 71.36C2.152 70.4747 1.96 69.44 1.96 68.256C1.96 67.0827 2.152 66.0587 2.536 65.184C2.93067 64.3093 3.52267 63.6267 4.312 63.136C5.10133 62.6453 6.09867 62.4 7.304 62.4C8.47733 62.4 9.45333 62.6453 10.232 63.136C11.0213 63.616 11.6133 64.2987 12.008 65.184C12.4027 66.0587 12.6 67.088 12.6 68.272ZM3.784 68.272C3.784 69.6373 4.06667 70.7147 4.632 71.504C5.19733 72.2933 6.08267 72.688 7.288 72.688C8.504 72.688 9.38933 72.2933 9.944 71.504C10.4987 70.7147 10.776 69.6373 10.776 68.272C10.776 66.9067 10.4987 65.8347 9.944 65.056C9.4 64.2773 8.52 63.888 7.304 63.888C6.088 63.888 5.19733 64.2773 4.632 65.056C4.06667 65.8347 3.784 66.9067 3.784 68.272ZM22.3145 65.376V74H20.9545L20.7145 72.864H20.6345C20.3572 73.312 19.9732 73.6427 19.4825 73.856C18.9918 74.0587 18.4745 74.16 17.9305 74.16C16.9172 74.16 16.1438 73.9093 15.6105 73.408C15.0772 72.9067 14.8105 72.112 14.8105 71.024V65.376H16.5225V70.768C16.5225 72.1013 17.1038 72.768 18.2665 72.768C19.1518 72.768 19.7652 72.5067 20.1065 71.984C20.4478 71.4613 20.6185 70.7147 20.6185 69.744V65.376H22.3145ZM28.0726 72.784C28.2966 72.784 28.526 72.768 28.7606 72.736C28.9953 72.6933 29.198 72.64 29.3686 72.576V73.856C29.1766 73.9413 28.926 74.0107 28.6166 74.064C28.318 74.128 28.014 74.16 27.7046 74.16C27.2353 74.16 26.8033 74.08 26.4086 73.92C26.014 73.76 25.6993 73.4827 25.4646 73.088C25.2406 72.6933 25.1286 72.144 25.1286 71.44V66.672H23.9286V65.904L25.1926 65.264L25.7846 63.44H26.8246V65.376H29.2886V66.672H26.8246V71.408C26.8246 71.8773 26.9366 72.224 27.1606 72.448C27.3953 72.672 27.6993 72.784 28.0726 72.784ZM32.7896 74H31.0936V61.84H32.7896V74ZM36.317 62.096C36.573 62.096 36.797 62.1707 36.989 62.32C37.181 62.4693 37.277 62.72 37.277 63.072C37.277 63.4133 37.181 63.664 36.989 63.824C36.797 63.9733 36.573 64.048 36.317 64.048C36.0397 64.048 35.805 63.9733 35.613 63.824C35.4317 63.664 35.341 63.4133 35.341 63.072C35.341 62.72 35.4317 62.4693 35.613 62.32C35.805 62.1707 36.0397 62.096 36.317 62.096ZM37.149 65.376V74H35.453V65.376H37.149ZM44.1804 65.216C45.183 65.216 45.951 65.4667 46.4844 65.968C47.0177 66.4693 47.2844 67.2747 47.2844 68.384V74H45.6044V68.624C45.6044 67.28 45.0124 66.608 43.8284 66.608C42.943 66.608 42.335 66.8693 42.0044 67.392C41.6737 67.9147 41.5084 68.6667 41.5084 69.648V74H39.8124V65.376H41.1564L41.3964 66.528H41.4924C41.7697 66.08 42.1484 65.7493 42.6284 65.536C43.119 65.3227 43.6364 65.216 44.1804 65.216ZM53.2825 65.216C54.4132 65.216 55.3038 65.568 55.9545 66.272C56.6052 66.9653 56.9305 67.9147 56.9305 69.12V70.048H51.1385C51.1598 70.9333 51.3892 71.6107 51.8265 72.08C52.2745 72.5493 52.8985 72.784 53.6985 72.784C54.2532 72.784 54.7438 72.736 55.1705 72.64C55.6078 72.5333 56.0558 72.3787 56.5145 72.176V73.584C56.0772 73.776 55.6398 73.92 55.2025 74.016C54.7652 74.112 54.2425 74.16 53.6345 74.16C52.7918 74.16 52.0505 73.9947 51.4105 73.664C50.7812 73.3333 50.2852 72.8427 49.9225 72.192C49.5705 71.5307 49.3945 70.72 49.3945 69.76C49.3945 68.7893 49.5545 67.968 49.8745 67.296C50.2052 66.624 50.6585 66.112 51.2345 65.76C51.8212 65.3973 52.5038 65.216 53.2825 65.216ZM53.2825 66.528C52.6745 66.528 52.1838 66.7253 51.8105 67.12C51.4478 67.5147 51.2345 68.0747 51.1705 68.8H55.2345C55.2238 68.128 55.0585 67.584 54.7385 67.168C54.4292 66.7413 53.9438 66.528 53.2825 66.528ZM69.955 70.912C69.955 71.9253 69.587 72.72 68.851 73.296C68.115 73.872 67.107 74.16 65.827 74.16C65.2083 74.16 64.6217 74.1067 64.067 74C63.523 73.904 63.059 73.76 62.675 73.568V71.936C63.1017 72.128 63.603 72.304 64.179 72.464C64.755 72.6133 65.3417 72.688 65.939 72.688C66.707 72.688 67.283 72.5387 67.667 72.24C68.051 71.9413 68.243 71.5413 68.243 71.04C68.243 70.688 68.1523 70.3947 67.971 70.16C67.8003 69.9147 67.5283 69.6907 67.155 69.488C66.7817 69.2853 66.291 69.0613 65.683 68.816C65.1177 68.6027 64.6163 68.352 64.179 68.064C63.7523 67.776 63.4163 67.4187 63.171 66.992C62.9257 66.5653 62.803 66.0427 62.803 65.424C62.803 64.4853 63.1443 63.7493 63.827 63.216C64.5097 62.6827 65.4057 62.416 66.515 62.416C67.1337 62.416 67.7043 62.48 68.227 62.608C68.7603 62.7253 69.267 62.8907 69.747 63.104L69.203 64.528C68.7657 64.3467 68.3177 64.1973 67.859 64.08C67.411 63.9627 66.947 63.904 66.467 63.904C65.8377 63.904 65.3577 64.0427 65.027 64.32C64.6963 64.5973 64.531 64.96 64.531 65.408C64.531 65.76 64.611 66.0587 64.771 66.304C64.931 66.5387 65.187 66.752 65.539 66.944C65.891 67.136 66.355 67.3493 66.931 67.584C67.571 67.84 68.115 68.112 68.563 68.4C69.0217 68.6773 69.3683 69.0187 69.603 69.424C69.8377 69.8187 69.955 70.3147 69.955 70.912ZM75.3919 65.216C76.5225 65.216 77.4132 65.568 78.0639 66.272C78.7145 66.9653 79.0399 67.9147 79.0399 69.12V70.048H73.2479C73.2692 70.9333 73.4985 71.6107 73.9359 72.08C74.3839 72.5493 75.0079 72.784 75.8079 72.784C76.3625 72.784 76.8532 72.736 77.2799 72.64C77.7172 72.5333 78.1652 72.3787 78.6239 72.176V73.584C78.1865 73.776 77.7492 73.92 77.3119 74.016C76.8745 74.112 76.3519 74.16 75.7439 74.16C74.9012 74.16 74.1599 73.9947 73.5199 73.664C72.8905 73.3333 72.3945 72.8427 72.0319 72.192C71.6799 71.5307 71.5039 70.72 71.5039 69.76C71.5039 68.7893 71.6639 67.968 71.9839 67.296C72.3145 66.624 72.7679 66.112 73.3439 65.76C73.9305 65.3973 74.6132 65.216 75.3919 65.216ZM75.3919 66.528C74.7839 66.528 74.2932 66.7253 73.9199 67.12C73.5572 67.5147 73.3439 68.0747 73.2799 68.8H77.3439C77.3332 68.128 77.1679 67.584 76.8479 67.168C76.5385 66.7413 76.0532 66.528 75.3919 66.528ZM84.6281 74.16C83.4335 74.16 82.4735 73.808 81.7481 73.104C81.0228 72.3893 80.6601 71.2693 80.6601 69.744C80.6601 68.6773 80.8361 67.8133 81.1881 67.152C81.5401 66.4907 82.0255 66.0053 82.6441 65.696C83.2628 65.376 83.9668 65.216 84.7561 65.216C85.2361 65.216 85.6841 65.2693 86.1001 65.376C86.5268 65.472 86.8788 65.584 87.1561 65.712L86.6441 67.088C86.3455 66.9707 86.0255 66.8693 85.6841 66.784C85.3535 66.6987 85.0388 66.656 84.7401 66.656C83.1828 66.656 82.4041 67.68 82.4041 69.728C82.4041 70.7093 82.5961 71.456 82.9801 71.968C83.3641 72.48 83.9295 72.736 84.6761 72.736C85.1561 72.736 85.5775 72.6827 85.9401 72.576C86.3135 72.4693 86.6548 72.3307 86.9641 72.16V73.632C86.6548 73.8133 86.3188 73.9467 85.9561 74.032C85.5935 74.1173 85.1508 74.16 84.6281 74.16ZM96.5999 69.68C96.5999 71.1093 96.2319 72.2133 95.4959 72.992C94.7599 73.7707 93.7679 74.16 92.5199 74.16C91.7412 74.16 91.0479 73.984 90.4399 73.632C89.8425 73.28 89.3679 72.7733 89.0159 72.112C88.6745 71.44 88.5039 70.6293 88.5039 69.68C88.5039 68.2507 88.8665 67.152 89.5919 66.384C90.3172 65.6053 91.3092 65.216 92.5679 65.216C93.3572 65.216 94.0505 65.392 94.6479 65.744C95.2559 66.0853 95.7305 66.5867 96.0719 67.248C96.4239 67.9093 96.5999 68.72 96.5999 69.68ZM90.2479 69.68C90.2479 70.6507 90.4292 71.408 90.7919 71.952C91.1652 72.496 91.7519 72.768 92.5519 72.768C93.3519 72.768 93.9332 72.496 94.2959 71.952C94.6692 71.408 94.8559 70.6507 94.8559 69.68C94.8559 68.6987 94.6692 67.9467 94.2959 67.424C93.9225 66.8907 93.3359 66.624 92.5359 66.624C91.7359 66.624 91.1545 66.8907 90.7919 67.424C90.4292 67.9467 90.2479 68.6987 90.2479 69.68ZM103.118 65.216C104.121 65.216 104.889 65.4667 105.422 65.968C105.955 66.4693 106.222 67.2747 106.222 68.384V74H104.542V68.624C104.542 67.28 103.95 66.608 102.766 66.608C101.881 66.608 101.273 66.8693 100.942 67.392C100.611 67.9147 100.446 68.6667 100.446 69.648V74H98.7499V65.376H100.094L100.334 66.528H100.43C100.707 66.08 101.086 65.7493 101.566 65.536C102.057 65.3227 102.574 65.216 103.118 65.216ZM111.788 74.16C110.753 74.16 109.916 73.7867 109.276 73.04C108.647 72.2933 108.332 71.184 108.332 69.712C108.332 68.2293 108.652 67.1093 109.292 66.352C109.932 65.5947 110.775 65.216 111.82 65.216C112.471 65.216 113.004 65.3387 113.42 65.584C113.836 65.8293 114.172 66.128 114.428 66.48H114.524C114.503 66.3413 114.476 66.128 114.444 65.84C114.412 65.552 114.396 65.296 114.396 65.072V61.84H116.092V74H114.764L114.476 72.848H114.396C114.151 73.2213 113.82 73.536 113.404 73.792C112.988 74.0373 112.449 74.16 111.788 74.16ZM112.188 72.768C113.02 72.768 113.607 72.5387 113.948 72.08C114.289 71.6107 114.46 70.912 114.46 69.984V69.728C114.46 68.7253 114.295 67.9573 113.964 67.424C113.644 66.88 113.047 66.608 112.172 66.608C111.479 66.608 110.956 66.8907 110.604 67.456C110.252 68.0107 110.076 68.7733 110.076 69.744C110.076 70.7147 110.252 71.4613 110.604 71.984C110.956 72.5067 111.484 72.768 112.188 72.768ZM122.094 65.216C123.171 65.216 123.977 65.456 124.51 65.936C125.054 66.4053 125.326 67.1467 125.326 68.16V74H124.126L123.79 72.8H123.726C123.353 73.2693 122.958 73.616 122.542 73.84C122.137 74.0533 121.571 74.16 120.846 74.16C120.067 74.16 119.422 73.952 118.91 73.536C118.398 73.1093 118.142 72.448 118.142 71.552C118.142 70.6773 118.473 70.0107 119.134 69.552C119.795 69.0933 120.814 68.8427 122.19 68.8L123.662 68.752V68.272C123.662 67.6427 123.518 67.2 123.23 66.944C122.942 66.6773 122.537 66.544 122.014 66.544C121.577 66.544 121.155 66.608 120.75 66.736C120.345 66.864 119.955 67.0187 119.582 67.2L119.038 65.968C119.443 65.7547 119.907 65.5787 120.43 65.44C120.963 65.2907 121.518 65.216 122.094 65.216ZM122.494 69.888C121.513 69.9307 120.83 70.096 120.446 70.384C120.073 70.6613 119.886 71.056 119.886 71.568C119.886 72.016 120.019 72.3413 120.286 72.544C120.553 72.7467 120.899 72.848 121.326 72.848C121.987 72.848 122.537 72.6613 122.974 72.288C123.422 71.9147 123.646 71.3547 123.646 70.608V69.856L122.494 69.888ZM132.193 65.216C132.343 65.216 132.503 65.2267 132.673 65.248C132.855 65.2587 133.009 65.2747 133.137 65.296L132.961 66.88C132.684 66.8053 132.396 66.768 132.097 66.768C131.671 66.768 131.265 66.8747 130.881 67.088C130.508 67.3013 130.204 67.6107 129.969 68.016C129.745 68.4107 129.633 68.8907 129.633 69.456V74H127.937V65.376H129.281L129.505 66.912H129.569C129.847 66.4533 130.204 66.0587 130.641 65.728C131.079 65.3867 131.596 65.216 132.193 65.216ZM133.422 65.376H135.246L137.038 70.272C137.177 70.6453 137.294 71.008 137.39 71.36C137.497 71.7013 137.577 72.0373 137.63 72.368H137.694C137.748 72.0907 137.828 71.7653 137.934 71.392C138.052 71.0187 138.18 70.64 138.318 70.256L140.014 65.376H141.838L138.142 75.168C137.833 76 137.417 76.6507 136.894 77.12C136.382 77.6 135.71 77.84 134.878 77.84C134.612 77.84 134.382 77.824 134.19 77.792C133.998 77.7707 133.833 77.744 133.694 77.712V76.368C133.801 76.3893 133.94 76.4107 134.11 76.432C134.281 76.4533 134.457 76.464 134.638 76.464C135.129 76.464 135.524 76.32 135.822 76.032C136.121 75.7547 136.356 75.3867 136.526 74.928L136.878 74L133.422 65.376Z" fill="#7C6436"/>
<path d="M215.968 134H215.04V128.432H208.528V134H207.6V122.576H208.528V127.6H215.04V122.576H215.968V134ZM226.106 129.728C226.106 130.624 225.957 131.403 225.658 132.064C225.37 132.725 224.938 133.243 224.362 133.616C223.797 133.979 223.103 134.16 222.282 134.16C221.493 134.16 220.815 133.979 220.25 133.616C219.685 133.253 219.247 132.741 218.938 132.08C218.639 131.408 218.49 130.624 218.49 129.728C218.49 128.352 218.831 127.275 219.514 126.496C220.197 125.717 221.141 125.328 222.346 125.328C223.157 125.328 223.839 125.515 224.394 125.888C224.959 126.251 225.386 126.763 225.674 127.424C225.962 128.085 226.106 128.853 226.106 129.728ZM219.434 129.728C219.434 130.827 219.663 131.712 220.122 132.384C220.591 133.045 221.317 133.376 222.298 133.376C223.29 133.376 224.015 133.04 224.474 132.368C224.933 131.696 225.162 130.816 225.162 129.728C225.162 129.024 225.066 128.4 224.874 127.856C224.682 127.312 224.378 126.885 223.962 126.576C223.546 126.267 223.002 126.112 222.33 126.112C221.37 126.112 220.645 126.432 220.154 127.072C219.674 127.712 219.434 128.597 219.434 129.728ZM229.967 134L226.703 125.488H227.679L229.791 131.136C229.919 131.488 230.036 131.835 230.143 132.176C230.26 132.517 230.356 132.821 230.431 133.088H230.479C230.554 132.821 230.65 132.517 230.767 132.176C230.884 131.824 231.007 131.477 231.135 131.136L233.247 125.488H234.207L230.943 134H229.967ZM238.843 125.328C239.568 125.328 240.171 125.499 240.651 125.84C241.142 126.171 241.51 126.629 241.755 127.216C242.011 127.803 242.139 128.475 242.139 129.232V129.856H236.059C236.059 130.987 236.32 131.856 236.843 132.464C237.376 133.061 238.134 133.36 239.115 133.36C239.638 133.36 240.096 133.317 240.491 133.232C240.886 133.136 241.318 132.987 241.787 132.784V133.616C241.36 133.808 240.939 133.947 240.523 134.032C240.107 134.117 239.627 134.16 239.083 134.16C237.803 134.16 236.822 133.771 236.139 132.992C235.456 132.213 235.115 131.152 235.115 129.808C235.115 128.944 235.259 128.176 235.547 127.504C235.846 126.832 236.272 126.304 236.827 125.92C237.382 125.525 238.054 125.328 238.843 125.328ZM238.827 126.096C238.048 126.096 237.414 126.357 236.923 126.88C236.443 127.403 236.166 128.144 236.091 129.104H241.195C241.195 128.208 240.998 127.483 240.603 126.928C240.219 126.373 239.627 126.096 238.827 126.096ZM247.943 125.344C248.359 125.344 248.743 125.387 249.095 125.472L248.951 126.32C248.61 126.224 248.258 126.176 247.895 126.176C247.117 126.176 246.498 126.464 246.039 127.04C245.581 127.616 245.351 128.379 245.351 129.328V134H244.439V125.488H245.207L245.303 127.072H245.351C245.565 126.592 245.89 126.187 246.327 125.856C246.765 125.515 247.303 125.344 247.943 125.344ZM253.656 125.328C254.381 125.328 254.984 125.499 255.464 125.84C255.954 126.171 256.322 126.629 256.568 127.216C256.824 127.803 256.952 128.475 256.952 129.232V129.856H250.872C250.872 130.987 251.133 131.856 251.656 132.464C252.189 133.061 252.946 133.36 253.928 133.36C254.45 133.36 254.909 133.317 255.304 133.232C255.698 133.136 256.13 132.987 256.6 132.784V133.616C256.173 133.808 255.752 133.947 255.336 134.032C254.92 134.117 254.44 134.16 253.896 134.16C252.616 134.16 251.634 133.771 250.952 132.992C250.269 132.213 249.928 131.152 249.928 129.808C249.928 128.944 250.072 128.176 250.36 127.504C250.658 126.832 251.085 126.304 251.64 125.92C252.194 125.525 252.866 125.328 253.656 125.328ZM253.64 126.096C252.861 126.096 252.226 126.357 251.736 126.88C251.256 127.403 250.978 128.144 250.904 129.104H256.008C256.008 128.208 255.81 127.483 255.416 126.928C255.032 126.373 254.44 126.096 253.64 126.096ZM262.308 134.16C261.166 134.16 260.286 133.797 259.668 133.072C259.06 132.336 258.756 131.253 258.756 129.824C258.756 128.363 259.076 127.248 259.716 126.48C260.356 125.712 261.246 125.328 262.388 125.328C263.102 125.328 263.678 125.488 264.116 125.808C264.564 126.117 264.9 126.496 265.124 126.944H265.188C265.177 126.699 265.161 126.427 265.14 126.128C265.129 125.819 265.124 125.536 265.124 125.28V121.84H266.036V134H265.3L265.172 132.512H265.124C264.9 132.971 264.564 133.36 264.116 133.68C263.668 134 263.065 134.16 262.308 134.16ZM262.42 133.376C263.401 133.376 264.1 133.077 264.516 132.48C264.932 131.883 265.14 131.019 265.14 129.888V129.744C265.14 128.571 264.932 127.675 264.516 127.056C264.11 126.427 263.433 126.112 262.484 126.112C261.566 126.112 260.873 126.437 260.404 127.088C259.934 127.728 259.7 128.645 259.7 129.84C259.7 130.992 259.924 131.872 260.372 132.48C260.82 133.077 261.502 133.376 262.42 133.376Z" fill="#4F4F4F"/>
<path d="M215.968 308H215.04V302.432H208.528V308H207.6V296.576H208.528V301.6H215.04V296.576H215.968V308ZM226.106 303.728C226.106 304.624 225.957 305.403 225.658 306.064C225.37 306.725 224.938 307.243 224.362 307.616C223.797 307.979 223.103 308.16 222.282 308.16C221.493 308.16 220.815 307.979 220.25 307.616C219.685 307.253 219.247 306.741 218.938 306.08C218.639 305.408 218.49 304.624 218.49 303.728C218.49 302.352 218.831 301.275 219.514 300.496C220.197 299.717 221.141 299.328 222.346 299.328C223.157 299.328 223.839 299.515 224.394 299.888C224.959 300.251 225.386 300.763 225.674 301.424C225.962 302.085 226.106 302.853 226.106 303.728ZM219.434 303.728C219.434 304.827 219.663 305.712 220.122 306.384C220.591 307.045 221.317 307.376 222.298 307.376C223.29 307.376 224.015 307.04 224.474 306.368C224.933 305.696 225.162 304.816 225.162 303.728C225.162 303.024 225.066 302.4 224.874 301.856C224.682 301.312 224.378 300.885 223.962 300.576C223.546 300.267 223.002 300.112 222.33 300.112C221.37 300.112 220.645 300.432 220.154 301.072C219.674 301.712 219.434 302.597 219.434 303.728ZM229.967 308L226.703 299.488H227.679L229.791 305.136C229.919 305.488 230.036 305.835 230.143 306.176C230.26 306.517 230.356 306.821 230.431 307.088H230.479C230.554 306.821 230.65 306.517 230.767 306.176C230.884 305.824 231.007 305.477 231.135 305.136L233.247 299.488H234.207L230.943 308H229.967ZM238.843 299.328C239.568 299.328 240.171 299.499 240.651 299.84C241.142 300.171 241.51 300.629 241.755 301.216C242.011 301.803 242.139 302.475 242.139 303.232V303.856H236.059C236.059 304.987 236.32 305.856 236.843 306.464C237.376 307.061 238.134 307.36 239.115 307.36C239.638 307.36 240.096 307.317 240.491 307.232C240.886 307.136 241.318 306.987 241.787 306.784V307.616C241.36 307.808 240.939 307.947 240.523 308.032C240.107 308.117 239.627 308.16 239.083 308.16C237.803 308.16 236.822 307.771 236.139 306.992C235.456 306.213 235.115 305.152 235.115 303.808C235.115 302.944 235.259 302.176 235.547 301.504C235.846 300.832 236.272 300.304 236.827 299.92C237.382 299.525 238.054 299.328 238.843 299.328ZM238.827 300.096C238.048 300.096 237.414 300.357 236.923 300.88C236.443 301.403 236.166 302.144 236.091 303.104H241.195C241.195 302.208 240.998 301.483 240.603 300.928C240.219 300.373 239.627 300.096 238.827 300.096ZM247.943 299.344C248.359 299.344 248.743 299.387 249.095 299.472L248.951 300.32C248.61 300.224 248.258 300.176 247.895 300.176C247.117 300.176 246.498 300.464 246.039 301.04C245.581 301.616 245.351 302.379 245.351 303.328V308H244.439V299.488H245.207L245.303 301.072H245.351C245.565 300.592 245.89 300.187 246.327 299.856C246.765 299.515 247.303 299.344 247.943 299.344ZM253.656 299.328C254.381 299.328 254.984 299.499 255.464 299.84C255.954 300.171 256.322 300.629 256.568 301.216C256.824 301.803 256.952 302.475 256.952 303.232V303.856H250.872C250.872 304.987 251.133 305.856 251.656 306.464C252.189 307.061 252.946 307.36 253.928 307.36C254.45 307.36 254.909 307.317 255.304 307.232C255.698 307.136 256.13 306.987 256.6 306.784V307.616C256.173 307.808 255.752 307.947 255.336 308.032C254.92 308.117 254.44 308.16 253.896 308.16C252.616 308.16 251.634 307.771 250.952 306.992C250.269 306.213 249.928 305.152 249.928 303.808C249.928 302.944 250.072 302.176 250.36 301.504C250.658 300.832 251.085 300.304 251.64 299.92C252.194 299.525 252.866 299.328 253.656 299.328ZM253.64 300.096C252.861 300.096 252.226 300.357 251.736 300.88C251.256 301.403 250.978 302.144 250.904 303.104H256.008C256.008 302.208 255.81 301.483 255.416 300.928C255.032 300.373 254.44 300.096 253.64 300.096ZM262.308 308.16C261.166 308.16 260.286 307.797 259.668 307.072C259.06 306.336 258.756 305.253 258.756 303.824C258.756 302.363 259.076 301.248 259.716 300.48C260.356 299.712 261.246 299.328 262.388 299.328C263.102 299.328 263.678 299.488 264.116 299.808C264.564 300.117 264.9 300.496 265.124 300.944H265.188C265.177 300.699 265.161 300.427 265.14 300.128C265.129 299.819 265.124 299.536 265.124 299.28V295.84H266.036V308H265.3L265.172 306.512H265.124C264.9 306.971 264.564 307.36 264.116 307.68C263.668 308 263.065 308.16 262.308 308.16ZM262.42 307.376C263.401 307.376 264.1 307.077 264.516 306.48C264.932 305.883 265.14 305.019 265.14 303.888V303.744C265.14 302.571 264.932 301.675 264.516 301.056C264.11 300.427 263.433 300.112 262.484 300.112C261.566 300.112 260.873 300.437 260.404 301.088C259.934 301.728 259.7 302.645 259.7 303.84C259.7 304.992 259.924 305.872 260.372 306.48C260.82 307.077 261.502 307.376 262.42 307.376Z" fill="#4F4F4F"/>
<path d="M11.064 134H10.072L3.448 124.016H3.4C3.42133 124.432 3.43733 124.875 3.448 125.344C3.46933 125.803 3.48 126.283 3.48 126.784V134H2.6V122.576H3.592L10.2 132.528H10.248C10.2267 132.197 10.2107 131.776 10.2 131.264C10.1893 130.752 10.184 130.272 10.184 129.824V122.576H11.064V134ZM21.1843 129.728C21.1843 130.624 21.0349 131.403 20.7362 132.064C20.4483 132.725 20.0163 133.243 19.4403 133.616C18.8749 133.979 18.1816 134.16 17.3602 134.16C16.5709 134.16 15.8936 133.979 15.3283 133.616C14.7629 133.253 14.3256 132.741 14.0163 132.08C13.7176 131.408 13.5683 130.624 13.5683 129.728C13.5683 128.352 13.9096 127.275 14.5923 126.496C15.2749 125.717 16.2189 125.328 17.4243 125.328C18.2349 125.328 18.9176 125.515 19.4723 125.888C20.0376 126.251 20.4643 126.763 20.7523 127.424C21.0403 128.085 21.1843 128.853 21.1843 129.728ZM14.5123 129.728C14.5123 130.827 14.7416 131.712 15.2003 132.384C15.6696 133.045 16.3949 133.376 17.3763 133.376C18.3683 133.376 19.0936 133.04 19.5523 132.368C20.0109 131.696 20.2403 130.816 20.2403 129.728C20.2403 129.024 20.1443 128.4 19.9523 127.856C19.7603 127.312 19.4563 126.885 19.0403 126.576C18.6243 126.267 18.0803 126.112 17.4083 126.112C16.4483 126.112 15.7229 126.432 15.2323 127.072C14.7523 127.712 14.5123 128.597 14.5123 129.728ZM27.0058 125.344C27.4218 125.344 27.8058 125.387 28.1578 125.472L28.0138 126.32C27.6724 126.224 27.3204 126.176 26.9578 126.176C26.1791 126.176 25.5604 126.464 25.1018 127.04C24.6431 127.616 24.4138 128.379 24.4138 129.328V134H23.5018V125.488H24.2698L24.3658 127.072H24.4138C24.6271 126.592 24.9524 126.187 25.3898 125.856C25.8271 125.515 26.3658 125.344 27.0058 125.344ZM38.6946 125.328C39.5373 125.328 40.1933 125.568 40.6626 126.048C41.1426 126.528 41.3826 127.285 41.3826 128.32V134H40.4866V128.352C40.4866 127.595 40.3106 127.035 39.9586 126.672C39.6173 126.299 39.1533 126.112 38.5666 126.112C37.756 126.112 37.132 126.352 36.6946 126.832C36.2573 127.301 36.0386 128.032 36.0386 129.024V134H35.1426V128.352C35.1426 127.595 34.9666 127.035 34.6146 126.672C34.2733 126.299 33.8093 126.112 33.2226 126.112C32.412 126.112 31.788 126.363 31.3506 126.864C30.924 127.365 30.7106 128.133 30.7106 129.168V134H29.7986V125.488H30.5346L30.6626 126.832H30.7266C30.94 126.416 31.26 126.064 31.6866 125.776C32.124 125.477 32.6786 125.328 33.3506 125.328C33.9693 125.328 34.492 125.461 34.9186 125.728C35.3453 125.995 35.6493 126.389 35.8306 126.912H35.8786C36.124 126.411 36.4866 126.021 36.9666 125.744C37.4573 125.467 38.0333 125.328 38.6946 125.328ZM47.1035 125.344C48.0635 125.344 48.7782 125.579 49.2475 126.048C49.7168 126.517 49.9515 127.259 49.9515 128.272V134H49.2635L49.1035 132.56H49.0555C48.7462 133.04 48.3675 133.429 47.9195 133.728C47.4822 134.016 46.8688 134.16 46.0795 134.16C45.2582 134.16 44.6128 133.957 44.1435 133.552C43.6742 133.136 43.4395 132.544 43.4395 131.776C43.4395 130.923 43.7862 130.277 44.4795 129.84C45.1728 129.392 46.1808 129.141 47.5035 129.088L49.0555 129.008V128.416C49.0555 127.584 48.8848 126.992 48.5435 126.64C48.2128 126.288 47.7222 126.112 47.0715 126.112C46.6342 126.112 46.2128 126.171 45.8075 126.288C45.4022 126.405 44.9968 126.56 44.5915 126.752L44.3035 126.016C44.7088 125.824 45.1462 125.664 45.6155 125.536C46.0955 125.408 46.5915 125.344 47.1035 125.344ZM47.6155 129.76C46.5275 129.813 45.7168 130.005 45.1835 130.336C44.6608 130.656 44.3995 131.136 44.3995 131.776C44.3995 132.309 44.5595 132.715 44.8795 132.992C45.2102 133.259 45.6635 133.392 46.2395 133.392C47.1248 133.392 47.8128 133.141 48.3035 132.64C48.7942 132.128 49.0448 131.424 49.0555 130.528V129.696L47.6155 129.76ZM53.5856 134H52.6736V121.84H53.5856V134Z" fill="#4F4F4F"/>
<path d="M11.064 308H10.072L3.448 298.016H3.4C3.42133 298.432 3.43733 298.875 3.448 299.344C3.46933 299.803 3.48 300.283 3.48 300.784V308H2.6V296.576H3.592L10.2 306.528H10.248C10.2267 306.197 10.2107 305.776 10.2 305.264C10.1893 304.752 10.184 304.272 10.184 303.824V296.576H11.064V308ZM21.1843 303.728C21.1843 304.624 21.0349 305.403 20.7362 306.064C20.4483 306.725 20.0163 307.243 19.4403 307.616C18.8749 307.979 18.1816 308.16 17.3602 308.16C16.5709 308.16 15.8936 307.979 15.3283 307.616C14.7629 307.253 14.3256 306.741 14.0163 306.08C13.7176 305.408 13.5683 304.624 13.5683 303.728C13.5683 302.352 13.9096 301.275 14.5923 300.496C15.2749 299.717 16.2189 299.328 17.4243 299.328C18.2349 299.328 18.9176 299.515 19.4723 299.888C20.0376 300.251 20.4643 300.763 20.7523 301.424C21.0403 302.085 21.1843 302.853 21.1843 303.728ZM14.5123 303.728C14.5123 304.827 14.7416 305.712 15.2003 306.384C15.6696 307.045 16.3949 307.376 17.3763 307.376C18.3683 307.376 19.0936 307.04 19.5523 306.368C20.0109 305.696 20.2403 304.816 20.2403 303.728C20.2403 303.024 20.1443 302.4 19.9523 301.856C19.7603 301.312 19.4563 300.885 19.0403 300.576C18.6243 300.267 18.0803 300.112 17.4083 300.112C16.4483 300.112 15.7229 300.432 15.2323 301.072C14.7523 301.712 14.5123 302.597 14.5123 303.728ZM27.0058 299.344C27.4218 299.344 27.8058 299.387 28.1578 299.472L28.0138 300.32C27.6724 300.224 27.3204 300.176 26.9578 300.176C26.1791 300.176 25.5604 300.464 25.1018 301.04C24.6431 301.616 24.4138 302.379 24.4138 303.328V308H23.5018V299.488H24.2698L24.3658 301.072H24.4138C24.6271 300.592 24.9524 300.187 25.3898 299.856C25.8271 299.515 26.3658 299.344 27.0058 299.344ZM38.6946 299.328C39.5373 299.328 40.1933 299.568 40.6626 300.048C41.1426 300.528 41.3826 301.285 41.3826 302.32V308H40.4866V302.352C40.4866 301.595 40.3106 301.035 39.9586 300.672C39.6173 300.299 39.1533 300.112 38.5666 300.112C37.756 300.112 37.132 300.352 36.6946 300.832C36.2573 301.301 36.0386 302.032 36.0386 303.024V308H35.1426V302.352C35.1426 301.595 34.9666 301.035 34.6146 300.672C34.2733 300.299 33.8093 300.112 33.2226 300.112C32.412 300.112 31.788 300.363 31.3506 300.864C30.924 301.365 30.7106 302.133 30.7106 303.168V308H29.7986V299.488H30.5346L30.6626 300.832H30.7266C30.94 300.416 31.26 300.064 31.6866 299.776C32.124 299.477 32.6786 299.328 33.3506 299.328C33.9693 299.328 34.492 299.461 34.9186 299.728C35.3453 299.995 35.6493 300.389 35.8306 300.912H35.8786C36.124 300.411 36.4866 300.021 36.9666 299.744C37.4573 299.467 38.0333 299.328 38.6946 299.328ZM47.1035 299.344C48.0635 299.344 48.7782 299.579 49.2475 300.048C49.7168 300.517 49.9515 301.259 49.9515 302.272V308H49.2635L49.1035 306.56H49.0555C48.7462 307.04 48.3675 307.429 47.9195 307.728C47.4822 308.016 46.8688 308.16 46.0795 308.16C45.2582 308.16 44.6128 307.957 44.1435 307.552C43.6742 307.136 43.4395 306.544 43.4395 305.776C43.4395 304.923 43.7862 304.277 44.4795 303.84C45.1728 303.392 46.1808 303.141 47.5035 303.088L49.0555 303.008V302.416C49.0555 301.584 48.8848 300.992 48.5435 300.64C48.2128 300.288 47.7222 300.112 47.0715 300.112C46.6342 300.112 46.2128 300.171 45.8075 300.288C45.4022 300.405 44.9968 300.56 44.5915 300.752L44.3035 300.016C44.7088 299.824 45.1462 299.664 45.6155 299.536C46.0955 299.408 46.5915 299.344 47.1035 299.344ZM47.6155 303.76C46.5275 303.813 45.7168 304.005 45.1835 304.336C44.6608 304.656 44.3995 305.136 44.3995 305.776C44.3995 306.309 44.5595 306.715 44.8795 306.992C45.2102 307.259 45.6635 307.392 46.2395 307.392C47.1248 307.392 47.8128 307.141 48.3035 306.64C48.7942 306.128 49.0448 305.424 49.0555 304.528V303.696L47.6155 303.76ZM53.5856 308H52.6736V295.84H53.5856V308Z" fill="#4F4F4F"/>
<path d="M4.72 256.576C6.21333 256.576 7.30133 256.88 7.984 257.488C8.66667 258.085 9.008 258.923 9.008 260C9.008 260.64 8.864 261.237 8.576 261.792C8.29867 262.347 7.82933 262.8 7.168 263.152C6.50667 263.493 5.61067 263.664 4.48 263.664H3.248V268H1.52V256.576H4.72ZM4.592 258.032H3.248V262.208H4.288C5.25867 262.208 5.98933 262.043 6.48 261.712C6.98133 261.381 7.232 260.832 7.232 260.064C7.232 259.381 7.01867 258.875 6.592 258.544C6.16533 258.203 5.49867 258.032 4.592 258.032ZM15.3809 259.216C15.5302 259.216 15.6902 259.227 15.8609 259.248C16.0422 259.259 16.1969 259.275 16.3249 259.296L16.1489 260.88C15.8715 260.805 15.5835 260.768 15.2849 260.768C14.8582 260.768 14.4529 260.875 14.0689 261.088C13.6955 261.301 13.3915 261.611 13.1569 262.016C12.9329 262.411 12.8209 262.891 12.8209 263.456V268H11.1249V259.376H12.4689L12.6929 260.912H12.7569C13.0342 260.453 13.3915 260.059 13.8289 259.728C14.2662 259.387 14.7835 259.216 15.3809 259.216ZM18.7858 256.096C19.0418 256.096 19.2658 256.171 19.4578 256.32C19.6498 256.469 19.7458 256.72 19.7458 257.072C19.7458 257.413 19.6498 257.664 19.4578 257.824C19.2658 257.973 19.0418 258.048 18.7858 258.048C18.5084 258.048 18.2738 257.973 18.0818 257.824C17.9004 257.664 17.8098 257.413 17.8098 257.072C17.8098 256.72 17.9004 256.469 18.0818 256.32C18.2738 256.171 18.5084 256.096 18.7858 256.096ZM19.6178 259.376V268H17.9218V259.376H19.6178ZM31.9451 259.216C32.9158 259.216 33.6465 259.467 34.1371 259.968C34.6278 260.469 34.8731 261.275 34.8731 262.384V268H33.1771V262.608C33.1771 261.275 32.6385 260.608 31.5611 260.608C30.7931 260.608 30.2438 260.848 29.9131 261.328C29.5825 261.797 29.4171 262.475 29.4171 263.36V268H27.7371V262.608C27.7371 261.275 27.1931 260.608 26.1051 260.608C25.2945 260.608 24.7345 260.869 24.4251 261.392C24.1265 261.915 23.9771 262.667 23.9771 263.648V268H22.2811V259.376H23.6251L23.8651 260.528H23.9611C24.2171 260.08 24.5745 259.749 25.0331 259.536C25.4918 259.323 25.9771 259.216 26.4891 259.216C27.8225 259.216 28.6971 259.68 29.1131 260.608H29.2411C29.5185 260.128 29.9025 259.776 30.3931 259.552C30.8838 259.328 31.4011 259.216 31.9451 259.216ZM40.8126 259.216C41.89 259.216 42.6953 259.456 43.2286 259.936C43.7726 260.405 44.0446 261.147 44.0446 262.16V268H42.8446L42.5086 266.8H42.4446C42.0713 267.269 41.6766 267.616 41.2606 267.84C40.8553 268.053 40.29 268.16 39.5646 268.16C38.786 268.16 38.1406 267.952 37.6286 267.536C37.1166 267.109 36.8606 266.448 36.8606 265.552C36.8606 264.677 37.1913 264.011 37.8526 263.552C38.514 263.093 39.5326 262.843 40.9086 262.8L42.3806 262.752V262.272C42.3806 261.643 42.2366 261.2 41.9486 260.944C41.6606 260.677 41.2553 260.544 40.7326 260.544C40.2953 260.544 39.874 260.608 39.4686 260.736C39.0633 260.864 38.674 261.019 38.3006 261.2L37.7566 259.968C38.162 259.755 38.626 259.579 39.1486 259.44C39.682 259.291 40.2366 259.216 40.8126 259.216ZM41.2126 263.888C40.2313 263.931 39.5486 264.096 39.1646 264.384C38.7913 264.661 38.6046 265.056 38.6046 265.568C38.6046 266.016 38.738 266.341 39.0046 266.544C39.2713 266.747 39.618 266.848 40.0446 266.848C40.706 266.848 41.2553 266.661 41.6926 266.288C42.1406 265.915 42.3646 265.355 42.3646 264.608V263.856L41.2126 263.888ZM50.9121 259.216C51.0615 259.216 51.2215 259.227 51.3921 259.248C51.5735 259.259 51.7281 259.275 51.8561 259.296L51.6801 260.88C51.4028 260.805 51.1148 260.768 50.8161 260.768C50.3895 260.768 49.9841 260.875 49.6001 261.088C49.2268 261.301 48.9228 261.611 48.6881 262.016C48.4641 262.411 48.3521 262.891 48.3521 263.456V268H46.6561V259.376H48.0001L48.2241 260.912H48.2881C48.5655 260.453 48.9228 260.059 49.3601 259.728C49.7975 259.387 50.3148 259.216 50.9121 259.216ZM52.141 259.376H53.965L55.757 264.272C55.8957 264.645 56.013 265.008 56.109 265.36C56.2157 265.701 56.2957 266.037 56.349 266.368H56.413C56.4663 266.091 56.5463 265.765 56.653 265.392C56.7703 265.019 56.8983 264.64 57.037 264.256L58.733 259.376H60.557L56.861 269.168C56.5517 270 56.1357 270.651 55.613 271.12C55.101 271.6 54.429 271.84 53.597 271.84C53.3303 271.84 53.101 271.824 52.909 271.792C52.717 271.771 52.5517 271.744 52.413 271.712V270.368C52.5197 270.389 52.6583 270.411 52.829 270.432C52.9997 270.453 53.1757 270.464 53.357 270.464C53.8477 270.464 54.2423 270.32 54.541 270.032C54.8397 269.755 55.0743 269.387 55.245 268.928L55.597 268L52.141 259.376ZM67.7428 258.768C67.7428 259.12 67.7321 259.456 67.7108 259.776C67.6894 260.096 67.6734 260.341 67.6628 260.512H67.7428C67.9774 260.149 68.3028 259.845 68.7188 259.6C69.1454 259.355 69.6894 259.232 70.3508 259.232C71.3854 259.232 72.2174 259.605 72.8468 260.352C73.4868 261.099 73.8068 262.208 73.8068 263.68C73.8068 265.163 73.4868 266.283 72.8468 267.04C72.2068 267.787 71.3694 268.16 70.3348 268.16C69.6628 268.16 69.1188 268.043 68.7028 267.808C68.2974 267.563 67.9774 267.275 67.7428 266.944H67.6148L67.2948 268H66.0468V255.84H67.7428V258.768ZM69.9508 260.608C69.1188 260.608 68.5428 260.853 68.2228 261.344C67.9028 261.824 67.7428 262.565 67.7428 263.568V263.696C67.7428 264.688 67.8974 265.451 68.2068 265.984C68.5268 266.507 69.1188 266.768 69.9828 266.768C70.6654 266.768 71.1828 266.501 71.5348 265.968C71.8868 265.435 72.0628 264.667 72.0628 263.664C72.0628 261.627 71.3588 260.608 69.9508 260.608ZM83.3926 259.376V268H82.0326L81.7926 266.864H81.7126C81.4353 267.312 81.0513 267.643 80.5606 267.856C80.07 268.059 79.5526 268.16 79.0086 268.16C77.9953 268.16 77.222 267.909 76.6886 267.408C76.1553 266.907 75.8886 266.112 75.8886 265.024V259.376H77.6006V264.768C77.6006 266.101 78.182 266.768 79.3446 266.768C80.23 266.768 80.8433 266.507 81.1846 265.984C81.526 265.461 81.6966 264.715 81.6966 263.744V259.376H83.3926ZM89.1508 266.784C89.3748 266.784 89.6041 266.768 89.8388 266.736C90.0734 266.693 90.2761 266.64 90.4468 266.576V267.856C90.2548 267.941 90.0041 268.011 89.6948 268.064C89.3961 268.128 89.0921 268.16 88.7828 268.16C88.3134 268.16 87.8814 268.08 87.4868 267.92C87.0921 267.76 86.7774 267.483 86.5428 267.088C86.3188 266.693 86.2068 266.144 86.2068 265.44V260.672H85.0068V259.904L86.2708 259.264L86.8628 257.44H87.9028V259.376H90.3668V260.672H87.9028V265.408C87.9028 265.877 88.0148 266.224 88.2388 266.448C88.4734 266.672 88.7774 266.784 89.1508 266.784ZM95.2758 266.784C95.4998 266.784 95.7291 266.768 95.9638 266.736C96.1984 266.693 96.4011 266.64 96.5718 266.576V267.856C96.3798 267.941 96.1291 268.011 95.8198 268.064C95.5211 268.128 95.2171 268.16 94.9078 268.16C94.4384 268.16 94.0064 268.08 93.6118 267.92C93.2171 267.76 92.9024 267.483 92.6678 267.088C92.4438 266.693 92.3318 266.144 92.3318 265.44V260.672H91.1318V259.904L92.3958 259.264L92.9878 257.44H94.0278V259.376H96.4918V260.672H94.0278V265.408C94.0278 265.877 94.1398 266.224 94.3638 266.448C94.5984 266.672 94.9024 266.784 95.2758 266.784ZM105.897 263.68C105.897 265.109 105.529 266.213 104.793 266.992C104.057 267.771 103.065 268.16 101.817 268.16C101.038 268.16 100.345 267.984 99.7368 267.632C99.1394 267.28 98.6648 266.773 98.3128 266.112C97.9714 265.44 97.8008 264.629 97.8008 263.68C97.8008 262.251 98.1634 261.152 98.8888 260.384C99.6141 259.605 100.606 259.216 101.865 259.216C102.654 259.216 103.347 259.392 103.945 259.744C104.553 260.085 105.027 260.587 105.369 261.248C105.721 261.909 105.897 262.72 105.897 263.68ZM99.5448 263.68C99.5448 264.651 99.7261 265.408 100.089 265.952C100.462 266.496 101.049 266.768 101.849 266.768C102.649 266.768 103.23 266.496 103.593 265.952C103.966 265.408 104.153 264.651 104.153 263.68C104.153 262.699 103.966 261.947 103.593 261.424C103.219 260.891 102.633 260.624 101.833 260.624C101.033 260.624 100.451 260.891 100.089 261.424C99.7261 261.947 99.5448 262.699 99.5448 263.68ZM112.415 259.216C113.417 259.216 114.185 259.467 114.719 259.968C115.252 260.469 115.519 261.275 115.519 262.384V268H113.839V262.624C113.839 261.28 113.247 260.608 112.063 260.608C111.177 260.608 110.569 260.869 110.239 261.392C109.908 261.915 109.743 262.667 109.743 263.648V268H108.047V259.376H109.391L109.631 260.528H109.727C110.004 260.08 110.383 259.749 110.863 259.536C111.353 259.323 111.871 259.216 112.415 259.216Z" fill="#7C6436"/>
</svg>
