<svg width="5569" height="6124" viewBox="0 0 5569 6124" fill="none" xmlns="http://www.w3.org/2000/svg">
<rect y="2658" width="902" height="1010" fill="#C4C4C4"/>
<rect x="1271" y="202" width="902" height="1010" fill="#C4C4C4"/>
<rect x="2403" y="202" width="902" height="1010" fill="#C4C4C4"/>
<rect x="3535" y="202" width="902" height="1010" fill="#C4C4C4"/>
<rect x="4667" y="202" width="902" height="1010" fill="#C4C4C4"/>
<rect x="1271" y="1778" width="902" height="1010" fill="#C4C4C4"/>
<rect x="1271" y="3354" width="902" height="1010" fill="#C4C4C4"/>
<rect x="1271" y="5114" width="902" height="1010" fill="#C4C4C4"/>
<path d="M347.12 2514H353.04V2570H347.12V2514ZM393.501 2527.6C398.781 2527.6 402.967 2529.15 406.061 2532.24C409.207 2535.28 410.781 2539.73 410.781 2545.6V2570H405.101V2546.16C405.101 2541.79 404.007 2538.45 401.821 2536.16C399.634 2533.87 396.514 2532.72 392.461 2532.72C387.927 2532.72 384.327 2534.08 381.661 2536.8C379.047 2539.47 377.741 2543.17 377.741 2547.92V2570H372.061V2527.92H377.501V2535.68C379.047 2533.12 381.181 2531.15 383.901 2529.76C386.674 2528.32 389.874 2527.6 393.501 2527.6ZM428.201 2527.92H433.881V2570H428.201V2527.92ZM431.081 2518.72C429.908 2518.72 428.921 2518.32 428.121 2517.52C427.321 2516.72 426.921 2515.76 426.921 2514.64C426.921 2513.57 427.321 2512.64 428.121 2511.84C428.921 2511.04 429.908 2510.64 431.081 2510.64C432.255 2510.64 433.241 2511.04 434.041 2511.84C434.841 2512.59 435.241 2513.49 435.241 2514.56C435.241 2515.73 434.841 2516.72 434.041 2517.52C433.241 2518.32 432.255 2518.72 431.081 2518.72ZM469.126 2570.4C464.966 2570.4 461.232 2569.49 457.926 2567.68C454.672 2565.87 452.112 2563.33 450.246 2560.08C448.379 2556.77 447.446 2553.07 447.446 2548.96C447.446 2544.85 448.379 2541.17 450.246 2537.92C452.112 2534.67 454.672 2532.13 457.926 2530.32C461.232 2528.51 464.966 2527.6 469.126 2527.6C472.752 2527.6 475.979 2528.32 478.806 2529.76C481.686 2531.15 483.952 2533.2 485.606 2535.92L481.366 2538.8C479.979 2536.72 478.219 2535.17 476.086 2534.16C473.952 2533.09 471.632 2532.56 469.126 2532.56C466.086 2532.56 463.339 2533.25 460.886 2534.64C458.486 2535.97 456.592 2537.89 455.206 2540.4C453.872 2542.91 453.206 2545.76 453.206 2548.96C453.206 2552.21 453.872 2555.09 455.206 2557.6C456.592 2560.05 458.486 2561.97 460.886 2563.36C463.339 2564.69 466.086 2565.36 469.126 2565.36C471.632 2565.36 473.952 2564.85 476.086 2563.84C478.219 2562.83 479.979 2561.28 481.366 2559.2L485.606 2562.08C483.952 2564.8 481.686 2566.88 478.806 2568.32C475.926 2569.71 472.699 2570.4 469.126 2570.4ZM498.764 2527.92H504.444V2570H498.764V2527.92ZM501.644 2518.72C500.47 2518.72 499.484 2518.32 498.684 2517.52C497.884 2516.72 497.484 2515.76 497.484 2514.64C497.484 2513.57 497.884 2512.64 498.684 2511.84C499.484 2511.04 500.47 2510.64 501.644 2510.64C502.817 2510.64 503.804 2511.04 504.604 2511.84C505.404 2512.59 505.804 2513.49 505.804 2514.56C505.804 2515.73 505.404 2516.72 504.604 2517.52C503.804 2518.32 502.817 2518.72 501.644 2518.72ZM539.448 2570.4C535.395 2570.4 531.741 2569.49 528.488 2567.68C525.235 2565.81 522.675 2563.25 520.808 2560C518.941 2556.75 518.008 2553.07 518.008 2548.96C518.008 2544.85 518.941 2541.17 520.808 2537.92C522.675 2534.67 525.235 2532.13 528.488 2530.32C531.741 2528.51 535.395 2527.6 539.448 2527.6C543.501 2527.6 547.155 2528.51 550.408 2530.32C553.661 2532.13 556.195 2534.67 558.008 2537.92C559.875 2541.17 560.808 2544.85 560.808 2548.96C560.808 2553.07 559.875 2556.75 558.008 2560C556.195 2563.25 553.661 2565.81 550.408 2567.68C547.155 2569.49 543.501 2570.4 539.448 2570.4ZM539.448 2565.36C542.435 2565.36 545.101 2564.69 547.448 2563.36C549.848 2561.97 551.715 2560.03 553.048 2557.52C554.381 2555.01 555.048 2552.16 555.048 2548.96C555.048 2545.76 554.381 2542.91 553.048 2540.4C551.715 2537.89 549.848 2535.97 547.448 2534.64C545.101 2533.25 542.435 2532.56 539.448 2532.56C536.461 2532.56 533.768 2533.25 531.368 2534.64C529.021 2535.97 527.155 2537.89 525.768 2540.4C524.435 2542.91 523.768 2545.76 523.768 2548.96C523.768 2552.16 524.435 2555.01 525.768 2557.52C527.155 2560.03 529.021 2561.97 531.368 2563.36C533.768 2564.69 536.461 2565.36 539.448 2565.36Z" fill="black"/>
<path d="M1525.12 1628H1547.92C1553.84 1628 1559.07 1629.2 1563.6 1631.6C1568.13 1633.95 1571.65 1637.25 1574.16 1641.52C1576.67 1645.73 1577.92 1650.56 1577.92 1656C1577.92 1661.44 1576.67 1666.29 1574.16 1670.56C1571.65 1674.77 1568.13 1678.08 1563.6 1680.48C1559.07 1682.83 1553.84 1684 1547.92 1684H1525.12V1628ZM1547.6 1678.88C1552.51 1678.88 1556.8 1677.92 1560.48 1676C1564.16 1674.03 1567.01 1671.33 1569.04 1667.92C1571.07 1664.45 1572.08 1660.48 1572.08 1656C1572.08 1651.52 1571.07 1647.57 1569.04 1644.16C1567.01 1640.69 1564.16 1638 1560.48 1636.08C1556.8 1634.11 1552.51 1633.12 1547.6 1633.12H1531.04V1678.88H1547.6ZM1628.65 1664.72H1593.45C1593.77 1669.09 1595.45 1672.64 1598.49 1675.36C1601.53 1678.03 1605.37 1679.36 1610.01 1679.36C1612.63 1679.36 1615.03 1678.91 1617.21 1678C1619.4 1677.04 1621.29 1675.65 1622.89 1673.84L1626.09 1677.52C1624.23 1679.76 1621.88 1681.47 1619.05 1682.64C1616.28 1683.81 1613.21 1684.4 1609.85 1684.4C1605.53 1684.4 1601.69 1683.49 1598.33 1681.68C1595.03 1679.81 1592.44 1677.25 1590.57 1674C1588.71 1670.75 1587.77 1667.07 1587.77 1662.96C1587.77 1658.85 1588.65 1655.17 1590.41 1651.92C1592.23 1648.67 1594.68 1646.13 1597.77 1644.32C1600.92 1642.51 1604.44 1641.6 1608.33 1641.6C1612.23 1641.6 1615.72 1642.51 1618.81 1644.32C1621.91 1646.13 1624.33 1648.67 1626.09 1651.92C1627.85 1655.12 1628.73 1658.8 1628.73 1662.96L1628.65 1664.72ZM1608.33 1646.48C1604.28 1646.48 1600.87 1647.79 1598.09 1650.4C1595.37 1652.96 1593.83 1656.32 1593.45 1660.48H1623.29C1622.92 1656.32 1621.35 1652.96 1618.57 1650.4C1615.85 1647.79 1612.44 1646.48 1608.33 1646.48ZM1642.3 1624.64H1647.98V1684H1642.3V1624.64ZM1665.78 1641.92H1671.46V1684H1665.78V1641.92ZM1668.66 1632.72C1667.49 1632.72 1666.5 1632.32 1665.7 1631.52C1664.9 1630.72 1664.5 1629.76 1664.5 1628.64C1664.5 1627.57 1664.9 1626.64 1665.7 1625.84C1666.5 1625.04 1667.49 1624.64 1668.66 1624.64C1669.83 1624.64 1670.82 1625.04 1671.62 1625.84C1672.42 1626.59 1672.82 1627.49 1672.82 1628.56C1672.82 1629.73 1672.42 1630.72 1671.62 1631.52C1670.82 1632.32 1669.83 1632.72 1668.66 1632.72ZM1724.62 1641.92L1705.9 1684H1700.06L1681.42 1641.92H1687.34L1703.1 1677.76L1719.02 1641.92H1724.62ZM1770.09 1664.72H1734.89C1735.21 1669.09 1736.89 1672.64 1739.93 1675.36C1742.97 1678.03 1746.81 1679.36 1751.45 1679.36C1754.06 1679.36 1756.46 1678.91 1758.65 1678C1760.84 1677.04 1762.73 1675.65 1764.33 1673.84L1767.53 1677.52C1765.66 1679.76 1763.32 1681.47 1760.49 1682.64C1757.72 1683.81 1754.65 1684.4 1751.29 1684.4C1746.97 1684.4 1743.13 1683.49 1739.77 1681.68C1736.46 1679.81 1733.88 1677.25 1732.01 1674C1730.14 1670.75 1729.21 1667.07 1729.21 1662.96C1729.21 1658.85 1730.09 1655.17 1731.85 1651.92C1733.66 1648.67 1736.12 1646.13 1739.21 1644.32C1742.36 1642.51 1745.88 1641.6 1749.77 1641.6C1753.66 1641.6 1757.16 1642.51 1760.25 1644.32C1763.34 1646.13 1765.77 1648.67 1767.53 1651.92C1769.29 1655.12 1770.17 1658.8 1770.17 1662.96L1770.09 1664.72ZM1749.77 1646.48C1745.72 1646.48 1742.3 1647.79 1739.53 1650.4C1736.81 1652.96 1735.26 1656.32 1734.89 1660.48H1764.73C1764.36 1656.32 1762.78 1652.96 1760.01 1650.4C1757.29 1647.79 1753.88 1646.48 1749.77 1646.48ZM1789.17 1650.16C1790.51 1647.33 1792.48 1645.2 1795.09 1643.76C1797.76 1642.32 1801.04 1641.6 1804.93 1641.6V1647.12L1803.57 1647.04C1799.15 1647.04 1795.68 1648.4 1793.17 1651.12C1790.67 1653.84 1789.41 1657.65 1789.41 1662.56V1684H1783.73V1641.92H1789.17V1650.16ZM1854.37 1641.92L1833.33 1689.04C1831.63 1692.99 1829.65 1695.79 1827.41 1697.44C1825.17 1699.09 1822.48 1699.92 1819.33 1699.92C1817.31 1699.92 1815.41 1699.6 1813.65 1698.96C1811.89 1698.32 1810.37 1697.36 1809.09 1696.08L1811.73 1691.84C1813.87 1693.97 1816.43 1695.04 1819.41 1695.04C1821.33 1695.04 1822.96 1694.51 1824.29 1693.44C1825.68 1692.37 1826.96 1690.56 1828.13 1688L1829.97 1683.92L1811.17 1641.92H1817.09L1832.93 1677.68L1848.77 1641.92H1854.37Z" fill="black"/>
<path d="M1590.92 3136V3192H1586.04L1550.04 3146.56V3192H1544.12V3136H1549L1585.08 3181.44V3136H1590.92ZM1627.2 3192.4C1623.14 3192.4 1619.49 3191.49 1616.24 3189.68C1612.98 3187.81 1610.42 3185.25 1608.56 3182C1606.69 3178.75 1605.76 3175.07 1605.76 3170.96C1605.76 3166.85 1606.69 3163.17 1608.56 3159.92C1610.42 3156.67 1612.98 3154.13 1616.24 3152.32C1619.49 3150.51 1623.14 3149.6 1627.2 3149.6C1631.25 3149.6 1634.9 3150.51 1638.16 3152.32C1641.41 3154.13 1643.94 3156.67 1645.76 3159.92C1647.62 3163.17 1648.56 3166.85 1648.56 3170.96C1648.56 3175.07 1647.62 3178.75 1645.76 3182C1643.94 3185.25 1641.41 3187.81 1638.16 3189.68C1634.9 3191.49 1631.25 3192.4 1627.2 3192.4ZM1627.2 3187.36C1630.18 3187.36 1632.85 3186.69 1635.2 3185.36C1637.6 3183.97 1639.46 3182.03 1640.8 3179.52C1642.13 3177.01 1642.8 3174.16 1642.8 3170.96C1642.8 3167.76 1642.13 3164.91 1640.8 3162.4C1639.46 3159.89 1637.6 3157.97 1635.2 3156.64C1632.85 3155.25 1630.18 3154.56 1627.2 3154.56C1624.21 3154.56 1621.52 3155.25 1619.12 3156.64C1616.77 3157.97 1614.9 3159.89 1613.52 3162.4C1612.18 3164.91 1611.52 3167.76 1611.52 3170.96C1611.52 3174.16 1612.18 3177.01 1613.52 3179.52C1614.9 3182.03 1616.77 3183.97 1619.12 3185.36C1621.52 3186.69 1624.21 3187.36 1627.2 3187.36ZM1673.43 3192.4C1670.02 3192.4 1666.74 3191.92 1663.59 3190.96C1660.5 3189.95 1658.07 3188.69 1656.31 3187.2L1658.87 3182.72C1660.63 3184.11 1662.85 3185.25 1665.51 3186.16C1668.18 3187.01 1670.95 3187.44 1673.83 3187.44C1677.67 3187.44 1680.5 3186.85 1682.31 3185.68C1684.18 3184.45 1685.11 3182.75 1685.11 3180.56C1685.11 3179.01 1684.61 3177.81 1683.59 3176.96C1682.58 3176.05 1681.3 3175.39 1679.75 3174.96C1678.21 3174.48 1676.15 3174.03 1673.59 3173.6C1670.18 3172.96 1667.43 3172.32 1665.35 3171.68C1663.27 3170.99 1661.49 3169.84 1659.99 3168.24C1658.55 3166.64 1657.83 3164.43 1657.83 3161.6C1657.83 3158.08 1659.3 3155.2 1662.23 3152.96C1665.17 3150.72 1669.25 3149.6 1674.47 3149.6C1677.19 3149.6 1679.91 3149.97 1682.63 3150.72C1685.35 3151.41 1687.59 3152.35 1689.35 3153.52L1686.87 3158.08C1683.41 3155.68 1679.27 3154.48 1674.47 3154.48C1670.85 3154.48 1668.1 3155.12 1666.23 3156.4C1664.42 3157.68 1663.51 3159.36 1663.51 3161.44C1663.51 3163.04 1664.02 3164.32 1665.03 3165.28C1666.1 3166.24 1667.41 3166.96 1668.95 3167.44C1670.5 3167.87 1672.63 3168.32 1675.35 3168.8C1678.71 3169.44 1681.41 3170.08 1683.43 3170.72C1685.46 3171.36 1687.19 3172.45 1688.63 3174C1690.07 3175.55 1690.79 3177.68 1690.79 3180.4C1690.79 3184.08 1689.25 3187.01 1686.15 3189.2C1683.11 3191.33 1678.87 3192.4 1673.43 3192.4ZM1720.5 3192.4C1716.44 3192.4 1712.79 3191.49 1709.54 3189.68C1706.28 3187.81 1703.72 3185.25 1701.86 3182C1699.99 3178.75 1699.06 3175.07 1699.06 3170.96C1699.06 3166.85 1699.99 3163.17 1701.86 3159.92C1703.72 3156.67 1706.28 3154.13 1709.54 3152.32C1712.79 3150.51 1716.44 3149.6 1720.5 3149.6C1724.55 3149.6 1728.2 3150.51 1731.46 3152.32C1734.71 3154.13 1737.24 3156.67 1739.06 3159.92C1740.92 3163.17 1741.86 3166.85 1741.86 3170.96C1741.86 3175.07 1740.92 3178.75 1739.06 3182C1737.24 3185.25 1734.71 3187.81 1731.46 3189.68C1728.2 3191.49 1724.55 3192.4 1720.5 3192.4ZM1720.5 3187.36C1723.48 3187.36 1726.15 3186.69 1728.5 3185.36C1730.9 3183.97 1732.76 3182.03 1734.1 3179.52C1735.43 3177.01 1736.1 3174.16 1736.1 3170.96C1736.1 3167.76 1735.43 3164.91 1734.1 3162.4C1732.76 3159.89 1730.9 3157.97 1728.5 3156.64C1726.15 3155.25 1723.48 3154.56 1720.5 3154.56C1717.51 3154.56 1714.82 3155.25 1712.42 3156.64C1710.07 3157.97 1708.2 3159.89 1706.82 3162.4C1705.48 3164.91 1704.82 3167.76 1704.82 3170.96C1704.82 3174.16 1705.48 3177.01 1706.82 3179.52C1708.2 3182.03 1710.07 3183.97 1712.42 3185.36C1714.82 3186.69 1717.51 3187.36 1720.5 3187.36ZM1777.61 3189.44C1776.54 3190.4 1775.21 3191.15 1773.61 3191.68C1772.06 3192.16 1770.44 3192.4 1768.73 3192.4C1764.78 3192.4 1761.74 3191.33 1759.61 3189.2C1757.48 3187.07 1756.41 3184.05 1756.41 3180.16V3154.72H1748.89V3149.92H1756.41V3140.72H1762.09V3149.92H1774.89V3154.72H1762.09V3179.84C1762.09 3182.35 1762.7 3184.27 1763.93 3185.6C1765.21 3186.88 1767.02 3187.52 1769.37 3187.52C1770.54 3187.52 1771.66 3187.33 1772.73 3186.96C1773.85 3186.59 1774.81 3186.05 1775.61 3185.36L1777.61 3189.44ZM1795.39 3158.16C1796.72 3155.33 1798.7 3153.2 1801.31 3151.76C1803.98 3150.32 1807.26 3149.6 1811.15 3149.6V3155.12L1809.79 3155.04C1805.36 3155.04 1801.9 3156.4 1799.39 3159.12C1796.88 3161.84 1795.63 3165.65 1795.63 3170.56V3192H1789.95V3149.92H1795.39V3158.16ZM1838.08 3149.6C1843.57 3149.6 1847.78 3150.99 1850.72 3153.76C1853.65 3156.48 1855.12 3160.53 1855.12 3165.92V3192H1849.68V3185.44C1848.4 3187.63 1846.5 3189.33 1844 3190.56C1841.54 3191.79 1838.61 3192.4 1835.2 3192.4C1830.5 3192.4 1826.77 3191.28 1824 3189.04C1821.22 3186.8 1819.84 3183.84 1819.84 3180.16C1819.84 3176.59 1821.12 3173.71 1823.68 3171.52C1826.29 3169.33 1830.42 3168.24 1836.08 3168.24H1849.44V3165.68C1849.44 3162.05 1848.42 3159.31 1846.4 3157.44C1844.37 3155.52 1841.41 3154.56 1837.52 3154.56C1834.85 3154.56 1832.29 3155.01 1829.84 3155.92C1827.38 3156.77 1825.28 3157.97 1823.52 3159.52L1820.96 3155.28C1823.09 3153.47 1825.65 3152.08 1828.64 3151.12C1831.62 3150.11 1834.77 3149.6 1838.08 3149.6ZM1836.08 3187.92C1839.28 3187.92 1842.02 3187.2 1844.32 3185.76C1846.61 3184.27 1848.32 3182.13 1849.44 3179.36V3172.48H1836.24C1829.04 3172.48 1825.44 3174.99 1825.44 3180C1825.44 3182.45 1826.37 3184.4 1828.24 3185.84C1830.1 3187.23 1832.72 3187.92 1836.08 3187.92ZM1883.83 3192.4C1880.41 3192.4 1877.13 3191.92 1873.99 3190.96C1870.89 3189.95 1868.47 3188.69 1866.71 3187.2L1869.27 3182.72C1871.03 3184.11 1873.24 3185.25 1875.91 3186.16C1878.57 3187.01 1881.35 3187.44 1884.23 3187.44C1888.07 3187.44 1890.89 3186.85 1892.71 3185.68C1894.57 3184.45 1895.51 3182.75 1895.51 3180.56C1895.51 3179.01 1895 3177.81 1893.99 3176.96C1892.97 3176.05 1891.69 3175.39 1890.15 3174.96C1888.6 3174.48 1886.55 3174.03 1883.99 3173.6C1880.57 3172.96 1877.83 3172.32 1875.75 3171.68C1873.67 3170.99 1871.88 3169.84 1870.39 3168.24C1868.95 3166.64 1868.23 3164.43 1868.23 3161.6C1868.23 3158.08 1869.69 3155.2 1872.63 3152.96C1875.56 3150.72 1879.64 3149.6 1884.87 3149.6C1887.59 3149.6 1890.31 3149.97 1893.03 3150.72C1895.75 3151.41 1897.99 3152.35 1899.75 3153.52L1897.27 3158.08C1893.8 3155.68 1889.67 3154.48 1884.87 3154.48C1881.24 3154.48 1878.49 3155.12 1876.63 3156.4C1874.81 3157.68 1873.91 3159.36 1873.91 3161.44C1873.91 3163.04 1874.41 3164.32 1875.43 3165.28C1876.49 3166.24 1877.8 3166.96 1879.35 3167.44C1880.89 3167.87 1883.03 3168.32 1885.74 3168.8C1889.11 3169.44 1891.8 3170.08 1893.83 3170.72C1895.85 3171.36 1897.59 3172.45 1899.03 3174C1900.47 3175.55 1901.19 3177.68 1901.19 3180.4C1901.19 3184.08 1899.64 3187.01 1896.55 3189.2C1893.51 3191.33 1889.27 3192.4 1883.83 3192.4Z" fill="black"/>
<path d="M1568.44 4995.48C1562.89 4995.48 1557.88 4994.25 1553.4 4991.8C1548.97 4989.35 1545.48 4985.96 1542.92 4981.64C1540.41 4977.27 1539.16 4972.39 1539.16 4967C1539.16 4961.61 1540.41 4956.76 1542.92 4952.44C1545.48 4948.07 1549 4944.65 1553.48 4942.2C1557.96 4939.75 1562.97 4938.52 1568.52 4938.52C1572.68 4938.52 1576.52 4939.21 1580.04 4940.6C1583.56 4941.99 1586.55 4944.01 1589 4946.68L1585.24 4950.44C1580.87 4946.01 1575.35 4943.8 1568.68 4943.8C1564.25 4943.8 1560.23 4944.81 1556.6 4946.84C1552.97 4948.87 1550.12 4951.64 1548.04 4955.16C1546.01 4958.68 1545 4962.63 1545 4967C1545 4971.37 1546.01 4975.32 1548.04 4978.84C1550.12 4982.36 1552.97 4985.13 1556.6 4987.16C1560.23 4989.19 1564.25 4990.2 1568.68 4990.2C1575.4 4990.2 1580.92 4987.96 1585.24 4983.48L1589 4987.24C1586.55 4989.91 1583.53 4991.96 1579.96 4993.4C1576.44 4994.79 1572.6 4995.48 1568.44 4995.48ZM1617.75 4995.4C1613.69 4995.4 1610.04 4994.49 1606.79 4992.68C1603.53 4990.81 1600.97 4988.25 1599.11 4985C1597.24 4981.75 1596.31 4978.07 1596.31 4973.96C1596.31 4969.85 1597.24 4966.17 1599.11 4962.92C1600.97 4959.67 1603.53 4957.13 1606.79 4955.32C1610.04 4953.51 1613.69 4952.6 1617.75 4952.6C1621.8 4952.6 1625.45 4953.51 1628.71 4955.32C1631.96 4957.13 1634.49 4959.67 1636.31 4962.92C1638.17 4966.17 1639.11 4969.85 1639.11 4973.96C1639.11 4978.07 1638.17 4981.75 1636.31 4985C1634.49 4988.25 1631.96 4990.81 1628.71 4992.68C1625.45 4994.49 1621.8 4995.4 1617.75 4995.4ZM1617.75 4990.36C1620.73 4990.36 1623.4 4989.69 1625.75 4988.36C1628.15 4986.97 1630.01 4985.03 1631.35 4982.52C1632.68 4980.01 1633.35 4977.16 1633.35 4973.96C1633.35 4970.76 1632.68 4967.91 1631.35 4965.4C1630.01 4962.89 1628.15 4960.97 1625.75 4959.64C1623.4 4958.25 1620.73 4957.56 1617.75 4957.56C1614.76 4957.56 1612.07 4958.25 1609.67 4959.64C1607.32 4960.97 1605.45 4962.89 1604.07 4965.4C1602.73 4967.91 1602.07 4970.76 1602.07 4973.96C1602.07 4977.16 1602.73 4980.01 1604.07 4982.52C1605.45 4985.03 1607.32 4986.97 1609.67 4988.36C1612.07 4989.69 1614.76 4990.36 1617.75 4990.36ZM1674.14 4952.6C1679.42 4952.6 1683.61 4954.15 1686.7 4957.24C1689.85 4960.28 1691.42 4964.73 1691.42 4970.6V4995H1685.74V4971.16C1685.74 4966.79 1684.65 4963.45 1682.46 4961.16C1680.27 4958.87 1677.15 4957.72 1673.1 4957.72C1668.57 4957.72 1664.97 4959.08 1662.3 4961.8C1659.69 4964.47 1658.38 4968.17 1658.38 4972.92V4995H1652.7V4952.92H1658.14V4960.68C1659.69 4958.12 1661.82 4956.15 1664.54 4954.76C1667.31 4953.32 1670.51 4952.6 1674.14 4952.6ZM1731 4992.44C1729.94 4993.4 1728.6 4994.15 1727 4994.68C1725.46 4995.16 1723.83 4995.4 1722.12 4995.4C1718.18 4995.4 1715.14 4994.33 1713 4992.2C1710.87 4990.07 1709.8 4987.05 1709.8 4983.16V4957.72H1702.28V4952.92H1709.8V4943.72H1715.48V4952.92H1728.28V4957.72H1715.48V4982.84C1715.48 4985.35 1716.1 4987.27 1717.32 4988.6C1718.6 4989.88 1720.42 4990.52 1722.76 4990.52C1723.94 4990.52 1725.06 4990.33 1726.12 4989.96C1727.24 4989.59 1728.2 4989.05 1729 4988.36L1731 4992.44ZM1758.06 4952.6C1763.56 4952.6 1767.77 4953.99 1770.7 4956.76C1773.64 4959.48 1775.1 4963.53 1775.1 4968.92V4995H1769.66V4988.44C1768.38 4990.63 1766.49 4992.33 1763.98 4993.56C1761.53 4994.79 1758.6 4995.4 1755.18 4995.4C1750.49 4995.4 1746.76 4994.28 1743.98 4992.04C1741.21 4989.8 1739.82 4986.84 1739.82 4983.16C1739.82 4979.59 1741.1 4976.71 1743.66 4974.52C1746.28 4972.33 1750.41 4971.24 1756.06 4971.24H1769.42V4968.68C1769.42 4965.05 1768.41 4962.31 1766.38 4960.44C1764.36 4958.52 1761.4 4957.56 1757.5 4957.56C1754.84 4957.56 1752.28 4958.01 1749.82 4958.92C1747.37 4959.77 1745.26 4960.97 1743.5 4962.52L1740.94 4958.28C1743.08 4956.47 1745.64 4955.08 1748.62 4954.12C1751.61 4953.11 1754.76 4952.6 1758.06 4952.6ZM1756.06 4990.92C1759.26 4990.92 1762.01 4990.2 1764.3 4988.76C1766.6 4987.27 1768.3 4985.13 1769.42 4982.36V4975.48H1756.22C1749.02 4975.48 1745.42 4977.99 1745.42 4983C1745.42 4985.45 1746.36 4987.4 1748.22 4988.84C1750.09 4990.23 1752.7 4990.92 1756.06 4990.92ZM1810.13 4995.4C1805.97 4995.4 1802.23 4994.49 1798.93 4992.68C1795.67 4990.87 1793.11 4988.33 1791.25 4985.08C1789.38 4981.77 1788.45 4978.07 1788.45 4973.96C1788.45 4969.85 1789.38 4966.17 1791.25 4962.92C1793.11 4959.67 1795.67 4957.13 1798.93 4955.32C1802.23 4953.51 1805.97 4952.6 1810.13 4952.6C1813.75 4952.6 1816.98 4953.32 1819.81 4954.76C1822.69 4956.15 1824.95 4958.2 1826.61 4960.92L1822.37 4963.8C1820.98 4961.72 1819.22 4960.17 1817.09 4959.16C1814.95 4958.09 1812.63 4957.56 1810.13 4957.56C1807.09 4957.56 1804.34 4958.25 1801.89 4959.64C1799.49 4960.97 1797.59 4962.89 1796.21 4965.4C1794.87 4967.91 1794.21 4970.76 1794.21 4973.96C1794.21 4977.21 1794.87 4980.09 1796.21 4982.6C1797.59 4985.05 1799.49 4986.97 1801.89 4988.36C1804.34 4989.69 1807.09 4990.36 1810.13 4990.36C1812.63 4990.36 1814.95 4989.85 1817.09 4988.84C1819.22 4987.83 1820.98 4986.28 1822.37 4984.2L1826.61 4987.08C1824.95 4989.8 1822.69 4991.88 1819.81 4993.32C1816.93 4994.71 1813.7 4995.4 1810.13 4995.4ZM1862.39 4992.44C1861.33 4993.4 1859.99 4994.15 1858.39 4994.68C1856.85 4995.16 1855.22 4995.4 1853.51 4995.4C1849.57 4995.4 1846.53 4994.33 1844.39 4992.2C1842.26 4990.07 1841.19 4987.05 1841.19 4983.16V4957.72H1833.67V4952.92H1841.19V4943.72H1846.87V4952.92H1859.67V4957.72H1846.87V4982.84C1846.87 4985.35 1847.49 4987.27 1848.71 4988.6C1849.99 4989.88 1851.81 4990.52 1854.15 4990.52C1855.33 4990.52 1856.45 4990.33 1857.51 4989.96C1858.63 4989.59 1859.59 4989.05 1860.39 4988.36L1862.39 4992.44ZM1890.45 4995.4C1886.39 4995.4 1882.74 4994.49 1879.49 4992.68C1876.23 4990.81 1873.67 4988.25 1871.81 4985C1869.94 4981.75 1869.01 4978.07 1869.01 4973.96C1869.01 4969.85 1869.94 4966.17 1871.81 4962.92C1873.67 4959.67 1876.23 4957.13 1879.49 4955.32C1882.74 4953.51 1886.39 4952.6 1890.45 4952.6C1894.5 4952.6 1898.15 4953.51 1901.41 4955.32C1904.66 4957.13 1907.19 4959.67 1909.01 4962.92C1910.87 4966.17 1911.81 4969.85 1911.81 4973.96C1911.81 4978.07 1910.87 4981.75 1909.01 4985C1907.19 4988.25 1904.66 4990.81 1901.41 4992.68C1898.15 4994.49 1894.5 4995.4 1890.45 4995.4ZM1890.45 4990.36C1893.43 4990.36 1896.1 4989.69 1898.45 4988.36C1900.85 4986.97 1902.71 4985.03 1904.05 4982.52C1905.38 4980.01 1906.05 4977.16 1906.05 4973.96C1906.05 4970.76 1905.38 4967.91 1904.05 4965.4C1902.71 4962.89 1900.85 4960.97 1898.45 4959.64C1896.1 4958.25 1893.43 4957.56 1890.45 4957.56C1887.46 4957.56 1884.77 4958.25 1882.37 4959.64C1880.02 4960.97 1878.15 4962.89 1876.77 4965.4C1875.43 4967.91 1874.77 4970.76 1874.77 4973.96C1874.77 4977.16 1875.43 4980.01 1876.77 4982.52C1878.15 4985.03 1880.02 4986.97 1882.37 4988.36C1884.77 4989.69 1887.46 4990.36 1890.45 4990.36Z" fill="black"/>
<path d="M1568.44 78.48C1562.89 78.48 1557.88 77.2533 1553.4 74.8C1548.97 72.3467 1545.48 68.96 1542.92 64.64C1540.41 60.2667 1539.16 55.3867 1539.16 50C1539.16 44.6133 1540.41 39.76 1542.92 35.44C1545.48 31.0667 1549 27.6533 1553.48 25.2C1557.96 22.7467 1562.97 21.52 1568.52 21.52C1572.68 21.52 1576.52 22.2133 1580.04 23.6C1583.56 24.9867 1586.55 27.0133 1589 29.68L1585.24 33.44C1580.87 29.0133 1575.35 26.8 1568.68 26.8C1564.25 26.8 1560.23 27.8133 1556.6 29.84C1552.97 31.8667 1550.12 34.64 1548.04 38.16C1546.01 41.68 1545 45.6267 1545 50C1545 54.3733 1546.01 58.32 1548.04 61.84C1550.12 65.36 1552.97 68.1333 1556.6 70.16C1560.23 72.1867 1564.25 73.2 1568.68 73.2C1575.4 73.2 1580.92 70.96 1585.24 66.48L1589 70.24C1586.55 72.9067 1583.53 74.96 1579.96 76.4C1576.44 77.7867 1572.6 78.48 1568.44 78.48ZM1616.52 35.6C1622.01 35.6 1626.22 36.9867 1629.16 39.76C1632.09 42.48 1633.56 46.5333 1633.56 51.92V78H1628.12V71.44C1626.84 73.6267 1624.94 75.3333 1622.44 76.56C1619.98 77.7867 1617.05 78.4 1613.64 78.4C1608.94 78.4 1605.21 77.28 1602.44 75.04C1599.66 72.8 1598.28 69.84 1598.28 66.16C1598.28 62.5867 1599.56 59.7067 1602.12 57.52C1604.73 55.3333 1608.86 54.24 1614.52 54.24H1627.88V51.68C1627.88 48.0533 1626.86 45.3067 1624.84 43.44C1622.81 41.52 1619.85 40.56 1615.96 40.56C1613.29 40.56 1610.73 41.0133 1608.28 41.92C1605.82 42.7733 1603.72 43.9733 1601.96 45.52L1599.4 41.28C1601.53 39.4667 1604.09 38.08 1607.08 37.12C1610.06 36.1067 1613.21 35.6 1616.52 35.6ZM1614.52 73.92C1617.72 73.92 1620.46 73.2 1622.76 71.76C1625.05 70.2667 1626.76 68.1333 1627.88 65.36V58.48H1614.68C1607.48 58.48 1603.88 60.9867 1603.88 66C1603.88 68.4533 1604.81 70.4 1606.68 71.84C1608.54 73.2267 1611.16 73.92 1614.52 73.92ZM1673.14 75.44C1672.08 76.4 1670.74 77.1467 1669.14 77.68C1667.6 78.16 1665.97 78.4 1664.26 78.4C1660.32 78.4 1657.28 77.3333 1655.14 75.2C1653.01 73.0667 1651.94 70.0533 1651.94 66.16V40.72H1644.42V35.92H1651.94V26.72H1657.62V35.92H1670.42V40.72H1657.62V65.84C1657.62 68.3467 1658.24 70.2667 1659.46 71.6C1660.74 72.88 1662.56 73.52 1664.9 73.52C1666.08 73.52 1667.2 73.3333 1668.26 72.96C1669.38 72.5867 1670.34 72.0533 1671.14 71.36L1673.14 75.44ZM1700.2 35.6C1705.7 35.6 1709.91 36.9867 1712.84 39.76C1715.78 42.48 1717.24 46.5333 1717.24 51.92V78H1711.8V71.44C1710.52 73.6267 1708.63 75.3333 1706.12 76.56C1703.67 77.7867 1700.74 78.4 1697.32 78.4C1692.63 78.4 1688.9 77.28 1686.12 75.04C1683.35 72.8 1681.96 69.84 1681.96 66.16C1681.96 62.5867 1683.24 59.7067 1685.8 57.52C1688.42 55.3333 1692.55 54.24 1698.2 54.24H1711.56V51.68C1711.56 48.0533 1710.55 45.3067 1708.52 43.44C1706.5 41.52 1703.54 40.56 1699.64 40.56C1696.98 40.56 1694.42 41.0133 1691.96 41.92C1689.51 42.7733 1687.4 43.9733 1685.64 45.52L1683.08 41.28C1685.22 39.4667 1687.78 38.08 1690.76 37.12C1693.75 36.1067 1696.9 35.6 1700.2 35.6ZM1698.2 73.92C1701.4 73.92 1704.15 73.2 1706.44 71.76C1708.74 70.2667 1710.44 68.1333 1711.56 65.36V58.48H1698.36C1691.16 58.48 1687.56 60.9867 1687.56 66C1687.56 68.4533 1688.5 70.4 1690.36 71.84C1692.23 73.2267 1694.84 73.92 1698.2 73.92ZM1706.12 19.44H1713.72L1700.76 29.36H1695.16L1706.12 19.44ZM1734.67 18.64H1740.35V78H1734.67V18.64ZM1775.35 78.4C1771.3 78.4 1767.65 77.4933 1764.39 75.68C1761.14 73.8133 1758.58 71.2533 1756.71 68C1754.85 64.7467 1753.91 61.0667 1753.91 56.96C1753.91 52.8533 1754.85 49.1733 1756.71 45.92C1758.58 42.6667 1761.14 40.1333 1764.39 38.32C1767.65 36.5067 1771.3 35.6 1775.35 35.6C1779.41 35.6 1783.06 36.5067 1786.31 38.32C1789.57 40.1333 1792.1 42.6667 1793.91 45.92C1795.78 49.1733 1796.71 52.8533 1796.71 56.96C1796.71 61.0667 1795.78 64.7467 1793.91 68C1792.1 71.2533 1789.57 73.8133 1786.31 75.68C1783.06 77.4933 1779.41 78.4 1775.35 78.4ZM1775.35 73.36C1778.34 73.36 1781.01 72.6933 1783.35 71.36C1785.75 69.9733 1787.62 68.0267 1788.95 65.52C1790.29 63.0133 1790.95 60.16 1790.95 56.96C1790.95 53.76 1790.29 50.9067 1788.95 48.4C1787.62 45.8933 1785.75 43.9733 1783.35 42.64C1781.01 41.2533 1778.34 40.56 1775.35 40.56C1772.37 40.56 1769.67 41.2533 1767.27 42.64C1764.93 43.9733 1763.06 45.8933 1761.67 48.4C1760.34 50.9067 1759.67 53.76 1759.67 56.96C1759.67 60.16 1760.34 63.0133 1761.67 65.52C1763.06 68.0267 1764.93 69.9733 1767.27 71.36C1769.67 72.6933 1772.37 73.36 1775.35 73.36ZM1849.27 35.92V72.88C1849.27 80.0267 1847.51 85.3067 1843.99 88.72C1840.52 92.1867 1835.27 93.92 1828.23 93.92C1824.34 93.92 1820.63 93.3333 1817.11 92.16C1813.64 91.04 1810.82 89.4667 1808.63 87.44L1811.51 83.12C1813.54 84.9333 1815.99 86.3467 1818.87 87.36C1821.8 88.3733 1824.87 88.88 1828.07 88.88C1833.4 88.88 1837.32 87.6267 1839.83 85.12C1842.34 82.6667 1843.59 78.8267 1843.59 73.6V68.24C1841.83 70.9067 1839.51 72.9333 1836.63 74.32C1833.8 75.7067 1830.66 76.4 1827.19 76.4C1823.24 76.4 1819.64 75.5467 1816.39 73.84C1813.19 72.08 1810.66 69.6533 1808.79 66.56C1806.98 63.4133 1806.07 59.8667 1806.07 55.92C1806.07 51.9733 1806.98 48.4533 1808.79 45.36C1810.66 42.2667 1813.19 39.8667 1816.39 38.16C1819.59 36.4533 1823.19 35.6 1827.19 35.6C1830.76 35.6 1833.99 36.32 1836.87 37.76C1839.75 39.2 1842.07 41.28 1843.83 44V35.92H1849.27ZM1827.75 71.36C1830.79 71.36 1833.54 70.72 1835.99 69.44C1838.44 68.1067 1840.34 66.2667 1841.67 63.92C1843.06 61.5733 1843.75 58.9067 1843.75 55.92C1843.75 52.9333 1843.06 50.2933 1841.67 48C1840.34 45.6533 1838.44 43.84 1835.99 42.56C1833.59 41.2267 1830.84 40.56 1827.75 40.56C1824.71 40.56 1821.96 41.2 1819.51 42.48C1817.11 43.76 1815.22 45.5733 1813.83 47.92C1812.5 50.2667 1811.83 52.9333 1811.83 55.92C1811.83 58.9067 1812.5 61.5733 1813.83 63.92C1815.22 66.2667 1817.11 68.1067 1819.51 69.44C1821.96 70.72 1824.71 71.36 1827.75 71.36ZM1884.35 78.4C1880.3 78.4 1876.65 77.4933 1873.39 75.68C1870.14 73.8133 1867.58 71.2533 1865.71 68C1863.85 64.7467 1862.91 61.0667 1862.91 56.96C1862.91 52.8533 1863.85 49.1733 1865.71 45.92C1867.58 42.6667 1870.14 40.1333 1873.39 38.32C1876.65 36.5067 1880.3 35.6 1884.35 35.6C1888.41 35.6 1892.06 36.5067 1895.31 38.32C1898.57 40.1333 1901.1 42.6667 1902.91 45.92C1904.78 49.1733 1905.71 52.8533 1905.71 56.96C1905.71 61.0667 1904.78 64.7467 1902.91 68C1901.1 71.2533 1898.57 73.8133 1895.31 75.68C1892.06 77.4933 1888.41 78.4 1884.35 78.4ZM1884.35 73.36C1887.34 73.36 1890.01 72.6933 1892.35 71.36C1894.75 69.9733 1896.62 68.0267 1897.95 65.52C1899.29 63.0133 1899.95 60.16 1899.95 56.96C1899.95 53.76 1899.29 50.9067 1897.95 48.4C1896.62 45.8933 1894.75 43.9733 1892.35 42.64C1890.01 41.2533 1887.34 40.56 1884.35 40.56C1881.37 40.56 1878.67 41.2533 1876.27 42.64C1873.93 43.9733 1872.06 45.8933 1870.67 48.4C1869.34 50.9067 1868.67 53.76 1868.67 56.96C1868.67 60.16 1869.34 63.0133 1870.67 65.52C1872.06 68.0267 1873.93 69.9733 1876.27 71.36C1878.67 72.6933 1881.37 73.36 1884.35 73.36Z" fill="black"/>
<path d="M2427.56 78.48C2423.4 78.48 2419.4 77.8133 2415.56 76.48C2411.77 75.1467 2408.84 73.3867 2406.76 71.2L2409.08 66.64C2411.11 68.6667 2413.8 70.32 2417.16 71.6C2420.52 72.8267 2423.99 73.44 2427.56 73.44C2432.57 73.44 2436.33 72.5333 2438.84 70.72C2441.35 68.8533 2442.6 66.4533 2442.6 63.52C2442.6 61.28 2441.91 59.4933 2440.52 58.16C2439.19 56.8267 2437.53 55.8133 2435.56 55.12C2433.59 54.3733 2430.84 53.5733 2427.32 52.72C2423.11 51.6533 2419.75 50.64 2417.24 49.68C2414.73 48.6667 2412.57 47.1467 2410.76 45.12C2409 43.0933 2408.12 40.3467 2408.12 36.88C2408.12 34.0533 2408.87 31.4933 2410.36 29.2C2411.85 26.8533 2414.15 24.9867 2417.24 23.6C2420.33 22.2133 2424.17 21.52 2428.76 21.52C2431.96 21.52 2435.08 21.9733 2438.12 22.88C2441.21 23.7333 2443.88 24.9333 2446.12 26.48L2444.12 31.2C2441.77 29.6533 2439.27 28.5067 2436.6 27.76C2433.93 26.96 2431.32 26.56 2428.76 26.56C2423.85 26.56 2420.15 27.52 2417.64 29.44C2415.19 31.3067 2413.96 33.7333 2413.96 36.72C2413.96 38.96 2414.63 40.7733 2415.96 42.16C2417.35 43.4933 2419.05 44.5333 2421.08 45.28C2423.16 45.9733 2425.93 46.7467 2429.4 47.6C2433.51 48.6133 2436.81 49.6267 2439.32 50.64C2441.88 51.6 2444.04 53.0933 2445.8 55.12C2447.56 57.0933 2448.44 59.7867 2448.44 63.2C2448.44 66.0267 2447.67 68.6133 2446.12 70.96C2444.63 73.2533 2442.31 75.0933 2439.16 76.48C2436.01 77.8133 2432.15 78.48 2427.56 78.48ZM2498.78 58.72H2463.58C2463.9 63.0933 2465.58 66.64 2468.62 69.36C2471.66 72.0267 2475.5 73.36 2480.14 73.36C2482.75 73.36 2485.15 72.9067 2487.34 72C2489.53 71.04 2491.42 69.6533 2493.02 67.84L2496.22 71.52C2494.35 73.76 2492.01 75.4667 2489.18 76.64C2486.41 77.8133 2483.34 78.4 2479.98 78.4C2475.66 78.4 2471.82 77.4933 2468.46 75.68C2465.15 73.8133 2462.57 71.2533 2460.7 68C2458.83 64.7467 2457.9 61.0667 2457.9 56.96C2457.9 52.8533 2458.78 49.1733 2460.54 45.92C2462.35 42.6667 2464.81 40.1333 2467.9 38.32C2471.05 36.5067 2474.57 35.6 2478.46 35.6C2482.35 35.6 2485.85 36.5067 2488.94 38.32C2492.03 40.1333 2494.46 42.6667 2496.22 45.92C2497.98 49.12 2498.86 52.8 2498.86 56.96L2498.78 58.72ZM2478.46 40.48C2474.41 40.48 2470.99 41.7867 2468.22 44.4C2465.5 46.96 2463.95 50.32 2463.58 54.48H2493.42C2493.05 50.32 2491.47 46.96 2488.7 44.4C2485.98 41.7867 2482.57 40.48 2478.46 40.48ZM2512.42 18.64H2518.1V78H2512.42V18.64ZM2572.54 58.72H2537.34C2537.66 63.0933 2539.34 66.64 2542.38 69.36C2545.42 72.0267 2549.26 73.36 2553.9 73.36C2556.52 73.36 2558.92 72.9067 2561.1 72C2563.29 71.04 2565.18 69.6533 2566.78 67.84L2569.98 71.52C2568.12 73.76 2565.77 75.4667 2562.94 76.64C2560.17 77.8133 2557.1 78.4 2553.74 78.4C2549.42 78.4 2545.58 77.4933 2542.22 75.68C2538.92 73.8133 2536.33 71.2533 2534.46 68C2532.6 64.7467 2531.66 61.0667 2531.66 56.96C2531.66 52.8533 2532.54 49.1733 2534.3 45.92C2536.12 42.6667 2538.57 40.1333 2541.66 38.32C2544.81 36.5067 2548.33 35.6 2552.22 35.6C2556.12 35.6 2559.61 36.5067 2562.7 38.32C2565.8 40.1333 2568.22 42.6667 2569.98 45.92C2571.74 49.12 2572.62 52.8 2572.62 56.96L2572.54 58.72ZM2552.22 40.48C2548.17 40.48 2544.76 41.7867 2541.98 44.4C2539.26 46.96 2537.72 50.32 2537.34 54.48H2567.18C2566.81 50.32 2565.24 46.96 2562.46 44.4C2559.74 41.7867 2556.33 40.48 2552.22 40.48ZM2603.63 78.4C2599.47 78.4 2595.73 77.4933 2592.43 75.68C2589.17 73.8667 2586.61 71.3333 2584.75 68.08C2582.88 64.7733 2581.95 61.0667 2581.95 56.96C2581.95 52.8533 2582.88 49.1733 2584.75 45.92C2586.61 42.6667 2589.17 40.1333 2592.43 38.32C2595.73 36.5067 2599.47 35.6 2603.63 35.6C2607.25 35.6 2610.48 36.32 2613.31 37.76C2616.19 39.1467 2618.45 41.2 2620.11 43.92L2615.87 46.8C2614.48 44.72 2612.72 43.1733 2610.59 42.16C2608.45 41.0933 2606.13 40.56 2603.63 40.56C2600.59 40.56 2597.84 41.2533 2595.39 42.64C2592.99 43.9733 2591.09 45.8933 2589.71 48.4C2588.37 50.9067 2587.71 53.76 2587.71 56.96C2587.71 60.2133 2588.37 63.0933 2589.71 65.6C2591.09 68.0533 2592.99 69.9733 2595.39 71.36C2597.84 72.6933 2600.59 73.36 2603.63 73.36C2606.13 73.36 2608.45 72.8533 2610.59 71.84C2612.72 70.8267 2614.48 69.28 2615.87 67.2L2620.11 70.08C2618.45 72.8 2616.19 74.88 2613.31 76.32C2610.43 77.7067 2607.2 78.4 2603.63 78.4ZM2650 78.4C2645.84 78.4 2642.11 77.4933 2638.8 75.68C2635.55 73.8667 2632.99 71.3333 2631.12 68.08C2629.25 64.7733 2628.32 61.0667 2628.32 56.96C2628.32 52.8533 2629.25 49.1733 2631.12 45.92C2632.99 42.6667 2635.55 40.1333 2638.8 38.32C2642.11 36.5067 2645.84 35.6 2650 35.6C2653.63 35.6 2656.85 36.32 2659.68 37.76C2662.56 39.1467 2664.83 41.2 2666.48 43.92L2662.24 46.8C2660.85 44.72 2659.09 43.1733 2656.96 42.16C2654.83 41.0933 2652.51 40.56 2650 40.56C2646.96 40.56 2644.21 41.2533 2641.76 42.64C2639.36 43.9733 2637.47 45.8933 2636.08 48.4C2634.75 50.9067 2634.08 53.76 2634.08 56.96C2634.08 60.2133 2634.75 63.0933 2636.08 65.6C2637.47 68.0533 2639.36 69.9733 2641.76 71.36C2644.21 72.6933 2646.96 73.36 2650 73.36C2652.51 73.36 2654.83 72.8533 2656.96 71.84C2659.09 70.8267 2660.85 69.28 2662.24 67.2L2666.48 70.08C2664.83 72.8 2662.56 74.88 2659.68 76.32C2656.8 77.7067 2653.57 78.4 2650 78.4ZM2679.64 35.92H2685.32V78H2679.64V35.92ZM2682.52 26.72C2681.35 26.72 2680.36 26.32 2679.56 25.52C2678.76 24.72 2678.36 23.76 2678.36 22.64C2678.36 21.5733 2678.76 20.64 2679.56 19.84C2680.36 19.04 2681.35 18.64 2682.52 18.64C2683.69 18.64 2684.68 19.04 2685.48 19.84C2686.28 20.5867 2686.68 21.4933 2686.68 22.56C2686.68 23.7333 2686.28 24.72 2685.48 25.52C2684.68 26.32 2683.69 26.72 2682.52 26.72ZM2720.32 78.4C2716.27 78.4 2712.62 77.4933 2709.36 75.68C2706.11 73.8133 2703.55 71.2533 2701.68 68C2699.82 64.7467 2698.88 61.0667 2698.88 56.96C2698.88 52.8533 2699.82 49.1733 2701.68 45.92C2703.55 42.6667 2706.11 40.1333 2709.36 38.32C2712.62 36.5067 2716.27 35.6 2720.32 35.6C2724.38 35.6 2728.03 36.5067 2731.28 38.32C2734.54 40.1333 2737.07 42.6667 2738.88 45.92C2740.75 49.1733 2741.68 52.8533 2741.68 56.96C2741.68 61.0667 2740.75 64.7467 2738.88 68C2737.07 71.2533 2734.54 73.8133 2731.28 75.68C2728.03 77.4933 2724.38 78.4 2720.32 78.4ZM2720.32 73.36C2723.31 73.36 2725.98 72.6933 2728.32 71.36C2730.72 69.9733 2732.59 68.0267 2733.92 65.52C2735.26 63.0133 2735.92 60.16 2735.92 56.96C2735.92 53.76 2735.26 50.9067 2733.92 48.4C2732.59 45.8933 2730.72 43.9733 2728.32 42.64C2725.98 41.2533 2723.31 40.56 2720.32 40.56C2717.34 40.56 2714.64 41.2533 2712.24 42.64C2709.9 43.9733 2708.03 45.8933 2706.64 48.4C2705.31 50.9067 2704.64 53.76 2704.64 56.96C2704.64 60.16 2705.31 63.0133 2706.64 65.52C2708.03 68.0267 2709.9 69.9733 2712.24 71.36C2714.64 72.6933 2717.34 73.36 2720.32 73.36ZM2776.72 35.6C2782 35.6 2786.19 37.1467 2789.28 40.24C2792.43 43.28 2794 47.7333 2794 53.6V78H2788.32V54.16C2788.32 49.7867 2787.23 46.4533 2785.04 44.16C2782.85 41.8667 2779.73 40.72 2775.68 40.72C2771.15 40.72 2767.55 42.08 2764.88 44.8C2762.27 47.4667 2760.96 51.1733 2760.96 55.92V78H2755.28V35.92H2760.72V43.68C2762.27 41.12 2764.4 39.1467 2767.12 37.76C2769.89 36.32 2773.09 35.6 2776.72 35.6ZM2826.14 35.6C2831.63 35.6 2835.85 36.9867 2838.78 39.76C2841.71 42.48 2843.18 46.5333 2843.18 51.92V78H2837.74V71.44C2836.46 73.6267 2834.57 75.3333 2832.06 76.56C2829.61 77.7867 2826.67 78.4 2823.26 78.4C2818.57 78.4 2814.83 77.28 2812.06 75.04C2809.29 72.8 2807.9 69.84 2807.9 66.16C2807.9 62.5867 2809.18 59.7067 2811.74 57.52C2814.35 55.3333 2818.49 54.24 2824.14 54.24H2837.5V51.68C2837.5 48.0533 2836.49 45.3067 2834.46 43.44C2832.43 41.52 2829.47 40.56 2825.58 40.56C2822.91 40.56 2820.35 41.0133 2817.9 41.92C2815.45 42.7733 2813.34 43.9733 2811.58 45.52L2809.02 41.28C2811.15 39.4667 2813.71 38.08 2816.7 37.12C2819.69 36.1067 2822.83 35.6 2826.14 35.6ZM2824.14 73.92C2827.34 73.92 2830.09 73.2 2832.38 71.76C2834.67 70.2667 2836.38 68.1333 2837.5 65.36V58.48H2824.3C2817.1 58.48 2813.5 60.9867 2813.5 66C2813.5 68.4533 2814.43 70.4 2816.3 71.84C2818.17 73.2267 2820.78 73.92 2824.14 73.92ZM2866.05 44.16C2867.38 41.3333 2869.35 39.2 2871.97 37.76C2874.63 36.32 2877.91 35.6 2881.81 35.6V41.12L2880.45 41.04C2876.02 41.04 2872.55 42.4 2870.05 45.12C2867.54 47.84 2866.29 51.6533 2866.29 56.56V78H2860.61V35.92H2866.05V44.16ZM2939.33 35.6C2943.28 35.6 2946.85 36.5067 2950.05 38.32C2953.25 40.08 2955.76 42.5867 2957.57 45.84C2959.39 49.0933 2960.29 52.8 2960.29 56.96C2960.29 61.1733 2959.39 64.9067 2957.57 68.16C2955.76 71.4133 2953.25 73.9467 2950.05 75.76C2946.91 77.52 2943.33 78.4 2939.33 78.4C2935.92 78.4 2932.83 77.7067 2930.05 76.32C2927.33 74.88 2925.09 72.8 2923.33 70.08V93.52H2917.65V35.92H2923.09V44.24C2924.8 41.4667 2927.04 39.3333 2929.81 37.84C2932.64 36.3467 2935.81 35.6 2939.33 35.6ZM2938.93 73.36C2941.87 73.36 2944.53 72.6933 2946.93 71.36C2949.33 69.9733 2951.2 68.0267 2952.53 65.52C2953.92 63.0133 2954.61 60.16 2954.61 56.96C2954.61 53.76 2953.92 50.9333 2952.53 48.48C2951.2 45.9733 2949.33 44.0267 2946.93 42.64C2944.53 41.2533 2941.87 40.56 2938.93 40.56C2935.95 40.56 2933.25 41.2533 2930.85 42.64C2928.51 44.0267 2926.64 45.9733 2925.25 48.48C2923.92 50.9333 2923.25 53.76 2923.25 56.96C2923.25 60.16 2923.92 63.0133 2925.25 65.52C2926.64 68.0267 2928.51 69.9733 2930.85 71.36C2933.25 72.6933 2935.95 73.36 2938.93 73.36ZM2979.31 44.16C2980.65 41.3333 2982.62 39.2 2985.23 37.76C2987.9 36.32 2991.18 35.6 2995.07 35.6V41.12L2993.71 41.04C2989.29 41.04 2985.82 42.4 2983.31 45.12C2980.81 47.84 2979.55 51.6533 2979.55 56.56V78H2973.87V35.92H2979.31V44.16ZM3024.17 78.4C3020.11 78.4 3016.46 77.4933 3013.21 75.68C3009.95 73.8133 3007.39 71.2533 3005.53 68C3003.66 64.7467 3002.73 61.0667 3002.73 56.96C3002.73 52.8533 3003.66 49.1733 3005.53 45.92C3007.39 42.6667 3009.95 40.1333 3013.21 38.32C3016.46 36.5067 3020.11 35.6 3024.17 35.6C3028.22 35.6 3031.87 36.5067 3035.13 38.32C3038.38 40.1333 3040.91 42.6667 3042.73 45.92C3044.59 49.1733 3045.53 52.8533 3045.53 56.96C3045.53 61.0667 3044.59 64.7467 3042.73 68C3040.91 71.2533 3038.38 73.8133 3035.13 75.68C3031.87 77.4933 3028.22 78.4 3024.17 78.4ZM3024.17 73.36C3027.15 73.36 3029.82 72.6933 3032.17 71.36C3034.57 69.9733 3036.43 68.0267 3037.77 65.52C3039.1 63.0133 3039.77 60.16 3039.77 56.96C3039.77 53.76 3039.1 50.9067 3037.77 48.4C3036.43 45.8933 3034.57 43.9733 3032.17 42.64C3029.82 41.2533 3027.15 40.56 3024.17 40.56C3021.18 40.56 3018.49 41.2533 3016.09 42.64C3013.74 43.9733 3011.87 45.8933 3010.49 48.4C3009.15 50.9067 3008.49 53.76 3008.49 56.96C3008.49 60.16 3009.15 63.0133 3010.49 65.52C3011.87 68.0267 3013.74 69.9733 3016.09 71.36C3018.49 72.6933 3021.18 73.36 3024.17 73.36ZM3097.52 18.64V78H3092.08V69.68C3090.38 72.5067 3088.11 74.6667 3085.28 76.16C3082.51 77.6533 3079.36 78.4 3075.84 78.4C3071.9 78.4 3068.32 77.4933 3065.12 75.68C3061.92 73.8667 3059.42 71.3333 3057.6 68.08C3055.79 64.8267 3054.88 61.12 3054.88 56.96C3054.88 52.8 3055.79 49.0933 3057.6 45.84C3059.42 42.5867 3061.92 40.08 3065.12 38.32C3068.32 36.5067 3071.9 35.6 3075.84 35.6C3079.26 35.6 3082.32 36.32 3085.04 37.76C3087.82 39.1467 3090.08 41.2 3091.84 43.92V18.64H3097.52ZM3076.32 73.36C3079.26 73.36 3081.9 72.6933 3084.24 71.36C3086.64 69.9733 3088.51 68.0267 3089.84 65.52C3091.23 63.0133 3091.92 60.16 3091.92 56.96C3091.92 53.76 3091.23 50.9067 3089.84 48.4C3088.51 45.8933 3086.64 43.9733 3084.24 42.64C3081.9 41.2533 3079.26 40.56 3076.32 40.56C3073.34 40.56 3070.64 41.2533 3068.24 42.64C3065.9 43.9733 3064.03 45.8933 3062.64 48.4C3061.31 50.9067 3060.64 53.76 3060.64 56.96C3060.64 60.16 3061.31 63.0133 3062.64 65.52C3064.03 68.0267 3065.9 69.9733 3068.24 71.36C3070.64 72.6933 3073.34 73.36 3076.32 73.36ZM3153.26 35.92V78H3147.82V70.32C3146.33 72.88 3144.28 74.88 3141.66 76.32C3139.05 77.7067 3136.06 78.4 3132.7 78.4C3127.21 78.4 3122.86 76.88 3119.66 73.84C3116.52 70.7467 3114.94 66.24 3114.94 60.32V35.92H3120.62V59.76C3120.62 64.1867 3121.72 67.5467 3123.9 69.84C3126.09 72.1333 3129.21 73.28 3133.26 73.28C3137.69 73.28 3141.18 71.9467 3143.74 69.28C3146.3 66.56 3147.58 62.8 3147.58 58V35.92H3153.26ZM3188.61 78.4C3184.45 78.4 3180.72 77.4933 3177.41 75.68C3174.16 73.8667 3171.6 71.3333 3169.73 68.08C3167.86 64.7733 3166.93 61.0667 3166.93 56.96C3166.93 52.8533 3167.86 49.1733 3169.73 45.92C3171.6 42.6667 3174.16 40.1333 3177.41 38.32C3180.72 36.5067 3184.45 35.6 3188.61 35.6C3192.24 35.6 3195.46 36.32 3198.29 37.76C3201.17 39.1467 3203.44 41.2 3205.09 43.92L3200.85 46.8C3199.46 44.72 3197.7 43.1733 3195.57 42.16C3193.44 41.0933 3191.12 40.56 3188.61 40.56C3185.57 40.56 3182.82 41.2533 3180.37 42.64C3177.97 43.9733 3176.08 45.8933 3174.69 48.4C3173.36 50.9067 3172.69 53.76 3172.69 56.96C3172.69 60.2133 3173.36 63.0933 3174.69 65.6C3176.08 68.0533 3177.97 69.9733 3180.37 71.36C3182.82 72.6933 3185.57 73.36 3188.61 73.36C3191.12 73.36 3193.44 72.8533 3195.57 71.84C3197.7 70.8267 3199.46 69.28 3200.85 67.2L3205.09 70.08C3203.44 72.8 3201.17 74.88 3198.29 76.32C3195.41 77.7067 3192.18 78.4 3188.61 78.4ZM3240.88 75.44C3239.81 76.4 3238.48 77.1467 3236.88 77.68C3235.33 78.16 3233.7 78.4 3232 78.4C3228.05 78.4 3225.01 77.3333 3222.88 75.2C3220.74 73.0667 3219.68 70.0533 3219.68 66.16V40.72H3212.16V35.92H3219.68V26.72H3225.36V35.92H3238.16V40.72H3225.36V65.84C3225.36 68.3467 3225.97 70.2667 3227.2 71.6C3228.48 72.88 3230.29 73.52 3232.64 73.52C3233.81 73.52 3234.93 73.3333 3236 72.96C3237.12 72.5867 3238.08 72.0533 3238.88 71.36L3240.88 75.44ZM3268.93 78.4C3264.88 78.4 3261.23 77.4933 3257.97 75.68C3254.72 73.8133 3252.16 71.2533 3250.29 68C3248.43 64.7467 3247.49 61.0667 3247.49 56.96C3247.49 52.8533 3248.43 49.1733 3250.29 45.92C3252.16 42.6667 3254.72 40.1333 3257.97 38.32C3261.23 36.5067 3264.88 35.6 3268.93 35.6C3272.99 35.6 3276.64 36.5067 3279.89 38.32C3283.15 40.1333 3285.68 42.6667 3287.49 45.92C3289.36 49.1733 3290.29 52.8533 3290.29 56.96C3290.29 61.0667 3289.36 64.7467 3287.49 68C3285.68 71.2533 3283.15 73.8133 3279.89 75.68C3276.64 77.4933 3272.99 78.4 3268.93 78.4ZM3268.93 73.36C3271.92 73.36 3274.59 72.6933 3276.93 71.36C3279.33 69.9733 3281.2 68.0267 3282.53 65.52C3283.87 63.0133 3284.53 60.16 3284.53 56.96C3284.53 53.76 3283.87 50.9067 3282.53 48.4C3281.2 45.8933 3279.33 43.9733 3276.93 42.64C3274.59 41.2533 3271.92 40.56 3268.93 40.56C3265.95 40.56 3263.25 41.2533 3260.85 42.64C3258.51 43.9733 3256.64 45.8933 3255.25 48.4C3253.92 50.9067 3253.25 53.76 3253.25 56.96C3253.25 60.16 3253.92 63.0133 3255.25 65.52C3256.64 68.0267 3258.51 69.9733 3260.85 71.36C3263.25 72.6933 3265.95 73.36 3268.93 73.36Z" fill="black"/>
<path d="M3666.08 22C3673.23 22 3678.83 23.7067 3682.88 27.12C3686.93 30.5333 3688.96 35.2267 3688.96 41.2C3688.96 47.1733 3686.93 51.8667 3682.88 55.28C3678.83 58.64 3673.23 60.32 3666.08 60.32H3651.04V78H3645.12V22H3666.08ZM3665.92 55.12C3671.47 55.12 3675.71 53.92 3678.64 51.52C3681.57 49.0667 3683.04 45.6267 3683.04 41.2C3683.04 36.6667 3681.57 33.2 3678.64 30.8C3675.71 28.3467 3671.47 27.12 3665.92 27.12H3651.04V55.12H3665.92ZM3716.89 35.6C3722.38 35.6 3726.6 36.9867 3729.53 39.76C3732.46 42.48 3733.93 46.5333 3733.93 51.92V78H3728.49V71.44C3727.21 73.6267 3725.32 75.3333 3722.81 76.56C3720.36 77.7867 3717.42 78.4 3714.01 78.4C3709.32 78.4 3705.58 77.28 3702.81 75.04C3700.04 72.8 3698.65 69.84 3698.65 66.16C3698.65 62.5867 3699.93 59.7067 3702.49 57.52C3705.1 55.3333 3709.24 54.24 3714.89 54.24H3728.25V51.68C3728.25 48.0533 3727.24 45.3067 3725.21 43.44C3723.18 41.52 3720.22 40.56 3716.33 40.56C3713.66 40.56 3711.1 41.0133 3708.65 41.92C3706.2 42.7733 3704.09 43.9733 3702.33 45.52L3699.77 41.28C3701.9 39.4667 3704.46 38.08 3707.45 37.12C3710.44 36.1067 3713.58 35.6 3716.89 35.6ZM3714.89 73.92C3718.09 73.92 3720.84 73.2 3723.13 71.76C3725.42 70.2667 3727.13 68.1333 3728.25 65.36V58.48H3715.05C3707.85 58.48 3704.25 60.9867 3704.25 66C3704.25 68.4533 3705.18 70.4 3707.05 71.84C3708.92 73.2267 3711.53 73.92 3714.89 73.92ZM3790.47 35.92V72.88C3790.47 80.0267 3788.71 85.3067 3785.19 88.72C3781.73 92.1867 3776.47 93.92 3769.43 93.92C3765.54 93.92 3761.83 93.3333 3758.31 92.16C3754.85 91.04 3752.02 89.4667 3749.83 87.44L3752.71 83.12C3754.74 84.9333 3757.19 86.3467 3760.07 87.36C3763.01 88.3733 3766.07 88.88 3769.27 88.88C3774.61 88.88 3778.53 87.6267 3781.03 85.12C3783.54 82.6667 3784.79 78.8267 3784.79 73.6V68.24C3783.03 70.9067 3780.71 72.9333 3777.83 74.32C3775.01 75.7067 3771.86 76.4 3768.39 76.4C3764.45 76.4 3760.85 75.5467 3757.59 73.84C3754.39 72.08 3751.86 69.6533 3749.99 66.56C3748.18 63.4133 3747.27 59.8667 3747.27 55.92C3747.27 51.9733 3748.18 48.4533 3749.99 45.36C3751.86 42.2667 3754.39 39.8667 3757.59 38.16C3760.79 36.4533 3764.39 35.6 3768.39 35.6C3771.97 35.6 3775.19 36.32 3778.07 37.76C3780.95 39.2 3783.27 41.28 3785.03 44V35.92H3790.47ZM3768.95 71.36C3771.99 71.36 3774.74 70.72 3777.19 69.44C3779.65 68.1067 3781.54 66.2667 3782.87 63.92C3784.26 61.5733 3784.95 58.9067 3784.95 55.92C3784.95 52.9333 3784.26 50.2933 3782.87 48C3781.54 45.6533 3779.65 43.84 3777.19 42.56C3774.79 41.2267 3772.05 40.56 3768.95 40.56C3765.91 40.56 3763.17 41.2 3760.71 42.48C3758.31 43.76 3756.42 45.5733 3755.03 47.92C3753.7 50.2667 3753.03 52.9333 3753.03 55.92C3753.03 58.9067 3753.7 61.5733 3755.03 63.92C3756.42 66.2667 3758.31 68.1067 3760.71 69.44C3763.17 70.72 3765.91 71.36 3768.95 71.36ZM3808.36 35.92H3814.04V78H3808.36V35.92ZM3811.24 26.72C3810.06 26.72 3809.08 26.32 3808.28 25.52C3807.48 24.72 3807.08 23.76 3807.08 22.64C3807.08 21.5733 3807.48 20.64 3808.28 19.84C3809.08 19.04 3810.06 18.64 3811.24 18.64C3812.41 18.64 3813.4 19.04 3814.2 19.84C3815 20.5867 3815.4 21.4933 3815.4 22.56C3815.4 23.7333 3815 24.72 3814.2 25.52C3813.4 26.32 3812.41 26.72 3811.24 26.72ZM3853.28 35.6C3858.56 35.6 3862.75 37.1467 3865.84 40.24C3868.99 43.28 3870.56 47.7333 3870.56 53.6V78H3864.88V54.16C3864.88 49.7867 3863.79 46.4533 3861.6 44.16C3859.42 41.8667 3856.3 40.72 3852.24 40.72C3847.71 40.72 3844.11 42.08 3841.44 44.8C3838.83 47.4667 3837.52 51.1733 3837.52 55.92V78H3831.84V35.92H3837.28V43.68C3838.83 41.12 3840.96 39.1467 3843.68 37.76C3846.46 36.32 3849.66 35.6 3853.28 35.6ZM3902.7 35.6C3908.2 35.6 3912.41 36.9867 3915.34 39.76C3918.28 42.48 3919.74 46.5333 3919.74 51.92V78H3914.3V71.44C3913.02 73.6267 3911.13 75.3333 3908.62 76.56C3906.17 77.7867 3903.24 78.4 3899.82 78.4C3895.13 78.4 3891.4 77.28 3888.62 75.04C3885.85 72.8 3884.46 69.84 3884.46 66.16C3884.46 62.5867 3885.74 59.7067 3888.3 57.52C3890.92 55.3333 3895.05 54.24 3900.7 54.24H3914.06V51.68C3914.06 48.0533 3913.05 45.3067 3911.02 43.44C3909 41.52 3906.04 40.56 3902.14 40.56C3899.48 40.56 3896.92 41.0133 3894.46 41.92C3892.01 42.7733 3889.9 43.9733 3888.14 45.52L3885.58 41.28C3887.72 39.4667 3890.28 38.08 3893.26 37.12C3896.25 36.1067 3899.4 35.6 3902.7 35.6ZM3900.7 73.92C3903.9 73.92 3906.65 73.2 3908.94 71.76C3911.24 70.2667 3912.94 68.1333 3914.06 65.36V58.48H3900.86C3893.66 58.48 3890.06 60.9867 3890.06 66C3890.06 68.4533 3891 70.4 3892.86 71.84C3894.73 73.2267 3897.34 73.92 3900.7 73.92ZM3981.79 35.6C3985.73 35.6 3989.31 36.5067 3992.51 38.32C3995.71 40.08 3998.21 42.5867 4000.03 45.84C4001.84 49.0933 4002.75 52.8 4002.75 56.96C4002.75 61.1733 4001.84 64.9067 4000.03 68.16C3998.21 71.4133 3995.71 73.9467 3992.51 75.76C3989.36 77.52 3985.79 78.4 3981.79 78.4C3978.37 78.4 3975.28 77.7067 3972.51 76.32C3969.79 74.88 3967.55 72.8 3965.79 70.08V93.52H3960.11V35.92H3965.55V44.24C3967.25 41.4667 3969.49 39.3333 3972.27 37.84C3975.09 36.3467 3978.27 35.6 3981.79 35.6ZM3981.39 73.36C3984.32 73.36 3986.99 72.6933 3989.39 71.36C3991.79 69.9733 3993.65 68.0267 3994.99 65.52C3996.37 63.0133 3997.07 60.16 3997.07 56.96C3997.07 53.76 3996.37 50.9333 3994.99 48.48C3993.65 45.9733 3991.79 44.0267 3989.39 42.64C3986.99 41.2533 3984.32 40.56 3981.39 40.56C3978.4 40.56 3975.71 41.2533 3973.31 42.64C3970.96 44.0267 3969.09 45.9733 3967.71 48.48C3966.37 50.9333 3965.71 53.76 3965.71 56.96C3965.71 60.16 3966.37 63.0133 3967.71 65.52C3969.09 68.0267 3970.96 69.9733 3973.31 71.36C3975.71 72.6933 3978.4 73.36 3981.39 73.36ZM4021.77 44.16C4023.1 41.3333 4025.07 39.2 4027.69 37.76C4030.35 36.32 4033.63 35.6 4037.53 35.6V41.12L4036.17 41.04C4031.74 41.04 4028.27 42.4 4025.77 45.12C4023.26 47.84 4022.01 51.6533 4022.01 56.56V78H4016.33V35.92H4021.77V44.16ZM4066.62 78.4C4062.57 78.4 4058.91 77.4933 4055.66 75.68C4052.41 73.8133 4049.85 71.2533 4047.98 68C4046.11 64.7467 4045.18 61.0667 4045.18 56.96C4045.18 52.8533 4046.11 49.1733 4047.98 45.92C4049.85 42.6667 4052.41 40.1333 4055.66 38.32C4058.91 36.5067 4062.57 35.6 4066.62 35.6C4070.67 35.6 4074.33 36.5067 4077.58 38.32C4080.83 40.1333 4083.37 42.6667 4085.18 45.92C4087.05 49.1733 4087.98 52.8533 4087.98 56.96C4087.98 61.0667 4087.05 64.7467 4085.18 68C4083.37 71.2533 4080.83 73.8133 4077.58 75.68C4074.33 77.4933 4070.67 78.4 4066.62 78.4ZM4066.62 73.36C4069.61 73.36 4072.27 72.6933 4074.62 71.36C4077.02 69.9733 4078.89 68.0267 4080.22 65.52C4081.55 63.0133 4082.22 60.16 4082.22 56.96C4082.22 53.76 4081.55 50.9067 4080.22 48.4C4078.89 45.8933 4077.02 43.9733 4074.62 42.64C4072.27 41.2533 4069.61 40.56 4066.62 40.56C4063.63 40.56 4060.94 41.2533 4058.54 42.64C4056.19 43.9733 4054.33 45.8933 4052.94 48.4C4051.61 50.9067 4050.94 53.76 4050.94 56.96C4050.94 60.16 4051.61 63.0133 4052.94 65.52C4054.33 68.0267 4056.19 69.9733 4058.54 71.36C4060.94 72.6933 4063.63 73.36 4066.62 73.36ZM4139.98 18.64V78H4134.54V69.68C4132.83 72.5067 4130.56 74.6667 4127.74 76.16C4124.96 77.6533 4121.82 78.4 4118.3 78.4C4114.35 78.4 4110.78 77.4933 4107.58 75.68C4104.38 73.8667 4101.87 71.3333 4100.06 68.08C4098.24 64.8267 4097.34 61.12 4097.34 56.96C4097.34 52.8 4098.24 49.0933 4100.06 45.84C4101.87 42.5867 4104.38 40.08 4107.58 38.32C4110.78 36.5067 4114.35 35.6 4118.3 35.6C4121.71 35.6 4124.78 36.32 4127.5 37.76C4130.27 39.1467 4132.54 41.2 4134.3 43.92V18.64H4139.98ZM4118.78 73.36C4121.71 73.36 4124.35 72.6933 4126.7 71.36C4129.1 69.9733 4130.96 68.0267 4132.3 65.52C4133.68 63.0133 4134.38 60.16 4134.38 56.96C4134.38 53.76 4133.68 50.9067 4132.3 48.4C4130.96 45.8933 4129.1 43.9733 4126.7 42.64C4124.35 41.2533 4121.71 40.56 4118.78 40.56C4115.79 40.56 4113.1 41.2533 4110.7 42.64C4108.35 43.9733 4106.48 45.8933 4105.1 48.4C4103.76 50.9067 4103.1 53.76 4103.1 56.96C4103.1 60.16 4103.76 63.0133 4105.1 65.52C4106.48 68.0267 4108.35 69.9733 4110.7 71.36C4113.1 72.6933 4115.79 73.36 4118.78 73.36ZM4195.72 35.92V78H4190.27V70.32C4188.78 72.88 4186.73 74.88 4184.12 76.32C4181.5 77.7067 4178.52 78.4 4175.16 78.4C4169.66 78.4 4165.32 76.88 4162.12 73.84C4158.97 70.7467 4157.4 66.24 4157.4 60.32V35.92H4163.08V59.76C4163.08 64.1867 4164.17 67.5467 4166.36 69.84C4168.54 72.1333 4171.66 73.28 4175.72 73.28C4180.14 73.28 4183.64 71.9467 4186.2 69.28C4188.76 66.56 4190.04 62.8 4190.04 58V35.92H4195.72ZM4231.06 78.4C4226.9 78.4 4223.17 77.4933 4219.86 75.68C4216.61 73.8667 4214.05 71.3333 4212.18 68.08C4210.32 64.7733 4209.38 61.0667 4209.38 56.96C4209.38 52.8533 4210.32 49.1733 4212.18 45.92C4214.05 42.6667 4216.61 40.1333 4219.86 38.32C4223.17 36.5067 4226.9 35.6 4231.06 35.6C4234.69 35.6 4237.92 36.32 4240.74 37.76C4243.62 39.1467 4245.89 41.2 4247.54 43.92L4243.3 46.8C4241.92 44.72 4240.16 43.1733 4238.02 42.16C4235.89 41.0933 4233.57 40.56 4231.06 40.56C4228.02 40.56 4225.28 41.2533 4222.82 42.64C4220.42 43.9733 4218.53 45.8933 4217.14 48.4C4215.81 50.9067 4215.14 53.76 4215.14 56.96C4215.14 60.2133 4215.81 63.0933 4217.14 65.6C4218.53 68.0533 4220.42 69.9733 4222.82 71.36C4225.28 72.6933 4228.02 73.36 4231.06 73.36C4233.57 73.36 4235.89 72.8533 4238.02 71.84C4240.16 70.8267 4241.92 69.28 4243.3 67.2L4247.54 70.08C4245.89 72.8 4243.62 74.88 4240.74 76.32C4237.86 77.7067 4234.64 78.4 4231.06 78.4ZM4283.33 75.44C4282.26 76.4 4280.93 77.1467 4279.33 77.68C4277.78 78.16 4276.16 78.4 4274.45 78.4C4270.5 78.4 4267.46 77.3333 4265.33 75.2C4263.2 73.0667 4262.13 70.0533 4262.13 66.16V40.72H4254.61V35.92H4262.13V26.72H4267.81V35.92H4280.61V40.72H4267.81V65.84C4267.81 68.3467 4268.42 70.2667 4269.65 71.6C4270.93 72.88 4272.74 73.52 4275.09 73.52C4276.26 73.52 4277.38 73.3333 4278.45 72.96C4279.57 72.5867 4280.53 72.0533 4281.33 71.36L4283.33 75.44ZM4311.39 78.4C4307.33 78.4 4303.68 77.4933 4300.43 75.68C4297.17 73.8133 4294.61 71.2533 4292.75 68C4290.88 64.7467 4289.95 61.0667 4289.95 56.96C4289.95 52.8533 4290.88 49.1733 4292.75 45.92C4294.61 42.6667 4297.17 40.1333 4300.43 38.32C4303.68 36.5067 4307.33 35.6 4311.39 35.6C4315.44 35.6 4319.09 36.5067 4322.35 38.32C4325.6 40.1333 4328.13 42.6667 4329.95 45.92C4331.81 49.1733 4332.75 52.8533 4332.75 56.96C4332.75 61.0667 4331.81 64.7467 4329.95 68C4328.13 71.2533 4325.6 73.8133 4322.35 75.68C4319.09 77.4933 4315.44 78.4 4311.39 78.4ZM4311.39 73.36C4314.37 73.36 4317.04 72.6933 4319.39 71.36C4321.79 69.9733 4323.65 68.0267 4324.99 65.52C4326.32 63.0133 4326.99 60.16 4326.99 56.96C4326.99 53.76 4326.32 50.9067 4324.99 48.4C4323.65 45.8933 4321.79 43.9733 4319.39 42.64C4317.04 41.2533 4314.37 40.56 4311.39 40.56C4308.4 40.56 4305.71 41.2533 4303.31 42.64C4300.96 43.9733 4299.09 45.8933 4297.71 48.4C4296.37 50.9067 4295.71 53.76 4295.71 56.96C4295.71 60.16 4296.37 63.0133 4297.71 65.52C4299.09 68.0267 4300.96 69.9733 4303.31 71.36C4305.71 72.6933 4308.4 73.36 4311.39 73.36Z" fill="black"/>
<path d="M4862.36 78L4849.56 60C4848.12 60.16 4846.63 60.24 4845.08 60.24H4830.04V78H4824.12V22H4845.08C4852.23 22 4857.83 23.7067 4861.88 27.12C4865.93 30.5333 4867.96 35.2267 4867.96 41.2C4867.96 45.5733 4866.84 49.28 4864.6 52.32C4862.41 55.3067 4859.27 57.4667 4855.16 58.8L4868.84 78H4862.36ZM4844.92 55.2C4850.47 55.2 4854.71 53.9733 4857.64 51.52C4860.57 49.0667 4862.04 45.6267 4862.04 41.2C4862.04 36.6667 4860.57 33.2 4857.64 30.8C4854.71 28.3467 4850.47 27.12 4844.92 27.12H4830.04V55.2H4844.92ZM4919.37 58.72H4884.17C4884.49 63.0933 4886.17 66.64 4889.21 69.36C4892.25 72.0267 4896.09 73.36 4900.73 73.36C4903.35 73.36 4905.75 72.9067 4907.93 72C4910.12 71.04 4912.01 69.6533 4913.61 67.84L4916.81 71.52C4914.95 73.76 4912.6 75.4667 4909.77 76.64C4907 77.8133 4903.93 78.4 4900.57 78.4C4896.25 78.4 4892.41 77.4933 4889.05 75.68C4885.75 73.8133 4883.16 71.2533 4881.29 68C4879.43 64.7467 4878.49 61.0667 4878.49 56.96C4878.49 52.8533 4879.37 49.1733 4881.13 45.92C4882.95 42.6667 4885.4 40.1333 4888.49 38.32C4891.64 36.5067 4895.16 35.6 4899.05 35.6C4902.95 35.6 4906.44 36.5067 4909.53 38.32C4912.63 40.1333 4915.05 42.6667 4916.81 45.92C4918.57 49.12 4919.45 52.8 4919.45 56.96L4919.37 58.72ZM4899.05 40.48C4895 40.48 4891.59 41.7867 4888.81 44.4C4886.09 46.96 4884.55 50.32 4884.17 54.48H4914.01C4913.64 50.32 4912.07 46.96 4909.29 44.4C4906.57 41.7867 4903.16 40.48 4899.05 40.48ZM4971.41 18.64V78H4965.97V69.68C4964.27 72.5067 4962 74.6667 4959.17 76.16C4956.4 77.6533 4953.25 78.4 4949.73 78.4C4945.79 78.4 4942.21 77.4933 4939.01 75.68C4935.81 73.8667 4933.31 71.3333 4931.49 68.08C4929.68 64.8267 4928.77 61.12 4928.77 56.96C4928.77 52.8 4929.68 49.0933 4931.49 45.84C4933.31 42.5867 4935.81 40.08 4939.01 38.32C4942.21 36.5067 4945.79 35.6 4949.73 35.6C4953.15 35.6 4956.21 36.32 4958.93 37.76C4961.71 39.1467 4963.97 41.2 4965.73 43.92V18.64H4971.41ZM4950.21 73.36C4953.15 73.36 4955.79 72.6933 4958.13 71.36C4960.53 69.9733 4962.4 68.0267 4963.73 65.52C4965.12 63.0133 4965.81 60.16 4965.81 56.96C4965.81 53.76 4965.12 50.9067 4963.73 48.4C4962.4 45.8933 4960.53 43.9733 4958.13 42.64C4955.79 41.2533 4953.15 40.56 4950.21 40.56C4947.23 40.56 4944.53 41.2533 4942.13 42.64C4939.79 43.9733 4937.92 45.8933 4936.53 48.4C4935.2 50.9067 4934.53 53.76 4934.53 56.96C4934.53 60.16 4935.2 63.0133 4936.53 65.52C4937.92 68.0267 4939.79 69.9733 4942.13 71.36C4944.53 72.6933 4947.23 73.36 4950.21 73.36ZM5025.87 58.72H4990.67C4990.99 63.0933 4992.67 66.64 4995.71 69.36C4998.75 72.0267 5002.59 73.36 5007.23 73.36C5009.85 73.36 5012.25 72.9067 5014.43 72C5016.62 71.04 5018.51 69.6533 5020.11 67.84L5023.31 71.52C5021.45 73.76 5019.1 75.4667 5016.27 76.64C5013.5 77.8133 5010.43 78.4 5007.07 78.4C5002.75 78.4 4998.91 77.4933 4995.55 75.68C4992.25 73.8133 4989.66 71.2533 4987.79 68C4985.93 64.7467 4984.99 61.0667 4984.99 56.96C4984.99 52.8533 4985.87 49.1733 4987.63 45.92C4989.45 42.6667 4991.9 40.1333 4994.99 38.32C4998.14 36.5067 5001.66 35.6 5005.55 35.6C5009.45 35.6 5012.94 36.5067 5016.03 38.32C5019.13 40.1333 5021.55 42.6667 5023.31 45.92C5025.07 49.12 5025.95 52.8 5025.95 56.96L5025.87 58.72ZM5005.55 40.48C5001.5 40.48 4998.09 41.7867 4995.31 44.4C4992.59 46.96 4991.05 50.32 4990.67 54.48H5020.51C5020.14 50.32 5018.57 46.96 5015.79 44.4C5013.07 41.7867 5009.66 40.48 5005.55 40.48ZM5050.79 78.4C5047.38 78.4 5044.1 77.92 5040.95 76.96C5037.86 75.9467 5035.43 74.6933 5033.67 73.2L5036.23 68.72C5037.99 70.1067 5040.21 71.2533 5042.87 72.16C5045.54 73.0133 5048.31 73.44 5051.19 73.44C5055.03 73.44 5057.86 72.8533 5059.67 71.68C5061.54 70.4533 5062.47 68.7467 5062.47 66.56C5062.47 65.0133 5061.97 63.8133 5060.95 62.96C5059.94 62.0533 5058.66 61.3867 5057.11 60.96C5055.57 60.48 5053.51 60.0267 5050.95 59.6C5047.54 58.96 5044.79 58.32 5042.71 57.68C5040.63 56.9867 5038.85 55.84 5037.35 54.24C5035.91 52.64 5035.19 50.4267 5035.19 47.6C5035.19 44.08 5036.66 41.2 5039.59 38.96C5042.53 36.72 5046.61 35.6 5051.83 35.6C5054.55 35.6 5057.27 35.9733 5059.99 36.72C5062.71 37.4133 5064.95 38.3467 5066.71 39.52L5064.23 44.08C5060.77 41.68 5056.63 40.48 5051.83 40.48C5048.21 40.48 5045.46 41.12 5043.59 42.4C5041.78 43.68 5040.87 45.36 5040.87 47.44C5040.87 49.04 5041.38 50.32 5042.39 51.28C5043.46 52.24 5044.77 52.96 5046.31 53.44C5047.86 53.8667 5049.99 54.32 5052.71 54.8C5056.07 55.44 5058.77 56.08 5060.79 56.72C5062.82 57.36 5064.55 58.4533 5065.99 60C5067.43 61.5467 5068.15 63.68 5068.15 66.4C5068.15 70.08 5066.61 73.0133 5063.51 75.2C5060.47 77.3333 5056.23 78.4 5050.79 78.4ZM5114.87 78.4C5111.46 78.4 5108.18 77.92 5105.03 76.96C5101.94 75.9467 5099.51 74.6933 5097.75 73.2L5100.31 68.72C5102.07 70.1067 5104.29 71.2533 5106.95 72.16C5109.62 73.0133 5112.39 73.44 5115.27 73.44C5119.11 73.44 5121.94 72.8533 5123.75 71.68C5125.62 70.4533 5126.55 68.7467 5126.55 66.56C5126.55 65.0133 5126.05 63.8133 5125.03 62.96C5124.02 62.0533 5122.74 61.3867 5121.19 60.96C5119.65 60.48 5117.59 60.0267 5115.03 59.6C5111.62 58.96 5108.87 58.32 5106.79 57.68C5104.71 56.9867 5102.93 55.84 5101.43 54.24C5099.99 52.64 5099.27 50.4267 5099.27 47.6C5099.27 44.08 5100.74 41.2 5103.67 38.96C5106.61 36.72 5110.69 35.6 5115.91 35.6C5118.63 35.6 5121.35 35.9733 5124.07 36.72C5126.79 37.4133 5129.03 38.3467 5130.79 39.52L5128.31 44.08C5124.85 41.68 5120.71 40.48 5115.91 40.48C5112.29 40.48 5109.54 41.12 5107.67 42.4C5105.86 43.68 5104.95 45.36 5104.95 47.44C5104.95 49.04 5105.46 50.32 5106.47 51.28C5107.54 52.24 5108.85 52.96 5110.39 53.44C5111.94 53.8667 5114.07 54.32 5116.79 54.8C5120.15 55.44 5122.85 56.08 5124.87 56.72C5126.9 57.36 5128.63 58.4533 5130.07 60C5131.51 61.5467 5132.23 63.68 5132.23 66.4C5132.23 70.08 5130.69 73.0133 5127.59 75.2C5124.55 77.3333 5120.31 78.4 5114.87 78.4ZM5161.93 78.4C5157.88 78.4 5154.23 77.4933 5150.97 75.68C5147.72 73.8133 5145.16 71.2533 5143.29 68C5141.43 64.7467 5140.49 61.0667 5140.49 56.96C5140.49 52.8533 5141.43 49.1733 5143.29 45.92C5145.16 42.6667 5147.72 40.1333 5150.97 38.32C5154.23 36.5067 5157.88 35.6 5161.93 35.6C5165.99 35.6 5169.64 36.5067 5172.89 38.32C5176.15 40.1333 5178.68 42.6667 5180.49 45.92C5182.36 49.1733 5183.29 52.8533 5183.29 56.96C5183.29 61.0667 5182.36 64.7467 5180.49 68C5178.68 71.2533 5176.15 73.8133 5172.89 75.68C5169.64 77.4933 5165.99 78.4 5161.93 78.4ZM5161.93 73.36C5164.92 73.36 5167.59 72.6933 5169.93 71.36C5172.33 69.9733 5174.2 68.0267 5175.53 65.52C5176.87 63.0133 5177.53 60.16 5177.53 56.96C5177.53 53.76 5176.87 50.9067 5175.53 48.4C5174.2 45.8933 5172.33 43.9733 5169.93 42.64C5167.59 41.2533 5164.92 40.56 5161.93 40.56C5158.95 40.56 5156.25 41.2533 5153.85 42.64C5151.51 43.9733 5149.64 45.8933 5148.25 48.4C5146.92 50.9067 5146.25 53.76 5146.25 56.96C5146.25 60.16 5146.92 63.0133 5148.25 65.52C5149.64 68.0267 5151.51 69.9733 5153.85 71.36C5156.25 72.6933 5158.95 73.36 5161.93 73.36ZM5214.33 78.4C5210.17 78.4 5206.44 77.4933 5203.13 75.68C5199.88 73.8667 5197.32 71.3333 5195.45 68.08C5193.58 64.7733 5192.65 61.0667 5192.65 56.96C5192.65 52.8533 5193.58 49.1733 5195.45 45.92C5197.32 42.6667 5199.88 40.1333 5203.13 38.32C5206.44 36.5067 5210.17 35.6 5214.33 35.6C5217.96 35.6 5221.18 36.32 5224.01 37.76C5226.89 39.1467 5229.16 41.2 5230.81 43.92L5226.57 46.8C5225.18 44.72 5223.42 43.1733 5221.29 42.16C5219.16 41.0933 5216.84 40.56 5214.33 40.56C5211.29 40.56 5208.54 41.2533 5206.09 42.64C5203.69 43.9733 5201.8 45.8933 5200.41 48.4C5199.08 50.9067 5198.41 53.76 5198.41 56.96C5198.41 60.2133 5199.08 63.0933 5200.41 65.6C5201.8 68.0533 5203.69 69.9733 5206.09 71.36C5208.54 72.6933 5211.29 73.36 5214.33 73.36C5216.84 73.36 5219.16 72.8533 5221.29 71.84C5223.42 70.8267 5225.18 69.28 5226.57 67.2L5230.81 70.08C5229.16 72.8 5226.89 74.88 5224.01 76.32C5221.13 77.7067 5217.9 78.4 5214.33 78.4ZM5243.97 35.92H5249.65V78H5243.97V35.92ZM5246.85 26.72C5245.67 26.72 5244.69 26.32 5243.89 25.52C5243.09 24.72 5242.69 23.76 5242.69 22.64C5242.69 21.5733 5243.09 20.64 5243.89 19.84C5244.69 19.04 5245.67 18.64 5246.85 18.64C5248.02 18.64 5249.01 19.04 5249.81 19.84C5250.61 20.5867 5251.01 21.4933 5251.01 22.56C5251.01 23.7333 5250.61 24.72 5249.81 25.52C5249.01 26.32 5248.02 26.72 5246.85 26.72ZM5282.17 35.6C5287.66 35.6 5291.88 36.9867 5294.81 39.76C5297.74 42.48 5299.21 46.5333 5299.21 51.92V78H5293.77V71.44C5292.49 73.6267 5290.6 75.3333 5288.09 76.56C5285.64 77.7867 5282.7 78.4 5279.29 78.4C5274.6 78.4 5270.86 77.28 5268.09 75.04C5265.32 72.8 5263.93 69.84 5263.93 66.16C5263.93 62.5867 5265.21 59.7067 5267.77 57.52C5270.38 55.3333 5274.52 54.24 5280.17 54.24H5293.53V51.68C5293.53 48.0533 5292.52 45.3067 5290.49 43.44C5288.46 41.52 5285.5 40.56 5281.61 40.56C5278.94 40.56 5276.38 41.0133 5273.93 41.92C5271.48 42.7733 5269.37 43.9733 5267.61 45.52L5265.05 41.28C5267.18 39.4667 5269.74 38.08 5272.73 37.12C5275.72 36.1067 5278.86 35.6 5282.17 35.6ZM5280.17 73.92C5283.37 73.92 5286.12 73.2 5288.41 71.76C5290.7 70.2667 5292.41 68.1333 5293.53 65.36V58.48H5280.33C5273.13 58.48 5269.53 60.9867 5269.53 66C5269.53 68.4533 5270.46 70.4 5272.33 71.84C5274.2 73.2267 5276.81 73.92 5280.17 73.92ZM5316.64 18.64H5322.32V78H5316.64V18.64ZM5376.76 58.72H5341.56C5341.88 63.0933 5343.56 66.64 5346.6 69.36C5349.64 72.0267 5353.48 73.36 5358.12 73.36C5360.74 73.36 5363.14 72.9067 5365.32 72C5367.51 71.04 5369.4 69.6533 5371 67.84L5374.2 71.52C5372.34 73.76 5369.99 75.4667 5367.16 76.64C5364.39 77.8133 5361.32 78.4 5357.96 78.4C5353.64 78.4 5349.8 77.4933 5346.44 75.68C5343.14 73.8133 5340.55 71.2533 5338.68 68C5336.82 64.7467 5335.88 61.0667 5335.88 56.96C5335.88 52.8533 5336.76 49.1733 5338.52 45.92C5340.34 42.6667 5342.79 40.1333 5345.88 38.32C5349.03 36.5067 5352.55 35.6 5356.44 35.6C5360.34 35.6 5363.83 36.5067 5366.92 38.32C5370.02 40.1333 5372.44 42.6667 5374.2 45.92C5375.96 49.12 5376.84 52.8 5376.84 56.96L5376.76 58.72ZM5356.44 40.48C5352.39 40.48 5348.98 41.7867 5346.2 44.4C5343.48 46.96 5341.94 50.32 5341.56 54.48H5371.4C5371.03 50.32 5369.46 46.96 5366.68 44.4C5363.96 41.7867 5360.55 40.48 5356.44 40.48ZM5401.68 78.4C5398.27 78.4 5394.99 77.92 5391.84 76.96C5388.75 75.9467 5386.32 74.6933 5384.56 73.2L5387.12 68.72C5388.88 70.1067 5391.1 71.2533 5393.76 72.16C5396.43 73.0133 5399.2 73.44 5402.08 73.44C5405.92 73.44 5408.75 72.8533 5410.56 71.68C5412.43 70.4533 5413.36 68.7467 5413.36 66.56C5413.36 65.0133 5412.86 63.8133 5411.84 62.96C5410.83 62.0533 5409.55 61.3867 5408 60.96C5406.46 60.48 5404.4 60.0267 5401.84 59.6C5398.43 58.96 5395.68 58.32 5393.6 57.68C5391.52 56.9867 5389.74 55.84 5388.24 54.24C5386.8 52.64 5386.08 50.4267 5386.08 47.6C5386.08 44.08 5387.55 41.2 5390.48 38.96C5393.42 36.72 5397.5 35.6 5402.72 35.6C5405.44 35.6 5408.16 35.9733 5410.88 36.72C5413.6 37.4133 5415.84 38.3467 5417.6 39.52L5415.12 44.08C5411.66 41.68 5407.52 40.48 5402.72 40.48C5399.1 40.48 5396.35 41.12 5394.48 42.4C5392.67 43.68 5391.76 45.36 5391.76 47.44C5391.76 49.04 5392.27 50.32 5393.28 51.28C5394.35 52.24 5395.66 52.96 5397.2 53.44C5398.75 53.8667 5400.88 54.32 5403.6 54.8C5406.96 55.44 5409.66 56.08 5411.68 56.72C5413.71 57.36 5415.44 58.4533 5416.88 60C5418.32 61.5467 5419.04 63.68 5419.04 66.4C5419.04 70.08 5417.5 73.0133 5414.4 75.2C5411.36 77.3333 5407.12 78.4 5401.68 78.4Z" fill="black"/>
<rect x="1309" y="294" width="252" height="439" fill="white"/>
<rect x="2434" y="294" width="252" height="439" fill="white"/>
<rect x="1309" y="785" width="252" height="336" fill="white"/>
<rect x="2434" y="785" width="252" height="336" fill="white"/>
<rect x="1603" y="294" width="252" height="439" fill="white"/>
<rect x="2728" y="294" width="252" height="439" fill="white"/>
<rect x="3613" y="268" width="746" height="365" fill="white"/>
<rect x="1346" y="1845" width="746" height="365" fill="white"/>
<rect x="78" y="2788" width="746" height="365" fill="white"/>
<rect x="78" y="3212" width="746" height="365" fill="white"/>
<rect x="1346" y="3582" width="746" height="365" fill="white"/>
<rect x="4745" y="268" width="746" height="365" fill="white"/>
<rect x="3613" y="707" width="746" height="116" fill="white"/>
<rect x="1346" y="2284" width="746" height="116" fill="white"/>
<rect x="1346" y="4021" width="746" height="116" fill="white"/>
<rect x="4745" y="707" width="746" height="116" fill="white"/>
<rect x="3613" y="897" width="746" height="116" fill="white"/>
<rect x="1346" y="2474" width="746" height="116" fill="white"/>
<rect x="1346" y="5824" width="746" height="116" fill="white"/>
<rect x="4745" y="897" width="746" height="116" fill="white"/>
<rect x="1603" y="785" width="252" height="336" fill="white"/>
<rect x="2728" y="785" width="252" height="336" fill="white"/>
<rect x="1897" y="294" width="252" height="439" fill="white"/>
<rect x="3022" y="294" width="252" height="439" fill="#798F77"/>
<rect x="1897" y="785" width="252" height="336" fill="white"/>
<rect x="3022" y="785" width="252" height="336" fill="white"/>
<path d="M2396 707L2371 692.566V721.434L2396 707ZM2373.5 704.5H2173V709.5H2373.5V704.5Z" fill="#7C6436"/>
<path d="M1229 707L1204 692.566V721.434L1229 707ZM451.5 707V704.5H449V707H451.5ZM1206.5 704.5H451.5V709.5H1206.5V704.5ZM449 707V2329H454V707H449Z" fill="#7C6436"/>
<path d="M5110 1416.5L5124.43 1441.5L5095.57 1441.5L5110 1416.5ZM5110 2180L5112.5 2180L5112.5 2182.5L5110 2182.5L5110 2180ZM5112.5 1439L5112.5 2180L5107.5 2180L5107.5 1439L5112.5 1439ZM5110 2182.5L2257 2182.5L2257 2177.5L5110 2177.5L5110 2182.5Z" fill="#7C6436"/>
<path d="M5106 2178L5120.43 2203L5091.57 2203L5106 2178ZM5106.01 5778.5L5108.51 5778.5L5108.51 5781L5106.01 5781L5106.01 5778.5ZM5108.5 2200.5L5108.51 5778.5L5103.51 5778.5L5103.5 2200.5L5108.5 2200.5ZM5106.01 5781L2302.01 5781L2302.01 5776L5106.01 5776L5106.01 5781Z" fill="#7C6436"/>
<path d="M1228.5 2158L1203.5 2143.57V2172.43L1228.5 2158ZM451 2158V2155.5H448.5V2158H451ZM1206 2155.5H451V2160.5H1206V2155.5ZM448.5 2158V2403.5H453.5V2158H448.5Z" fill="#7C6436"/>
<path d="M1228.5 3974.5L1203.5 3960.07V3988.93L1228.5 3974.5ZM451 3974.5H448.5V3977H451V3974.5ZM1206 3972H451V3977H1206V3972ZM453.5 3974.5V3678H448.5V3974.5H453.5Z" fill="#7C6436"/>
<path d="M1228 5686L1203 5671.57V5700.43L1228 5686ZM451 5686H448.5V5688.5H451V5686ZM1205.5 5683.5H451V5688.5H1205.5V5683.5ZM453.5 5686V3678H448.5V5686H453.5Z" fill="#7C6436"/>
<path d="M3528 707L3503 692.566V721.434L3528 707ZM3505.5 704.5H3305V709.5H3505.5V704.5Z" fill="#7C6436"/>
<path d="M4667 707L4642 692.566V721.434L4667 707ZM4644.5 704.5H4444V709.5H4644.5V704.5Z" fill="#7C6436"/>
<rect x="3672" y="1056" width="115" height="88" fill="white"/>
<rect x="1405" y="2633" width="115" height="88" fill="white"/>
<rect x="1405" y="5983" width="115" height="88" fill="white"/>
<rect x="4804" y="1056" width="115" height="88" fill="white"/>
<rect x="4126" y="1056" width="115" height="88" fill="white"/>
<rect x="1859" y="2633" width="115" height="88" fill="white"/>
<rect x="1859" y="5983" width="115" height="88" fill="white"/>
<rect x="5255" y="1056" width="115" height="88" fill="#798F77"/>
</svg>
